<svg width="32" height="33" viewBox="0 0 32 33" fill="none" xmlns="http://www.w3.org/2000/svg">
<path opacity="0.2" d="M28 8.66162V22.6616C28 23.1921 27.7893 23.7008 27.4142 24.0758C27.0391 24.4509 26.5304 24.6616 26 24.6616H19.4287L16 20.6616L12.5712 24.6616H6C5.46957 24.6616 4.96086 24.4509 4.58579 24.0758C4.21071 23.7008 4 23.1921 4 22.6616V8.66162C4 8.13119 4.21071 7.62248 4.58579 7.24741C4.96086 6.87233 5.46957 6.66162 6 6.66162H26C26.5304 6.66162 27.0391 6.87233 27.4142 7.24741C27.7893 7.62248 28 8.13119 28 8.66162Z" fill="black"/>
<path d="M16.76 20.0104C16.6661 19.9008 16.5496 19.8129 16.4186 19.7526C16.2875 19.6922 16.1449 19.661 16.0006 19.661C15.8563 19.661 15.7138 19.6922 15.5827 19.7526C15.4516 19.8129 15.3351 19.9008 15.2413 20.0104L9.24125 27.0104C9.11667 27.1555 9.03634 27.3334 9.00979 27.5228C8.98324 27.7123 9.01158 27.9053 9.09145 28.0792C9.17132 28.253 9.29937 28.4002 9.4604 28.5035C9.62144 28.6067 9.80871 28.6616 10 28.6616H22C22.1913 28.6616 22.3786 28.6067 22.5396 28.5035C22.7006 28.4002 22.8287 28.253 22.9086 28.0792C22.9884 27.9053 23.0168 27.7123 22.9902 27.5228C22.9637 27.3334 22.8833 27.1555 22.7588 27.0104L16.76 20.0104ZM12.1737 26.6616L16 22.1979L19.8263 26.6616H12.1737ZM29 8.66162V22.6616C29 23.4573 28.6839 24.2203 28.1213 24.7829C27.5587 25.3456 26.7956 25.6616 26 25.6616H25C24.7348 25.6616 24.4804 25.5563 24.2929 25.3687C24.1054 25.1812 24 24.9268 24 24.6616C24 24.3964 24.1054 24.142 24.2929 23.9545C24.4804 23.767 24.7348 23.6616 25 23.6616H26C26.2652 23.6616 26.5196 23.5563 26.7071 23.3687C26.8946 23.1812 27 22.9268 27 22.6616V8.66162C27 8.3964 26.8946 8.14205 26.7071 7.95451C26.5196 7.76698 26.2652 7.66162 26 7.66162H6C5.73478 7.66162 5.48043 7.76698 5.29289 7.95451C5.10536 8.14205 5 8.3964 5 8.66162V22.6616C5 22.9268 5.10536 23.1812 5.29289 23.3687C5.48043 23.5563 5.73478 23.6616 6 23.6616H7C7.26522 23.6616 7.51957 23.767 7.70711 23.9545C7.89464 24.142 8 24.3964 8 24.6616C8 24.9268 7.89464 25.1812 7.70711 25.3687C7.51957 25.5563 7.26522 25.6616 7 25.6616H6C5.20435 25.6616 4.44129 25.3456 3.87868 24.7829C3.31607 24.2203 3 23.4573 3 22.6616V8.66162C3 7.86597 3.31607 7.10291 3.87868 6.5403C4.44129 5.97769 5.20435 5.66162 6 5.66162H26C26.7956 5.66162 27.5587 5.97769 28.1213 6.5403C28.6839 7.10291 29 7.86597 29 8.66162Z" fill="#E6C536"/>
</svg>
