<svg width="51" height="51" viewBox="0 0 51 51" fill="none" xmlns="http://www.w3.org/2000/svg">
<path opacity="0.2" d="M45.8125 31.9115V36.599C45.8125 37.0134 45.6479 37.4108 45.3549 37.7039C45.0618 37.9969 44.6644 38.1615 44.25 38.1615H6.75C6.3356 38.1615 5.93817 37.9969 5.64515 37.7039C5.35212 37.4108 5.1875 37.0134 5.1875 36.599V32.1322C5.1875 20.9056 14.2012 11.6381 25.4277 11.599C28.1013 11.5895 30.7504 12.1079 33.2232 13.1244C35.696 14.141 37.9437 15.6357 39.8376 17.5228C41.7314 19.4099 43.2341 21.6524 44.2594 24.1215C45.2847 26.5907 45.8125 29.2379 45.8125 31.9115Z" fill="black"/>
<path d="M34.875 29.5678C34.875 30.0313 34.7375 30.4845 34.48 30.8699C34.2225 31.2553 33.8564 31.5557 33.4282 31.7331C32.9999 31.9105 32.5287 31.9569 32.074 31.8665C31.6194 31.776 31.2018 31.5528 30.874 31.225C30.5462 30.8973 30.323 30.4796 30.2325 30.025C30.1421 29.5704 30.1885 29.0991 30.3659 28.6708C30.5433 28.2426 30.8437 27.8765 31.2291 27.619C31.6146 27.3615 32.0677 27.224 32.5313 27.224C33.1529 27.224 33.749 27.4709 34.1885 27.9105C34.6281 28.35 34.875 28.9462 34.875 29.5678ZM18.4688 27.224C18.0052 27.224 17.5521 27.3615 17.1666 27.619C16.7812 27.8765 16.4808 28.2426 16.3034 28.6708C16.126 29.0991 16.0796 29.5704 16.17 30.025C16.2605 30.4796 16.4837 30.8973 16.8115 31.225C17.1393 31.5528 17.5569 31.776 18.0115 31.8665C18.4662 31.9569 18.9374 31.9105 19.3657 31.7331C19.7939 31.5557 20.16 31.2553 20.4175 30.8699C20.6751 30.4845 20.8125 30.0313 20.8125 29.5678C20.8125 28.9462 20.5656 28.35 20.126 27.9105C19.6865 27.4709 19.0904 27.224 18.4688 27.224ZM47.375 31.9115V36.599C47.375 37.4278 47.0458 38.2227 46.4597 38.8087C45.8737 39.3948 45.0788 39.724 44.25 39.724H6.75001C5.92121 39.724 5.12635 39.3948 4.5403 38.8087C3.95425 38.2227 3.62501 37.4278 3.62501 36.599V32.1322C3.62223 29.1201 4.23396 26.1392 5.42278 23.3716C6.61161 20.6041 8.35253 18.1081 10.5391 16.0365L5.64454 11.142C5.35135 10.8488 5.18664 10.4511 5.18664 10.0365C5.18664 9.62188 5.35135 9.22423 5.64454 8.93104C5.93773 8.63786 6.33538 8.47314 6.75001 8.47314C7.16464 8.47314 7.56229 8.63786 7.85548 8.93104L12.9649 14.0404C16.6334 11.4412 21.017 10.0423 25.513 10.036C30.009 10.0297 34.3965 11.4163 38.0723 14.0053L43.1504 8.92714C43.4436 8.63395 43.8412 8.46924 44.2559 8.46924C44.6705 8.46924 45.0681 8.63395 45.3613 8.92714C45.6545 9.22033 45.8192 9.61798 45.8192 10.0326C45.8192 10.4472 45.6545 10.8449 45.3613 11.1381L40.5039 15.9935C40.6504 16.1322 40.7969 16.2728 40.9414 16.4174C42.9872 18.4447 44.6094 20.8585 45.7139 23.5185C46.8184 26.1784 47.383 29.0314 47.375 31.9115ZM44.25 31.9115C44.25 26.9387 42.2746 22.1696 38.7583 18.6533C35.242 15.137 30.4728 13.1615 25.5 13.1615H25.4336C15.1309 13.1967 6.75001 21.7064 6.75001 32.1322V36.599H44.25V31.9115Z" fill="#FED96A"/>
</svg>
