<svg width="50" height="51" viewBox="0 0 50 51" fill="none" xmlns="http://www.w3.org/2000/svg">
<path opacity="0.2" d="M20.3125 23.5991C20.3125 22.672 20.5874 21.7657 21.1025 20.9949C21.6175 20.224 22.3496 19.6232 23.2061 19.2684C24.0627 18.9137 25.0052 18.8208 25.9145 19.0017C26.8237 19.1826 27.659 19.629 28.3145 20.2846C28.9701 20.9401 29.4165 21.7754 29.5974 22.6846C29.7783 23.5939 29.6854 24.5364 29.3307 25.393C28.9759 26.2495 28.3751 26.9816 27.6042 27.4966C26.8334 28.0117 25.9271 28.2866 25 28.2866C23.7568 28.2866 22.5645 27.7928 21.6854 26.9137C20.8063 26.0346 20.3125 24.8423 20.3125 23.5991ZM28.0761 28.2866H21.9238C21.4458 28.2818 20.9729 28.3864 20.5415 28.5923C20.11 28.7981 19.7313 29.0999 19.4343 29.4746C19.1373 29.8492 18.9299 30.2868 18.8279 30.7538C18.7258 31.2209 18.7319 31.7051 18.8457 32.1694L21.2265 41.5444C21.4036 42.225 21.8024 42.8271 22.3598 43.2557C22.9172 43.6844 23.6015 43.9152 24.3047 43.9116H25.6953C26.3985 43.9152 27.0828 43.6844 27.6402 43.2557C28.1976 42.8271 28.5963 42.225 28.7734 41.5444L31.1543 32.1694C31.268 31.7051 31.2741 31.2209 31.1721 30.7538C31.0701 30.2868 30.8626 29.8492 30.5656 29.4746C30.2686 29.0999 29.89 28.7981 29.4585 28.5923C29.027 28.3864 28.5542 28.2818 28.0761 28.2866Z" fill="black"/>
<path d="M30.1172 27.1791C30.7739 26.2426 31.161 25.1439 31.2364 24.0027C31.3118 22.8614 31.0726 21.7214 30.5448 20.7067C30.0171 19.692 29.221 18.8415 28.2433 18.248C27.2656 17.6545 26.1438 17.3406 25 17.3406C23.8563 17.3406 22.7344 17.6545 21.7567 18.248C20.779 18.8415 19.9829 19.692 19.4552 20.7067C18.9274 21.7214 18.6882 22.8614 18.7636 24.0027C18.839 25.1439 19.2261 26.2426 19.8828 27.1791C19.2133 27.4944 18.6272 27.9628 18.1719 28.5463C17.7345 29.1043 17.4313 29.7555 17.2857 30.4494C17.14 31.1433 17.1559 31.8614 17.332 32.5482L19.7109 41.9232C19.9719 42.9421 20.5655 43.8447 21.3977 44.4879C22.2299 45.1312 23.2529 45.4782 24.3047 45.474H25.6953C26.7463 45.4785 27.7688 45.1323 28.6008 44.4902C29.4329 43.8482 30.027 42.9469 30.2891 41.9291L32.668 32.5541C32.8441 31.8673 32.86 31.1492 32.7144 30.4552C32.5687 29.7613 32.2655 29.1102 31.8281 28.5521C31.3735 27.9665 30.7874 27.4961 30.1172 27.1791ZM25 20.474C25.6181 20.474 26.2223 20.6573 26.7362 21.0007C27.2501 21.344 27.6506 21.8321 27.8871 22.4031C28.1237 22.9741 28.1855 23.6025 28.065 24.2087C27.9444 24.8149 27.6468 25.3717 27.2097 25.8087C26.7727 26.2458 26.2159 26.5434 25.6097 26.664C25.0035 26.7845 24.3751 26.7227 23.8041 26.4861C23.2331 26.2496 22.745 25.8491 22.4017 25.3352C22.0583 24.8213 21.875 24.2171 21.875 23.599C21.875 22.7702 22.2042 21.9753 22.7903 21.3893C23.3763 20.8032 24.1712 20.474 25 20.474ZM29.6387 31.7846L27.2598 41.1596C27.1689 41.5035 26.9659 41.8072 26.6828 42.0227C26.3998 42.2381 26.053 42.353 25.6973 42.349H24.3066C23.951 42.353 23.6041 42.2381 23.3211 42.0227C23.038 41.8072 22.835 41.5035 22.7441 41.1596L20.3652 31.7846C20.3066 31.5589 20.3011 31.3228 20.3492 31.0947C20.3973 30.8666 20.4978 30.6528 20.6426 30.4701C20.7948 30.2749 20.9899 30.1174 21.2127 30.0097C21.4356 29.902 21.6802 29.847 21.9277 29.849H28.0801C28.3276 29.847 28.5722 29.902 28.7951 30.0097C29.0179 30.1174 29.213 30.2749 29.3652 30.4701C29.5094 30.6531 29.6091 30.8671 29.6566 31.0952C29.704 31.3232 29.6979 31.5592 29.6387 31.7846ZM14.0625 25.1615C14.0603 26.1512 14.1917 27.1367 14.4531 28.0912C14.5538 28.4869 14.4956 28.9064 14.2909 29.2597C14.0862 29.6131 13.7513 29.8722 13.3579 29.9818C12.9645 30.0913 12.5439 30.0424 12.1861 29.8457C11.8282 29.6489 11.5616 29.3199 11.4434 28.9291C10.8627 26.8402 10.773 24.6453 11.1811 22.516C11.5892 20.3867 12.4841 18.3806 13.7959 16.6544C15.1077 14.9282 16.8009 13.5287 18.7431 12.5653C20.6854 11.6018 22.8241 11.1005 24.9922 11.1005C27.1603 11.1005 29.299 11.6018 31.2412 12.5653C33.1835 13.5287 34.8767 14.9282 36.1885 16.6544C37.5003 18.3806 38.3952 20.3867 38.8033 22.516C39.2114 24.6453 39.1217 26.8402 38.541 28.9291C38.3997 29.2896 38.1296 29.5848 37.783 29.7574C37.4364 29.9301 37.0381 29.9679 36.6652 29.8636C36.2923 29.7592 35.9715 29.5201 35.7648 29.1927C35.5582 28.8652 35.4805 28.4727 35.5469 28.0912C35.9596 26.5884 36.0465 25.0149 35.8016 23.4758C35.5567 21.9368 34.9858 20.4679 34.1271 19.1674C33.2683 17.867 32.1416 16.765 30.8224 15.9355C29.5031 15.1059 28.0219 14.5678 26.4778 14.3572C24.9337 14.1467 23.3624 14.2685 21.8692 14.7146C20.376 15.1606 18.9954 15.9207 17.8198 16.9437C16.6442 17.9667 15.7009 19.2292 15.0529 20.6464C14.4048 22.0637 14.0672 23.6031 14.0625 25.1615ZM45.3125 25.1615C45.3143 28.501 44.4921 31.7894 42.9188 34.7351C41.3454 37.6808 39.0696 40.1927 36.293 42.0482C35.9485 42.2787 35.5266 42.363 35.12 42.2824C34.7134 42.2018 34.3555 41.963 34.125 41.6185C33.8945 41.2741 33.8103 40.8521 33.8908 40.4456C33.9714 40.039 34.2102 39.6811 34.5547 39.4506C37.6193 37.4011 39.9436 34.4205 41.1846 30.9489C42.4255 27.4773 42.5173 23.6987 41.4464 20.171C40.3755 16.6432 38.1986 13.5533 35.2372 11.3574C32.2758 9.16152 28.6867 7.97607 25 7.97607C21.3133 7.97607 17.7243 9.16152 14.7628 11.3574C11.8014 13.5533 9.62453 16.6432 8.55361 20.171C7.48269 23.6987 7.57449 27.4773 8.81545 30.9489C10.0564 34.4205 12.3808 37.4011 15.4453 39.4506C15.7898 39.6811 16.0286 40.039 16.1092 40.4456C16.1897 40.8521 16.1055 41.2741 15.875 41.6185C15.6445 41.963 15.2866 42.2018 14.88 42.2824C14.4734 42.363 14.0515 42.2787 13.707 42.0482C10.7906 40.0975 8.42911 37.4246 6.85278 34.2899C5.27646 31.1552 4.53901 27.6656 4.71229 24.1612C4.88557 20.6567 5.96367 17.2569 7.84155 14.293C9.71943 11.3291 12.333 8.90218 15.4277 7.24869C18.5224 5.5952 21.9927 4.77155 25.5003 4.85797C29.008 4.9444 32.4335 5.93796 35.443 7.74184C38.4525 9.54573 40.9434 12.0984 42.673 15.1512C44.4027 18.204 45.312 21.6528 45.3125 25.1615Z" fill="#EBF3FA"/>
</svg>
