<svg width="100" height="101" viewBox="0 0 100 101" fill="none" xmlns="http://www.w3.org/2000/svg">
<path opacity="0.2" d="M40.625 47.5366C40.625 45.6824 41.1748 43.8699 42.2049 42.3282C43.2351 40.7864 44.6992 39.5848 46.4123 38.8753C48.1253 38.1657 50.0104 37.98 51.8289 38.3418C53.6475 38.7035 55.318 39.5964 56.6291 40.9075C57.9402 42.2186 58.8331 43.8891 59.1948 45.7077C59.5565 47.5262 59.3709 49.4112 58.6613 51.1243C57.9517 52.8373 56.7501 54.3015 55.2084 55.3317C53.6667 56.3618 51.8541 56.9116 50 56.9116C47.5135 56.9116 45.129 55.9239 43.3708 54.1658C41.6127 52.4076 40.625 50.023 40.625 47.5366ZM56.1523 56.9116H43.8476C42.8915 56.902 41.9459 57.1111 41.0829 57.5229C40.22 57.9347 39.4626 58.5382 38.8686 59.2875C38.2746 60.0368 37.8598 60.9119 37.6557 61.846C37.4517 62.7802 37.4639 63.7486 37.6914 64.6773L42.4531 83.4273C42.8073 84.7883 43.6047 85.9925 44.7195 86.8499C45.8343 87.7072 47.203 88.1688 48.6093 88.1616H51.3906C52.7969 88.1688 54.1656 87.7072 55.2804 86.8499C56.3952 85.9925 57.1927 84.7883 57.5468 83.4273L62.3085 64.6773C62.536 63.7486 62.5482 62.7802 62.3442 61.846C62.1401 60.9119 61.7253 60.0368 61.1313 59.2875C60.5373 58.5382 59.7799 57.9347 58.917 57.5229C58.054 57.1111 57.1084 56.902 56.1523 56.9116Z" fill="black"/>
<path d="M60.2344 54.6968C61.5477 52.8239 62.322 50.6265 62.4728 48.344C62.6236 46.0615 62.1452 43.7813 61.0897 41.7519C60.0341 39.7225 58.4419 38.0217 56.4865 36.8346C54.5311 35.6476 52.2875 35.0199 50 35.0199C47.7125 35.0199 45.4689 35.6476 43.5135 36.8346C41.5581 38.0217 39.9659 39.7225 38.9104 41.7519C37.8548 43.7813 37.3764 46.0615 37.5272 48.344C37.678 50.6265 38.4523 52.8239 39.7656 54.6968C38.4265 55.3275 37.2544 56.2642 36.3438 57.4312C35.469 58.5473 34.8626 59.8496 34.5713 61.2374C34.2801 62.6252 34.3118 64.0615 34.6641 65.4351L39.4219 84.1851C39.9438 86.2228 41.1311 88.028 42.7954 89.3145C44.4597 90.6009 46.5059 91.295 48.6094 91.2866H51.3906C53.4926 91.2957 55.5375 90.6033 57.2016 89.3191C58.8658 88.0349 60.054 86.2324 60.5781 84.1968L65.3359 65.4468C65.6882 64.0732 65.72 62.637 65.4287 61.2491C65.1375 59.8613 64.531 58.559 63.6563 57.4429C62.747 56.2716 61.5747 55.3309 60.2344 54.6968ZM50 41.2866C51.2361 41.2866 52.4445 41.6532 53.4723 42.3399C54.5001 43.0267 55.3012 44.0028 55.7743 45.1449C56.2473 46.2869 56.3711 47.5436 56.1299 48.7559C55.8888 49.9683 55.2935 51.082 54.4194 51.956C53.5453 52.8301 52.4317 53.4254 51.2193 53.6665C50.0069 53.9077 48.7503 53.7839 47.6082 53.3109C46.4662 52.8378 45.4901 52.0368 44.8033 51.0089C44.1166 49.9811 43.75 48.7728 43.75 47.5366C43.75 45.879 44.4085 44.2893 45.5806 43.1172C46.7527 41.9451 48.3424 41.2866 50 41.2866ZM59.2774 63.9077L54.5195 82.6577C54.3378 83.3456 53.9317 83.9531 53.3657 84.384C52.7996 84.8149 52.1059 85.0446 51.3945 85.0366H48.6133C47.9019 85.0446 47.2082 84.8149 46.6422 84.384C46.0761 83.9531 45.67 83.3456 45.4883 82.6577L40.7305 63.9077C40.6131 63.4565 40.6022 62.9842 40.6984 62.528C40.7947 62.0718 40.9955 61.6442 41.2852 61.2788C41.5896 60.8885 41.9798 60.5734 42.4255 60.358C42.8712 60.1426 43.3605 60.0326 43.8555 60.0366H56.1602C56.6552 60.0326 57.1445 60.1426 57.5902 60.358C58.0359 60.5734 58.426 60.8885 58.7305 61.2788C59.0188 61.6448 59.2182 62.0728 59.3131 62.529C59.408 62.9851 59.3958 63.4571 59.2774 63.9077ZM28.125 50.6616C28.1206 52.641 28.3834 54.6119 28.9063 56.521C29.1077 57.3125 28.9912 58.1514 28.5818 58.8581C28.1724 59.5648 27.5027 60.0831 26.7159 60.3022C25.9291 60.5212 25.0878 60.4235 24.3721 60.03C23.6565 59.6365 23.1233 58.9785 22.8867 58.1968C21.7255 54.019 21.5459 49.6293 22.3621 45.3707C23.1783 41.112 24.9682 37.0998 27.5918 33.6474C30.2154 30.195 33.6018 27.3961 37.4863 25.4692C41.3708 23.5423 45.6482 22.5397 49.9844 22.5397C54.3205 22.5397 58.598 23.5423 62.4825 25.4692C66.367 27.3961 69.7533 30.195 72.377 33.6474C75.0006 37.0998 76.7904 41.112 77.6066 45.3707C78.4228 49.6293 78.2433 54.019 77.082 58.1968C76.7994 58.9178 76.2592 59.5082 75.566 59.8535C74.8729 60.1988 74.0762 60.2745 73.3304 60.0658C72.5846 59.8571 71.9429 59.3789 71.5297 58.724C71.1164 58.069 70.9611 57.284 71.0938 56.521C71.9192 53.5155 72.0929 50.3683 71.6032 47.2903C71.1134 44.2122 69.9716 41.2743 68.2541 38.6734C66.5366 36.0725 64.2832 33.8687 61.6447 32.2095C59.0063 30.5504 56.0437 29.4742 52.9555 29.053C49.8673 28.6319 46.7248 28.8756 43.7384 29.7678C40.752 30.6599 37.9908 32.1799 35.6396 34.226C33.2885 36.2721 31.4017 38.797 30.1057 41.6315C28.8097 44.4661 28.1344 47.5449 28.125 50.6616ZM90.625 50.6616C90.6287 57.3407 88.9843 63.9174 85.8376 69.8088C82.6909 75.7002 78.1392 80.7241 72.586 84.4351C71.897 84.8961 71.0531 85.0646 70.24 84.9034C69.4268 84.7422 68.711 84.2646 68.25 83.5757C67.789 82.8867 67.6205 82.0429 67.7817 81.2297C67.9429 80.4166 68.4204 79.7008 69.1094 79.2398C75.2385 75.1408 79.8872 69.1797 82.3691 62.2365C84.851 55.2933 85.0346 47.736 82.8928 40.6805C80.751 33.625 76.3972 27.4452 70.4744 23.0534C64.5515 18.6617 57.3735 16.2908 50 16.2908C42.6266 16.2908 35.4485 18.6617 29.5257 23.0534C23.6028 27.4452 19.2491 33.625 17.1072 40.6805C14.9654 47.736 15.149 55.2933 17.6309 62.2365C20.1128 69.1797 24.7615 75.1408 30.8906 79.2398C31.5796 79.7008 32.0572 80.4166 32.2183 81.2297C32.3795 82.0429 32.211 82.8867 31.75 83.5757C31.289 84.2646 30.5732 84.7422 29.76 84.9034C28.9469 85.0646 28.103 84.8961 27.4141 84.4351C21.5811 80.5336 16.8582 75.1878 13.7056 68.9184C10.5529 62.649 9.07802 55.6698 9.42458 48.6609C9.77114 41.6521 11.9273 34.8525 15.6831 28.9246C19.4389 22.9968 24.6661 18.143 30.8555 14.836C37.0449 11.529 43.9853 9.88171 51.0007 10.0546C58.016 10.2274 64.8669 12.2145 70.8859 15.8223C76.9049 19.4301 81.8868 24.5355 85.3461 30.6411C88.8053 36.7466 90.624 43.6442 90.625 50.6616Z" fill="#EBF3FA"/>
</svg>
