<svg width="51" height="51" viewBox="0 0 51 51" fill="none" xmlns="http://www.w3.org/2000/svg">
<g clip-path="url(#clip0_2593_94992)">
<path opacity="0.2" d="M42.6875 33.9077C39.4082 31.6557 38 27.8784 38 23.5991C38 20.0249 40.2812 16.8002 42.6875 14.5209C40.4472 12.3999 36.6328 11.0991 33.3125 11.0991C30.4726 11.0925 27.7159 12.0573 25.5 13.8334C23.3302 12.0938 20.6402 11.1311 17.8593 11.0991C10.6562 11.0014 5.00386 17.017 5.18745 24.2221C5.26587 27.3109 5.95618 30.3534 7.21842 33.1736C8.48066 35.9937 10.2897 38.5355 12.541 40.6518C13.7015 41.7433 15.235 42.3504 16.8281 42.3491H33.957C34.8077 42.3525 35.65 42.1809 36.4316 41.8449C37.2131 41.5089 37.9172 41.0157 38.5 40.3959C41.5957 37.0756 42.6875 33.9116 42.6875 33.9116V33.9077Z" fill="#E93859"/>
<path d="M44.1133 33.2847C43.9961 33.0169 43.8068 32.787 43.5664 32.6206C40.252 30.3433 39.5625 26.4585 39.5625 23.5991C39.5625 20.148 42.1934 17.1421 43.7617 15.6558C43.916 15.5097 44.0389 15.3338 44.1228 15.1387C44.2068 14.9436 44.2501 14.7334 44.2501 14.521C44.2501 14.3086 44.2068 14.0984 44.1228 13.9033C44.0389 13.7082 43.916 13.5323 43.7617 13.3862C41.2852 11.0483 37.1836 9.53662 33.3125 9.53662C30.5318 9.53911 27.8138 10.3633 25.5 11.9058C22.801 10.0959 19.5557 9.28311 16.3223 9.60713C13.0889 9.93116 10.0694 11.3718 7.78321 13.6812C6.41649 15.0764 5.34412 16.7322 4.6298 18.55C3.91548 20.3679 3.57379 22.3107 3.62501 24.2632C3.70168 27.5588 4.43449 30.806 5.78059 33.8151C7.1267 36.8243 9.0591 39.5349 11.4649 41.7886C12.9137 43.1574 14.833 43.9175 16.8262 43.9116H33.9512C35.0168 43.9136 36.0714 43.6968 37.0498 43.2745C38.0281 42.8522 38.9093 42.2334 39.6387 41.4565C40.9898 40.0024 42.1586 38.389 43.1191 36.6519C44.4902 34.146 44.3145 33.7554 44.1133 33.2847ZM37.3496 39.3276C36.9134 39.7908 36.3867 40.1593 35.802 40.4103C35.2174 40.6613 34.5874 40.7894 33.9512 40.7866H16.8262C15.6324 40.7905 14.4828 40.3352 13.6152 39.5151C11.5099 37.5441 9.81847 35.1732 8.63973 32.5411C7.46098 29.9089 6.81857 27.0683 6.75001 24.1851C6.70728 22.6532 6.97317 21.1283 7.53184 19.7013C8.09051 18.2742 8.93055 16.9742 10.002 15.8784C11.003 14.8558 12.1989 14.0442 13.5189 13.4917C14.839 12.9391 16.2565 12.6569 17.6875 12.6616H17.8399C20.274 12.6873 22.6284 13.5322 24.5234 15.0601C24.8006 15.2819 25.145 15.4028 25.5 15.4028C25.855 15.4028 26.1994 15.2819 26.4766 15.0601C28.4119 13.4987 30.8259 12.6517 33.3125 12.6616C35.7955 12.6904 38.2246 13.3888 40.3438 14.6831C37.8047 17.519 36.4375 20.6343 36.4375 23.5991C36.4375 28.2417 37.9297 31.9448 40.7695 34.3999C39.876 36.2005 38.7238 37.8606 37.3496 39.3276ZM25.5449 6.021C25.9783 4.3427 26.9574 2.85616 28.3283 1.7954C29.6992 0.734634 31.3839 0.159885 33.1172 0.161625H33.3125C33.7269 0.161625 34.1243 0.326245 34.4174 0.619271C34.7104 0.912296 34.875 1.30972 34.875 1.72413C34.875 2.13853 34.7104 2.53595 34.4174 2.82898C34.1243 3.122 33.7269 3.28663 33.3125 3.28663H33.1172C32.0779 3.28653 31.0681 3.63182 30.2465 4.26821C29.4248 4.90459 28.8379 5.79598 28.5781 6.80225C28.4745 7.2037 28.2157 7.54755 27.8586 7.75817C27.5015 7.96878 27.0753 8.0289 26.6738 7.9253C26.2724 7.8217 25.9285 7.56286 25.7179 7.20574C25.5073 6.84861 25.4472 6.42245 25.5508 6.021H25.5449Z" fill="black"/>
</g>
<defs>
<clipPath id="clip0_2593_94992">
<rect width="50" height="50" fill="white" transform="translate(0.5 0.161621)"/>
</clipPath>
</defs>
</svg>
