<svg width="51" height="51" viewBox="0 0 51 51" fill="none" xmlns="http://www.w3.org/2000/svg">
<path opacity="0.2" d="M35.5859 31.9116H15.4141L25.5 14.8452L35.5859 31.9116Z" fill="black"/>
<path d="M13.0664 38.9565L11.2207 42.0815C11.1163 42.2582 10.9781 42.4127 10.8141 42.536C10.65 42.6593 10.4632 42.7491 10.2645 42.8002C9.86302 42.9035 9.43698 42.8431 9.08008 42.6323C8.72318 42.4215 8.46464 42.0775 8.36135 41.676C8.25806 41.2746 8.31847 40.8486 8.5293 40.4917L10.377 37.3667C10.4788 37.1852 10.616 37.0259 10.7802 36.8981C10.9445 36.7704 11.1327 36.6767 11.3337 36.6227C11.5347 36.5686 11.7444 36.5553 11.9507 36.5834C12.1569 36.6116 12.3554 36.6806 12.5345 36.7865C12.7137 36.8924 12.8699 37.0331 12.994 37.2002C13.118 37.3673 13.2075 37.5575 13.257 37.7596C13.3066 37.9618 13.3152 38.1718 13.2825 38.3773C13.2498 38.5828 13.1763 38.7798 13.0664 38.9565ZM45.8125 30.3491H36.4766L30.4746 20.1928C30.3727 20.0114 30.2356 19.8521 30.0713 19.7243C29.907 19.5965 29.7189 19.5029 29.5179 19.4488C29.3169 19.3948 29.1071 19.3815 28.9009 19.4096C28.6947 19.4377 28.4962 19.5068 28.317 19.6127C28.1379 19.7186 27.9817 19.8592 27.8576 20.0263C27.7335 20.1934 27.6441 20.3836 27.5946 20.5858C27.545 20.7879 27.5364 20.9979 27.5691 21.2035C27.6018 21.409 27.6753 21.6059 27.7852 21.7827L39.7793 42.0815C39.9901 42.4384 40.3341 42.6969 40.7355 42.8002C41.137 42.9035 41.563 42.8431 41.9199 42.6323C42.2768 42.4215 42.5354 42.0775 42.6387 41.676C42.7419 41.2746 42.6815 40.8486 42.4707 40.4917L38.3242 33.4741H45.8125C46.2269 33.4741 46.6243 33.3095 46.9174 33.0164C47.2104 32.7234 47.375 32.326 47.375 31.9116C47.375 31.4972 47.2104 31.0998 46.9174 30.8067C46.6243 30.5137 46.2269 30.3491 45.8125 30.3491ZM28.3262 30.3491H18.1523L31.5332 7.70651C31.744 7.34961 31.8044 6.92357 31.7012 6.52213C31.5979 6.12068 31.3393 5.77671 30.9824 5.56589C30.6255 5.35506 30.1995 5.29465 29.798 5.39794C29.3966 5.50123 29.0526 5.75976 28.8418 6.11667L25.5 11.7729L22.1582 6.10885C22.0538 5.93213 21.9156 5.77771 21.7516 5.65439C21.5875 5.53107 21.4007 5.44127 21.202 5.39013C20.8005 5.28683 20.3745 5.34725 20.0176 5.55807C19.6607 5.7689 19.4021 6.11287 19.2988 6.51432C19.1956 6.91576 19.256 7.3418 19.4668 7.6987L23.6855 14.8374L14.5234 30.3491H5.1875C4.7731 30.3491 4.37567 30.5137 4.08265 30.8067C3.78962 31.0998 3.625 31.4972 3.625 31.9116C3.625 32.326 3.78962 32.7234 4.08265 33.0164C4.37567 33.3095 4.7731 33.4741 5.1875 33.4741H28.3262C28.7406 33.4741 29.138 33.3095 29.431 33.0164C29.7241 32.7234 29.8887 32.326 29.8887 31.9116C29.8887 31.4972 29.7241 31.0998 29.431 30.8067C29.138 30.5137 28.7406 30.3491 28.3262 30.3491Z" fill="#2BC2EC"/>
</svg>
