<svg width="100" height="101" viewBox="0 0 100 101" fill="none" xmlns="http://www.w3.org/2000/svg">
<path opacity="0.2" d="M87.5 22.5366V78.7866C87.5 79.6154 87.1708 80.4103 86.5847 80.9963C85.9987 81.5824 85.2038 81.9116 84.375 81.9116H15.625C14.7962 81.9116 14.0013 81.5824 13.4153 80.9963C12.8292 80.4103 12.5 79.6154 12.5 78.7866V22.5366C12.5 21.7078 12.8292 20.913 13.4153 20.3269C14.0013 19.7409 14.7962 19.4116 15.625 19.4116H84.375C85.2038 19.4116 85.9987 19.7409 86.5847 20.3269C87.1708 20.913 87.5 21.7078 87.5 22.5366Z" fill="black"/>
<path d="M84.375 16.2866H15.625C13.9674 16.2866 12.3777 16.9451 11.2056 18.1172C10.0335 19.2893 9.375 20.879 9.375 22.5366V78.7866C9.375 80.4442 10.0335 82.0339 11.2056 83.206C12.3777 84.3781 13.9674 85.0366 15.625 85.0366H84.375C86.0326 85.0366 87.6223 84.3781 88.7944 83.206C89.9665 82.0339 90.625 80.4442 90.625 78.7866V22.5366C90.625 20.879 89.9665 19.2893 88.7944 18.1172C87.6223 16.9451 86.0326 16.2866 84.375 16.2866ZM84.375 78.7866H15.625V22.5366H84.375V78.7866ZM31.25 33.4741C31.25 34.4012 30.9751 35.3075 30.46 36.0784C29.9449 36.8492 29.2129 37.45 28.3563 37.8048C27.4998 38.1596 26.5573 38.2524 25.648 38.0716C24.7387 37.8907 23.9035 37.4442 23.2479 36.7887C22.5924 36.1331 22.1459 35.2979 21.9651 34.3886C21.7842 33.4793 21.877 32.5368 22.2318 31.6803C22.5866 30.8238 23.1874 30.0917 23.9583 29.5766C24.7291 29.0615 25.6354 28.7866 26.5625 28.7866C27.8057 28.7866 28.998 29.2805 29.8771 30.1596C30.7561 31.0386 31.25 32.2309 31.25 33.4741ZM46.875 33.4741C46.875 34.4012 46.6001 35.3075 46.085 36.0784C45.5699 36.8492 44.8379 37.45 43.9813 37.8048C43.1248 38.1596 42.1823 38.2524 41.273 38.0716C40.3637 37.8907 39.5285 37.4442 38.8729 36.7887C38.2174 36.1331 37.7709 35.2979 37.5901 34.3886C37.4092 33.4793 37.502 32.5368 37.8568 31.6803C38.2116 30.8238 38.8124 30.0917 39.5833 29.5766C40.3541 29.0615 41.2604 28.7866 42.1875 28.7866C43.4307 28.7866 44.623 29.2805 45.5021 30.1596C46.3811 31.0386 46.875 32.2309 46.875 33.4741Z" fill="#ED9B91"/>
</svg>
