<svg width="50" height="51" viewBox="0 0 50 51" fill="none" xmlns="http://www.w3.org/2000/svg">
<path opacity="0.2" d="M43.75 11.0991V39.2241C43.75 39.6385 43.5854 40.036 43.2924 40.329C42.9993 40.622 42.6019 40.7866 42.1875 40.7866H7.8125C7.3981 40.7866 7.00067 40.622 6.70765 40.329C6.41462 40.036 6.25 39.6385 6.25 39.2241V11.0991C6.25 10.6847 6.41462 10.2873 6.70765 9.99427C7.00067 9.70124 7.3981 9.53662 7.8125 9.53662H42.1875C42.6019 9.53662 42.9993 9.70124 43.2924 9.99427C43.5854 10.2873 43.75 10.6847 43.75 11.0991Z" fill="black"/>
<path d="M42.1875 7.97412H7.8125C6.9837 7.97412 6.18884 8.30336 5.60279 8.88941C5.01674 9.47546 4.6875 10.2703 4.6875 11.0991V39.2241C4.6875 40.0529 5.01674 40.8478 5.60279 41.4338C6.18884 42.0199 6.9837 42.3491 7.8125 42.3491H42.1875C43.0163 42.3491 43.8112 42.0199 44.3972 41.4338C44.9833 40.8478 45.3125 40.0529 45.3125 39.2241V11.0991C45.3125 10.2703 44.9833 9.47546 44.3972 8.88941C43.8112 8.30336 43.0163 7.97412 42.1875 7.97412ZM42.1875 39.2241H7.8125V11.0991H42.1875V39.2241ZM15.625 16.5679C15.625 17.0314 15.4875 17.4846 15.23 17.87C14.9725 18.2554 14.6064 18.5558 14.1782 18.7332C13.7499 18.9106 13.2786 18.957 12.824 18.8666C12.3694 18.7762 11.9517 18.5529 11.624 18.2252C11.2962 17.8974 11.073 17.4798 10.9825 17.0251C10.8921 16.5705 10.9385 16.0992 11.1159 15.671C11.2933 15.2427 11.5937 14.8766 11.9791 14.6191C12.3646 14.3616 12.8177 14.2241 13.2812 14.2241C13.9029 14.2241 14.499 14.4711 14.9385 14.9106C15.3781 15.3501 15.625 15.9463 15.625 16.5679ZM23.4375 16.5679C23.4375 17.0314 23.3 17.4846 23.0425 17.87C22.785 18.2554 22.4189 18.5558 21.9907 18.7332C21.5624 18.9106 21.0912 18.957 20.6365 18.8666C20.1819 18.7762 19.7642 18.5529 19.4365 18.2252C19.1087 17.8974 18.8855 17.4798 18.795 17.0251C18.7046 16.5705 18.751 16.0992 18.9284 15.671C19.1058 15.2427 19.4062 14.8766 19.7916 14.6191C20.1771 14.3616 20.6302 14.2241 21.0938 14.2241C21.7154 14.2241 22.3115 14.4711 22.751 14.9106C23.1906 15.3501 23.4375 15.9463 23.4375 16.5679Z" fill="#ED9B91"/>
</svg>
