<svg width="32" height="33" viewBox="0 0 32 33" fill="none" xmlns="http://www.w3.org/2000/svg">
<path opacity="0.2" d="M27 12.6616V24.6616C27 24.9268 26.8946 25.1812 26.7071 25.3687C26.5196 25.5563 26.2652 25.6616 26 25.6616H6C5.73478 25.6616 5.48043 25.5563 5.29289 25.3687C5.10536 25.1812 5 24.9268 5 24.6616V12.6616H27Z" fill="black"/>
<path d="M28 6.66162H4C3.46957 6.66162 2.96086 6.87233 2.58579 7.24741C2.21071 7.62248 2 8.13119 2 8.66162V11.6616C2 12.1921 2.21071 12.7008 2.58579 13.0758C2.96086 13.4509 3.46957 13.6616 4 13.6616V24.6616C4 25.1921 4.21071 25.7008 4.58579 26.0758C4.96086 26.4509 5.46957 26.6616 6 26.6616H26C26.5304 26.6616 27.0391 26.4509 27.4142 26.0758C27.7893 25.7008 28 25.1921 28 24.6616V13.6616C28.5304 13.6616 29.0391 13.4509 29.4142 13.0758C29.7893 12.7008 30 12.1921 30 11.6616V8.66162C30 8.13119 29.7893 7.62248 29.4142 7.24741C29.0391 6.87233 28.5304 6.66162 28 6.66162ZM26 24.6616H6V13.6616H26V24.6616ZM28 11.6616H4V8.66162H28V11.6616ZM12 17.6616C12 17.3964 12.1054 17.142 12.2929 16.9545C12.4804 16.767 12.7348 16.6616 13 16.6616H19C19.2652 16.6616 19.5196 16.767 19.7071 16.9545C19.8946 17.142 20 17.3964 20 17.6616C20 17.9268 19.8946 18.1812 19.7071 18.3687C19.5196 18.5563 19.2652 18.6616 19 18.6616H13C12.7348 18.6616 12.4804 18.5563 12.2929 18.3687C12.1054 18.1812 12 17.9268 12 17.6616Z" fill="#4AAF50"/>
</svg>
