<svg width="50" height="51" viewBox="0 0 50 51" fill="none" xmlns="http://www.w3.org/2000/svg">
<path opacity="0.2" d="M43.75 9.53662V40.7866C43.75 41.6154 43.4208 42.4103 42.8347 42.9963C42.2487 43.5824 41.4538 43.9116 40.625 43.9116H9.375C8.5462 43.9116 7.75134 43.5824 7.16529 42.9963C6.57924 42.4103 6.25 41.6154 6.25 40.7866V9.53662C6.25 8.70782 6.57924 7.91296 7.16529 7.32691C7.75134 6.74086 8.5462 6.41162 9.375 6.41162H40.625C41.4538 6.41162 42.2487 6.74086 42.8347 7.32691C43.4208 7.91296 43.75 8.70782 43.75 9.53662Z" fill="black"/>
<path d="M17.6445 13.7671C17.3513 13.4739 17.1866 13.0763 17.1866 12.6616C17.1866 12.247 17.3513 11.8493 17.6445 11.5562C17.9377 11.263 18.3354 11.0983 18.75 11.0983C19.1646 11.0983 19.5623 11.263 19.8555 11.5562L23.4375 15.1401V4.84912C23.4375 4.43472 23.6021 4.03729 23.8951 3.74427C24.1882 3.45124 24.5856 3.28662 25 3.28662C25.4144 3.28662 25.8118 3.45124 26.1049 3.74427C26.3979 4.03729 26.5625 4.43472 26.5625 4.84912V15.1401L30.1445 11.5562C30.4377 11.263 30.8354 11.0983 31.25 11.0983C31.6646 11.0983 32.0623 11.263 32.3555 11.5562C32.6487 11.8493 32.8134 12.247 32.8134 12.6616C32.8134 13.0763 32.6487 13.4739 32.3555 13.7671L26.1055 20.0171C25.9604 20.1624 25.788 20.2776 25.5983 20.3562C25.4087 20.4349 25.2053 20.4754 25 20.4754C24.7947 20.4754 24.5913 20.4349 24.4017 20.3562C24.212 20.2776 24.0396 20.1624 23.8945 20.0171L17.6445 13.7671ZM26.1055 30.3062C25.9604 30.1609 25.788 30.0456 25.5983 29.967C25.4087 29.8884 25.2053 29.8479 25 29.8479C24.7947 29.8479 24.5913 29.8884 24.4017 29.967C24.212 30.0456 24.0396 30.1609 23.8945 30.3062L17.6445 36.5562C17.4994 36.7013 17.3842 36.8737 17.3056 37.0633C17.2271 37.253 17.1866 37.4563 17.1866 37.6616C17.1866 37.8669 17.2271 38.0702 17.3056 38.2599C17.3842 38.4496 17.4994 38.6219 17.6445 38.7671C17.9377 39.0603 18.3354 39.225 18.75 39.225C18.9553 39.225 19.1586 39.1846 19.3483 39.106C19.538 39.0274 19.7103 38.9123 19.8555 38.7671L23.4375 35.1831V45.4741C23.4375 45.8885 23.6021 46.2859 23.8951 46.579C24.1882 46.872 24.5856 47.0366 25 47.0366C25.4144 47.0366 25.8118 46.872 26.1049 46.579C26.3979 46.2859 26.5625 45.8885 26.5625 45.4741V35.1831L30.1445 38.7671C30.2897 38.9123 30.462 39.0274 30.6517 39.106C30.8414 39.1846 31.0447 39.225 31.25 39.225C31.4553 39.225 31.6586 39.1846 31.8483 39.106C32.038 39.0274 32.2103 38.9123 32.3555 38.7671C32.5006 38.6219 32.6158 38.4496 32.6944 38.2599C32.7729 38.0702 32.8134 37.8669 32.8134 37.6616C32.8134 37.4563 32.7729 37.253 32.6944 37.0633C32.6158 36.8737 32.5006 36.7013 32.3555 36.5562L26.1055 30.3062ZM45.3125 23.5991H35.0215L38.6055 20.0171C38.7506 19.8719 38.8658 19.6996 38.9444 19.5099C39.0229 19.3202 39.0634 19.1169 39.0634 18.9116C39.0634 18.7063 39.0229 18.503 38.9444 18.3133C38.8658 18.1237 38.7506 17.9513 38.6055 17.8062C38.4603 17.661 38.288 17.5458 38.0983 17.4673C37.9086 17.3887 37.7053 17.3483 37.5 17.3483C37.2947 17.3483 37.0914 17.3887 36.9017 17.4673C36.712 17.5458 36.5397 17.661 36.3945 17.8062L30.1445 24.0562C29.9993 24.2013 29.884 24.3736 29.8054 24.5633C29.7267 24.753 29.6863 24.9563 29.6863 25.1616C29.6863 25.367 29.7267 25.5703 29.8054 25.76C29.884 25.9496 29.9993 26.122 30.1445 26.2671L36.3945 32.5171C36.5397 32.6623 36.712 32.7774 36.9017 32.856C37.0914 32.9346 37.2947 32.975 37.5 32.975C37.7053 32.975 37.9086 32.9346 38.0983 32.856C38.288 32.7774 38.4603 32.6623 38.6055 32.5171C38.7506 32.3719 38.8658 32.1996 38.9444 32.0099C39.0229 31.8202 39.0634 31.6169 39.0634 31.4116C39.0634 31.2063 39.0229 31.003 38.9444 30.8133C38.8658 30.6237 38.7506 30.4513 38.6055 30.3062L35.0215 26.7241H45.3125C45.7269 26.7241 46.1243 26.5595 46.4174 26.2665C46.7104 25.9735 46.875 25.576 46.875 25.1616C46.875 24.7472 46.7104 24.3498 46.4174 24.0568C46.1243 23.7637 45.7269 23.5991 45.3125 23.5991ZM19.8555 24.0562L13.6055 17.8062C13.3123 17.513 12.9146 17.3483 12.5 17.3483C12.0854 17.3483 11.6877 17.513 11.3945 17.8062C11.1013 18.0993 10.9366 18.497 10.9366 18.9116C10.9366 19.3263 11.1013 19.7239 11.3945 20.0171L14.9785 23.5991H4.6875C4.2731 23.5991 3.87567 23.7637 3.58265 24.0568C3.28962 24.3498 3.125 24.7472 3.125 25.1616C3.125 25.576 3.28962 25.9735 3.58265 26.2665C3.87567 26.5595 4.2731 26.7241 4.6875 26.7241H14.9785L11.3945 30.3062C11.2494 30.4513 11.1342 30.6237 11.0556 30.8133C10.9771 31.003 10.9366 31.2063 10.9366 31.4116C10.9366 31.6169 10.9771 31.8202 11.0556 32.0099C11.1342 32.1996 11.2494 32.3719 11.3945 32.5171C11.5397 32.6623 11.712 32.7774 11.9017 32.856C12.0914 32.9346 12.2947 32.975 12.5 32.975C12.7053 32.975 12.9086 32.9346 13.0983 32.856C13.288 32.7774 13.4603 32.6623 13.6055 32.5171L19.8555 26.2671C20.0007 26.122 20.116 25.9496 20.1946 25.76C20.2733 25.5703 20.3137 25.367 20.3137 25.1616C20.3137 24.9563 20.2733 24.753 20.1946 24.5633C20.116 24.3736 20.0007 24.2013 19.8555 24.0562Z" fill="#4AAF50"/>
</svg>
