<svg width="100" height="101" viewBox="0 0 100 101" fill="none" xmlns="http://www.w3.org/2000/svg">
<path opacity="0.2" d="M87.5 19.4116V81.9116C87.5 83.5692 86.8415 85.1589 85.6694 86.331C84.4973 87.5031 82.9076 88.1616 81.25 88.1616H18.75C17.0924 88.1616 15.5027 87.5031 14.3306 86.331C13.1585 85.1589 12.5 83.5692 12.5 81.9116V19.4116C12.5 17.754 13.1585 16.1643 14.3306 14.9922C15.5027 13.8201 17.0924 13.1616 18.75 13.1616H81.25C82.9076 13.1616 84.4973 13.8201 85.6694 14.9922C86.8415 16.1643 87.5 17.754 87.5 19.4116Z" fill="black"/>
<path d="M35.2891 27.8726C34.7027 27.2862 34.3733 26.4909 34.3733 25.6616C34.3733 24.8324 34.7027 24.0371 35.2891 23.4507C35.8754 22.8643 36.6707 22.5349 37.5 22.5349C38.3293 22.5349 39.1246 22.8643 39.7109 23.4507L46.875 30.6187V10.0366C46.875 9.20782 47.2042 8.41296 47.7903 7.82691C48.3763 7.24086 49.1712 6.91162 50 6.91162C50.8288 6.91162 51.6237 7.24086 52.2097 7.82691C52.7958 8.41296 53.125 9.20782 53.125 10.0366V30.6187L60.2891 23.4507C60.8754 22.8643 61.6707 22.5349 62.5 22.5349C63.3293 22.5349 64.1246 22.8643 64.7109 23.4507C65.2973 24.0371 65.6267 24.8324 65.6267 25.6616C65.6267 26.4909 65.2973 27.2862 64.7109 27.8726L52.2109 40.3726C51.9207 40.6631 51.5761 40.8936 51.1967 41.0509C50.8173 41.2081 50.4107 41.2891 50 41.2891C49.5893 41.2891 49.1827 41.2081 48.8033 41.0509C48.4239 40.8936 48.0793 40.6631 47.7891 40.3726L35.2891 27.8726ZM52.2109 60.9507C51.9207 60.6601 51.5761 60.4296 51.1967 60.2724C50.8173 60.1151 50.4107 60.0342 50 60.0342C49.5893 60.0342 49.1827 60.1151 48.8033 60.2724C48.4239 60.4296 48.0793 60.6601 47.7891 60.9507L35.2891 73.4507C34.9987 73.741 34.7684 74.0857 34.6113 74.4651C34.4541 74.8444 34.3733 75.251 34.3733 75.6616C34.3733 76.0722 34.4541 76.4788 34.6113 76.8582C34.7684 77.2375 34.9987 77.5822 35.2891 77.8726C35.8754 78.4589 36.6707 78.7884 37.5 78.7884C37.9106 78.7884 38.3172 78.7075 38.6966 78.5503C39.0759 78.3932 39.4206 78.1629 39.7109 77.8726L46.875 70.7046V91.2866C46.875 92.1154 47.2042 92.9103 47.7903 93.4963C48.3763 94.0824 49.1712 94.4116 50 94.4116C50.8288 94.4116 51.6237 94.0824 52.2097 93.4963C52.7958 92.9103 53.125 92.1154 53.125 91.2866V70.7046L60.2891 77.8726C60.5794 78.1629 60.9241 78.3932 61.3034 78.5503C61.6828 78.7075 62.0894 78.7884 62.5 78.7884C62.9106 78.7884 63.3172 78.7075 63.6966 78.5503C64.0759 78.3932 64.4206 78.1629 64.7109 77.8726C65.0013 77.5822 65.2316 77.2375 65.3887 76.8582C65.5459 76.4788 65.6267 76.0722 65.6267 75.6616C65.6267 75.251 65.5459 74.8444 65.3887 74.4651C65.2316 74.0857 65.0013 73.741 64.7109 73.4507L52.2109 60.9507ZM90.625 47.5366H70.043L77.2109 40.3726C77.5013 40.0822 77.7316 39.7375 77.8887 39.3582C78.0459 38.9788 78.1267 38.5722 78.1267 38.1616C78.1267 37.751 78.0459 37.3444 77.8887 36.9651C77.7316 36.5857 77.5013 36.241 77.2109 35.9507C76.9206 35.6603 76.5759 35.43 76.1965 35.2729C75.8172 35.1158 75.4106 35.0349 75 35.0349C74.5894 35.0349 74.1828 35.1158 73.8035 35.2729C73.4241 35.43 73.0794 35.6603 72.7891 35.9507L60.2891 48.4507C59.9985 48.7409 59.768 49.0856 59.6107 49.4649C59.4535 49.8443 59.3725 50.2509 59.3725 50.6616C59.3725 51.0723 59.4535 51.4789 59.6107 51.8583C59.768 52.2377 59.9985 52.5823 60.2891 52.8726L72.7891 65.3726C73.0794 65.6629 73.4241 65.8932 73.8035 66.0503C74.1828 66.2075 74.5894 66.2884 75 66.2884C75.4106 66.2884 75.8172 66.2075 76.1965 66.0503C76.5759 65.8932 76.9206 65.6629 77.2109 65.3726C77.5013 65.0822 77.7316 64.7375 77.8887 64.3582C78.0459 63.9788 78.1267 63.5722 78.1267 63.1616C78.1267 62.751 78.0459 62.3444 77.8887 61.9651C77.7316 61.5857 77.5013 61.241 77.2109 60.9507L70.043 53.7866H90.625C91.4538 53.7866 92.2487 53.4574 92.8347 52.8713C93.4208 52.2853 93.75 51.4904 93.75 50.6616C93.75 49.8328 93.4208 49.038 92.8347 48.4519C92.2487 47.8659 91.4538 47.5366 90.625 47.5366ZM39.7109 48.4507L27.2109 35.9507C26.6246 35.3643 25.8293 35.0349 25 35.0349C24.1707 35.0349 23.3754 35.3643 22.7891 35.9507C22.2027 36.5371 21.8733 37.3324 21.8733 38.1616C21.8733 38.9909 22.2027 39.7862 22.7891 40.3726L29.957 47.5366H9.375C8.5462 47.5366 7.75134 47.8659 7.16529 48.4519C6.57924 49.038 6.25 49.8328 6.25 50.6616C6.25 51.4904 6.57924 52.2853 7.16529 52.8713C7.75134 53.4574 8.5462 53.7866 9.375 53.7866H29.957L22.7891 60.9507C22.4987 61.241 22.2684 61.5857 22.1113 61.9651C21.9541 62.3444 21.8733 62.751 21.8733 63.1616C21.8733 63.5722 21.9541 63.9788 22.1113 64.3582C22.2684 64.7375 22.4987 65.0822 22.7891 65.3726C23.0794 65.6629 23.4241 65.8932 23.8034 66.0503C24.1828 66.2075 24.5894 66.2884 25 66.2884C25.4106 66.2884 25.8172 66.2075 26.1966 66.0503C26.5759 65.8932 26.9206 65.6629 27.2109 65.3726L39.7109 52.8726C40.0015 52.5823 40.232 52.2377 40.3892 51.8583C40.5465 51.4789 40.6275 51.0723 40.6275 50.6616C40.6275 50.2509 40.5465 49.8443 40.3892 49.4649C40.232 49.0856 40.0015 48.7409 39.7109 48.4507Z" fill="#4AAF50"/>
</svg>
