<svg width="32" height="33" viewBox="0 0 32 33" fill="none" xmlns="http://www.w3.org/2000/svg">
<path opacity="0.2" d="M25 22.1621L19 28.1621L13 22.1621H25Z" fill="black"/>
<path d="M25.9237 21.7796C25.8481 21.5969 25.72 21.4407 25.5555 21.3308C25.3911 21.2208 25.1978 21.1622 25 21.1621H20V16.1621C19.9964 12.7154 18.6256 9.41093 16.1884 6.97374C13.7512 4.53656 10.4467 3.16575 7 3.16211C6.73478 3.16211 6.48043 3.26747 6.29289 3.455C6.10536 3.64254 6 3.89689 6 4.16211C6 4.42733 6.10536 4.68168 6.29289 4.86922C6.48043 5.05675 6.73478 5.16211 7 5.16211C9.91637 5.16542 12.7123 6.32541 14.7745 8.38759C16.8367 10.4498 17.9967 13.2457 18 16.1621V21.1621H13C12.8021 21.162 12.6086 21.2205 12.444 21.3304C12.2794 21.4403 12.1511 21.5965 12.0754 21.7793C11.9996 21.9621 11.9798 22.1633 12.0185 22.3574C12.0571 22.5515 12.1525 22.7298 12.2925 22.8696L18.2925 28.8696C18.3854 28.9626 18.4957 29.0363 18.6171 29.0867C18.7385 29.137 18.8686 29.1629 19 29.1629C19.1314 29.1629 19.2615 29.137 19.3829 29.0867C19.5043 29.0363 19.6146 28.9626 19.7075 28.8696L25.7075 22.8696C25.8473 22.7297 25.9425 22.5514 25.981 22.3574C26.0195 22.1634 25.9995 21.9623 25.9237 21.7796ZM19 26.7484L15.4137 23.1621H22.5863L19 26.7484Z" fill="black"/>
</svg>
