<svg width="100" height="101" viewBox="0 0 100 101" fill="none" xmlns="http://www.w3.org/2000/svg">
<path opacity="0.2" d="M90.625 41.2866V78.7866H31.25V66.2866H65.625V41.2866H90.625Z" fill="black"/>
<path d="M21.875 53.7866C21.875 54.6154 21.5458 55.4103 20.9597 55.9963C20.3737 56.5824 19.5788 56.9116 18.75 56.9116H9.375C8.5462 56.9116 7.75134 56.5824 7.16529 55.9963C6.57924 55.4103 6.25 54.6154 6.25 53.7866C6.25 52.9578 6.57924 52.163 7.16529 51.5769C7.75134 50.9909 8.5462 50.6616 9.375 50.6616H12.5V25.6616H9.375C8.5462 25.6616 7.75134 25.3324 7.16529 24.7463C6.57924 24.1603 6.25 23.3654 6.25 22.5366C6.25 21.7078 6.57924 20.913 7.16529 20.3269C7.75134 19.7409 8.5462 19.4116 9.375 19.4116H15.625C16.154 19.4111 16.6745 19.5448 17.1377 19.8003C17.601 20.0558 17.9917 20.4248 18.2734 20.8726L31.25 41.6421L44.2266 20.8804C44.5073 20.4311 44.8977 20.0607 45.361 19.8037C45.8243 19.5468 46.3452 19.4119 46.875 19.4116H53.125C53.9538 19.4116 54.7487 19.7409 55.3347 20.3269C55.9208 20.913 56.25 21.7078 56.25 22.5366C56.25 23.3654 55.9208 24.1603 55.3347 24.7463C54.7487 25.3324 53.9538 25.6616 53.125 25.6616H50V50.6616H53.125C53.9538 50.6616 54.7487 50.9909 55.3347 51.5769C55.9208 52.163 56.25 52.9578 56.25 53.7866C56.25 54.6154 55.9208 55.4103 55.3347 55.9963C54.7487 56.5824 53.9538 56.9116 53.125 56.9116H43.75C42.9212 56.9116 42.1263 56.5824 41.5403 55.9963C40.9542 55.4103 40.625 54.6154 40.625 53.7866C40.625 52.9578 40.9542 52.163 41.5403 51.5769C42.1263 50.9909 42.9212 50.6616 43.75 50.6616V33.4312L33.8984 49.1929C33.6174 49.6416 33.2269 50.0116 32.7636 50.2681C32.3004 50.5246 31.7795 50.6591 31.25 50.6591C30.7205 50.6591 30.1996 50.5246 29.7364 50.2681C29.2731 50.0116 28.8826 49.6416 28.6016 49.1929L18.75 33.4312V50.6616C19.5788 50.6616 20.3737 50.9909 20.9597 51.5769C21.5458 52.163 21.875 52.9578 21.875 53.7866ZM65.625 44.4116H90.625C91.4538 44.4116 92.2487 44.0824 92.8347 43.4963C93.4208 42.9103 93.75 42.1154 93.75 41.2866C93.75 40.4578 93.4208 39.663 92.8347 39.0769C92.2487 38.4909 91.4538 38.1616 90.625 38.1616H65.625C64.7962 38.1616 64.0013 38.4909 63.4153 39.0769C62.8292 39.663 62.5 40.4578 62.5 41.2866C62.5 42.1154 62.8292 42.9103 63.4153 43.4963C64.0013 44.0824 64.7962 44.4116 65.625 44.4116ZM90.625 50.6616H65.625C64.7962 50.6616 64.0013 50.9909 63.4153 51.5769C62.8292 52.163 62.5 52.9578 62.5 53.7866C62.5 54.6154 62.8292 55.4103 63.4153 55.9963C64.0013 56.5824 64.7962 56.9116 65.625 56.9116H90.625C91.4538 56.9116 92.2487 56.5824 92.8347 55.9963C93.4208 55.4103 93.75 54.6154 93.75 53.7866C93.75 52.9578 93.4208 52.163 92.8347 51.5769C92.2487 50.9909 91.4538 50.6616 90.625 50.6616ZM90.625 63.1616H31.25C30.4212 63.1616 29.6263 63.4909 29.0403 64.0769C28.4542 64.663 28.125 65.4578 28.125 66.2866C28.125 67.1154 28.4542 67.9103 29.0403 68.4963C29.6263 69.0824 30.4212 69.4116 31.25 69.4116H90.625C91.4538 69.4116 92.2487 69.0824 92.8347 68.4963C93.4208 67.9103 93.75 67.1154 93.75 66.2866C93.75 65.4578 93.4208 64.663 92.8347 64.0769C92.2487 63.4909 91.4538 63.1616 90.625 63.1616ZM90.625 75.6616H31.25C30.4212 75.6616 29.6263 75.9909 29.0403 76.5769C28.4542 77.163 28.125 77.9578 28.125 78.7866C28.125 79.6154 28.4542 80.4103 29.0403 80.9963C29.6263 81.5824 30.4212 81.9116 31.25 81.9116H90.625C91.4538 81.9116 92.2487 81.5824 92.8347 80.9963C93.4208 80.4103 93.75 79.6154 93.75 78.7866C93.75 77.9578 93.4208 77.163 92.8347 76.5769C92.2487 75.9909 91.4538 75.6616 90.625 75.6616Z" fill="url(#paint0_linear_2593_94908)"/>
<defs>
<linearGradient id="paint0_linear_2593_94908" x1="-95.1522" y1="60.756" x2="-79.007" y2="-16.6308" gradientUnits="userSpaceOnUse">
<stop stop-color="#C53232"/>
<stop offset="1" stop-color="#7C36DD"/>
</linearGradient>
</defs>
</svg>
