<svg width="50" height="51" viewBox="0 0 50 51" fill="none" xmlns="http://www.w3.org/2000/svg">
<path opacity="0.2" d="M45.3125 20.4741V39.2241H15.625V32.9741H32.8125V20.4741H45.3125Z" fill="black"/>
<path d="M10.9375 26.7241C10.9375 27.1385 10.7729 27.536 10.4799 27.829C10.1868 28.122 9.7894 28.2866 9.375 28.2866H4.6875C4.2731 28.2866 3.87567 28.122 3.58265 27.829C3.28962 27.536 3.125 27.1385 3.125 26.7241C3.125 26.3097 3.28962 25.9123 3.58265 25.6193C3.87567 25.3262 4.2731 25.1616 4.6875 25.1616H6.25V12.6616H4.6875C4.2731 12.6616 3.87567 12.497 3.58265 12.204C3.28962 11.911 3.125 11.5135 3.125 11.0991C3.125 10.6847 3.28962 10.2873 3.58265 9.99427C3.87567 9.70124 4.2731 9.53662 4.6875 9.53662H7.8125C8.07701 9.53634 8.33726 9.60321 8.56887 9.73097C8.80048 9.85873 8.99587 10.0432 9.13672 10.2671L15.625 20.6519L22.1133 10.271C22.2537 10.0464 22.4488 9.86114 22.6805 9.73268C22.9121 9.60422 23.1726 9.53675 23.4375 9.53662H26.5625C26.9769 9.53662 27.3743 9.70124 27.6674 9.99427C27.9604 10.2873 28.125 10.6847 28.125 11.0991C28.125 11.5135 27.9604 11.911 27.6674 12.204C27.3743 12.497 26.9769 12.6616 26.5625 12.6616H25V25.1616H26.5625C26.9769 25.1616 27.3743 25.3262 27.6674 25.6193C27.9604 25.9123 28.125 26.3097 28.125 26.7241C28.125 27.1385 27.9604 27.536 27.6674 27.829C27.3743 28.122 26.9769 28.2866 26.5625 28.2866H21.875C21.4606 28.2866 21.0632 28.122 20.7701 27.829C20.4771 27.536 20.3125 27.1385 20.3125 26.7241C20.3125 26.3097 20.4771 25.9123 20.7701 25.6193C21.0632 25.3262 21.4606 25.1616 21.875 25.1616V16.5464L16.9492 24.4272C16.8087 24.6516 16.6134 24.8366 16.3818 24.9649C16.1502 25.0931 15.8898 25.1604 15.625 25.1604C15.3602 25.1604 15.0998 25.0931 14.8682 24.9649C14.6366 24.8366 14.4413 24.6516 14.3008 24.4272L9.375 16.5464V25.1616C9.7894 25.1616 10.1868 25.3262 10.4799 25.6193C10.7729 25.9123 10.9375 26.3097 10.9375 26.7241ZM32.8125 22.0366H45.3125C45.7269 22.0366 46.1243 21.872 46.4174 21.579C46.7104 21.286 46.875 20.8885 46.875 20.4741C46.875 20.0597 46.7104 19.6623 46.4174 19.3693C46.1243 19.0762 45.7269 18.9116 45.3125 18.9116H32.8125C32.3981 18.9116 32.0007 19.0762 31.7076 19.3693C31.4146 19.6623 31.25 20.0597 31.25 20.4741C31.25 20.8885 31.4146 21.286 31.7076 21.579C32.0007 21.872 32.3981 22.0366 32.8125 22.0366ZM45.3125 25.1616H32.8125C32.3981 25.1616 32.0007 25.3262 31.7076 25.6193C31.4146 25.9123 31.25 26.3097 31.25 26.7241C31.25 27.1385 31.4146 27.536 31.7076 27.829C32.0007 28.122 32.3981 28.2866 32.8125 28.2866H45.3125C45.7269 28.2866 46.1243 28.122 46.4174 27.829C46.7104 27.536 46.875 27.1385 46.875 26.7241C46.875 26.3097 46.7104 25.9123 46.4174 25.6193C46.1243 25.3262 45.7269 25.1616 45.3125 25.1616ZM45.3125 31.4116H15.625C15.2106 31.4116 14.8132 31.5762 14.5201 31.8693C14.2271 32.1623 14.0625 32.5597 14.0625 32.9741C14.0625 33.3885 14.2271 33.786 14.5201 34.079C14.8132 34.372 15.2106 34.5366 15.625 34.5366H45.3125C45.7269 34.5366 46.1243 34.372 46.4174 34.079C46.7104 33.786 46.875 33.3885 46.875 32.9741C46.875 32.5597 46.7104 32.1623 46.4174 31.8693C46.1243 31.5762 45.7269 31.4116 45.3125 31.4116ZM45.3125 37.6616H15.625C15.2106 37.6616 14.8132 37.8262 14.5201 38.1193C14.2271 38.4123 14.0625 38.8097 14.0625 39.2241C14.0625 39.6385 14.2271 40.036 14.5201 40.329C14.8132 40.622 15.2106 40.7866 15.625 40.7866H45.3125C45.7269 40.7866 46.1243 40.622 46.4174 40.329C46.7104 40.036 46.875 39.6385 46.875 39.2241C46.875 38.8097 46.7104 38.4123 46.4174 38.1193C46.1243 37.8262 45.7269 37.6616 45.3125 37.6616Z" fill="url(#paint0_linear_2593_94908)"/>
<defs>
<linearGradient id="paint0_linear_2593_94908" x1="-47.5761" y1="30.2088" x2="-39.5035" y2="-8.48457" gradientUnits="userSpaceOnUse">
<stop stop-color="#C53232"/>
<stop offset="1" stop-color="#7C36DD"/>
</linearGradient>
</defs>
</svg>
