<svg width="100" height="101" viewBox="0 0 100 101" fill="none" xmlns="http://www.w3.org/2000/svg">
<g clip-path="url(#clip0_2593_94920)">
<path opacity="0.2" d="M34.375 68.9116C32.8298 68.9116 31.3194 68.4534 30.0346 67.595C28.7499 66.7365 27.7485 65.5164 27.1572 64.0888C26.5659 62.6613 26.4112 61.0905 26.7126 59.575C27.0141 58.0595 27.7581 56.6674 28.8507 55.5748C29.9433 54.4823 31.3354 53.7382 32.8509 53.4367C34.3663 53.1353 35.9372 53.29 37.3647 53.8813C38.7923 54.4726 40.0124 55.474 40.8709 56.7587C41.7293 58.0435 42.1875 59.554 42.1875 61.0991C42.1875 63.1711 41.3644 65.1583 39.8993 66.6234C38.4341 68.0885 36.447 68.9116 34.375 68.9116ZM59.375 50.1616V59.5366C59.375 66.167 56.7411 72.5259 52.0527 77.2143C47.3643 81.9027 41.0054 84.5366 34.375 84.5366H50C56.6304 84.5366 62.9893 81.9027 67.6777 77.2143C72.3661 72.5259 75 66.167 75 59.5366V50.1616H59.375Z" fill="black"/>
<path d="M34.375 50.1617C32.2118 50.1617 30.0971 50.8032 28.2985 52.005C26.4998 53.2069 25.0979 54.9151 24.2701 56.9136C23.4423 58.9122 23.2257 61.1114 23.6477 63.233C24.0697 65.3547 25.1114 67.3036 26.641 68.8332C28.1707 70.3628 30.1196 71.4045 32.2412 71.8266C34.3629 72.2486 36.5621 72.032 38.5606 71.2042C40.5592 70.3763 42.2674 68.9744 43.4692 67.1758C44.671 65.3771 45.3125 63.2625 45.3125 61.0992C45.3125 58.1984 44.1602 55.4164 42.109 53.3652C40.0578 51.3141 37.2758 50.1617 34.375 50.1617ZM34.375 65.7867C33.4479 65.7867 32.5416 65.5118 31.7708 64.9967C30.9999 64.4817 30.3991 63.7496 30.0443 62.893C29.6895 62.0365 29.5967 61.094 29.7776 60.1847C29.9585 59.2755 30.4049 58.4402 31.0605 57.7847C31.716 57.1291 32.5512 56.6827 33.4605 56.5018C34.3698 56.3209 35.3123 56.4138 36.1688 56.7685C37.0254 57.1233 37.7575 57.7241 38.2725 58.495C38.7876 59.2658 39.0625 60.1721 39.0625 61.0992C39.0625 62.3424 38.5687 63.5347 37.6896 64.4138C36.8105 65.2929 35.6182 65.7867 34.375 65.7867ZM96.875 47.0367H87.3828C86.5851 36.5561 81.7563 26.7926 73.911 19.7976C66.0657 12.8025 55.8145 9.12045 45.3114 9.525C34.8083 9.92955 24.8707 14.3892 17.5867 21.967C10.3027 29.5448 6.2392 39.6508 6.25002 50.1617V59.5367C6.25829 66.9934 9.22411 74.1423 14.4968 79.415C19.7694 84.6876 26.9183 87.6535 34.375 87.6617H50C57.4567 87.6535 64.6056 84.6876 69.8783 79.415C75.1509 74.1423 78.1168 66.9934 78.125 59.5367V53.2867H96.875C97.7038 53.2867 98.4987 52.9575 99.0847 52.3714C99.6708 51.7854 100 50.9905 100 50.1617C100 49.3329 99.6708 48.5381 99.0847 47.952C98.4987 47.366 97.7038 47.0367 96.875 47.0367ZM71.875 59.5367C71.8693 64.9618 69.8499 70.1916 66.2083 74.2129C62.5667 78.2341 57.562 80.7604 52.1641 81.3023C55.3945 78.6691 57.9981 75.3495 59.7859 71.5848C61.5736 67.82 62.5008 63.7044 62.5 59.5367V53.2867H71.875V59.5367ZM59.375 47.0367C58.5462 47.0367 57.7514 47.366 57.1653 47.952C56.5793 48.5381 56.25 49.3329 56.25 50.1617V59.5367C56.25 65.3383 53.9453 70.9023 49.843 75.0047C45.7406 79.107 40.1766 81.4117 34.375 81.4117C28.5734 81.4117 23.0094 79.107 18.9071 75.0047C14.8047 70.9023 12.5 65.3383 12.5 59.5367V50.1617C12.4952 41.3124 15.9032 32.8021 22.0149 26.4023C28.1265 20.0024 36.4708 16.2061 45.3109 15.8034C54.1511 15.4008 62.806 18.4229 69.4741 24.2406C76.1422 30.0584 80.3098 38.2236 81.1094 47.0367H59.375Z" fill="#89CAEF"/>
</g>
<defs>
<clipPath id="clip0_2593_94920">
<rect width="100" height="100" fill="white" transform="translate(0 0.161621)"/>
</clipPath>
</defs>
</svg>
