<svg width="50" height="51" viewBox="0 0 50 51" fill="none" xmlns="http://www.w3.org/2000/svg">
<g clip-path="url(#clip0_2593_94920)">
<path opacity="0.2" d="M17.1875 34.5366C16.4149 34.5366 15.6597 34.3075 15.0173 33.8783C14.3749 33.4491 13.8743 32.839 13.5786 32.1252C13.2829 31.4115 13.2056 30.626 13.3563 29.8683C13.507 29.1106 13.8791 28.4145 14.4254 27.8682C14.9717 27.3219 15.6677 26.9499 16.4254 26.7992C17.1832 26.6485 17.9686 26.7258 18.6824 27.0215C19.3961 27.3171 20.0062 27.8178 20.4354 28.4602C20.8647 29.1026 21.0938 29.8578 21.0938 30.6304C21.0938 31.6664 20.6822 32.6599 19.9496 33.3925C19.2171 34.1251 18.2235 34.5366 17.1875 34.5366ZM29.6875 25.1616V29.8491C29.6875 33.1643 28.3705 36.3438 26.0263 38.688C23.6821 41.0322 20.5027 42.3491 17.1875 42.3491H25C28.3152 42.3491 31.4946 41.0322 33.8388 38.688C36.183 36.3438 37.5 33.1643 37.5 29.8491V25.1616H29.6875Z" fill="black"/>
<path d="M17.1875 25.1615C16.1059 25.1615 15.0486 25.4823 14.1492 26.0832C13.2499 26.6841 12.549 27.5382 12.135 28.5375C11.7211 29.5368 11.6128 30.6364 11.8238 31.6972C12.0349 32.758 12.5557 33.7325 13.3205 34.4973C14.0853 35.2621 15.0598 35.783 16.1206 35.994C17.1814 36.205 18.281 36.0967 19.2803 35.6828C20.2796 35.2688 21.1337 34.5679 21.7346 33.6686C22.3355 32.7692 22.6563 31.7119 22.6563 30.6303C22.6563 29.1799 22.0801 27.7889 21.0545 26.7633C20.0289 25.7377 18.6379 25.1615 17.1875 25.1615ZM17.1875 32.974C16.724 32.974 16.2708 32.8366 15.8854 32.5791C15.5 32.3215 15.1996 31.9555 15.0222 31.5272C14.8448 31.0989 14.7984 30.6277 14.8888 30.1731C14.9792 29.7184 15.2024 29.3008 15.5302 28.973C15.858 28.6452 16.2756 28.422 16.7303 28.3316C17.1849 28.2411 17.6562 28.2876 18.0844 28.465C18.5127 28.6424 18.8787 28.9428 19.1363 29.3282C19.3938 29.7136 19.5313 30.1667 19.5313 30.6303C19.5313 31.2519 19.2843 31.848 18.8448 32.2876C18.4053 32.7271 17.8091 32.974 17.1875 32.974ZM48.4375 23.599H43.6914C43.2926 18.3587 40.8782 13.477 36.9555 9.97946C33.0328 6.48194 27.9073 4.64092 22.6557 4.84319C17.4041 5.04547 12.4354 7.2753 8.79335 11.0642C5.15134 14.8531 3.1196 19.9061 3.12501 25.1615V29.849C3.12915 33.5774 4.61206 37.1518 7.24839 39.7882C9.88472 42.4245 13.4592 43.9074 17.1875 43.9115H25C28.7283 43.9074 32.3028 42.4245 34.9391 39.7882C37.5755 37.1518 39.0584 33.5774 39.0625 29.849V26.724H48.4375C48.8519 26.724 49.2493 26.5594 49.5424 26.2664C49.8354 25.9734 50 25.576 50 25.1615C50 24.7471 49.8354 24.3497 49.5424 24.0567C49.2493 23.7637 48.8519 23.599 48.4375 23.599ZM35.9375 29.849C35.9346 32.5616 34.925 35.1765 33.1042 37.1871C31.2833 39.1977 28.781 40.4609 26.082 40.7319C27.6972 39.4152 28.999 37.7555 29.8929 35.8731C30.7868 33.9907 31.2504 31.9329 31.25 29.849V26.724H35.9375V29.849ZM29.6875 23.599C29.2731 23.599 28.8757 23.7637 28.5827 24.0567C28.2896 24.3497 28.125 24.7471 28.125 25.1615V29.849C28.125 32.7499 26.9727 35.5319 24.9215 37.583C22.8703 39.6342 20.0883 40.7865 17.1875 40.7865C14.2867 40.7865 11.5047 39.6342 9.45353 37.583C7.40235 35.5319 6.25001 32.7499 6.25001 29.849V25.1615C6.24758 20.7369 7.95162 16.4818 11.0074 13.2818C14.0632 10.0819 18.2354 8.18372 22.6555 7.9824C27.0755 7.78107 31.403 9.29212 34.737 12.201C38.0711 15.1099 40.1549 19.1925 40.5547 23.599H29.6875Z" fill="#89CAEF"/>
</g>
<defs>
<clipPath id="clip0_2593_94920">
<rect width="50" height="50" fill="white" transform="translate(0 0.161621)"/>
</clipPath>
</defs>
</svg>
