<svg width="24" height="25" viewBox="0 0 24 25" fill="none" xmlns="http://www.w3.org/2000/svg">
<path opacity="0.2" d="M21.75 5.41162V18.9116H15C14.2044 18.9116 13.4413 19.2277 12.8787 19.7903C12.3161 20.3529 12 21.116 12 21.9116V8.41162C12 7.61597 12.3161 6.85291 12.8787 6.2903C13.4413 5.72769 14.2044 5.41162 15 5.41162H21.75Z" fill="black"/>
<path d="M21.75 4.66162H15C14.4178 4.66162 13.8437 4.79717 13.3229 5.05752C12.8022 5.31787 12.3493 5.69589 12 6.16162C11.6507 5.69589 11.1978 5.31787 10.6771 5.05752C10.1563 4.79717 9.58217 4.66162 9 4.66162H2.25C2.05109 4.66162 1.86032 4.74064 1.71967 4.88129C1.57902 5.02194 1.5 5.21271 1.5 5.41162V18.9116C1.5 19.1105 1.57902 19.3013 1.71967 19.442C1.86032 19.5826 2.05109 19.6616 2.25 19.6616H9C9.59674 19.6616 10.169 19.8987 10.591 20.3206C11.0129 20.7426 11.25 21.3149 11.25 21.9116C11.25 22.1105 11.329 22.3013 11.4697 22.442C11.6103 22.5826 11.8011 22.6616 12 22.6616C12.1989 22.6616 12.3897 22.5826 12.5303 22.442C12.671 22.3013 12.75 22.1105 12.75 21.9116C12.75 21.3149 12.9871 20.7426 13.409 20.3206C13.831 19.8987 14.4033 19.6616 15 19.6616H21.75C21.9489 19.6616 22.1397 19.5826 22.2803 19.442C22.421 19.3013 22.5 19.1105 22.5 18.9116V5.41162C22.5 5.21271 22.421 5.02194 22.2803 4.88129C22.1397 4.74064 21.9489 4.66162 21.75 4.66162ZM9 18.1616H3V6.16162H9C9.59674 6.16162 10.169 6.39867 10.591 6.82063C11.0129 7.24259 11.25 7.81488 11.25 8.41162V18.9116C10.6015 18.4236 9.8116 18.1603 9 18.1616ZM21 18.1616H15C14.1884 18.1603 13.3985 18.4236 12.75 18.9116V8.41162C12.75 7.81488 12.9871 7.24259 13.409 6.82063C13.831 6.39867 14.4033 6.16162 15 6.16162H21V18.1616ZM15 8.41162H18.75C18.9489 8.41162 19.1397 8.49064 19.2803 8.63129C19.421 8.77194 19.5 8.96271 19.5 9.16162C19.5 9.36053 19.421 9.5513 19.2803 9.69195C19.1397 9.8326 18.9489 9.91162 18.75 9.91162H15C14.8011 9.91162 14.6103 9.8326 14.4697 9.69195C14.329 9.5513 14.25 9.36053 14.25 9.16162C14.25 8.96271 14.329 8.77194 14.4697 8.63129C14.6103 8.49064 14.8011 8.41162 15 8.41162ZM19.5 12.1616C19.5 12.3605 19.421 12.5513 19.2803 12.692C19.1397 12.8326 18.9489 12.9116 18.75 12.9116H15C14.8011 12.9116 14.6103 12.8326 14.4697 12.692C14.329 12.5513 14.25 12.3605 14.25 12.1616C14.25 11.9627 14.329 11.7719 14.4697 11.6313C14.6103 11.4906 14.8011 11.4116 15 11.4116H18.75C18.9489 11.4116 19.1397 11.4906 19.2803 11.6313C19.421 11.7719 19.5 11.9627 19.5 12.1616ZM19.5 15.1616C19.5 15.3605 19.421 15.5513 19.2803 15.692C19.1397 15.8326 18.9489 15.9116 18.75 15.9116H15C14.8011 15.9116 14.6103 15.8326 14.4697 15.692C14.329 15.5513 14.25 15.3605 14.25 15.1616C14.25 14.9627 14.329 14.7719 14.4697 14.6313C14.6103 14.4906 14.8011 14.4116 15 14.4116H18.75C18.9489 14.4116 19.1397 14.4906 19.2803 14.6313C19.421 14.7719 19.5 14.9627 19.5 15.1616Z" fill="#4AAF50"/>
</svg>
