<svg width="32" height="33" viewBox="0 0 32 33" fill="none" xmlns="http://www.w3.org/2000/svg">
<path opacity="0.2" d="M21 9.66162V28.6616L14 23.6616L7 28.6616V9.66162C7 9.3964 7.10536 9.14205 7.29289 8.95451C7.48043 8.76698 7.73478 8.66162 8 8.66162H20C20.2652 8.66162 20.5196 8.76698 20.7071 8.95451C20.8946 9.14205 21 9.3964 21 9.66162Z" fill="black"/>
<path d="M20 7.66162H8C7.46957 7.66162 6.96086 7.87233 6.58579 8.24741C6.21071 8.62248 6 9.13119 6 9.66162V28.6616C6 28.8454 6.05061 29.0256 6.1463 29.1824C6.24199 29.3393 6.37904 29.4667 6.54241 29.5508C6.70579 29.6349 6.88917 29.6723 7.07243 29.659C7.25569 29.6457 7.43174 29.5822 7.58125 29.4754L14 24.8904L20.42 29.4754C20.5695 29.5818 20.7454 29.6451 20.9285 29.6582C21.1116 29.6713 21.2947 29.6338 21.4579 29.5498C21.621 29.4657 21.7579 29.3384 21.8536 29.1818C21.9492 29.0251 21.9998 28.8452 22 28.6616V9.66162C22 9.13119 21.7893 8.62248 21.4142 8.24741C21.0391 7.87233 20.5304 7.66162 20 7.66162ZM20 26.7191L14.58 22.8441C14.4104 22.723 14.2072 22.6578 13.9987 22.6578C13.7903 22.6578 13.5871 22.723 13.4175 22.8441L8 26.7179V9.66162H20V26.7191ZM26 5.66162V24.6616C26 24.9268 25.8946 25.1812 25.7071 25.3687C25.5196 25.5563 25.2652 25.6616 25 25.6616C24.7348 25.6616 24.4804 25.5563 24.2929 25.3687C24.1054 25.1812 24 24.9268 24 24.6616V5.66162H11C10.7348 5.66162 10.4804 5.55626 10.2929 5.36873C10.1054 5.18119 10 4.92684 10 4.66162C10 4.3964 10.1054 4.14205 10.2929 3.95451C10.4804 3.76698 10.7348 3.66162 11 3.66162H24C24.5304 3.66162 25.0391 3.87233 25.4142 4.24741C25.7893 4.62248 26 5.13119 26 5.66162Z" fill="#A5DBE2"/>
</svg>
