<svg width="50" height="51" viewBox="0 0 50 51" fill="none" xmlns="http://www.w3.org/2000/svg">
<path opacity="0.2" d="M42.1875 9.53662V17.3491H7.8125V9.53662C7.8125 9.12222 7.97712 8.72479 8.27015 8.43177C8.56317 8.13874 8.9606 7.97412 9.375 7.97412H40.625C41.0394 7.97412 41.4368 8.13874 41.7299 8.43177C42.0229 8.72479 42.1875 9.12222 42.1875 9.53662Z" fill="black"/>
<path d="M40.625 6.41162H35.9375V4.84912C35.9375 4.43472 35.7729 4.03729 35.4799 3.74427C35.1868 3.45124 34.7894 3.28662 34.375 3.28662C33.9606 3.28662 33.5632 3.45124 33.2701 3.74427C32.9771 4.03729 32.8125 4.43472 32.8125 4.84912V6.41162H17.1875V4.84912C17.1875 4.43472 17.0229 4.03729 16.7299 3.74427C16.4368 3.45124 16.0394 3.28662 15.625 3.28662C15.2106 3.28662 14.8132 3.45124 14.5201 3.74427C14.2271 4.03729 14.0625 4.43472 14.0625 4.84912V6.41162H9.375C8.5462 6.41162 7.75134 6.74086 7.16529 7.32691C6.57924 7.91296 6.25 8.70782 6.25 9.53662V40.7866C6.25 41.6154 6.57924 42.4103 7.16529 42.9963C7.75134 43.5824 8.5462 43.9116 9.375 43.9116H40.625C41.4538 43.9116 42.2487 43.5824 42.8347 42.9963C43.4208 42.4103 43.75 41.6154 43.75 40.7866V9.53662C43.75 8.70782 43.4208 7.91296 42.8347 7.32691C42.2487 6.74086 41.4538 6.41162 40.625 6.41162ZM14.0625 9.53662V11.0991C14.0625 11.5135 14.2271 11.9109 14.5201 12.204C14.8132 12.497 15.2106 12.6616 15.625 12.6616C16.0394 12.6616 16.4368 12.497 16.7299 12.204C17.0229 11.9109 17.1875 11.5135 17.1875 11.0991V9.53662H32.8125V11.0991C32.8125 11.5135 32.9771 11.9109 33.2701 12.204C33.5632 12.497 33.9606 12.6616 34.375 12.6616C34.7894 12.6616 35.1868 12.497 35.4799 12.204C35.7729 11.9109 35.9375 11.5135 35.9375 11.0991V9.53662H40.625V15.7866H9.375V9.53662H14.0625ZM40.625 40.7866H9.375V18.9116H40.625V40.7866ZM27.3438 25.9429C27.3438 26.4064 27.2063 26.8596 26.9488 27.245C26.6912 27.6304 26.3252 27.9308 25.8969 28.1082C25.4686 28.2856 24.9974 28.332 24.5428 28.2416C24.0881 28.1512 23.6705 27.9279 23.3427 27.6002C23.0149 27.2724 22.7917 26.8548 22.7013 26.4001C22.6108 25.9455 22.6573 25.4742 22.8347 25.046C23.0121 24.6177 23.3125 24.2516 23.6979 23.9941C24.0833 23.7366 24.5364 23.5991 25 23.5991C25.6216 23.5991 26.2177 23.8461 26.6573 24.2856C27.0968 24.7251 27.3438 25.3213 27.3438 25.9429ZM35.9375 25.9429C35.9375 26.4064 35.8 26.8596 35.5425 27.245C35.285 27.6304 34.9189 27.9308 34.4907 28.1082C34.0624 28.2856 33.5912 28.332 33.1365 28.2416C32.6819 28.1512 32.2642 27.9279 31.9365 27.6002C31.6087 27.2724 31.3855 26.8548 31.295 26.4001C31.2046 25.9455 31.251 25.4742 31.4284 25.046C31.6058 24.6177 31.9062 24.2516 32.2916 23.9941C32.6771 23.7366 33.1302 23.5991 33.5938 23.5991C34.2154 23.5991 34.8115 23.8461 35.251 24.2856C35.6906 24.7251 35.9375 25.3213 35.9375 25.9429ZM18.75 33.7554C18.75 34.2189 18.6125 34.6721 18.355 35.0575C18.0975 35.4429 17.7314 35.7433 17.3032 35.9207C16.8749 36.0981 16.4036 36.1445 15.949 36.0541C15.4944 35.9637 15.0767 35.7404 14.749 35.4127C14.4212 35.0849 14.198 34.6673 14.1075 34.2126C14.0171 33.758 14.0635 33.2867 14.2409 32.8585C14.4183 32.4302 14.7187 32.0641 15.1041 31.8066C15.4896 31.5491 15.9427 31.4116 16.4062 31.4116C17.0279 31.4116 17.624 31.6586 18.0635 32.0981C18.5031 32.5376 18.75 33.1338 18.75 33.7554ZM27.3438 33.7554C27.3438 34.2189 27.2063 34.6721 26.9488 35.0575C26.6912 35.4429 26.3252 35.7433 25.8969 35.9207C25.4686 36.0981 24.9974 36.1445 24.5428 36.0541C24.0881 35.9637 23.6705 35.7404 23.3427 35.4127C23.0149 35.0849 22.7917 34.6673 22.7013 34.2126C22.6108 33.758 22.6573 33.2867 22.8347 32.8585C23.0121 32.4302 23.3125 32.0641 23.6979 31.8066C24.0833 31.5491 24.5364 31.4116 25 31.4116C25.6216 31.4116 26.2177 31.6586 26.6573 32.0981C27.0968 32.5376 27.3438 33.1338 27.3438 33.7554ZM35.9375 33.7554C35.9375 34.2189 35.8 34.6721 35.5425 35.0575C35.285 35.4429 34.9189 35.7433 34.4907 35.9207C34.0624 36.0981 33.5912 36.1445 33.1365 36.0541C32.6819 35.9637 32.2642 35.7404 31.9365 35.4127C31.6087 35.0849 31.3855 34.6673 31.295 34.2126C31.2046 33.758 31.251 33.2867 31.4284 32.8585C31.6058 32.4302 31.9062 32.0641 32.2916 31.8066C32.6771 31.5491 33.1302 31.4116 33.5938 31.4116C34.2154 31.4116 34.8115 31.6586 35.251 32.0981C35.6906 32.5376 35.9375 33.1338 35.9375 33.7554Z" fill="#E6C536"/>
</svg>
