<svg width="32" height="33" viewBox="0 0 32 33" fill="none" xmlns="http://www.w3.org/2000/svg">
<path opacity="0.2" d="M22.5 14.1616C22.5 15.8855 21.8152 17.5388 20.5962 18.7578C19.3772 19.9768 17.7239 20.6616 16 20.6616C16.7956 20.6616 17.5587 20.3456 18.1213 19.7829C18.6839 19.2203 19 18.4573 19 17.6616C19 14.6616 16 12.6616 16 12.6616C16 12.6616 13 14.6616 13 17.6616C13 18.4573 13.3161 19.2203 13.8787 19.7829C14.4413 20.3456 15.2044 20.6616 16 20.6616C14.2761 20.6616 12.6228 19.9768 11.4038 18.7578C10.1848 17.5388 9.5 15.8855 9.5 14.1616C9.5 8.66162 16 4.66162 16 4.66162C16 4.66162 22.5 8.66162 22.5 14.1616Z" fill="black"/>
<path d="M16 21.6615C17.9884 21.6592 19.8947 20.8683 21.3007 19.4622C22.7067 18.0562 23.4976 16.1499 23.5 14.1615C23.5 8.17149 16.8087 3.98524 16.5237 3.81024C16.3662 3.71338 16.1849 3.66211 16 3.66211C15.815 3.66211 15.6337 3.71338 15.4762 3.81024C14.2219 4.62532 13.0655 5.58203 12.03 6.66149C9.72121 9.05274 8.49996 11.649 8.49996 14.1615C8.50228 16.1499 9.2932 18.0562 10.6992 19.4622C12.1052 20.8683 14.0115 21.6592 16 21.6615ZM14 17.6615C14 15.9652 15.25 14.604 16 13.9377C16.75 14.604 18 15.9652 18 17.6615C18 18.1919 17.7892 18.7006 17.4142 19.0757C17.0391 19.4508 16.5304 19.6615 16 19.6615C15.4695 19.6615 14.9608 19.4508 14.5857 19.0757C14.2107 18.7006 14 18.1919 14 17.6615ZM16 5.86899C17.4675 6.91149 21.5 10.1615 21.5 14.1615C21.5004 15.5688 20.9592 16.9224 19.9887 17.9415C19.995 17.849 20 17.7552 20 17.6615C20 14.1615 16.695 11.9227 16.555 11.829C16.3906 11.7193 16.1975 11.6608 16 11.6608C15.8024 11.6608 15.6093 11.7193 15.445 11.829C15.305 11.9227 12 14.1615 12 17.6615C12 17.7552 12 17.849 12.0112 17.9415C11.0407 16.9224 10.4995 15.5688 10.5 14.1615C10.5 10.1615 14.5337 6.91149 16 5.86899ZM27.9525 28.964C27.9127 29.0892 27.8486 29.2053 27.7639 29.3057C27.6793 29.4061 27.5756 29.4889 27.459 29.5492C27.3423 29.6096 27.2149 29.6464 27.084 29.6575C26.9532 29.6686 26.8214 29.6538 26.6962 29.614L16 26.2102L5.30371 29.614C5.17854 29.6538 5.04676 29.6686 4.91589 29.6574C4.78502 29.6463 4.65762 29.6095 4.54097 29.5492C4.42431 29.4888 4.32069 29.4061 4.23601 29.3057C4.15134 29.2053 4.08727 29.0892 4.04746 28.964C4.00765 28.8388 3.99289 28.707 4.00401 28.5762C4.01513 28.4453 4.05192 28.3179 4.11228 28.2012C4.17264 28.0846 4.25538 27.981 4.35579 27.8963C4.45619 27.8116 4.57229 27.7475 4.69746 27.7077L12.6975 25.1615L4.69746 22.614C4.56884 22.5772 4.44891 22.5149 4.34478 22.4309C4.24065 22.3469 4.15444 22.2429 4.09124 22.1249C4.02805 22.007 3.98916 21.8776 3.97688 21.7444C3.9646 21.6112 3.97917 21.4768 4.01975 21.3493C4.06032 21.2219 4.12606 21.1038 4.21308 21.0022C4.3001 20.9006 4.40662 20.8174 4.52635 20.7577C4.64607 20.698 4.77656 20.6629 4.91009 20.6546C5.04362 20.6462 5.17746 20.6647 5.30371 20.709L16 24.1115L26.6962 20.709C26.8225 20.6647 26.9563 20.6462 27.0898 20.6546C27.2234 20.6629 27.3538 20.698 27.4736 20.7577C27.5933 20.8174 27.6998 20.9006 27.7868 21.0022C27.8739 21.1038 27.9396 21.2219 27.9802 21.3493C28.0207 21.4768 28.0353 21.6112 28.023 21.7444C28.0108 21.8776 27.9719 22.007 27.9087 22.1249C27.8455 22.2429 27.7593 22.3469 27.6551 22.4309C27.551 22.5149 27.4311 22.5772 27.3025 22.614L19.3025 25.1615L27.3025 27.7077C27.4276 27.7475 27.5438 27.8116 27.6442 27.8963C27.7446 27.9809 27.8273 28.0846 27.8877 28.2012C27.9481 28.3179 27.9848 28.4453 27.996 28.5762C28.0071 28.707 27.9923 28.8388 27.9525 28.964Z" fill="#FF5A43"/>
</svg>
