<svg width="32" height="33" viewBox="0 0 32 33" fill="none" xmlns="http://www.w3.org/2000/svg">
<path opacity="0.2" d="M28 9.66162V15.6616H20C20 16.7225 19.5786 17.7399 18.8284 18.49C18.0783 19.2402 17.0609 19.6616 16 19.6616C14.9391 19.6616 13.9217 19.2402 13.1716 18.49C12.4214 17.7399 12 16.7225 12 15.6616H4V9.66162C4 9.13119 4.21071 8.62248 4.58579 8.24741C4.96086 7.87233 5.46957 7.66162 6 7.66162H26C26.5304 7.66162 27.0391 7.87233 27.4142 8.24741C27.7893 8.62248 28 9.13119 28 9.66162Z" fill="black"/>
<path d="M26 6.66162H6C5.20435 6.66162 4.44129 6.97769 3.87868 7.5403C3.31607 8.10291 3 8.86597 3 9.66162V23.6616C3 24.4573 3.31607 25.2203 3.87868 25.7829C4.44129 26.3456 5.20435 26.6616 6 26.6616H26C26.7956 26.6616 27.5587 26.3456 28.1213 25.7829C28.6839 25.2203 29 24.4573 29 23.6616V9.66162C29 8.86597 28.6839 8.10291 28.1213 7.5403C27.5587 6.97769 26.7956 6.66162 26 6.66162ZM5 12.6616H27V14.6616H20C19.7348 14.6616 19.4804 14.767 19.2929 14.9545C19.1054 15.1421 19 15.3964 19 15.6616C19 16.4573 18.6839 17.2203 18.1213 17.7829C17.5587 18.3456 16.7956 18.6616 16 18.6616C15.2044 18.6616 14.4413 18.3456 13.8787 17.7829C13.3161 17.2203 13 16.4573 13 15.6616C13 15.3964 12.8946 15.1421 12.7071 14.9545C12.5196 14.767 12.2652 14.6616 12 14.6616H5V12.6616ZM6 8.66162H26C26.2652 8.66162 26.5196 8.76698 26.7071 8.95451C26.8946 9.14205 27 9.3964 27 9.66162V10.6616H5V9.66162C5 9.3964 5.10536 9.14205 5.29289 8.95451C5.48043 8.76698 5.73478 8.66162 6 8.66162ZM26 24.6616H6C5.73478 24.6616 5.48043 24.5563 5.29289 24.3687C5.10536 24.1812 5 23.9268 5 23.6616V16.6616H11.1C11.3295 17.7919 11.9427 18.8081 12.8357 19.538C13.7288 20.2679 14.8466 20.6666 16 20.6666C17.1534 20.6666 18.2712 20.2679 19.1643 19.538C20.0573 18.8081 20.6705 17.7919 20.9 16.6616H27V23.6616C27 23.9268 26.8946 24.1812 26.7071 24.3687C26.5196 24.5563 26.2652 24.6616 26 24.6616Z" fill="#FFEDEB" fill-opacity="0.75"/>
</svg>
