<svg width="51" height="51" viewBox="0 0 51 51" fill="none" xmlns="http://www.w3.org/2000/svg">
<path opacity="0.2" d="M33.3125 33.4741L38 39.7241H13L17.6875 33.4741H33.3125ZM34.875 17.8491C33.9479 17.8491 33.0416 18.124 32.2708 18.6391C31.4999 19.1542 30.8991 19.8863 30.5443 20.7428C30.1895 21.5993 30.0967 22.5418 30.2776 23.4511C30.4584 24.3604 30.9049 25.1956 31.5604 25.8512C32.216 26.5067 33.0512 26.9532 33.9605 27.1341C34.8698 27.3149 35.8123 27.2221 36.6688 26.8673C37.5254 26.5125 38.2574 25.9117 38.7725 25.1409C39.2876 24.37 39.5625 23.4637 39.5625 22.5366C39.5625 21.2934 39.0686 20.1011 38.1896 19.2221C37.3105 18.343 36.1182 17.8491 34.875 17.8491ZM20.8125 22.5366C20.8125 21.6095 20.5376 20.7032 20.0225 19.9324C19.5074 19.1615 18.7754 18.5607 17.9188 18.2059C17.0623 17.8512 16.1198 17.7583 15.2105 17.9392C14.3012 18.1201 13.466 18.5665 12.8104 19.2221C12.1549 19.8776 11.7084 20.7129 11.5276 21.6221C11.3467 22.5314 11.4395 23.4739 11.7943 24.3305C12.1491 25.187 12.7499 25.9191 13.5208 26.4341C14.2916 26.9492 15.1979 27.2241 16.125 27.2241C17.3682 27.2241 18.5605 26.7303 19.4396 25.8512C20.3186 24.9721 20.8125 23.7798 20.8125 22.5366Z" fill="black"/>
<path d="M44.25 10.0366H6.75C5.9212 10.0366 5.12634 10.3659 4.54029 10.9519C3.95424 11.538 3.625 12.3328 3.625 13.1616V38.1616C3.625 38.9904 3.95424 39.7853 4.54029 40.3713C5.12634 40.9574 5.9212 41.2866 6.75 41.2866H44.25C45.0788 41.2866 45.8737 40.9574 46.4597 40.3713C47.0458 39.7853 47.375 38.9904 47.375 38.1616V13.1616C47.375 12.3328 47.0458 11.538 46.4597 10.9519C45.8737 10.3659 45.0788 10.0366 44.25 10.0366ZM16.125 38.1616L18.4688 35.0366H32.5312L34.875 38.1616H16.125ZM44.25 38.1616H38.7812L34.5625 32.5366C34.417 32.3426 34.2282 32.1851 34.0113 32.0766C33.7943 31.9681 33.5551 31.9116 33.3125 31.9116H17.6875C17.4449 31.9116 17.2057 31.9681 16.9887 32.0766C16.7718 32.1851 16.583 32.3426 16.4375 32.5366L12.2188 38.1616H6.75V13.1616H44.25V38.1616ZM34.875 16.2866H16.125C14.4674 16.2866 12.8777 16.9451 11.7056 18.1172C10.5335 19.2893 9.875 20.879 9.875 22.5366C9.875 24.1942 10.5335 25.7839 11.7056 26.956C12.8777 28.1281 14.4674 28.7866 16.125 28.7866H34.875C36.5326 28.7866 38.1223 28.1281 39.2944 26.956C40.4665 25.7839 41.125 24.1942 41.125 22.5366C41.125 20.879 40.4665 19.2893 39.2944 18.1172C38.1223 16.9451 36.5326 16.2866 34.875 16.2866ZM29.4648 19.4116C28.9148 20.3612 28.6251 21.4392 28.6251 22.5366C28.6251 23.634 28.9148 24.712 29.4648 25.6616H21.5352C22.0852 24.712 22.3749 23.634 22.3749 22.5366C22.3749 21.4392 22.0852 20.3612 21.5352 19.4116H29.4648ZM13 22.5366C13 21.9186 13.1833 21.3144 13.5267 20.8005C13.87 20.2866 14.3581 19.886 14.9291 19.6495C15.5001 19.413 16.1285 19.3511 16.7347 19.4717C17.3408 19.5922 17.8977 19.8899 18.3347 20.3269C18.7717 20.764 19.0694 21.3208 19.19 21.927C19.3105 22.5332 19.2486 23.1615 19.0121 23.7325C18.7756 24.3035 18.3751 24.7916 17.8612 25.135C17.3473 25.4783 16.7431 25.6616 16.125 25.6616C15.2962 25.6616 14.5013 25.3324 13.9153 24.7463C13.3292 24.1603 13 23.3654 13 22.5366ZM34.875 25.6616C34.2569 25.6616 33.6527 25.4783 33.1388 25.135C32.6249 24.7916 32.2244 24.3035 31.9879 23.7325C31.7514 23.1615 31.6895 22.5332 31.81 21.927C31.9306 21.3208 32.2283 20.764 32.6653 20.3269C33.1023 19.8899 33.6592 19.5922 34.2653 19.4717C34.8715 19.3511 35.4999 19.413 36.0709 19.6495C36.6419 19.886 37.13 20.2866 37.4733 20.8005C37.8167 21.3144 38 21.9186 38 22.5366C38 23.3654 37.6708 24.1603 37.0847 24.7463C36.4987 25.3324 35.7038 25.6616 34.875 25.6616Z" fill="#2071F5"/>
</svg>
