<svg width="24" height="24" viewBox="0 0 24 24" fill="none" xmlns="http://www.w3.org/2000/svg">
<path opacity="0.2" d="M18.75 8.2501C18.75 9.50367 18.401 10.7325 17.742 11.7988C17.0829 12.8652 16.14 13.727 15.0188 14.2876L12 8.2501L8.98125 14.2876C7.90614 13.75 6.99407 12.9351 6.33931 11.9271C5.68455 10.919 5.31085 9.75444 5.25682 8.55363C5.2028 7.35283 5.47041 6.15937 6.032 5.09661C6.59359 4.03384 7.42879 3.14032 8.45128 2.50837C9.47378 1.87643 10.6465 1.52898 11.8482 1.50195C13.0499 1.47492 14.2371 1.76928 15.2869 2.3546C16.3368 2.93993 17.2113 3.79499 17.8202 4.83143C18.429 5.86787 18.75 7.04808 18.75 8.2501Z" fill="#EEA78E"/>
<path d="M12.6713 7.91435C12.6091 7.78955 12.5133 7.68456 12.3947 7.61117C12.2762 7.53778 12.1395 7.4989 12 7.4989C11.8606 7.4989 11.7239 7.53778 11.6053 7.61117C11.4868 7.68456 11.391 7.78955 11.3288 7.91435L4.57879 21.4144C4.48978 21.5923 4.47508 21.7982 4.53794 21.987C4.60079 22.1757 4.73605 22.3317 4.91395 22.4208C5.09185 22.5098 5.29783 22.5245 5.48656 22.4616C5.6753 22.3988 5.83134 22.2635 5.92035 22.0856L7.21879 19.5H16.7907L18.0835 22.0856C18.1455 22.2095 18.2406 22.3138 18.3582 22.3869C18.4759 22.4601 18.6115 22.4992 18.75 22.5C18.8779 22.4999 19.0036 22.4672 19.1152 22.4049C19.2268 22.3426 19.3206 22.2528 19.3878 22.144C19.455 22.0352 19.4932 21.9111 19.4989 21.7834C19.5046 21.6557 19.4776 21.5287 19.4204 21.4144L12.6713 7.91435ZM12 9.92717L14.5369 15H9.46317L12 9.92717ZM7.96879 18L8.71879 16.5H15.2907L16.0407 18H7.96879ZM14.9569 8.7881C15.0342 8.35626 15.0158 7.91273 14.903 7.48877C14.7902 7.06481 14.5859 6.67074 14.3043 6.33433C14.0227 5.99792 13.6708 5.72736 13.2733 5.54171C12.8758 5.35606 12.4425 5.25985 12.0038 5.25985C11.5651 5.25985 11.1317 5.35606 10.7343 5.54171C10.3368 5.72736 9.98485 5.99792 9.70327 6.33433C9.4217 6.67074 9.21733 7.06481 9.10458 7.48877C8.99182 7.91273 8.97342 8.35626 9.05067 8.7881C9.07068 8.88599 9.07093 8.98689 9.05141 9.08488C9.03188 9.18287 8.99298 9.27596 8.93697 9.35871C8.88097 9.44145 8.809 9.51217 8.72529 9.56671C8.64157 9.62125 8.54781 9.65852 8.44949 9.67632C8.35118 9.69412 8.2503 9.6921 8.15277 9.67037C8.05525 9.64865 7.96305 9.60765 7.88159 9.5498C7.80013 9.49195 7.73105 9.4184 7.67841 9.33348C7.62577 9.24856 7.59062 9.15398 7.57504 9.05529C7.45749 8.40692 7.48376 7.74065 7.652 7.10355C7.82024 6.46645 8.12635 5.87408 8.54869 5.36828C8.97102 4.86248 9.49929 4.45561 10.0962 4.17641C10.693 3.89721 11.3439 3.7525 12.0029 3.7525C12.6618 3.7525 13.3127 3.89721 13.9096 4.17641C14.5064 4.45561 15.0347 4.86248 15.457 5.36828C15.8794 5.87408 16.1855 6.46645 16.3537 7.10355C16.5219 7.74065 16.5482 8.40692 16.4307 9.05529C16.3995 9.22812 16.3087 9.38452 16.174 9.49725C16.0394 9.60998 15.8694 9.67188 15.6938 9.67216C15.6488 9.67179 15.604 9.66771 15.5597 9.65998C15.4625 9.64279 15.3696 9.60658 15.2864 9.55342C15.2032 9.50026 15.1314 9.4312 15.0749 9.35019C15.0185 9.26919 14.9786 9.17784 14.9575 9.08138C14.9365 8.98492 14.9347 8.88526 14.9522 8.7881H14.9569ZM6.0141 12.7697C5.17373 11.6564 4.66046 10.3309 4.53194 8.94199C4.40343 7.55309 4.66478 6.15588 5.28662 4.90734C5.90846 3.6588 6.86615 2.6084 8.05209 1.87417C9.23802 1.13994 10.6052 0.750977 12 0.750977C13.3949 0.750977 14.7621 1.13994 15.948 1.87417C17.1339 2.6084 18.0916 3.6588 18.7135 4.90734C19.3353 6.15588 19.5967 7.55309 19.4681 8.94199C19.3396 10.3309 18.8264 11.6564 17.986 12.7697C17.8648 12.9249 17.6874 13.0262 17.4922 13.0518C17.2969 13.0774 17.0994 13.0252 16.9424 12.9064C16.7853 12.7876 16.6813 12.6118 16.6527 12.4169C16.6241 12.2221 16.6734 12.0238 16.7897 11.865C17.4617 10.9743 17.872 9.91392 17.9746 8.80292C18.0772 7.69191 17.868 6.57431 17.3704 5.57566C16.8729 4.57701 16.1068 3.73687 15.1581 3.14962C14.2094 2.56237 13.1158 2.25127 12 2.25127C10.8843 2.25127 9.79068 2.56237 8.84201 3.14962C7.89333 3.73687 7.12719 4.57701 6.62965 5.57566C6.13211 6.57431 5.92287 7.69191 6.02546 8.80292C6.12804 9.91392 6.53837 10.9743 7.21036 11.865C7.32672 12.0238 7.37594 12.2221 7.34738 12.4169C7.31882 12.6118 7.21477 12.7876 7.05771 12.9064C6.90064 13.0252 6.70316 13.0774 6.5079 13.0518C6.31264 13.0262 6.13528 12.9249 6.0141 12.7697Z" fill="#EEA78E"/>
</svg>
