<svg width="50" height="51" viewBox="0 0 50 51" fill="none" xmlns="http://www.w3.org/2000/svg">
<path opacity="0.2" d="M37.5 15.7866V34.5366H20.3125C21.5486 34.5366 22.757 34.1701 23.7848 33.4833C24.8126 32.7965 25.6137 31.8204 26.0867 30.6784C26.5598 29.5364 26.6836 28.2797 26.4424 27.0673C26.2013 25.8549 25.606 24.7413 24.7319 23.8672C23.8578 22.9931 22.7442 22.3979 21.5318 22.1567C20.3194 21.9156 19.0628 22.0393 17.9207 22.5124C16.7787 22.9854 15.8026 23.7865 15.1158 24.8143C14.4291 25.8421 14.0625 27.0505 14.0625 28.2866H12.5V15.7866H37.5Z" fill="black"/>
<path d="M42.1875 7.97412H7.8125C6.9837 7.97412 6.18884 8.30336 5.60279 8.88941C5.01674 9.47546 4.6875 10.2703 4.6875 11.0991V39.2241C4.6875 40.0529 5.01674 40.8478 5.60279 41.4338C6.18884 42.0199 6.9837 42.3491 7.8125 42.3491H10.4277C10.7235 42.3492 11.0131 42.2654 11.2631 42.1074C11.5131 41.9494 11.7131 41.7237 11.8398 41.4565C12.5996 39.8524 13.7992 38.4969 15.2991 37.5477C16.799 36.5985 18.5375 36.0946 20.3125 36.0946C22.0875 36.0946 23.826 36.5985 25.3259 37.5477C26.8258 38.4969 28.0254 39.8524 28.7852 41.4565C28.9119 41.7237 29.1119 41.9494 29.3619 42.1074C29.6119 42.2654 29.9016 42.3492 30.1973 42.3491H42.1875C43.0163 42.3491 43.8112 42.0199 44.3972 41.4338C44.9833 40.8478 45.3125 40.0529 45.3125 39.2241V11.0991C45.3125 10.2703 44.9833 9.47546 44.3972 8.88941C43.8112 8.30336 43.0163 7.97412 42.1875 7.97412ZM15.625 28.2866C15.625 27.3595 15.8999 26.4532 16.415 25.6824C16.9301 24.9115 17.6621 24.3107 18.5187 23.9559C19.3752 23.6011 20.3177 23.5083 21.227 23.6892C22.1363 23.8701 22.9715 24.3165 23.6271 24.9721C24.2826 25.6276 24.7291 26.4628 24.9099 27.3721C25.0908 28.2814 24.998 29.2239 24.6432 30.0805C24.2884 30.937 23.6876 31.6691 22.9167 32.1841C22.1459 32.6992 21.2396 32.9741 20.3125 32.9741C19.0693 32.9741 17.877 32.4803 16.9979 31.6012C16.1189 30.7221 15.625 29.5298 15.625 28.2866ZM42.1875 39.2241H31.1387C29.8339 36.9808 27.867 35.1961 25.5078 34.1147C26.6906 33.0616 27.5254 31.6738 27.9015 30.1354C28.2776 28.597 28.1773 26.9806 27.6138 25.5005C27.0504 24.0204 26.0504 22.7465 24.7465 21.8477C23.4425 20.9489 21.8962 20.4675 20.3125 20.4675C18.7288 20.4675 17.1825 20.9489 15.8785 21.8477C14.5746 22.7465 13.5746 24.0204 13.0112 25.5005C12.4477 26.9806 12.3474 28.597 12.7235 30.1354C13.0996 31.6738 13.9344 33.0616 15.1172 34.1147C12.758 35.1961 10.7911 36.9808 9.48633 39.2241H7.8125V11.0991H42.1875V39.2241ZM10.9375 18.9116V15.7866C10.9375 15.3722 11.1021 14.9748 11.3951 14.6818C11.6882 14.3887 12.0856 14.2241 12.5 14.2241H37.5C37.9144 14.2241 38.3118 14.3887 38.6049 14.6818C38.8979 14.9748 39.0625 15.3722 39.0625 15.7866V34.5366C39.0625 34.951 38.8979 35.3485 38.6049 35.6415C38.3118 35.9345 37.9144 36.0991 37.5 36.0991H34.375C33.9606 36.0991 33.5632 35.9345 33.2701 35.6415C32.9771 35.3485 32.8125 34.951 32.8125 34.5366C32.8125 34.1222 32.9771 33.7248 33.2701 33.4318C33.5632 33.1387 33.9606 32.9741 34.375 32.9741H35.9375V17.3491H14.0625V18.9116C14.0625 19.326 13.8979 19.7234 13.6049 20.0165C13.3118 20.3095 12.9144 20.4741 12.5 20.4741C12.0856 20.4741 11.6882 20.3095 11.3951 20.0165C11.1021 19.7234 10.9375 19.326 10.9375 18.9116Z" fill="#A5CDA5"/>
</svg>
