<svg width="24" height="24" viewBox="0 0 24 24" fill="none" xmlns="http://www.w3.org/2000/svg">
<path opacity="0.2" d="M18 7.5V16.5H9.75C10.3433 16.5 10.9234 16.3241 11.4167 15.9944C11.9101 15.6648 12.2946 15.1962 12.5216 14.648C12.7487 14.0999 12.8081 13.4967 12.6924 12.9147C12.5766 12.3328 12.2909 11.7982 11.8713 11.3787C11.4518 10.9591 10.9172 10.6734 10.3353 10.5576C9.75333 10.4419 9.15013 10.5013 8.60195 10.7284C8.05377 10.9554 7.58524 11.3399 7.25559 11.8333C6.92595 12.3266 6.75 12.9067 6.75 13.5H6V7.5H18Z" fill="black"/>
<path d="M5.68313 19.8216L5.23141 19.6072C5.21113 19.6499 5.17913 19.686 5.13913 19.7113C5.09914 19.7366 5.05279 19.75 5.00548 19.75H5.00531H3.75C3.48478 19.75 3.23043 19.6446 3.04289 19.4571C2.85536 19.2696 2.75 19.0152 2.75 18.75V5.25C2.75 4.98478 2.85536 4.73043 3.04289 4.54289C3.23043 4.35536 3.48478 4.25 3.75 4.25H20.25C20.5152 4.25 20.7696 4.35536 20.9571 4.54289C21.1446 4.73043 21.25 4.98478 21.25 5.25V18.75C21.25 19.0152 21.1446 19.2696 20.9571 19.4571C20.7696 19.6446 20.5152 19.75 20.25 19.75H14.4947H14.4945C14.4472 19.75 14.4009 19.7366 14.3609 19.7113C14.3209 19.686 14.2889 19.6499 14.2686 19.6072C13.8633 18.7518 13.2236 18.029 12.4238 17.5228C11.6239 17.0166 10.6967 16.7478 9.75 16.7478C8.80334 16.7478 7.87613 17.0166 7.07619 17.5228C6.27626 18.0291 5.63648 18.752 5.23125 19.6075L5.68313 19.8216ZM5.68313 19.8216C6.04783 19.0516 6.62363 18.4009 7.34357 17.9453C8.06351 17.4897 8.898 17.2478 9.75 17.2478C10.602 17.2478 11.4365 17.4897 12.1564 17.9453C12.8764 18.4009 13.4522 19.0516 13.8169 19.8216C13.8777 19.9498 13.9737 20.0581 14.0937 20.134C14.2137 20.2098 14.3527 20.25 14.4947 20.25H20.25C20.6478 20.25 21.0294 20.092 21.3107 19.8107C21.592 19.5294 21.75 19.1478 21.75 18.75V5.25C21.75 4.85218 21.592 4.47064 21.3107 4.18934C21.0294 3.90804 20.6478 3.75 20.25 3.75H3.75C3.35218 3.75 2.97064 3.90804 2.68934 4.18934C2.40804 4.47064 2.25 4.85218 2.25 5.25V18.75C2.25 19.1478 2.40804 19.5294 2.68934 19.8107C2.97064 20.092 3.35218 20.25 3.75 20.25H5.00531C5.14726 20.25 5.2863 20.2098 5.40628 20.134C5.52627 20.0581 5.62227 19.9498 5.68313 19.8216ZM20.25 19.25H20.75V18.75V5.25V4.75H20.25H3.75H3.25V5.25V18.75V19.25H3.75H4.55344H4.84104L4.98564 19.0014C5.56008 18.0138 6.42598 17.2281 7.46459 16.752L8.16041 16.4331L7.58875 15.9241C7.09671 15.486 6.74944 14.9086 6.59298 14.2687C6.43652 13.6287 6.47825 12.9563 6.71265 12.3406C6.94704 11.7248 7.36303 11.1949 7.90547 10.821C8.44791 10.4471 9.09117 10.2468 9.75 10.2468C10.4088 10.2468 11.0521 10.4471 11.5945 10.821C12.137 11.1949 12.553 11.7248 12.7874 12.3406C13.0217 12.9563 13.0635 13.6287 12.907 14.2687C12.7506 14.9086 12.4033 15.486 11.9113 15.9241L11.3396 16.4331L12.0354 16.752C13.074 17.2281 13.9399 18.0138 14.5144 19.0014L14.659 19.25H14.9466H20.25ZM17.25 16.25H17.75V15.75V8.25V7.75H17.25H6.75H6.25V8.25V9C6.25 9.0663 6.22366 9.12989 6.17678 9.17678C6.12989 9.22366 6.0663 9.25 6 9.25C5.9337 9.25 5.87011 9.22366 5.82322 9.17678C5.77634 9.12989 5.75 9.0663 5.75 9V7.5C5.75 7.4337 5.77634 7.37011 5.82322 7.32322C5.87011 7.27634 5.9337 7.25 6 7.25H18C18.0663 7.25 18.1299 7.27634 18.1768 7.32322C18.2237 7.37011 18.25 7.4337 18.25 7.5V16.5C18.25 16.5663 18.2237 16.6299 18.1768 16.6768C18.1299 16.7237 18.0663 16.75 18 16.75H16.5C16.4337 16.75 16.3701 16.7237 16.3232 16.6768C16.2763 16.6299 16.25 16.5663 16.25 16.5C16.25 16.4337 16.2763 16.3701 16.3232 16.3232C16.3701 16.2763 16.4337 16.25 16.5 16.25H17.25ZM7.46346 11.9722C7.16128 12.4244 7 12.9561 7 13.5C7 14.2293 7.28973 14.9288 7.80546 15.4445C8.32118 15.9603 9.02065 16.25 9.75 16.25C10.2939 16.25 10.8256 16.0887 11.2778 15.7865C11.7301 15.4844 12.0825 15.0549 12.2907 14.5524C12.4988 14.0499 12.5533 13.4969 12.4472 12.9635C12.3411 12.4301 12.0791 11.9401 11.6945 11.5555C11.3099 11.1709 10.8199 10.9089 10.2865 10.8028C9.75305 10.6967 9.20012 10.7512 8.69762 10.9593C8.19512 11.1675 7.76563 11.5199 7.46346 11.9722Z" stroke="black"/>
</svg>
