<svg width="100" height="101" viewBox="0 0 100 101" fill="none" xmlns="http://www.w3.org/2000/svg">
<path opacity="0.2" d="M75 31.9116V69.4116H40.625C43.0973 69.4116 45.514 68.6785 47.5696 67.305C49.6252 65.9315 51.2274 63.9792 52.1735 61.6952C53.1196 59.4111 53.3671 56.8978 52.8848 54.473C52.4025 52.0482 51.212 49.8209 49.4638 48.0728C47.7157 46.3246 45.4884 45.1341 43.0636 44.6518C40.6389 44.1695 38.1255 44.417 35.8415 45.3631C33.5574 46.3092 31.6051 47.9114 30.2316 49.967C28.8581 52.0226 28.125 54.4394 28.125 56.9116H25V31.9116H75Z" fill="black"/>
<path d="M84.375 16.2866H15.625C13.9674 16.2866 12.3777 16.9451 11.2056 18.1172C10.0335 19.2893 9.375 20.879 9.375 22.5366V78.7866C9.375 80.4442 10.0335 82.0339 11.2056 83.206C12.3777 84.3781 13.9674 85.0366 15.625 85.0366H20.8555C21.4469 85.0368 22.0262 84.8692 22.5262 84.5532C23.0261 84.2372 23.4261 83.7858 23.6797 83.2515C25.1993 80.0432 27.5985 77.3322 30.5982 75.4338C33.598 73.5354 37.075 72.5276 40.625 72.5276C44.175 72.5276 47.652 73.5354 50.6518 75.4338C53.6515 77.3322 56.0507 80.0432 57.5703 83.2515C57.8239 83.7858 58.2239 84.2372 58.7238 84.5532C59.2238 84.8692 59.8031 85.0368 60.3945 85.0366H84.375C86.0326 85.0366 87.6223 84.3781 88.7944 83.206C89.9665 82.0339 90.625 80.4442 90.625 78.7866V22.5366C90.625 20.879 89.9665 19.2893 88.7944 18.1172C87.6223 16.9451 86.0326 16.2866 84.375 16.2866ZM31.25 56.9116C31.25 55.0574 31.7998 53.2449 32.83 51.7032C33.8601 50.1614 35.3243 48.9598 37.0373 48.2502C38.7504 47.5407 40.6354 47.355 42.454 47.7168C44.2725 48.0785 45.943 48.9714 47.2541 50.2825C48.5652 51.5936 49.4581 53.2641 49.8199 55.0826C50.1816 56.9012 49.9959 58.7862 49.2864 60.4993C48.5768 62.2123 47.3752 63.6765 45.8335 64.7066C44.2918 65.7368 42.4792 66.2866 40.625 66.2866C38.1386 66.2866 35.754 65.2989 33.9959 63.5407C32.2377 61.7826 31.25 59.398 31.25 56.9116ZM84.375 78.7866H62.2773C59.6677 74.3 55.734 70.7306 51.0156 68.5679C53.3812 66.4615 55.0508 63.686 55.803 60.6092C56.5552 57.5324 56.3546 54.2996 55.2277 51.3394C54.1008 48.3792 52.1008 45.8314 49.4929 44.0338C46.8851 42.2361 43.7924 41.2734 40.625 41.2734C37.4576 41.2734 34.3649 42.2361 31.7571 44.0338C29.1492 45.8314 27.1492 48.3792 26.0223 51.3394C24.8954 54.2996 24.6948 57.5324 25.447 60.6092C26.1992 63.686 27.8688 66.4615 30.2344 68.5679C25.516 70.7306 21.5823 74.3 18.9727 78.7866H15.625V22.5366H84.375V78.7866ZM21.875 38.1616V31.9116C21.875 31.0828 22.2042 30.288 22.7903 29.7019C23.3763 29.1159 24.1712 28.7866 25 28.7866H75C75.8288 28.7866 76.6237 29.1159 77.2097 29.7019C77.7958 30.288 78.125 31.0828 78.125 31.9116V69.4116C78.125 70.2404 77.7958 71.0353 77.2097 71.6213C76.6237 72.2074 75.8288 72.5366 75 72.5366H68.75C67.9212 72.5366 67.1263 72.2074 66.5403 71.6213C65.9542 71.0353 65.625 70.2404 65.625 69.4116C65.625 68.5828 65.9542 67.788 66.5403 67.2019C67.1263 66.6159 67.9212 66.2866 68.75 66.2866H71.875V35.0366H28.125V38.1616C28.125 38.9904 27.7958 39.7853 27.2097 40.3713C26.6237 40.9574 25.8288 41.2866 25 41.2866C24.1712 41.2866 23.3763 40.9574 22.7903 40.3713C22.2042 39.7853 21.875 38.9904 21.875 38.1616Z" fill="#A5CDA5"/>
</svg>
