<svg width="32" height="33" viewBox="0 0 32 33" fill="none" xmlns="http://www.w3.org/2000/svg">
<path opacity="0.2" d="M28 12.6616V28.6616L23.0525 24.6616H11C10.7348 24.6616 10.4804 24.5563 10.2929 24.3687C10.1054 24.1812 10 23.9268 10 23.6616V18.6616H21C21.2652 18.6616 21.5196 18.5563 21.7071 18.3687C21.8946 18.1812 22 17.9268 22 17.6616V11.6616H27C27.2652 11.6616 27.5196 11.767 27.7071 11.9545C27.8946 12.1421 28 12.3964 28 12.6616Z" fill="black"/>
<path d="M27 10.6616H23V6.66162C23 6.13119 22.7893 5.62248 22.4142 5.24741C22.0391 4.87233 21.5304 4.66162 21 4.66162H5C4.46957 4.66162 3.96086 4.87233 3.58579 5.24741C3.21071 5.62248 3 6.13119 3 6.66162V22.6616C3.00059 22.8498 3.05423 23.0339 3.15478 23.1929C3.25532 23.3519 3.39868 23.4794 3.56839 23.5606C3.7381 23.6418 3.92728 23.6734 4.11418 23.652C4.30108 23.6305 4.47814 23.5567 4.625 23.4391L9 19.9116V23.6616C9 24.1921 9.21071 24.7008 9.58579 25.0758C9.96086 25.4509 10.4696 25.6616 11 25.6616H22.6987L27.375 29.4391C27.5519 29.5822 27.7724 29.6607 28 29.6616C28.2652 29.6616 28.5196 29.5563 28.7071 29.3687C28.8946 29.1812 29 28.9268 29 28.6616V12.6616C29 12.1312 28.7893 11.6225 28.4142 11.2474C28.0391 10.8723 27.5304 10.6616 27 10.6616ZM8.31875 17.8841L5 20.5679V6.66162H21V17.6616H8.9475C8.71863 17.6617 8.4967 17.7402 8.31875 17.8841ZM27 26.5679L23.6812 23.8841C23.5043 23.741 23.2838 23.6625 23.0562 23.6616H11V19.6616H21C21.5304 19.6616 22.0391 19.4509 22.4142 19.0758C22.7893 18.7008 23 18.1921 23 17.6616V12.6616H27V26.5679Z" fill="#2BC2EC"/>
</svg>
