<svg width="301" height="301" viewBox="0 0 301 301" fill="none" xmlns="http://www.w3.org/2000/svg">
<mask id="mask0_2573_67703" style="mask-type:luminance" maskUnits="userSpaceOnUse" x="0" y="0" width="301" height="301">
<path d="M300.5 0.830078H0.5V300.83H300.5V0.830078Z" fill="white"/>
</mask>
<g mask="url(#mask0_2573_67703)">
<path d="M8.94253 61.8467H4.25537V100.957H8.94253V61.8467Z" fill="#FFB4B4"/>
<path d="M16.9984 71.3145H12.3113V100.957H16.9984V71.3145Z" fill="#FFB4B4"/>
<path d="M25.0542 86.1318H20.3669V100.957H25.0542V86.1318Z" fill="#FFB4B4"/>
<path d="M33.1169 77.667H28.4297V100.957H33.1169V77.667Z" fill="#FFB4B4"/>
<path d="M41.1727 68.7812H36.4856V100.957H41.1727V68.7812Z" fill="#FFB4B4"/>
<path d="M49.2286 63.5537H44.5415V100.957H49.2286V63.5537Z" fill="#FFB4B4"/>
<path d="M1.53532 56.8701L1.59054 67.8919L1.61815 78.9137L1.65267 100.958L1.53532 100.82C5.84283 100.803 10.1503 100.795 14.4648 100.82L27.3941 100.852L40.3236 100.885L53.2531 100.966L40.3236 101.046L27.3941 101.079L14.4648 101.111C10.1572 101.127 5.84973 101.119 1.53532 101.111H1.41797V100.973L1.45248 78.9299L1.48009 67.9081L1.53532 56.8701Z" fill="#FFB4B4"/>
<path d="M0.5 59.0874C0.845153 58.966 1.19031 58.9336 1.53546 58.9336C1.88061 58.9417 2.22577 58.966 2.57091 59.0874C2.22577 59.2088 1.88061 59.2412 1.53546 59.2412C1.19031 59.233 0.845153 59.2088 0.5 59.0874Z" fill="#FFB4B4"/>
<path d="M0.5 62.4369C0.845153 62.3156 1.19031 62.2832 1.53546 62.2832C1.88061 62.2913 2.22577 62.3156 2.57091 62.4369C2.22577 62.5583 1.88061 62.5907 1.53546 62.5907C1.19031 62.5827 0.845153 62.5583 0.5 62.4369Z" fill="#FFB4B4"/>
<path d="M0.5 65.7875C0.845153 65.6662 1.19031 65.6338 1.53546 65.6338C1.88061 65.6419 2.22577 65.6662 2.57091 65.7875C2.22577 65.9089 1.88061 65.9413 1.53546 65.9413C1.19031 65.9332 0.845153 65.9089 0.5 65.7875Z" fill="#FFB4B4"/>
<path d="M0.5 69.1381C0.845153 69.0167 1.19031 68.9844 1.53546 68.9844C1.88061 68.9924 2.22577 69.0167 2.57091 69.1381C2.22577 69.2595 1.88061 69.2918 1.53546 69.2918C1.19031 69.2837 0.845153 69.2595 0.5 69.1381Z" fill="#FFB4B4"/>
<path d="M0.5 72.4878C0.845153 72.3664 1.19031 72.334 1.53546 72.334C1.88061 72.3421 2.22577 72.3664 2.57091 72.4878C2.22577 72.6092 1.88061 72.6416 1.53546 72.6416C1.19031 72.6334 0.845153 72.6092 0.5 72.4878Z" fill="#FFB4B4"/>
<path d="M0.5 75.8384C0.845153 75.7169 1.19031 75.6846 1.53546 75.6846C1.88061 75.6927 2.22577 75.7169 2.57091 75.8384C2.22577 75.9598 1.88061 75.9921 1.53546 75.9921C1.19031 75.984 0.845153 75.9598 0.5 75.8384Z" fill="#FFB4B4"/>
<path d="M0.5 79.1889C0.845153 79.0675 1.19031 79.0352 1.53546 79.0352C1.88061 79.0433 2.22577 79.0675 2.57091 79.1889C2.22577 79.3103 1.88061 79.3426 1.53546 79.3426C1.19031 79.3345 0.845153 79.3103 0.5 79.1889Z" fill="#FFB4B4"/>
<path d="M0.5 82.5385C0.845153 82.4171 1.19031 82.3848 1.53546 82.3848C1.88061 82.3929 2.22577 82.4171 2.57091 82.5385C2.22577 82.6599 1.88061 82.6922 1.53546 82.6922C1.19031 82.6841 0.845153 82.6599 0.5 82.5385Z" fill="#FFB4B4"/>
<path d="M0.5 85.8892C0.845153 85.7677 1.19031 85.7354 1.53546 85.7354C1.88061 85.7435 2.22577 85.7677 2.57091 85.8892C2.22577 86.0105 1.88061 86.0429 1.53546 86.0429C1.19031 86.0348 0.845153 86.0105 0.5 85.8892Z" fill="#FFB4B4"/>
<path d="M0.5 89.2387C0.845153 89.1173 1.19031 89.085 1.53546 89.085C1.88061 89.0931 2.22577 89.1173 2.57091 89.2387C2.22577 89.3602 1.88061 89.3925 1.53546 89.3925C1.19031 89.3844 0.845153 89.3602 0.5 89.2387Z" fill="#FFB4B4"/>
<path d="M0.5 92.5887C0.845153 92.4675 1.19031 92.4355 1.53546 92.4355C1.88061 92.4438 2.22577 92.4675 2.57091 92.5887C2.22577 92.71 1.88061 92.7428 1.53546 92.7428C1.19031 92.7346 0.845153 92.71 0.5 92.5887Z" fill="#FFB4B4"/>
<path d="M0.5 95.9402C0.845153 95.818 1.19031 95.7861 1.53546 95.7861C1.88061 95.7943 2.22577 95.818 2.57091 95.9402C2.22577 96.0615 1.88061 96.0934 1.53546 96.0934C1.19031 96.0852 0.845153 96.0615 0.5 95.9402Z" fill="#FFB4B4"/>
<path d="M267.041 75.6282C265.922 78.9622 265.295 82.4015 265.108 85.9621C265.067 85.9621 265.032 85.9702 264.998 85.9702C262.464 85.9702 259.931 85.9702 257.398 85.9702C257.363 85.9702 257.335 85.9621 257.301 85.9621V85.7112C257.322 85.4765 257.342 85.2419 257.363 85.0072C257.46 83.7852 257.632 82.5876 257.881 81.398C258.281 79.4397 258.867 77.5704 259.613 75.7577C259.655 75.6525 259.703 75.6201 259.8 75.6201C262.167 75.6201 264.535 75.6201 266.903 75.6201H267.041V75.6282Z" fill="#FFB4B4"/>
<path d="M266.806 98.7235H266.682C264.335 98.7235 261.981 98.7235 259.634 98.7235C259.544 98.7235 259.496 98.6915 259.461 98.594C258.626 96.5633 258.04 94.4432 257.681 92.2338C257.508 91.1735 257.384 90.0972 257.328 89.0128C257.328 88.9805 257.315 88.94 257.308 88.8996V88.6486C257.349 88.6486 257.384 88.6406 257.425 88.6406C259.944 88.6406 262.464 88.6406 264.984 88.6406C265.122 88.6406 265.115 88.6406 265.129 88.8025C265.177 89.5388 265.219 90.2752 265.281 91.0036C265.378 92.169 265.543 93.3262 265.764 94.4669C266.026 95.8675 266.364 97.2426 266.785 98.5858C266.778 98.6268 266.785 98.6669 266.806 98.7235Z" fill="#FFB4B4"/>
<path d="M296.979 101.386C296.952 101.434 296.938 101.475 296.917 101.507C296.317 102.608 295.619 103.619 294.881 104.599C293.984 105.797 292.982 106.856 291.898 107.819C290.836 108.767 289.704 109.592 288.502 110.288C287.35 110.96 286.156 111.51 284.913 111.923C283.932 112.255 282.939 112.497 281.924 112.667C281.827 112.683 281.73 112.708 281.627 112.723H281.454C281.406 112.683 281.358 112.651 281.289 112.602C281.358 112.545 281.42 112.489 281.482 112.441C283.684 110.676 285.569 108.54 287.143 106.007C288.026 104.583 288.792 103.086 289.455 101.507C289.496 101.411 289.538 101.378 289.635 101.378C292.037 101.378 294.446 101.378 296.848 101.378H296.979V101.386Z" fill="#FFB4B4"/>
<path d="M289.8 85.9619H279.722V75.636C279.764 75.636 279.798 75.6279 279.839 75.6279C282.421 75.6279 285.009 75.6279 287.591 75.6279C287.681 75.6279 287.715 75.6603 287.75 75.7493C288.475 77.6915 289.006 79.7146 289.352 81.8024C289.531 82.8867 289.662 83.9792 289.738 85.0798C289.759 85.363 289.78 85.6543 289.8 85.9619Z" fill="#FFB4B4"/>
<path d="M289.745 88.7129C289.738 88.9557 289.731 89.1985 289.717 89.4412C289.676 90.0157 289.641 90.5903 289.572 91.1649C289.476 91.9579 289.372 92.7511 289.241 93.528C288.944 95.2596 288.502 96.9347 287.937 98.5697C287.902 98.6745 287.861 98.7229 287.75 98.7229C285.106 98.7147 282.462 98.7147 279.812 98.7147H279.667V88.7129H289.745Z" fill="#FFB4B4"/>
<path d="M277.45 75.6927V86.0348H267.607C267.621 85.7758 267.628 85.5168 267.648 85.2578C267.697 84.6833 267.738 84.1006 267.814 83.5261C267.932 82.6521 268.063 81.7781 268.222 80.9041C268.546 79.1562 269.029 77.4568 269.643 75.8141C269.677 75.7169 269.726 75.6846 269.809 75.6846C272.308 75.6846 274.814 75.6846 277.312 75.6846H277.45V75.6927Z" fill="#FFB4B4"/>
<path d="M277.464 88.8503C277.464 92.0953 277.464 95.3324 277.464 98.5695V98.7145H277.333C274.759 98.7145 272.177 98.7145 269.602 98.7145C269.505 98.7145 269.464 98.6826 269.43 98.5777C268.836 96.8944 268.374 95.1546 268.09 93.3656C267.945 92.4519 267.828 91.5208 267.731 90.5902C267.669 89.9832 267.649 89.3683 267.614 88.7613C267.614 88.7451 267.614 88.729 267.621 88.6966C267.662 88.6966 267.697 88.6885 267.738 88.6885C270.941 88.6885 274.144 88.6885 277.347 88.6885C277.437 88.7047 277.464 88.7371 277.464 88.8503Z" fill="#FFB4B4"/>
<path d="M300.493 86.0347H292.237C292.057 82.4579 291.436 78.9944 290.311 75.6279H290.443C292.962 75.6279 295.488 75.6279 298.008 75.6279C298.098 75.6279 298.146 75.6603 298.188 75.7574C299.071 77.8129 299.706 79.9736 300.093 82.2313C300.3 83.429 300.424 84.6429 300.493 85.8648C300.493 85.9134 300.493 85.97 300.493 86.0347Z" fill="#FFB4B4"/>
<path d="M300.5 88.64C300.493 88.8746 300.486 89.0931 300.472 89.3197C300.417 90.1937 300.327 91.0677 300.203 91.9255C299.899 93.9328 299.388 95.875 298.685 97.7361C298.574 98.0352 298.45 98.3343 298.333 98.6343C298.305 98.699 298.271 98.7227 298.209 98.7227C295.681 98.7227 293.148 98.7227 290.622 98.7227C290.594 98.7227 290.574 98.7227 290.539 98.7154C290.629 98.4072 290.726 98.1081 290.808 97.8009C291.257 96.2626 291.595 94.685 291.83 93.0829C292.002 91.9174 292.126 90.752 292.182 89.5706C292.195 89.2954 292.209 89.0122 292.223 88.7371C292.223 88.6643 292.244 88.6238 292.313 88.6319C292.34 88.6319 292.361 88.6319 292.389 88.6319H300.5V88.64Z" fill="#FFB4B4"/>
<path d="M296.752 72.9974C296.745 73.0136 296.745 73.0216 296.738 73.0379H296.634C294.225 73.0379 291.816 73.0379 289.414 73.0379C289.331 73.0379 289.282 73.0136 289.241 72.9165C288.267 70.6668 287.088 68.579 285.651 66.6853C284.816 65.5847 283.891 64.6056 282.897 63.7154C282.407 63.2704 281.896 62.8576 281.392 62.4287C281.365 62.4045 281.344 62.3883 281.309 62.3559C281.344 62.3236 281.371 62.2992 281.406 62.275C281.392 62.2184 281.378 62.1698 281.358 62.0889C283.933 62.4368 286.37 63.2785 288.661 64.6622C291.961 66.6367 294.695 69.372 296.752 72.9974Z" fill="#FFB4B4"/>
<path d="M276.049 112.609C275.96 112.626 275.898 112.658 275.842 112.65C275.048 112.528 274.261 112.342 273.488 112.116C272.039 111.679 270.637 111.072 269.298 110.295C267.759 109.397 266.336 108.305 265.025 107.01C264.093 106.095 263.23 105.099 262.457 104C261.877 103.174 261.346 102.3 260.856 101.394C260.849 101.369 260.835 101.354 260.821 101.312H260.939C263.182 101.312 265.425 101.312 267.662 101.312C267.752 101.312 267.793 101.354 267.835 101.442C268.539 103.101 269.353 104.687 270.306 106.168C271.176 107.519 272.149 108.766 273.205 109.931C274.075 110.894 275 111.776 275.994 112.561C276.001 112.561 276.008 112.569 276.049 112.609Z" fill="#FFB4B4"/>
<path d="M275.96 62.3403C275.656 62.6073 275.29 62.8987 274.938 63.2143C273.757 64.2744 272.688 65.4801 271.68 66.7668C270.326 68.4986 269.188 70.4003 268.256 72.4882C268.201 72.6176 268.145 72.7552 268.083 72.8765C268.063 72.917 268.014 72.9494 267.98 72.9494C267.855 72.9575 267.738 72.9494 267.614 72.9494H261.035C264.701 66.8882 269.616 63.2386 275.877 62.1299C275.863 62.1623 275.849 62.1946 275.836 62.227C275.884 62.2756 275.932 62.3161 275.96 62.3403Z" fill="#FFB4B4"/>
<path d="M286.798 101.394C285.859 103.32 284.754 105.076 283.47 106.67C282.324 108.094 281.081 109.373 279.667 110.45V101.386H286.798V101.394Z" fill="#FFB4B4"/>
<path d="M277.45 101.394V110.279C274.558 107.94 272.301 104.978 270.609 101.394H277.45Z" fill="#FFB4B4"/>
<path d="M286.57 72.9577H279.722V64.4932C281.137 65.5774 282.414 66.8237 283.56 68.2641C284.706 69.6965 285.693 71.2664 286.57 72.9577Z" fill="#FFB4B4"/>
<path d="M277.451 64.752V73.0224H270.879C272.543 69.6883 274.676 66.8883 277.451 64.752Z" fill="#FFB4B4"/>
<path d="M300.148 276.1C300.107 273.971 298.622 272.264 296.8 272.264H277.616C279.087 271.034 280.419 269.521 281.572 267.764C284.284 263.622 285.783 258.37 285.783 252.964V106.557C285.783 100.463 283.939 94.7091 280.591 90.3639C278.935 88.2114 276.995 86.5201 274.828 85.3305C272.557 84.0843 270.147 83.4531 267.655 83.4531H177.543C177.97 78.4278 178.184 73.2648 178.184 68.0452C178.184 57.687 176.832 47.2398 174.153 36.9867C171.71 27.6077 168.175 18.6576 164.206 11.7871C162.391 8.6473 160.589 6.11439 158.857 4.26933C156.688 1.95491 154.715 0.830078 152.836 0.830078C150.959 0.830078 148.984 1.95491 146.81 4.26933C145.077 6.11439 143.276 8.6473 141.46 11.7871C137.491 18.6576 133.957 27.6077 131.513 36.9867C128.842 47.2317 127.482 57.687 127.482 68.0452C127.482 73.2648 127.696 78.4278 128.124 83.4531H40.9381C35.6779 83.4531 30.6871 86.3501 27.2424 91.4079C24.3776 95.6082 22.8037 100.981 22.8037 106.557V252.964C22.8037 259.057 24.6468 264.803 27.9948 269.149C28.9061 270.33 29.8932 271.366 30.9632 272.264H11.7865C9.93646 272.264 8.43848 274.02 8.43848 276.189V276.31C8.43848 280.818 9.14258 285.212 10.4749 289.015C13.0635 296.411 17.7024 300.83 22.8728 300.83H285.707C290.877 300.83 295.516 296.411 298.112 289.015C299.444 285.204 300.155 280.809 300.155 276.31C300.155 276.246 300.155 276.173 300.148 276.1Z" fill="#FF3D22"/>
<path d="M296.807 276.311C296.807 276.271 296.807 276.23 296.807 276.189H11.7866C11.7866 276.23 11.7866 276.271 11.7866 276.311C11.7866 280.446 12.4424 284.298 13.5745 287.527H295.012C296.144 284.298 296.807 280.446 296.807 276.311Z" fill="#262B73"/>
<path d="M13.5745 287.526C15.5487 293.175 18.9795 296.906 22.8797 296.906H285.714C289.614 296.906 293.038 293.175 295.019 287.526H13.5745Z" fill="#6D7BAB"/>
<path d="M38.5771 100.132V158.307V201.601V259.389H270.016V225.337V203.284V100.132H38.5771Z" fill="#94A5C1"/>
<path d="M112.661 286.547C112.661 289.218 114.504 291.378 116.782 291.378H191.812C194.089 291.378 195.939 289.218 195.939 286.547C195.939 283.877 194.096 281.716 191.812 281.716H116.782C114.504 281.708 112.661 283.877 112.661 286.547Z" fill="#DEF1F3"/>
<path d="M150.172 93.7141C150.172 96.384 152.016 98.5451 154.3 98.5451C156.571 98.5451 158.421 96.384 158.421 93.7141C158.421 91.0435 156.578 88.8828 154.3 88.8828C152.016 88.8828 150.172 91.0435 150.172 93.7141Z" fill="#BEBBBB"/>
<path d="M270.016 100.131V259.235L278.928 265.369C281.123 262.027 282.442 257.697 282.442 252.964V106.557C282.442 95.9636 275.822 87.3857 267.662 87.3857H40.938C36.527 87.3857 32.5646 89.8943 29.8586 93.8673L38.9638 100.139H270.016V100.131Z" fill="#262B73"/>
<path d="M270.016 259.235V259.389H38.5774V100.131H38.9639L29.8588 93.8604C27.5532 97.2424 26.1519 101.685 26.1519 106.557V252.964C26.1519 263.549 32.7719 272.135 40.9382 272.135H267.655C272.17 272.135 276.209 269.504 278.921 265.369L270.016 259.235Z" fill="#6D7BAB"/>
<path d="M218.609 221.039L225.484 224.479C225.484 224.479 231.808 218.458 239.512 219.745C245.848 220.805 249.41 224.471 251.612 230.92L269.788 242.792L269.94 259.293L180.477 255.853L158.111 234.788L171.675 218.458L218.609 221.039Z" fill="#CDCCCB"/>
<path d="M158.028 210.18C158.594 211.912 159.202 213.66 159.85 215.423H159.864C160.043 215.408 160.223 215.399 160.402 215.391C160.602 215.383 160.803 215.383 161.003 215.383C161.258 215.383 161.514 215.399 161.769 215.415C161.852 215.423 161.935 215.431 162.018 215.439C162.184 215.456 162.356 215.472 162.515 215.496C162.619 215.512 162.715 215.529 162.812 215.544C162.957 215.569 163.108 215.594 163.253 215.617C163.357 215.642 163.46 215.667 163.564 215.69C163.702 215.723 163.84 215.755 163.978 215.788C164.088 215.812 164.192 215.853 164.295 215.876C164.427 215.917 164.558 215.949 164.689 215.998C164.8 216.03 164.903 216.07 165.007 216.112C165.131 216.16 165.262 216.2 165.386 216.249C165.49 216.289 165.601 216.338 165.704 216.379C165.828 216.427 165.946 216.484 166.07 216.54C166.174 216.588 166.284 216.637 166.388 216.694C166.505 216.751 166.622 216.807 166.74 216.872C166.843 216.929 166.946 216.985 167.05 217.042C167.16 217.106 167.277 217.171 167.388 217.236C167.491 217.301 167.588 217.357 167.692 217.422C167.802 217.495 167.913 217.568 168.016 217.641C168.113 217.705 168.21 217.778 168.313 217.843C168.424 217.924 168.527 217.996 168.631 218.077C168.727 218.15 168.817 218.223 168.914 218.296C169.017 218.377 169.121 218.466 169.225 218.547C169.314 218.62 169.404 218.701 169.494 218.781C169.597 218.871 169.694 218.967 169.798 219.057C169.881 219.138 169.97 219.218 170.053 219.299C170.157 219.397 170.253 219.502 170.35 219.599C170.433 219.68 170.508 219.761 170.584 219.85C170.688 219.955 170.784 220.068 170.881 220.182C170.95 220.262 171.026 220.343 171.095 220.433C171.198 220.554 171.295 220.675 171.392 220.805C171.44 220.87 171.495 220.926 171.544 220.991C171.557 221.007 171.571 221.024 171.585 221.039C171.661 221.137 171.73 221.233 171.799 221.331C171.875 221.436 171.951 221.542 172.027 221.646C172.096 221.743 172.158 221.841 172.227 221.946C172.303 222.059 172.372 222.164 172.441 222.277C172.503 222.375 172.566 222.48 172.628 222.585C172.697 222.699 172.766 222.812 172.835 222.933C172.897 223.038 172.952 223.144 173.008 223.249C173.07 223.37 173.139 223.491 173.201 223.612C173.256 223.718 173.304 223.823 173.36 223.936C173.422 224.058 173.477 224.188 173.539 224.309C173.567 224.366 173.594 224.43 173.622 224.487H225.491C225.491 224.487 225.533 221.832 224.076 219.413C224.014 219.34 223.952 219.259 223.904 219.194C223.862 219.146 223.821 219.097 223.779 219.04C223.655 218.895 223.531 218.758 223.4 218.62C223.386 218.604 223.365 218.579 223.351 218.563C223.199 218.409 223.047 218.255 222.896 218.11C222.861 218.077 222.833 218.054 222.799 218.021C222.675 217.908 222.55 217.802 222.426 217.697C222.371 217.649 222.309 217.608 222.253 217.56C222.15 217.478 222.046 217.398 221.936 217.317C221.867 217.269 221.798 217.219 221.729 217.171C221.633 217.098 221.529 217.033 221.433 216.969C221.357 216.92 221.281 216.872 221.212 216.831C221.115 216.774 221.018 216.71 220.915 216.653C220.839 216.613 220.756 216.565 220.68 216.524C220.583 216.475 220.487 216.419 220.383 216.37C220.3 216.329 220.217 216.289 220.135 216.256C220.038 216.208 219.934 216.168 219.838 216.127C219.755 216.095 219.665 216.055 219.582 216.022C219.479 215.982 219.382 215.949 219.278 215.917C219.195 215.884 219.106 215.861 219.016 215.828C218.912 215.796 218.809 215.771 218.705 215.739C218.588 215.715 218.484 215.69 218.381 215.658C218.298 215.642 218.208 215.617 218.126 215.602C218.043 215.585 217.96 215.569 217.87 215.553C217.753 215.529 217.636 215.521 217.519 215.504C217.443 215.496 217.367 215.48 217.291 215.472C217.139 215.456 216.987 215.448 216.835 215.439C216.794 215.439 216.745 215.431 216.704 215.431C216.51 215.423 216.31 215.423 216.117 215.431C215.903 215.439 215.689 215.448 215.475 215.472C214.377 215.577 213.273 215.893 212.203 216.435C211.858 216.613 211.526 216.807 211.202 217.018C211.547 215.456 211.471 213.764 210.884 212.17C210.802 211.952 210.712 211.741 210.615 211.531C210.588 211.467 210.553 211.409 210.519 211.344C210.45 211.208 210.374 211.07 210.298 210.932C210.257 210.867 210.222 210.794 210.181 210.73C210.105 210.6 210.022 210.479 209.939 210.366C209.898 210.309 209.856 210.245 209.815 210.187C209.711 210.05 209.601 209.913 209.483 209.783C209.463 209.759 209.442 209.727 209.414 209.702C209.276 209.548 209.138 209.403 208.986 209.265C208.938 209.224 208.896 209.184 208.848 209.144C208.744 209.046 208.634 208.957 208.523 208.877C208.468 208.828 208.406 208.787 208.351 208.747C208.24 208.666 208.137 208.593 208.019 208.529C207.964 208.497 207.909 208.456 207.847 208.424C207.702 208.343 207.557 208.261 207.405 208.188C207.377 208.181 207.357 208.165 207.329 208.148C207.157 208.067 206.977 207.994 206.805 207.938C206.75 207.922 206.695 207.906 206.639 207.889C206.508 207.849 206.384 207.808 206.253 207.784C206.191 207.768 206.122 207.752 206.059 207.743C205.928 207.72 205.804 207.695 205.673 207.679C205.611 207.67 205.555 207.663 205.493 207.655C205.321 207.639 205.141 207.63 204.961 207.63C204.948 207.63 204.934 207.63 204.927 207.63C204.734 207.63 204.547 207.647 204.354 207.67C204.299 207.679 204.236 207.687 204.181 207.695C204.043 207.72 203.912 207.735 203.774 207.768C203.705 207.784 203.643 207.8 203.574 207.816C203.443 207.849 203.305 207.889 203.174 207.938C203.112 207.962 203.057 207.979 202.995 208.002C202.808 208.075 202.615 208.156 202.428 208.246C202.408 208.253 202.394 208.261 202.373 208.278C202.235 208.351 202.104 208.424 201.98 208.505C201.938 208.529 201.89 208.561 201.848 208.585C201.745 208.65 201.648 208.715 201.551 208.787C201.51 208.82 201.469 208.852 201.427 208.885C201.324 208.965 201.227 209.046 201.123 209.136C201.096 209.16 201.068 209.184 201.034 209.209C200.909 209.322 200.792 209.435 200.681 209.556C200.647 209.589 200.619 209.621 200.592 209.662C200.509 209.759 200.419 209.856 200.343 209.953C200.309 209.993 200.274 210.042 200.24 210.082C200.164 210.18 200.088 210.285 200.019 210.381C199.991 210.422 199.964 210.463 199.936 210.504C199.84 210.649 199.75 210.794 199.66 210.949C199.653 210.964 199.646 210.981 199.633 210.997C199.557 211.135 199.481 211.272 199.412 211.417C199.391 211.467 199.37 211.507 199.35 211.555C199.295 211.676 199.239 211.798 199.191 211.92C199.17 211.968 199.15 212.008 199.136 212.056C199.074 212.219 199.011 212.38 198.963 212.551V212.559C198.908 212.729 198.86 212.906 198.818 213.085C198.804 213.125 198.797 213.174 198.79 213.215C198.756 213.351 198.728 213.489 198.708 213.627C198.694 213.716 198.673 213.805 198.659 213.902C195.726 211.167 191.639 210.366 187.96 212.227C187.235 212.591 186.572 213.044 185.957 213.562L184.708 213.36C184.543 212.688 184.342 212.025 184.101 211.361C184.011 211.118 183.914 210.876 183.818 210.64C183.79 210.568 183.756 210.495 183.721 210.422C183.652 210.26 183.576 210.099 183.507 209.936C183.466 209.856 183.431 209.775 183.39 209.694C183.314 209.54 183.238 209.395 183.162 209.241C183.12 209.16 183.079 209.087 183.044 209.015C182.955 208.852 182.872 208.698 182.782 208.545C182.747 208.488 182.713 208.432 182.678 208.367C182.554 208.156 182.423 207.946 182.292 207.743C182.278 207.728 182.271 207.712 182.257 207.695C182.133 207.509 182.009 207.331 181.877 207.145C181.836 207.081 181.788 207.023 181.746 206.967C181.664 206.853 181.574 206.74 181.491 206.627C181.277 206.352 181.057 206.085 180.822 205.826C180.78 205.777 180.732 205.729 180.691 205.688C180.484 205.462 180.27 205.243 180.049 205.024C180 204.984 179.959 204.936 179.91 204.895C179.662 204.66 179.413 204.442 179.158 204.232C179.096 204.183 179.04 204.134 178.978 204.086C178.723 203.884 178.467 203.689 178.205 203.503C178.191 203.495 178.177 203.479 178.157 203.47C177.881 203.284 177.598 203.107 177.315 202.937C177.253 202.896 177.184 202.864 177.122 202.824C176.839 202.662 176.549 202.508 176.259 202.371C176.217 202.354 176.176 202.33 176.134 202.313C175.865 202.192 175.596 202.079 175.32 201.966C175.264 201.941 175.202 201.918 175.147 201.901C174.843 201.788 174.539 201.691 174.236 201.601C174.174 201.586 174.112 201.569 174.05 201.553C173.76 201.472 173.47 201.407 173.173 201.35C173.139 201.342 173.111 201.335 173.077 201.327C172.759 201.27 172.441 201.229 172.117 201.189C172.048 201.181 171.979 201.173 171.91 201.173C171.585 201.148 171.261 201.124 170.936 201.124C170.915 201.124 170.888 201.124 170.867 201.124C170.557 201.124 170.246 201.141 169.936 201.156C169.867 201.164 169.805 201.164 169.736 201.173C169.411 201.205 169.093 201.246 168.769 201.294C168.714 201.302 168.652 201.319 168.596 201.327C168.299 201.383 168.002 201.448 167.706 201.521C167.657 201.536 167.609 201.545 167.561 201.553C167.236 201.642 166.919 201.747 166.602 201.86C166.533 201.885 166.464 201.909 166.395 201.941C166.07 202.063 165.746 202.2 165.421 202.354C162.515 196.301 159.912 162.678 158.484 151.655L150.545 153.071C150.752 155.014 152.464 193.209 158.028 210.18Z" fill="#CDCCCB"/>
<path d="M173.539 224.301C173.484 224.171 173.422 224.05 173.36 223.929C173.304 223.823 173.256 223.718 173.201 223.605C173.139 223.483 173.077 223.362 173.008 223.24C172.952 223.135 172.89 223.03 172.835 222.925C172.766 222.812 172.697 222.691 172.628 222.577C172.566 222.472 172.503 222.375 172.441 222.269C172.372 222.156 172.296 222.051 172.227 221.937C172.158 221.841 172.096 221.736 172.027 221.638C171.951 221.533 171.875 221.428 171.799 221.323C171.73 221.225 171.654 221.129 171.585 221.031C171.523 220.951 171.461 220.87 171.392 220.788C171.295 220.667 171.198 220.538 171.095 220.416C171.026 220.335 170.95 220.254 170.881 220.166C170.784 220.053 170.687 219.947 170.584 219.834C170.508 219.753 170.425 219.672 170.35 219.583C170.253 219.478 170.15 219.38 170.053 219.284C169.97 219.203 169.881 219.122 169.798 219.04C169.694 218.944 169.597 218.854 169.494 218.766C169.404 218.685 169.314 218.612 169.225 218.531C169.121 218.442 169.017 218.361 168.914 218.28C168.817 218.207 168.727 218.134 168.631 218.061C168.527 217.981 168.417 217.9 168.313 217.827C168.216 217.754 168.12 217.689 168.016 217.624C167.906 217.551 167.802 217.478 167.692 217.406C167.588 217.342 167.491 217.277 167.388 217.22C167.277 217.156 167.16 217.091 167.05 217.026C166.946 216.969 166.843 216.912 166.739 216.856C166.622 216.791 166.505 216.734 166.387 216.678C166.284 216.629 166.181 216.573 166.07 216.524C165.953 216.467 165.828 216.419 165.704 216.362C165.6 216.314 165.49 216.273 165.386 216.233C165.262 216.184 165.138 216.135 165.007 216.095C164.903 216.055 164.793 216.022 164.689 215.982C164.558 215.941 164.427 215.901 164.295 215.861C164.192 215.828 164.081 215.796 163.978 215.771C163.84 215.739 163.702 215.707 163.564 215.674C163.46 215.65 163.356 215.625 163.253 215.602C163.108 215.569 162.956 215.553 162.812 215.529C162.715 215.512 162.612 215.496 162.515 215.48C162.349 215.456 162.184 215.439 162.018 215.423C161.935 215.415 161.852 215.408 161.769 215.399C161.514 215.383 161.265 215.366 161.003 215.366C160.803 215.366 160.602 215.366 160.402 215.375C160.223 215.383 160.043 215.391 159.863 215.408H159.85C159.201 213.643 158.594 211.895 158.028 210.163C152.463 193.194 152.36 153.662 152.153 151.696L159.318 151.421L145.374 151.955C145.374 151.955 141.888 189.981 137.891 202.921C137.098 205.502 136.221 208.075 135.254 210.527C131.306 206.441 125.28 206.384 121.276 210.625C120.33 211.628 119.577 212.785 119.012 214.04C115.291 211.968 110.721 212.591 107.47 216.022C107.311 216.192 107.159 216.362 107.014 216.54C106.738 215.642 106.317 214.792 105.737 214.048C103.362 210.964 99.296 210.722 96.6666 213.505C95.2859 214.962 94.5813 216.969 94.5541 218.984C90.8952 217.139 86.5053 217.818 83.3573 221.153C82.4394 222.124 81.7007 223.24 81.1479 224.454H173.615C173.587 224.422 173.56 224.357 173.539 224.301Z" fill="white"/>
<path d="M125.687 215.067C125.556 215.018 125.425 214.953 125.287 214.905C125.148 214.865 125.024 214.816 124.886 214.8L124.686 214.759L124.486 214.743C124.354 214.727 124.216 214.743 124.085 214.743C123.954 214.752 123.823 214.775 123.692 214.792C123.56 214.832 123.436 214.848 123.312 214.897C123.188 214.946 123.063 214.986 122.946 215.051C122.822 215.099 122.712 215.172 122.601 215.245C122.491 215.31 122.387 215.406 122.277 215.479C122.18 215.577 122.077 215.658 121.987 215.763C121.897 215.868 121.801 215.957 121.725 216.078C121.683 216.135 121.642 216.183 121.6 216.24L121.497 216.418C121.421 216.532 121.372 216.669 121.303 216.79L121.283 216.839C121.29 216.831 121.276 216.855 121.29 216.822V216.831L121.283 216.847L121.269 216.872L121.227 216.985C121.2 217.058 121.158 217.139 121.151 217.195C121.117 217.325 121.076 217.446 121.048 217.584C121.013 217.721 121 217.858 120.972 217.996L120.827 218.822L120.206 218.311C120.081 218.207 119.957 218.094 119.826 217.996L119.626 217.858L119.529 217.786L119.501 217.77C119.481 217.753 119.529 217.786 119.522 217.786H119.515L119.501 217.778L119.446 217.745L119.212 217.616L119.095 217.551L118.991 217.511C118.853 217.454 118.729 217.39 118.57 217.349L118.349 217.276C118.273 217.252 118.197 217.244 118.121 217.227C118.045 217.211 117.969 217.195 117.893 217.187L117.665 217.162C117.514 217.139 117.362 217.154 117.21 217.154C117.058 217.154 116.906 217.187 116.754 217.204C116.602 217.235 116.45 217.268 116.305 217.308C116.16 217.365 116.008 217.398 115.87 217.47C115.726 217.535 115.581 217.592 115.45 217.68L115.243 217.802C115.174 217.843 115.112 217.899 115.05 217.939C114.918 218.029 114.794 218.134 114.67 218.247C114.539 218.344 114.435 218.482 114.318 218.595C114.2 218.716 114.104 218.854 113.993 218.983C113.896 219.121 113.807 219.275 113.703 219.412L113.441 219.8L113.102 219.591C113.006 219.526 112.909 219.453 112.805 219.405C112.709 219.34 112.598 219.299 112.495 219.251C112.384 219.211 112.281 219.169 112.17 219.138C112.06 219.105 111.95 219.088 111.832 219.065C111.715 219.056 111.605 219.032 111.488 219.04C111.37 219.032 111.26 219.04 111.142 219.048C111.025 219.065 110.908 219.073 110.797 219.105C110.68 219.129 110.569 219.169 110.452 219.202C110.341 219.251 110.224 219.291 110.12 219.347C110.01 219.397 109.906 219.461 109.796 219.526C109.741 219.558 109.692 219.599 109.637 219.631L109.54 219.664L109.513 219.647C109.52 219.639 109.499 219.664 109.52 219.639L109.533 219.671L109.527 219.704L109.492 219.744L109.188 220.028C109.092 220.124 109.022 220.23 108.933 220.327C108.891 220.375 108.843 220.424 108.808 220.481L108.698 220.659C108.629 220.78 108.532 220.893 108.484 221.022L108.298 221.419C108.332 221.274 108.367 221.128 108.401 220.974C108.429 220.821 108.498 220.691 108.546 220.545L108.629 220.335C108.657 220.262 108.698 220.197 108.739 220.132C108.815 220.003 108.884 219.858 108.974 219.736L109.237 219.405L109.271 219.364L109.285 219.34L109.292 219.332L109.271 219.299L109.264 219.259L109.271 219.251L109.368 219.202C109.423 219.153 109.478 219.105 109.533 219.065C109.644 218.967 109.761 218.879 109.879 218.797C109.996 218.708 110.127 218.643 110.252 218.57C110.383 218.506 110.507 218.441 110.645 218.393C110.776 218.336 110.914 218.304 111.053 218.263C111.191 218.239 111.329 218.198 111.474 218.19C111.612 218.175 111.757 218.175 111.901 218.175C112.046 218.182 112.184 218.19 112.329 218.223C112.474 218.239 112.612 218.28 112.75 218.32C112.888 218.369 113.026 218.409 113.164 218.474C113.303 218.53 113.434 218.603 113.565 218.676L112.964 218.854C113.068 218.668 113.171 218.482 113.282 218.304C113.406 218.134 113.517 217.956 113.648 217.794C113.786 217.64 113.91 217.47 114.062 217.34C114.207 217.195 114.352 217.058 114.518 216.936C114.601 216.88 114.677 216.815 114.759 216.758L115.008 216.604C115.174 216.491 115.353 216.418 115.526 216.329C115.698 216.24 115.884 216.191 116.07 216.127C116.257 216.078 116.443 216.03 116.63 215.989C116.816 215.965 117.01 215.932 117.203 215.932C117.396 215.932 117.583 215.917 117.776 215.949L118.059 215.982C118.156 215.997 118.246 216.022 118.342 216.038C118.439 216.062 118.529 216.078 118.625 216.103L118.901 216.2C119.081 216.256 119.267 216.354 119.453 216.434L119.591 216.499L119.701 216.572L119.929 216.718L119.985 216.75L120.033 216.782L120.061 216.807L120.178 216.895L120.413 217.081C120.565 217.211 120.703 217.365 120.855 217.503L120.088 217.818C120.13 217.64 120.157 217.454 120.212 217.284C120.261 217.114 120.323 216.936 120.399 216.758C120.433 216.661 120.468 216.604 120.502 216.531L120.558 216.427L120.592 216.354L120.627 216.297C120.716 216.151 120.799 215.989 120.903 215.859L121.055 215.658C121.11 215.593 121.165 215.528 121.221 215.471C121.331 215.342 121.455 215.237 121.573 215.124C121.697 215.011 121.835 214.929 121.959 214.832C122.097 214.759 122.229 214.67 122.374 214.606C122.519 214.541 122.657 214.476 122.801 214.443C122.877 214.42 122.946 214.395 123.022 214.379L123.243 214.338C123.388 214.306 123.54 214.314 123.685 214.306C123.83 214.314 123.982 214.314 124.127 214.338C124.272 214.363 124.417 214.387 124.555 214.435L124.762 214.5L124.962 214.589C125.1 214.638 125.224 214.735 125.349 214.808C125.459 214.873 125.57 214.978 125.687 215.067Z" fill="#CDCCCB"/>
<path d="M159.609 222.512L159.45 222.132C159.388 222.011 159.326 221.897 159.264 221.776C159.195 221.663 159.119 221.549 159.05 221.444C158.974 221.339 158.891 221.242 158.815 221.137C158.732 221.039 158.642 220.951 158.56 220.862C158.47 220.772 158.373 220.7 158.283 220.619L157.993 220.408L157.69 220.231L157.372 220.093L157.047 219.988C156.937 219.963 156.826 219.939 156.716 219.923C156.605 219.915 156.495 219.899 156.385 219.89C156.274 219.89 156.164 219.89 156.054 219.899C155.943 219.915 155.833 219.923 155.729 219.939L155.405 220.012L155.094 220.125L154.79 220.231L154.645 219.866L154.494 219.486C154.438 219.364 154.376 219.243 154.321 219.122C154.19 218.887 154.059 218.66 153.907 218.45L153.851 218.37V218.353L153.858 218.337C153.865 218.345 153.838 218.328 153.858 218.361L153.838 218.345L153.803 218.305L153.672 218.142C153.582 218.038 153.492 217.916 153.409 217.843L153.154 217.584L152.864 217.349C152.774 217.269 152.664 217.204 152.567 217.139C152.464 217.066 152.367 217.002 152.257 216.953C152.147 216.897 152.043 216.839 151.94 216.791L151.608 216.662C151.498 216.621 151.38 216.597 151.27 216.565C151.159 216.524 151.042 216.508 150.925 216.492C150.697 216.444 150.462 216.444 150.227 216.427C149.992 216.444 149.758 216.444 149.53 216.492L149.357 216.516L149.185 216.565C149.074 216.597 148.957 216.621 148.847 216.67L148.516 216.799C148.405 216.848 148.302 216.912 148.198 216.962C148.088 217.01 147.991 217.083 147.887 217.148C147.791 217.22 147.68 217.277 147.591 217.357L147.301 217.593L147.28 217.608H147.273C147.259 217.616 147.287 217.593 147.28 217.601L147.273 217.608L147.238 217.649L147.162 217.722L147.017 217.867C146.941 217.965 146.859 218.046 146.776 218.142C146.7 218.248 146.61 218.337 146.541 218.45C146.465 218.556 146.389 218.66 146.327 218.782C146.258 218.896 146.196 219.009 146.134 219.13C146.009 219.364 145.899 219.615 145.802 219.874L145.526 220.586L145.16 219.988L145.133 219.947L145.147 219.915L145.167 219.89C145.195 219.931 145.174 219.899 145.181 219.907L145.174 219.899H145.14L145.071 219.826L144.947 219.664C144.905 219.607 144.864 219.567 144.829 219.527L144.712 219.397C144.643 219.308 144.54 219.235 144.457 219.146C144.374 219.057 144.27 219.001 144.18 218.919C144.091 218.846 143.987 218.79 143.884 218.725C143.787 218.66 143.676 218.62 143.573 218.564C143.469 218.515 143.359 218.483 143.248 218.442C143.138 218.41 143.027 218.385 142.91 218.353C142.8 218.328 142.682 218.32 142.565 218.305C142.447 218.297 142.33 218.297 142.213 218.288L141.86 218.32L141.509 218.385L141.164 218.491L140.826 218.637L140.494 218.823L140.177 219.041L140.453 218.75L140.757 218.491C140.86 218.418 140.978 218.345 141.081 218.272C141.191 218.207 141.309 218.151 141.426 218.094C141.543 218.046 141.667 217.997 141.791 217.956L142.171 217.867C142.302 217.852 142.427 217.835 142.558 217.819C142.689 217.819 142.82 217.811 142.945 217.819C143.076 217.835 143.207 217.843 143.331 217.867C143.462 217.9 143.594 217.925 143.718 217.965C143.842 218.013 143.973 218.046 144.098 218.102C144.222 218.167 144.346 218.215 144.464 218.288C144.581 218.361 144.705 218.426 144.816 218.515C144.926 218.604 145.036 218.685 145.147 218.79L145.305 218.952C145.36 219.009 145.416 219.057 145.45 219.114L145.581 219.268L145.643 219.341L145.657 219.356L145.664 219.364L145.685 219.389L145.692 219.397L145.719 219.437L145.078 219.55C145.167 219.243 145.271 218.944 145.402 218.66C145.464 218.514 145.533 218.378 145.609 218.24C145.678 218.102 145.761 217.965 145.844 217.835C145.92 217.697 146.016 217.584 146.106 217.455C146.196 217.325 146.306 217.212 146.403 217.083L146.534 216.912L146.596 216.824L146.631 216.783L146.638 216.775L146.672 216.767L146.7 216.759L147.038 216.459C147.149 216.354 147.273 216.281 147.39 216.192C147.508 216.104 147.632 216.022 147.756 215.958C147.881 215.885 148.012 215.812 148.136 215.747L148.529 215.577C148.66 215.521 148.798 215.488 148.936 215.448L149.143 215.391L149.35 215.359C149.627 215.302 149.91 215.286 150.193 215.278C150.476 215.294 150.752 215.302 151.035 215.359C151.173 215.383 151.311 215.408 151.449 215.456C151.588 215.496 151.726 215.529 151.857 215.586L152.25 215.755C152.381 215.82 152.505 215.893 152.629 215.966C152.76 216.031 152.878 216.12 152.995 216.2C153.113 216.29 153.237 216.363 153.347 216.467L153.679 216.767L153.996 217.115C154.114 217.236 154.183 217.349 154.266 217.463L154.39 217.633L154.424 217.673L154.438 217.697L154.452 217.722L154.459 217.73L154.466 217.746L154.528 217.843C154.694 218.102 154.839 218.385 154.97 218.669C155.032 218.814 155.094 218.96 155.15 219.105L155.294 219.559L154.839 219.3L155.225 219.195C155.357 219.17 155.488 219.154 155.619 219.138C155.75 219.13 155.881 219.13 156.012 219.13C156.143 219.138 156.274 219.154 156.405 219.17C156.536 219.195 156.661 219.227 156.792 219.251C156.916 219.291 157.04 219.332 157.165 219.381C157.289 219.437 157.406 219.494 157.524 219.55C157.641 219.615 157.752 219.688 157.862 219.761L158.18 220.012C158.276 220.109 158.38 220.198 158.477 220.295C158.566 220.4 158.656 220.506 158.746 220.611C158.829 220.724 158.905 220.837 158.981 220.958C159.05 221.08 159.119 221.202 159.188 221.323C159.243 221.452 159.305 221.582 159.36 221.711C159.402 221.849 159.45 221.979 159.491 222.116L159.609 222.512Z" fill="#CDCCCB"/>
<path d="M87.3472 223.62L81.148 224.487C81.148 224.487 60.1699 209.669 38.5841 233.599L38.5771 259.397H270.009C270.009 259.397 264.445 241.254 245.745 241.254C227.044 241.254 225.581 248.133 225.581 248.133C225.581 248.133 218.616 225.782 199.915 235.671C199.915 235.671 192.584 216.759 173.539 224.317C173.539 224.301 94.6782 218.458 87.3472 223.62Z" fill="white"/>
<path d="M86.0907 234.149C85.9047 234.093 85.7248 234.003 85.5457 233.955C85.3597 233.915 85.1868 233.858 85 233.834L84.724 233.794L84.4481 233.785C84.269 233.769 84.0822 233.801 83.9031 233.809C83.7233 233.826 83.5442 233.866 83.3713 233.899C83.1984 233.955 83.0264 233.988 82.8605 234.068C82.6946 234.141 82.5287 234.206 82.3705 234.295C82.2046 234.368 82.0597 234.481 81.9077 234.578C81.7558 234.675 81.6248 234.805 81.4798 234.918C81.3558 235.056 81.2109 235.169 81.1 235.323C80.9829 235.469 80.8581 235.606 80.762 235.76C80.7132 235.841 80.6512 235.914 80.6031 235.994L80.4651 236.246C80.3682 236.407 80.3062 236.593 80.2233 236.764L80.1961 236.828V236.836C80.2031 236.828 80.1822 236.86 80.2031 236.812V236.82L80.1961 236.836L80.1822 236.877L80.1271 237.03C80.0922 237.127 80.0442 237.249 80.0302 237.33C79.9884 237.499 79.9403 237.67 79.9062 237.864C79.8643 238.05 79.8504 238.244 79.8233 238.43L79.6574 239.563L78.7946 238.907C78.6147 238.77 78.4426 238.625 78.2628 238.503L77.9868 238.325L77.8488 238.236L77.8143 238.212H77.8074C77.7798 238.195 77.8419 238.228 77.835 238.228L77.8281 238.22L77.8074 238.212L77.7245 238.171L77.4001 238.009L77.2413 237.928L77.0964 237.88C76.9099 237.815 76.7305 237.727 76.5165 237.685L76.2127 237.604C76.1092 237.581 76.0057 237.572 75.9021 237.556C75.7986 237.54 75.695 237.516 75.5915 237.516L75.2809 237.499C75.0737 237.476 74.8667 237.508 74.6595 237.516C74.4525 237.524 74.2453 237.581 74.0383 237.613C73.8381 237.662 73.631 237.718 73.4308 237.783C73.2375 237.871 73.0305 237.928 72.844 238.034C72.6508 238.13 72.4575 238.22 72.278 238.341L72.0019 238.519C71.9122 238.584 71.8293 238.657 71.7395 238.721C71.5601 238.851 71.4013 239.005 71.2357 239.158C71.063 239.304 70.925 239.49 70.7731 239.661C70.6212 239.83 70.497 240.033 70.352 240.21C70.2209 240.405 70.1105 240.615 69.9793 240.818L69.641 241.368L69.1716 241.1C69.0336 241.02 68.9024 240.931 68.7643 240.866C68.6263 240.785 68.4813 240.737 68.3364 240.672C68.1845 240.623 68.0395 240.567 67.8877 240.542C67.7358 240.502 67.5839 240.486 67.4251 240.461C67.2664 240.453 67.1145 240.437 66.9557 240.446C66.797 240.446 66.6451 240.461 66.4864 240.478C66.3275 240.509 66.1688 240.526 66.0169 240.575C65.8581 240.607 65.7132 240.672 65.5544 240.728C65.4095 240.801 65.2507 240.858 65.1126 240.947C64.9608 241.02 64.8227 241.117 64.6777 241.214C64.6087 241.263 64.5397 241.319 64.4706 241.376L64.3395 241.424L64.2981 241.4C64.305 241.392 64.2843 241.416 64.3119 241.384L64.3326 241.424L64.3188 241.465L64.2774 241.522L63.8839 241.927C63.7527 242.056 63.6629 242.209 63.5456 242.347C63.4904 242.42 63.4283 242.485 63.3799 242.566L63.235 242.816C63.1453 242.986 63.021 243.14 62.9588 243.326L62.7173 243.876C62.7518 243.674 62.7932 243.472 62.8346 243.27C62.8691 243.059 62.9519 242.873 63.0141 242.679L63.1176 242.387C63.1591 242.29 63.2074 242.201 63.2557 242.104C63.3523 241.926 63.4421 241.716 63.5526 241.554L63.8908 241.085L63.9322 241.027L63.9529 240.996L63.9598 240.987L63.9322 240.947L63.9184 240.891L63.9322 240.874L64.0633 240.801C64.1324 240.728 64.2152 240.664 64.2843 240.599C64.4292 240.461 64.5811 240.332 64.7398 240.21C64.8917 240.081 65.0643 239.984 65.23 239.878C65.4026 239.79 65.5751 239.684 65.7546 239.611C65.9341 239.523 66.1205 239.475 66.2999 239.41C66.4864 239.361 66.6727 239.304 66.866 239.288C67.0593 239.256 67.2526 239.247 67.4458 239.239C67.6391 239.247 67.8324 239.247 68.0257 239.272C68.219 239.288 68.4122 239.337 68.6056 239.377C68.7919 239.433 68.9853 239.482 69.1716 239.563C69.358 239.628 69.5374 239.725 69.7239 239.814L68.9093 240.089C69.0405 239.838 69.1716 239.571 69.3166 239.32C69.4753 239.086 69.6134 238.827 69.7929 238.608C69.9724 238.389 70.1381 238.155 70.3313 237.961C70.5246 237.758 70.7179 237.556 70.9319 237.386C71.0354 237.297 71.139 237.209 71.2495 237.127L71.5877 236.9C71.8086 236.739 72.0433 236.618 72.278 236.488C72.5127 236.359 72.7612 236.278 73.0097 236.173C73.2582 236.092 73.5136 236.019 73.7622 235.954C74.0176 235.914 74.273 235.849 74.5353 235.841C74.7976 235.833 75.053 235.8 75.3153 235.824L75.7019 235.849C75.8331 235.857 75.9574 235.889 76.0885 235.906C76.2196 235.929 76.3439 235.946 76.475 235.978L76.8547 236.092C77.1033 236.156 77.3587 236.269 77.614 236.382L77.8074 236.464L77.9661 236.553L78.2837 236.731L78.3597 236.779L78.4287 236.82L78.4698 236.852L78.6357 236.973L78.9674 237.209C79.1814 237.378 79.3814 237.572 79.5814 237.75L78.5527 238.236C78.6016 237.993 78.6287 237.742 78.6977 237.499C78.7527 237.265 78.8357 237.014 78.9256 236.771C78.9674 236.641 79.0155 236.561 79.0566 236.455L79.1256 236.31L79.1744 236.213L79.2155 236.132C79.3326 235.922 79.4364 235.711 79.5744 235.517L79.7744 235.225C79.8434 235.129 79.9194 235.047 79.9884 234.958C80.1333 234.772 80.2922 234.619 80.4512 234.465C80.6101 234.303 80.7961 234.189 80.962 234.053C81.1481 233.939 81.3209 233.817 81.514 233.721C81.7078 233.631 81.8938 233.535 82.0938 233.47C82.1907 233.437 82.2876 233.397 82.3907 233.372L82.6946 233.308C82.8946 233.259 83.1023 233.259 83.2953 233.235C83.4953 233.235 83.6953 233.227 83.8961 233.251C84.0961 233.276 84.2891 233.299 84.4829 233.356L84.7729 233.437L85.0488 233.55C85.2349 233.615 85.4147 233.729 85.5868 233.817C85.7667 233.907 85.9256 234.028 86.0907 234.149Z" fill="#CDCCCB"/>
<path d="M146.873 250.253L146.596 249.614C146.493 249.412 146.382 249.209 146.279 249.015C146.161 248.821 146.037 248.643 145.92 248.457C145.788 248.278 145.65 248.108 145.519 247.939C145.381 247.777 145.229 247.631 145.084 247.477C144.932 247.332 144.774 247.202 144.622 247.064L144.132 246.709L143.614 246.409L143.083 246.174L142.537 245.997C142.351 245.956 142.164 245.915 141.978 245.883C141.792 245.867 141.605 245.842 141.419 245.834C141.232 245.842 141.046 245.834 140.86 245.851C140.674 245.875 140.487 245.891 140.308 245.915L139.769 246.045L139.245 246.231L138.727 246.417L138.478 245.794L138.223 245.155C138.126 244.944 138.022 244.75 137.926 244.539C137.712 244.143 137.484 243.763 137.229 243.407L137.139 243.269L137.146 243.236L137.153 243.213C137.16 243.229 137.112 243.196 137.16 243.253L137.125 243.229L137.063 243.164L136.836 242.889C136.684 242.711 136.532 242.509 136.387 242.379L135.959 241.95L135.475 241.553C135.317 241.408 135.137 241.311 134.971 241.198C134.799 241.084 134.633 240.963 134.447 240.882C134.267 240.793 134.088 240.688 133.908 240.607L133.35 240.389C133.163 240.316 132.97 240.275 132.777 240.218C132.59 240.153 132.39 240.122 132.197 240.089C131.81 240 131.416 240 131.023 239.976C130.629 240 130.236 240 129.85 240.08L129.56 240.13L129.277 240.21C129.09 240.267 128.89 240.299 128.711 240.381L128.151 240.598C127.965 240.68 127.792 240.784 127.613 240.874C127.426 240.955 127.261 241.076 127.088 241.198C126.922 241.319 126.736 241.408 126.584 241.553L126.101 241.958L126.074 241.983L126.067 241.991H126.06C126.039 242.006 126.081 241.966 126.074 241.974L126.06 241.991L125.998 242.056L125.874 242.177L125.625 242.419C125.494 242.582 125.356 242.719 125.218 242.889C125.087 243.059 124.942 243.221 124.824 243.407C124.7 243.585 124.569 243.763 124.458 243.957C124.341 244.143 124.23 244.345 124.127 244.539C123.913 244.936 123.74 245.357 123.574 245.786L123.112 246.991L122.498 245.988L122.457 245.915L122.484 245.859L122.519 245.811C122.567 245.875 122.532 245.826 122.539 245.843L122.532 245.834L122.47 245.843L122.353 245.721L122.146 245.454C122.077 245.349 122.008 245.293 121.946 245.22L121.752 245.001C121.635 244.847 121.462 244.726 121.324 244.588C121.179 244.443 121.014 244.337 120.862 244.208C120.71 244.078 120.53 243.99 120.365 243.884C120.199 243.779 120.012 243.706 119.84 243.618C119.66 243.536 119.474 243.48 119.294 243.407C119.108 243.35 118.915 243.318 118.729 243.261C118.536 243.221 118.342 243.205 118.149 243.172C117.956 243.164 117.755 243.156 117.562 243.148L116.968 243.196L116.381 243.309L115.801 243.488L115.236 243.739L114.684 244.046L114.152 244.418L114.615 243.925L115.126 243.488C115.305 243.359 115.491 243.245 115.677 243.115C115.87 243.01 116.064 242.913 116.264 242.808C116.464 242.727 116.671 242.646 116.879 242.574L117.514 242.419C117.728 242.395 117.949 242.363 118.163 242.338C118.377 242.338 118.598 242.323 118.819 242.338C119.039 242.363 119.26 242.379 119.474 242.419C119.688 242.476 119.909 242.509 120.123 242.582C120.33 242.662 120.551 242.718 120.758 242.816C120.965 242.921 121.179 243.002 121.373 243.123C121.566 243.253 121.78 243.359 121.96 243.504C122.146 243.658 122.339 243.787 122.512 243.965L122.781 244.232C122.87 244.322 122.96 244.41 123.029 244.499L123.243 244.758L123.353 244.888L123.381 244.92L123.388 244.928L123.416 244.969L123.429 244.984L123.485 245.057L122.408 245.252C122.567 244.742 122.739 244.232 122.96 243.747C123.063 243.504 123.181 243.261 123.312 243.035C123.429 242.8 123.567 242.574 123.712 242.355C123.844 242.129 124.002 241.926 124.154 241.707C124.306 241.497 124.486 241.294 124.658 241.084L124.879 240.801L124.983 240.648L125.045 240.583L125.059 240.567L125.114 240.558L125.156 240.542L125.722 240.04C125.901 239.863 126.115 239.741 126.315 239.595C126.515 239.45 126.715 239.304 126.936 239.199C127.15 239.086 127.364 238.956 127.578 238.85L128.248 238.568C128.469 238.47 128.704 238.422 128.932 238.349L129.277 238.252L129.629 238.187C130.098 238.09 130.567 238.074 131.044 238.05C131.52 238.074 131.989 238.09 132.459 238.196C132.694 238.236 132.929 238.276 133.156 238.357C133.384 238.43 133.619 238.478 133.839 238.576L134.509 238.859C134.73 238.964 134.937 239.094 135.151 239.207C135.365 239.32 135.572 239.466 135.772 239.612C135.973 239.757 136.18 239.886 136.366 240.065L136.926 240.567L137.463 241.149C137.657 241.352 137.774 241.538 137.926 241.732L138.14 242.023L138.195 242.096L138.223 242.129L138.25 242.169L138.257 242.177L138.264 242.185L138.278 242.209L138.381 242.379C138.665 242.816 138.906 243.286 139.127 243.771C139.224 244.022 139.334 244.264 139.424 244.516L139.673 245.276L138.906 244.839L139.562 244.669C139.783 244.629 140.004 244.604 140.225 244.572C140.446 244.556 140.667 244.556 140.888 244.556C141.108 244.564 141.329 244.596 141.55 244.621C141.771 244.661 141.985 244.717 142.199 244.758C142.413 244.823 142.62 244.904 142.827 244.969C143.034 245.057 143.235 245.155 143.435 245.252C143.628 245.365 143.822 245.487 144.008 245.608L144.546 246.029C144.712 246.191 144.884 246.344 145.043 246.506C145.195 246.684 145.347 246.854 145.492 247.032C145.63 247.227 145.761 247.413 145.892 247.615C146.009 247.825 146.127 248.027 146.237 248.238C146.334 248.457 146.438 248.667 146.527 248.894C146.603 249.12 146.679 249.347 146.748 249.573L146.873 250.253Z" fill="#CDCCCB"/>
<path d="M207.868 250.398L207.592 249.759C207.488 249.556 207.378 249.355 207.274 249.161C207.157 248.967 207.033 248.788 206.916 248.602C206.785 248.424 206.646 248.254 206.515 248.084C206.377 247.922 206.225 247.777 206.08 247.622C205.928 247.477 205.769 247.348 205.618 247.21L205.127 246.854L204.609 246.555L204.078 246.32L203.533 246.142C203.347 246.101 203.16 246.061 202.974 246.029C202.788 246.012 202.601 245.988 202.415 245.98C202.228 245.988 202.042 245.98 201.855 245.997C201.669 246.029 201.483 246.037 201.303 246.061L200.764 246.191L200.24 246.377L199.723 246.563L199.474 245.939L199.219 245.3C199.122 245.09 199.018 244.896 198.922 244.685C198.708 244.289 198.48 243.908 198.224 243.552L198.135 243.415L198.142 243.382L198.148 243.358C198.155 243.374 198.107 243.342 198.155 243.399L198.121 243.374L198.059 243.309L197.831 243.035C197.679 242.856 197.527 242.654 197.382 242.524L196.954 242.096L196.471 241.699C196.312 241.553 196.133 241.456 195.967 241.343C195.795 241.229 195.629 241.108 195.443 241.028C195.263 240.939 195.084 240.834 194.904 240.753L194.345 240.534C194.158 240.461 193.965 240.421 193.772 240.364C193.585 240.299 193.385 240.267 193.192 240.235C192.805 240.145 192.412 240.145 192.019 240.122C191.625 240.145 191.232 240.145 190.845 240.226L190.555 240.275L190.272 240.356C190.085 240.412 189.885 240.445 189.706 240.525L189.147 240.744C188.96 240.825 188.788 240.93 188.609 241.02C188.422 241.1 188.257 241.222 188.084 241.343C187.918 241.465 187.732 241.553 187.58 241.699L187.097 242.096L187.069 242.12L187.062 242.129H187.055C187.034 242.144 187.076 242.104 187.069 242.112L187.055 242.129L186.993 242.193L186.869 242.315L186.62 242.557C186.489 242.718 186.351 242.856 186.213 243.027C186.082 243.196 185.937 243.358 185.819 243.545C185.695 243.722 185.564 243.9 185.46 244.094C185.343 244.281 185.233 244.483 185.129 244.677C184.916 245.074 184.743 245.494 184.577 245.924L184.115 247.129L183.5 246.126L183.459 246.053L183.486 245.997L183.521 245.947C183.569 246.012 183.535 245.964 183.542 245.98L183.535 245.972L183.473 245.98L183.355 245.859L183.148 245.592C183.079 245.487 183.01 245.429 182.948 245.357L182.754 245.139C182.63 244.984 182.464 244.863 182.326 244.725C182.181 244.58 182.016 244.475 181.864 244.345C181.712 244.216 181.533 244.127 181.367 244.022C181.202 243.917 181.015 243.844 180.843 243.754C180.663 243.674 180.477 243.617 180.297 243.545C180.111 243.487 179.917 243.455 179.731 243.399C179.538 243.358 179.344 243.342 179.151 243.309C178.958 243.293 178.757 243.294 178.564 243.286L177.971 243.334L177.384 243.447L176.804 243.625L176.238 243.876L175.686 244.184L175.154 244.556L175.617 244.063L176.128 243.625C176.307 243.495 176.494 243.382 176.68 243.253C176.873 243.148 177.067 243.05 177.267 242.946C177.467 242.864 177.674 242.783 177.881 242.711L178.516 242.557C178.73 242.532 178.951 242.501 179.165 242.476C179.379 242.476 179.6 242.46 179.821 242.476C180.042 242.501 180.263 242.517 180.477 242.557C180.691 242.614 180.912 242.646 181.126 242.718C181.333 242.8 181.554 242.856 181.761 242.954C181.967 243.059 182.181 243.14 182.375 243.261C182.568 243.391 182.782 243.495 182.962 243.641C183.148 243.795 183.341 243.925 183.514 244.103L183.783 244.37C183.873 244.458 183.963 244.548 184.032 244.637L184.246 244.896L184.356 245.025L184.384 245.057L184.391 245.066L184.419 245.106L184.432 245.122L184.488 245.195L183.41 245.389C183.569 244.88 183.742 244.37 183.963 243.884C184.066 243.641 184.184 243.399 184.315 243.172C184.432 242.937 184.57 242.711 184.715 242.492C184.847 242.265 185.005 242.064 185.157 241.845C185.309 241.634 185.488 241.432 185.66 241.222L185.881 240.939L185.985 240.784L186.047 240.72L186.061 240.704L186.116 240.696L186.158 240.68L186.724 240.186C186.903 240.008 187.117 239.886 187.318 239.733C187.518 239.587 187.718 239.441 187.939 239.336C188.153 239.223 188.367 239.094 188.581 238.988L189.25 238.705C189.471 238.608 189.706 238.56 189.934 238.487L190.279 238.39L190.631 238.324C191.1 238.228 191.57 238.211 192.046 238.188C192.516 238.211 192.992 238.228 193.461 238.332C193.696 238.374 193.931 238.414 194.158 238.495C194.386 238.568 194.621 238.616 194.842 238.713L195.512 238.996C195.733 239.101 195.94 239.231 196.154 239.345C196.367 239.458 196.574 239.604 196.774 239.749C196.975 239.894 197.182 240.024 197.368 240.202L197.927 240.704L198.466 241.287C198.659 241.488 198.777 241.675 198.929 241.87L199.143 242.16L199.198 242.233L199.226 242.265L199.253 242.306L199.26 242.315L199.267 242.323L199.281 242.346L199.384 242.517C199.667 242.954 199.909 243.422 200.129 243.908C200.226 244.159 200.336 244.402 200.426 244.653L200.675 245.414L199.909 244.976L200.564 244.807C200.785 244.767 201.006 244.742 201.227 244.71C201.448 244.694 201.669 244.694 201.89 244.694C202.111 244.702 202.332 244.734 202.553 244.758C202.774 244.798 202.988 244.855 203.202 244.896C203.416 244.961 203.623 245.034 203.829 245.106C204.036 245.195 204.237 245.293 204.437 245.389C204.63 245.502 204.824 245.624 205.01 245.745L205.549 246.166C205.714 246.328 205.887 246.482 206.046 246.644C206.198 246.822 206.35 246.991 206.495 247.169C206.633 247.363 206.764 247.55 206.895 247.752C207.012 247.963 207.129 248.165 207.24 248.367C207.336 248.585 207.44 248.796 207.529 249.023C207.605 249.249 207.681 249.476 207.75 249.702L207.868 250.398Z" fill="#CDCCCB"/>
<path d="M167.277 136.345C167.277 148.257 152.885 164.296 152.885 164.296C152.885 164.296 138.492 148.257 138.492 136.345C138.492 124.433 144.932 121.164 152.885 121.164C160.83 121.164 167.277 124.441 167.277 136.345Z" fill="#F38020"/>
<path d="M162.819 133.99C162.819 142.211 152.885 153.282 152.885 153.282C152.885 153.282 142.951 142.211 142.951 133.99C142.951 125.768 147.397 123.51 152.885 123.51C158.366 123.518 162.819 125.768 162.819 133.99Z" fill="#EEB31F"/>
<path d="M158.635 130.058C158.635 134.816 152.885 141.233 152.885 141.233C152.885 141.233 147.128 134.824 147.128 130.058C147.128 125.291 149.702 123.988 152.885 123.988C156.067 123.988 158.635 125.3 158.635 130.058Z" fill="#F7CB6B"/>
<path d="M141.143 93.7305C141.143 93.7305 121.324 105.926 121.324 132.355C121.324 132.355 122.56 135.26 124.541 131.772C126.522 128.284 128.255 118.703 140.895 118.703L141.143 93.7305Z" fill="#E93859"/>
<path d="M164.523 93.7305C164.523 93.7305 184.342 105.926 184.342 132.355C184.342 132.355 183.1 135.26 181.119 131.772C179.137 128.284 177.405 118.703 164.765 118.703L164.523 93.7305Z" fill="#BB3548"/>
<path d="M174.836 68.0532C174.836 57.2337 173.277 47.0454 170.957 38.1357H152.836V47.1749C159.54 47.1749 164.979 53.5436 164.979 61.4094C164.979 69.2671 159.547 75.6439 152.836 75.6439V121.382H164.696C170.791 110.126 174.836 90.4447 174.836 68.0532Z" fill="#DEF1F3"/>
<path d="M140.694 61.4094C140.694 53.5516 146.127 47.1749 152.836 47.1749V38.1357H134.716C132.39 47.0454 130.836 57.2337 130.836 68.0532C130.836 90.4447 134.881 110.126 140.977 121.382H152.836V75.6439C146.127 75.6439 140.694 69.2671 140.694 61.4094Z" fill="#DEF1F3"/>
<path d="M141.143 121.423C140.839 121.423 140.591 121.714 140.591 122.071V125.105C140.591 125.461 140.839 125.753 141.143 125.753H152.837V121.415H141.143V121.423Z" fill="#E6C536"/>
<path d="M164.509 121.423H152.83V125.76H164.509C164.813 125.76 165.069 125.469 165.069 125.112V122.078C165.069 121.714 164.82 121.423 164.509 121.423Z" fill="#CDAF2F"/>
<path d="M161.148 61.4092C161.148 66.7987 157.42 71.1605 152.83 71.1605V75.6437C159.533 75.6437 164.972 69.275 164.972 61.4092C164.972 53.5515 159.54 47.1748 152.83 47.1748V51.6579C157.427 51.6579 161.148 56.0197 161.148 61.4092Z" fill="#CDAF2F"/>
<path d="M140.694 61.4092C140.694 69.2669 146.127 75.6437 152.836 75.6437V71.1605C148.24 71.1605 144.519 66.7906 144.519 61.4092C144.519 56.0197 148.24 51.6579 152.836 51.6579V47.1748C146.127 47.1748 140.694 53.5515 140.694 61.4092Z" fill="#E6C536"/>
<path d="M161.148 61.4096C161.148 56.0201 157.42 51.6582 152.83 51.6582V71.1609C157.427 71.1609 161.148 66.791 161.148 61.4096Z" fill="#FF5A43"/>
<path d="M144.512 61.4096C144.512 66.7991 148.233 71.1609 152.83 71.1609V51.6582C148.239 51.6582 144.512 56.0201 144.512 61.4096Z" fill="#A5DBE2"/>
<path d="M152.836 4.75488V38.1359H170.957C165.773 18.2691 156.792 4.75488 152.836 4.75488Z" fill="#BB3548"/>
<path d="M152.836 4.75488C148.881 4.75488 139.893 18.2691 134.716 38.1359H152.836V4.75488Z" fill="#E93859"/>
<path d="M153.596 100.965C153.534 100.941 153.472 100.933 153.402 100.933H153.389H152.83V133.529H153.451H153.465C153.81 133.529 154.1 133.197 154.1 132.792V131.805L154.121 130.373L155.875 104.161C155.881 101.491 153.983 101.079 153.596 100.965Z" fill="#BB3548"/>
<path d="M152.209 100.925H152.195C152.126 100.925 152.064 100.941 152.002 100.957C151.891 100.989 151.767 101.046 151.643 101.127C150.952 101.394 149.778 102.098 149.778 104.178L151.532 130.413L151.553 131.741V132.727C151.553 133.036 151.719 133.303 151.946 133.416C152.036 133.472 152.14 133.504 152.25 133.504H152.264H152.823V100.908H152.209V100.925Z" fill="#E93859"/>
<path d="M75.4602 184.316H51.7759V203.318H75.4602V184.316Z" fill="#ECECEC"/>
<path d="M51.7759 185.709C52.7906 186.388 53.7915 187.092 54.7994 187.788C55.8004 188.492 56.8013 189.196 57.7953 189.916C59.7903 191.341 61.7715 192.798 63.7457 194.254H63.4834C65.4577 192.798 67.4389 191.341 69.4339 189.916C70.4279 189.204 71.4288 188.492 72.4298 187.788C73.4377 187.1 74.4386 186.388 75.4533 185.716C74.4938 186.501 73.5205 187.262 72.5609 188.031C71.5876 188.792 70.6143 189.552 69.6409 190.297C67.6874 191.802 65.72 193.275 63.7457 194.74L63.6146 194.837L63.4834 194.74C61.5091 193.266 59.5418 191.794 57.5951 190.297C56.6149 189.552 55.6415 188.792 54.6751 188.031C53.7019 187.255 52.7285 186.493 51.7759 185.709Z" fill="white"/>
<path d="M51.8311 199.934C52.549 199.198 53.2945 198.51 54.0538 197.838C54.8063 197.166 55.5794 196.519 56.3526 195.872C57.1326 195.241 57.9127 194.61 58.7135 194.011C59.5142 193.411 60.3218 192.821 61.1571 192.287C60.4392 193.023 59.6937 193.711 58.9343 194.383C58.1819 195.055 57.4087 195.702 56.6356 196.349C55.8555 196.98 55.0686 197.611 54.2748 198.211C53.474 198.818 52.6663 199.4 51.8311 199.934Z" fill="white"/>
<path d="M75.4051 199.934C74.5699 199.4 73.7622 198.81 72.9614 198.211C72.1607 197.611 71.3807 196.989 70.6007 196.349C69.8275 195.71 69.0544 195.063 68.3019 194.383C67.5426 193.711 66.797 193.023 66.0791 192.287C66.9144 192.821 67.722 193.411 68.5228 194.011C69.3235 194.61 70.1036 195.232 70.8837 195.872C71.6568 196.511 72.43 197.158 73.1824 197.838C73.9348 198.51 74.6803 199.206 75.4051 199.934Z" fill="white"/>
<path d="M76.9583 207.607L78.4628 211.87L76.9583 212.599L75.4465 208.311L72.9614 210.568V198.567L80.1272 207.056L76.9583 207.607Z" fill="#1A2E35"/>
<path d="M72.9614 197.257C72.8923 197.054 72.8716 196.852 72.8716 196.649C72.8716 196.447 72.8923 196.245 72.9614 196.043C73.0303 196.245 73.051 196.447 73.051 196.649C73.0441 196.852 73.0303 197.054 72.9614 197.257Z" fill="#1A2E35"/>
<path d="M72.071 197.685C71.8984 197.604 71.7673 197.474 71.643 197.337C71.5256 197.192 71.4152 197.037 71.3462 196.835C71.5187 196.916 71.6499 197.046 71.7742 197.183C71.8915 197.329 72.002 197.482 72.071 197.685Z" fill="#1A2E35"/>
<path d="M71.7051 198.721C71.5325 198.802 71.36 198.826 71.1874 198.826C71.0148 198.826 70.8422 198.802 70.6697 198.721C70.8422 198.64 71.0148 198.616 71.1874 198.616C71.36 198.624 71.5325 198.64 71.7051 198.721Z" fill="#1A2E35"/>
<path d="M72.071 199.765C72.002 199.967 71.8915 200.121 71.7742 200.266C71.6499 200.404 71.5187 200.533 71.3462 200.615C71.4152 200.412 71.5256 200.258 71.643 200.113C71.7673 199.975 71.8984 199.846 72.071 199.765Z" fill="#1A2E35"/>
<path d="M74.2109 198.721C74.3836 198.64 74.5561 198.616 74.7287 198.616C74.9012 198.616 75.0739 198.64 75.2464 198.721C75.0739 198.802 74.9012 198.826 74.7287 198.826C74.5561 198.826 74.3836 198.81 74.2109 198.721Z" fill="#1A2E35"/>
<path d="M73.845 197.685C73.914 197.482 74.0244 197.329 74.1418 197.183C74.2661 197.046 74.3972 196.916 74.5698 196.835C74.5008 197.037 74.3903 197.192 74.273 197.337C74.1487 197.474 74.0175 197.604 73.845 197.685Z" fill="#1A2E35"/>
<path d="M145.05 211.005L127.44 205.704L133.246 179.218L146.313 183.151L149.744 189.56L145.05 211.005Z" fill="#ECECEC"/>
<path d="M146.313 183.15L149.744 189.56L145.208 188.2L146.313 183.15Z" fill="#DCDCDC"/>
<path d="M133.834 184.858L143.622 187.804L143.772 187.122L133.983 184.176L133.834 184.858Z" fill="#DCDCDC"/>
<path d="M133.463 186.57L143.251 189.516L143.401 188.834L133.612 185.888L133.463 186.57Z" fill="#DCDCDC"/>
<path d="M133.083 188.288L142.871 191.234L143.021 190.552L133.232 187.605L133.083 188.288Z" fill="#DCDCDC"/>
<path d="M132.705 190.002L147.047 194.319L147.197 193.637L132.855 189.32L132.705 190.002Z" fill="#DCDCDC"/>
<path d="M132.333 191.722L146.675 196.039L146.824 195.357L132.482 191.04L132.333 191.722Z" fill="#DCDCDC"/>
<path d="M131.953 193.439L146.294 197.757L146.444 197.075L132.102 192.758L131.953 193.439Z" fill="#DCDCDC"/>
<path d="M131.58 195.159L145.922 199.475L146.071 198.793L131.729 194.477L131.58 195.159Z" fill="#DCDCDC"/>
<path d="M131.2 196.876L145.543 201.194L145.692 200.512L131.35 196.195L131.2 196.876Z" fill="#DCDCDC"/>
<path d="M130.829 198.587L145.172 202.905L145.322 202.223L130.979 197.906L130.829 198.587Z" fill="#DCDCDC"/>
<path d="M130.45 200.305L144.792 204.622L144.941 203.941L130.599 199.623L130.45 200.305Z" fill="#DCDCDC"/>
<path d="M130.076 202.025L144.419 206.342L144.567 205.659L130.226 201.343L130.076 202.025Z" fill="#DCDCDC"/>
<path d="M129.697 203.743L144.039 208.06L144.188 207.378L129.846 203.062L129.697 203.743Z" fill="#DCDCDC"/>
<path d="M90.7092 173.619L113.448 174.606L113.993 156.779L91.2542 155.791L90.7092 173.619Z" fill="#ECECEC"/>
<path d="M91.6892 172.55L112.536 173.457L113.013 157.847L92.166 156.94L91.6892 172.55Z" fill="white"/>
<path d="M93.9053 161.893C93.8565 163.357 94.8371 164.596 96.0867 164.652C97.3363 164.709 98.3921 163.56 98.4402 162.095C98.489 160.63 97.5084 159.392 96.2588 159.335C95.003 159.278 93.9534 160.42 93.9053 161.893Z" fill="#DCDCDC"/>
<path d="M98.1643 172.858L112.522 173.48L105.702 161.755L98.1643 172.858Z" fill="#DCDCDC"/>
<path d="M92.5317 172.615L104.391 173.133L98.6961 165.445L92.5317 172.615Z" fill="#ECECEC"/>
<path d="M82.1148 186.3L104.384 180.861L101.264 163.397L78.9946 168.844L82.1148 186.3Z" fill="#ECECEC"/>
<path d="M82.8466 184.989L103.266 179.995L100.532 164.709L80.1133 169.702L82.8466 184.989Z" fill="white"/>
<path d="M82.8124 174.015C83.0674 175.456 84.2682 176.377 85.4977 176.078C86.7264 175.779 87.5132 174.37 87.2574 172.931C87.0023 171.49 85.8008 170.567 84.5721 170.867C83.3434 171.166 82.5566 172.574 82.8124 174.015Z" fill="#DCDCDC"/>
<path d="M89.1907 183.459L103.259 180.02L94.2364 170.567L89.1907 183.459Z" fill="#DCDCDC"/>
<path d="M83.6753 184.817L95.2931 181.977L88.1893 176.118L83.6753 184.817Z" fill="#ECECEC"/>
</g>
</svg>
