<svg width="32" height="33" viewBox="0 0 32 33" fill="none" xmlns="http://www.w3.org/2000/svg">
<path opacity="0.2" d="M25 5.66162V27.6616C25 27.9268 24.8946 28.1812 24.7071 28.3687C24.5196 28.5563 24.2652 28.6616 24 28.6616H8C7.73478 28.6616 7.48043 28.5563 7.29289 28.3687C7.10536 28.1812 7 27.9268 7 27.6616V5.66162C7 5.3964 7.10536 5.14205 7.29289 4.95451C7.48043 4.76698 7.73478 4.66162 8 4.66162H24C24.2652 4.66162 24.5196 4.76698 24.7071 4.95451C24.8946 5.14205 25 5.3964 25 5.66162Z" fill="#344F93"/>
<path d="M11 9.66162C11 9.3964 11.1054 9.14205 11.2929 8.95451C11.4804 8.76698 11.7348 8.66162 12 8.66162H20C20.2652 8.66162 20.5196 8.76698 20.7071 8.95451C20.8946 9.14205 21 9.3964 21 9.66162C21 9.92684 20.8946 10.1812 20.7071 10.3687C20.5196 10.5563 20.2652 10.6616 20 10.6616H12C11.7348 10.6616 11.4804 10.5563 11.2929 10.3687C11.1054 10.1812 11 9.92684 11 9.66162ZM12 14.6616H20C20.2652 14.6616 20.5196 14.5563 20.7071 14.3687C20.8946 14.1812 21 13.9268 21 13.6616C21 13.3964 20.8946 13.1421 20.7071 12.9545C20.5196 12.767 20.2652 12.6616 20 12.6616H12C11.7348 12.6616 11.4804 12.767 11.2929 12.9545C11.1054 13.1421 11 13.3964 11 13.6616C11 13.9268 11.1054 14.1812 11.2929 14.3687C11.4804 14.5563 11.7348 14.6616 12 14.6616ZM26 5.66162V27.6616C26 28.1921 25.7893 28.7008 25.4142 29.0758C25.0391 29.4509 24.5304 29.6616 24 29.6616H8C7.46957 29.6616 6.96086 29.4509 6.58579 29.0758C6.21071 28.7008 6 28.1921 6 27.6616V5.66162C6 5.13119 6.21071 4.62248 6.58579 4.24741C6.96086 3.87233 7.46957 3.66162 8 3.66162H24C24.5304 3.66162 25.0391 3.87233 25.4142 4.24741C25.7893 4.62248 26 5.13119 26 5.66162ZM24 5.66162H8V27.6616H24V5.66162ZM16 21.6616C15.7033 21.6616 15.4133 21.7496 15.1666 21.9144C14.92 22.0792 14.7277 22.3135 14.6142 22.5876C14.5006 22.8617 14.4709 23.1633 14.5288 23.4543C14.5867 23.7452 14.7296 24.0125 14.9393 24.2223C15.1491 24.4321 15.4164 24.5749 15.7074 24.6328C15.9983 24.6907 16.2999 24.661 16.574 24.5474C16.8481 24.4339 17.0824 24.2416 17.2472 23.995C17.412 23.7483 17.5 23.4583 17.5 23.1616C17.5 22.7638 17.342 22.3823 17.0607 22.101C16.7794 21.8197 16.3978 21.6616 16 21.6616Z" fill="black"/>
</svg>
