<svg width="100" height="101" viewBox="0 0 100 101" fill="none" xmlns="http://www.w3.org/2000/svg">
<g clip-path="url(#clip0_2604_60773)">
<path d="M65.225 100.557H12.5C10.775 100.557 9.375 99.1569 9.375 97.4319C9.375 95.7069 10.775 94.3069 12.5 94.3069H65.225C65.8167 94.3069 66.0792 93.9444 66.1958 93.6402C66.3125 93.336 66.3625 92.8902 65.925 92.4986L38.2125 67.4195C35.9583 65.3861 35.2083 62.2361 36.3 59.3986C37.3958 56.557 40.0667 54.7236 43.1083 54.7236H79.1667C80.8917 54.7236 82.2917 56.1236 82.2917 57.8486C82.2917 59.5736 80.8917 60.9736 79.1667 60.9736H43.1083C42.5167 60.9736 42.2542 61.3361 42.1375 61.6403C42.0208 61.9445 41.9708 62.3903 42.4083 62.782L70.1208 87.861C72.3708 89.8944 73.125 93.0444 72.0333 95.8819C70.9375 98.7236 68.2667 100.557 65.225 100.557Z" fill="#2196F3"/>
<path d="M58.825 77.6406H49.5083L65.925 92.4949C66.3625 92.8907 66.3125 93.3324 66.1958 93.6365C66.0792 93.9407 65.8125 94.3032 65.225 94.3032H12.5C10.775 94.3032 9.375 95.7032 9.375 97.4282C9.375 99.1574 10.775 100.557 12.5 100.557H65.225C68.2667 100.557 70.9375 98.724 72.0292 95.8824C73.1208 93.0449 72.3667 89.8949 70.1167 87.8615L58.825 77.6406Z" fill="#1D83D4"/>
<path d="M12.5 96.3905C11.7458 96.3905 10.9917 96.1196 10.3917 95.5738C9.97083 95.1863 0 85.9696 0 76.3363C0 69.0155 5.60833 63.0571 12.5 63.0571C19.3917 63.0571 25 69.0155 25 76.3405C25 85.9738 15.0292 95.1863 14.6083 95.5738C14.0083 96.1196 13.2542 96.3905 12.5 96.3905Z" fill="#F44336"/>
<path d="M12.5 63.0571C5.60833 63.0571 0 69.0155 0 76.3405C0 85.9738 9.97083 95.1863 10.3917 95.5738C10.9917 96.1196 11.7458 96.3905 12.5 96.3905V63.0571Z" fill="#D43A2F"/>
<path d="M79.1668 54.7238C78.4418 54.7238 77.721 54.4738 77.1377 53.9738C76.3668 53.3155 58.3335 37.703 58.3335 21.6488C58.3335 10.0238 67.6793 0.557129 79.1668 0.557129C90.6543 0.557129 100 10.0196 100 21.6488C100 37.703 81.9668 53.3155 81.196 53.9738C80.6127 54.4738 79.8918 54.7238 79.1668 54.7238Z" fill="#FF5A43"/>
<path d="M79.1668 29.7238C74.571 29.7238 70.8335 25.9863 70.8335 21.3905C70.8335 16.7946 74.571 13.0571 79.1668 13.0571C83.7627 13.0571 87.5002 16.7946 87.5002 21.3905C87.5002 25.9863 83.7627 29.7238 79.1668 29.7238Z" fill="white"/>
<path d="M79.1668 0.557129C67.6793 0.557129 58.3335 10.0196 58.3335 21.6488C58.3335 37.703 76.3668 53.3155 77.1377 53.9738C77.721 54.4738 78.4418 54.7238 79.1668 54.7238V29.7238C74.571 29.7238 70.8335 25.9863 70.8335 21.3905C70.8335 16.7946 74.571 13.0571 79.1668 13.0571V0.557129Z" fill="#D43A2F"/>
<path d="M79.1668 13.0571C74.571 13.0571 70.8335 16.7946 70.8335 21.3905C70.8335 25.9863 74.571 29.7238 79.1668 29.7238V13.0571Z" fill="#DEDEDE"/>
</g>
<defs>
<clipPath id="clip0_2604_60773">
<rect width="100" height="100" fill="white" transform="translate(0 0.557129)"/>
</clipPath>
</defs>
</svg>
