<svg width="51" height="51" viewBox="0 0 51 51" fill="none" xmlns="http://www.w3.org/2000/svg">
<path opacity="0.2" d="M47.375 9.53662V40.7866C47.375 41.201 47.2104 41.5984 46.9174 41.8915C46.6243 42.1845 46.2269 42.3491 45.8125 42.3491H30.1875C29.7731 42.3491 29.3757 42.1845 29.0826 41.8915C28.7896 41.5984 28.625 41.201 28.625 40.7866V9.53662C28.625 9.12222 28.7896 8.72479 29.0826 8.43177C29.3757 8.13874 29.7731 7.97412 30.1875 7.97412H45.8125C46.2269 7.97412 46.6243 8.13874 46.9174 8.43177C47.2104 8.72479 47.375 9.12222 47.375 9.53662Z" fill="black"/>
<path d="M42.6875 14.2241C42.6875 14.6385 42.5229 15.0359 42.2299 15.329C41.9368 15.622 41.5394 15.7866 41.125 15.7866H34.875C34.4606 15.7866 34.0632 15.622 33.7701 15.329C33.4771 15.0359 33.3125 14.6385 33.3125 14.2241C33.3125 13.8097 33.4771 13.4123 33.7701 13.1193C34.0632 12.8262 34.4606 12.6616 34.875 12.6616H41.125C41.5394 12.6616 41.9368 12.8262 42.2299 13.1193C42.5229 13.4123 42.6875 13.8097 42.6875 14.2241ZM41.125 18.9116H34.875C34.4606 18.9116 34.0632 19.0762 33.7701 19.3693C33.4771 19.6623 33.3125 20.0597 33.3125 20.4741C33.3125 20.8885 33.4771 21.2859 33.7701 21.579C34.0632 21.872 34.4606 22.0366 34.875 22.0366H41.125C41.5394 22.0366 41.9368 21.872 42.2299 21.579C42.5229 21.2859 42.6875 20.8885 42.6875 20.4741C42.6875 20.0597 42.5229 19.6623 42.2299 19.3693C41.9368 19.0762 41.5394 18.9116 41.125 18.9116ZM48.9375 9.53662V40.7866C48.9375 41.6154 48.6083 42.4103 48.0222 42.9963C47.4362 43.5824 46.6413 43.9116 45.8125 43.9116H30.1875C29.3587 43.9116 28.5638 43.5824 27.9778 42.9963C27.3917 42.4103 27.0625 41.6154 27.0625 40.7866V37.6616H19.25V40.7866H22.375C22.7894 40.7866 23.1868 40.9512 23.4799 41.2443C23.7729 41.5373 23.9375 41.9347 23.9375 42.3491C23.9375 42.7635 23.7729 43.1609 23.4799 43.454C23.1868 43.747 22.7894 43.9116 22.375 43.9116H13C12.5856 43.9116 12.1882 43.747 11.8951 43.454C11.6021 43.1609 11.4375 42.7635 11.4375 42.3491C11.4375 41.9347 11.6021 41.5373 11.8951 41.2443C12.1882 40.9512 12.5856 40.7866 13 40.7866H16.125V37.6616H6.75C5.5068 37.6616 4.31451 37.1678 3.43544 36.2887C2.55636 35.4096 2.0625 34.2173 2.0625 32.9741V18.9116C2.0625 17.6684 2.55636 16.4761 3.43544 15.5971C4.31451 14.718 5.5068 14.2241 6.75 14.2241H27.0625V9.53662C27.0625 8.70782 27.3917 7.91296 27.9778 7.32691C28.5638 6.74086 29.3587 6.41162 30.1875 6.41162H45.8125C46.6413 6.41162 47.4362 6.74086 48.0222 7.32691C48.6083 7.91296 48.9375 8.70782 48.9375 9.53662ZM27.0625 34.5366V17.3491H6.75C6.3356 17.3491 5.93817 17.5137 5.64515 17.8068C5.35212 18.0998 5.1875 18.4972 5.1875 18.9116V32.9741C5.1875 33.3885 5.35212 33.786 5.64515 34.079C5.93817 34.372 6.3356 34.5366 6.75 34.5366H27.0625ZM45.8125 40.7866V9.53662H30.1875V40.7866H45.8125ZM38 32.9741C37.5364 32.9741 37.0833 33.1116 36.6979 33.3691C36.3125 33.6266 36.0121 33.9927 35.8347 34.421C35.6573 34.8492 35.6109 35.3205 35.7013 35.7751C35.7917 36.2298 36.0149 36.6474 36.3427 36.9752C36.6705 37.3029 37.0881 37.5262 37.5428 37.6166C37.9974 37.707 38.4686 37.6606 38.8969 37.4832C39.3252 37.3058 39.6912 37.0054 39.9488 36.62C40.2063 36.2346 40.3438 35.7814 40.3438 35.3179C40.3438 34.6963 40.0968 34.1001 39.6573 33.6606C39.2177 33.2211 38.6216 32.9741 38 32.9741Z" fill="#61B1B0"/>
</svg>
