<svg width="301" height="301" viewBox="0 0 301 301" fill="none" xmlns="http://www.w3.org/2000/svg">
<g clip-path="url(#clip0_2573_68324)">
<g opacity="0.26">
<path opacity="0.26" d="M10.251 61.6408H151.896V37.1396H10.251V61.6408Z" fill="#F3A39B"/>
<path opacity="0.26" d="M142.104 49.3785C142.104 42.5952 146.468 37.1279 151.881 37.1279C157.295 37.1279 161.659 42.5952 161.659 49.3785C161.659 56.162 157.295 61.6291 151.881 61.6291C146.468 61.6291 142.104 56.162 142.104 49.3785Z" fill="#F3A39B"/>
<path opacity="0.26" d="M84.6952 73.8795C84.6952 67.0961 80.3319 61.6289 74.9182 61.6289H151.882C146.468 61.6289 142.105 67.0961 142.105 73.8795C142.105 80.6628 146.468 86.1302 151.882 86.1302H74.9182C80.2915 86.1302 84.6952 80.6122 84.6952 73.8795Z" fill="#F3A39B"/>
<path opacity="0.26" d="M36.2744 110.573H194.605V86.0713H36.2744V110.573Z" fill="#F3A39B"/>
<path opacity="0.26" d="M184.809 98.3294C184.809 91.5459 189.173 86.0791 194.586 86.0791C200 86.0791 204.363 91.5459 204.363 98.3294C204.363 105.113 200 110.58 194.586 110.58C189.173 110.58 184.809 105.113 184.809 98.3294Z" fill="#F3A39B"/>
<path opacity="0.26" d="M26.4785 98.3294C26.4785 91.5459 30.8418 86.0791 36.2555 86.0791C41.6692 86.0791 46.0325 91.5459 46.0325 98.3294C46.0325 105.113 41.6692 110.58 36.2555 110.58C30.8418 110.58 26.4785 105.113 26.4785 98.3294Z" fill="#F3A39B"/>
<path opacity="0.26" d="M74.917 159.553H266.862V135.053H74.917V159.553Z" fill="#F3A39B"/>
<path opacity="0.26" d="M257.085 147.333C257.085 140.55 261.449 135.082 266.862 135.082C272.276 135.082 276.639 140.55 276.639 147.333C276.639 154.117 272.276 159.583 266.862 159.583C261.449 159.583 257.085 154.066 257.085 147.333Z" fill="#F3A39B"/>
<path opacity="0.26" d="M65.1414 147.333C65.1414 140.55 69.5045 135.082 74.9182 135.082C80.3318 135.082 84.6952 140.55 84.6952 147.333C84.6952 154.117 80.3318 159.583 74.9182 159.583C69.5045 159.583 65.1414 154.066 65.1414 147.333Z" fill="#F3A39B"/>
<path opacity="0.26" d="M32.6194 147.333C32.6194 140.55 36.9827 135.082 42.3963 135.082C47.8101 135.082 52.1733 140.55 52.1733 147.333C52.1733 154.117 47.8101 159.583 42.3963 159.583C36.9827 159.583 32.6194 154.066 32.6194 147.333Z" fill="#F3A39B"/>
<g opacity="0.26">
<path opacity="0.26" d="M171.275 122.83C171.275 116.047 166.911 110.58 161.498 110.58H194.586C189.173 110.58 184.809 116.047 184.809 122.83C184.809 129.614 189.173 135.081 194.586 135.081H161.498C166.871 135.081 171.275 129.614 171.275 122.83Z" fill="#F3A39B"/>
<path opacity="0.26" d="M84.6952 122.83C84.6952 116.047 80.3319 110.58 74.9182 110.58H161.497C156.084 110.58 151.72 116.047 151.72 122.83C151.72 129.614 156.084 135.081 161.497 135.081H74.9182C80.2915 135.081 84.6952 129.614 84.6952 122.83Z" fill="#F3A39B"/>
</g>
<path opacity="0.26" d="M84.6952 171.784C84.6952 165.001 80.3319 159.533 74.9182 159.533H171.274C165.861 159.533 161.497 165.001 161.497 171.784C161.497 178.568 165.861 184.035 171.274 184.035H74.9182C80.2915 184.035 84.6952 178.568 84.6952 171.784Z" fill="#F3A39B"/>
<path opacity="0.26" d="M42.3779 208.534H171.257V184.033H42.3779V208.534Z" fill="#F3A39B"/>
<path opacity="0.26" d="M161.498 196.284C161.498 189.501 165.861 184.033 171.275 184.033C176.688 184.033 181.052 189.501 181.052 196.284C181.052 203.068 176.688 208.535 171.275 208.535C165.861 208.535 161.498 203.068 161.498 196.284Z" fill="#F3A39B"/>
<path opacity="0.26" d="M32.6194 196.284C32.6194 189.501 36.9827 184.033 42.3963 184.033C47.8101 184.033 52.1733 189.501 52.1733 196.284C52.1733 203.068 47.8101 208.535 42.3963 208.535C36.9827 208.535 32.6194 203.068 32.6194 196.284Z" fill="#F3A39B"/>
<path opacity="0.26" d="M0.5 49.3785C0.5 42.5952 4.8633 37.1279 10.277 37.1279C15.6908 37.1279 20.0541 42.5952 20.0541 49.3785C20.0541 56.162 15.6908 61.6291 10.277 61.6291C4.8633 61.6291 0.5 56.162 0.5 49.3785Z" fill="#F3A39B"/>
</g>
<path d="M92.4914 84.6608H110.914C113.944 84.6608 116.409 81.5729 116.409 77.7762V44.5174C116.409 40.7208 113.944 37.6328 110.914 37.6328H92.4914C89.4615 37.6328 86.9971 40.7208 86.9971 44.5174V77.7255C86.9971 81.5729 89.4615 84.6608 92.4914 84.6608Z" fill="url(#paint0_linear_2573_68324)"/>
<path d="M93.4214 68.1572H80.1296C78.5131 68.1572 77.2207 69.7771 77.2207 71.802V95.4422C77.2207 97.4672 78.5131 99.0871 80.1296 99.0871H93.4214C95.0372 99.0871 96.3303 97.4672 96.3303 95.4422V71.802C96.2899 69.7771 94.9968 68.1572 93.4214 68.1572Z" fill="#89CAEF"/>
<path d="M79.9141 76.3572H93.0848V72.8643H79.9141V76.3572Z" fill="white"/>
<path d="M102.148 58.7409H109.744C110.754 58.7409 111.562 57.7284 111.562 56.4628V47.8571C111.562 46.5915 110.754 45.5791 109.744 45.5791H102.148C101.138 45.5791 100.33 46.5915 100.33 47.8571V56.4628C100.33 57.7284 101.138 58.7409 102.148 58.7409Z" fill="#C3E2F7"/>
<path d="M102.551 23.8628C100.935 23.8628 99.6418 22.2429 99.6418 20.2181C99.6418 18.1932 100.935 16.5732 102.551 16.5732C104.167 16.5732 105.46 18.1932 105.46 20.2181C105.46 22.2429 104.167 23.8628 102.551 23.8628ZM102.551 17.3832C101.299 17.3832 100.289 18.6488 100.289 20.2181C100.289 21.7874 101.299 23.0529 102.551 23.0529C103.803 23.0529 104.813 21.7874 104.813 20.2181C104.813 18.6488 103.803 17.3832 102.551 17.3832Z" fill="#41364F"/>
<path d="M97.2589 16.5223L96.6934 16.1173C97.8647 13.485 100.127 11.8145 102.551 11.8145C104.854 11.8145 106.955 13.2825 108.207 15.7123L107.642 16.168C106.511 13.9912 104.612 12.675 102.551 12.675C100.369 12.6245 98.3495 14.1431 97.2589 16.5223Z" fill="#41364F"/>
<path d="M110.995 12.929C109.096 9.43607 105.905 7.36058 102.552 7.36058C99.2788 7.36058 96.2086 9.33482 94.2693 12.6253L93.7441 12.119C95.7641 8.57551 99.0771 6.5 102.552 6.5C106.147 6.5 109.5 8.72738 111.52 12.4228L110.995 12.929Z" fill="#41364F"/>
<path d="M114.631 9.43584C111.843 4.5255 107.318 1.64003 102.51 1.64003C98.026 1.64003 93.8241 4.12052 90.9965 8.47403L90.4707 7.9678C93.4206 3.41181 97.8243 0.830078 102.51 0.830078C107.52 0.830078 112.247 3.86741 115.156 8.98025L114.631 9.43584Z" fill="#41364F"/>
<path d="M56.2127 167.732C56.2127 167.732 61.9496 164.493 58.8388 153.457C55.7279 142.421 57.1823 130.222 63.4445 125.008C69.7472 119.793 63.3232 131.031 68.6969 137.106C74.0702 143.18 92.6546 143.535 83.2003 169.757C73.7468 196.03 101.421 174.364 98.3103 202.965C95.1997 231.517 87.9678 245.286 73.3426 245.336C58.7175 245.336 47.8901 237.895 53.1826 220.481C63.6465 186.362 38.0727 187.88 56.2127 167.732Z" fill="#89CAEF"/>
<path d="M69.5449 245.286L69.2215 245.235C77.544 162.012 68.1308 147.433 68.0098 147.281L68.2518 147.028C68.3332 147.18 70.7163 150.673 72.09 164.543C73.3427 177.3 73.9082 201.65 69.5449 245.286Z" fill="white"/>
<path d="M36.4159 184.286C36.4159 184.286 32.1738 184.995 36.2543 194.563C40.2944 204.131 28.8609 207.269 40.4156 211.673C51.9703 216.078 29.2649 229.036 48.0513 235.87C66.8378 242.756 72.2111 224.025 65.3026 218.557C58.394 213.091 55.6063 217.444 55.8487 202.966C56.0911 188.488 47.9706 200.891 43.4052 190.463C39.8499 182.414 36.4159 184.286 36.4159 184.286Z" fill="#89CAEF"/>
<path d="M65.2219 218.761C63.323 217.242 61.707 216.483 60.4141 215.875C56.9396 214.255 55.5256 213.547 55.6872 203.018C55.7276 199.727 55.364 197.651 54.556 196.588C53.8692 195.677 52.8995 195.525 51.6875 195.475V195.069C52.9804 195.121 54.0308 195.323 54.7984 196.285C55.6872 197.449 56.0912 199.626 56.0508 203.018C55.8892 213.294 57.2224 213.951 60.5353 215.521C61.8281 216.129 63.4846 216.888 65.4239 218.457L65.2219 218.761Z" fill="#38324C"/>
<path d="M57.2624 237.338C53.6667 219.266 41.9101 195.321 41.7888 195.119L42.0716 194.917C42.1928 195.17 53.9495 219.114 57.5856 237.288L57.2624 237.338Z" fill="white"/>
<path d="M105.825 182.82C105.825 182.82 110.066 183.528 105.986 193.095C101.946 202.664 113.379 205.802 101.825 210.206C90.2703 214.61 112.975 227.569 94.1891 234.403C75.403 241.288 70.0297 222.558 76.9381 217.091C83.8466 211.624 86.6345 215.977 86.3917 201.499C86.1496 187.021 94.2698 199.424 98.8355 188.996C102.35 180.896 105.825 182.82 105.825 182.82Z" fill="#89CAEF"/>
<path d="M77.0188 217.291L76.8574 216.938C78.7967 215.419 80.4125 214.608 81.7459 214.001C85.0583 212.432 86.432 211.774 86.2303 201.497C86.19 198.106 86.5531 195.929 87.4824 194.765C88.2503 193.753 89.2602 193.55 90.5936 193.55V193.955C89.3813 193.955 88.4116 194.157 87.7251 195.069C86.8765 196.182 86.5127 198.207 86.5941 201.497C86.7958 212.078 85.3414 212.736 81.867 214.406C80.5336 215.014 78.9177 215.773 77.0188 217.291Z" fill="#38324C"/>
<path d="M84.9372 235.871L84.6138 235.77C88.2496 217.647 100.007 193.652 100.128 193.399L100.41 193.602C100.33 193.855 88.573 217.799 84.9372 235.871Z" fill="white"/>
<path d="M83.7658 288.568H58.798C57.3032 288.568 56.0508 287.252 55.7276 285.429L48.4554 240.072C48.0514 237.642 49.5462 235.415 51.5259 235.415H91.0381C93.0177 235.415 94.4721 237.693 94.1083 240.072L86.8361 285.429C86.5537 287.252 85.2606 288.568 83.7658 288.568Z" fill="#41364F"/>
<path d="M92.5322 247.514H49.707V247.919H92.5322V247.514Z" fill="white"/>
<path d="M299.87 172.29H232.279V179.731H299.87V172.29Z" fill="#89CAEF"/>
<path d="M276.961 190.716H255.185C254.579 190.716 254.014 190.361 253.69 189.703L250.216 183.223C249.408 181.755 250.256 179.73 251.711 179.73H280.436C281.85 179.73 282.739 181.755 281.931 183.223L278.456 189.703C278.092 190.31 277.527 190.716 276.961 190.716Z" fill="#89CAEF"/>
<path d="M277.891 268.725H254.216L248.358 279.659H283.749L277.891 268.725Z" fill="#41364F"/>
<path d="M271.265 190.715H260.802V268.724H271.265V190.715Z" fill="#41364F"/>
<path d="M271.265 190.463H260.802V190.867H271.265V190.463Z" fill="white"/>
<path d="M280.396 179.527H250.701V179.933H280.396V179.527Z" fill="#38324C"/>
<path d="M271.265 268.472H260.802V268.877H271.265V268.472Z" fill="white"/>
<path d="M247.468 149.56L250.296 172.289H263.225L266.053 149.56H247.468Z" fill="#48BD5C"/>
<path d="M265.246 168.29C264.72 168.29 264.155 168.188 263.67 168.037L264.115 166.113C264.478 166.265 264.882 166.316 265.286 166.316C267.629 166.316 269.569 163.936 269.569 160.949C269.569 158.014 267.67 155.584 265.286 155.584V153.559C268.518 153.559 271.144 156.85 271.144 160.899C271.144 164.949 268.478 168.29 265.246 168.29Z" fill="#48BD5C"/>
<path d="M104.814 205.75C104.895 203.877 87.9667 123.439 138.63 121.464C189.292 119.49 175.435 162.519 178.748 176.237C182.061 189.956 183.717 206.813 219.674 208.433C219.674 208.433 244.318 203.928 238.42 245.235L235.026 285.783C235.026 285.783 161.052 305.375 118.066 285.531L104.814 205.75Z" fill="#48BD5C"/>
<path d="M219.714 208.433C183.757 206.813 182.101 189.905 178.788 176.237C175.475 162.519 189.333 119.49 138.67 121.464C132.731 121.717 127.762 123.034 123.519 125.16C118.591 131.689 113.662 140.954 114.227 152.647C115.358 175.63 118.55 191.778 123.196 203.421C128.368 216.33 137.498 230.15 165.132 227.517C185.979 225.543 221.774 223.467 238.136 222.557C233.814 205.902 219.714 208.433 219.714 208.433Z" fill="#48BD5C"/>
<path d="M233.694 287.403L247.632 299.35C247.632 299.35 230.543 300.97 222.423 299.35L223.513 287.403H233.694Z" fill="#2BC2EC"/>
<path d="M259.55 278.797L276.437 279.202C276.437 279.202 262.862 292.313 255.348 296.565L251.025 285.833L259.55 278.797Z" fill="#2BC2EC"/>
<path d="M165.699 188.539C165.699 188.539 206.908 186.21 215.513 186.362C224.118 186.514 225.573 197.195 226.3 202.561C227.148 209.041 234.3 287.404 234.3 287.404C234.3 287.404 220.159 288.72 219.674 287.404C205.373 250.551 206.059 215.621 206.059 215.621C206.059 215.621 170.143 221.19 161.012 215.773C151.882 210.357 149.66 194.158 149.66 194.158C149.66 194.158 159.113 189.754 165.699 188.539Z" fill="#344F93"/>
<path d="M163.114 131.385C163.114 131.385 170.749 143.889 172.083 160.239L173.739 173.047C173.739 173.047 183.839 170.87 187.273 175.68C190.707 180.489 188.283 184.842 183.556 184.943L166.144 188.386L163.114 131.385Z" fill="#2BC2EC"/>
<path d="M156.568 78.9406C156.811 78.8393 165.619 76.2576 165.174 89.2165C164.77 102.176 158.588 103.745 158.588 103.745L151.841 84.4076L156.568 78.9406Z" fill="#38324C"/>
<path d="M139.115 114.831C138.954 114.983 141.014 124.551 140.65 130.017C140.65 130.017 153.296 129.613 152.972 129.562C152.608 129.461 151.437 118.122 151.437 118.122C151.437 118.122 142.226 111.642 139.115 114.831Z" fill="#EEA78E"/>
<path d="M139.116 114.834C139.075 114.884 139.237 115.744 139.439 117.061C141.661 120.048 146.186 124.857 152.286 125.666C151.882 122.376 151.438 118.174 151.438 118.174C151.438 118.174 142.227 111.644 139.116 114.834Z" fill="#EEA78E"/>
<path d="M161.012 98.4821C161.012 98.4821 159.195 122.78 153.659 122.78C145.539 122.78 139.519 116.656 137.903 112.606C137.903 112.606 132.166 87.6487 148.892 86.3329C161.982 85.3204 161.012 98.4821 161.012 98.4821Z" fill="#EEA78E"/>
<path d="M156.771 88.104C156.771 88.104 153.458 94.4822 148.287 95.5958C148.287 95.5958 147.317 94.6844 148.69 92.3056C148.69 92.3056 145.984 96.4053 143.115 97.1651C143.115 97.1651 143.842 111.238 141.136 111.035C138.428 110.833 138.59 105.264 138.59 105.264C138.59 105.264 137.621 113.465 139.923 115.844C139.923 115.844 135.722 118.123 132.934 112.352C130.146 106.581 127.601 97.6208 131.359 85.6233C131.359 85.6233 124.369 82.6363 133.823 81.9277C133.823 81.9277 132.085 76.6631 133.904 74.2331C135.722 71.7527 136.166 79.4979 136.166 79.4979C136.166 79.4979 160.77 61.7801 153.781 77.2199C153.781 77.2199 164.689 72.0564 160.124 78.8904L156.771 88.104Z" fill="#38324C"/>
<path d="M139.398 105.366C139.398 105.366 136.691 99.4927 134.146 101.973C131.601 104.454 132.812 113.212 139.398 112.857V105.366Z" fill="#EEA78E"/>
<path d="M146.306 99.0889C146.508 98.6331 146.791 98.228 147.114 97.8734C147.438 97.5196 147.841 97.3166 148.245 97.1649C148.649 97.0133 149.094 97.0133 149.538 97.1144C149.74 97.1649 149.942 97.266 150.144 97.3671C150.346 97.4682 150.508 97.6206 150.669 97.7723C150.265 97.6206 149.902 97.4682 149.498 97.4682C149.094 97.4177 148.73 97.4682 148.326 97.5701C147.559 97.8228 146.912 98.3796 146.306 99.0889Z" fill="#38324C"/>
<path d="M156.326 97.2671C156.568 97.0641 156.851 96.9124 157.133 96.8113C157.416 96.7103 157.74 96.6597 158.022 96.7103C158.346 96.7608 158.629 96.9124 158.871 97.166C159.113 97.4187 159.235 97.7733 159.315 98.1785C159.113 97.8744 158.952 97.6209 158.709 97.4187C158.467 97.2671 158.225 97.166 157.942 97.1154C157.497 97.0641 156.932 97.166 156.326 97.2671Z" fill="#38324C"/>
<path d="M149.336 102.127C149.336 102.988 148.973 103.747 148.569 103.747C148.125 103.747 147.801 103.038 147.801 102.127C147.801 101.216 148.165 100.507 148.569 100.507C148.973 100.557 149.336 101.267 149.336 102.127Z" fill="#38324C"/>
<path d="M158.628 102.127C158.628 102.988 158.264 103.747 157.86 103.747C157.416 103.747 157.093 103.038 157.093 102.127C157.093 101.216 157.457 100.507 157.86 100.507C158.264 100.557 158.628 101.267 158.628 102.127Z" fill="#38324C"/>
<path d="M154.832 103.24C154.993 104.101 155.195 104.962 155.437 105.822C155.679 106.632 156.003 107.442 156.447 108.049L156.568 108.202L156.447 108.303C156.084 108.607 155.72 108.809 155.316 108.91C154.912 109.062 154.508 109.062 154.104 108.961C154.508 108.91 154.912 108.809 155.276 108.657C155.639 108.505 156.003 108.252 156.286 107.948V108.252C155.72 107.594 155.397 106.733 155.195 105.873C154.953 105.063 154.832 104.152 154.832 103.24Z" fill="#38324C"/>
<path d="M150.67 111.896C151.276 112.605 152.003 113.01 152.771 113.212C153.175 113.313 153.538 113.364 153.942 113.364C154.346 113.364 154.75 113.313 155.154 113.263C154.953 113.364 154.75 113.466 154.548 113.516C154.346 113.567 154.144 113.617 153.942 113.668C153.538 113.769 153.094 113.718 152.69 113.617C152.286 113.516 151.882 113.313 151.518 113.01C151.195 112.706 150.872 112.352 150.67 111.896Z" fill="#38324C"/>
<path d="M121.905 143.889C121.905 143.889 119.279 132.752 127.803 131.132C136.328 129.462 157.861 129.158 157.861 129.158C157.861 129.158 164.689 128.753 164.689 136.498C164.689 144.244 166.184 188.386 166.184 188.386C166.184 188.386 150.71 196.991 134.994 194.258L121.905 143.889Z" fill="#2BC2EC"/>
<path d="M135.035 194.764C135.035 194.764 128.207 221.037 147.923 223.011C167.638 224.986 185.536 222.961 185.536 222.961C185.536 222.961 206.423 242.501 246.905 289.124C247.309 289.58 258.864 280.822 261.974 279.05L203.514 201.751C203.514 201.751 196.121 191.119 190.869 191.119C184.93 191.119 172.648 189.601 161.457 190.411C147.519 191.423 135.035 194.764 135.035 194.764Z" fill="#344F93"/>
<path d="M233.33 241.642L203.392 201.903C203.312 201.802 195.959 191.323 190.868 191.323C185.697 191.323 174.707 191.93 161.456 192.892V192.487C174.707 191.525 185.737 190.918 190.868 190.918C196.12 190.918 203.352 201.194 203.635 201.649L233.572 241.388L233.33 241.642Z" fill="white"/>
<path d="M236.602 277.278C227.068 266.446 218.139 256.524 210.019 247.867L210.22 247.563C218.341 256.219 227.31 266.141 236.845 276.975L236.602 277.278Z" fill="white"/>
<path d="M136.449 184.033L135.843 183.779C135.924 183.526 137.58 177.35 142.63 175.933L142.792 176.743C138.065 178.06 136.489 183.982 136.449 184.033Z" fill="black"/>
<path d="M184.607 177.856C184.607 177.856 178.789 182.058 181.173 183.88C183.557 185.753 189.859 184.285 189.859 184.285C189.859 184.285 192.404 183.93 191.273 180.083C189.98 175.68 184.607 177.856 184.607 177.856Z" fill="#EEA78E"/>
<path d="M220.805 163.531L185.858 88.0537L147.074 140.802L212.765 172.037L220.805 163.531Z" fill="url(#paint1_linear_2573_68324)"/>
<path d="M223.716 184.844H189.253L201.172 142.676H235.674L223.716 184.844Z" fill="#E6E6E6"/>
<path d="M223.716 184.844H189.253L201.172 142.676H235.674L223.716 184.844Z" fill="#CDDBE6"/>
<path d="M235.391 142.676H203.272L191.313 184.844H225.816L236.966 145.51C237.37 144.144 236.562 142.676 235.391 142.676Z" fill="#CDDBE6"/>
<path d="M171.76 184.844V189.349H224.16C225.17 189.349 225.978 188.336 225.978 187.071V184.844H171.76Z" fill="#E6E6E6"/>
<path d="M171.76 184.844V189.349H224.16C225.17 189.349 225.978 188.336 225.978 187.071V184.844H171.76Z" fill="#CDDBE6"/>
<path d="M172.245 179.123C172.245 179.123 179.396 176.795 181.86 180.136C184.325 183.477 184.204 184.692 183.597 184.995C182.991 185.299 180.406 185.451 179.759 184.995C179.153 184.54 173.335 187.78 170.871 187.02C168.406 186.211 172.245 179.123 172.245 179.123Z" fill="#EEA78E"/>
<path d="M118.147 140.851C118.147 140.851 120.126 133.866 124.126 132.853C128.126 131.891 140.206 152.849 142.67 176.338C142.67 176.338 163.719 172.794 172.244 179.122C172.244 179.122 175.678 183.728 172.244 189.296C172.244 189.296 134.792 209.191 130.469 199.016C126.147 188.841 114.834 151.786 118.147 140.851Z" fill="#2BC2EC"/>
<path d="M140.853 165.506C139.923 161.406 138.752 157.508 137.499 153.914C137.499 153.914 123.602 153.003 119.601 161.963C120.329 165.608 121.218 169.354 122.187 173.049C122.187 173.049 128.126 164.848 140.853 165.506Z" fill="white"/>
<path d="M172.849 180.59C172.364 179.122 171.678 178.717 171.678 178.717C162.143 173.149 142.872 176.54 142.71 176.54L142.548 176.591L142.508 176.389C141.256 164.391 137.215 151.33 131.761 141.51L132.045 141.257C137.499 151.078 141.538 164.087 142.832 176.085C144.73 175.781 162.708 172.946 171.839 178.313C171.879 178.313 172.607 178.767 173.173 180.387L172.849 180.59Z" fill="#38324C"/>
<path d="M157.094 131.082C157.094 130.424 156.932 129.816 156.65 129.209C153.781 129.26 146.307 129.463 139.277 129.918C139.156 130.323 139.116 130.677 139.116 131.082C139.116 134.474 143.156 137.208 148.125 137.208C153.054 137.208 157.094 134.423 157.094 131.082Z" fill="#2BC2EC"/>
<path d="M148.084 135.841C152.77 135.841 156.002 133.31 156.002 131.082C156.002 130.475 155.76 129.816 155.316 129.209C152.083 129.26 146.225 129.463 140.488 129.816C140.286 130.221 140.165 130.677 140.165 131.082C140.165 133.31 143.438 135.841 148.084 135.841Z" fill="#EEA78E"/>
<path d="M147.802 133.968C147.802 133.968 143.115 135.993 143.438 141.359C143.438 141.359 137.782 134.93 136.166 130.02C136.166 130.02 137.297 127.033 140.57 125.717L147.802 133.968Z" fill="#38324C"/>
<path d="M151.881 134.827C151.881 134.827 152.77 129.714 152.366 126.221C152.366 126.221 154.951 126.12 155.759 129.208C155.759 129.208 157.133 136.953 156.365 140.8C156.325 140.75 154.588 133.865 151.881 134.827Z" fill="#38324C"/>
<path d="M137.823 111.189C137.783 111.189 136.692 111.087 136.328 110.176C136.126 109.67 136.166 109.011 136.53 108.252C137.258 106.733 137.419 105.215 137.015 104.303C136.773 103.747 136.248 103.443 135.561 103.443V103.038C136.611 103.038 137.096 103.595 137.298 104.101C137.743 105.114 137.581 106.784 136.813 108.454C136.53 109.062 136.449 109.619 136.611 109.973C136.894 110.682 137.823 110.733 137.864 110.733L137.823 111.189Z" fill="#38324C"/>
<path d="M136.813 107.542C136.772 106.682 136.61 106.125 136.247 105.922C135.681 105.568 134.873 106.277 134.873 106.277L134.671 105.922C134.711 105.872 135.641 105.062 136.368 105.517C136.813 105.771 137.055 106.429 137.095 107.492L136.813 107.542Z" fill="#38324C"/>
<path d="M167.84 176.895L167.517 176.844C168.607 165.505 164.689 144.294 164.648 144.091L164.972 143.99C165.012 144.244 168.931 165.505 167.84 176.895Z" fill="#38324C"/>
<path d="M169.699 174.87L169.497 174.566C169.537 174.515 170.83 173.301 173.78 172.896L173.82 173.301C170.952 173.706 169.699 174.87 169.699 174.87Z" fill="#38324C"/>
<path d="M172.93 173.351C171.273 171.731 169.617 172.44 169.617 172.44L169.537 172.035C169.617 171.984 171.395 171.225 173.172 172.997L172.93 173.351Z" fill="#38324C"/>
<path d="M134.63 183.223L134.347 183.02C134.388 182.97 136.449 177.756 142.953 176.136L143.034 176.541C136.65 178.11 134.671 183.173 134.63 183.223Z" fill="#38324C"/>
<path d="M165.861 149.358L165.538 149.307C165.538 149.205 165.821 147.181 166.831 146.472L166.992 146.826C166.144 147.434 165.861 149.358 165.861 149.358Z" fill="#38324C"/>
<path d="M183.96 184.893L183.677 184.691C183.92 184.185 184.001 183.577 183.839 183.02C183.395 181.097 181.051 179.629 181.051 179.578L181.213 179.224C181.334 179.274 183.677 180.843 184.162 182.919C184.324 183.577 184.243 184.236 183.96 184.893Z" fill="#38324C"/>
<path d="M217.614 95.8983V96.6581C217.614 103.036 213.533 108.2 208.403 108.2H205.09L207.15 115.084L199.232 108.2H198.141C197.535 108.2 196.929 108.099 196.323 107.997C196.04 107.946 195.757 107.845 195.514 107.744C191.717 106.327 188.97 101.923 188.97 96.7086V95.9488C188.97 95.8477 188.97 95.7467 188.97 95.6456C189.091 89.3684 193.09 84.3564 198.141 84.3564H208.362C213.533 84.3564 217.614 89.52 217.614 95.8983Z" fill="#FF5A43"/>
<path d="M196.04 104.151V104.658C196.04 105.721 195.878 106.784 195.555 107.695C194.625 110.378 192.525 112.2 190.02 112.2H189.292L184.162 116.655L184.081 116.706L185.293 112.706L185.454 112.149H183.273C179.92 112.149 177.212 108.809 177.212 104.607V104.101C177.212 99.8991 179.92 96.5078 183.273 96.5078H189.979C193.373 96.6089 196.04 99.9497 196.04 104.151Z" fill="#A9AFEA"/>
<path d="M182.182 106.327C182.918 106.327 183.515 105.58 183.515 104.657C183.515 103.734 182.918 102.986 182.182 102.986C181.445 102.986 180.848 103.734 180.848 104.657C180.848 105.58 181.445 106.327 182.182 106.327Z" fill="white"/>
<path d="M186.505 106.327C187.242 106.327 187.839 105.58 187.839 104.657C187.839 103.734 187.242 102.986 186.505 102.986C185.769 102.986 185.172 103.734 185.172 104.657C185.172 105.58 185.769 106.327 186.505 106.327Z" fill="white"/>
<path d="M190.828 106.327C191.564 106.327 192.161 105.58 192.161 104.657C192.161 103.734 191.564 102.986 190.828 102.986C190.092 102.986 189.494 103.734 189.494 104.657C189.494 105.58 190.092 106.327 190.828 106.327Z" fill="white"/>
<path d="M249.61 84.1042C251.774 84.1042 253.529 81.8155 253.529 78.9917C253.529 76.168 251.774 73.8789 249.61 73.8789C247.446 73.8789 245.691 76.168 245.691 78.9917C245.691 81.8155 247.446 84.1042 249.61 84.1042Z" fill="#333333"/>
<path d="M256.922 86.483C256.922 86.483 256.559 86.5335 255.428 86.5335C254.297 86.5335 253.893 86.483 253.893 86.483C253.57 86.4324 253.327 86.3305 253.529 86.2294L255.065 85.3694C255.226 85.2675 255.59 85.2675 255.751 85.3694L257.286 86.2294C257.489 86.3305 257.286 86.4324 256.922 86.483Z" fill="#333333"/>
<path d="M257.287 87.4946L255.751 89.6206C255.59 89.8742 255.226 89.8742 255.065 89.6206L253.53 87.4946C253.328 87.1905 253.53 86.7861 253.893 86.7861C253.893 86.7861 254.378 86.9378 255.429 86.9378C256.479 86.9378 256.923 86.7861 256.923 86.7861C257.287 86.8367 257.489 87.1905 257.287 87.4946Z" fill="#333333"/>
<path d="M264.68 78.9917C264.68 81.8265 262.943 84.1042 260.761 84.1042C258.62 84.1042 256.843 81.8265 256.843 78.9917C256.843 76.1569 258.58 73.8789 260.761 73.8789C262.943 73.8789 264.68 76.1569 264.68 78.9917Z" fill="#333333"/>
<path d="M267.791 107.897C267.791 116.908 262.257 124.248 255.469 124.248C248.642 124.248 243.106 116.958 243.106 107.897C243.106 98.8864 248.642 91.5967 255.469 91.5967C262.257 91.5967 267.791 98.8864 267.791 107.897Z" fill="#333333"/>
<path d="M267.791 107.897C267.791 116.908 262.257 124.248 255.469 124.248C248.642 124.248 243.106 116.958 243.106 107.897C243.106 98.8864 248.642 91.5967 255.469 91.5967C262.257 91.5967 267.791 98.8864 267.791 107.897Z" fill="white"/>
<path d="M277.932 104.657C275.104 101.873 272.72 98.3296 271.064 94.3301C270.862 93.8744 270.7 93.4693 270.538 93.0136L270.498 92.963C270.458 92.9125 270.458 92.8114 270.417 92.7608C268.599 86.9394 268.235 82.3831 268.155 80.4596C268.155 80.1559 268.195 79.8015 268.195 79.4977C268.195 70.6895 262.499 63.5518 255.469 63.5518C248.439 63.5518 242.743 70.6895 242.743 79.4977C242.743 79.4977 242.904 85.1165 240.399 93.0136C240.157 93.5703 239.955 94.128 239.753 94.6847C238.056 98.5823 235.753 101.923 233.006 104.657C232.642 105.062 232.885 105.821 233.37 105.72C235.026 105.416 236.642 104.91 238.177 104.252C238.218 113.414 242.338 121.362 248.277 124.906C247.752 125.615 247.429 126.576 247.429 127.639H253.893C253.893 127.386 253.853 127.133 253.853 126.88C254.378 126.931 254.903 126.981 255.469 126.981C255.954 126.981 256.479 126.931 256.964 126.88C256.923 127.133 256.923 127.386 256.923 127.639H263.387C263.387 126.627 263.105 125.665 262.58 124.956C268.559 121.413 272.72 113.465 272.761 104.252C274.296 104.961 275.952 105.467 277.608 105.771C278.053 105.821 278.336 105.062 277.932 104.657ZM260.761 73.8787C262.902 73.8787 264.68 76.1567 264.68 78.9916C264.68 81.8264 262.943 84.104 260.761 84.104C258.62 84.104 256.843 81.8264 256.843 78.9916C256.883 76.1567 258.62 73.8787 260.761 73.8787ZM255.065 85.3701C255.227 85.269 255.59 85.269 255.752 85.3701L257.287 86.2301C257.489 86.332 257.287 86.4837 256.923 86.4837C256.923 86.4837 256.559 86.5342 255.428 86.5342C254.297 86.5342 253.893 86.4837 253.893 86.4837C253.57 86.4331 253.328 86.332 253.53 86.2301L255.065 85.3701ZM257.287 87.4962L255.752 89.6222C255.59 89.875 255.227 89.875 255.065 89.6222L253.53 87.4962C253.328 87.1921 253.53 86.7877 253.893 86.7877C253.893 86.7877 254.378 86.9394 255.428 86.9394C256.479 86.9394 256.923 86.7877 256.923 86.7877C257.287 86.8383 257.489 87.1921 257.287 87.4962ZM249.611 73.8787C251.752 73.8787 253.53 76.1567 253.53 78.9916C253.53 81.8264 251.793 84.104 249.611 84.104C247.47 84.104 245.692 81.8264 245.692 78.9916C245.692 76.1567 247.429 73.8787 249.611 73.8787ZM255.428 124.197C248.601 124.197 243.066 116.908 243.066 107.846C243.066 98.8358 248.601 91.5462 255.428 91.5462C262.256 91.5462 267.751 98.8358 267.751 107.846C267.791 116.908 262.256 124.197 255.428 124.197Z" fill="#333333"/>
<path d="M264.68 78.9917C264.68 81.8265 262.943 84.1042 260.761 84.1042C258.62 84.1042 256.843 81.8265 256.843 78.9917C256.843 76.1569 258.58 73.8789 260.761 73.8789C262.943 73.8789 264.68 76.1569 264.68 78.9917Z" fill="white"/>
<path d="M260.761 81.2184C261.698 81.2184 262.458 80.2212 262.458 78.991C262.458 77.7608 261.698 76.7637 260.761 76.7637C259.824 76.7637 259.064 77.7608 259.064 78.991C259.064 80.2212 259.824 81.2184 260.761 81.2184Z" fill="#333333"/>
<path d="M249.61 84.1042C251.774 84.1042 253.529 81.8155 253.529 78.9917C253.529 76.168 251.774 73.8789 249.61 73.8789C247.446 73.8789 245.691 76.168 245.691 78.9917C245.691 81.8155 247.446 84.1042 249.61 84.1042Z" fill="white"/>
<path d="M249.611 81.2184C250.548 81.2184 251.308 80.2212 251.308 78.991C251.308 77.7608 250.548 76.7637 249.611 76.7637C248.674 76.7637 247.914 77.7608 247.914 78.991C247.914 80.2212 248.674 81.2184 249.611 81.2184Z" fill="#333333"/>
<path d="M256.922 86.483C256.922 86.483 256.559 86.5335 255.428 86.5335C254.297 86.5335 253.893 86.483 253.893 86.483C253.57 86.4324 253.327 86.3305 253.529 86.2294L255.065 85.3694C255.226 85.2675 255.59 85.2675 255.751 85.3694L257.286 86.2294C257.489 86.3305 257.286 86.4324 256.922 86.483Z" fill="white"/>
<path d="M257.287 87.4946L255.751 89.6206C255.59 89.8742 255.226 89.8742 255.065 89.6206L253.53 87.4946C253.328 87.1905 253.53 86.7861 253.893 86.7861C253.893 86.7861 254.378 86.9378 255.429 86.9378C256.479 86.9378 256.923 86.7861 256.923 86.7861C257.287 86.8367 257.489 87.1905 257.287 87.4946Z" fill="white"/>
</g>
<defs>
<linearGradient id="paint0_linear_2573_68324" x1="101.7" y1="32.4111" x2="101.7" y2="104.919" gradientUnits="userSpaceOnUse">
<stop stop-color="white"/>
<stop offset="1" stop-color="white" stop-opacity="0"/>
</linearGradient>
<linearGradient id="paint1_linear_2573_68324" x1="209.543" y1="160.209" x2="155.14" y2="123.445" gradientUnits="userSpaceOnUse">
<stop stop-color="#89CAEF"/>
<stop offset="1" stop-color="white" stop-opacity="0"/>
</linearGradient>
<clipPath id="clip0_2573_68324">
<rect width="300" height="300" fill="white" transform="translate(0.5 0.830078)"/>
</clipPath>
</defs>
</svg>
