<svg width="30" height="31" viewBox="0 0 30 31" fill="none" xmlns="http://www.w3.org/2000/svg">
<g clip-path="url(#clip0_2635_1940)">
<path d="M15.0001 0.761719C7.0471 0.761719 0.600098 7.20872 0.600098 15.1617C0.600098 23.1147 7.0471 29.5617 15.0001 29.5617C22.9531 29.5617 29.4001 23.1147 29.4001 15.1617C29.4001 7.20872 22.9531 0.761719 15.0001 0.761719ZM18.4111 10.7127H16.2466C15.9901 10.7127 15.7051 11.0502 15.7051 11.4987V13.0617H18.4126L18.0031 15.2907H15.7051V21.9822H13.1506V15.2907H10.8331V13.0617H13.1506V11.7507C13.1506 9.86972 14.4556 8.34122 16.2466 8.34122H18.4111V10.7127Z" fill="white"/>
</g>
<defs>
<clipPath id="clip0_2635_1940">
<rect width="30" height="30" fill="white" transform="translate(0 0.162109)"/>
</clipPath>
</defs>
</svg>
