<svg width="101" height="89" viewBox="0 0 101 89" fill="none" xmlns="http://www.w3.org/2000/svg">
<g clip-path="url(#clip0_2566_39427)">
<path d="M94.8832 0.543945H6.04084C3.08678 0.543945 0.669922 2.961 0.669922 5.91486V57.4655C0.669922 60.4196 3.08678 62.8364 6.04084 62.8364H94.8832C97.8368 62.8364 100.254 60.4196 100.254 57.4655V5.91486C100.254 2.961 97.8368 0.543945 94.8832 0.543945Z" fill="#DFEBFA"/>
<path d="M7.08181 57.4655V5.91486C7.08181 2.9608 9.49867 0.543945 12.4527 0.543945H6.04084C3.08678 0.543945 0.669922 2.961 0.669922 5.91486V57.4655C0.669922 60.4196 3.08678 62.8364 6.04084 62.8364H12.4527C9.49867 62.8364 7.08181 60.4196 7.08181 57.4655Z" fill="#B1DBFC"/>
<path d="M22.1936 72.9909C26.6577 72.9909 30.2765 69.372 30.2765 64.9081C30.2765 60.444 26.6577 56.8252 22.1936 56.8252C17.7296 56.8252 14.1108 60.444 14.1108 64.9081C14.1108 69.372 17.7296 72.9909 22.1936 72.9909Z" fill="#FFCEBE"/>
<path d="M29.2544 72.9907H15.1327C11.2425 72.9907 8.05957 76.174 8.05957 80.0637V86.9041C8.05957 87.9394 8.89883 88.7791 9.93435 88.7791H34.453C35.4883 88.7791 36.3278 87.9394 36.3278 86.9041V80.0637C36.3276 76.174 33.1446 72.9907 29.2544 72.9907Z" fill="#FF656F"/>
<path d="M50.4617 72.9909C54.9257 72.9909 58.5446 69.372 58.5446 64.9081C58.5446 60.444 54.9257 56.8252 50.4617 56.8252C45.9977 56.8252 42.3789 60.444 42.3789 64.9081C42.3789 69.372 45.9977 72.9909 50.4617 72.9909Z" fill="#FFCEBE"/>
<path d="M57.523 72.9907H43.4013C39.5111 72.9907 36.3281 76.174 36.3281 80.0637V86.9041C36.3281 87.9394 37.1674 88.7791 38.2029 88.7791H62.7216C63.7569 88.7791 64.5964 87.9394 64.5964 86.9041V80.0637C64.5961 76.174 61.4132 72.9907 57.523 72.9907Z" fill="#5CB3F8"/>
<path d="M78.7301 72.9909C83.194 72.9909 86.8124 69.372 86.8124 64.9081C86.8124 60.444 83.194 56.8252 78.7301 56.8252C74.2661 56.8252 70.647 60.444 70.647 64.9081C70.647 69.372 74.2661 72.9909 78.7301 72.9909Z" fill="#FFCEBE"/>
<path d="M21.5407 64.9081C21.5407 61.7839 23.3144 59.0756 25.9086 57.7302C24.7961 57.1531 23.5336 56.8252 22.1936 56.8252C17.7297 56.8252 14.1108 60.4441 14.1108 64.9081C14.1108 69.372 17.7297 72.9909 22.1936 72.9909C23.5336 72.9909 24.7961 72.6629 25.9086 72.0859C23.3144 70.7405 21.5407 68.0323 21.5407 64.9081Z" fill="#FFB1A0"/>
<path d="M49.8088 64.9081C49.8088 61.784 51.5824 59.0756 54.1766 57.7302C53.0641 57.1531 51.8016 56.8252 50.4617 56.8252C45.9977 56.8252 42.3789 60.4441 42.3789 64.9081C42.3789 69.372 45.9977 72.9909 50.4617 72.9909C51.8016 72.9909 53.0641 72.663 54.1766 72.0859C51.5824 70.7405 49.8088 68.0323 49.8088 64.9081Z" fill="#FFB1A0"/>
<path d="M78.0771 64.9081C78.0771 61.784 79.8506 59.0756 82.4448 57.7302C81.3323 57.1531 80.0698 56.8252 78.7301 56.8252C74.2661 56.8252 70.647 60.4441 70.647 64.9081C70.647 69.372 74.2661 72.9909 78.7301 72.9909C80.0698 72.9909 81.3323 72.663 82.4448 72.0859C79.8506 70.7405 78.0771 68.0323 78.0771 64.9081Z" fill="#FFB1A0"/>
<path d="M85.7907 72.9907H71.6694C67.7792 72.9907 64.5962 76.174 64.5962 80.0637V86.9041C64.5962 87.9394 65.4355 88.7791 66.471 88.7791H90.9899C92.0252 88.7791 92.8642 87.9394 92.8642 86.9041V80.0637C92.8642 76.174 89.6811 72.9907 85.7907 72.9907Z" fill="#FFE181"/>
<path d="M19.3805 86.9044V80.0647C19.3805 76.1742 22.5634 72.9912 26.4536 72.9912H15.1327C11.2425 72.9912 8.05957 76.1742 8.05957 80.0647V86.9044C8.05957 87.9397 8.89883 88.7794 9.93435 88.7794H21.2554C20.2199 88.7794 19.3805 87.9397 19.3805 86.9044Z" fill="#FF4756"/>
<path d="M47.6487 86.9044V80.0647C47.6487 76.1742 50.8317 72.9912 54.7219 72.9912H43.4009C39.5107 72.9912 36.3276 76.1742 36.3276 80.0647V86.9044C36.3276 87.9397 37.1669 88.7794 38.2024 88.7794H49.5235C48.488 88.7794 47.6487 87.9397 47.6487 86.9044Z" fill="#0290F4"/>
<path d="M75.9169 86.9044V80.0647C75.9169 76.1742 79.1 72.9912 82.9897 72.9912H71.6689C67.7787 72.9912 64.5957 76.1742 64.5957 80.0647V86.9044C64.5957 87.9397 65.435 88.7794 66.4705 88.7794H77.7919C76.7566 88.7794 75.9169 87.9397 75.9169 86.9044Z" fill="#FEC458"/>
<path d="M6.68115 6.55518H94.2428V56.8253H6.68115V6.55518Z" fill="#FF656F"/>
<path d="M6.68115 6.55518H13.093V56.8253H6.68115V6.55518Z" fill="#FF4756"/>
<path d="M50.4619 17.3999C42.6022 17.3999 36.1714 23.8307 36.1714 31.6904C36.1714 39.5502 42.6022 45.9809 50.4619 45.9809C58.3217 45.9809 64.7524 39.5502 64.7524 31.6904C64.7524 23.8307 58.3217 17.3999 50.4619 17.3999Z" fill="#DFEBFA"/>
<path d="M42.5833 31.6904C42.5833 24.9325 47.339 19.2352 53.6679 17.7695C52.636 17.5304 51.5637 17.3999 50.4619 17.3999C42.6022 17.3999 36.1714 23.8307 36.1714 31.6904C36.1714 39.5502 42.6022 45.9811 50.4619 45.9811C51.5637 45.9811 52.636 45.8506 53.6679 45.6116C47.339 44.1458 42.5833 38.4485 42.5833 31.6904Z" fill="#B1DBFC"/>
<path d="M56.4496 30.4124L48.3265 25.5195C47.332 24.9204 46.0645 25.6368 46.0645 26.7976V36.583C46.0645 37.744 47.332 38.4602 48.3265 37.8613L56.4496 32.9685C57.4128 32.3885 57.4128 30.9924 56.4496 30.4124Z" fill="#FF656F"/>
</g>
<defs>
<clipPath id="clip0_2566_39427">
<rect width="100" height="88.2353" fill="white" transform="translate(0.669922 0.543945)"/>
</clipPath>
</defs>
</svg>
