<svg width="301" height="301" viewBox="0 0 301 301" fill="none" xmlns="http://www.w3.org/2000/svg">
<g clip-path="url(#clip0_2573_66915)">
<path d="M299.624 146.803L249.384 162.508L259.48 170.445L216.01 213.422L177.897 182.52L25.801 300.24L27.1353 300.26H65.0297L177.538 213.197L217.703 245.772L278.636 185.529L289.529 194.087L299.624 146.803Z" fill="#C0D8FB"/>
<path d="M200.339 156.263C200.398 156.132 200.477 156.019 200.577 155.906C200.637 155.831 200.717 155.755 200.817 155.681L201.155 155.342L201.254 155.398C203.026 154.571 206.691 155.455 210.375 157.731C214.855 160.496 217.723 164.276 216.886 166.307L217.005 166.401L216.508 166.871C216.488 166.891 216.468 166.909 216.429 166.947L216.408 166.966C216.289 167.078 216.129 167.172 215.97 167.248C214.218 168.113 210.534 167.248 206.79 164.953C202.25 162.132 199.343 158.257 200.339 156.263Z" fill="#FFA412"/>
<path d="M210.892 157.261C206.332 154.459 201.852 153.781 200.856 155.775C199.88 157.769 202.767 161.643 207.327 164.465C211.888 167.267 216.368 167.944 217.364 165.951C218.339 163.957 215.452 160.063 210.892 157.261Z" fill="#FFB93E"/>
<path d="M207.586 163.881C205.675 162.696 204.042 161.285 202.967 159.875C201.871 158.446 201.493 157.185 201.892 156.339C202.111 155.906 202.489 155.606 203.067 155.455C204.739 155.004 207.726 155.869 210.653 157.675C212.565 158.859 214.198 160.27 215.273 161.681C216.368 163.11 216.746 164.371 216.348 165.217C216.13 165.649 215.751 165.95 215.174 166.1C214.875 166.176 214.536 166.214 214.178 166.214C212.446 166.232 209.996 165.367 207.586 163.881ZM203.146 155.775C202.668 155.906 202.349 156.151 202.19 156.49C201.832 157.223 202.21 158.389 203.226 159.706C204.281 161.078 205.894 162.471 207.766 163.637C210.096 165.085 212.525 165.931 214.178 165.931C214.517 165.931 214.815 165.893 215.074 165.819C215.552 165.687 215.871 165.442 216.03 165.104C216.389 164.371 216.01 163.204 214.994 161.887C213.939 160.514 212.326 159.123 210.454 157.956C208.125 156.508 205.695 155.662 204.042 155.662C203.723 155.662 203.405 155.699 203.146 155.775Z" fill="#FFA412"/>
<path d="M227.839 55.3382C227.879 55.2441 227.938 55.169 227.998 55.0937C228.038 55.0373 228.098 54.9808 228.157 54.9433L228.396 54.6987L228.455 54.7363C229.71 54.1533 232.319 54.774 234.928 56.3914C238.094 58.3476 240.145 61.0371 239.547 62.4854L239.627 62.5418L239.268 62.8803C239.249 62.8991 239.228 62.9179 239.209 62.9368L239.189 62.9555C239.109 63.0308 238.99 63.106 238.89 63.1624C237.656 63.7831 235.027 63.1624 232.379 61.5261C229.192 59.5136 227.142 56.7488 227.839 55.3382Z" fill="#FFA412"/>
<path d="M235.346 56.0347C232.12 54.041 228.934 53.5707 228.217 54.9814C227.52 56.392 229.572 59.1569 232.797 61.1504C236.023 63.1441 239.209 63.6144 239.926 62.2038C240.623 60.7932 238.572 58.0283 235.346 56.0347Z" fill="#FFB93E"/>
<path d="M232.996 60.7366C231.642 59.8902 230.467 58.8933 229.71 57.8965C228.933 56.8809 228.655 55.9781 228.954 55.395C229.093 55.0941 229.392 54.8872 229.789 54.7744C230.985 54.4546 233.095 55.0753 235.166 56.3542C236.521 57.2006 237.696 58.1975 238.452 59.1943C239.228 60.2099 239.508 61.1127 239.209 61.6958C239.069 61.9968 238.771 62.2036 238.372 62.3165C238.153 62.3729 237.915 62.4105 237.655 62.4105C236.441 62.4105 234.709 61.8087 232.996 60.7366ZM229.849 54.9812C229.511 55.0753 229.292 55.2446 229.173 55.489C228.914 55.9969 229.192 56.8432 229.91 57.7837C230.666 58.7618 231.801 59.7397 233.135 60.5673C234.788 61.6018 236.521 62.2036 237.696 62.2036C237.934 62.2036 238.153 62.1848 238.333 62.1284C238.671 62.0344 238.89 61.8651 239.009 61.6206C239.268 61.1127 238.99 60.2664 238.273 59.326C237.516 58.3479 236.381 57.3699 235.047 56.5424C233.394 55.5079 231.661 54.9061 230.486 54.9061C230.248 54.9061 230.029 54.9248 229.849 54.9812Z" fill="#FFA412"/>
<path d="M239.448 135.349C239.408 135.254 239.348 135.161 239.268 135.085C239.209 135.029 239.169 134.973 239.109 134.916L238.85 134.672L238.79 134.71C237.496 134.107 234.828 134.746 232.12 136.421C228.854 138.433 226.764 141.217 227.361 142.684L227.261 142.74L227.62 143.079C227.639 143.097 227.659 143.117 227.679 143.135L227.699 143.154C227.799 143.229 227.898 143.304 228.018 143.361C229.292 144.001 232 143.361 234.728 141.687C238.053 139.637 240.165 136.797 239.448 135.349Z" fill="#FFA412"/>
<path d="M231.741 136.063C235.066 134.013 238.352 133.524 239.069 134.973C239.786 136.421 237.675 139.26 234.35 141.31C231.025 143.361 227.739 143.85 227.021 142.402C226.285 140.953 228.396 138.113 231.741 136.063Z" fill="#FFB93E"/>
<path d="M229.352 142.627C229.073 142.627 228.835 142.591 228.616 142.534C228.197 142.421 227.919 142.195 227.76 141.894C227.46 141.274 227.739 140.352 228.536 139.318C229.313 138.302 230.527 137.248 231.921 136.402C234.052 135.086 236.242 134.446 237.456 134.766C237.875 134.879 238.153 135.105 238.313 135.405C238.612 136.027 238.333 136.948 237.536 137.982C236.759 138.998 235.545 140.051 234.151 140.898C232.399 142.007 230.607 142.627 229.352 142.627ZM236.74 134.898C235.525 134.898 233.753 135.519 232.06 136.571C230.686 137.418 229.511 138.434 228.735 139.43C227.998 140.39 227.719 141.255 227.978 141.782C228.098 142.026 228.336 142.214 228.675 142.308C228.874 142.364 229.094 142.384 229.332 142.384C230.547 142.384 232.319 141.762 234.012 140.709C235.386 139.863 236.561 138.848 237.337 137.85C238.074 136.891 238.353 136.027 238.094 135.499C237.974 135.255 237.736 135.067 237.397 134.973C237.198 134.935 236.978 134.898 236.74 134.898Z" fill="#FFA412"/>
<path d="M201.752 78.9808C201.772 78.9243 201.812 78.8679 201.852 78.8303C201.892 78.7927 201.911 78.7551 201.951 78.7362L202.111 78.5858L202.151 78.6046C202.947 78.2473 204.56 78.6234 206.213 79.6391C208.204 80.8616 209.478 82.5543 209.1 83.4571L209.16 83.4948L208.941 83.7016C208.921 83.7205 208.921 83.7205 208.901 83.7392C208.841 83.7956 208.781 83.8333 208.702 83.8709C207.925 84.247 206.272 83.8709 204.62 82.8553C202.589 81.5951 201.314 79.8648 201.752 78.9808Z" fill="#FFA412"/>
<path d="M206.433 79.432C204.402 78.1906 202.41 77.8898 201.972 78.7737C201.534 79.6577 202.828 81.3881 204.84 82.6294C206.871 83.8707 208.863 84.1717 209.3 83.2877C209.758 82.4037 208.464 80.6734 206.433 79.432Z" fill="#FFB93E"/>
<path d="M204.959 82.3658C204.103 81.8392 203.385 81.2185 202.907 80.579C202.41 79.9396 202.25 79.3753 202.429 78.9991C202.529 78.811 202.688 78.6794 202.947 78.6041C203.704 78.3973 205.018 78.7923 206.313 79.601C207.169 80.1276 207.885 80.7483 208.363 81.3878C208.862 82.0273 209.021 82.5915 208.841 82.9676C208.742 83.1558 208.583 83.2875 208.324 83.3626C208.184 83.4003 208.045 83.419 207.885 83.419C207.129 83.419 206.034 83.0429 204.959 82.3658ZM203.007 78.7734C202.808 78.8298 202.648 78.9427 202.589 79.0932C202.429 79.4129 202.609 79.9396 203.047 80.5226C203.504 81.1245 204.222 81.7452 205.058 82.2717C206.094 82.9112 207.169 83.2874 207.906 83.2874C208.045 83.2874 208.184 83.2686 208.304 83.231C208.503 83.1746 208.662 83.0617 208.722 82.9112C208.881 82.5915 208.702 82.0649 208.264 81.4818C207.786 80.88 207.09 80.2593 206.253 79.7326C205.217 79.0931 204.142 78.717 203.406 78.717C203.246 78.717 203.107 78.7358 203.007 78.7734Z" fill="#FFA412"/>
<path d="M50.3735 139.261C50.3138 139.149 50.2541 139.055 50.1744 138.96C50.1147 138.886 50.055 138.829 49.9753 138.773L49.6766 138.49L49.597 138.547C48.1035 137.851 45.0368 138.584 41.9305 140.503C38.1669 142.816 35.7574 146.014 36.4543 147.707L36.3548 147.781L36.773 148.177C36.7929 148.195 36.8128 148.214 36.8327 148.233L36.8526 148.252C36.9522 148.346 37.0717 148.421 37.211 148.496C38.6846 149.23 41.791 148.496 44.9373 146.559C48.7806 144.208 51.2099 140.936 50.3735 139.261Z" fill="#FFA412"/>
<path d="M41.4922 140.089C45.3155 137.737 49.099 137.173 49.9154 138.829C50.7517 140.502 48.3025 143.757 44.4792 146.126C40.6758 148.496 36.8924 149.06 36.0759 147.386C35.2396 145.731 37.6689 142.458 41.4922 140.089Z" fill="#FFB93E"/>
<path d="M38.7447 147.65C38.426 147.65 38.1473 147.612 37.9083 147.556C37.4305 147.424 37.0919 147.18 36.9326 146.822C36.5941 146.108 36.9127 145.054 37.8287 143.851C38.7247 142.665 40.1187 141.48 41.7118 140.484C44.1809 138.96 46.6701 138.227 48.0839 138.603C48.5617 138.735 48.9003 138.98 49.0596 139.337C49.3981 140.051 49.0795 141.105 48.1635 142.308C47.2675 143.494 45.8735 144.678 44.2804 145.675C42.2693 146.916 40.1984 147.65 38.7447 147.65ZM47.2475 138.753C45.8536 138.753 43.8225 139.468 41.8511 140.691C40.278 141.669 38.9239 142.835 38.0278 143.982C37.1716 145.092 36.8529 146.07 37.1516 146.691C37.291 146.972 37.5698 147.179 37.9681 147.293C38.1872 147.349 38.446 147.387 38.7247 147.387C40.1187 147.387 42.1498 146.672 44.1212 145.449C45.6943 144.472 47.0484 143.305 47.9445 142.158C48.8007 141.048 49.1193 140.07 48.8206 139.45C48.6813 139.167 48.4025 138.96 48.0042 138.848C47.7852 138.791 47.5263 138.753 47.2475 138.753Z" fill="#FFA412"/>
<path d="M9.81179 93.9525C9.77196 93.8955 9.73214 93.8394 9.69232 93.7832C9.6525 93.7455 9.61266 93.7078 9.57283 93.6701L9.39362 93.5008L9.35379 93.5385C8.47763 93.1437 6.70536 93.5578 4.89329 94.6858C2.70287 96.0402 1.30896 97.8832 1.70721 98.8797L1.64747 98.9174L1.88644 99.1437C1.90635 99.1622 1.90636 99.1622 1.92627 99.1806C1.98601 99.2376 2.06565 99.2753 2.1453 99.313C3.00156 99.7455 4.81363 99.313 6.64562 98.1841C8.87588 96.8297 10.2897 94.9306 9.81179 93.9525Z" fill="#FFA412"/>
<path d="M4.63363 94.4405C6.86389 93.0677 9.05433 92.7484 9.53224 93.7072C10.0101 94.6853 8.59633 96.5853 6.36607 97.9581C4.13581 99.3309 1.94536 99.651 1.46745 98.6914C0.989534 97.7133 2.42328 95.8142 4.63363 94.4405Z" fill="#FFB93E"/>
<path d="M3.04076 98.8232C2.86154 98.8232 2.70224 98.8048 2.54293 98.7671C2.26415 98.6917 2.06501 98.5408 1.96545 98.3346C1.76631 97.9206 1.94554 97.2996 2.48319 96.6039C3.00094 95.9268 3.81737 95.2311 4.75328 94.6478C6.18702 93.7636 7.64068 93.3311 8.45712 93.5575C8.73591 93.632 8.93503 93.7829 9.0346 93.9899C9.23372 94.4031 9.05452 95.0241 8.51686 95.7197C7.99911 96.3969 7.18268 97.0925 6.24676 97.6759C5.0918 98.4092 3.87711 98.8232 3.04076 98.8232ZM7.99912 93.6513C7.18269 93.6513 6.00781 94.0645 4.85285 94.7794C3.93684 95.3434 3.14032 96.0206 2.62259 96.6978C2.12476 97.3373 1.94554 97.9206 2.10484 98.2776C2.18449 98.4469 2.34381 98.5601 2.58276 98.6162C2.70224 98.6539 2.86154 98.6732 3.02085 98.6732C3.83729 98.6732 5.01216 98.2592 6.16711 97.5443C7.08312 96.9803 7.87965 96.3031 8.39738 95.6259C8.89521 94.9864 9.07443 94.4031 8.91512 94.046C8.83547 93.8767 8.67616 93.7636 8.4372 93.7075C8.29781 93.6697 8.15843 93.6513 7.99912 93.6513Z" fill="#FFA412"/>
<path d="M46.431 107.098C46.4708 107.024 46.5106 106.948 46.5704 106.873C46.6101 106.817 46.6699 106.779 46.7097 106.741L46.9288 106.534L46.9885 106.572C48.1037 106.064 50.3737 106.61 52.6837 108.02C55.4715 109.751 57.2637 112.12 56.7459 113.381L56.8256 113.437L56.507 113.738C56.487 113.757 56.4672 113.776 56.4672 113.776C56.3875 113.851 56.3079 113.907 56.2083 113.945C55.1131 114.491 52.8031 113.945 50.4733 112.497C47.6257 110.767 45.8137 108.341 46.431 107.098Z" fill="#FFA412"/>
<path d="M53.0221 107.72C50.1746 105.971 47.3669 105.557 46.7496 106.798C46.1323 108.04 47.9444 110.466 50.7919 112.234C53.6394 113.983 56.4472 114.397 57.0644 113.156C57.6818 111.895 55.8697 109.469 53.0221 107.72Z" fill="#FFB93E"/>
<path d="M50.9515 111.857C49.7567 111.124 48.7411 110.239 48.0641 109.356C47.3671 108.453 47.1282 107.681 47.3871 107.136C47.5264 106.873 47.7654 106.685 48.1238 106.591C49.1792 106.309 51.0312 106.854 52.8631 107.982C54.058 108.717 55.0735 109.6 55.7505 110.484C56.4475 111.387 56.6865 112.158 56.4276 112.703C56.2882 112.967 56.0492 113.155 55.6908 113.249C55.5116 113.305 55.2925 113.324 55.0735 113.324C53.9982 113.324 52.4649 112.797 50.9515 111.857ZM48.1836 106.779C47.8849 106.854 47.6857 107.004 47.5862 107.231C47.3671 107.681 47.6061 108.415 48.2433 109.243C48.9005 110.108 49.9161 110.974 51.071 111.688C52.5246 112.59 54.038 113.117 55.0735 113.117C55.2726 113.117 55.4718 113.098 55.6311 113.042C55.9298 112.967 56.1289 112.817 56.2285 112.59C56.4475 112.139 56.2085 111.406 55.5714 110.578C54.9142 109.713 53.8987 108.848 52.7437 108.133C51.29 107.231 49.7766 106.703 48.7411 106.703C48.542 106.723 48.3428 106.741 48.1836 106.779Z" fill="#FFA412"/>
<path d="M66.4035 178.665C66.4035 178.665 65.8659 176.125 72.019 168.339C73.3532 166.665 77.4154 160.326 77.4154 160.326C79.0284 159.951 84.0066 162.471 85.3408 163.222C85.5996 163.373 85.759 163.467 85.759 163.467C85.759 163.467 87.8897 172.213 83.3495 171.236C83.2101 171.198 83.0707 171.179 82.9314 171.16C78.5305 170.521 74.309 174.621 72.3774 177.235C71.1229 178.947 67.2399 178.74 66.4035 178.665Z" fill="#233862"/>
<path d="M98.9611 161.662C98.9611 161.662 98.4235 159.122 104.577 151.336C105.911 149.662 109.973 143.324 109.973 143.324C111.586 142.948 116.565 145.468 117.899 146.221C118.157 146.371 118.316 146.465 118.316 146.465C118.316 146.465 120.447 155.211 115.907 154.233C115.768 154.195 115.629 154.176 115.489 154.158C111.089 153.518 106.867 157.618 104.935 160.232C103.66 161.944 99.7977 161.718 98.9611 161.662Z" fill="#233862"/>
<path d="M168.437 118.328C167.183 113.212 153.145 97.2434 145.956 100.949C138.768 104.654 142.491 124.722 149.978 148.402C150.098 148.759 150.218 149.117 150.337 149.474C135.243 147.142 117.262 146.427 117.262 146.427L115.37 154.665C128.97 158.22 155.395 170.558 166.486 175.862C170.727 177.668 175.706 177.668 176.722 174.15C180.127 162.377 168.437 118.328 168.437 118.328Z" fill="#2F4785"/>
<path d="M141.655 192.093C141.655 192.093 109.536 178.401 89.961 172.871C87.5315 172.194 85.3013 171.63 83.3499 171.235L85.4008 163.297C85.4008 163.297 87.3125 163.26 90.4388 163.26C102.625 163.297 133.152 163.937 138.608 169.598C145.459 176.708 141.655 192.093 141.655 192.093Z" fill="#FFB27D"/>
<path d="M165.929 4.48122C166.984 6.77582 167.821 9.78513 167.104 11.365C166.287 13.1707 166.527 14.4684 166.527 14.4684L164.794 14.8634L162.724 15.3336C162.724 15.3336 162.603 15.1643 162.444 14.8821C162.285 14.6 162.066 14.1863 161.847 13.7349C161.847 13.7349 161.747 12.8697 160.871 12.4747C159.995 12.0798 159.079 11.0829 158.9 10.1049C158.741 9.14566 157.685 7.32126 157.984 7.13317C158.701 6.66297 159.796 9.4842 160.434 9.61583C161.01 9.72873 161.19 9.35255 161.23 9.27732V9.25851C162.225 6.9639 160.373 1.17097 161.847 0.832419C162.384 0.738378 165.471 3.50318 165.929 4.48122Z" fill="#FFB27D"/>
<path d="M54.7945 50.7871C56.5867 52.6304 59.1554 54.5676 60.9874 54.5864C63.0583 54.6052 64.2332 55.3387 64.2332 55.3387L65.3085 54.0034L66.6028 52.4047C66.6028 52.4047 66.4833 52.2354 66.2842 51.9909C66.0851 51.7276 64.6115 50.5803 64.5916 49.6586C64.5717 48.7371 63.9743 47.5333 63.0982 47.0067C62.2219 46.4613 60.9077 44.8249 60.609 45.013C59.8723 45.4456 62.1622 47.5145 62.0228 48.1163C61.9034 48.6618 61.4454 48.6618 61.3657 48.6618H61.3458C58.7173 48.6054 53.8586 44.6556 52.9426 45.8029C52.5841 46.2168 54.0378 49.9972 54.7945 50.7871Z" fill="#FFB27D"/>
<path d="M132.495 122.146C124.57 124.083 126.561 133.074 127.736 157.769C127.876 160.571 128.154 163.26 128.532 165.838C116.923 163.637 99.0814 163.298 90.4388 163.28C90.4388 163.28 89.0051 166.289 89.0648 168.696C89.2042 173.831 91.9721 177.216 91.9721 177.216C111.546 182.746 141.655 192.075 141.655 192.075C141.655 192.075 141.655 192.075 141.655 192.056C143.666 192.545 145.558 191.605 147.051 188.878C153.045 178.044 163.281 105.971 163.281 105.971C163.38 100.742 140.42 120.209 132.495 122.146Z" fill="#344F97"/>
<path d="M119.552 66.8118C119.552 66.8118 122.34 60.1349 116.923 50.6367L124.63 52.2542L129.866 53.3451C129.866 53.3451 130.723 55.0378 131.857 58.16C132.157 58.9875 133.252 62.279 133.59 63.3135C135.422 63.3886 132.774 66.0218 129.01 66.5296C124.789 67.1127 119.552 66.8118 119.552 66.8118Z" fill="#FFB27D"/>
<path d="M129.866 53.3448C129.866 53.3448 130.723 55.0376 131.857 58.1597C127.357 59.4199 119.353 55.3008 119.353 55.3008C121.165 53.7398 122.956 52.7806 124.629 52.2539L129.866 53.3448Z" fill="#ED975D"/>
<path d="M133.311 50.8622C133.311 50.8622 124.39 60.1723 118.337 54.8495C112.283 49.508 107.046 47.1193 112.482 40.9503C117.919 34.7812 121.363 35.6651 123.833 36.9817C126.321 38.2983 135.482 48.3043 133.311 50.8622Z" fill="#FFB27D"/>
<path d="M117.839 54.2665C117.839 54.2665 118.755 53.3072 117.421 52.0658C116.107 50.8245 114.594 49.0189 116.047 48.4735C117.5 47.928 118.317 48.7744 118.357 47.8904C118.397 47.0065 116.565 44.8058 119.95 42.0222C123.335 39.2386 125.724 39.3139 126.8 37.4143C127.855 35.5146 125.983 33.1072 125.983 33.1072C125.983 33.1072 126.223 34.2921 125.745 35.0821C125.745 35.0821 125.505 29.5148 120.328 29.4772C115.151 29.4207 113.259 33.4269 111.507 34.8939C107.683 38.1478 105.274 40.3107 106.05 43.8091C106.867 47.2698 113.239 53.7962 117.839 54.2665Z" fill="#2B478B"/>
<path d="M127.736 48.9252L131.041 45.9912C131.041 45.9912 132.396 47.9473 131.44 48.7937C130.504 49.6212 127.736 48.9252 127.736 48.9252Z" fill="white"/>
<path d="M172.161 31.3013C170.748 23.0257 166.486 13.9413 166.486 13.9413L161.847 13.7344C161.847 13.7344 162.364 24.9441 162.245 32.7683C162.185 36.53 160.453 39.9343 159.975 40.5361C158.541 42.3605 137.314 61.6389 136.617 62.2596L136.597 62.2784C134.347 62.6358 134.585 66.153 132.276 66.736C128.413 67.714 121.981 65.9273 118.556 67.131C118.556 67.131 91.0161 67.1686 86.8144 65.2689C82.6128 63.3693 66.2841 51.9903 66.2841 51.9903L63.2573 55.3194C63.2573 55.3194 74.4684 75.7263 83.3695 79.3939C88.2083 81.3876 98.8419 83.7951 107.524 85.5818C110.949 86.2778 113.717 88.6849 114.752 91.8638C122.917 116.747 118.815 137.737 118.815 137.737C118.815 137.737 126.64 138.565 136.397 136.007C149.082 132.678 158.342 127.298 158.342 127.298C161.906 123.217 159.795 108.208 159.795 108.208C159.795 108.208 162.265 110.729 163.081 114.923C163.678 117.951 163.997 119.624 164.196 120.697C164.375 121.694 165.61 122.164 166.486 121.562C168.318 120.283 170.927 118.289 171.743 116.823C174.591 111.707 168.258 90.8674 159.477 76.3282C157.904 73.7326 157.964 70.5353 159.636 67.9961C165.033 59.8334 173.317 46.8745 173.416 44.2602C173.495 42.8496 172.978 36.0597 172.161 31.3013Z" fill="#2BC2EC"/>
<path d="M131.679 68.6176C131.679 68.6176 139.067 78.5295 133.65 88.103C128.233 97.676 106.927 96.3594 102.984 108.322L105.374 115.77L114.275 111.218C114.275 111.218 115.011 104.748 123.773 101.946C140.879 96.4541 145 86.9744 141.416 78.4919C138.389 71.326 133.988 67.8652 133.988 67.8652L131.679 68.6176Z" fill="#F99746"/>
<path d="M120.249 63.1631L128.831 65.8339L129.249 67.3762L118.556 67.1317C118.556 67.1317 119.113 64.8183 120.249 63.1631Z" fill="#F99746"/>
<path d="M132.794 60.9434L133.072 65.1376C133.072 65.1376 134.187 66.0027 134.187 65.8899C134.168 65.777 136.598 62.2976 136.598 62.2976C136.598 62.2976 134.586 61.376 132.794 60.9434Z" fill="#F99746"/>
<path d="M128.831 65.8342L133.212 64.4425C133.61 64.3108 134.028 64.574 134.088 64.969L134.446 67.7526C134.487 68.0536 134.307 68.3357 133.988 68.4297L132.057 69.0504C131.857 69.1257 131.619 69.0881 131.439 68.9564L128.632 66.9627C128.214 66.643 128.313 66.0035 128.831 65.8342Z" fill="#ED7D2B"/>
<path d="M161.628 13.1514L161.25 16.6308C161.25 16.6308 165.889 16.7061 165.889 16.6308C165.889 16.5556 166.029 14.9005 166.029 14.9005L166.805 16.8189L168.538 16.2923L166.567 13.1514C166.567 13.1514 164.595 14.0353 161.628 13.1514Z" fill="#233862"/>
<path d="M66.2841 51.9912L63.2573 55.3202L64.1336 58.5741L65.3681 57.7842L64.7707 55.3391L66.8815 56.9754L69.6296 53.5523L66.2841 51.9912Z" fill="#233862"/>
<path d="M65.6072 55.0563C65.6072 54.9059 65.7267 54.793 65.886 54.793C66.0453 54.793 66.1648 54.9059 66.1648 55.0563C66.1648 55.2068 66.0453 55.3196 65.886 55.3196C65.7466 55.3196 65.6072 55.188 65.6072 55.0563Z" fill="#EBF3FA"/>
<path d="M165.033 15.3524C165.033 15.2395 165.133 15.1455 165.252 15.1455C165.371 15.1455 165.471 15.2395 165.471 15.3524C165.471 15.4652 165.371 15.5593 165.252 15.5593C165.133 15.5593 165.033 15.4652 165.033 15.3524Z" fill="#EBF3FA"/>
<path d="M157.725 96.3217C157.725 96.0016 157.983 95.7568 158.322 95.7568C158.66 95.7568 158.919 96.0016 158.919 96.3217C158.919 96.641 158.66 96.8858 158.322 96.8858C158.004 96.8858 157.725 96.641 157.725 96.3217Z" fill="#EBF3FA"/>
<path d="M152.986 86.9744C152.986 86.6546 153.245 86.4102 153.583 86.4102C153.921 86.4102 154.18 86.6546 154.18 86.9744C154.18 87.2941 153.921 87.5387 153.583 87.5387C153.245 87.5387 152.986 87.2753 152.986 86.9744Z" fill="#EBF3FA"/>
<path d="M146.434 79.8835C146.434 79.5639 146.693 79.3193 147.032 79.3193C147.371 79.3193 147.629 79.5639 147.629 79.8835C147.629 80.2033 147.371 80.4478 147.032 80.4478C146.693 80.4478 146.434 80.2033 146.434 79.8835Z" fill="#EBF3FA"/>
</g>
<defs>
<clipPath id="clip0_2573_66915">
<rect width="299.997" height="300" fill="white" transform="translate(0.501709 0.830078)"/>
</clipPath>
</defs>
</svg>
