<svg width="24" height="25" viewBox="0 0 24 25" fill="none" xmlns="http://www.w3.org/2000/svg">
<path d="M6.5 2.16162C5.11929 2.16162 4 3.28091 4 4.66162V19.6616C4 21.0423 5.11929 22.1616 6.5 22.1616H19.75C20.1642 22.1616 20.5 21.8258 20.5 21.4116C20.5 20.9974 20.1642 20.6616 19.75 20.6616H6.5C5.94772 20.6616 5.5 20.2139 5.5 19.6616H19.75C20.1642 19.6616 20.5 19.3258 20.5 18.9116V4.66162C20.5 3.28091 19.3807 2.16162 18 2.16162H6.5ZM8 5.16162H16C16.5523 5.16162 17 5.60934 17 6.16162V7.16162C17 7.7139 16.5523 8.16162 16 8.16162H8C7.44772 8.16162 7 7.7139 7 7.16162V6.16162C7 5.60934 7.44772 5.16162 8 5.16162Z" fill="url(#paint0_linear_2637_3581)"/>
<defs>
<linearGradient id="paint0_linear_2637_3581" x1="-15.1216" y1="15.3918" x2="-6.99163" y2="-7.57151" gradientUnits="userSpaceOnUse">
<stop stop-color="#C53232"/>
<stop offset="1" stop-color="#7C36DD"/>
</linearGradient>
</defs>
</svg>
