<svg width="24" height="25" viewBox="0 0 24 25" fill="none" xmlns="http://www.w3.org/2000/svg">
<path opacity="0.2" d="M17.5912 15.1616H11.6587L14.6249 7.00537L17.5912 15.1616Z" fill="black"/>
<path d="M20.2051 20.1547L15.4229 7.00537L16.2751 4.66162H17.2501C17.449 4.66162 17.6398 4.5826 17.7804 4.44195C17.9211 4.3013 18.0001 4.11053 18.0001 3.91162C18.0001 3.71271 17.9211 3.52194 17.7804 3.38129C17.6398 3.24064 17.449 3.16162 17.2501 3.16162H8.25008C8.05117 3.16162 7.8604 3.24064 7.71975 3.38129C7.5791 3.52194 7.50008 3.71271 7.50008 3.91162C7.50008 4.11053 7.5791 4.3013 7.71975 4.44195C7.8604 4.5826 8.05117 4.66162 8.25008 4.66162H8.67946L3.04508 20.1547C3.01133 20.2474 2.99617 20.3458 3.00047 20.4443C3.00478 20.5428 3.02846 20.6395 3.07017 20.7288C3.11188 20.8181 3.17079 20.8984 3.24354 20.9649C3.31629 21.0315 3.40145 21.083 3.49414 21.1166C3.57626 21.1461 3.66282 21.1614 3.75008 21.1616C3.90411 21.1616 4.05439 21.1142 4.18053 21.0258C4.30666 20.9374 4.40252 20.8123 4.45508 20.6676L5.36633 18.1616H9.77258L9.04696 20.1547C9.0132 20.2474 8.99804 20.3458 9.00235 20.4443C9.00665 20.5428 9.03034 20.6395 9.07204 20.7288C9.11375 20.8181 9.17267 20.8984 9.24542 20.9649C9.31817 21.0315 9.40333 21.083 9.49602 21.1166C9.57754 21.1459 9.66345 21.1612 9.75008 21.1616C9.90411 21.1616 10.0544 21.1142 10.1805 21.0258C10.3067 20.9374 10.4025 20.8123 10.4551 20.6676L12.1876 15.9116H17.0626L18.7923 20.6676C18.845 20.8128 18.9413 20.9382 19.068 21.0266C19.1947 21.1151 19.3456 21.1622 19.5001 21.1616C19.5873 21.1614 19.6739 21.1461 19.756 21.1166C19.8487 21.083 19.9339 21.0315 20.0066 20.9649C20.0794 20.8984 20.1383 20.8181 20.18 20.7288C20.2217 20.6395 20.2454 20.5428 20.2497 20.4443C20.254 20.3458 20.2388 20.2474 20.2051 20.1547ZM11.9551 12.1616H7.54883L8.63914 9.16162H13.0454L11.9551 12.1616ZM14.6823 4.66162L13.5882 7.66162H9.18758L10.2751 4.66162H14.6823ZM5.91196 16.6616L7.00321 13.6616H11.4095L10.3126 16.6616H5.91196ZM12.7295 14.4116L14.6251 9.20006L16.5198 14.4116H12.7295Z" fill="#0063B0"/>
</svg>
