<svg width="24" height="25" viewBox="0 0 24 25" fill="none" xmlns="http://www.w3.org/2000/svg">
<path opacity="0.2" d="M17.5912 15.1616H11.6587L14.6249 7.00537L17.5912 15.1616Z" fill="black"/>
<path d="M20.205 20.1547L15.4228 7.00537L16.275 4.66162H17.25C17.4489 4.66162 17.6396 4.5826 17.7803 4.44195C17.9209 4.3013 18 4.11053 18 3.91162C18 3.71271 17.9209 3.52194 17.7803 3.38129C17.6396 3.24064 17.4489 3.16162 17.25 3.16162H8.24996C8.05105 3.16162 7.86028 3.24064 7.71963 3.38129C7.57898 3.52194 7.49996 3.71271 7.49996 3.91162C7.49996 4.11053 7.57898 4.3013 7.71963 4.44195C7.86028 4.5826 8.05105 4.66162 8.24996 4.66162H8.67934L3.04496 20.1547C3.0112 20.2474 2.99604 20.3458 3.00035 20.4443C3.00465 20.5428 3.02834 20.6395 3.07005 20.7288C3.11176 20.8181 3.17067 20.8984 3.24342 20.9649C3.31617 21.0315 3.40133 21.083 3.49402 21.1166C3.57613 21.1461 3.6627 21.1614 3.74996 21.1616C3.90398 21.1616 4.05427 21.1142 4.18041 21.0258C4.30654 20.9374 4.4024 20.8123 4.45496 20.6676L5.36621 18.1616H9.77246L9.04683 20.1547C9.01308 20.2474 8.99792 20.3458 9.00222 20.4443C9.00653 20.5428 9.03021 20.6395 9.07192 20.7288C9.11363 20.8181 9.17255 20.8984 9.2453 20.9649C9.31805 21.0315 9.4032 21.083 9.4959 21.1166C9.57742 21.1459 9.66333 21.1612 9.74996 21.1616C9.90398 21.1616 10.0543 21.1142 10.1804 21.0258C10.3065 20.9374 10.4024 20.8123 10.455 20.6676L12.1875 15.9116H17.0625L18.7921 20.6676C18.8449 20.8128 18.9412 20.9382 19.0679 21.0266C19.1945 21.1151 19.3455 21.1622 19.5 21.1616C19.5872 21.1614 19.6738 21.1461 19.7559 21.1166C19.8486 21.083 19.9337 21.0315 20.0065 20.9649C20.0792 20.8984 20.1382 20.8181 20.1799 20.7288C20.2216 20.6395 20.2453 20.5428 20.2496 20.4443C20.2539 20.3458 20.2387 20.2474 20.205 20.1547ZM11.955 12.1616H7.54871L8.63902 9.16162H13.0453L11.955 12.1616ZM14.6821 4.66162L13.5881 7.66162H9.18746L10.275 4.66162H14.6821ZM5.91184 16.6616L7.00308 13.6616H11.4093L10.3125 16.6616H5.91184ZM12.7293 14.4116L14.625 9.20006L16.5196 14.4116H12.7293Z" fill="#0063B0"/>
</svg>
