<svg width="50" height="51" viewBox="0 0 50 51" fill="none" xmlns="http://www.w3.org/2000/svg">
<path opacity="0.2" d="M38.2578 38.4194L30.5234 30.6851C31.988 29.22 32.8108 27.2332 32.8108 25.1616C32.8108 23.09 31.988 21.1032 30.5234 19.6382L38.2578 11.9038C41.7738 15.4201 43.7491 20.189 43.7491 25.1616C43.7491 30.1342 41.7738 34.9032 38.2578 38.4194ZM11.7422 11.9038C8.22612 15.4201 6.25085 20.189 6.25085 25.1616C6.25085 30.1342 8.22612 34.9032 11.7422 38.4194L19.4765 30.6851C18.0119 29.22 17.1891 27.2332 17.1891 25.1616C17.1891 23.09 18.0119 21.1032 19.4765 19.6382L11.7422 11.9038Z" fill="black"/>
<path d="M25 4.84912C20.9826 4.84912 17.0554 6.04043 13.715 8.27239C10.3746 10.5044 7.77111 13.6767 6.23371 17.3884C4.6963 21.1 4.29405 25.1842 5.07781 29.1244C5.86157 33.0646 7.79615 36.684 10.6369 39.5247C13.4777 42.3655 17.097 44.3001 21.0372 45.0838C24.9775 45.8676 29.0616 45.4653 32.7733 43.9279C36.4849 42.3905 39.6573 39.787 41.8892 36.4466C44.1212 33.1063 45.3125 29.1791 45.3125 25.1616C45.3068 19.7762 43.1649 14.6129 39.3568 10.8048C35.5487 6.9967 30.3855 4.85481 25 4.84912ZM32.6367 30.5894C33.7672 29.0053 34.3749 27.1077 34.3749 25.1616C34.3749 23.2155 33.7672 21.318 32.6367 19.7339L38.2031 14.1694C40.7776 17.2538 42.1877 21.144 42.1877 25.1616C42.1877 29.1792 40.7776 33.0694 38.2031 36.1538L32.6367 30.5894ZM18.75 25.1616C18.75 23.9255 19.1166 22.7171 19.8033 21.6893C20.4901 20.6615 21.4662 19.8604 22.6082 19.3874C23.7503 18.9143 25.0069 18.7906 26.2193 19.0317C27.4317 19.2729 28.5453 19.8681 29.4194 20.7422C30.2935 21.6163 30.8888 22.7299 31.1299 23.9423C31.3711 25.1547 31.2473 26.4114 30.7743 27.5534C30.3012 28.6954 29.5001 29.6715 28.4723 30.3583C27.4445 31.0451 26.2361 31.4116 25 31.4116C23.3424 31.4116 21.7527 30.7531 20.5806 29.581C19.4085 28.4089 18.75 26.8192 18.75 25.1616ZM35.9922 11.9585L30.4277 17.5249C28.8437 16.3944 26.9461 15.7868 25 15.7868C23.0539 15.7868 21.1564 16.3944 19.5723 17.5249L14.0078 11.9585C17.0922 9.38408 20.9824 7.97393 25 7.97393C29.0176 7.97393 32.9078 9.38408 35.9922 11.9585ZM11.7969 14.1694L17.3633 19.7339C16.2328 21.318 15.6252 23.2155 15.6252 25.1616C15.6252 27.1077 16.2328 29.0053 17.3633 30.5894L11.7969 36.1538C9.22246 33.0694 7.81231 29.1792 7.81231 25.1616C7.81231 21.144 9.22246 17.2538 11.7969 14.1694ZM14.0078 38.3647L19.5723 32.7983C21.1564 33.9288 23.0539 34.5365 25 34.5365C26.9461 34.5365 28.8437 33.9288 30.4277 32.7983L35.9922 38.3647C32.9078 40.9392 29.0176 42.3493 25 42.3493C20.9824 42.3493 17.0922 40.9392 14.0078 38.3647Z" fill="url(#paint0_linear_2593_94954)"/>
<defs>
<linearGradient id="paint0_linear_2593_94954" x1="-10.1117" y1="48.9452" x2="19.2061" y2="6.31576" gradientUnits="userSpaceOnUse">
<stop stop-color="#FFC200" stop-opacity="0"/>
<stop offset="0.203" stop-color="#FFBB00" stop-opacity="0.203"/>
<stop offset="0.499" stop-color="#FFA700" stop-opacity="0.499"/>
<stop offset="0.852" stop-color="#FF8800" stop-opacity="0.852"/>
<stop offset="1" stop-color="#FF7800"/>
</linearGradient>
</defs>
</svg>
