<svg width="100" height="101" viewBox="0 0 100 101" fill="none" xmlns="http://www.w3.org/2000/svg">
<path opacity="0.2" d="M76.5156 76.6772L61.0469 61.2085C63.9761 58.2784 65.6217 54.3048 65.6217 50.1616C65.6217 46.0184 63.9761 42.0449 61.0469 39.1147L76.5156 23.646C83.5477 30.6785 87.4983 40.2164 87.4983 50.1616C87.4983 60.1068 83.5477 69.6447 76.5156 76.6772ZM23.4844 23.646C16.4523 30.6785 12.5018 40.2164 12.5018 50.1616C12.5018 60.1068 16.4523 69.6447 23.4844 76.6772L38.9531 61.2085C36.0239 58.2784 34.3783 54.3048 34.3783 50.1616C34.3783 46.0184 36.0239 42.0449 38.9531 39.1147L23.4844 23.646Z" fill="black"/>
<path d="M50 9.53662C41.9652 9.53662 34.1107 11.9192 27.43 16.3832C20.7492 20.8471 15.5422 27.1919 12.4674 34.6151C9.3926 42.0384 8.58809 50.2067 10.1556 58.0872C11.7231 65.9676 15.5923 73.2063 21.2738 78.8878C26.9553 84.5693 34.194 88.4385 42.0745 90.006C49.955 91.5735 58.1233 90.769 65.5465 87.6942C72.9698 84.6194 79.3145 79.4124 83.7785 72.7317C88.2424 66.0509 90.625 58.1965 90.625 50.1616C90.6136 39.3907 86.3299 29.0642 78.7137 21.448C71.0975 13.8318 60.7709 9.548 50 9.53662ZM65.2735 61.0171C67.5344 57.8489 68.7497 54.0538 68.7497 50.1616C68.7497 46.2694 67.5344 42.4743 65.2735 39.3062L76.4063 28.1772C81.5551 34.3461 84.3754 42.1264 84.3754 50.1616C84.3754 58.1968 81.5551 65.9772 76.4063 72.146L65.2735 61.0171ZM37.5 50.1616C37.5 47.6894 38.2331 45.2726 39.6066 43.217C40.9802 41.1614 42.9324 39.5592 45.2165 38.6131C47.5005 37.667 50.0139 37.4195 52.4386 37.9018C54.8634 38.3841 57.0907 39.5746 58.8389 41.3228C60.587 43.0709 61.7775 45.2982 62.2598 47.723C62.7421 50.1478 62.4946 52.6611 61.5485 54.9452C60.6024 57.2292 59.0003 59.1815 56.9446 60.555C54.889 61.9285 52.4723 62.6616 50 62.6616C46.6848 62.6616 43.5054 61.3447 41.1612 59.0005C38.817 56.6562 37.5 53.4768 37.5 50.1616ZM71.9844 23.7554L60.8555 34.8882C57.6873 32.6272 53.8922 31.4119 50 31.4119C46.1078 31.4119 42.3127 32.6272 39.1445 34.8882L28.0156 23.7554C34.1845 18.6065 41.9648 15.7862 50 15.7862C58.0352 15.7862 65.8156 18.6065 71.9844 23.7554ZM23.5938 28.1772L34.7266 39.3062C32.4656 42.4743 31.2503 46.2694 31.2503 50.1616C31.2503 54.0538 32.4656 57.8489 34.7266 61.0171L23.5938 72.146C18.4449 65.9772 15.6246 58.1968 15.6246 50.1616C15.6246 42.1264 18.4449 34.3461 23.5938 28.1772ZM28.0156 76.5679L39.1445 65.4351C42.3127 67.696 46.1078 68.9113 50 68.9113C53.8922 68.9113 57.6873 67.696 60.8555 65.4351L71.9844 76.5679C65.8156 81.7167 58.0352 84.537 50 84.537C41.9648 84.537 34.1845 81.7167 28.0156 76.5679Z" fill="url(#paint0_linear_2593_94954)"/>
<defs>
<linearGradient id="paint0_linear_2593_94954" x1="-20.2234" y1="97.7288" x2="38.4123" y2="12.4699" gradientUnits="userSpaceOnUse">
<stop stop-color="#FFC200" stop-opacity="0"/>
<stop offset="0.203" stop-color="#FFBB00" stop-opacity="0.203"/>
<stop offset="0.499" stop-color="#FFA700" stop-opacity="0.499"/>
<stop offset="0.852" stop-color="#FF8800" stop-opacity="0.852"/>
<stop offset="1" stop-color="#FF7800"/>
</linearGradient>
</defs>
</svg>
