<svg width="32" height="33" viewBox="0 0 32 33" fill="none" xmlns="http://www.w3.org/2000/svg">
<path opacity="0.2" d="M24.485 25.1468L19.535 20.1968C20.4724 19.2591 20.999 17.9876 20.999 16.6618C20.999 15.3359 20.4724 14.0644 19.535 13.1268L24.485 8.17676C26.7353 10.4272 27.9995 13.4793 27.9995 16.6618C27.9995 19.8442 26.7353 22.8963 24.485 25.1468ZM7.51505 8.17676C5.26478 10.4272 4.00061 13.4793 4.00061 16.6618C4.00061 19.8442 5.26478 22.8963 7.51505 25.1468L12.465 20.1968C11.5277 19.2591 11.0011 17.9876 11.0011 16.6618C11.0011 15.3359 11.5277 14.0644 12.465 13.1268L7.51505 8.17676Z" fill="black"/>
<path d="M16 3.66162C13.4288 3.66162 10.9154 4.42406 8.77759 5.85252C6.63975 7.28097 4.97351 9.3113 3.98957 11.6867C3.00563 14.0622 2.74819 16.676 3.2498 19.1978C3.75141 21.7195 4.98953 24.0359 6.80762 25.854C8.6257 27.6721 10.9421 28.9102 13.4638 29.4118C15.9856 29.9134 18.5995 29.656 20.9749 28.6721C23.3503 27.6881 25.3807 26.0219 26.8091 23.884C28.2376 21.7462 29 19.2328 29 16.6616C28.9964 13.2149 27.6256 9.91044 25.1884 7.47325C22.7512 5.03607 19.4467 3.66526 16 3.66162ZM20.8875 20.1354C21.611 19.1216 21.9999 17.9071 21.9999 16.6616C21.9999 15.4161 21.611 14.2017 20.8875 13.1879L24.45 9.62662C26.0976 11.6006 27.0001 14.0903 27.0001 16.6616C27.0001 19.2329 26.0976 21.7226 24.45 23.6966L20.8875 20.1354ZM12 16.6616C12 15.8705 12.2346 15.0971 12.6741 14.4393C13.1137 13.7815 13.7384 13.2689 14.4693 12.9661C15.2002 12.6634 16.0044 12.5841 16.7804 12.7385C17.5563 12.8928 18.269 13.2738 18.8284 13.8332C19.3878 14.3926 19.7688 15.1053 19.9231 15.8813C20.0775 16.6572 19.9983 17.4614 19.6955 18.1924C19.3928 18.9233 18.8801 19.548 18.2223 19.9875C17.5645 20.427 16.7911 20.6616 16 20.6616C14.9391 20.6616 13.9217 20.2402 13.1716 19.49C12.4214 18.7399 12 17.7225 12 16.6616ZM23.035 8.21162L19.4738 11.7741C18.4599 11.0506 17.2455 10.6617 16 10.6617C14.7545 10.6617 13.5401 11.0506 12.5263 11.7741L8.96501 8.21162C10.939 6.56399 13.4287 5.6615 16 5.6615C18.5713 5.6615 21.061 6.56399 23.035 8.21162ZM7.55001 9.62662L11.1125 13.1879C10.389 14.2017 10.0001 15.4161 10.0001 16.6616C10.0001 17.9071 10.389 19.1216 11.1125 20.1354L7.55001 23.6966C5.90238 21.7226 4.99988 19.2329 4.99988 16.6616C4.99988 14.0903 5.90238 11.6006 7.55001 9.62662ZM8.96501 25.1116L12.5263 21.5491C13.5401 22.2726 14.7545 22.6615 16 22.6615C17.2455 22.6615 18.4599 22.2726 19.4738 21.5491L23.035 25.1116C21.061 26.7593 18.5713 27.6617 16 27.6617C13.4287 27.6617 10.939 26.7593 8.96501 25.1116Z" fill="black"/>
</svg>
