<svg width="24" height="24" viewBox="0 0 24 24" fill="none" xmlns="http://www.w3.org/2000/svg">
<path opacity="0.2" d="M19.5 8.25H4.5C4.30109 8.25 4.11032 8.32902 3.96967 8.46967C3.82902 8.61032 3.75 8.80109 3.75 9V19.5C3.75 19.6989 3.82902 19.8897 3.96967 20.0303C4.11032 20.171 4.30109 20.25 4.5 20.25H19.5C19.6989 20.25 19.8897 20.171 20.0303 20.0303C20.171 19.8897 20.25 19.6989 20.25 19.5V9C20.25 8.80109 20.171 8.61032 20.0303 8.46967C19.8897 8.32902 19.6989 8.25 19.5 8.25ZM12 15C11.6292 15 11.2666 14.89 10.9583 14.684C10.65 14.478 10.4096 14.1851 10.2677 13.8425C10.1258 13.4999 10.0887 13.1229 10.161 12.7592C10.2334 12.3955 10.412 12.0614 10.6742 11.7992C10.9364 11.537 11.2705 11.3584 11.6342 11.286C11.9979 11.2137 12.3749 11.2508 12.7175 11.3927C13.0601 11.5346 13.353 11.775 13.559 12.0833C13.765 12.3916 13.875 12.7542 13.875 13.125C13.875 13.6223 13.6775 14.0992 13.3258 14.4508C12.9742 14.8025 12.4973 15 12 15Z" fill="black"/>
<path d="M19.5 6.75H9V4.75C9 4.04276 9.31607 3.36448 9.87868 2.86438C10.4413 2.36428 11.2044 2.08333 12 2.08333C13.4409 2.08333 14.7375 3 15.015 4.21583C15.0562 4.38764 15.172 4.53805 15.3373 4.63437C15.5026 4.73069 15.7039 4.76513 15.8976 4.73022C16.0913 4.6953 16.2616 4.59385 16.3716 4.44791C16.4816 4.30196 16.5224 4.12333 16.485 3.95083C16.0612 2.09583 14.175 0.75 12 0.75C10.8069 0.751103 9.66303 1.17288 8.81939 1.92279C7.97575 2.6727 7.50124 3.68947 7.5 4.75V6.75H4.5C4.10218 6.75 3.72064 6.89048 3.43934 7.14052C3.15804 7.39057 3 7.72971 3 8.08333V17.4167C3 17.7703 3.15804 18.1094 3.43934 18.3595C3.72064 18.6095 4.10218 18.75 4.5 18.75H19.5C19.8978 18.75 20.2794 18.6095 20.5607 18.3595C20.842 18.1094 21 17.7703 21 17.4167V8.08333C21 7.72971 20.842 7.39057 20.5607 7.14052C20.2794 6.89048 19.8978 6.75 19.5 6.75ZM19.5 17.4167H4.5V8.08333H19.5V17.4167ZM12 9.41667C11.3696 9.41686 10.7604 9.61868 10.2836 9.98525C9.80684 10.3518 9.4944 10.8587 9.40339 11.4131C9.31238 11.9676 9.44887 12.5326 9.78793 13.005C10.127 13.4774 10.646 13.8255 11.25 13.9858V15.4167C11.25 15.5935 11.329 15.763 11.4697 15.8881C11.6103 16.0131 11.8011 16.0833 12 16.0833C12.1989 16.0833 12.3897 16.0131 12.5303 15.8881C12.671 15.763 12.75 15.5935 12.75 15.4167V13.9858C13.354 13.8255 13.873 13.4774 14.2121 13.005C14.5511 12.5326 14.6876 11.9676 14.5966 11.4131C14.5056 10.8587 14.1932 10.3518 13.7164 9.98525C13.2396 9.61868 12.6304 9.41686 12 9.41667ZM12 12.75C11.7775 12.75 11.56 12.6914 11.375 12.5815C11.19 12.4716 11.0458 12.3154 10.9606 12.1327C10.8755 11.95 10.8532 11.7489 10.8966 11.5549C10.94 11.3609 11.0472 11.1827 11.2045 11.0429C11.3618 10.903 11.5623 10.8078 11.7805 10.7692C11.9988 10.7306 12.225 10.7504 12.4305 10.8261C12.6361 10.9018 12.8118 11.03 12.9354 11.1944C13.059 11.3589 13.125 11.5522 13.125 11.75C13.125 12.0152 13.0065 12.2696 12.7955 12.4571C12.5845 12.6446 12.2984 12.75 12 12.75Z" fill="black"/>
</svg>
