<svg width="24" height="24" viewBox="0 0 24 24" fill="none" xmlns="http://www.w3.org/2000/svg">
<path opacity="0.2" d="M14.25 7.5V16.5C14.25 16.6989 14.171 16.8897 14.0303 17.0303C13.8897 17.171 13.6989 17.25 13.5 17.25H3.75C3.55109 17.25 3.36032 17.171 3.21967 17.0303C3.07902 16.8897 3 16.6989 3 16.5V7.5C3 7.30109 3.07902 7.11032 3.21967 6.96967C3.36032 6.82902 3.55109 6.75 3.75 6.75H13.5C13.6989 6.75 13.8897 6.82902 14.0303 6.96967C14.171 7.11032 14.25 7.30109 14.25 7.5Z" fill="black"/>
<path d="M18.75 2.25H6.75C6.35218 2.25 5.97064 2.40804 5.68934 2.68934C5.40804 2.97064 5.25 3.35218 5.25 3.75V6H3.75C3.35218 6 2.97064 6.15804 2.68934 6.43934C2.40804 6.72064 2.25 7.10218 2.25 7.5V16.5C2.25 16.8978 2.40804 17.2794 2.68934 17.5607C2.97064 17.842 3.35218 18 3.75 18H5.25V20.25C5.25 20.6478 5.40804 21.0294 5.68934 21.3107C5.97064 21.592 6.35218 21.75 6.75 21.75H18.75C19.1478 21.75 19.5294 21.592 19.8107 21.3107C20.092 21.0294 20.25 20.6478 20.25 20.25V3.75C20.25 3.35218 20.092 2.97064 19.8107 2.68934C19.5294 2.40804 19.1478 2.25 18.75 2.25ZM15 9.75H18.75V14.25H15V9.75ZM6.75 3.75H18.75V8.25H15V7.5C15 7.10218 14.842 6.72064 14.5607 6.43934C14.2794 6.15804 13.8978 6 13.5 6H6.75V3.75ZM3.75 7.5H13.5V14.9841C13.5 14.9897 13.5 14.9944 13.5 15C13.5 15.0056 13.5 15.0103 13.5 15.0159V16.5H3.75V7.5ZM6.75 20.25V18H13.5C13.8978 18 14.2794 17.842 14.5607 17.5607C14.842 17.2794 15 16.8978 15 16.5V15.75H18.75V20.25H6.75ZM6.3975 14.4319L5.2725 9.93188C5.2467 9.8357 5.2403 9.73536 5.25369 9.63669C5.26708 9.53802 5.29998 9.443 5.35048 9.35718C5.40098 9.27136 5.46806 9.19646 5.54781 9.13684C5.62756 9.07722 5.71838 9.03407 5.81498 9.00992C5.91158 8.98577 6.01202 8.9811 6.11045 8.99618C6.20887 9.01126 6.30331 9.04578 6.38825 9.09774C6.47319 9.1497 6.54694 9.21805 6.60518 9.29881C6.66343 9.37958 6.70501 9.47113 6.7275 9.56812L7.36125 12.0994L7.95375 10.9125C8.01595 10.7877 8.11172 10.6827 8.23029 10.6093C8.34887 10.5359 8.48555 10.497 8.625 10.497C8.76445 10.497 8.90113 10.5359 9.01971 10.6093C9.13828 10.6827 9.23405 10.7877 9.29625 10.9125L9.88875 12.0994L10.5225 9.56812C10.5735 9.37816 10.697 9.21581 10.8665 9.11607C11.0361 9.01632 11.238 8.98716 11.4288 9.03486C11.6196 9.08257 11.784 9.20332 11.8867 9.3711C11.9893 9.53888 12.0219 9.74027 11.9775 9.93188L10.8525 14.4319C10.8151 14.5804 10.7332 14.7138 10.6177 14.8144C10.5023 14.915 10.3588 14.9778 10.2066 14.9944C10.1795 14.9973 10.1522 14.9989 10.125 14.9991C9.98567 14.9992 9.84906 14.9604 9.73049 14.8873C9.61193 14.8141 9.5161 14.7093 9.45375 14.5847L8.625 12.9272L7.79625 14.5856C7.72775 14.7228 7.61885 14.8357 7.48423 14.9091C7.3496 14.9825 7.19572 15.0128 7.04331 14.9961C6.8909 14.9793 6.74728 14.9163 6.63181 14.8154C6.51634 14.7145 6.43457 14.5807 6.3975 14.4319Z" fill="black"/>
</svg>
