<svg width="94" height="101" viewBox="0 0 94 101" fill="none" xmlns="http://www.w3.org/2000/svg">
<g clip-path="url(#clip0_2566_39510)">
<path d="M53.8782 83.1334C70.0536 79.3098 80.0666 63.0975 76.2431 46.9223C72.4196 30.747 56.2072 20.734 40.0319 24.5576C23.8566 28.3811 13.8434 44.5934 17.667 60.7687C21.4905 76.9439 37.7028 86.9567 53.8782 83.1334Z" fill="#FABE2C"/>
<path d="M46.9541 23.7705V83.9718C63.5518 83.9718 77.0547 70.4688 77.0547 53.8713C77.0547 37.2738 63.5516 23.7705 46.9541 23.7705Z" fill="#FF9100"/>
<path d="M79.6862 21.1391C72.5202 13.9731 63.4179 9.44829 53.5597 8.0481L56.4448 5.16275C57.589 4.0186 57.589 2.16372 56.4448 1.01958C55.3009 -0.124365 53.4458 -0.124365 52.3017 1.01958L44.8823 8.43892C43.7382 9.58287 43.7382 11.438 44.8823 12.5821L52.3015 20.0012C52.8736 20.5733 53.6233 20.8595 54.373 20.8595C55.1226 20.8595 55.8726 20.5733 56.4445 20.0012C57.5886 18.8573 57.5886 17.0022 56.4445 15.858L54.7917 14.2053C73.3468 17.8655 87.3844 34.2587 87.3844 53.8712C87.3852 76.165 69.2476 94.3025 46.954 94.3025C24.6605 94.3025 6.52295 76.165 6.52295 53.8714C6.52295 45.3645 9.13366 37.227 14.0732 30.3387C18.9101 23.5932 25.5781 18.5598 33.3567 15.7829C34.8806 15.2387 35.6747 13.5625 35.1307 12.0385C34.5868 10.5147 32.9102 9.72054 31.3864 10.2645C22.4796 13.4444 14.8462 19.2054 9.31124 26.9243C3.65381 34.8141 0.663574 44.1323 0.663574 53.8715C0.663574 66.2362 5.47862 77.8606 14.2218 86.6041C22.965 95.3466 34.5894 100.162 46.954 100.162C59.3187 100.162 70.9431 95.3466 79.6862 86.6033C88.4294 77.8605 93.2444 66.236 93.2444 53.8714C93.2444 41.5067 88.4294 29.8821 79.6862 21.1391Z" fill="#5C7099"/>
<path d="M50.5307 50.9646C48.2131 50.1454 45.6531 49.1581 44.2387 48.0487C43.8846 47.771 43.7336 47.0676 43.8711 46.3378C43.9432 45.955 44.2786 44.6761 45.5668 44.2881C47.8338 43.6051 49.3783 44.5034 49.9373 44.9208C51.2338 45.8899 53.0694 45.6247 54.0379 44.3286C55.0069 43.0325 54.7416 41.1967 53.4457 40.228C52.9086 39.8265 51.5988 38.9676 49.7242 38.5015V37.7153C49.7242 36.0973 48.4126 34.7856 46.7946 34.7856C45.1766 34.7856 43.8649 36.0973 43.8649 37.7153V38.6819C40.9119 39.5765 38.7084 42.0926 38.1131 45.2526C37.5625 48.1751 38.5241 51.013 40.6229 52.6591C42.6985 54.287 45.6726 55.4618 48.5777 56.4888C50.8694 57.2987 50.937 59.0536 50.7732 60.0275C50.5001 61.6531 49.1322 63.4101 46.7751 63.4256C44.3137 63.4417 43.6135 63.331 41.7556 62.1156C40.4014 61.2294 38.586 61.6091 37.7 62.9634C36.8143 64.3175 37.1937 66.1331 38.5479 67.0191C40.5686 68.3409 42.0828 68.9175 43.8649 69.1483V70.0272C43.8649 71.6452 45.1766 72.957 46.7946 72.957C48.4126 72.957 49.7242 71.6452 49.7242 70.0272V68.8487C51.1047 68.4288 52.3662 67.7114 53.4536 66.7126C55.0838 65.2147 56.1838 63.1855 56.5516 60.9986C57.302 56.5352 54.8825 52.5028 50.5307 50.9646Z" fill="#FFE666"/>
<path d="M53.5597 8.0481L56.4449 5.16275C57.589 4.0186 57.589 2.16372 56.4449 1.01958C55.3009 -0.124365 53.4458 -0.124365 52.3017 1.01958L44.8825 8.43892C43.7384 9.58287 43.7384 11.438 44.8825 12.5821L52.3017 20.0012C52.8738 20.5733 53.6235 20.8595 54.3732 20.8595C55.1228 20.8595 55.8728 20.5733 56.4446 20.0012C57.5888 18.8573 57.5888 17.0022 56.4446 15.858L54.792 14.2053C73.347 17.8655 87.3846 34.2587 87.3846 53.8712C87.3855 76.165 69.2478 94.3025 46.9542 94.3025V100.162C59.3189 100.162 70.9433 95.3466 79.6865 86.6033C88.4296 77.8605 93.2446 66.236 93.2446 53.8714C93.2446 41.5067 88.4296 29.8823 79.6865 21.1391C72.5205 13.9731 63.4181 9.44812 53.5597 8.0481Z" fill="#404A80"/>
<path d="M50.5305 50.9641C49.3391 50.543 48.0846 50.0769 46.9536 49.5732V55.8972C47.4933 56.1007 48.0366 56.2972 48.5776 56.4885C50.8692 57.2984 50.9368 59.0533 50.7731 60.0272C50.5069 61.6106 49.1995 63.3138 46.9536 63.416V72.9487C48.4971 72.8654 49.7241 71.5912 49.7241 70.027V68.8484C51.1046 68.4285 52.3661 67.7112 53.4534 66.7123C55.0837 65.2145 56.1837 63.1852 56.5514 60.9982C57.3019 56.5347 54.8823 52.5023 50.5305 50.9641Z" fill="#FABE2C"/>
<path d="M46.9536 34.7935V44.0481C48.4636 43.9804 49.5013 44.595 49.9372 44.9208C51.2337 45.89 53.0693 45.6247 54.0378 44.3286C55.0068 43.0325 54.7415 41.1968 53.4456 40.228C52.9085 39.8265 51.5988 38.9677 49.7241 38.5015V37.7154C49.7241 36.1509 48.4972 34.8766 46.9536 34.7935Z" fill="#FABE2C"/>
</g>
<defs>
<clipPath id="clip0_2566_39510">
<rect width="93.3333" height="100" fill="white" transform="translate(0.663574 0.161621)"/>
</clipPath>
</defs>
</svg>
