<svg width="301" height="301" viewBox="0 0 301 301" fill="none" xmlns="http://www.w3.org/2000/svg">
<g clip-path="url(#clip0_2573_67812)">
<path d="M270.44 277.771H250.58V278.014H270.44V277.771Z" fill="#EBEBEB"/>
<path d="M199.22 280.029H194V280.271H199.22V280.029Z" fill="#EBEBEB"/>
<path d="M249.98 270.354H238.46V270.596H249.98V270.354Z" fill="#EBEBEB"/>
<path d="M57.92 271.645H32V271.886H57.92V271.645Z" fill="#EBEBEB"/>
<path d="M67.04 271.645H63.26V271.886H67.04V271.645Z" fill="#EBEBEB"/>
<path d="M135.62 275.111H79.3999V275.353H135.62V275.111Z" fill="#EBEBEB"/>
<path d="M142.7 228.833H26.8399C24.9799 228.833 23.4199 226.737 23.4199 224.237V5.42561C23.4199 2.92629 24.9799 0.830078 26.8399 0.830078H142.7C144.56 0.830078 146.12 2.92629 146.12 5.42561V224.237C146.12 226.818 144.62 228.833 142.7 228.833ZM26.8399 1.07195C25.0399 1.07195 23.5399 3.00692 23.5399 5.50624V224.319C23.5399 226.737 24.9799 228.753 26.8399 228.753H142.7C144.5 228.753 146 226.818 146 224.319V5.42561C146 3.00692 144.56 0.991325 142.7 0.991325H26.8399V1.07195Z" fill="#EBEBEB"/>
<path d="M272.48 228.833H156.62C154.76 228.833 153.2 226.737 153.2 224.237V5.42561C153.2 2.92629 154.76 0.830078 156.62 0.830078H272.48C274.34 0.830078 275.9 2.92629 275.9 5.42561V224.237C275.9 226.818 274.4 228.833 272.48 228.833ZM156.62 1.07195C154.82 1.07195 153.32 3.00692 153.32 5.50624V224.319C153.32 226.737 154.76 228.753 156.62 228.753H272.48C274.28 228.753 275.78 226.818 275.78 224.319V5.42561C275.78 3.00692 274.34 0.991325 272.48 0.991325H156.62V1.07195Z" fill="#EBEBEB"/>
<path d="M300.5 264.791H0.5V265.033H300.5V264.791Z" fill="#EBEBEB"/>
<path d="M90.0201 152.16H76.5801V228.753H90.0201V152.16Z" fill="#E6E6E6"/>
<path d="M112.4 126.038H98.96V228.672H112.4V126.038Z" fill="#E0E0E0"/>
<path d="M134.84 152.16H121.4V228.753H134.84V152.16Z" fill="#EBEBEB"/>
<path d="M45.2 178.201H31.76V228.672H45.2V178.201Z" fill="#F0F0F0"/>
<path d="M67.5799 165.624H54.1399V228.672H67.5799V165.624Z" fill="#EBEBEB"/>
<path d="M157.22 178.201H143.78V228.672H157.22V178.201Z" fill="#F5F5F5"/>
<path d="M269.24 99.916H255.8V228.672H269.24V99.916Z" fill="#E0E0E0"/>
<path d="M179.6 152.16H166.16V228.753H179.6V152.16Z" fill="#F0F0F0"/>
<path d="M246.86 126.038H233.42V228.672H246.86V126.038Z" fill="#E6E6E6"/>
<path d="M224.42 139.502H210.98V228.672H224.42V139.502Z" fill="#EBEBEB"/>
<path d="M202.04 165.624H188.6V228.672H202.04V165.624Z" fill="#F0F0F0"/>
<path d="M50.3813 130.69C51.5693 123.93 48.4539 117.156 43.4231 115.559C38.3922 113.963 33.351 118.149 32.163 124.909C30.9751 131.67 34.0904 138.444 39.1213 140.04C44.1521 141.635 49.1934 137.45 50.3813 130.69Z" fill="#E0E0E0"/>
<path d="M49.0167 136.686C52.672 131.775 52.672 123.811 49.0167 118.9C45.3614 113.988 39.4351 113.988 35.7798 118.9C32.1245 123.811 32.1245 131.775 35.7798 136.686C39.4351 141.598 45.3614 141.598 49.0167 136.686Z" fill="#E6E6E6"/>
<path d="M42.3801 137.246C46.2572 137.246 49.4001 133.022 49.4001 127.812C49.4001 122.602 46.2572 118.379 42.3801 118.379C38.5031 118.379 35.3601 122.602 35.3601 127.812C35.3601 133.022 38.5031 137.246 42.3801 137.246Z" fill="#F0F0F0"/>
<path d="M45.44 129.747C45.74 131.843 44.66 133.214 42.74 133.456L42.68 135.149H41.54L41.6 133.456C40.46 133.294 39.44 132.811 38.78 132.246L39.32 130.311C40.04 130.956 40.88 131.279 41.66 131.44L41.72 128.78C40.58 128.376 39.32 127.732 39.08 125.877C38.78 123.781 39.92 122.411 41.84 122.168L41.9 120.476H43.04L42.98 122.249C43.82 122.33 44.6 122.652 45.26 123.136L44.78 125.071C44.24 124.587 43.58 124.346 42.92 124.265L42.86 127.006C44 127.409 45.2 127.973 45.44 129.747ZM41.72 126.522L41.78 124.265C41.12 124.426 40.82 124.91 40.88 125.554C40.94 126.038 41.24 126.28 41.72 126.522ZM43.64 130.15C43.58 129.667 43.28 129.424 42.86 129.183L42.8 131.359C43.4 131.198 43.7 130.795 43.64 130.15Z" fill="white"/>
<path d="M264.5 58.3142H215.66C213.2 58.3142 211.16 55.5731 211.16 52.2675V27.4354C211.16 24.1299 213.2 21.3887 215.66 21.3887H264.5C266.96 21.3887 269 24.1299 269 27.4354V52.2675C269 55.5731 267.02 58.3142 264.5 58.3142Z" fill="#F0F0F0"/>
<path d="M226.22 53.8H222.14C221.9 53.8 221.72 53.5582 221.72 53.2357V27.0331C221.72 26.7106 221.9 26.4688 222.14 26.4688H226.22C226.46 26.4688 226.64 26.7106 226.64 27.0331V53.2357C226.64 53.5582 226.46 53.8 226.22 53.8Z" fill="white"/>
<path d="M259.52 53.8H255.44C255.2 53.8 255.02 53.5582 255.02 53.2357V27.0331C255.02 26.7106 255.2 26.4688 255.44 26.4688H259.52C259.76 26.4688 259.94 26.7106 259.94 27.0331V53.2357C259.94 53.5582 259.76 53.8 259.52 53.8Z" fill="white"/>
<path d="M243.44 53.7996H239.36C239.12 53.7996 238.94 53.5577 238.94 53.2353V36.0624C238.94 35.7399 239.12 35.498 239.36 35.498H243.44C243.68 35.498 243.86 35.7399 243.86 36.0624V53.2353C243.86 53.5577 243.68 53.7996 243.44 53.7996Z" fill="white"/>
<path d="M234.92 53.7995H230.84C230.6 53.7995 230.42 53.5576 230.42 53.2351V40.416C230.42 40.0934 230.6 39.8516 230.84 39.8516H234.92C235.16 39.8516 235.34 40.0934 235.34 40.416V53.2351C235.34 53.5576 235.16 53.7995 234.92 53.7995Z" fill="white"/>
<path d="M251.48 53.8002H247.4C247.16 53.8002 246.98 53.5583 246.98 53.2358V51.1396C246.98 50.8171 247.16 50.5752 247.4 50.5752H251.48C251.72 50.5752 251.9 50.8171 251.9 51.1396V53.2358C251.9 53.5583 251.72 53.8002 251.48 53.8002Z" fill="white"/>
<path d="M257.54 26.3069C257.3 26.1456 257.06 26.3069 256.94 26.6294L249.74 47.5915C249.62 48.0752 249.14 48.0752 248.96 47.6721L242.24 33.9661C242.12 33.6437 241.82 33.563 241.64 33.8049L233.3 38.3198C233.18 38.4811 233 38.4811 232.82 38.3198L223.7 25.9038C223.46 25.7425 223.22 25.9038 223.1 26.1456V26.2263C222.98 26.4682 223.1 26.8712 223.28 26.9519L232.94 39.6904C233.06 39.771 233.24 39.771 233.42 39.6904L241.46 35.4173C241.64 35.2561 241.94 35.3368 242.06 35.5786L249.14 50.1715C249.32 50.5746 249.8 50.5746 249.92 50.0908L257.78 26.9519C257.84 26.71 257.78 26.3875 257.54 26.3069Z" fill="#E0E0E0"/>
<path d="M133.22 57.3467C138.621 57.3467 143 51.4631 143 44.2051C143 36.9472 138.621 31.0635 133.22 31.0635C127.819 31.0635 123.44 36.9472 123.44 44.2051C123.44 51.4631 127.819 57.3467 133.22 57.3467Z" fill="#E0E0E0"/>
<path opacity="0.8" d="M133.1 54.7669C137.441 54.7669 140.96 50.0383 140.96 44.2052C140.96 38.3722 137.441 33.6436 133.1 33.6436C128.759 33.6436 125.24 38.3722 125.24 44.2052C125.24 50.0383 128.759 54.7669 133.1 54.7669Z" fill="white"/>
<path d="M133.1 46.1402C133.531 46.1402 133.88 45.6709 133.88 45.0921C133.88 44.5132 133.531 44.0439 133.1 44.0439C132.669 44.0439 132.32 44.5132 132.32 45.0921C132.32 45.6709 132.669 46.1402 133.1 46.1402Z" fill="#E0E0E0"/>
<path d="M132.98 45.4954L129.62 41.2224L129.92 40.7387L132.98 44.6086L138.5 38.0781L138.8 38.5619L132.98 45.4954Z" fill="#E0E0E0"/>
<path d="M150.5 300.749C214.753 300.749 266.84 296.671 266.84 291.639C266.84 286.607 214.753 282.528 150.5 282.528C86.2472 282.528 34.1599 286.607 34.1599 291.639C34.1599 296.671 86.2472 300.749 150.5 300.749Z" fill="#F5F5F5"/>
<path d="M170.42 152.16H130.82V292.203H170.42V152.16Z" fill="#FF5A43"/>
<path opacity="0.5" d="M170.54 152.16H141.02V292.203H170.54V152.16Z" fill="black"/>
<path d="M222.14 199.97H182.54V292.284H222.14V199.97Z" fill="#FF5A43"/>
<path opacity="0.3" d="M222.14 199.729H192.62V292.284H222.14V199.729Z" fill="black"/>
<path d="M118.4 177.153H78.8V292.203H118.4V177.153Z" fill="#FF5A43"/>
<path opacity="0.4" d="M118.4 176.911H88.8799V292.283H118.4V176.911Z" fill="black"/>
<path d="M94.2199 292.446C94.1599 294.138 98.1799 295.751 103.22 296.073C108.26 296.396 112.4 295.186 112.46 293.494C112.52 291.8 108.5 290.188 103.46 289.865C98.4199 289.543 94.2799 290.672 94.2199 292.446Z" fill="#FFA412"/>
<path d="M94.354 289.256L94.2546 292.397L112.478 293.437L112.578 290.296L94.354 289.256Z" fill="#FFA412"/>
<path d="M94.3393 289.301C94.2793 290.994 98.2993 292.607 103.339 292.929C108.379 293.251 112.519 292.042 112.579 290.349C112.639 288.656 108.619 287.043 103.579 286.721C98.5393 286.479 94.3993 287.608 94.3393 289.301Z" fill="#FFA412"/>
<path opacity="0.4" d="M94.3393 289.301C94.2793 290.994 98.2993 292.607 103.339 292.929C108.379 293.251 112.519 292.042 112.579 290.349C112.639 288.656 108.619 287.043 103.579 286.721C98.5393 286.479 94.3993 287.608 94.3393 289.301Z" fill="white"/>
<path d="M95.48 289.221C95.48 289.301 95.48 289.462 95.54 289.543C96.14 288.576 99.5 287.93 103.46 288.173C107.48 288.414 110.72 289.382 111.26 290.43C111.32 290.349 111.38 290.269 111.38 290.108C111.44 288.978 107.9 287.769 103.52 287.527C99.14 287.366 95.54 288.092 95.48 289.221Z" fill="#FFA412"/>
<path opacity="0.4" d="M95.48 289.221C95.48 289.301 95.48 289.462 95.54 289.543C96.14 288.576 99.5 287.93 103.46 288.173C107.48 288.414 110.72 289.382 111.26 290.43C111.32 290.349 111.38 290.269 111.38 290.108C111.44 288.978 107.9 287.769 103.52 287.527C99.14 287.366 95.54 288.092 95.48 289.221Z" fill="#FFA412"/>
<path opacity="0.4" d="M95.6001 289.543C96.1401 290.591 99.4401 291.558 103.4 291.8C107.42 292.042 110.72 291.397 111.32 290.429C110.78 289.381 107.48 288.414 103.52 288.172C99.5001 287.93 96.2001 288.575 95.6001 289.543Z" fill="#FFA412"/>
<path d="M92.3 287.688C92.24 289.381 96.26 290.994 101.3 291.316C106.34 291.639 110.48 290.429 110.54 288.736C110.6 287.043 106.58 285.43 101.54 285.108C96.5 284.866 92.36 285.995 92.3 287.688Z" fill="#FFA412"/>
<path d="M92.3946 284.562L92.2952 287.703L110.519 288.741L110.618 285.6L92.3946 284.562Z" fill="#FFA412"/>
<path d="M92.4194 284.624C92.3594 286.318 96.3794 287.93 101.419 288.253C106.459 288.575 110.599 287.366 110.659 285.673C110.719 283.979 106.699 282.367 101.659 282.044C96.6194 281.722 92.4794 282.931 92.4194 284.624Z" fill="#FFA412"/>
<path opacity="0.4" d="M92.4194 284.624C92.3594 286.318 96.3794 287.93 101.419 288.253C106.459 288.575 110.599 287.366 110.659 285.673C110.719 283.979 106.699 282.367 101.659 282.044C96.6194 281.722 92.4794 282.931 92.4194 284.624Z" fill="white"/>
<path d="M93.5601 284.543C93.5601 284.624 93.5601 284.786 93.6201 284.866C94.2201 283.899 97.5801 283.254 101.54 283.496C105.56 283.738 108.8 284.705 109.34 285.753C109.4 285.673 109.46 285.591 109.46 285.43C109.52 284.302 105.98 283.092 101.6 282.851C97.2201 282.609 93.6201 283.415 93.5601 284.543Z" fill="#FFA412"/>
<path opacity="0.4" d="M93.5601 284.543C93.5601 284.624 93.5601 284.786 93.6201 284.866C94.2201 283.899 97.5801 283.254 101.54 283.496C105.56 283.738 108.8 284.705 109.34 285.753C109.4 285.673 109.46 285.591 109.46 285.43C109.52 284.302 105.98 283.092 101.6 282.851C97.2201 282.609 93.6201 283.415 93.5601 284.543Z" fill="#FFA412"/>
<path opacity="0.4" d="M93.6799 284.867C94.2199 285.915 97.5199 286.882 101.48 287.124C105.5 287.366 108.8 286.721 109.4 285.754C108.86 284.706 105.56 283.738 101.6 283.496C97.5799 283.254 94.2799 283.819 93.6799 284.867Z" fill="#FFA412"/>
<path d="M92.54 282.045C92.48 283.738 96.5 285.351 101.54 285.673C106.58 285.995 110.72 284.786 110.78 283.093C110.84 281.4 106.82 279.787 101.78 279.465C96.74 279.223 92.6 280.352 92.54 282.045Z" fill="#FFA412"/>
<path d="M92.6551 278.912L92.5557 282.054L110.779 283.093L110.879 279.951L92.6551 278.912Z" fill="#FFA412"/>
<path d="M92.6594 278.981C92.5994 280.674 96.6193 282.286 101.659 282.609C106.699 282.931 110.839 281.722 110.899 280.029C110.959 278.335 106.939 276.723 101.899 276.4C96.8594 276.079 92.7194 277.207 92.6594 278.981Z" fill="#FFA412"/>
<path opacity="0.4" d="M92.6594 278.981C92.5994 280.674 96.6193 282.286 101.659 282.609C106.699 282.931 110.839 281.722 110.899 280.029C110.959 278.335 106.939 276.723 101.899 276.4C96.8594 276.079 92.7194 277.207 92.6594 278.981Z" fill="white"/>
<path d="M93.8601 278.9C93.8601 278.981 93.8601 279.142 93.9201 279.223C94.5201 278.255 97.8801 277.61 101.84 277.852C105.86 278.094 109.1 279.062 109.64 280.11C109.7 280.029 109.76 279.949 109.76 279.787C109.82 278.658 106.28 277.449 101.9 277.207C97.4601 276.965 93.8601 277.771 93.8601 278.9Z" fill="#FFA412"/>
<path opacity="0.4" d="M93.8601 278.9C93.8601 278.981 93.8601 279.142 93.9201 279.223C94.5201 278.255 97.8801 277.61 101.84 277.852C105.86 278.094 109.1 279.062 109.64 280.11C109.7 280.029 109.76 279.949 109.76 279.787C109.82 278.658 106.28 277.449 101.9 277.207C97.4601 276.965 93.8601 277.771 93.8601 278.9Z" fill="#FFA412"/>
<path opacity="0.4" d="M93.9199 279.223C94.4599 280.271 97.7599 281.238 101.72 281.481C105.74 281.722 109.04 281.077 109.64 280.11C109.1 279.062 105.8 278.095 101.84 277.852C97.8799 277.611 94.5199 278.175 93.9199 279.223Z" fill="#FFA412"/>
<path d="M90.6801 277.368C90.6201 279.062 94.6401 280.674 99.6801 280.997C104.72 281.32 108.86 280.11 108.92 278.417C108.98 276.724 104.96 275.111 99.9201 274.789C94.8201 274.466 90.6801 275.676 90.6801 277.368Z" fill="#FFA412"/>
<path d="M90.7564 274.219L90.657 277.36L108.881 278.401L108.98 275.259L90.7564 274.219Z" fill="#FFA412"/>
<path d="M90.7394 274.224C90.6794 275.917 94.6994 277.53 99.7394 277.852C104.779 278.175 108.919 276.966 108.979 275.272C109.039 273.58 105.019 271.967 99.9794 271.644C94.9394 271.402 90.7994 272.531 90.7394 274.224Z" fill="#FFA412"/>
<path opacity="0.4" d="M90.7394 274.224C90.6794 275.917 94.6994 277.53 99.7394 277.852C104.779 278.175 108.919 276.966 108.979 275.272C109.039 273.58 105.019 271.967 99.9794 271.644C94.9394 271.402 90.7994 272.531 90.7394 274.224Z" fill="white"/>
<path d="M91.9399 274.224C91.9399 274.305 91.9399 274.466 91.9999 274.546C92.5999 273.579 95.9599 272.934 99.9199 273.176C103.94 273.418 107.18 274.385 107.72 275.433C107.78 275.353 107.84 275.272 107.84 275.111C107.9 273.982 104.36 272.773 99.9799 272.531C95.5399 272.289 91.9399 273.014 91.9399 274.224Z" fill="#FFA412"/>
<path opacity="0.4" d="M91.9399 274.224C91.9399 274.305 91.9399 274.466 91.9999 274.546C92.5999 273.579 95.9599 272.934 99.9199 273.176C103.94 273.418 107.18 274.385 107.72 275.433C107.78 275.353 107.84 275.272 107.84 275.111C107.9 273.982 104.36 272.773 99.9799 272.531C95.5399 272.289 91.9399 273.014 91.9399 274.224Z" fill="#FFA412"/>
<path opacity="0.4" d="M92 274.466C92.54 275.515 95.84 276.482 99.8 276.724C103.82 276.966 107.12 276.32 107.72 275.353C107.18 274.305 103.88 273.337 99.92 273.096C95.96 272.934 92.6 273.498 92 274.466Z" fill="#FFA412"/>
<path d="M93.56 273.337C93.5 275.03 97.52 276.643 102.56 276.965C107.6 277.287 111.74 276.078 111.8 274.385C111.86 272.692 107.84 271.079 102.8 270.757C97.76 270.515 93.62 271.644 93.56 273.337Z" fill="#FFA412"/>
<path d="M93.7061 270.219L93.6067 273.36L111.83 274.399L111.93 271.258L93.7061 270.219Z" fill="#FFA412"/>
<path d="M93.6794 270.274C93.6194 271.967 97.6394 273.579 102.679 273.902C107.719 274.225 111.859 273.015 111.919 271.322C111.979 269.629 107.959 268.016 102.919 267.694C97.8794 267.372 93.7394 268.581 93.6794 270.274Z" fill="#FFA412"/>
<path opacity="0.4" d="M93.6794 270.274C93.6194 271.967 97.6394 273.579 102.679 273.902C107.719 274.225 111.859 273.015 111.919 271.322C111.979 269.629 107.959 268.016 102.919 267.694C97.8794 267.372 93.7394 268.581 93.6794 270.274Z" fill="white"/>
<path d="M94.8201 270.193C94.8201 270.274 94.8201 270.435 94.8801 270.516C95.4801 269.548 98.8401 268.903 102.8 269.145C106.82 269.387 110.06 270.355 110.6 271.403C110.66 271.322 110.72 271.242 110.72 271.08C110.78 269.951 107.24 268.742 102.86 268.5C98.4801 268.258 94.8801 269.064 94.8201 270.193Z" fill="#FFA412"/>
<path opacity="0.4" d="M94.8201 270.193C94.8201 270.274 94.8201 270.435 94.8801 270.516C95.4801 269.548 98.8401 268.903 102.8 269.145C106.82 269.387 110.06 270.355 110.6 271.403C110.66 271.322 110.72 271.242 110.72 271.08C110.78 269.951 107.24 268.742 102.86 268.5C98.4801 268.258 94.8801 269.064 94.8201 270.193Z" fill="#FFA412"/>
<path opacity="0.4" d="M94.9399 270.515C95.4799 271.563 98.7799 272.531 102.74 272.773C106.76 273.015 110.06 272.37 110.66 271.402C110.12 270.354 106.82 269.387 102.86 269.145C98.8399 268.903 95.5399 269.548 94.9399 270.515Z" fill="#FFA412"/>
<path d="M91.6401 268.661C91.5801 270.354 95.6001 271.967 100.64 272.289C105.68 272.612 109.82 271.402 109.88 269.71C109.94 268.016 105.92 266.404 100.88 266.081C95.8401 265.84 91.7001 266.968 91.6401 268.661Z" fill="#FFA412"/>
<path d="M91.7473 265.522L91.6479 268.664L109.872 269.704L109.971 266.562L91.7473 265.522Z" fill="#FFA412"/>
<path d="M91.7595 265.598C91.6995 267.29 95.7194 268.903 100.759 269.225C105.799 269.548 109.939 268.339 109.999 266.646C110.059 264.953 106.039 263.34 100.999 263.018C95.9595 262.695 91.8195 263.824 91.7595 265.598Z" fill="#FFA412"/>
<path opacity="0.4" d="M91.7595 265.598C91.6995 267.29 95.7194 268.903 100.759 269.225C105.799 269.548 109.939 268.339 109.999 266.646C110.059 264.953 106.039 263.34 100.999 263.018C95.9595 262.695 91.8195 263.824 91.7595 265.598Z" fill="white"/>
<path d="M92.8999 265.517C92.8999 265.597 92.8999 265.758 92.9599 265.839C93.5599 264.871 96.9199 264.226 100.88 264.469C104.9 264.71 108.14 265.678 108.68 266.726C108.74 266.645 108.8 266.565 108.8 266.404C108.86 265.274 105.32 264.065 100.94 263.823C96.5599 263.582 92.9599 264.387 92.8999 265.517Z" fill="#FFA412"/>
<path opacity="0.4" d="M92.8999 265.517C92.8999 265.597 92.8999 265.758 92.9599 265.839C93.5599 264.871 96.9199 264.226 100.88 264.469C104.9 264.71 108.14 265.678 108.68 266.726C108.74 266.645 108.8 266.565 108.8 266.404C108.86 265.274 105.32 264.065 100.94 263.823C96.5599 263.582 92.9599 264.387 92.8999 265.517Z" fill="#FFA412"/>
<path opacity="0.4" d="M93.02 265.839C93.56 266.888 96.86 267.855 100.82 268.096C104.84 268.339 108.14 267.693 108.74 266.726C108.2 265.678 104.9 264.71 100.94 264.469C96.92 264.227 93.62 264.791 93.02 265.839Z" fill="#FFA412"/>
<path d="M67.04 290.913C66.98 292.607 71 294.219 76.04 294.542C81.08 294.864 85.22 293.655 85.28 291.962C85.34 290.268 81.32 288.656 76.28 288.334C71.24 288.011 67.1 289.221 67.04 290.913Z" fill="#FFA412"/>
<path d="M67.1382 287.733L67.0388 290.875L85.2625 291.915L85.3619 288.773L67.1382 287.733Z" fill="#FFA412"/>
<path d="M67.1594 287.769C67.0994 289.461 71.1194 291.074 76.1594 291.396C81.1994 291.719 85.3394 290.51 85.3994 288.817C85.4594 287.124 81.4394 285.511 76.3994 285.189C71.2994 284.947 67.2194 286.075 67.1594 287.769Z" fill="#FFA412"/>
<path opacity="0.4" d="M67.1594 287.769C67.0994 289.461 71.1194 291.074 76.1594 291.396C81.1994 291.719 85.3394 290.51 85.3994 288.817C85.4594 287.124 81.4394 285.511 76.3994 285.189C71.2994 284.947 67.2194 286.075 67.1594 287.769Z" fill="white"/>
<path d="M68.3 287.769C68.3 287.85 68.3 288.01 68.36 288.091C68.96 287.123 72.32 286.479 76.28 286.721C80.3 286.963 83.54 287.93 84.08 288.978C84.14 288.897 84.2 288.817 84.2 288.656C84.26 287.527 80.72 286.318 76.34 286.076C71.96 285.834 68.36 286.559 68.3 287.769Z" fill="#FFA412"/>
<path opacity="0.4" d="M68.3 287.769C68.3 287.85 68.3 288.01 68.36 288.091C68.96 287.123 72.32 286.479 76.28 286.721C80.3 286.963 83.54 287.93 84.08 288.978C84.14 288.897 84.2 288.817 84.2 288.656C84.26 287.527 80.72 286.318 76.34 286.076C71.96 285.834 68.36 286.559 68.3 287.769Z" fill="#FFA412"/>
<path opacity="0.4" d="M68.3601 288.091C68.9001 289.139 72.2001 290.107 76.1601 290.348C80.1801 290.591 83.4801 289.945 84.0801 288.978C83.5401 287.93 80.2401 286.962 76.2801 286.721C72.3201 286.478 69.0201 287.043 68.3601 288.091Z" fill="#FFA412"/>
<path d="M74.9601 287.849C74.6601 289.543 78.3801 292.122 83.3001 293.734C88.2201 295.267 92.4201 295.186 92.7201 293.573C93.0201 291.881 89.3001 289.3 84.3801 287.688C79.4601 286.156 75.2601 286.237 74.9601 287.849Z" fill="#FFA412"/>
<path d="M75.5322 284.869L74.991 287.928L92.7364 293.6L93.2782 290.541L75.5322 284.869Z" fill="#FFA412"/>
<path d="M75.5001 284.867C75.2001 286.56 78.9201 289.14 83.8401 290.752C88.7601 292.284 92.9601 292.204 93.2601 290.591C93.5601 288.898 89.8401 286.318 84.9201 284.706C80.0001 283.093 75.8001 283.174 75.5001 284.867Z" fill="#FFA412"/>
<path opacity="0.4" d="M75.5001 284.867C75.2001 286.56 78.9201 289.14 83.8401 290.752C88.7601 292.284 92.9601 292.204 93.2601 290.591C93.5601 288.898 89.8401 286.318 84.9201 284.706C80.0001 283.093 75.8001 283.174 75.5001 284.867Z" fill="white"/>
<path d="M76.6399 285.108C76.6399 285.189 76.6399 285.35 76.6999 285.431C77.4199 284.624 80.7799 284.866 84.6799 286.075C88.5799 287.285 91.6399 289.14 91.9999 290.268C92.0599 290.188 92.1199 290.107 92.1199 290.027C92.2999 288.897 88.9999 286.882 84.7399 285.511C80.4799 284.14 76.8799 283.979 76.6399 285.108Z" fill="#FFA412"/>
<path opacity="0.4" d="M76.6399 285.108C76.6399 285.189 76.6399 285.35 76.6999 285.431C77.4199 284.624 80.7799 284.866 84.6799 286.075C88.5799 287.285 91.6399 289.14 91.9999 290.268C92.0599 290.188 92.1199 290.107 92.1199 290.027C92.2999 288.897 88.9999 286.882 84.7399 285.511C80.4799 284.14 76.8799 283.979 76.6399 285.108Z" fill="#FFA412"/>
<path opacity="0.4" d="M76.7 285.431C77.06 286.641 80.1799 288.414 84.0199 289.624C87.9199 290.832 91.28 291.155 92 290.268C91.64 289.059 88.52 287.285 84.68 286.076C80.78 284.867 77.42 284.624 76.7 285.431Z" fill="#FFA412"/>
<path d="M98.1199 267.613C102.66 267.613 106.34 262.668 106.34 256.567C106.34 250.467 102.66 245.522 98.1199 245.522C93.5799 245.522 89.8999 250.467 89.8999 256.567C89.8999 262.668 93.5799 267.613 98.1199 267.613Z" fill="#FFA412"/>
<path d="M99.0801 267.613C103.62 267.613 107.3 262.668 107.3 256.567C107.3 250.467 103.62 245.522 99.0801 245.522C94.5401 245.522 90.8601 250.467 90.8601 256.567C90.8601 262.668 94.5401 267.613 99.0801 267.613Z" fill="#FFA412"/>
<path opacity="0.5" d="M99.0801 267.613C103.62 267.613 107.3 262.668 107.3 256.567C107.3 250.467 103.62 245.522 99.0801 245.522C94.5401 245.522 90.8601 250.467 90.8601 256.567C90.8601 262.668 94.5401 267.613 99.0801 267.613Z" fill="white"/>
<path d="M103.435 262.475C105.848 259.232 105.848 253.974 103.435 250.731C101.021 247.488 97.1086 247.488 94.6952 250.731C92.2813 253.974 92.2813 259.232 94.6952 262.475C97.1086 265.718 101.021 265.718 103.435 262.475Z" fill="#FFA412"/>
<path opacity="0.3" d="M101.6 259.309C101.12 260.035 100.46 260.357 99.6801 260.357C98.4801 260.357 97.5201 259.47 97.1001 258.1H100.4V257.213H96.9201C96.9201 257.052 96.9201 256.891 96.9201 256.81C96.9201 256.649 96.9201 256.487 96.9201 256.407H100.4V255.439H97.1001C97.5201 254.069 98.4801 253.182 99.6801 253.182C100.46 253.182 101.12 253.504 101.6 254.23L101.72 254.391L102.38 253.504L102.26 253.343C101.6 252.456 100.7 251.973 99.6201 251.973C97.8801 251.973 96.4401 253.343 96.0201 255.439H94.8801V256.407H95.9001C95.9001 256.568 95.9001 256.73 95.9001 256.81C95.9001 256.971 95.9001 257.133 95.9001 257.213H94.8801V258.181H96.0201C96.4401 260.277 97.8801 261.647 99.6201 261.647C100.7 261.647 101.6 261.164 102.26 260.196L102.38 260.035L101.72 259.148L101.6 259.309Z" fill="white"/>
<path d="M214.28 293.897C214.22 295.59 210.14 296.799 205.1 296.557C200.06 296.316 196.04 294.703 196.04 293.01C196.1 291.317 200.18 290.108 205.22 290.349C210.26 290.591 214.28 292.204 214.28 293.897Z" fill="#FFA412"/>
<path d="M196.144 289.904L196.06 293.047L214.289 293.925L214.373 290.782L196.144 289.904Z" fill="#FFA412"/>
<path d="M214.34 290.833C214.279 292.526 210.2 293.735 205.16 293.494C200.12 293.252 196.1 291.639 196.1 289.946C196.16 288.253 200.239 287.044 205.279 287.286C210.319 287.527 214.399 289.14 214.34 290.833Z" fill="#FFA412"/>
<path opacity="0.4" d="M214.34 290.833C214.279 292.526 210.2 293.735 205.16 293.494C200.12 293.252 196.1 291.639 196.1 289.946C196.16 288.253 200.239 287.044 205.279 287.286C210.319 287.527 214.399 289.14 214.34 290.833Z" fill="white"/>
<path d="M213.2 290.671C213.2 290.752 213.14 290.913 213.08 290.994C212.54 289.945 209.24 288.978 205.28 288.817C201.26 288.656 197.96 289.22 197.36 290.268C197.3 290.187 197.3 290.027 197.3 289.945C197.36 288.817 200.9 288.01 205.34 288.172C209.66 288.333 213.2 289.461 213.2 290.671Z" fill="#FFA412"/>
<path opacity="0.4" d="M213.2 290.671C213.2 290.752 213.14 290.913 213.08 290.994C212.54 289.945 209.24 288.978 205.28 288.817C201.26 288.656 197.96 289.22 197.36 290.268C197.3 290.187 197.3 290.027 197.3 289.945C197.36 288.817 200.9 288.01 205.34 288.172C209.66 288.333 213.2 289.461 213.2 290.671Z" fill="#FFA412"/>
<path opacity="0.4" d="M213.08 290.913C212.48 291.961 209.12 292.526 205.16 292.364C201.14 292.203 197.9 291.235 197.36 290.187C197.96 289.139 201.26 288.575 205.28 288.736C209.24 288.897 212.54 289.865 213.08 290.913Z" fill="#FFA412"/>
<path d="M216.44 289.462C216.38 291.155 212.3 292.364 207.26 292.123C202.22 291.88 198.2 290.268 198.2 288.576C198.26 286.882 202.34 285.673 207.38 285.915C212.42 286.157 216.5 287.689 216.44 289.462Z" fill="#FFA412"/>
<path d="M198.305 285.369L198.221 288.512L216.45 289.392L216.535 286.249L198.305 285.369Z" fill="#FFA412"/>
<path d="M216.5 286.318C216.44 288.011 212.36 289.221 207.32 288.978C202.28 288.737 198.26 287.125 198.26 285.431C198.32 283.739 202.4 282.529 207.44 282.771C212.54 283.013 216.56 284.625 216.5 286.318Z" fill="#FFA412"/>
<path opacity="0.4" d="M216.5 286.318C216.44 288.011 212.36 289.221 207.32 288.978C202.28 288.737 198.26 287.125 198.26 285.431C198.32 283.739 202.4 282.529 207.44 282.771C212.54 283.013 216.56 284.625 216.5 286.318Z" fill="white"/>
<path d="M215.36 286.157C215.36 286.238 215.3 286.399 215.24 286.479C214.7 285.431 211.4 284.464 207.44 284.303C203.42 284.141 200.12 284.706 199.52 285.754C199.46 285.673 199.46 285.512 199.46 285.431C199.52 284.303 203.06 283.496 207.5 283.657C211.88 283.899 215.42 285.028 215.36 286.157Z" fill="#FFA412"/>
<path opacity="0.4" d="M215.36 286.157C215.36 286.238 215.3 286.399 215.24 286.479C214.7 285.431 211.4 284.464 207.44 284.303C203.42 284.141 200.12 284.706 199.52 285.754C199.46 285.673 199.46 285.512 199.46 285.431C199.52 284.303 203.06 283.496 207.5 283.657C211.88 283.899 215.42 285.028 215.36 286.157Z" fill="#FFA412"/>
<path opacity="0.4" d="M215.3 286.479C214.7 287.527 211.34 288.092 207.38 287.93C203.36 287.769 200.12 286.802 199.58 285.754C200.18 284.706 203.48 284.141 207.5 284.303C211.46 284.464 214.7 285.351 215.3 286.479Z" fill="#FFA412"/>
<path d="M216.5 283.738C216.44 285.431 212.36 286.64 207.32 286.398C202.28 286.157 198.26 284.544 198.26 282.851C198.32 281.157 202.4 279.948 207.44 280.19C212.54 280.432 216.56 282.044 216.5 283.738Z" fill="#FFA412"/>
<path d="M198.405 279.73L198.322 282.873L216.551 283.752L216.635 280.61L198.405 279.73Z" fill="#FFA412"/>
<path d="M216.619 280.674C216.559 282.367 212.479 283.576 207.439 283.335C202.399 283.092 198.379 281.48 198.379 279.787C198.439 278.094 202.519 276.884 207.559 277.127C212.599 277.368 216.679 278.981 216.619 280.674Z" fill="#FFA412"/>
<path opacity="0.4" d="M216.619 280.674C216.559 282.367 212.479 283.576 207.439 283.335C202.399 283.092 198.379 281.48 198.379 279.787C198.439 278.094 202.519 276.884 207.559 277.127C212.599 277.368 216.679 278.981 216.619 280.674Z" fill="white"/>
<path d="M215.48 280.513C215.48 280.594 215.42 280.754 215.36 280.836C214.82 279.787 211.52 278.82 207.56 278.659C203.54 278.498 200.24 279.062 199.64 280.11C199.58 280.029 199.58 279.868 199.58 279.787C199.64 278.659 203.18 277.852 207.62 278.014C211.94 278.175 215.48 279.303 215.48 280.513Z" fill="#FFA412"/>
<path opacity="0.4" d="M215.48 280.513C215.48 280.594 215.42 280.754 215.36 280.836C214.82 279.787 211.52 278.82 207.56 278.659C203.54 278.498 200.24 279.062 199.64 280.11C199.58 280.029 199.58 279.868 199.58 279.787C199.64 278.659 203.18 277.852 207.62 278.014C211.94 278.175 215.48 279.303 215.48 280.513Z" fill="#FFA412"/>
<path opacity="0.4" d="M215.36 280.754C214.76 281.803 211.4 282.367 207.44 282.206C203.42 282.045 200.18 281.077 199.64 280.029C200.24 278.981 203.54 278.417 207.56 278.578C211.52 278.739 214.82 279.706 215.36 280.754Z" fill="#FFA412"/>
<path d="M218.72 279.303C218.66 280.997 214.58 282.206 209.54 281.964C204.5 281.722 200.48 280.11 200.48 278.416C200.54 276.724 204.62 275.515 209.66 275.756C214.7 275.999 218.78 277.611 218.72 279.303Z" fill="#FFA412"/>
<path d="M200.564 275.279L200.48 278.422L218.709 279.3L218.793 276.158L200.564 275.279Z" fill="#FFA412"/>
<path d="M218.78 276.159C218.72 277.852 214.64 279.062 209.6 278.819C204.56 278.578 200.54 276.966 200.54 275.272C200.6 273.579 204.68 272.37 209.72 272.612C214.82 272.853 218.84 274.466 218.78 276.159Z" fill="#FFA412"/>
<path opacity="0.4" d="M218.78 276.159C218.72 277.852 214.64 279.062 209.6 278.819C204.56 278.578 200.54 276.966 200.54 275.272C200.6 273.579 204.68 272.37 209.72 272.612C214.82 272.853 218.84 274.466 218.78 276.159Z" fill="white"/>
<path d="M217.64 275.998C217.64 276.079 217.58 276.239 217.52 276.32C216.98 275.272 213.68 274.305 209.72 274.144C205.7 273.982 202.4 274.547 201.8 275.595C201.74 275.514 201.74 275.352 201.74 275.272C201.8 274.144 205.34 273.337 209.78 273.498C214.1 273.74 217.64 274.869 217.64 275.998Z" fill="#FFA412"/>
<path opacity="0.4" d="M217.64 275.998C217.64 276.079 217.58 276.239 217.52 276.32C216.98 275.272 213.68 274.305 209.72 274.144C205.7 273.982 202.4 274.547 201.8 275.595C201.74 275.514 201.74 275.352 201.74 275.272C201.8 274.144 205.34 273.337 209.78 273.498C214.1 273.74 217.64 274.869 217.64 275.998Z" fill="#FFA412"/>
<path opacity="0.4" d="M217.52 276.32C216.92 277.368 213.56 277.933 209.6 277.771C205.58 277.61 202.34 276.643 201.8 275.595C202.4 274.547 205.7 273.982 209.72 274.144C213.68 274.305 216.98 275.272 217.52 276.32Z" fill="#FFA412"/>
<path d="M146.3 290.51C146.24 292.203 150.26 293.815 155.3 294.138C160.34 294.461 164.48 293.251 164.54 291.558C164.6 289.865 160.58 288.253 155.54 287.93C150.44 287.608 146.36 288.736 146.3 290.51Z" fill="#FFA412"/>
<path d="M146.396 287.349L146.297 290.49L164.521 291.53L164.619 288.388L146.396 287.349Z" fill="#FFA412"/>
<path d="M146.36 287.365C146.3 289.059 150.32 290.671 155.36 290.994C160.4 291.316 164.54 290.107 164.6 288.413C164.66 286.721 160.64 285.108 155.6 284.786C150.56 284.463 146.42 285.673 146.36 287.365Z" fill="#FFA412"/>
<path opacity="0.4" d="M146.36 287.365C146.3 289.059 150.32 290.671 155.36 290.994C160.4 291.316 164.54 290.107 164.6 288.413C164.66 286.721 160.64 285.108 155.6 284.786C150.56 284.463 146.42 285.673 146.36 287.365Z" fill="white"/>
<path d="M147.56 287.285C147.56 287.366 147.56 287.527 147.62 287.608C148.22 286.64 151.58 285.995 155.54 286.237C159.56 286.479 162.8 287.446 163.34 288.495C163.4 288.414 163.46 288.333 163.46 288.172C163.52 287.043 159.98 285.834 155.6 285.592C151.16 285.431 147.56 286.157 147.56 287.285Z" fill="#FFA412"/>
<path opacity="0.4" d="M147.56 287.285C147.56 287.366 147.56 287.527 147.62 287.608C148.22 286.64 151.58 285.995 155.54 286.237C159.56 286.479 162.8 287.446 163.34 288.495C163.4 288.414 163.46 288.333 163.46 288.172C163.52 287.043 159.98 285.834 155.6 285.592C151.16 285.431 147.56 286.157 147.56 287.285Z" fill="#FFA412"/>
<path opacity="0.4" d="M147.62 287.608C148.16 288.656 151.46 289.624 155.42 289.865C159.44 290.108 162.74 289.463 163.34 288.495C162.8 287.447 159.5 286.479 155.54 286.238C151.58 285.995 148.22 286.641 147.62 287.608Z" fill="#FFA412"/>
<path d="M144.38 285.754C144.32 287.447 148.34 289.06 153.38 289.382C158.42 289.704 162.56 288.495 162.62 286.802C162.68 285.109 158.66 283.496 153.62 283.174C148.52 282.932 144.44 284.06 144.38 285.754Z" fill="#FFA412"/>
<path d="M144.436 282.653L144.337 285.795L162.561 286.834L162.66 283.692L144.436 282.653Z" fill="#FFA412"/>
<path d="M144.439 282.69C144.379 284.383 148.399 285.995 153.439 286.318C158.479 286.641 162.619 285.431 162.679 283.738C162.739 282.045 158.719 280.432 153.679 280.11C148.639 279.788 144.499 280.997 144.439 282.69Z" fill="#FFA412"/>
<path opacity="0.4" d="M144.439 282.69C144.379 284.383 148.399 285.995 153.439 286.318C158.479 286.641 162.619 285.431 162.679 283.738C162.739 282.045 158.719 280.432 153.679 280.11C148.639 279.788 144.499 280.997 144.439 282.69Z" fill="white"/>
<path d="M145.64 282.609C145.64 282.69 145.64 282.851 145.7 282.932C146.3 281.964 149.66 281.319 153.62 281.561C157.64 281.803 160.88 282.771 161.42 283.819C161.48 283.738 161.54 283.658 161.54 283.496C161.6 282.367 158.06 281.158 153.68 280.916C149.24 280.674 145.64 281.48 145.64 282.609Z" fill="#FFA412"/>
<path opacity="0.4" d="M145.64 282.609C145.64 282.69 145.64 282.851 145.7 282.932C146.3 281.964 149.66 281.319 153.62 281.561C157.64 281.803 160.88 282.771 161.42 283.819C161.48 283.738 161.54 283.658 161.54 283.496C161.6 282.367 158.06 281.158 153.68 280.916C149.24 280.674 145.64 281.48 145.64 282.609Z" fill="#FFA412"/>
<path opacity="0.4" d="M145.7 282.932C146.24 283.98 149.54 284.947 153.5 285.19C157.52 285.431 160.82 284.786 161.42 283.819C160.88 282.771 157.58 281.804 153.62 281.561C149.66 281.32 146.3 281.884 145.7 282.932Z" fill="#FFA412"/>
<path d="M144.62 280.109C144.56 281.803 148.58 283.415 153.62 283.738C158.66 284.06 162.8 282.851 162.86 281.157C162.92 279.465 158.9 277.853 153.86 277.53C148.82 277.207 144.68 278.417 144.62 280.109Z" fill="#FFA412"/>
<path d="M144.697 277.005L144.598 280.146L162.821 281.185L162.921 278.044L144.697 277.005Z" fill="#FFA412"/>
<path d="M144.679 277.046C144.619 278.739 148.639 280.352 153.679 280.674C158.719 280.997 162.859 279.787 162.919 278.094C162.979 276.401 158.959 274.789 153.919 274.466C148.879 274.144 144.739 275.272 144.679 277.046Z" fill="#FFA412"/>
<path opacity="0.4" d="M144.679 277.046C144.619 278.739 148.639 280.352 153.679 280.674C158.719 280.997 162.859 279.787 162.919 278.094C162.979 276.401 158.959 274.789 153.919 274.466C148.879 274.144 144.739 275.272 144.679 277.046Z" fill="white"/>
<path d="M145.88 276.966C145.88 277.046 145.88 277.207 145.94 277.288C146.54 276.32 149.9 275.676 153.86 275.917C157.88 276.159 161.12 277.127 161.66 278.175C161.72 278.094 161.78 278.014 161.78 277.852C161.84 276.724 158.3 275.515 153.92 275.272C149.54 275.031 145.88 275.837 145.88 276.966Z" fill="#FFA412"/>
<path opacity="0.4" d="M145.88 276.966C145.88 277.046 145.88 277.207 145.94 277.288C146.54 276.32 149.9 275.676 153.86 275.917C157.88 276.159 161.12 277.127 161.66 278.175C161.72 278.094 161.78 278.014 161.78 277.852C161.84 276.724 158.3 275.515 153.92 275.272C149.54 275.031 145.88 275.837 145.88 276.966Z" fill="#FFA412"/>
<path opacity="0.4" d="M145.94 277.287C146.48 278.335 149.78 279.303 153.74 279.545C157.76 279.787 161.06 279.142 161.66 278.174C161.12 277.127 157.82 276.159 153.86 275.917C149.9 275.675 146.54 276.24 145.94 277.287Z" fill="#FFA412"/>
<path d="M142.7 275.434C142.64 277.127 146.66 278.739 151.7 279.062C156.74 279.385 160.88 278.175 160.94 276.483C161 274.789 156.98 273.177 151.94 272.854C146.9 272.531 142.76 273.741 142.7 275.434Z" fill="#FFA412"/>
<path d="M142.799 272.312L142.699 275.453L160.923 276.494L161.022 273.352L142.799 272.312Z" fill="#FFA412"/>
<path d="M142.82 272.289C142.76 273.982 146.78 275.595 151.82 275.918C156.86 276.24 161 275.031 161.06 273.337C161.12 271.644 157.1 270.031 152.06 269.709C146.96 269.467 142.82 270.596 142.82 272.289Z" fill="#FFA412"/>
<path opacity="0.4" d="M142.82 272.289C142.76 273.982 146.78 275.595 151.82 275.918C156.86 276.24 161 275.031 161.06 273.337C161.12 271.644 157.1 270.031 152.06 269.709C146.96 269.467 142.82 270.596 142.82 272.289Z" fill="white"/>
<path d="M143.96 272.289C143.96 272.37 143.96 272.532 144.02 272.612C144.62 271.645 147.98 270.999 151.94 271.242C155.96 271.483 159.2 272.45 159.74 273.499C159.8 273.418 159.86 273.337 159.86 273.176C159.92 272.047 156.38 270.838 152 270.596C147.62 270.355 144.02 271.081 143.96 272.289Z" fill="#FFA412"/>
<path opacity="0.4" d="M143.96 272.289C143.96 272.37 143.96 272.532 144.02 272.612C144.62 271.645 147.98 270.999 151.94 271.242C155.96 271.483 159.2 272.45 159.74 273.499C159.8 273.418 159.86 273.337 159.86 273.176C159.92 272.047 156.38 270.838 152 270.596C147.62 270.355 144.02 271.081 143.96 272.289Z" fill="#FFA412"/>
<path opacity="0.4" d="M144.02 272.531C144.56 273.58 147.86 274.547 151.82 274.789C155.84 275.031 159.14 274.386 159.74 273.418C159.2 272.37 155.9 271.403 151.94 271.161C147.98 271 144.62 271.564 144.02 272.531Z" fill="#FFA412"/>
<path d="M145.64 271.402C145.58 273.096 149.6 274.708 154.64 275.031C159.68 275.353 163.82 274.144 163.88 272.45C163.94 270.758 159.92 269.145 154.88 268.823C149.78 268.58 145.7 269.71 145.64 271.402Z" fill="#FFA412"/>
<path d="M145.748 268.312L145.648 271.453L163.872 272.492L163.971 269.351L145.748 268.312Z" fill="#FFA412"/>
<path d="M145.7 268.339C145.64 270.031 149.66 271.644 154.7 271.966C159.74 272.289 163.88 271.079 163.94 269.387C164 267.693 159.98 266.081 154.94 265.758C149.9 265.436 145.76 266.645 145.7 268.339Z" fill="#FFA412"/>
<path opacity="0.4" d="M145.7 268.339C145.64 270.031 149.66 271.644 154.7 271.966C159.74 272.289 163.88 271.079 163.94 269.387C164 267.693 159.98 266.081 154.94 265.758C149.9 265.436 145.76 266.645 145.7 268.339Z" fill="white"/>
<path d="M146.9 268.259C146.9 268.339 146.9 268.5 146.96 268.581C147.56 267.613 150.92 266.969 154.88 267.21C158.9 267.452 162.14 268.42 162.68 269.468C162.74 269.387 162.8 269.307 162.8 269.145C162.86 268.017 159.32 266.808 154.94 266.565C150.5 266.324 146.9 267.13 146.9 268.259Z" fill="#FFA412"/>
<path opacity="0.4" d="M146.9 268.259C146.9 268.339 146.9 268.5 146.96 268.581C147.56 267.613 150.92 266.969 154.88 267.21C158.9 267.452 162.14 268.42 162.68 269.468C162.74 269.387 162.8 269.307 162.8 269.145C162.86 268.017 159.32 266.808 154.94 266.565C150.5 266.324 146.9 267.13 146.9 268.259Z" fill="#FFA412"/>
<path opacity="0.4" d="M146.96 268.581C147.5 269.629 150.8 270.596 154.76 270.838C158.78 271.08 162.08 270.435 162.68 269.468C162.14 268.42 158.84 267.452 154.88 267.21C150.92 266.969 147.56 267.613 146.96 268.581Z" fill="#FFA412"/>
<path d="M143.72 266.727C143.66 268.42 147.68 270.032 152.72 270.355C157.76 270.678 161.9 269.468 161.96 267.775C162.02 266.082 158 264.47 152.96 264.147C147.86 263.905 143.78 265.034 143.72 266.727Z" fill="#FFA412"/>
<path d="M143.789 263.614L143.69 266.756L161.913 267.796L162.013 264.655L143.789 263.614Z" fill="#FFA412"/>
<path d="M143.779 263.663C143.719 265.356 147.739 266.969 152.779 267.291C157.819 267.613 161.959 266.404 162.019 264.711C162.079 263.018 158.059 261.405 153.019 261.083C147.979 260.761 143.839 261.889 143.779 263.663Z" fill="#FFA412"/>
<path opacity="0.4" d="M143.779 263.663C143.719 265.356 147.739 266.969 152.779 267.291C157.819 267.613 161.959 266.404 162.019 264.711C162.079 263.018 158.059 261.405 153.019 261.083C147.979 260.761 143.839 261.889 143.779 263.663Z" fill="white"/>
<path d="M144.98 263.583C144.98 263.663 144.98 263.825 145.04 263.905C145.64 262.938 149 262.292 152.96 262.535C156.98 262.776 160.22 263.744 160.76 264.792C160.82 264.711 160.88 264.631 160.88 264.47C160.94 263.341 157.4 262.131 153.02 261.89C148.58 261.648 144.98 262.454 144.98 263.583Z" fill="#FFA412"/>
<path opacity="0.4" d="M144.98 263.583C144.98 263.663 144.98 263.825 145.04 263.905C145.64 262.938 149 262.292 152.96 262.535C156.98 262.776 160.22 263.744 160.76 264.792C160.82 264.711 160.88 264.631 160.88 264.47C160.94 263.341 157.4 262.131 153.02 261.89C148.58 261.648 144.98 262.454 144.98 263.583Z" fill="#FFA412"/>
<path opacity="0.4" d="M145.04 263.905C145.58 264.953 148.88 265.92 152.84 266.162C156.86 266.404 160.16 265.759 160.76 264.791C160.22 263.743 156.92 262.776 152.96 262.534C149 262.292 145.64 262.856 145.04 263.905Z" fill="#FFA412"/>
<path d="M163.82 263.42C163.88 265.113 159.86 266.726 154.82 267.048C149.78 267.371 145.64 266.161 145.58 264.469C145.52 262.775 149.54 261.163 154.58 260.84C159.68 260.517 163.82 261.647 163.82 263.42Z" fill="#FFA412"/>
<path d="M163.764 260.321L145.54 261.361L145.639 264.503L163.863 263.463L163.764 260.321Z" fill="#FFA412"/>
<path d="M163.76 260.276C163.82 261.969 159.8 263.582 154.76 263.904C149.72 264.227 145.58 263.018 145.52 261.324C145.46 259.632 149.48 258.019 154.52 257.697C159.56 257.454 163.7 258.583 163.76 260.276Z" fill="#FFA412"/>
<path opacity="0.4" d="M163.76 260.276C163.82 261.969 159.8 263.582 154.76 263.904C149.72 264.227 145.58 263.018 145.52 261.324C145.46 259.632 149.48 258.019 154.52 257.697C159.56 257.454 163.7 258.583 163.76 260.276Z" fill="white"/>
<path d="M162.56 260.277C162.56 260.357 162.56 260.518 162.5 260.6C161.9 259.632 158.54 258.987 154.58 259.229C150.56 259.47 147.32 260.438 146.78 261.486C146.72 261.405 146.66 261.325 146.66 261.164C146.6 260.035 150.14 258.826 154.52 258.583C158.96 258.342 162.56 259.067 162.56 260.277Z" fill="#FFA412"/>
<path opacity="0.4" d="M162.56 260.277C162.56 260.357 162.56 260.518 162.5 260.6C161.9 259.632 158.54 258.987 154.58 259.229C150.56 259.47 147.32 260.438 146.78 261.486C146.72 261.405 146.66 261.325 146.66 261.164C146.6 260.035 150.14 258.826 154.52 258.583C158.96 258.342 162.56 259.067 162.56 260.277Z" fill="#FFA412"/>
<path opacity="0.4" d="M162.5 260.518C161.96 261.566 158.66 262.534 154.7 262.775C150.68 263.018 147.38 262.372 146.78 261.405C147.32 260.357 150.62 259.389 154.58 259.148C158.54 258.986 161.9 259.55 162.5 260.518Z" fill="#FFA412"/>
<path d="M165.74 258.664C165.8 260.356 161.78 261.969 156.74 262.291C151.7 262.614 147.56 261.404 147.5 259.712C147.44 258.018 151.46 256.406 156.5 256.083C161.6 255.842 165.68 256.97 165.74 258.664Z" fill="#FFA412"/>
<path d="M165.682 255.564L147.458 256.603L147.557 259.745L165.781 258.706L165.682 255.564Z" fill="#FFA412"/>
<path d="M165.68 255.6C165.74 257.293 161.72 258.905 156.68 259.228C151.64 259.551 147.5 258.341 147.44 256.649C147.38 254.955 151.4 253.343 156.44 253.02C161.48 252.697 165.62 253.907 165.68 255.6Z" fill="#FFA412"/>
<path opacity="0.4" d="M165.68 255.6C165.74 257.293 161.72 258.905 156.68 259.228C151.64 259.551 147.5 258.341 147.44 256.649C147.38 254.955 151.4 253.343 156.44 253.02C161.48 252.697 165.62 253.907 165.68 255.6Z" fill="white"/>
<path d="M164.48 255.52C164.48 255.6 164.48 255.762 164.42 255.843C163.82 254.875 160.46 254.23 156.5 254.472C152.48 254.714 149.24 255.682 148.7 256.73C148.64 256.649 148.58 256.568 148.58 256.407C148.52 255.278 152.06 254.069 156.44 253.827C160.88 253.665 164.48 254.391 164.48 255.52Z" fill="#FFA412"/>
<path opacity="0.4" d="M164.48 255.52C164.48 255.6 164.48 255.762 164.42 255.843C163.82 254.875 160.46 254.23 156.5 254.472C152.48 254.714 149.24 255.682 148.7 256.73C148.64 256.649 148.58 256.568 148.58 256.407C148.52 255.278 152.06 254.069 156.44 253.827C160.88 253.665 164.48 254.391 164.48 255.52Z" fill="#FFA412"/>
<path opacity="0.4" d="M164.42 255.843C163.88 256.89 160.58 257.858 156.62 258.1C152.6 258.342 149.3 257.697 148.7 256.729C149.24 255.682 152.54 254.714 156.5 254.472C160.46 254.23 163.82 254.875 164.42 255.843Z" fill="#FFA412"/>
<path d="M165.5 253.021C165.56 254.714 161.54 256.326 156.5 256.649C151.46 256.971 147.32 255.762 147.26 254.069C147.2 252.376 151.22 250.763 156.26 250.441C161.36 250.199 165.44 251.327 165.5 253.021Z" fill="#FFA412"/>
<path d="M165.382 249.924L147.159 250.964L147.257 254.105L165.481 253.065L165.382 249.924Z" fill="#FFA412"/>
<path d="M165.44 249.957C165.5 251.649 161.48 253.262 156.44 253.584C151.4 253.907 147.26 252.697 147.2 251.005C147.14 249.311 151.16 247.699 156.2 247.376C161.24 247.054 165.38 248.263 165.44 249.957Z" fill="#FFA412"/>
<path opacity="0.4" d="M165.44 249.957C165.5 251.649 161.48 253.262 156.44 253.584C151.4 253.907 147.26 252.697 147.2 251.005C147.14 249.311 151.16 247.699 156.2 247.376C161.24 247.054 165.38 248.263 165.44 249.957Z" fill="white"/>
<path d="M164.24 249.876C164.24 249.957 164.24 250.118 164.18 250.198C163.58 249.231 160.22 248.586 156.26 248.828C152.24 249.07 149 250.037 148.46 251.085C148.4 251.005 148.34 250.924 148.34 250.762C148.28 249.634 151.82 248.424 156.2 248.183C160.64 247.941 164.24 248.747 164.24 249.876Z" fill="#FFA412"/>
<path opacity="0.4" d="M164.24 249.876C164.24 249.957 164.24 250.118 164.18 250.198C163.58 249.231 160.22 248.586 156.26 248.828C152.24 249.07 149 250.037 148.46 251.085C148.4 251.005 148.34 250.924 148.34 250.762C148.28 249.634 151.82 248.424 156.2 248.183C160.64 247.941 164.24 248.747 164.24 249.876Z" fill="#FFA412"/>
<path opacity="0.4" d="M164.18 250.199C163.64 251.247 160.34 252.214 156.38 252.456C152.36 252.698 149.06 252.053 148.46 251.086C149 250.038 152.3 249.07 156.26 248.828C160.22 248.586 163.58 249.151 164.18 250.199Z" fill="#FFA412"/>
<path d="M167.42 248.344C167.48 250.037 163.46 251.65 158.42 251.972C153.38 252.295 149.24 251.085 149.18 249.393C149.12 247.699 153.14 246.087 158.18 245.764C163.28 245.441 167.36 246.651 167.42 248.344Z" fill="#FFA412"/>
<path d="M167.303 245.247L149.079 246.288L149.179 249.429L167.402 248.389L167.303 245.247Z" fill="#FFA412"/>
<path d="M167.36 245.2C167.42 246.893 163.4 248.506 158.36 248.828C153.32 249.151 149.18 247.942 149.12 246.248C149.06 244.556 153.08 242.943 158.12 242.621C163.16 242.378 167.3 243.507 167.36 245.2Z" fill="#FFA412"/>
<path opacity="0.4" d="M167.36 245.2C167.42 246.893 163.4 248.506 158.36 248.828C153.32 249.151 149.18 247.942 149.12 246.248C149.06 244.556 153.08 242.943 158.12 242.621C163.16 242.378 167.3 243.507 167.36 245.2Z" fill="white"/>
<path d="M166.16 245.2C166.16 245.28 166.16 245.441 166.1 245.522C165.5 244.554 162.14 243.909 158.18 244.152C154.16 244.393 150.92 245.361 150.38 246.409C150.32 246.328 150.26 246.248 150.26 246.087C150.2 244.957 153.74 243.748 158.12 243.506C162.56 243.265 166.16 243.99 166.16 245.2Z" fill="#FFA412"/>
<path opacity="0.4" d="M166.16 245.2C166.16 245.28 166.16 245.441 166.1 245.522C165.5 244.554 162.14 243.909 158.18 244.152C154.16 244.393 150.92 245.361 150.38 246.409C150.32 246.328 150.26 246.248 150.26 246.087C150.2 244.957 153.74 243.748 158.12 243.506C162.56 243.265 166.16 243.99 166.16 245.2Z" fill="#FFA412"/>
<path opacity="0.4" d="M166.1 245.522C165.56 246.571 162.26 247.539 158.3 247.78C154.28 248.022 150.98 247.377 150.38 246.409C150.92 245.361 154.22 244.394 158.18 244.152C162.14 243.91 165.5 244.474 166.1 245.522Z" fill="#FFA412"/>
<path d="M164.48 244.393C164.54 246.087 160.52 247.699 155.48 248.022C150.44 248.344 146.3 247.135 146.24 245.441C146.18 243.749 150.2 242.136 155.24 241.814C160.34 241.491 164.48 242.619 164.48 244.393Z" fill="#FFA412"/>
<path d="M164.424 241.294L146.2 242.332L146.299 245.474L164.523 244.435L164.424 241.294Z" fill="#FFA412"/>
<path d="M164.42 241.25C164.48 242.942 160.46 244.555 155.42 244.877C150.38 245.2 146.24 243.99 146.18 242.298C146.12 240.604 150.14 238.992 155.18 238.669C160.22 238.347 164.36 239.556 164.42 241.25Z" fill="#FFA412"/>
<path opacity="0.4" d="M164.42 241.25C164.48 242.942 160.46 244.555 155.42 244.877C150.38 245.2 146.24 243.99 146.18 242.298C146.12 240.604 150.14 238.992 155.18 238.669C160.22 238.347 164.36 239.556 164.42 241.25Z" fill="white"/>
<path d="M163.22 241.168C163.22 241.249 163.22 241.41 163.16 241.491C162.56 240.523 159.2 239.879 155.24 240.12C151.22 240.362 147.98 241.33 147.44 242.378C147.38 242.297 147.32 242.217 147.32 242.055C147.26 240.927 150.8 239.717 155.18 239.475C159.62 239.314 163.22 240.04 163.22 241.168Z" fill="#FFA412"/>
<path opacity="0.4" d="M163.22 241.168C163.22 241.249 163.22 241.41 163.16 241.491C162.56 240.523 159.2 239.879 155.24 240.12C151.22 240.362 147.98 241.33 147.44 242.378C147.38 242.297 147.32 242.217 147.32 242.055C147.26 240.927 150.8 239.717 155.18 239.475C159.62 239.314 163.22 240.04 163.22 241.168Z" fill="#FFA412"/>
<path opacity="0.4" d="M163.16 241.491C162.62 242.539 159.32 243.506 155.36 243.749C151.34 243.99 148.04 243.345 147.44 242.378C147.98 241.33 151.28 240.362 155.24 240.12C159.2 239.879 162.56 240.523 163.16 241.491Z" fill="#FFA412"/>
<path d="M166.4 239.637C166.46 241.33 162.44 242.942 157.4 243.265C152.36 243.587 148.22 242.378 148.16 240.685C148.1 238.992 152.12 237.38 157.16 237.057C162.26 236.815 166.34 237.944 166.4 239.637Z" fill="#FFA412"/>
<path d="M166.343 236.537L148.119 237.577L148.218 240.718L166.441 239.679L166.343 236.537Z" fill="#FFA412"/>
<path d="M166.34 236.573C166.4 238.266 162.38 239.879 157.34 240.201C152.3 240.524 148.16 239.315 148.1 237.621C148.04 235.929 152.06 234.316 157.1 233.994C162.14 233.671 166.28 234.88 166.34 236.573Z" fill="#FFA412"/>
<path opacity="0.4" d="M166.34 236.573C166.4 238.266 162.38 239.879 157.34 240.201C152.3 240.524 148.16 239.315 148.1 237.621C148.04 235.929 152.06 234.316 157.1 233.994C162.14 233.671 166.28 234.88 166.34 236.573Z" fill="white"/>
<path d="M165.14 236.492C165.14 236.573 165.14 236.734 165.08 236.815C164.48 235.847 161.12 235.202 157.16 235.444C153.14 235.686 149.9 236.653 149.36 237.701C149.3 237.621 149.24 237.54 149.24 237.379C149.18 236.25 152.72 235.041 157.1 234.799C161.54 234.557 165.14 235.363 165.14 236.492Z" fill="#FFA412"/>
<path opacity="0.4" d="M165.14 236.492C165.14 236.573 165.14 236.734 165.08 236.815C164.48 235.847 161.12 235.202 157.16 235.444C153.14 235.686 149.9 236.653 149.36 237.701C149.3 237.621 149.24 237.54 149.24 237.379C149.18 236.25 152.72 235.041 157.1 234.799C161.54 234.557 165.14 235.363 165.14 236.492Z" fill="#FFA412"/>
<path opacity="0.4" d="M165.08 236.815C164.54 237.863 161.24 238.831 157.28 239.072C153.26 239.314 149.96 238.669 149.36 237.701C149.9 236.653 153.2 235.686 157.16 235.444C161.12 235.202 164.48 235.766 165.08 236.815Z" fill="#FFA412"/>
<path d="M158.838 236.093C163.089 233.951 165.242 227.584 163.648 221.873C162.054 216.162 157.316 213.267 153.066 215.41C148.815 217.551 146.661 223.918 148.255 229.629C149.849 235.34 154.587 238.235 158.838 236.093Z" fill="#FFA412"/>
<path d="M163.125 233.479C166.067 228.833 165.649 221.862 162.192 217.908C158.734 213.955 153.546 214.516 150.604 219.162C147.662 223.808 148.079 230.779 151.537 234.733C154.995 238.686 160.183 238.125 163.125 233.479Z" fill="#FFA412"/>
<path opacity="0.4" d="M163.125 233.479C166.067 228.833 165.649 221.862 162.192 217.908C158.734 213.955 153.546 214.516 150.604 219.162C147.662 223.808 148.079 230.779 151.537 234.733C154.995 238.686 160.183 238.125 163.125 233.479Z" fill="white"/>
<path d="M162.44 229.72C161.06 233.913 157.4 235.686 154.28 233.831C151.16 231.978 149.84 227.059 151.22 222.867C152.6 218.674 156.26 216.9 159.38 218.755C162.5 220.69 163.88 225.608 162.44 229.72Z" fill="#FFA412"/>
<path opacity="0.3" d="M159.68 228.753C159.62 228.269 159.38 227.866 159.08 227.463C159.38 227.463 159.68 227.302 159.98 227.059C160.22 226.818 160.46 226.495 160.58 226.092C160.82 225.447 160.76 224.721 160.52 224.076C160.34 223.593 159.98 223.189 159.5 222.786L159.68 222.141L158.96 221.738L158.78 222.302L158.06 221.9L158.24 221.335L157.52 220.933L157.34 221.497L155.78 220.529L152.9 229.075L154.46 230.042L154.28 230.607L155 231.01L155.18 230.446L155.9 230.849L155.72 231.413L156.44 231.816L156.68 231.172C157.34 231.494 157.94 231.655 158.36 231.494C158.9 231.333 159.32 230.929 159.62 230.204C159.74 229.801 159.8 229.237 159.68 228.753ZM156.8 222.948L158.24 223.835C158.6 224.076 158.84 224.319 158.96 224.56C159.08 224.802 159.08 225.124 158.96 225.447C158.84 225.77 158.66 226.011 158.42 226.011C158.18 226.092 157.88 226.011 157.52 225.77L156.08 224.883L156.8 222.948ZM157.58 229.801C157.34 229.881 156.98 229.72 156.62 229.559L154.88 228.511L155.6 226.415L157.34 227.463C158.12 227.946 158.36 228.511 158.18 229.237C158 229.559 157.82 229.72 157.58 229.801Z" fill="white"/>
<path d="M234.32 288.897C234.14 289.865 231.56 289.945 228.62 288.897C225.68 287.93 223.4 286.318 223.64 285.27C223.82 284.302 226.4 284.222 229.34 285.27C232.28 286.237 234.5 287.849 234.32 288.897Z" fill="#FFA412"/>
<path d="M223.935 283.488L223.6 285.287L234.309 288.89L234.644 287.092L223.935 283.488Z" fill="#FFA412"/>
<path d="M234.68 287.043C234.5 288.011 231.92 288.092 228.98 287.043C226.04 286.075 223.76 284.463 224 283.415C224.18 282.448 226.76 282.367 229.7 283.415C232.58 284.463 234.86 286.075 234.68 287.043Z" fill="#FFA412"/>
<path opacity="0.4" d="M234.68 287.043C234.5 288.011 231.92 288.092 228.98 287.043C226.04 286.075 223.76 284.463 224 283.415C224.18 282.448 226.76 282.367 229.7 283.415C232.58 284.463 234.86 286.075 234.68 287.043Z" fill="white"/>
<path d="M234.02 286.721C234.02 286.802 233.96 286.882 233.96 286.882C233.72 286.157 231.86 285.028 229.52 284.222C227.18 283.415 225.14 283.254 224.72 283.738C224.72 283.657 224.72 283.576 224.72 283.576C224.84 282.932 227.06 283.012 229.64 283.899C232.16 284.786 234.14 286.075 234.02 286.721Z" fill="#FFA412"/>
<path opacity="0.4" d="M234.02 286.721C234.02 286.802 233.96 286.882 233.96 286.882C233.72 286.157 231.86 285.028 229.52 284.222C227.18 283.415 225.14 283.254 224.72 283.738C224.72 283.657 224.72 283.576 224.72 283.576C224.84 282.932 227.06 283.012 229.64 283.899C232.16 284.786 234.14 286.075 234.02 286.721Z" fill="#FFA412"/>
<path opacity="0.4" d="M233.9 286.882C233.42 287.366 231.44 287.205 229.1 286.399C226.76 285.592 224.9 284.464 224.66 283.819C225.08 283.335 227.12 283.496 229.46 284.303C231.8 285.108 233.66 286.157 233.9 286.882Z" fill="#FFA412"/>
<path d="M239.48 292.204C239.54 293.251 237.08 294.219 234.02 294.381C230.96 294.542 228.5 293.816 228.44 292.848C228.38 291.8 230.84 290.833 233.9 290.672C236.96 290.43 239.42 291.156 239.48 292.204Z" fill="#FFA412"/>
<path d="M239.445 290.274L228.415 290.904L228.473 292.757L239.504 292.127L239.445 290.274Z" fill="#FFA412"/>
<path d="M239.42 290.268C239.48 291.316 237.02 292.283 233.96 292.445C230.9 292.606 228.44 291.88 228.38 290.913C228.32 289.865 230.78 288.897 233.84 288.736C236.9 288.575 239.36 289.301 239.42 290.268Z" fill="#FFA412"/>
<path opacity="0.4" d="M239.42 290.268C239.48 291.316 237.02 292.283 233.96 292.445C230.9 292.606 228.44 291.88 228.38 290.913C228.32 289.865 230.78 288.897 233.84 288.736C236.9 288.575 239.36 289.301 239.42 290.268Z" fill="white"/>
<path d="M238.7 290.268C238.7 290.349 238.7 290.43 238.64 290.43C238.28 289.785 236.24 289.463 233.84 289.624C231.44 289.785 229.46 290.349 229.1 290.994C229.04 290.913 229.04 290.913 229.04 290.833C229.04 290.107 231.14 289.462 233.78 289.301C236.48 289.14 238.7 289.543 238.7 290.268Z" fill="#FFA412"/>
<path opacity="0.4" d="M238.7 290.268C238.7 290.349 238.7 290.43 238.64 290.43C238.28 289.785 236.24 289.463 233.84 289.624C231.44 289.785 229.46 290.349 229.1 290.994C229.04 290.913 229.04 290.913 229.04 290.833C229.04 290.107 231.14 289.462 233.78 289.301C236.48 289.14 238.7 289.543 238.7 290.268Z" fill="#FFA412"/>
<path opacity="0.4" d="M238.64 290.43C238.34 291.075 236.3 291.639 233.9 291.8C231.5 291.962 229.46 291.559 229.1 290.995C229.4 290.349 231.38 289.785 233.84 289.624C236.24 289.462 238.28 289.865 238.64 290.43Z" fill="#FFA412"/>
<path d="M233.681 288.474C236.173 283.374 235.116 276.526 231.321 273.178C227.525 269.831 222.429 271.251 219.938 276.35C217.446 281.45 218.503 288.298 222.298 291.646C226.093 294.994 231.19 293.574 233.681 288.474Z" fill="#FFA412"/>
<path d="M233.66 290.671C230.66 295.186 225.44 295.589 222.08 291.558C218.72 287.527 218.42 280.513 221.42 275.998C224.42 271.483 229.64 271.079 233 275.111C236.42 279.142 236.72 286.157 233.66 290.671Z" fill="#FFA412"/>
<path opacity="0.4" d="M233.66 290.671C230.66 295.186 225.44 295.589 222.08 291.558C218.72 287.527 218.42 280.513 221.42 275.998C224.42 271.483 229.64 271.079 233 275.111C236.42 279.142 236.72 286.157 233.66 290.671Z" fill="white"/>
<path d="M232.1 288.817C229.82 292.203 225.92 292.526 223.4 289.461C220.88 286.398 220.64 281.157 222.92 277.771C225.2 274.385 229.1 274.063 231.62 277.126C234.14 280.19 234.38 285.43 232.1 288.817Z" fill="#FFA412"/>
<g opacity="0.3">
<path opacity="0.3" d="M228.68 287.043C227.96 288.656 226.64 288.737 225.32 287.366L224.54 288.494L223.76 287.608L224.54 286.479C223.88 285.511 223.4 284.383 223.22 283.496L224.42 282.609C224.6 283.576 224.96 284.463 225.5 285.189L226.7 283.496C226.16 282.287 225.56 280.916 226.22 279.546C226.94 277.933 228.26 277.933 229.64 279.303L230.42 278.175L231.2 279.062L230.42 280.19C230.9 280.916 231.32 281.722 231.5 282.528L230.36 283.415C230.18 282.689 229.88 281.964 229.52 281.4L228.32 283.173C228.74 284.383 229.28 285.673 228.68 287.043ZM227.6 282.045L228.62 280.594C228.14 280.19 227.72 280.271 227.48 280.754C227.36 281.077 227.42 281.481 227.6 282.045ZM227.3 285.915C227.48 285.592 227.36 285.108 227.18 284.706L226.22 286.076C226.7 286.398 227.12 286.318 227.3 285.915Z" fill="white"/>
</g>
<path d="M125.78 293.17C125.72 294.218 128.18 295.186 131.24 295.348C134.3 295.509 136.76 294.783 136.82 293.815C136.88 292.767 134.42 291.8 131.36 291.639C128.3 291.478 125.78 292.203 125.78 293.17Z" fill="#FFA412"/>
<path d="M125.838 291.383L125.779 293.236L136.81 293.864L136.868 292.011L125.838 291.383Z" fill="#FFA412"/>
<path d="M125.839 291.316C125.779 292.364 128.239 293.331 131.299 293.493C134.359 293.654 136.82 292.929 136.88 291.962C136.94 290.913 134.479 289.945 131.419 289.784C128.359 289.623 125.839 290.268 125.839 291.316Z" fill="#FFA412"/>
<path opacity="0.4" d="M125.839 291.316C125.779 292.364 128.239 293.331 131.299 293.493C134.359 293.654 136.82 292.929 136.88 291.962C136.94 290.913 134.479 289.945 131.419 289.784C128.359 289.623 125.839 290.268 125.839 291.316Z" fill="white"/>
<path d="M126.56 291.316C126.56 291.397 126.56 291.478 126.62 291.478C126.98 290.833 129.02 290.511 131.42 290.672C133.82 290.833 135.8 291.397 136.16 292.042C136.22 291.962 136.22 291.962 136.22 291.881C136.22 291.155 134.12 290.511 131.48 290.349C128.72 290.107 126.56 290.591 126.56 291.316Z" fill="#FFA412"/>
<path opacity="0.4" d="M126.56 291.316C126.56 291.397 126.56 291.478 126.62 291.478C126.98 290.833 129.02 290.511 131.42 290.672C133.82 290.833 135.8 291.397 136.16 292.042C136.22 291.962 136.22 291.962 136.22 291.881C136.22 291.155 134.12 290.511 131.48 290.349C128.72 290.107 126.56 290.591 126.56 291.316Z" fill="#FFA412"/>
<path opacity="0.4" d="M126.56 291.478C126.86 292.123 128.9 292.687 131.3 292.848C133.7 293.01 135.74 292.607 136.1 292.043C135.8 291.397 133.82 290.833 131.36 290.672C128.96 290.511 126.92 290.833 126.56 291.478Z" fill="#FFA412"/>
<path d="M124.64 290.349C124.58 291.397 127.04 292.365 130.1 292.526C133.16 292.687 135.62 291.962 135.68 290.995C135.74 289.946 133.28 288.978 130.22 288.818C127.16 288.657 124.64 289.301 124.64 290.349Z" fill="#FFA412"/>
<path d="M124.695 288.521L124.636 290.374L135.666 291.004L135.724 289.152L124.695 288.521Z" fill="#FFA412"/>
<path d="M124.7 288.494C124.64 289.543 127.1 290.511 130.16 290.672C133.219 290.833 135.679 290.107 135.739 289.14C135.799 288.092 133.339 287.124 130.279 286.963C127.22 286.721 124.7 287.446 124.7 288.494Z" fill="#FFA412"/>
<path opacity="0.4" d="M124.7 288.494C124.64 289.543 127.1 290.511 130.16 290.672C133.219 290.833 135.679 290.107 135.739 289.14C135.799 288.092 133.339 287.124 130.279 286.963C127.22 286.721 124.7 287.446 124.7 288.494Z" fill="white"/>
<path d="M125.36 288.494C125.36 288.575 125.36 288.656 125.42 288.656C125.78 288.01 127.82 287.688 130.22 287.849C132.62 288.01 134.6 288.575 134.96 289.22C135.02 289.14 135.02 289.14 135.02 289.059C135.02 288.333 132.92 287.688 130.28 287.527C127.58 287.285 125.42 287.769 125.36 288.494Z" fill="#FFA412"/>
<path opacity="0.4" d="M125.36 288.494C125.36 288.575 125.36 288.656 125.42 288.656C125.78 288.01 127.82 287.688 130.22 287.849C132.62 288.01 134.6 288.575 134.96 289.22C135.02 289.14 135.02 289.14 135.02 289.059C135.02 288.333 132.92 287.688 130.28 287.527C127.58 287.285 125.42 287.769 125.36 288.494Z" fill="#FFA412"/>
<path opacity="0.4" d="M125.42 288.656C125.72 289.301 127.76 289.865 130.16 290.027C132.56 290.188 134.6 289.785 134.96 289.22C134.66 288.576 132.68 288.011 130.22 287.85C127.82 287.689 125.78 288.011 125.42 288.656Z" fill="#FFA412"/>
<path d="M124.76 286.963C124.7 288.011 127.16 288.979 130.22 289.14C133.28 289.301 135.74 288.576 135.8 287.609C135.86 286.56 133.4 285.592 130.34 285.431C127.28 285.19 124.82 285.915 124.76 286.963Z" fill="#FFA412"/>
<path d="M124.809 285.061L124.751 286.913L135.781 287.543L135.839 285.691L124.809 285.061Z" fill="#FFA412"/>
<path d="M124.82 285.109C124.76 286.157 127.22 287.125 130.28 287.286C133.34 287.447 135.8 286.722 135.86 285.754C135.92 284.706 133.46 283.739 130.4 283.577C127.34 283.335 124.88 284.061 124.82 285.109Z" fill="#FFA412"/>
<path opacity="0.4" d="M124.82 285.109C124.76 286.157 127.22 287.125 130.28 287.286C133.34 287.447 135.8 286.722 135.86 285.754C135.92 284.706 133.46 283.739 130.4 283.577C127.34 283.335 124.88 284.061 124.82 285.109Z" fill="white"/>
<path d="M125.54 285.028C125.54 285.109 125.54 285.19 125.6 285.19C125.96 284.544 128 284.222 130.4 284.383C132.8 284.544 134.78 285.109 135.14 285.754C135.2 285.674 135.2 285.674 135.2 285.592C135.2 284.867 133.1 284.222 130.46 284.061C127.7 283.9 125.54 284.303 125.54 285.028Z" fill="#FFA412"/>
<path opacity="0.4" d="M125.54 285.028C125.54 285.109 125.54 285.19 125.6 285.19C125.96 284.544 128 284.222 130.4 284.383C132.8 284.544 134.78 285.109 135.14 285.754C135.2 285.674 135.2 285.674 135.2 285.592C135.2 284.867 133.1 284.222 130.46 284.061C127.7 283.9 125.54 284.303 125.54 285.028Z" fill="#FFA412"/>
<path opacity="0.4" d="M125.54 285.19C125.84 285.835 127.88 286.399 130.28 286.56C132.68 286.722 134.72 286.318 135.08 285.754C134.78 285.109 132.8 284.544 130.34 284.383C127.94 284.222 125.96 284.625 125.54 285.19Z" fill="#FFA412"/>
<path d="M123.62 284.141C123.56 285.19 126.02 286.157 129.08 286.318C132.14 286.479 134.6 285.754 134.66 284.786C134.72 283.738 132.26 282.771 129.2 282.609C126.14 282.368 123.62 283.093 123.62 284.141Z" fill="#FFA412"/>
<path d="M123.662 282.283L123.603 284.135L134.633 284.765L134.692 282.912L123.662 282.283Z" fill="#FFA412"/>
<path d="M123.679 282.206C123.619 283.254 126.079 284.222 129.139 284.383C132.199 284.544 134.659 283.819 134.719 282.851C134.779 281.803 132.319 280.836 129.259 280.674C126.199 280.513 123.679 281.158 123.679 282.206Z" fill="#FFA412"/>
<path opacity="0.4" d="M123.679 282.206C123.619 283.254 126.079 284.222 129.139 284.383C132.199 284.544 134.659 283.819 134.719 282.851C134.779 281.803 132.319 280.836 129.259 280.674C126.199 280.513 123.679 281.158 123.679 282.206Z" fill="white"/>
<path d="M124.34 282.206C124.34 282.287 124.34 282.368 124.4 282.368C124.76 281.722 126.8 281.4 129.2 281.561C131.6 281.722 133.58 282.287 133.94 282.932C134 282.851 134 282.851 134 282.771C134 282.045 131.9 281.4 129.26 281.238C126.56 281.077 124.4 281.481 124.34 282.206Z" fill="#FFA412"/>
<path opacity="0.4" d="M124.34 282.206C124.34 282.287 124.34 282.368 124.4 282.368C124.76 281.722 126.8 281.4 129.2 281.561C131.6 281.722 133.58 282.287 133.94 282.932C134 282.851 134 282.851 134 282.771C134 282.045 131.9 281.4 129.26 281.238C126.56 281.077 124.4 281.481 124.34 282.206Z" fill="#FFA412"/>
<path opacity="0.4" d="M124.4 282.368C124.7 283.012 126.74 283.577 129.14 283.738C131.54 283.899 133.58 283.496 133.94 282.932C133.64 282.287 131.66 281.722 129.2 281.561C126.8 281.4 124.76 281.803 124.4 282.368Z" fill="#FFA412"/>
<path d="M125.36 281.722C125.3 282.771 127.76 283.738 130.82 283.899C133.88 284.06 136.34 283.335 136.4 282.367C136.46 281.319 134 280.352 130.94 280.19C127.88 279.949 125.42 280.674 125.36 281.722Z" fill="#FFA412"/>
<path d="M125.42 279.832L125.362 281.684L136.392 282.314L136.45 280.461L125.42 279.832Z" fill="#FFA412"/>
<path d="M125.42 279.787C125.36 280.835 127.82 281.803 130.88 281.964C133.94 282.125 136.4 281.4 136.46 280.432C136.52 279.384 134.06 278.417 131 278.255C127.94 278.094 125.48 278.819 125.42 279.787Z" fill="#FFA412"/>
<path opacity="0.4" d="M125.42 279.787C125.36 280.835 127.82 281.803 130.88 281.964C133.94 282.125 136.4 281.4 136.46 280.432C136.52 279.384 134.06 278.417 131 278.255C127.94 278.094 125.48 278.819 125.42 279.787Z" fill="white"/>
<path d="M126.14 279.787C126.14 279.868 126.14 279.949 126.2 279.949C126.56 279.303 128.6 278.981 131 279.142C133.4 279.303 135.38 279.868 135.74 280.513C135.8 280.432 135.8 280.432 135.8 280.352C135.8 279.626 133.7 278.981 131.06 278.819C128.3 278.658 126.14 279.062 126.14 279.787Z" fill="#FFA412"/>
<path opacity="0.4" d="M126.14 279.787C126.14 279.868 126.14 279.949 126.2 279.949C126.56 279.303 128.6 278.981 131 279.142C133.4 279.303 135.38 279.868 135.74 280.513C135.8 280.432 135.8 280.432 135.8 280.352C135.8 279.626 133.7 278.981 131.06 278.819C128.3 278.658 126.14 279.062 126.14 279.787Z" fill="#FFA412"/>
<path opacity="0.4" d="M126.2 279.949C126.5 280.593 128.54 281.158 130.94 281.319C133.34 281.48 135.38 281.077 135.74 280.513C135.44 279.868 133.46 279.303 131 279.142C128.54 278.981 126.56 279.384 126.2 279.949Z" fill="#FFA412"/>
<path d="M117.62 293.01C117.8 293.977 120.38 294.058 123.32 293.01C126.26 292.042 128.54 290.43 128.3 289.381C128.12 288.414 125.54 288.333 122.6 289.381C119.66 290.43 117.44 292.042 117.62 293.01Z" fill="#FFA412"/>
<path d="M127.954 287.6L117.245 291.203L117.58 293.001L128.289 289.398L127.954 287.6Z" fill="#FFA412"/>
<path d="M117.26 291.236C117.44 292.203 120.02 292.284 122.96 291.236C125.9 290.268 128.18 288.656 127.94 287.608C127.76 286.64 125.18 286.559 122.24 287.608C119.3 288.575 117.08 290.188 117.26 291.236Z" fill="#FFA412"/>
<path opacity="0.4" d="M117.26 291.236C117.44 292.203 120.02 292.284 122.96 291.236C125.9 290.268 128.18 288.656 127.94 287.608C127.76 286.64 125.18 286.559 122.24 287.608C119.3 288.575 117.08 290.188 117.26 291.236Z" fill="white"/>
<path d="M117.92 290.913C117.92 290.994 117.98 291.075 117.98 291.075C118.22 290.349 120.08 289.22 122.42 288.494C124.76 287.689 126.8 287.527 127.22 288.011C127.22 287.93 127.22 287.85 127.22 287.85C127.1 287.205 124.88 287.286 122.3 288.173C119.78 288.978 117.8 290.268 117.92 290.913Z" fill="#FFA412"/>
<path opacity="0.4" d="M117.92 290.913C117.92 290.994 117.98 291.075 117.98 291.075C118.22 290.349 120.08 289.22 122.42 288.494C124.76 287.689 126.8 287.527 127.22 288.011C127.22 287.93 127.22 287.85 127.22 287.85C127.1 287.205 124.88 287.286 122.3 288.173C119.78 288.978 117.8 290.268 117.92 290.913Z" fill="#FFA412"/>
<path opacity="0.4" d="M118.04 291.074C118.52 291.558 120.5 291.396 122.84 290.591C125.18 289.784 127.04 288.656 127.28 288.01C126.86 287.527 124.82 287.688 122.48 288.494C120.08 289.22 118.22 290.348 118.04 291.074Z" fill="#FFA412"/>
<path d="M112.52 293.17C112.46 294.218 114.92 295.186 117.98 295.348C121.04 295.509 123.5 294.783 123.56 293.815C123.62 292.767 121.16 291.8 118.1 291.639C115.04 291.478 112.52 292.203 112.52 293.17Z" fill="#FFA412"/>
<path d="M112.574 291.375L112.515 293.228L123.545 293.858L123.604 292.005L112.574 291.375Z" fill="#FFA412"/>
<path d="M112.579 291.316C112.519 292.364 114.979 293.331 118.039 293.493C121.099 293.654 123.559 292.929 123.619 291.962C123.679 290.913 121.219 289.945 118.159 289.784C115.099 289.623 112.579 290.268 112.579 291.316Z" fill="#FFA412"/>
<path opacity="0.4" d="M112.579 291.316C112.519 292.364 114.979 293.331 118.039 293.493C121.099 293.654 123.559 292.929 123.619 291.962C123.679 290.913 121.219 289.945 118.159 289.784C115.099 289.623 112.579 290.268 112.579 291.316Z" fill="white"/>
<path d="M113.24 291.316C113.24 291.397 113.24 291.478 113.3 291.478C113.66 290.833 115.7 290.511 118.1 290.672C120.5 290.833 122.48 291.397 122.84 292.042C122.9 291.962 122.9 291.962 122.9 291.881C122.9 291.155 120.8 290.511 118.16 290.349C115.46 290.107 113.3 290.591 113.24 291.316Z" fill="#FFA412"/>
<path opacity="0.4" d="M113.24 291.316C113.24 291.397 113.24 291.478 113.3 291.478C113.66 290.833 115.7 290.511 118.1 290.672C120.5 290.833 122.48 291.397 122.84 292.042C122.9 291.962 122.9 291.962 122.9 291.881C122.9 291.155 120.8 290.511 118.16 290.349C115.46 290.107 113.3 290.591 113.24 291.316Z" fill="#FFA412"/>
<path opacity="0.4" d="M113.3 291.478C113.6 292.123 115.64 292.687 118.04 292.848C120.44 293.01 122.48 292.607 122.84 292.043C122.54 291.397 120.56 290.833 118.1 290.672C115.7 290.511 113.66 290.833 113.3 291.478Z" fill="#FFA412"/>
<path d="M169.4 293.09C169.34 294.138 171.86 295.186 174.98 295.348C178.1 295.509 180.68 294.783 180.68 293.735C180.74 292.687 178.22 291.639 175.1 291.478C171.98 291.316 169.4 292.042 169.4 293.09Z" fill="#FFA412"/>
<path d="M169.439 291.219L169.378 293.152L180.707 293.798L180.769 291.866L169.439 291.219Z" fill="#FFA412"/>
<path d="M169.459 291.155C169.399 292.203 171.919 293.251 175.039 293.413C178.159 293.574 180.739 292.848 180.739 291.8C180.799 290.752 178.279 289.704 175.159 289.543C172.039 289.381 169.459 290.107 169.459 291.155Z" fill="#FFA412"/>
<path opacity="0.4" d="M169.459 291.155C169.399 292.203 171.919 293.251 175.039 293.413C178.159 293.574 180.739 292.848 180.739 291.8C180.799 290.752 178.279 289.704 175.159 289.543C172.039 289.381 169.459 290.107 169.459 291.155Z" fill="white"/>
<path d="M170.18 291.155C170.18 291.235 170.18 291.316 170.24 291.316C170.6 290.671 172.7 290.348 175.16 290.429C177.62 290.591 179.66 291.155 180.02 291.8C180.08 291.719 180.08 291.639 180.08 291.639C180.08 290.913 177.92 290.187 175.16 290.026C172.4 289.945 170.18 290.429 170.18 291.155Z" fill="#FFA412"/>
<path opacity="0.4" d="M170.18 291.155C170.18 291.235 170.18 291.316 170.24 291.316C170.6 290.671 172.7 290.348 175.16 290.429C177.62 290.591 179.66 291.155 180.02 291.8C180.08 291.719 180.08 291.639 180.08 291.639C180.08 290.913 177.92 290.187 175.16 290.026C172.4 289.945 170.18 290.429 170.18 291.155Z" fill="#FFA412"/>
<path opacity="0.4" d="M170.18 291.316C170.54 291.962 172.58 292.606 175.04 292.687C177.5 292.848 179.6 292.445 179.96 291.8C179.6 291.155 177.56 290.51 175.1 290.429C172.64 290.349 170.6 290.752 170.18 291.316Z" fill="#FFA412"/>
<path d="M168.2 290.187C168.14 291.235 170.66 292.283 173.78 292.445C176.9 292.606 179.48 291.881 179.48 290.832C179.54 289.784 177.02 288.736 173.9 288.575C170.78 288.414 168.2 289.14 168.2 290.187Z" fill="#FFA412"/>
<path d="M168.262 288.235L168.201 290.169L179.531 290.815L179.592 288.882L168.262 288.235Z" fill="#FFA412"/>
<path d="M168.26 288.253C168.2 289.301 170.72 290.349 173.84 290.511C176.96 290.672 179.54 289.946 179.54 288.898C179.6 287.85 177.08 286.802 173.96 286.641C170.84 286.479 168.26 287.205 168.26 288.253Z" fill="#FFA412"/>
<path opacity="0.4" d="M168.26 288.253C168.2 289.301 170.72 290.349 173.84 290.511C176.96 290.672 179.54 289.946 179.54 288.898C179.6 287.85 177.08 286.802 173.96 286.641C170.84 286.479 168.26 287.205 168.26 288.253Z" fill="white"/>
<path d="M168.98 288.253C168.98 288.333 168.98 288.414 169.04 288.414C169.4 287.769 171.5 287.446 173.96 287.527C176.42 287.688 178.46 288.253 178.82 288.897C178.88 288.817 178.88 288.736 178.88 288.736C178.88 288.01 176.72 287.285 173.96 287.124C171.2 287.043 168.98 287.527 168.98 288.253Z" fill="#FFA412"/>
<path opacity="0.4" d="M168.98 288.253C168.98 288.333 168.98 288.414 169.04 288.414C169.4 287.769 171.5 287.446 173.96 287.527C176.42 287.688 178.46 288.253 178.82 288.897C178.88 288.817 178.88 288.736 178.88 288.736C178.88 288.01 176.72 287.285 173.96 287.124C171.2 287.043 168.98 287.527 168.98 288.253Z" fill="#FFA412"/>
<path opacity="0.4" d="M169.04 288.414C169.4 289.06 171.44 289.704 173.9 289.785C176.36 289.947 178.46 289.543 178.82 288.898C178.46 288.253 176.42 287.608 173.96 287.528C171.44 287.447 169.4 287.769 169.04 288.414Z" fill="#FFA412"/>
<path d="M170.72 288.011C170.66 289.059 173.18 290.107 176.3 290.268C179.42 290.429 182 289.704 182 288.656C182.06 287.608 179.54 286.559 176.42 286.398C173.36 286.237 170.78 286.963 170.72 288.011Z" fill="#FFA412"/>
<path d="M170.799 286.115L170.738 288.049L182.068 288.696L182.129 286.762L170.799 286.115Z" fill="#FFA412"/>
<path d="M170.78 286.076C170.72 287.125 173.24 288.173 176.36 288.334C179.48 288.495 182.06 287.769 182.06 286.722C182.12 285.674 179.6 284.625 176.48 284.464C173.42 284.303 170.84 285.028 170.78 286.076Z" fill="#FFA412"/>
<path opacity="0.4" d="M170.78 286.076C170.72 287.125 173.24 288.173 176.36 288.334C179.48 288.495 182.06 287.769 182.06 286.722C182.12 285.674 179.6 284.625 176.48 284.464C173.42 284.303 170.84 285.028 170.78 286.076Z" fill="white"/>
<path d="M171.5 286.076C171.5 286.157 171.5 286.237 171.56 286.237C171.92 285.592 174.02 285.27 176.48 285.35C178.94 285.511 180.98 286.076 181.34 286.721C181.4 286.641 181.4 286.559 181.4 286.559C181.4 285.834 179.24 285.108 176.48 284.947C173.78 284.867 171.56 285.35 171.5 286.076Z" fill="#FFA412"/>
<path opacity="0.4" d="M171.5 286.076C171.5 286.157 171.5 286.237 171.56 286.237C171.92 285.592 174.02 285.27 176.48 285.35C178.94 285.511 180.98 286.076 181.34 286.721C181.4 286.641 181.4 286.559 181.4 286.559C181.4 285.834 179.24 285.108 176.48 284.947C173.78 284.867 171.56 285.35 171.5 286.076Z" fill="#FFA412"/>
<path opacity="0.4" d="M171.56 286.237C171.92 286.882 173.96 287.527 176.42 287.608C178.88 287.769 180.98 287.366 181.34 286.721C180.98 286.075 178.94 285.431 176.48 285.35C174.02 285.27 171.92 285.673 171.56 286.237Z" fill="#FFA412"/>
<path d="M170.78 285.108C170.72 286.157 173.24 287.205 176.36 287.366C179.48 287.527 182.06 286.802 182.06 285.754C182.12 284.706 179.6 283.657 176.48 283.496C173.36 283.335 170.78 284.06 170.78 285.108Z" fill="#FFA412"/>
<path d="M170.842 283.159L170.781 285.093L182.111 285.739L182.172 283.806L170.842 283.159Z" fill="#FFA412"/>
<path d="M170.84 283.174C170.78 284.222 173.3 285.27 176.42 285.431C179.54 285.592 182.12 284.867 182.12 283.819C182.18 282.771 179.66 281.722 176.54 281.561C173.42 281.4 170.84 282.126 170.84 283.174Z" fill="#FFA412"/>
<path opacity="0.4" d="M170.84 283.174C170.78 284.222 173.3 285.27 176.42 285.431C179.54 285.592 182.12 284.867 182.12 283.819C182.18 282.771 179.66 281.722 176.54 281.561C173.42 281.4 170.84 282.126 170.84 283.174Z" fill="white"/>
<path d="M171.56 283.173C171.56 283.255 171.56 283.335 171.62 283.335C171.98 282.69 174.08 282.368 176.54 282.448C179 282.609 181.04 283.173 181.4 283.819C181.46 283.738 181.46 283.657 181.46 283.657C181.46 282.932 179.3 282.206 176.54 282.045C173.78 281.964 171.56 282.448 171.56 283.173Z" fill="#FFA412"/>
<path opacity="0.4" d="M171.56 283.173C171.56 283.255 171.56 283.335 171.62 283.335C171.98 282.69 174.08 282.368 176.54 282.448C179 282.609 181.04 283.173 181.4 283.819C181.46 283.738 181.46 283.657 181.46 283.657C181.46 282.932 179.3 282.206 176.54 282.045C173.78 281.964 171.56 282.448 171.56 283.173Z" fill="#FFA412"/>
<path opacity="0.4" d="M171.62 283.335C171.98 283.979 174.02 284.624 176.48 284.705C178.94 284.866 181.04 284.463 181.4 283.818C181.04 283.173 179 282.528 176.54 282.448C174.02 282.367 171.98 282.689 171.62 283.335Z" fill="#FFA412"/>
<path d="M168.44 282.771C168.38 283.819 170.9 284.867 174.02 285.028C177.14 285.189 179.72 284.463 179.72 283.415C179.78 282.367 177.26 281.32 174.14 281.158C171.02 280.916 168.5 281.641 168.44 282.771Z" fill="#FFA412"/>
<path d="M168.491 280.79L168.429 282.723L179.76 283.371L179.821 281.438L168.491 280.79Z" fill="#FFA412"/>
<path d="M168.499 280.836C168.439 281.884 170.959 282.932 174.079 283.093C177.199 283.254 179.78 282.528 179.78 281.48C179.84 280.432 177.32 279.384 174.199 279.223C171.079 279.062 168.559 279.706 168.499 280.836Z" fill="#FFA412"/>
<path opacity="0.4" d="M168.499 280.836C168.439 281.884 170.959 282.932 174.079 283.093C177.199 283.254 179.78 282.528 179.78 281.48C179.84 280.432 177.32 279.384 174.199 279.223C171.079 279.062 168.559 279.706 168.499 280.836Z" fill="white"/>
<path d="M169.22 280.754C169.22 280.836 169.22 280.916 169.28 280.916C169.64 280.271 171.74 279.949 174.2 280.029C176.66 280.19 178.7 280.754 179.06 281.4C179.12 281.319 179.12 281.238 179.12 281.238C179.12 280.513 176.96 279.787 174.2 279.626C171.5 279.545 169.22 280.029 169.22 280.754Z" fill="#FFA412"/>
<path opacity="0.4" d="M169.22 280.754C169.22 280.836 169.22 280.916 169.28 280.916C169.64 280.271 171.74 279.949 174.2 280.029C176.66 280.19 178.7 280.754 179.06 281.4C179.12 281.319 179.12 281.238 179.12 281.238C179.12 280.513 176.96 279.787 174.2 279.626C171.5 279.545 169.22 280.029 169.22 280.754Z" fill="#FFA412"/>
<path opacity="0.4" d="M169.28 280.997C169.64 281.641 171.68 282.287 174.14 282.367C176.6 282.528 178.7 282.125 179.06 281.48C178.7 280.836 176.66 280.19 174.2 280.11C171.74 279.949 169.64 280.352 169.28 280.997Z" fill="#FFA412"/>
<path d="M183.08 288.575C182.78 289.543 184.7 291.719 187.46 293.413C190.22 295.186 192.74 295.832 193.04 294.864C193.34 293.897 191.42 291.719 188.66 290.027C185.9 288.253 183.38 287.608 183.08 288.575Z" fill="#FFA412"/>
<path d="M183.621 286.837L183.035 288.516L193.027 294.823L193.613 293.145L183.621 286.837Z" fill="#FFA412"/>
<path d="M183.62 286.882C183.32 287.85 185.24 290.027 188 291.719C190.76 293.493 193.28 294.138 193.58 293.171C193.88 292.203 191.96 290.027 189.2 288.333C186.5 286.559 183.98 285.915 183.62 286.882Z" fill="#FFA412"/>
<path opacity="0.4" d="M183.62 286.882C183.32 287.85 185.24 290.027 188 291.719C190.76 293.493 193.28 294.138 193.58 293.171C193.88 292.203 191.96 290.027 189.2 288.333C186.5 286.559 183.98 285.915 183.62 286.882Z" fill="white"/>
<path d="M184.28 287.205C184.28 287.285 184.28 287.366 184.28 287.366C184.82 286.963 186.74 287.689 188.96 289.059C191.12 290.429 192.8 292.042 192.92 292.767C192.98 292.767 192.98 292.687 193.04 292.606C193.28 291.962 191.48 290.188 189.08 288.737C186.68 287.285 184.52 286.559 184.28 287.205Z" fill="#FFA412"/>
<path opacity="0.4" d="M184.28 287.205C184.28 287.285 184.28 287.366 184.28 287.366C184.82 286.963 186.74 287.689 188.96 289.059C191.12 290.429 192.8 292.042 192.92 292.767C192.98 292.767 192.98 292.687 193.04 292.606C193.28 291.962 191.48 290.188 189.08 288.737C186.68 287.285 184.52 286.559 184.28 287.205Z" fill="#FFA412"/>
<path opacity="0.4" d="M184.28 287.366C184.4 288.172 186.08 289.704 188.24 291.075C190.4 292.445 192.38 293.171 192.92 292.767C192.8 292.042 191.12 290.43 188.96 289.059C186.74 287.689 184.82 287.044 184.28 287.366Z" fill="#FFA412"/>
<path d="M177.26 291.881C177.2 292.929 179.66 293.896 182.72 294.057C185.78 294.218 188.24 293.493 188.3 292.526C188.36 291.478 185.9 290.51 182.84 290.348C179.78 290.107 177.32 290.832 177.26 291.881Z" fill="#FFA412"/>
<path d="M177.312 289.993L177.254 291.846L188.284 292.476L188.342 290.623L177.312 289.993Z" fill="#FFA412"/>
<path d="M177.32 290.026C177.26 291.074 179.719 292.042 182.779 292.203C185.839 292.365 188.3 291.639 188.36 290.671C188.42 289.623 185.959 288.656 182.899 288.494C179.839 288.252 177.38 288.978 177.32 290.026Z" fill="#FFA412"/>
<path opacity="0.4" d="M177.32 290.026C177.26 291.074 179.719 292.042 182.779 292.203C185.839 292.365 188.3 291.639 188.36 290.671C188.42 289.623 185.959 288.656 182.899 288.494C179.839 288.252 177.38 288.978 177.32 290.026Z" fill="white"/>
<path d="M178.04 289.946C178.04 290.027 178.04 290.107 178.1 290.107C178.46 289.463 180.5 289.14 182.9 289.301C185.3 289.463 187.28 290.027 187.64 290.672C187.7 290.591 187.7 290.591 187.7 290.511C187.7 289.785 185.6 289.14 182.96 288.979C180.2 288.817 178.04 289.22 178.04 289.946Z" fill="#FFA412"/>
<path opacity="0.4" d="M178.04 289.946C178.04 290.027 178.04 290.107 178.1 290.107C178.46 289.463 180.5 289.14 182.9 289.301C185.3 289.463 187.28 290.027 187.64 290.672C187.7 290.591 187.7 290.591 187.7 290.511C187.7 289.785 185.6 289.14 182.96 288.979C180.2 288.817 178.04 289.22 178.04 289.946Z" fill="#FFA412"/>
<path opacity="0.4" d="M178.1 290.107C178.4 290.752 180.44 291.316 182.84 291.478C185.24 291.639 187.28 291.235 187.64 290.671C187.34 290.026 185.36 289.461 182.9 289.3C180.44 289.139 178.46 289.543 178.1 290.107Z" fill="#FFA412"/>
<path d="M80.24 84.7598V89.5972C82.58 89.8386 84.68 91.1289 86.36 92.9833L88.94 89.5167C86.6 86.7752 83.6 85.0012 80.24 84.7598Z" fill="#A9AFEA"/>
<path d="M78.4999 118.621C73.2199 118.057 69.0199 112.413 68.5399 105.237H64.9399C65.3599 114.993 71.1799 122.894 78.4999 123.458V118.621Z" fill="#A9AFEA"/>
<path d="M68.6 102.98C69.02 95.8858 73.22 90.2419 78.56 89.5972V84.7598C71.3 85.324 65.42 93.1443 65 102.98H68.6Z" fill="#A9AFEA"/>
<path opacity="0.2" d="M68.6 102.98C69.02 95.8858 73.22 90.2419 78.56 89.5972V84.7598C71.3 85.324 65.42 93.1443 65 102.98H68.6Z" fill="black"/>
<path d="M90.2 91.2891L87.62 94.7557C89.24 97.3362 90.2 100.561 90.2 104.189C90.2 111.848 85.82 118.137 80.24 118.701V123.539C87.8 122.894 93.8 114.509 93.8 104.109C93.86 99.1907 92.48 94.6752 90.2 91.2891Z" fill="#A9AFEA"/>
<g opacity="0.8">
<path opacity="0.8" d="M80.24 84.7598V89.5972C82.58 89.8386 84.68 91.1289 86.36 92.9833L88.94 89.5167C86.6 86.7752 83.6 85.0012 80.24 84.7598Z" fill="white"/>
</g>
<g opacity="0.6">
<path opacity="0.6" d="M78.4999 118.621C73.2199 118.057 69.0199 112.413 68.5399 105.237H64.9399C65.3599 114.993 71.1799 122.894 78.4999 123.458V118.621Z" fill="white"/>
</g>
<g opacity="0.7">
<path opacity="0.7" d="M68.6 102.98C69.02 95.8858 73.22 90.2419 78.56 89.5972V84.7598C71.3 85.324 65.42 93.1443 65 102.98H68.6Z" fill="white"/>
</g>
<path opacity="0.5" d="M90.2 91.2891L87.62 94.7557C89.24 97.3362 90.2 100.561 90.2 104.189C90.2 111.848 85.82 118.137 80.24 118.701V123.539C87.8 122.894 93.8 114.509 93.8 104.109C93.86 99.1907 92.48 94.6752 90.2 91.2891Z" fill="white"/>
<path d="M105.68 79.5992L110.3 87.9837L136.7 73.2299L162.5 85.565L185.84 65.2482L187.52 68.2313L193.1 56.0572L180.62 54.6865L182.54 58.0727L159.2 78.2286L133.76 66.1351L105.68 79.5992Z" fill="#89CAEF"/>
<g opacity="0.5">
<g opacity="0.5">
<path opacity="0.5" d="M105.68 79.5992L110.3 87.9837L136.7 73.2299L162.5 85.565L185.84 65.2482L187.52 68.2313L193.1 56.0572L180.62 54.6865L182.54 58.0727L159.2 78.2286L133.76 66.1351L105.68 79.5992Z" fill="white"/>
</g>
</g>
<path d="M214.1 84.8398C210.86 84.8398 208.28 88.3065 208.28 92.6602C208.28 97.0138 210.86 100.48 214.1 100.48C217.34 100.48 219.92 97.0138 219.92 92.6602C219.92 88.3065 217.28 84.8398 214.1 84.8398ZM214.1 96.5301C212.48 96.5301 211.16 94.7561 211.16 92.6602C211.16 90.4837 212.48 88.7098 214.1 88.7098C215.72 88.7098 216.98 90.4837 216.98 92.6602C216.98 94.7561 215.72 96.5301 214.1 96.5301Z" fill="#ED9B91"/>
<path d="M228.74 107.736C225.5 107.736 222.92 111.204 222.92 115.557C222.92 119.911 225.5 123.378 228.74 123.378C231.98 123.378 234.56 119.911 234.56 115.557C234.56 111.284 231.98 107.736 228.74 107.736ZM228.74 119.508C227.12 119.508 225.8 117.734 225.8 115.638C225.8 113.461 227.12 111.688 228.74 111.688C230.36 111.688 231.62 113.461 231.62 115.638C231.68 117.734 230.36 119.508 228.74 119.508Z" fill="#ED9B91"/>
<path d="M216.26 123.378H212.42L225.86 84.8398H229.7L216.26 123.378Z" fill="#ED9B91"/>
<g opacity="0.5">
<path opacity="0.5" d="M214.1 84.8398C210.86 84.8398 208.28 88.3065 208.28 92.6602C208.28 97.0138 210.86 100.48 214.1 100.48C217.34 100.48 219.92 97.0138 219.92 92.6602C219.92 88.3065 217.28 84.8398 214.1 84.8398ZM214.1 96.5301C212.48 96.5301 211.16 94.7561 211.16 92.6602C211.16 90.4837 212.48 88.7098 214.1 88.7098C215.72 88.7098 216.98 90.4837 216.98 92.6602C216.98 94.7561 215.72 96.5301 214.1 96.5301Z" fill="white"/>
<path opacity="0.5" d="M228.74 107.736C225.5 107.736 222.92 111.204 222.92 115.557C222.92 119.911 225.5 123.378 228.74 123.378C231.98 123.378 234.56 119.911 234.56 115.557C234.56 111.284 231.98 107.736 228.74 107.736ZM228.74 119.508C227.12 119.508 225.8 117.734 225.8 115.638C225.8 113.461 227.12 111.688 228.74 111.688C230.36 111.688 231.62 113.461 231.62 115.638C231.68 117.734 230.36 119.508 228.74 119.508Z" fill="white"/>
<g opacity="0.5">
<path opacity="0.5" d="M216.26 123.378H212.42L225.86 84.8398H229.7L216.26 123.378Z" fill="white"/>
</g>
</g>
<path d="M147.5 88.3065C147.68 89.2739 147.8 90.1609 147.98 91.0479C148.16 91.9349 148.34 92.8219 148.52 93.7081C148.94 95.4821 149.36 97.2561 149.84 99.0292C150.86 102.738 152.18 106.205 153.86 109.43C154.34 110.317 154.94 111.204 155.54 111.929C156.2 112.816 156.98 113.541 157.82 114.106C159.44 115.154 161.24 115.638 162.98 115.476C164.54 115.315 166.1 114.832 167.54 114.025C168.2 113.623 168.86 113.219 169.52 112.736C169.82 112.493 170.18 112.252 170.48 111.929C170.78 111.606 171.08 111.365 171.44 111.042L169.88 107.253L169.04 107.576L168.14 107.898C167.54 108.059 166.94 108.22 166.34 108.302C165.26 108.543 164.18 108.543 163.04 108.382C162.14 108.302 161.36 107.818 160.58 107.172C160.28 106.85 159.98 106.528 159.74 106.124C159.44 105.641 159.14 105.076 158.84 104.512C158.24 103.222 157.7 101.851 157.28 100.48C156.8 99.0292 156.38 97.4975 155.96 95.8853C155.54 94.2731 155.18 92.7406 154.82 91.0479L154.28 88.6292C154.1 87.8227 153.92 86.9357 153.8 86.291L147.5 88.3065Z" fill="#FF8B7B"/>
<path d="M146.96 83.3889C149.66 78.7128 153.8 80.4059 156.14 87.823C157.4 91.7734 158.42 95.8856 159.2 100.078L149.54 104.673C146.96 97.6596 144.14 88.1458 146.96 83.3889Z" fill="#2BC2EC"/>
<path opacity="0.1" d="M146.96 83.3889C149.66 78.7128 153.8 80.4059 156.14 87.823C157.4 91.7734 158.42 95.8856 159.2 100.078L149.54 104.673C146.96 97.6596 144.14 88.1458 146.96 83.3889Z" fill="black"/>
<path opacity="0.3" d="M150.98 91.1288C150.2 90.4036 148.52 94.5955 147.8 99.5947C148.34 101.368 148.88 102.981 149.48 104.593L155.3 101.852C154.34 97.176 152.78 92.8223 150.98 91.1288Z" fill="black"/>
<path d="M170.36 105.399L172.46 103.866L173.18 110.236C173.18 110.236 169.64 113.139 168.62 110.72L168.74 109.107C168.86 107.575 169.46 106.204 170.36 105.399Z" fill="#FF8B7B"/>
<path d="M175.1 103.545L176.96 108.624L173.18 110.155L172.46 103.867L175.1 103.545Z" fill="#FF8B7B"/>
<path d="M146.9 79.196L141.92 78.2285L135.8 79.0348C133.88 79.2766 132.32 81.2116 131.96 83.7112C131.3 88.7096 130.88 95.8852 130.7 102.013C130.46 108.866 131.06 119.105 131.9 128.296L152.54 124.91C152.72 100.723 154.1 93.2242 154.28 86.8551C154.34 84.2754 153.14 81.9372 151.28 81.131L146.9 79.196Z" fill="#2BC2EC"/>
<path d="M153.14 199.164L157.52 200.777L161.48 186.909L157.1 185.297L153.14 199.164Z" fill="#FF8B7B"/>
<path d="M159.5 198.922C159.14 198.277 158.66 197.955 158.12 197.794L153.62 196.584C153.44 196.503 153.2 196.665 153.14 196.987L151.76 202.551C151.58 203.195 151.82 203.84 152.3 204.082C153.98 204.969 155.12 204.647 157.7 205.373C159.32 205.775 162.68 207.226 164.9 207.065C167.18 206.904 167.12 203.921 166.22 203.76C162.86 203.034 160.28 200.293 159.5 198.922Z" fill="#344F93"/>
<g opacity="0.2">
<path opacity="0.2" d="M161.48 186.909L159.38 194.327L155.06 192.472L157.1 185.297L161.48 186.909Z" fill="black"/>
</g>
<path d="M172.4 146.114C172.28 148.29 171.92 150.387 171.5 152.644C170.36 158.691 168.38 164.818 166.7 170.784C163.46 182.555 160.64 192.875 160.64 192.875L154.64 190.053C154.64 190.053 160.04 155.869 163.7 152.402H141.38C140.96 152.402 140.54 152.402 140.12 152.322C143.96 151.676 149.96 148.452 155.54 145.307C160.46 142.485 165.08 139.663 167.54 138.615C170.6 140.228 172.64 142.647 172.4 146.114Z" fill="#344F93"/>
<path opacity="0.1" d="M172.4 146.114C172.28 148.29 171.92 150.387 171.5 152.644C170.36 158.691 168.38 164.818 166.7 170.784C163.46 182.555 160.64 192.875 160.64 192.875L154.64 190.053C154.64 190.053 160.04 155.869 163.7 152.402H141.38C140.96 152.402 140.54 152.402 140.12 152.322C143.96 151.676 149.96 148.452 155.54 145.307C160.46 142.485 165.08 139.663 167.54 138.615C170.6 140.228 172.64 142.647 172.4 146.114Z" fill="black"/>
<path opacity="0.6" d="M167.54 138.454C165.02 139.502 160.46 142.324 155.54 145.146C149.96 148.372 143.96 151.515 140.12 152.16C133.64 151.032 131.18 140.632 137.96 128.699C142.34 128.699 146.78 134.342 146.78 134.342C146.78 134.342 160.16 134.262 167.54 138.454Z" fill="black"/>
<path d="M183.74 187.232H188.66L183.5 170.704L180.14 178.282L183.74 187.232Z" fill="#FF8B7B"/>
<path d="M188.24 185.7L182.48 183.926C182.3 183.846 182.06 184.007 182 184.249L180.38 190.215C180.26 190.86 180.5 191.505 180.98 191.666C183.02 192.23 183.98 192.392 186.56 193.117C188.12 193.601 192.08 194.972 194.24 195.616C196.4 196.262 196.94 193.44 196.1 192.876C192.26 190.457 190.16 188.199 189.08 186.264C188.84 186.023 188.54 185.781 188.24 185.7Z" fill="#344F93"/>
<g opacity="0.2">
<path opacity="0.2" d="M183.5 170.704L185.66 177.718L181.28 181.104L180.14 178.282L183.5 170.704Z" fill="black"/>
</g>
<path d="M185.78 175.219L180.38 179.653C180.38 179.653 175.88 166.915 171.56 152.564C171.98 150.387 172.28 148.21 172.46 146.034C172.7 142.566 170.66 140.148 167.6 138.455C165.08 139.503 160.52 142.325 155.6 145.147C150.02 148.372 144.02 151.516 140.18 152.161C139.7 152.242 139.28 152.322 138.86 152.322C131.48 152.322 128.9 143.615 131.9 128.861C136.28 128.861 143.84 128.216 143.84 128.216C143.84 128.216 158.36 123.539 168.8 125.152C173.9 125.958 178.04 131.038 179 137.81C181.64 155.789 185.78 175.219 185.78 175.219Z" fill="#344F93"/>
<path d="M185.78 175.219L180.38 179.653C180.38 179.653 175.88 166.915 171.56 152.564C171.98 150.387 172.28 148.21 172.46 146.034C172.7 142.566 170.66 140.148 167.6 138.455C165.08 139.503 160.52 142.325 155.6 145.147C150.02 148.372 144.02 151.516 140.18 152.161C139.7 152.242 139.28 152.322 138.86 152.322C131.48 152.322 128.9 143.615 131.9 128.861C136.28 128.861 143.84 128.216 143.84 128.216C143.84 128.216 158.36 123.539 168.8 125.152C173.9 125.958 178.04 131.038 179 137.81C181.64 155.789 185.78 175.219 185.78 175.219Z" fill="#344F93"/>
<path d="M146.9 79.196L141.92 78.2285L135.8 79.0348C133.88 79.2766 132.32 81.2116 131.96 83.7112C131.3 88.7096 130.88 95.8852 130.7 102.013C130.46 108.866 131.06 119.105 131.9 128.296L152.54 124.91C152.72 100.723 154.1 93.2242 154.28 86.8551C154.34 84.2754 153.14 81.9372 151.28 81.131L146.9 79.196Z" fill="#2BC2EC"/>
<path d="M131.84 126.684L131.3 128.94C131.24 129.102 131.36 129.263 131.6 129.344L152.18 127.651C152.36 127.651 152.48 127.57 152.48 127.409L152.72 125.151C152.72 124.99 152.6 124.829 152.42 124.829L132.14 126.522C132.08 126.522 131.9 126.602 131.84 126.684Z" fill="#344F93"/>
<path opacity="0.1" d="M131.84 126.684L131.3 128.94C131.24 129.102 131.36 129.263 131.6 129.344L152.18 127.651C152.36 127.651 152.48 127.57 152.48 127.409L152.72 125.151C152.72 124.99 152.6 124.829 152.42 124.829L132.14 126.522C132.08 126.522 131.9 126.602 131.84 126.684Z" fill="black"/>
<path opacity="0.3" d="M133.94 81.454C138.08 80.4865 137.84 93.0637 135.98 102.255C135.44 104.916 133.1 103.787 132.32 103.142C129.68 100.804 128.84 85.4849 133.94 81.454Z" fill="black"/>
<path d="M133.46 99.997C133.64 105.399 132.32 108.302 134.48 110.075C136.64 111.849 149.36 117.573 149.66 116.847C149.06 118.138 148.46 119.266 147.86 120.556C144.2 119.83 140.54 119.105 136.82 118.541C134.12 118.057 129.8 117.17 127.7 114.912C125.78 112.817 126.14 103.786 126.44 97.2563C128.18 95.8856 133.46 99.997 133.46 99.997Z" fill="#FF8B7B"/>
<path d="M132.32 79.1964C136.58 77.5033 138.14 82.0989 136.88 89.9197C136.22 94.1115 135.32 98.2237 134.12 102.255L125.3 98.4652C126.2 90.8058 128 80.9702 132.32 79.1964Z" fill="#2BC2EC"/>
<path d="M138.5 79.1958C138.32 80.4051 138.62 81.6145 139.16 82.5816C139.64 83.5491 140.3 84.4361 140.96 85.2426C141.8 86.2906 142.82 87.3385 143.9 87.1776C144.92 87.0166 145.52 86.2906 145.94 84.5979C146.84 86.5328 146.9 87.5003 147.86 87.5808C148.52 87.6613 149.06 87.0166 149.48 86.4515C150.26 85.4036 150.62 84.7589 150.74 83.2271C150.98 80.8082 149.48 78.5507 147.8 77.6639C145.94 76.7771 144.32 76.5352 142.4 76.2127C140.84 76.0515 138.8 76.6964 138.5 79.1958Z" fill="#2BC2EC"/>
<path opacity="0.3" d="M138.5 79.1958C138.32 80.4051 138.62 81.6145 139.16 82.5816C139.64 83.5491 140.3 84.4361 140.96 85.2426C141.8 86.2906 142.82 87.3385 143.9 87.1776C144.92 87.0166 145.52 86.2906 145.94 84.5979C146.84 86.5328 146.9 87.5003 147.86 87.5808C148.52 87.6613 149.06 87.0166 149.48 86.4515C150.26 85.4036 150.62 84.7589 150.74 83.2271C150.98 80.8082 149.48 78.5507 147.8 77.6639C145.94 76.7771 144.32 76.5352 142.4 76.2127C140.84 76.0515 138.8 76.6964 138.5 79.1958Z" fill="black"/>
<path d="M142.82 67.5059L145.04 70.9727L148.1 75.7294C147.8 76.2132 147.62 76.7776 147.5 77.4225C147.2 78.7932 147.26 80.0831 148.34 81.0506C148.82 81.3731 149.06 84.5976 146 84.2757C143.9 84.1139 142.58 83.1464 141.38 81.4537C140.84 80.4056 140.66 79.9219 141.26 78.7932C142.88 75.6489 143 71.0533 142.82 67.5059Z" fill="#FF8B7B"/>
<path opacity="0.2" d="M147.32 74.52L145.4 71.1338C145.4 71.2144 145.34 71.3757 145.34 71.4563C145.22 71.94 145.16 72.4238 145.16 72.9075C145.04 74.6006 146.24 76.7774 147.38 77.6644L147.44 77.3418C147.56 76.7774 147.74 76.2131 147.98 75.7294L148.04 75.6487L147.32 74.52Z" fill="black"/>
<path d="M143 61.1367C142.64 66.7802 142.28 70.0052 144.08 73.1495C146.78 77.9869 152.18 76.2938 153.74 70.892C155.18 66.0546 155.48 57.6698 151.64 54.848C148.82 52.7518 145.28 54.1223 143.72 57.9117C143.3 58.8792 143.06 59.9273 143 61.1367Z" fill="#FF8B7B"/>
<path d="M142.4 66.0546L144.2 67.1028C144.8 66.7802 144.92 65.8128 144.92 64.9259C144.74 61.5397 149.3 57.2667 149.3 57.2667C149.3 57.2667 144.44 55.0898 143 54.7673C142.52 54.6867 140.66 56.4605 140.36 57.1861C139.58 59.3629 139.88 62.0235 140.96 63.9584C141.38 64.7646 141.86 65.4097 142.4 66.0546Z" fill="#344F93"/>
<path d="M140.84 65.0872C140.9 66.3771 141.38 67.5059 142.04 68.3927C142.94 69.5214 144.02 68.3121 144.14 66.6996C144.26 65.2484 143.72 63.2328 142.64 62.7491C141.56 62.1847 140.78 63.4747 140.84 65.0872Z" fill="#FF8B7B"/>
<path d="M149.24 64.4424C149.18 64.9261 149.3 65.3293 149.54 65.4099C149.78 65.4905 149.96 65.168 150.08 64.6843C150.14 64.2005 150.02 63.7974 149.78 63.7168C149.54 63.7168 149.3 64.0393 149.24 64.4424Z" fill="#344F93"/>
<path d="M153.08 65.5703C153.02 66.0542 153.14 66.4572 153.38 66.5378C153.62 66.6185 153.86 66.2959 153.92 65.8122C153.98 65.3285 153.86 64.9254 153.62 64.8447C153.38 64.8447 153.2 65.1672 153.08 65.5703Z" fill="#344F93"/>
<path d="M151.82 65.5713C151.94 66.8613 152.18 68.1512 152.54 69.4412C151.94 69.9249 151.1 69.28 151.1 69.28L151.82 65.5713Z" fill="#FF5652"/>
<path d="M150.14 71.8595C149.36 71.4564 148.76 70.7308 148.4 69.6827C148.4 69.602 148.4 69.5215 148.46 69.5215C148.52 69.5215 148.58 69.5215 148.58 69.6021C148.94 70.6502 149.66 71.4564 150.56 71.6983C150.62 71.6983 150.68 71.7789 150.62 71.8595C150.62 71.9402 150.56 72.0208 150.5 71.9402C150.44 71.9402 150.32 71.9402 150.14 71.8595Z" fill="#344F93"/>
<path d="M148.76 62.5878C148.7 62.5878 148.7 62.5072 148.7 62.5072C148.64 62.4266 148.64 62.1847 148.7 62.1041C149.18 61.5397 149.84 61.2978 150.5 61.5397C150.62 61.6203 150.68 61.701 150.62 61.8622C150.56 62.0234 150.44 62.1041 150.38 62.0234C149.9 61.8622 149.36 62.0234 149 62.5072C148.88 62.6685 148.82 62.6685 148.76 62.5878Z" fill="#344F93"/>
<path d="M153.56 62.5875C153.56 62.5069 153.56 62.5069 153.56 62.4263C153.62 62.265 153.68 62.1844 153.8 62.265C154.46 62.5069 154.94 63.0712 155.18 63.9581C155.24 64.1193 155.18 64.2806 155.06 64.2806C154.94 64.3612 154.82 64.2806 154.82 64.1193C154.64 63.4744 154.22 62.9906 153.74 62.8293C153.62 62.8293 153.56 62.7488 153.56 62.5875Z" fill="#344F93"/>
<path d="M154.82 126.119L181.16 126.199C182.06 126.199 182.9 125.151 183.02 123.942L184.22 106.043C184.28 104.834 183.62 103.786 182.66 103.786L156.32 103.705C155.42 103.705 154.58 104.754 154.46 105.963L153.26 123.861C153.2 125.151 153.86 126.119 154.82 126.119Z" fill="#CDDBE6"/>
<path opacity="0.3" d="M154.82 126.119L181.16 126.199C182.06 126.199 182.9 125.151 183.02 123.942L184.22 106.043C184.28 104.834 183.62 103.786 182.66 103.786L156.32 103.705C155.42 103.705 154.58 104.754 154.46 105.963L153.26 123.861C153.2 125.151 153.86 126.119 154.82 126.119Z" fill="black"/>
<path d="M155.6 126.038L181.94 126.118C182.84 126.118 183.68 125.071 183.8 123.862L185 105.963C185.06 104.753 184.4 103.705 183.44 103.705L157.1 103.625C156.2 103.625 155.36 104.673 155.24 105.883L154.04 123.781C153.98 125.071 154.64 126.038 155.6 126.038Z" fill="#CDDBE6"/>
<path opacity="0.2" d="M155.6 126.038L181.94 126.118C182.84 126.118 183.68 125.071 183.8 123.862L185 105.963C185.06 104.753 184.4 103.705 183.44 103.705L157.1 103.625C156.2 103.625 155.36 104.673 155.24 105.883L154.04 123.781C153.98 125.071 154.64 126.038 155.6 126.038Z" fill="white"/>
<path d="M171.38 115.154C171.26 116.525 170.36 117.493 169.34 117.411C168.32 117.25 167.6 116.041 167.66 114.671C167.78 113.3 168.68 112.332 169.7 112.413C170.72 112.574 171.44 113.784 171.38 115.154Z" fill="white"/>
<path d="M182.3 126.119C182.3 127.168 181.82 128.054 181.22 128.054L154.04 127.893C153.74 127.893 153.5 127.49 153.5 126.925C153.5 126.361 153.74 125.958 154.04 125.958L182.3 126.119Z" fill="#CDDBE6"/>
<path opacity="0.3" d="M182.3 126.119C182.3 127.168 181.82 128.054 181.22 128.054L154.04 127.893C153.74 127.893 153.5 127.49 153.5 126.925C153.5 126.361 153.74 125.958 154.04 125.958L182.3 126.119Z" fill="black"/>
<path d="M153.92 127.973H140.84C140.12 127.973 139.58 127.248 139.58 126.28C139.58 126.119 139.64 126.038 139.76 126.038H153.92C154.34 126.038 154.64 126.441 154.64 127.006C154.64 127.489 154.28 127.973 153.92 127.973Z" fill="#CDDBE6"/>
<path d="M146.84 114.348L149 113.461L148.82 120.637C148.82 120.637 144.08 122.168 143.78 119.185L144.38 117.573C144.92 116.363 145.64 114.751 146.84 114.348Z" fill="#FF8B7B"/>
<path d="M152.24 115.557L151.64 119.588L148.82 120.717L149 113.541L152.24 115.557Z" fill="#FF8B7B"/>
<path d="M153.14 189.408L162.14 193.44L163.94 188.522L154.04 184.249L153.14 189.408Z" fill="#2BC2EC"/>
<path d="M179 180.62L187.28 174.412L185.72 169.253L176.72 176.267L179 180.62Z" fill="#2BC2EC"/>
<path d="M155.12 61.0556C156.38 60.9749 156.86 59.04 156.68 58.1532C156.5 57.0245 156.02 56.057 155.3 55.4926C155.72 53.7995 155.18 51.9452 153.68 50.5745C152.72 49.6877 151.1 49.6071 150.08 50.2521C150.08 48.8009 148.1 47.8333 146.78 49.6877C145.64 48.8814 144.26 48.8814 143.36 50.0908C143.06 50.494 142.82 51.1389 143 51.6227C141.98 51.6227 141.02 52.4289 140.54 53.6383C140.06 54.8476 140.12 56.3794 140.66 57.5082C141.08 58.3144 142.04 58.3144 142.76 58.0725C143.12 59.04 143.84 59.5238 144.62 59.9269C147.02 60.975 150.26 60.0075 150.8 59.9269C151.4 59.8462 152 59.9269 152.48 60.4106C152.3 60.8137 151.88 61.0556 151.52 61.1362C151.16 61.2169 150.8 61.1362 150.44 61.0556C151.34 61.7006 152.18 62.1037 153.14 61.7812C153.44 61.7006 154.1 61.0556 154.4 61.0556C154.7 60.8944 155.12 61.1362 155.12 61.0556Z" fill="black"/>
</g>
<defs>
<clipPath id="clip0_2573_67812">
<rect width="300" height="300" fill="white" transform="translate(0.5 0.830078)"/>
</clipPath>
</defs>
</svg>
