<svg width="301" height="301" viewBox="0 0 301 301" fill="none" xmlns="http://www.w3.org/2000/svg">
<g clip-path="url(#clip0_2573_66828)">
<g opacity="0.26">
<g opacity="0.26">
<path opacity="0.26" d="M43.9305 194.758C43.9305 187.258 38.9879 181.168 32.9012 181.168H17.021C10.9343 181.168 5.99171 175.078 5.99171 167.578C5.99171 160.079 10.9343 153.988 17.021 153.988H277.146C283.233 153.988 288.175 160.079 288.175 167.578C288.175 175.078 283.233 181.168 277.146 181.168H252.845C246.758 181.168 241.816 187.258 241.816 194.758C241.816 202.257 246.758 208.347 252.845 208.347H255.957C262.044 208.347 266.986 214.438 266.986 221.937C266.986 229.437 271.929 235.527 278.016 235.527H286.161C292.248 235.527 297.191 241.617 297.191 249.117C297.191 256.616 292.248 262.707 286.161 262.707H66.172C60.0853 262.707 55.1427 256.616 55.1427 249.117C55.1427 241.617 50.2002 235.527 44.1135 235.527H11.5292C5.44256 235.527 0.5 229.437 0.5 221.937C0.5 214.438 5.44256 208.347 11.5292 208.347H32.9012C38.9879 208.347 43.9305 202.257 43.9305 194.758Z" fill="#F3A39B"/>
</g>
<path opacity="0.26" d="M299.251 119.873C302.317 105.72 295.498 91.1712 284.011 87.3368C281.265 86.4345 278.474 86.209 275.774 86.6601C275.637 80.5137 272.296 74.9312 267.216 73.2395C267.033 73.1831 266.896 73.1832 266.712 73.1268C267.399 71.4351 267.994 69.6871 268.406 67.7699C271.472 53.6162 264.653 39.0678 253.166 35.2333C242.778 31.7936 232.115 38.3911 227.904 50.1764C226.211 48.5411 224.243 47.2442 222.046 46.5112C220.582 46.0036 219.117 45.8908 217.699 45.9472C217.516 45.8344 217.333 45.7217 217.149 45.6089C216.555 45.2705 215.96 44.9886 215.411 44.7631C216.6 38.955 214.312 32.7521 209.736 30.1582C209.461 29.9891 209.186 29.9327 208.912 29.8199C211.338 19.4443 207.356 8.16649 199.164 3.4862C190.103 -1.64521 179.394 3.2043 175.229 14.3693C175.046 14.9332 174.864 15.4971 174.68 16.061C173.262 14.0309 171.523 12.2829 169.418 11.0987C161.774 6.7568 152.668 10.8732 149.144 20.2901C148 23.3352 147.588 26.5493 147.816 29.6507C147.725 29.6507 147.679 29.5944 147.588 29.5944C145.3 29.5944 143.103 30.2146 141.135 31.2296C139.533 18.4857 130.655 8.73043 119.854 8.73043C107.956 8.73043 98.2993 20.6285 98.2993 35.2897C98.2993 37.2632 98.4821 39.1805 98.8026 40.985C98.6198 40.985 98.4821 40.9286 98.2993 40.9286C93.0363 40.9286 88.6429 45.2705 87.1789 51.1914C84.6617 49.9509 81.9617 49.2178 79.0782 49.2178C67.1796 49.2178 57.5233 61.1159 57.5233 75.7771C57.5233 80.0063 58.347 84.0099 59.8115 87.6187C58.164 88.6338 56.6996 89.9868 55.4181 91.6225C51.3908 86.4346 45.0296 84.6302 39.4464 87.8442C33.0851 91.4529 29.9731 100.25 31.8495 108.314C31.6206 108.426 31.4376 108.482 31.2087 108.596C27.6391 110.625 25.9001 115.419 26.7696 119.929C26.312 120.156 25.8543 120.324 25.3966 120.607C16.015 125.963 11.8962 139.609 16.2438 151.169C19.2642 159.233 25.5798 164.139 32.3528 164.534V164.59H285.522V164.477C291.974 163.857 297.695 158.387 299.48 150.21C301.082 142.823 298.977 135.268 294.629 130.588C296.734 127.599 298.382 123.989 299.251 119.873Z" fill="#F3A39B"/>
</g>
<path d="M159.435 291.297C221.131 291.297 271.146 234.34 271.146 164.082C271.146 93.8235 221.131 36.8682 159.435 36.8682C97.7388 36.8682 47.7239 93.8235 47.7239 164.082C47.7239 234.34 97.7388 291.297 159.435 291.297Z" fill="#F3A39B"/>
<path d="M159.435 36.8682C165.156 38.9546 170.693 41.7177 176.139 44.7627C181.54 47.8077 186.848 51.2475 191.974 55.0255C197.1 58.86 201.996 63.0328 206.71 67.6002C209.044 69.9122 211.332 72.2807 213.529 74.8182C214.078 75.4384 214.627 76.0587 215.176 76.7354L216.778 78.6526L218.334 80.6262L218.746 81.1337L219.112 81.6412L219.89 82.6562L220.668 83.6712L221.4 84.6862C221.904 85.3629 222.408 86.0396 222.865 86.7726L224.284 88.9156L225.657 91.0582C227.487 93.9904 229.226 96.9791 230.828 100.081C232.43 103.182 233.894 106.396 235.267 109.723C236.64 113.05 237.83 116.433 238.928 119.873C239.431 121.621 239.981 123.313 240.439 125.117L240.805 126.414C240.85 126.64 240.942 126.865 240.988 127.091L241.125 127.768L241.766 130.418C241.948 131.32 242.132 132.223 242.315 133.124L242.589 134.478C242.681 134.929 242.726 135.38 242.818 135.831L243.276 138.538L243.642 141.244C243.688 141.696 243.78 142.147 243.825 142.598L243.962 143.951L244.283 146.715L244.512 149.477L244.603 150.83L244.694 152.241L244.832 155.003L244.878 157.767L244.923 159.176C244.923 159.628 244.923 160.078 244.923 160.586V163.35V164.026L244.878 164.703L244.832 166.112C244.786 167.015 244.786 167.973 244.74 168.876L244.557 171.638C244.512 172.09 244.512 172.541 244.466 172.991L244.329 174.345L244.099 177.108L243.78 179.871L243.596 181.224L243.413 182.578L243.001 185.284L242.544 187.991L242.315 189.344L242.04 190.698L241.491 193.404L240.896 196.055C240.804 196.506 240.713 196.957 240.576 197.408L240.255 198.705L239.935 200.002C239.798 200.453 239.706 200.904 239.569 201.299L238.791 203.893L238.608 204.57L238.379 205.19L237.967 206.487C233.528 220.246 227.03 232.877 219.021 243.873C215.04 249.343 210.691 254.474 206.115 259.21C201.539 263.948 196.687 268.233 191.654 272.18C186.619 276.128 181.356 279.68 176.002 282.894C170.648 286.052 165.11 288.928 159.435 291.183C160.854 290.619 162.227 289.943 163.646 289.266C165.019 288.59 166.392 287.913 167.764 287.18C170.51 285.714 173.21 284.191 175.865 282.556C181.173 279.285 186.345 275.62 191.333 271.56C196.322 267.556 201.081 263.158 205.612 258.422C207.854 256.053 210.097 253.572 212.202 251.034C214.307 248.496 216.367 245.846 218.334 243.083C220.302 240.32 222.133 237.501 223.917 234.569L224.558 233.441C224.787 233.046 225.016 232.708 225.199 232.313L226.48 230.057C226.892 229.324 227.304 228.535 227.716 227.802C228.128 227.069 228.494 226.279 228.906 225.49C229.684 223.968 230.416 222.332 231.194 220.753C231.88 219.118 232.612 217.539 233.253 215.903C233.94 214.269 234.535 212.633 235.176 210.942C235.771 209.25 236.366 207.615 236.869 205.867C239.066 199.1 240.667 192.051 241.812 184.89L242.177 182.183L242.361 180.83L242.498 179.476L242.818 176.77L243.047 174.063L243.184 172.71C243.23 172.258 243.23 171.808 243.276 171.356L243.459 168.65C243.505 167.748 243.505 166.845 243.55 165.943L243.596 164.59L243.642 163.913V163.236V160.473C243.642 160.022 243.642 159.571 243.642 159.12L243.596 157.767L243.55 155.06L243.413 152.353L243.321 151L243.23 149.647L243.001 146.94L242.726 144.233L242.589 142.88C242.544 142.429 242.452 141.977 242.407 141.526L242.04 138.82L241.583 136.17C241.491 135.718 241.445 135.267 241.353 134.816L241.079 133.463C240.896 132.561 240.713 131.715 240.53 130.812L239.935 128.163L239.798 127.485C239.752 127.26 239.707 127.035 239.615 126.809L239.294 125.512C238.837 123.764 238.334 122.072 237.83 120.324C236.777 116.941 235.588 113.557 234.26 110.343C232.933 107.073 231.469 103.915 229.912 100.814C228.311 97.7122 226.617 94.7235 224.833 91.8478L223.46 89.7052L222.041 87.5621C221.584 86.829 221.08 86.1523 220.576 85.4757L219.844 84.4607L219.112 83.4457C211.104 72.6189 201.722 63.4275 191.654 55.6458C186.619 51.7549 181.402 48.2589 176.002 45.101C173.302 43.5222 170.602 42.056 167.856 40.6462C166.483 39.9696 165.11 39.2929 163.692 38.6163C162.227 38.0523 160.854 37.4321 159.435 36.8682Z" fill="white"/>
<path d="M159.435 36.8682C158.016 37.4321 156.643 38.0524 155.27 38.6727C153.897 39.2929 152.524 40.026 151.152 40.7027C148.406 42.1124 145.751 43.6349 143.097 45.2138C137.788 48.428 132.617 51.9805 127.674 55.8714C122.686 59.7622 117.927 64.0477 113.396 68.6716C111.154 70.9836 108.957 73.4084 106.806 75.9459C104.701 78.4834 102.642 81.0773 100.72 83.784C98.7517 86.4907 96.9213 89.3104 95.1361 92.1861C93.3968 95.1182 91.7493 98.1069 90.1936 101.152C88.6378 104.253 87.2649 107.411 85.9378 110.682L84.9764 113.106C84.6559 113.952 84.3813 114.742 84.1067 115.588L83.6493 116.828L83.2378 118.069L82.8256 119.31C82.6879 119.704 82.551 120.155 82.414 120.55L81.6813 123.087C81.5444 123.538 81.4526 123.933 81.315 124.384L80.9952 125.681L80.7206 127.203C80.583 127.655 80.5371 128.05 80.4001 128.501L79.8051 131.095L79.3018 133.745C79.21 134.196 79.119 134.647 79.0272 135.042L78.7985 136.395C78.6609 137.297 78.478 138.143 78.3404 139.045L77.9747 141.696C77.9289 142.147 77.8371 142.598 77.7912 143.049L77.6543 144.403C77.5625 145.304 77.4714 146.207 77.3797 147.109L77.151 149.816C77.1051 150.267 77.0592 150.718 77.0592 151.169L77.0133 152.523L76.8764 155.229L76.8305 157.936L76.7846 159.289C76.7846 159.74 76.7846 160.191 76.7846 160.643V163.349V164.026V164.703L76.8305 166.056C76.8764 166.958 76.8764 167.86 76.9223 168.763L77.1051 171.47L77.1969 172.823L77.3338 174.176L77.5625 176.883L77.883 179.59L78.0206 180.943C78.0658 181.394 78.1576 181.844 78.2034 182.296L78.5698 184.946C78.7067 185.849 78.8444 186.694 79.0272 187.596L79.2559 188.95C79.3477 189.401 79.4387 189.852 79.5305 190.247L80.0338 192.897C80.2173 193.799 80.446 194.645 80.6289 195.491L80.9034 196.788L81.2239 198.085C81.4526 198.93 81.6354 199.833 81.8641 200.679C82.3681 202.37 82.8256 204.118 83.3289 205.81L83.7411 207.05L83.9239 207.671L84.1526 208.291L85.0223 210.772C85.2969 211.618 85.6173 212.408 85.9378 213.253L86.3952 214.494L86.8985 215.735L87.4018 216.975C87.5853 217.37 87.7223 217.764 87.9051 218.159L88.9583 220.584C89.3239 221.374 89.6903 222.163 90.0566 222.952L90.6058 224.136L91.2001 225.321L91.7952 226.505L92.0698 227.069L92.3903 227.633L93.5804 229.889C94.4041 231.41 95.2279 232.876 96.0976 234.343C97.8361 237.276 99.6213 240.151 101.543 242.857C103.466 245.621 105.479 248.271 107.538 250.865C109.598 253.459 111.794 255.883 113.991 258.309C116.188 260.676 118.476 262.989 120.856 265.188C123.19 267.387 125.615 269.473 128.041 271.503C132.938 275.563 138.017 279.229 143.28 282.556C145.889 284.248 148.589 285.77 151.289 287.236C152.662 287.97 153.989 288.702 155.362 289.379C156.735 290.056 158.108 290.732 159.527 291.297C153.897 289.041 148.451 286.164 143.143 282.95C137.834 279.736 132.663 276.128 127.72 272.18C122.732 268.176 117.973 263.835 113.488 259.098C111.245 256.73 109.048 254.249 106.943 251.711C104.838 249.117 102.825 246.467 100.857 243.703C93.0312 232.708 86.7157 220.02 82.414 206.374C81.8649 204.683 81.4067 202.934 80.9034 201.186C80.6747 200.34 80.446 199.438 80.2173 198.592L79.8969 197.296L79.5764 195.998C79.3936 195.096 79.1641 194.25 78.9813 193.348L78.4321 190.697C78.3404 190.247 78.2493 189.796 78.1576 189.344L77.9289 187.991C77.7912 187.089 77.6084 186.187 77.4714 185.284L77.1051 182.578C77.0592 182.127 76.9674 181.676 76.9223 181.224L76.7846 179.871L76.4641 177.164L76.2354 174.457L76.0985 173.104L76.0067 171.751L75.8239 168.988C75.778 168.086 75.778 167.183 75.7321 166.225L75.6863 164.871L75.6404 164.195V163.518V160.755C75.6404 160.304 75.6404 159.853 75.6404 159.402L75.6863 158.049L75.7321 155.285L75.8691 152.523L75.9609 151.169C76.0067 150.718 76.0526 150.267 76.0526 149.816L76.2813 147.053C76.3731 146.15 76.4641 145.248 76.5559 144.346L76.6929 142.993C76.7387 142.542 76.8305 142.09 76.8764 141.639L77.242 138.932C77.3797 138.03 77.5625 137.128 77.7001 136.226L77.9289 134.872C78.0206 134.422 78.1117 133.97 78.2034 133.519L78.7526 130.869L79.3477 128.218C79.4387 127.768 79.5305 127.317 79.6674 126.922L79.9879 125.624L80.3084 124.328C80.4001 123.877 80.5371 123.482 80.6747 123.03L81.4526 120.437C85.6173 106.678 92.0698 94.0469 100.033 83.2201C102.001 80.5134 104.106 77.8631 106.257 75.382C108.408 72.8445 110.65 70.4197 112.938 68.1642C117.561 63.5402 122.366 59.3111 127.4 55.4766C132.434 51.6422 137.651 48.2024 143.006 45.101C148.269 41.7741 153.76 39.0109 159.435 36.8682Z" fill="white"/>
<path d="M158.748 36.8682C159.663 37.714 160.533 38.6727 161.402 39.6313C161.631 39.8569 161.814 40.1388 162.043 40.3643L162.684 41.0974C163.095 41.6049 163.507 42.1124 163.919 42.6199C165.52 44.7063 166.985 46.9055 168.404 49.2174C171.241 53.7849 173.758 58.6344 176.001 63.653C178.243 68.6716 180.211 73.9159 181.95 79.2729L182.591 81.2465L183.186 83.2765L183.781 85.3065L184.101 86.3215L184.376 87.3364L185.474 91.453C185.794 92.8061 186.115 94.2156 186.481 95.5695C186.664 96.2461 186.801 96.9226 186.984 97.6556L187.442 99.7417L187.9 101.829L188.129 102.9L188.22 103.408L188.311 103.915L189.089 108.144L189.273 109.216L189.364 109.723L189.456 110.23L189.776 112.373L190.417 116.603L190.965 120.888L191.241 123.03C191.286 123.37 191.332 123.763 191.378 124.103L191.469 125.174L191.881 129.459C192.979 140.85 193.346 152.353 193.3 163.856C193.208 175.36 192.659 186.807 191.469 198.197L191.011 202.483C190.92 203.216 190.874 203.893 190.783 204.626L190.508 206.769L189.913 210.998C189.868 211.336 189.822 211.731 189.776 212.07L189.593 213.141L189.273 215.227C188.861 218.047 188.311 220.866 187.808 223.63C187.762 223.968 187.671 224.306 187.625 224.701L187.396 225.716L186.938 227.802C186.618 229.211 186.343 230.565 186.024 231.975L185.016 236.091L183.918 240.208C183.552 241.561 183.14 242.914 182.774 244.268L182.179 246.297C181.996 246.974 181.767 247.65 181.538 248.328C179.845 253.684 177.923 258.929 175.726 264.003C173.529 269.079 171.058 273.984 168.312 278.609C166.939 280.921 165.475 283.176 163.919 285.319C163.141 286.39 162.363 287.405 161.493 288.42C160.67 289.436 159.8 290.394 158.885 291.297C159.8 290.394 160.624 289.379 161.402 288.363C162.225 287.349 162.958 286.277 163.736 285.15C165.246 282.95 166.665 280.695 167.992 278.383C170.647 273.703 173.026 268.74 175.131 263.665C177.237 258.59 179.067 253.346 180.715 247.99C180.897 247.312 181.126 246.636 181.31 245.959L181.859 243.93C182.224 242.576 182.637 241.223 182.957 239.87L184.01 235.81L184.97 231.693C185.291 230.339 185.565 228.93 185.84 227.576L186.252 225.49L186.481 224.475C186.573 224.136 186.618 223.798 186.664 223.403L187.396 219.23C187.671 217.821 187.854 216.411 188.083 215.058L188.403 212.971L188.586 211.9C188.632 211.562 188.678 211.223 188.724 210.829L189.273 206.6L189.547 204.456C189.638 203.723 189.684 203.047 189.776 202.314L190.233 198.085C191.378 186.75 191.927 175.303 192.019 163.913V155.342L191.789 146.77L191.561 142.485L191.469 140.343C191.424 139.61 191.424 138.932 191.332 138.199L191.011 133.914C190.92 132.504 190.829 131.095 190.691 129.629L190.279 125.399L190.188 124.328C190.142 123.99 190.142 123.595 190.096 123.256L189.822 121.114L189.319 116.884L188.724 112.656L188.403 110.569L188.311 110.062L188.22 109.554L188.037 108.483L187.305 104.31L187.213 103.803L187.122 103.295L186.892 102.28L186.481 100.193L186.069 98.1069C185.932 97.4304 185.749 96.7539 185.611 96.0209C185.291 94.6669 184.97 93.2574 184.651 91.9043L183.597 87.8443L183.323 86.8289L183.048 85.814L182.454 83.784L181.859 81.754L181.218 79.7803C179.57 74.4234 177.694 69.2356 175.497 64.1606C173.347 59.0855 170.921 54.2361 168.175 49.6122C166.802 47.3002 165.338 45.101 163.782 42.9582C163.37 42.4507 163.004 41.8869 162.592 41.3793L161.997 40.5899C161.814 40.3079 161.585 40.0823 161.402 39.8568C160.533 38.7854 159.663 37.7704 158.748 36.8682Z" fill="white"/>
<path d="M158.748 36.8682C157.833 37.7704 157.01 38.7291 156.14 39.7441C155.957 39.9696 155.728 40.2516 155.545 40.4771L154.95 41.2665C154.538 41.774 154.172 42.3379 153.76 42.8454C152.204 44.9882 150.785 47.1875 149.367 49.4994C146.621 54.1233 144.195 59.0292 142.044 64.0478C139.894 69.1229 137.971 74.3107 136.324 79.6676L135.683 81.6412L135.089 83.6712L134.494 85.7012L134.219 86.7162L133.944 87.7312L132.892 91.7913C132.571 93.1443 132.251 94.5539 131.93 95.9078C131.794 96.5843 131.61 97.2609 131.473 97.9939L131.061 100.081L130.649 102.167L130.421 103.182L130.329 103.69L130.237 104.197L129.505 108.37L129.322 109.441L129.23 109.949L129.139 110.456L128.818 112.543L128.224 116.771L127.72 121.001L127.445 123.143C127.4 123.482 127.354 123.876 127.354 124.215L127.262 125.286L126.851 129.516C126.713 130.925 126.622 132.335 126.53 133.801L126.21 138.087C126.164 138.82 126.118 139.497 126.073 140.23L125.981 142.372L125.753 146.658L125.524 155.229V163.8C125.615 175.247 126.164 186.638 127.308 197.972L127.766 202.201C127.858 202.935 127.903 203.611 127.994 204.344L128.269 206.487L128.818 210.716C128.864 211.055 128.91 211.393 128.956 211.788L129.139 212.859L129.459 214.945C129.688 216.355 129.871 217.764 130.146 219.118L130.878 223.29C130.924 223.629 131.015 223.968 131.061 224.363L131.29 225.377L131.702 227.463C131.976 228.873 132.251 230.227 132.571 231.58L133.532 235.696L134.585 239.757C134.905 241.11 135.317 242.463 135.683 243.816L136.232 245.846C136.416 246.523 136.644 247.2 136.827 247.876C138.475 253.233 140.306 258.477 142.411 263.553C144.516 268.628 146.896 273.59 149.55 278.27C150.877 280.583 152.296 282.894 153.806 285.037C154.538 286.109 155.316 287.18 156.14 288.251C156.964 289.266 157.788 290.281 158.657 291.183C157.742 290.281 156.872 289.323 156.048 288.308C155.225 287.292 154.401 286.277 153.623 285.206C152.067 283.063 150.648 280.808 149.23 278.496C146.484 273.872 144.012 268.966 141.816 263.891C139.619 258.816 137.697 253.572 136.003 248.215C135.775 247.538 135.546 246.862 135.363 246.185L134.768 244.155C134.356 242.802 133.944 241.448 133.624 240.095L132.526 235.978L131.519 231.862C131.153 230.509 130.878 229.099 130.603 227.69L130.146 225.603L129.917 224.588C129.826 224.25 129.78 223.911 129.734 223.516C129.23 220.696 128.681 217.934 128.269 215.115L127.949 213.028L127.766 211.956C127.72 211.618 127.675 211.223 127.629 210.885L127.034 206.656L126.759 204.513C126.667 203.78 126.576 203.103 126.53 202.37L126.073 198.085C124.883 186.694 124.334 175.19 124.242 163.743C124.151 152.241 124.562 140.737 125.661 129.346L126.073 125.061L126.164 123.99C126.21 123.651 126.256 123.257 126.302 122.918L126.576 120.776L127.126 116.49L127.766 112.261L128.086 110.117L128.178 109.61L128.269 109.103L128.453 108.031L129.23 103.803L129.322 103.295L129.413 102.787L129.642 101.716L130.1 99.6295L130.558 97.5426C130.695 96.8661 130.878 96.1896 131.061 95.4565C131.381 94.1035 131.702 92.6939 132.068 91.34L133.166 87.2237L133.441 86.2087L133.761 85.1937L134.356 83.1637L134.951 81.1337L135.592 79.1601C137.33 73.8031 139.298 68.6154 141.541 63.5403C143.784 58.5217 146.347 53.6722 149.138 49.1046C150.557 46.849 152.067 44.6499 153.623 42.5071C154.034 41.9996 154.401 41.4357 154.858 40.9847L155.499 40.2516C155.728 40.026 155.911 39.7441 156.14 39.5185C156.964 38.729 157.833 37.7704 158.748 36.8682Z" fill="white"/>
<path d="M234.672 70.0813C233.162 69.5174 231.605 69.0099 230.095 68.446C228.539 67.9385 227.029 67.3746 225.473 66.9235C222.407 65.9648 219.295 65.0063 216.182 64.1605C209.959 62.4689 203.735 61.0591 197.419 59.9313C191.15 58.8035 184.834 57.9577 178.473 57.4502C172.157 56.8863 165.796 56.6607 159.435 56.7171C153.074 56.7735 146.758 57.1118 140.397 57.7321C139.619 57.7884 138.795 57.9013 138.017 57.9576L135.637 58.2396C134.859 58.296 134.035 58.4088 133.258 58.5215L130.878 58.8599C127.72 59.311 124.562 59.8184 121.45 60.3823C119.894 60.6643 118.293 61.0027 116.736 61.2846C115.181 61.5665 113.625 61.9613 112.023 62.2996C111.245 62.4688 110.467 62.638 109.689 62.8071L107.355 63.3709L105.021 63.9349L102.687 64.5552C101.131 64.9499 99.5749 65.3446 98.0191 65.7957L95.6848 66.4723L94.5406 66.8107L93.397 67.1491C91.8406 67.6002 90.2848 68.0513 88.7742 68.5588L84.1521 70.0249L88.729 68.3332C89.5069 68.0513 90.2389 67.7693 91.0168 67.5438L93.3053 66.7543L94.4495 66.3596L95.5937 65.9648L97.9274 65.2318C99.4832 64.7243 101.04 64.2732 102.55 63.8221L104.884 63.1455L107.218 62.5251L109.552 61.9048C110.33 61.6793 111.108 61.5102 111.886 61.341L114.22 60.7771C114.998 60.5515 115.776 60.4388 116.554 60.2696C118.109 59.9313 119.712 59.5365 121.267 59.2546C127.583 57.9576 133.898 56.999 140.26 56.3223C146.621 55.6456 152.982 55.3074 159.389 55.1946C165.751 55.1382 172.157 55.4202 178.519 55.984C184.88 56.6043 191.241 57.5065 197.511 58.7471C203.827 59.9876 210.05 61.5665 216.274 63.4837C219.386 64.4423 222.453 65.4574 225.518 66.5852C226.297 66.8671 227.029 67.149 227.807 67.4309L230.095 68.2769C231.651 68.8408 233.162 69.4609 234.672 70.0813Z" fill="white"/>
<path d="M234.671 258.703C233.16 259.324 231.65 259.944 230.14 260.564L227.852 261.41C227.073 261.692 226.341 261.974 225.564 262.256C222.497 263.327 219.431 264.399 216.319 265.357C210.141 267.218 203.871 268.854 197.556 270.094C191.24 271.334 184.925 272.237 178.563 272.857C172.202 273.477 165.795 273.703 159.434 273.647C153.072 273.59 146.666 273.195 140.304 272.519C133.943 271.842 127.627 270.883 121.312 269.587C119.756 269.304 118.154 268.91 116.599 268.571C115.82 268.402 115.042 268.233 114.264 268.064L111.931 267.5C111.152 267.331 110.374 267.105 109.596 266.936L107.263 266.316L104.928 265.695L102.595 265.019C101.038 264.567 99.4824 264.117 97.9719 263.609L95.6382 262.876L94.494 262.481L93.3497 262.087L91.062 261.297C90.2841 261.015 89.5055 260.79 88.7735 260.507L84.1973 258.816L88.8194 260.282C90.3752 260.79 91.8857 261.241 93.4415 261.692L94.5857 262.03L95.73 262.368L98.0636 263.045C99.6201 263.496 101.176 263.891 102.732 264.286L105.066 264.906L107.4 265.47L109.734 266.034C110.512 266.203 111.29 266.372 112.068 266.541C113.623 266.88 115.18 267.218 116.781 267.556C118.337 267.838 119.894 268.177 121.495 268.459C124.653 269.022 127.811 269.53 130.922 269.981L133.303 270.32C134.081 270.432 134.858 270.545 135.682 270.601L138.062 270.883C138.84 270.996 139.663 271.053 140.442 271.109C146.757 271.729 153.118 272.067 159.48 272.124C165.841 272.181 172.202 271.954 178.518 271.391C184.833 270.883 191.194 270.038 197.464 268.91C203.734 267.782 210.004 266.372 216.228 264.681C219.34 263.834 222.405 262.933 225.518 261.917C227.073 261.41 228.584 260.902 230.14 260.395C231.605 259.831 233.114 259.267 234.671 258.703Z" fill="white"/>
<path d="M262.45 114.854L256.043 113.839L249.636 112.824L236.776 111.077L223.917 109.554L211.057 108.313L198.151 107.355L185.246 106.678L172.34 106.227L159.434 106.057L146.529 106.17L133.623 106.565L120.718 107.242L107.812 108.2L94.9526 109.441L82.0928 110.963L69.2327 112.711L62.8256 113.726L56.4187 114.742L62.8256 113.501L69.2327 112.26L82.047 110.117L94.9067 108.313L107.812 106.847L120.718 105.719L133.623 104.93L146.574 104.479L159.526 104.31L172.478 104.479C176.779 104.648 181.081 104.761 185.428 104.986L198.334 105.832C202.636 106.227 206.938 106.565 211.24 106.96C215.541 107.467 219.844 107.918 224.145 108.426L237.005 110.174L249.819 112.26L256.226 113.444L262.45 114.854Z" fill="white"/>
<path d="M262.45 214.042L256.043 215.283L249.636 216.467L236.822 218.553L223.963 220.301C219.66 220.809 215.359 221.26 211.057 221.767C206.755 222.162 202.453 222.557 198.151 222.895L185.246 223.741C180.944 223.911 176.642 224.079 172.294 224.249L159.343 224.418L146.392 224.249L133.44 223.798L120.535 223.008L107.629 221.88L94.7233 220.414L81.8636 218.61L69.0496 216.467L62.6427 215.226L56.2356 213.985L62.6427 215L69.0496 216.016L81.9095 217.764L94.7692 219.286L107.629 220.527L120.535 221.485L133.44 222.162L146.346 222.557L159.252 222.67L172.157 222.5L185.063 222.05L197.968 221.372L210.873 220.414L223.733 219.173L236.593 217.651L249.453 215.903L255.86 214.888L262.45 214.042Z" fill="white"/>
<path d="M271.054 164.082L264.052 164.195L257.05 164.308L243.092 164.476C233.802 164.589 224.466 164.646 215.176 164.702C205.886 164.758 196.55 164.815 187.26 164.815L159.343 164.871L131.427 164.815C122.137 164.758 112.801 164.758 103.511 164.702L89.5527 164.589L75.5946 164.476L61.6362 164.308L54.6343 164.195L47.6323 164.082L54.6343 163.969L61.6362 163.856L75.5946 163.687L89.5527 163.575L103.511 163.462C112.801 163.405 122.137 163.349 131.427 163.349L159.343 163.292L187.26 163.349C196.55 163.405 205.886 163.405 215.176 163.462C224.466 163.518 233.802 163.575 243.092 163.687L257.05 163.856L264.052 163.969L271.054 164.082Z" fill="white"/>
<path d="M244.282 94.0462C243.962 92.5236 243.595 91.0575 243.23 89.5914C242.817 88.1253 242.406 86.659 241.948 85.193C241.033 82.3171 239.981 79.4977 238.745 76.8474C237.509 74.1971 236.045 71.6596 234.351 69.404C233.527 68.2763 232.613 67.2049 231.651 66.2463C230.69 65.2877 229.637 64.4418 228.585 63.7088C226.434 62.2427 224.054 61.284 221.583 60.9457C219.158 60.6074 216.641 60.8893 214.26 61.566C211.881 62.2991 209.547 63.4268 207.396 64.8929C205.245 66.359 203.186 68.1071 201.264 70.0244C199.341 71.9416 197.556 74.0844 195.864 76.3963C194.17 78.6518 192.614 81.0765 191.196 83.5577C188.312 88.5766 185.841 93.9331 183.828 99.5723C179.754 110.794 177.329 122.917 176.459 135.154L175.956 142.597L174.995 135.21C174.262 129.458 173.393 123.706 172.34 118.011C171.288 112.316 170.052 106.677 168.633 101.151C167.215 95.6253 165.567 90.1549 163.599 84.8546C161.632 79.5541 159.389 74.4227 156.689 69.686C155.316 67.3177 153.852 65.0621 152.25 62.9757C150.648 60.8893 148.863 58.9721 146.895 57.3931C144.928 55.8143 142.822 54.6301 140.534 54.0663C139.39 53.7843 138.246 53.6715 137.102 53.7843C135.957 53.8971 134.813 54.1791 133.715 54.6302C131.518 55.5888 129.551 57.224 127.903 59.254C126.21 61.284 124.837 63.6524 123.647 66.1335C122.457 68.671 121.45 71.3213 120.626 74.028C119.757 76.7346 119.071 79.5541 118.476 82.3735C119.528 76.6783 120.993 71.0393 123.326 65.9079C124.471 63.3141 125.844 60.8893 127.537 58.7465C129.23 56.6037 131.198 54.8557 133.486 53.7843C134.63 53.2768 135.821 52.9384 137.056 52.7693C138.292 52.6565 139.527 52.7129 140.717 52.9949C143.143 53.5024 145.385 54.7429 147.444 56.3217C149.504 57.9006 151.334 59.8743 153.028 61.9607C154.721 64.1034 156.231 66.3591 157.65 68.7837C160.442 73.5768 162.775 78.7646 164.789 84.1216C166.803 89.4784 168.497 94.9479 169.961 100.531C171.425 106.113 172.706 111.809 173.759 117.504C174.811 123.199 175.727 129.007 176.505 134.759L175.041 134.815C175.452 128.612 176.322 122.41 177.557 116.376C178.793 110.343 180.487 104.422 182.546 98.7262C184.651 93.0314 187.168 87.5613 190.143 82.4864C193.118 77.4113 196.55 72.731 200.532 68.7837C202.499 66.8102 204.65 65.0621 206.892 63.596C209.135 62.1298 211.56 60.9457 214.032 60.2691C216.549 59.5924 219.158 59.3104 221.674 59.7615C224.237 60.1562 226.709 61.2277 228.905 62.8065C230.004 63.596 231.056 64.4982 232.017 65.5132C232.978 66.5282 233.894 67.656 234.763 68.7837C236.457 71.1521 237.875 73.746 239.065 76.4527C240.255 79.2157 241.262 82.0351 242.131 84.9674C242.543 86.4335 242.955 87.8992 243.276 89.4218C243.687 91.0575 244.008 92.5801 244.282 94.0462Z" fill="#FF5A43"/>
<path d="M71.2463 202.595C70.7884 200.058 70.3765 197.464 70.0105 194.927C69.6443 192.333 69.3697 189.739 69.1867 187.145C68.7748 181.957 68.6375 176.656 68.8663 171.412C69.0952 166.168 69.6901 160.924 70.7427 155.849C71.7955 150.774 73.3054 145.755 75.4103 141.131C76.4635 138.82 77.6988 136.621 79.1176 134.59C80.5364 132.561 82.1381 130.7 83.9684 129.234C85.7988 127.768 87.8586 126.583 90.0553 126.188C91.1536 125.962 92.2979 125.907 93.3962 126.075C94.4946 126.245 95.5929 126.583 96.6454 127.147C98.7044 128.218 100.49 130.022 101.954 132.053C103.418 134.082 104.517 136.451 105.432 138.876C106.348 141.301 107.034 143.838 107.629 146.375C108.178 148.913 108.59 151.563 108.91 154.157H107.445C107.812 151.112 108.27 148.123 108.91 145.135C109.551 142.147 110.375 139.27 111.381 136.451C112.388 133.632 113.578 130.925 114.997 128.331C115.683 127.035 116.462 125.794 117.24 124.609C118.063 123.425 118.933 122.297 119.848 121.226C121.679 119.083 123.784 117.279 126.117 115.926C128.406 114.572 130.969 113.782 133.531 113.727C136.094 113.67 138.657 114.403 140.991 115.756C143.28 117.109 145.339 119.083 147.078 121.339C148.817 123.595 150.281 126.132 151.517 128.839C152.752 131.488 153.759 134.308 154.629 137.184C156.322 142.936 157.42 148.913 158.107 154.947C158.793 160.981 159.16 167.07 159.251 173.161C159.297 176.205 159.251 179.25 159.206 182.295C159.114 185.341 158.976 188.386 158.793 191.374C158.885 188.329 158.931 185.284 158.931 182.295C158.931 179.25 158.885 176.205 158.793 173.217C158.611 167.183 158.152 161.093 157.329 155.172C156.551 149.195 155.361 143.33 153.622 137.692C152.752 134.872 151.746 132.166 150.51 129.572C149.275 126.978 147.856 124.553 146.162 122.467C144.469 120.324 142.547 118.52 140.396 117.335C138.245 116.095 135.866 115.475 133.531 115.531C131.152 115.587 128.818 116.376 126.667 117.617C124.516 118.858 122.548 120.606 120.809 122.635C119.94 123.651 119.116 124.722 118.338 125.85C117.56 126.978 116.827 128.161 116.187 129.402C114.859 131.883 113.716 134.534 112.708 137.241C111.748 140.003 110.97 142.823 110.329 145.699C109.688 148.575 109.231 151.507 108.864 154.495L108.178 160.529L107.445 154.383C107.126 151.845 106.759 149.308 106.21 146.827C105.661 144.346 104.975 141.921 104.105 139.608C103.236 137.297 102.183 135.098 100.856 133.181C99.5282 131.263 97.9266 129.684 96.0962 128.669C95.1807 128.161 94.22 127.88 93.2127 127.711C92.2061 127.541 91.1995 127.598 90.2381 127.768C88.2708 128.162 86.348 129.177 84.6094 130.53C82.8701 131.94 81.3602 133.632 79.9873 135.548C78.6143 137.466 77.4242 139.608 76.3717 141.808C75.3193 144.008 74.4037 146.375 73.6259 148.744C72.848 151.168 72.1611 153.594 71.612 156.131C70.5138 161.149 69.8732 166.281 69.507 171.468C69.324 174.062 69.2782 176.656 69.2782 179.25C69.2782 181.844 69.3697 184.438 69.507 187.088C69.6443 189.682 69.8731 192.276 70.1477 194.87C70.4681 197.464 70.8342 200.058 71.2463 202.595Z" fill="#FF5A43"/>
<path d="M260.025 183.254C260.848 172.596 260.574 161.826 258.972 151.395C258.56 148.801 258.057 146.207 257.507 143.669C256.912 141.131 256.226 138.594 255.448 136.113C253.892 131.207 251.97 126.414 249.453 122.185C248.217 120.042 246.844 118.012 245.289 116.264C244.876 115.813 244.51 115.362 244.098 115.023C243.87 114.798 243.686 114.629 243.458 114.403L242.817 113.839C241.948 113.106 241.032 112.429 240.117 111.922C239.98 111.866 239.888 111.809 239.751 111.753L239.385 111.583L239.018 111.415L238.835 111.358L238.653 111.302L237.92 111.02L237.188 110.85C236.181 110.625 235.174 110.569 234.121 110.738C233.115 110.907 232.108 111.245 231.193 111.753L230.507 112.148L229.82 112.599C229.591 112.768 229.362 112.937 229.179 113.106L228.859 113.388L228.676 113.501L228.539 113.67C226.891 115.249 225.518 117.279 224.328 119.478C223.138 121.677 222.177 124.046 221.308 126.47C220.438 128.895 219.752 131.433 219.111 133.97L218.653 135.888C218.516 136.508 218.379 137.184 218.241 137.804L218.013 138.763L217.83 139.722L217.463 141.695C217.83 139.045 218.195 136.395 218.745 133.801C219.294 131.207 219.889 128.613 220.667 126.075C221.445 123.538 222.406 121.114 223.55 118.802C223.825 118.237 224.145 117.674 224.466 117.109L224.969 116.321C225.152 116.038 225.29 115.756 225.472 115.531L226.022 114.742L226.158 114.572L226.296 114.403L226.571 114.009L226.845 113.614C226.937 113.501 227.028 113.388 227.166 113.275L227.806 112.599L227.99 112.429L228.172 112.261L228.493 111.978C228.721 111.753 228.95 111.583 229.179 111.358L229.912 110.794L230.689 110.343C231.742 109.779 232.84 109.328 233.985 109.159C235.129 108.989 236.272 108.989 237.417 109.215L238.24 109.384L239.064 109.667L239.293 109.722L239.476 109.835L239.888 110.005L240.3 110.174C240.437 110.23 240.575 110.287 240.712 110.4C242.817 111.527 244.648 113.162 246.295 114.967C246.524 115.193 246.707 115.418 246.89 115.7C247.073 115.926 247.302 116.151 247.485 116.433L248.034 117.166L248.309 117.561C248.4 117.674 248.492 117.842 248.584 117.955C248.949 118.463 249.316 118.97 249.636 119.535L250.139 120.324L250.643 121.169C251.924 123.369 253.068 125.737 254.075 128.162C255.082 130.587 255.952 133.068 256.73 135.605C257.507 138.143 258.148 140.736 258.697 143.33C259.247 145.924 259.704 148.575 260.07 151.225C261.534 161.77 261.443 172.653 260.025 183.254Z" fill="#FF5A43"/>
<path d="M179.663 138.368C179.663 140.567 181.128 142.372 182.912 142.372C184.697 142.372 186.162 140.567 186.162 138.368C186.162 136.169 184.697 134.365 182.912 134.365C181.128 134.308 179.663 136.112 179.663 138.368Z" fill="#FF5A43"/>
<path d="M179.663 138.369C179.663 138.877 179.755 139.44 179.937 139.891C180.121 140.398 180.35 140.793 180.67 141.188C181.264 141.921 182.134 142.259 182.958 142.204C183.782 142.147 184.56 141.696 185.109 140.963C185.658 140.23 185.978 139.271 185.933 138.312C185.933 137.354 185.613 136.395 185.064 135.662C184.514 134.929 183.736 134.478 182.912 134.422C182.088 134.365 181.264 134.76 180.624 135.437C180.304 135.775 180.075 136.226 179.892 136.733C179.755 137.297 179.663 137.804 179.663 138.369ZM179.663 138.369C179.663 137.298 179.983 136.283 180.578 135.493C181.173 134.704 181.997 134.196 182.912 134.196C183.782 134.139 184.743 134.534 185.383 135.324C185.704 135.718 185.978 136.17 186.162 136.733C186.345 137.241 186.436 137.804 186.436 138.369C186.436 138.932 186.345 139.497 186.162 140.004C185.978 140.511 185.704 141.019 185.383 141.414C185.064 141.809 184.651 142.091 184.24 142.316C183.828 142.485 183.37 142.597 182.912 142.597C182.043 142.542 181.173 142.034 180.578 141.301C180.029 140.455 179.663 139.384 179.663 138.369Z" fill="#FF5A43"/>
<path d="M176.87 153.481H188.997V147.504C188.997 145.079 187.396 143.105 185.428 143.105H180.485C178.518 143.105 176.916 145.079 176.916 147.504V153.481H176.87Z" fill="#FF5A43"/>
<path d="M176.871 153.481L183.003 153.312C184.01 153.255 185.017 153.255 186.024 153.255C187.031 153.255 188.037 153.199 188.999 153.199L188.769 153.481L188.724 149.477V147.504C188.724 146.883 188.587 146.263 188.358 145.755C187.946 144.627 187.077 143.839 186.069 143.556C185.932 143.5 185.841 143.501 185.704 143.501C185.566 143.501 185.474 143.501 185.337 143.501H184.514H182.912H181.31H180.487C180.349 143.501 180.212 143.501 180.12 143.501C179.983 143.501 179.892 143.556 179.754 143.556C178.747 143.782 177.878 144.627 177.42 145.755C176.917 146.883 177.054 148.237 177.008 149.534L176.871 153.481ZM176.871 153.481L176.779 149.534L176.733 147.504C176.733 146.827 176.871 146.094 177.1 145.474C177.557 144.177 178.564 143.218 179.663 142.936C179.8 142.88 179.937 142.88 180.074 142.823C180.212 142.823 180.349 142.823 180.487 142.767H181.31H182.912H184.514H185.337C185.474 142.767 185.612 142.767 185.749 142.767C185.887 142.767 186.024 142.823 186.161 142.823C187.305 143.106 188.312 144.064 188.815 145.361C189.09 145.981 189.228 146.714 189.228 147.447V149.421L189.182 153.425V153.707H188.953C187.946 153.707 186.893 153.707 185.887 153.65C184.88 153.65 183.827 153.594 182.82 153.594L176.871 153.481Z" fill="#FF5A43"/>
<path d="M108.545 71.6033C108.545 73.8025 110.009 75.607 111.794 75.607C113.579 75.607 115.044 73.8025 115.044 71.6033C115.044 69.4041 113.579 67.5996 111.794 67.5996C110.009 67.5996 108.545 69.4041 108.545 71.6033Z" fill="#FF5A43"/>
<path d="M108.545 71.603C108.545 72.1105 108.636 72.6744 108.82 73.1255C109.003 73.633 109.231 74.0277 109.552 74.4224C110.147 75.1555 111.016 75.4938 111.84 75.4375C112.664 75.3811 113.442 74.9299 113.991 74.1969C114.54 73.4639 114.861 72.5052 114.815 71.5465C114.815 70.5879 114.494 69.6293 113.945 68.8963C113.396 68.1632 112.618 67.7121 111.794 67.6557C110.971 67.5993 110.147 67.994 109.506 68.6706C109.185 69.009 108.957 69.4602 108.774 69.9677C108.636 70.5316 108.545 71.0954 108.545 71.603ZM108.545 71.603C108.545 70.5315 108.866 69.5165 109.46 68.7272C110.055 67.9377 110.879 67.4301 111.794 67.4301C112.664 67.3737 113.625 67.7685 114.266 68.5579C114.586 68.9527 114.861 69.4038 115.044 69.9677C115.226 70.4752 115.318 71.0391 115.318 71.603C115.318 72.1668 115.226 72.7307 115.044 73.2382C114.861 73.7457 114.586 74.2532 114.266 74.6479C113.945 75.0426 113.534 75.3246 113.121 75.5502C112.71 75.7193 112.252 75.8321 111.794 75.8321C110.925 75.7758 110.055 75.2683 109.46 74.5352C108.866 73.6894 108.545 72.6744 108.545 71.603Z" fill="#FF5A43"/>
<path d="M105.752 86.7163H117.88V80.7391C117.88 78.3144 116.278 76.3408 114.31 76.3408H109.367C107.399 76.3408 105.798 78.3144 105.798 80.7391V86.7163H105.752Z" fill="#FF5A43"/>
<path d="M105.753 86.716L111.885 86.5467C112.892 86.4903 113.899 86.4904 114.906 86.4904C115.912 86.4904 116.919 86.4339 117.88 86.4339L117.652 86.716L117.606 82.7123V80.7386C117.606 80.1184 117.468 79.498 117.239 78.9906C116.828 77.8628 115.958 77.0733 114.952 76.7914C114.814 76.735 114.722 76.7351 114.585 76.7351C114.448 76.7351 114.357 76.7351 114.219 76.7351H113.395H111.794H110.192H109.368C109.231 76.7351 109.094 76.7351 109.002 76.7351C108.865 76.7351 108.773 76.7914 108.636 76.7914C107.629 77.017 106.759 77.8628 106.302 78.9906C105.799 80.1184 105.936 81.4717 105.89 82.7686L105.753 86.716ZM105.753 86.716L105.661 82.7686L105.616 80.7386C105.616 80.062 105.753 79.3289 105.981 78.7086C106.439 77.4117 107.446 76.4531 108.544 76.1711C108.682 76.1147 108.819 76.1147 108.956 76.0583C109.094 76.0583 109.231 76.0584 109.368 76.002H110.192H111.794H113.395H114.219C114.357 76.002 114.494 76.002 114.631 76.002C114.768 76.002 114.906 76.0583 115.043 76.0583C116.187 76.3403 117.194 77.2989 117.698 78.5959C117.972 79.2162 118.109 79.9492 118.109 80.6823V82.656L118.063 86.6595V86.9414H117.835C116.828 86.9414 115.775 86.9415 114.768 86.8851C113.762 86.8851 112.709 86.8286 111.702 86.8286L105.753 86.716Z" fill="#FF5A43"/>
<path d="M241.125 84.1796C241.125 86.3787 242.59 88.1836 244.375 88.1836C246.16 88.1836 247.624 86.3787 247.624 84.1796C247.624 81.9804 246.16 80.1761 244.375 80.1761C242.59 80.1197 241.125 81.9241 241.125 84.1796Z" fill="#FF5A43"/>
<path d="M241.125 84.1791C241.125 84.6865 241.217 85.2504 241.4 85.7016C241.583 86.2091 241.812 86.6037 242.132 86.9985C242.727 87.7316 243.597 88.0703 244.421 88.0138C245.244 87.9572 246.022 87.506 246.571 86.773C247.121 86.0399 247.441 85.0813 247.395 84.1227C247.395 83.1641 247.075 82.2054 246.526 81.4724C245.976 80.7393 245.198 80.2882 244.375 80.2318C243.551 80.1754 242.727 80.5702 242.087 81.2469C241.766 81.5852 241.538 82.0363 241.354 82.5437C241.217 83.1077 241.125 83.6151 241.125 84.1791ZM241.125 84.1791C241.125 83.1077 241.446 82.0927 242.041 81.3032C242.636 80.5137 243.46 80.0063 244.375 80.0063C245.244 79.9499 246.206 80.3446 246.846 81.1341C247.166 81.5288 247.441 81.9799 247.624 82.5437C247.807 83.0513 247.898 83.6151 247.898 84.1791C247.898 84.743 247.807 85.3069 247.624 85.8144C247.441 86.3218 247.166 86.8294 246.846 87.2241C246.525 87.6188 246.114 87.9007 245.702 88.1259C245.29 88.2955 244.833 88.4085 244.375 88.4085C243.505 88.352 242.636 87.8442 242.041 87.1113C241.446 86.2655 241.125 85.194 241.125 84.1791Z" fill="#FF5A43"/>
<path d="M238.332 99.2917H250.46V93.3143C250.46 90.8899 248.858 88.916 246.89 88.916H241.948C239.98 88.916 238.378 90.8899 238.378 93.3143V99.2917H238.332Z" fill="#FF5A43"/>
<path d="M238.334 99.292L244.466 99.1225C245.472 99.0659 246.48 99.0659 247.486 99.0659C248.493 99.0659 249.5 99.0103 250.461 99.0103L250.232 99.292L250.186 95.2886V93.3146C250.186 92.6946 250.049 92.0738 249.821 91.5668C249.408 90.439 248.539 89.6494 247.532 89.3677C247.394 89.3112 247.303 89.3112 247.166 89.3112C247.029 89.3112 246.937 89.3112 246.8 89.3112H245.976H244.374H242.772H241.949C241.812 89.3112 241.674 89.3112 241.583 89.3112C241.445 89.3112 241.354 89.3677 241.217 89.3677C240.21 89.5929 239.34 90.439 238.883 91.5668C238.379 92.6946 238.517 94.0477 238.471 95.3451L238.334 99.292ZM238.334 99.292L238.242 95.3451L238.196 93.3146C238.196 92.6381 238.334 91.9051 238.562 91.2842C239.02 89.9877 240.026 89.0286 241.125 88.7468C241.262 88.6903 241.399 88.6903 241.537 88.6346C241.674 88.6346 241.812 88.6346 241.949 88.5781H242.772H244.374H245.976H246.8C246.937 88.5781 247.075 88.5781 247.212 88.5781C247.349 88.5781 247.486 88.6346 247.624 88.6346C248.767 88.9164 249.775 89.8746 250.278 91.172C250.553 91.792 250.689 92.5251 250.689 93.2581V95.232L250.644 99.2355V99.5172H250.415C249.408 99.5172 248.356 99.5173 247.349 99.4607C246.342 99.4607 245.289 99.4051 244.283 99.4051L238.334 99.292Z" fill="#FF5A43"/>
<path d="M108.59 163.857C110.385 163.857 111.84 162.064 111.84 159.853C111.84 157.643 110.385 155.85 108.59 155.85C106.795 155.85 105.341 157.643 105.341 159.853C105.341 162.064 106.795 163.857 108.59 163.857Z" fill="#DFAAFF"/>
<path d="M105.296 159.853C105.296 160.361 105.387 160.924 105.57 161.376C105.753 161.883 105.982 162.277 106.302 162.672C106.898 163.405 107.767 163.744 108.591 163.688C109.415 163.631 110.193 163.18 110.742 162.447C111.291 161.714 111.611 160.756 111.566 159.797C111.566 158.838 111.245 157.879 110.696 157.146C110.147 156.413 109.369 155.963 108.545 155.906C107.721 155.85 106.898 156.244 106.257 156.921C105.936 157.259 105.707 157.71 105.525 158.218C105.387 158.782 105.296 159.345 105.296 159.853ZM105.296 159.853C105.296 158.782 105.616 157.767 106.211 156.977C106.806 156.188 107.63 155.68 108.545 155.68C109.415 155.624 110.375 156.018 111.016 156.808C111.337 157.203 111.611 157.654 111.794 158.218C111.977 158.725 112.069 159.29 112.069 159.853C112.069 160.417 111.977 160.981 111.794 161.489C111.611 161.996 111.337 162.503 111.016 162.898C110.696 163.293 110.284 163.575 109.872 163.8C109.461 163.97 109.002 164.083 108.545 164.083C107.675 164.026 106.806 163.518 106.211 162.785C105.662 161.939 105.296 160.924 105.296 159.853Z" fill="#A166CC"/>
<path d="M102.503 174.965H114.631V168.988C114.631 166.564 113.029 164.59 111.061 164.59H106.118C104.15 164.59 102.549 166.564 102.549 168.988V174.965H102.503Z" fill="#DFAAFF"/>
<path d="M102.504 174.966L108.636 174.796C109.643 174.74 110.65 174.74 111.657 174.74C112.663 174.74 113.671 174.683 114.631 174.683L114.403 174.966L114.357 170.961V168.988C114.357 168.367 114.219 167.747 113.99 167.24C113.579 166.112 112.709 165.323 111.703 165.041C111.565 164.984 111.474 164.984 111.336 164.984C111.199 164.984 111.108 164.984 110.97 164.984H110.146H108.545H106.943H106.119C105.982 164.984 105.845 164.984 105.753 164.984C105.616 164.984 105.524 165.041 105.387 165.041C104.381 165.267 103.511 166.112 103.053 167.24C102.55 168.367 102.687 169.721 102.641 171.018L102.504 174.966ZM102.504 174.966L102.413 171.018L102.367 168.988C102.367 168.312 102.504 167.578 102.733 166.958C103.19 165.661 104.197 164.702 105.295 164.421C105.433 164.364 105.57 164.364 105.708 164.307C105.845 164.307 105.982 164.307 106.119 164.251H106.943H108.545H110.146H110.97C111.108 164.251 111.245 164.251 111.382 164.251C111.519 164.251 111.657 164.307 111.794 164.307C112.938 164.589 113.945 165.548 114.449 166.845C114.723 167.466 114.86 168.199 114.86 168.932V170.906V174.909V175.191H114.631C113.625 175.191 112.572 175.191 111.565 175.134C110.558 175.134 109.506 175.078 108.499 175.078L102.504 174.966Z" fill="#A166CC"/>
<path d="M65.71 194.532C65.71 196.731 67.1745 198.535 68.9592 198.535C70.744 198.535 72.2086 196.731 72.2086 194.532C72.2086 192.333 70.744 190.528 68.9592 190.528C67.1745 190.528 65.71 192.276 65.71 194.532Z" fill="#FF5A43"/>
<path d="M65.71 194.532C65.71 195.039 65.8015 195.603 65.9845 196.054C66.1676 196.561 66.3964 196.956 66.7168 197.351C67.3117 198.084 68.1813 198.422 69.0049 198.367C69.8287 198.31 70.6067 197.859 71.1561 197.126C71.7053 196.393 72.0251 195.434 71.9799 194.475C71.9799 193.516 71.6594 192.558 71.1102 191.825C70.5609 191.092 69.783 190.641 68.9592 190.584C68.1354 190.528 67.3117 190.922 66.671 191.6C66.3507 191.938 66.1218 192.389 65.9387 192.896C65.8015 193.461 65.71 193.968 65.71 194.532ZM65.71 194.532C65.71 193.461 66.0303 192.445 66.6252 191.655C67.2202 190.867 68.044 190.359 68.9592 190.359C69.8287 190.302 70.7898 190.697 71.4307 191.487C71.7505 191.881 72.0251 192.333 72.2086 192.896C72.3914 193.404 72.4832 193.968 72.4832 194.532C72.4832 195.095 72.3914 195.66 72.2086 196.167C72.0251 196.674 71.7505 197.182 71.4307 197.577C71.1102 197.972 70.6982 198.254 70.2863 198.479C69.8745 198.648 69.4168 198.761 68.9592 198.761C68.0897 198.705 67.2202 198.197 66.6252 197.464C66.0303 196.618 65.71 195.547 65.71 194.532Z" fill="#FF5A43"/>
<path d="M62.917 209.644H75.0447V203.668C75.0447 201.243 73.443 199.27 71.475 199.27H66.5324C64.5645 199.27 62.9627 201.243 62.9627 203.668V209.644H62.917Z" fill="#FF5A43"/>
<path d="M62.9178 209.644L69.0502 209.475C70.057 209.418 71.0639 209.418 72.0708 209.418C73.0774 209.418 74.084 209.362 75.0454 209.362L74.8167 209.644L74.7709 205.64V203.666C74.7709 203.046 74.6332 202.426 74.4045 201.918C73.993 200.791 73.1233 200.001 72.1167 199.719C71.9791 199.663 71.8873 199.663 71.7504 199.663C71.6127 199.663 71.5217 199.663 71.384 199.663H70.5605H68.9587H67.357H66.5332C66.3959 199.663 66.2586 199.663 66.1671 199.663C66.0298 199.663 65.9383 199.719 65.801 199.719C64.7941 199.944 63.9246 200.791 63.467 201.918C62.9636 203.046 63.1008 204.399 63.0551 205.697L62.9178 209.644ZM62.9178 209.644L62.8263 205.697L62.7805 203.666C62.7805 202.99 62.9178 202.257 63.1467 201.637C63.6043 200.339 64.6111 199.381 65.7094 199.099C65.8467 199.043 65.984 199.043 66.1213 198.986C66.2586 198.986 66.3959 198.986 66.5332 198.93H67.357H68.9587H70.5605H71.384C71.5217 198.93 71.6586 198.93 71.7963 198.93C71.9332 198.93 72.0708 198.986 72.2078 198.986C73.352 199.268 74.3586 200.226 74.8626 201.524C75.1372 202.144 75.2741 202.877 75.2741 203.61V205.584V209.587V209.87H75.0454C74.0389 209.87 72.9857 209.87 71.9791 209.813C70.9724 209.813 69.9197 209.757 68.9129 209.757L62.9178 209.644Z" fill="#FF5A43"/>
<path d="M263.456 182.804C265.251 182.804 266.705 181.012 266.705 178.8C266.705 176.589 265.251 174.797 263.456 174.797C261.662 174.797 260.207 176.589 260.207 178.8C260.207 181.012 261.662 182.804 263.456 182.804Z" fill="#FF5A43"/>
<path d="M260.206 178.8C260.206 179.307 260.298 179.871 260.481 180.322C260.664 180.83 260.893 181.225 261.213 181.62C261.809 182.353 262.677 182.691 263.501 182.634C264.325 182.578 265.104 182.127 265.653 181.393C266.202 180.66 266.522 179.702 266.476 178.743C266.476 177.785 266.156 176.827 265.607 176.093C265.058 175.36 264.28 174.909 263.456 174.853C262.632 174.796 261.809 175.191 261.168 175.867C260.847 176.206 260.618 176.657 260.436 177.165C260.298 177.728 260.206 178.236 260.206 178.8ZM260.206 178.8C260.206 177.728 260.527 176.713 261.122 175.924C261.717 175.134 262.541 174.627 263.456 174.627C264.325 174.571 265.286 174.966 265.927 175.755C266.247 176.15 266.522 176.6 266.705 177.165C266.888 177.672 266.98 178.236 266.98 178.8C266.98 179.364 266.888 179.927 266.705 180.435C266.522 180.943 266.247 181.45 265.927 181.845C265.607 182.24 265.195 182.521 264.783 182.747C264.371 182.916 263.913 183.029 263.456 183.029C262.586 182.973 261.717 182.465 261.122 181.732C260.527 180.887 260.161 179.815 260.206 178.8Z" fill="#FF5A43"/>
<path d="M257.369 193.913H269.497V187.935C269.497 185.511 267.895 183.537 265.927 183.537H260.985C259.017 183.537 257.415 185.511 257.415 187.935V193.913H257.369Z" fill="#FF5A43"/>
<path d="M257.37 193.913L263.503 193.744C264.509 193.688 265.516 193.688 266.523 193.688C267.53 193.688 268.536 193.631 269.498 193.631L269.269 193.913V189.91V187.936C269.269 187.316 269.131 186.695 268.903 186.188C268.49 185.06 267.621 184.271 266.614 183.989C266.477 183.932 266.385 183.932 266.248 183.932C266.111 183.932 266.019 183.932 265.882 183.932H265.058H263.457H261.855H261.031C260.894 183.932 260.757 183.932 260.665 183.932C260.528 183.932 260.436 183.989 260.299 183.989C259.292 184.214 258.422 185.06 257.965 186.188C257.462 187.316 257.599 188.669 257.553 189.966L257.37 193.913ZM257.37 193.913L257.278 189.966L257.233 187.936C257.233 187.259 257.37 186.526 257.599 185.906C258.057 184.609 259.063 183.651 260.162 183.368C260.299 183.312 260.436 183.312 260.573 183.256C260.711 183.256 260.848 183.256 260.985 183.199H261.809H263.411H265.012H265.836C265.974 183.199 266.111 183.199 266.248 183.199C266.385 183.199 266.523 183.256 266.66 183.256C267.804 183.537 268.811 184.496 269.314 185.793C269.589 186.413 269.726 187.146 269.726 187.879V189.853L269.68 193.857V194.138H269.452C268.445 194.138 267.392 194.138 266.385 194.083C265.379 194.083 264.326 194.026 263.319 194.026L257.37 193.913Z" fill="#FF5A43"/>
<path d="M198.837 84.1781L199.936 89.3656L193.712 93.2004L202.315 99.6856L210.599 95.7943L208.905 89.4787L206.48 88.2943L207.258 78.9902L201.218 80.0054L198.837 84.1781Z" fill="#F2A374"/>
<path d="M205.108 86.4908C203.506 85.5322 201.08 87.2803 199.707 88.2956L199.936 89.4234L197.328 91.0017L200.074 98.0504L202.27 99.6861L209.684 95.2313C209.684 95.2313 208.54 91.2278 206.938 88.5208L206.526 88.2956L206.572 87.9008C206.069 87.2802 205.611 86.7727 205.108 86.4908Z" fill="#F2BC9C"/>
<path d="M194.719 77.1293C195.085 69.8552 199.387 66.5846 202.362 68.2763C204.787 69.6296 207.991 74.3663 206.938 79.1594C207.487 79.2158 207.991 79.5541 208.128 80.6819C208.403 83.1067 206.846 83.3322 206.16 82.9375C205.932 82.7683 205.748 82.5992 205.565 82.3736C204.559 83.8398 203.048 85.3059 200.805 86.5464C196.321 89.0279 194.445 82.5992 194.719 77.1293Z" fill="#F2BC9C"/>
<path d="M197.145 69.7988C197.465 70.1371 197.831 70.3626 198.197 70.5318C201.95 72.3926 204.97 70.7009 204.97 70.7009C206.526 72.8437 207.624 75.9452 206.938 79.1029C207.441 79.1593 207.991 79.4977 208.128 80.6254C208.403 83.0502 206.846 83.2757 206.16 82.881C205.932 82.7119 205.748 82.5427 205.565 82.3171C205.382 82.599 205.199 82.881 204.97 83.1066C204.97 83.7268 205.336 84.2907 205.84 84.4035C206.297 84.5163 206.846 84.5726 207.441 84.6291C208.768 84.6854 209.364 81.866 210.279 79.6669C210.919 78.1444 213.3 77.6932 212.292 70.0807C211.332 62.6937 201.904 63.6523 197.968 64.1034C196.961 64.1599 194.307 67.0921 197.145 69.7988Z" fill="#1B1464"/>
<path d="M106.944 84.1781L105.845 89.3656L112.115 93.2004L103.465 99.6856L95.1821 95.7943L96.8748 89.4787L99.301 88.2943L98.5224 78.9902L104.563 80.0054L106.944 84.1781Z" fill="#F2A374"/>
<path d="M100.672 86.4908C102.274 85.5322 104.699 87.2803 106.072 88.2956L105.844 89.4234L108.453 91.0017L105.707 98.0504L103.51 99.6861L96.0962 95.2313C96.0962 95.2313 97.2404 91.2278 98.8421 88.5208L99.2536 88.2956L99.2077 87.9008C99.7117 87.2802 100.169 86.7727 100.672 86.4908Z" fill="#F2BC9C"/>
<path d="M109.964 77.5808C111.199 68.7277 106.394 66.5849 103.42 68.2202C100.994 69.5735 97.791 74.3103 98.8434 79.1033C98.2942 79.1597 97.6074 79.4981 97.6533 80.6258C97.6992 81.7537 98.9345 83.2761 99.6213 82.8814C99.85 82.7123 100.033 82.543 100.216 82.3175C101.223 83.7836 101.452 84.4603 103.648 85.7572C108.179 88.2383 109.232 82.9942 109.964 77.5808Z" fill="#F2BC9C"/>
<path d="M197.283 84.5732L200.761 83.2197C200.761 83.2197 200.99 85.4754 199.662 86.0393C198.381 86.6033 197.283 84.5732 197.283 84.5732Z" fill="#F2F2F2"/>
<path d="M103.511 83.6143L107.171 84.0089C107.171 84.0089 106.531 85.6443 105.158 85.5316C103.785 85.4188 103.511 83.6143 103.511 83.6143Z" fill="#F2F2F2"/>
<path d="M108.635 69.8C108.316 70.1383 107.949 70.3638 107.583 70.5329C103.83 72.3938 100.81 70.7021 100.81 70.7021C99.2542 72.8449 98.1559 75.9463 98.842 79.104C98.3387 79.1605 98.2469 79.0477 98.2928 80.2319C98.3387 81.134 98.8879 83.2768 99.6199 82.8821C99.8486 82.713 100.032 82.5438 100.215 82.3182C100.398 82.6001 100.581 82.8821 100.81 83.1076C100.81 83.728 100.444 84.2919 99.9404 84.4047C99.4829 84.5174 98.9338 84.5738 98.3387 84.6302C97.0117 84.6866 96.4166 81.8672 95.5011 79.668C94.8608 78.1455 92.4806 77.6943 93.4879 70.0818C94.4486 62.6948 105.432 56.6049 109.322 56.9996C110.375 57.1124 111.519 67.0933 108.635 69.8Z" fill="#46255F"/>
<path d="M216.458 291.521C216.458 291.521 218.426 296.54 217.968 298.682C217.556 300.825 202.545 301.107 202.133 300.035C201.722 298.964 203.873 295.468 206.481 294.171C209.09 292.818 212.476 291.521 212.476 291.521H216.458Z" fill="#1B1464"/>
<path d="M194.078 290.676C194.078 290.676 195.818 295.131 195.405 296.991C195.039 298.852 181.814 299.134 181.447 298.176C181.082 297.217 182.958 294.172 185.292 292.988C187.58 291.804 190.555 290.676 190.555 290.676H194.078Z" fill="#1B1464"/>
<path d="M225.792 155.962C225.792 155.962 228.401 170.116 227.303 187.54C226.205 204.908 225.152 288.082 217.326 291.296C209.501 294.51 206.892 285.15 205.382 278.439C203.871 271.729 203.231 198.198 203.231 198.198C203.231 198.198 201.72 205.133 201.263 208.347C200.851 211.562 203.414 263.722 201.263 274.943C199.112 286.165 197.144 290.732 192.384 291.804C187.625 292.875 185.245 245.79 184.376 227.125C183.506 208.404 182.408 199.832 184.376 186.243C186.343 172.597 192.614 151.732 192.614 151.732L225.792 155.962Z" fill="#46255F"/>
<path d="M190.189 288.646C191.562 286.954 194.902 281.259 195.406 265.583C195.909 249.963 189.96 186.976 187.397 170.906C187.534 170.285 187.718 169.665 187.855 169.045C189.64 161.883 191.424 155.511 192.202 152.973C192.248 152.748 192.34 152.579 192.386 152.41C192.386 152.353 192.431 152.24 192.431 152.184C192.431 152.184 192.431 152.184 192.431 152.128C192.477 152.015 192.477 151.902 192.523 151.846V151.789L225.702 156.075C225.702 156.075 225.702 156.075 225.702 156.132C225.702 156.188 225.748 156.357 225.794 156.583C225.794 156.639 225.794 156.695 225.839 156.752C225.839 156.808 225.839 156.865 225.885 156.977C221.491 159.74 209.273 167.917 206.618 175.811C203.369 185.453 202.957 199.156 202.957 199.156C202.957 199.213 202.957 199.213 202.957 199.269C202.957 199.326 202.957 199.326 202.911 199.382C202.911 199.439 202.911 199.439 202.865 199.494C202.865 199.551 202.865 199.607 202.819 199.607C202.819 199.664 202.819 199.664 202.774 199.72C202.774 199.777 202.728 199.833 202.728 199.889C202.728 199.946 202.728 199.946 202.728 200.002C202.728 200.115 202.682 200.172 202.682 200.284C202.682 200.34 202.682 200.34 202.682 200.397C202.682 200.453 202.637 200.566 202.637 200.622C202.637 200.679 202.637 200.679 202.637 200.735C202.637 200.792 202.591 200.905 202.591 200.96C202.591 201.017 202.591 201.017 202.591 201.073C202.591 201.186 202.545 201.3 202.5 201.412V201.468C202.5 201.581 202.454 201.693 202.454 201.75C202.454 201.806 202.454 201.806 202.408 201.863C202.408 201.92 202.362 202.033 202.362 202.088C202.362 202.145 202.362 202.145 202.316 202.201C202.316 202.314 202.27 202.371 202.27 202.483C202.27 202.539 202.27 202.54 202.27 202.596C202.225 202.709 202.225 202.821 202.179 202.991V203.047C202.179 203.16 202.133 203.273 202.133 203.386C202.133 203.442 202.133 203.442 202.133 203.499C202.133 203.611 202.087 203.667 202.087 203.78C202.087 203.837 202.087 203.837 202.041 203.893C201.996 204.006 201.996 204.119 201.95 204.232C201.905 204.344 201.905 204.513 201.859 204.626C201.859 204.682 201.859 204.682 201.859 204.739C201.859 204.852 201.813 204.908 201.813 205.02C201.813 205.077 201.813 205.077 201.813 205.133C201.813 205.246 201.767 205.303 201.767 205.415C201.767 205.472 201.767 205.472 201.767 205.528C201.721 205.641 201.721 205.753 201.676 205.923V205.979C201.676 206.093 201.63 206.205 201.63 206.318C201.63 206.374 201.63 206.374 201.63 206.431C201.63 206.543 201.584 206.599 201.584 206.713C201.584 206.769 201.584 206.769 201.584 206.826C201.584 206.938 201.538 206.994 201.538 207.107V207.164C201.538 207.276 201.492 207.389 201.492 207.502V207.559C201.492 207.614 201.446 207.727 201.446 207.784C201.446 207.84 201.446 207.84 201.446 207.897C201.446 207.953 201.446 208.066 201.401 208.122C201.401 208.179 201.401 208.179 201.401 208.235C201.401 208.347 201.355 208.404 201.355 208.517C200.943 211.731 203.506 263.891 201.355 275.113C199.205 286.333 197.237 290.901 192.477 291.973C191.607 291.916 190.875 290.788 190.189 288.646Z" fill="#2F0E54"/>
<path d="M208.815 89.4235C208.174 90.3261 203.644 96.4722 201.355 96.3027C198.884 96.134 198.701 90.1001 198.701 90.1001C182.272 96.5853 177.1 127.486 153.715 119.986C153.531 123.031 153.715 125.625 154.264 127.824C162.181 138.425 175.178 141.357 186.253 131.884C184.423 139.948 184.88 154.384 191.013 157.597C196.779 163.744 218.013 159.684 222.361 155.23L223.185 171.751C224.878 172.71 228.54 172.146 229.18 169.665C229.18 169.665 237.235 157.88 237.326 134.535C237.463 85.4199 208.861 89.367 208.815 89.4235Z" fill="#FF5862"/>
<path d="M202.957 98.501C202.957 98.501 207.579 120.042 207.076 123.087C206.618 126.132 202.454 137.804 200.806 137.804C199.113 137.804 196.687 127.598 197.145 121.959C197.603 116.264 201.446 98.501 201.446 98.501H202.957Z" fill="#2A2370"/>
<path d="M200.76 95.1739C200.347 95.2305 200.027 95.6818 200.027 96.2452C200.073 97.3166 200.393 99.0087 201.72 99.2339C203.002 99.4592 203.642 97.5426 203.963 96.0766C204.1 95.3992 203.642 94.7226 203.093 94.8357L200.76 95.1739Z" fill="#1B1464"/>
<path d="M222.451 155.172C222.314 140.737 220.621 123.764 215.861 101.715C215.861 101.715 216.182 127.203 212.475 141.413C209.729 151.902 194.856 153.311 187.351 153.311C188.22 155.284 189.41 156.864 191.011 157.71C196.778 163.856 218.013 159.796 222.36 155.341V155.397L222.451 155.172Z" fill="#FF2E57"/>
<path d="M137.421 119.929C137.421 119.929 145.613 115.474 145.934 118.914C146.116 120.662 146.345 122.466 146.345 122.466L149.32 126.978C149.32 126.978 149.961 128.049 148.908 129.12C147.81 130.192 143.737 131.376 140.213 127.936C138.977 126.752 138.291 125.342 138.291 125.342C137.33 124.215 137.238 122.185 137.421 119.929Z" fill="#F2BC9C"/>
<path d="M154.355 120.38C154.355 120.38 143.188 115.87 141.861 121.113C141.266 123.369 145.568 122.016 145.568 122.016C146.484 123.877 147.261 126.978 149.229 128.275L154.309 126.132V120.38H154.355Z" fill="#F2A374"/>
<path d="M195.863 91.5645C181.584 100.192 175.726 127.033 153.759 120.041C153.576 123.086 153.759 125.68 154.308 127.879C162.225 138.48 175.223 141.413 186.297 131.939C188.403 116.037 190.416 98.501 195.863 91.5645Z" fill="#FF2E57"/>
<path d="M118.384 141.47C118.384 141.47 115.501 142.091 115.593 143.049C115.684 144.007 116.371 144.458 116.371 144.458C116.371 144.458 114.357 147.842 116.737 148.8C119.116 149.759 120.352 150.154 121.496 148.744C122.64 147.334 123.281 143.557 123.281 143.557C121.451 143.838 119.848 143.105 118.384 141.47Z" fill="#F2BC9C"/>
<path d="M101.084 287.743C101.084 287.743 99.3453 292.198 99.7569 294.059C100.123 295.92 113.349 296.201 113.715 295.243C114.081 294.284 112.205 291.24 109.871 290.055C107.582 288.871 104.608 287.743 104.608 287.743H101.084Z" fill="#FFA658"/>
<path d="M94.0378 289.604C94.0378 289.604 92.2992 294.058 92.7107 295.919C93.0771 297.78 106.302 298.063 106.669 297.104C107.035 296.145 105.159 293.1 102.825 291.916C100.491 290.732 97.5615 289.604 97.5615 289.604H94.0378Z" fill="#1B1464"/>
<path d="M83.5118 154.045C83.5118 154.045 80.9035 168.199 82.0019 185.622C83.1002 202.99 84.1527 286.164 91.9788 289.379C99.8042 292.593 99.8501 285.319 99.8501 285.319C99.8501 285.319 98.9346 291.014 105.525 288.364C110.147 286.503 115.318 251.26 116.875 232.595C121.954 172.315 116.737 149.815 116.737 149.815L83.5118 154.045Z" fill="#2A2370"/>
<path d="M113.166 94.3281C127.857 105.832 134.447 127.598 123.234 143.838C121.266 143.612 119.253 143.556 118.475 141.582C120.947 125.906 116.187 108.82 110.192 99.629L113.166 94.3281Z" fill="#2071F5"/>
<path d="M97.652 89.084C97.652 89.084 103.19 97.4301 105.203 95.7379C107.217 94.0466 107.491 90.3814 107.491 90.3814C107.491 90.3814 117.01 91.0014 118.383 112.937C119.756 134.872 117.148 150.154 117.148 150.154C112.067 157.315 94.0823 160.811 83.007 157.259C76.7374 152.466 77.1037 138.65 81.6341 114.572C85.8447 92.1857 97.652 89.084 97.652 89.084Z" fill="#298BF5"/>
<path d="M117.148 150.153C117.148 150.153 119.208 138.143 118.705 120.154C110.239 120.832 102.321 117.335 95.1814 107.241L89.3239 106.058C89.3239 106.058 84.7018 134.026 95.1362 145.53C100.628 151.619 108.911 152.522 115.547 152.071C116.142 151.451 116.691 150.831 117.148 150.153Z" fill="#2071F5"/>
<path d="M87.9511 101.715C82.2765 151.619 124.929 148.18 138.842 126.413C137.652 125.004 137.377 121.113 138.842 119.253C116.462 129.177 99.4379 125.286 91.6125 97.543L87.9511 101.715Z" fill="#298BF5"/>
<path d="M105.706 288.194C106.439 287.799 106.896 286.841 107.308 286.051C107.766 285.093 108.131 284.134 108.498 283.119C109.23 280.92 109.825 278.608 110.374 276.352C110.603 275.394 110.832 274.435 110.969 273.42C111.061 272.518 111.198 271.672 111.29 270.77C111.518 268.796 111.747 266.822 111.931 264.849C112.388 260.225 112.799 255.601 113.12 250.977C113.486 245.733 113.761 240.545 113.852 235.301C113.944 230.902 113.944 226.504 113.852 222.106C113.761 217.651 113.577 213.196 113.349 208.798C113.12 204.625 112.845 200.453 112.571 196.336C112.296 192.84 112.022 189.344 111.701 185.848C111.472 183.31 111.244 180.829 110.969 178.292C110.832 177.108 110.74 175.867 110.603 174.682C110.603 174.627 110.603 174.57 110.603 174.514C110.603 179.194 110.512 183.875 110.374 188.555C110.237 193.178 110.054 197.802 109.825 202.426C109.596 206.881 109.322 211.335 109.001 215.79C108.681 220.076 108.361 224.361 107.995 228.591C107.628 232.651 107.217 236.711 106.804 240.715C106.393 244.436 105.981 248.158 105.477 251.88C105.066 255.262 104.608 258.646 104.104 261.973C103.647 264.962 103.189 267.894 102.686 270.826C102.274 273.363 101.816 275.845 101.313 278.326C100.901 280.3 100.489 282.273 100.032 284.247C99.9397 284.585 99.711 285.093 99.8487 285.431C99.8939 285.375 99.8939 285.318 99.9397 285.262C99.8487 285.995 99.8938 286.897 100.214 287.574C100.718 288.702 101.725 289.04 102.686 288.983C103.144 288.983 103.601 288.927 104.059 288.815C104.517 288.645 105.157 288.532 105.706 288.194Z" fill="#1B1464"/>
<path d="M82.4594 162.334C82.0012 166.902 81.6356 172.991 81.7725 179.928C82.3217 180.266 82.9168 180.435 83.6029 180.548C91.8864 181.845 92.6643 164.703 92.6643 164.703L82.4594 162.334Z" fill="#298BF5"/>
<path d="M206.664 134.365L217.922 176.713L241.49 170.849L237.143 126.865L206.664 134.365Z" fill="#F29B22"/>
<path d="M212.567 135.041L217.922 176.713L241.49 170.849L241.399 128.669L212.567 135.041Z" fill="#FFB44D"/>
<path d="M223.687 169.101C223.687 169.101 221.353 171.92 221.902 172.653C222.497 173.443 223.321 173.33 223.321 173.33C223.321 173.33 223.184 177.954 225.838 177.052C228.493 176.093 229.82 175.529 230.186 173.386C230.552 171.244 229.179 167.296 229.179 167.296C227.669 168.875 225.838 169.495 223.687 169.101Z" fill="#F2BC9C"/>
<path d="M234.123 110.061C242.864 135.943 235.679 155.736 229.409 168.029C227.167 169.213 225.062 169.89 223.14 169.777C224.604 152.578 221.812 137.748 218.838 117.109L234.123 110.061Z" fill="#FF5862"/>
</g>
<defs>
<clipPath id="clip0_2573_66828">
<rect width="300" height="300" fill="white" transform="translate(0.5 0.830078)"/>
</clipPath>
</defs>
</svg>
