<svg width="51" height="51" viewBox="0 0 51 51" fill="none" xmlns="http://www.w3.org/2000/svg">
<path opacity="0.2" d="M34.875 11.5991C34.875 12.5262 34.6001 13.4325 34.085 14.2034C33.5699 14.9742 32.8379 15.575 31.9813 15.9298C31.1248 16.2846 30.1823 16.3774 29.273 16.1966C28.3637 16.0157 27.5285 15.5692 26.8729 14.9137C26.2174 14.2581 25.7709 13.4229 25.5901 12.5136C25.4092 11.6043 25.502 10.6618 25.8568 9.80529C26.2116 8.94876 26.8124 8.21668 27.5833 7.70161C28.3541 7.18654 29.2604 6.91162 30.1875 6.91162C31.4307 6.91162 32.623 7.40548 33.5021 8.28456C34.3811 9.16364 34.875 10.3559 34.875 11.5991Z" fill="black"/>
<path d="M30.1875 17.8491C31.4236 17.8491 32.632 17.4826 33.6598 16.7958C34.6876 16.109 35.4887 15.1329 35.9617 13.9909C36.4348 12.8489 36.5586 11.5922 36.3174 10.3798C36.0762 9.16743 35.481 8.05378 34.6069 7.17971C33.7328 6.30563 32.6192 5.71037 31.4068 5.46922C30.1944 5.22806 28.9378 5.35183 27.7957 5.82488C26.6537 6.29792 25.6776 7.099 24.9908 8.12681C24.304 9.15462 23.9375 10.363 23.9375 11.5991C23.9375 13.2567 24.596 14.8464 25.7681 16.0185C26.9402 17.1906 28.5299 17.8491 30.1875 17.8491ZM30.1875 8.47412C30.8056 8.47412 31.4097 8.6574 31.9236 9.00078C32.4375 9.34416 32.8381 9.83222 33.0746 10.4032C33.3111 10.9743 33.373 11.6026 33.2524 12.2088C33.1319 12.815 32.8342 13.3718 32.3972 13.8088C31.9602 14.2459 31.4033 14.5435 30.7971 14.6641C30.191 14.7847 29.5626 14.7228 28.9916 14.4862C28.4206 14.2497 27.9325 13.8492 27.5891 13.3353C27.2458 12.8214 27.0625 12.2172 27.0625 11.5991C27.0625 10.7703 27.3917 9.97547 27.9778 9.38941C28.5638 8.80336 29.3587 8.47412 30.1875 8.47412ZM43.334 28.1382C43.2148 28.1929 41.8711 28.7788 39.4922 28.7788C36.7871 28.7788 32.7441 28.021 27.6387 24.8726C26.8616 27.0785 25.8527 29.1959 24.6289 31.189C26.827 31.8656 28.8947 32.9097 30.7441 34.2769C34.4687 37.1167 36.4375 41.1597 36.4375 45.9741C36.4375 46.3885 36.2729 46.786 35.9798 47.079C35.6868 47.372 35.2894 47.5366 34.875 47.5366C34.4606 47.5366 34.0632 47.372 33.7701 47.079C33.4771 46.786 33.3125 46.3885 33.3125 45.9741C33.3125 37.8296 26.5371 34.898 22.7383 33.894C22.6308 34.0308 22.5195 34.1694 22.4082 34.3042C18.5723 38.9526 13.7656 41.3706 8.41795 41.3706C7.80885 41.3735 7.2 41.3454 6.59374 41.2866C6.17933 41.2452 5.79837 41.0408 5.53465 40.7185C5.27092 40.3962 5.14605 39.9823 5.18749 39.5679C5.22893 39.1535 5.43329 38.7725 5.75562 38.5088C6.07794 38.2451 6.49183 38.1202 6.90624 38.1616C11.9687 38.6675 16.373 36.6987 19.9922 32.3022C22.4316 29.3452 24.0937 25.7378 24.9238 23.1226C17.3223 18.6968 12.4668 22.4644 12.414 22.5054C12.2549 22.6413 12.07 22.7438 11.8705 22.8069C11.6709 22.87 11.4607 22.8924 11.2523 22.8727C11.044 22.853 10.8417 22.7916 10.6575 22.6923C10.4733 22.5929 10.3109 22.4575 10.1801 22.2942C10.0492 22.1308 9.95247 21.9429 9.89563 21.7414C9.83879 21.54 9.823 21.3292 9.8492 21.1216C9.87539 20.9139 9.94304 20.7136 10.0481 20.5326C10.1532 20.3516 10.2936 20.1936 10.4609 20.0679C10.7539 19.8335 17.7305 14.4038 27.9433 21.3511C36.8242 27.3882 41.9922 25.3179 42.041 25.2944C42.2282 25.206 42.4311 25.1557 42.6379 25.1464C42.8447 25.1371 43.0513 25.1689 43.2457 25.2402C43.4401 25.3114 43.6184 25.4205 43.7702 25.5612C43.9221 25.7019 44.0445 25.8714 44.1302 26.0598C44.216 26.2482 44.2635 26.4518 44.27 26.6587C44.2764 26.8656 44.2417 27.0717 44.1678 27.2651C44.0939 27.4585 43.9823 27.6353 43.8395 27.7851C43.6967 27.935 43.5255 28.055 43.3359 28.1382H43.334Z" fill="black"/>
</svg>
