<svg width="50" height="51" viewBox="0 0 50 51" fill="none" xmlns="http://www.w3.org/2000/svg">
<path opacity="0.2" d="M43.75 11.5996V35.0371C43.75 35.4515 43.5854 35.8489 43.2924 36.142C42.9993 36.435 42.6019 36.5996 42.1875 36.5996H7.8125C7.3981 36.5996 7.00067 36.435 6.70765 36.142C6.41462 35.8489 6.25 35.4515 6.25 35.0371V11.5996C6.25 11.1852 6.41462 10.7878 6.70765 10.4948C7.00067 10.2017 7.3981 10.0371 7.8125 10.0371H42.1875C42.6019 10.0371 42.9993 10.2017 43.2924 10.4948C43.5854 10.7878 43.75 11.1852 43.75 11.5996Z" fill="#FF5A43"/>
<path d="M42.1875 8.47461H26.5625V5.34961C26.5625 4.93521 26.3979 4.53778 26.1049 4.24475C25.8118 3.95173 25.4144 3.78711 25 3.78711C24.5856 3.78711 24.1882 3.95173 23.8951 4.24475C23.6021 4.53778 23.4375 4.93521 23.4375 5.34961V8.47461H7.8125C6.9837 8.47461 6.18884 8.80385 5.60279 9.3899C5.01674 9.97595 4.6875 10.7708 4.6875 11.5996V35.0371C4.6875 35.8659 5.01674 36.6608 5.60279 37.2468C6.18884 37.8329 6.9837 38.1621 7.8125 38.1621H15.5L11.2793 43.4356C11.0203 43.7593 10.9005 44.1727 10.9463 44.5847C10.9921 44.9968 11.1997 45.3738 11.5234 45.6328C11.8472 45.8918 12.2606 46.0116 12.6726 45.9658C13.0847 45.92 13.4617 45.7124 13.7207 45.3887L19.5 38.1621H30.5L36.2793 45.3887C36.4075 45.549 36.5661 45.6825 36.7459 45.7815C36.9258 45.8805 37.1233 45.9431 37.3274 45.9658C37.5314 45.9885 37.7379 45.9707 37.9351 45.9136C38.1323 45.8565 38.3163 45.7611 38.4766 45.6328C38.6369 45.5046 38.7703 45.346 38.8694 45.1662C38.9684 44.9864 39.031 44.7888 39.0537 44.5847C39.0764 44.3807 39.0586 44.1742 39.0015 43.977C38.9444 43.7799 38.8489 43.5959 38.7207 43.4356L34.5 38.1621H42.1875C43.0163 38.1621 43.8112 37.8329 44.3972 37.2468C44.9833 36.6608 45.3125 35.8659 45.3125 35.0371V11.5996C45.3125 10.7708 44.9833 9.97595 44.3972 9.3899C43.8112 8.80385 43.0163 8.47461 42.1875 8.47461ZM42.1875 35.0371H7.8125V11.5996H42.1875V35.0371ZM20.3125 24.0996V28.7871C20.3125 29.2015 20.1479 29.5989 19.8549 29.892C19.5618 30.185 19.1644 30.3496 18.75 30.3496C18.3356 30.3496 17.9382 30.185 17.6451 29.892C17.3521 29.5989 17.1875 29.2015 17.1875 28.7871V24.0996C17.1875 23.6852 17.3521 23.2878 17.6451 22.9948C17.9382 22.7017 18.3356 22.5371 18.75 22.5371C19.1644 22.5371 19.5618 22.7017 19.8549 22.9948C20.1479 23.2878 20.3125 23.6852 20.3125 24.0996ZM26.5625 20.9746V28.7871C26.5625 29.2015 26.3979 29.5989 26.1049 29.892C25.8118 30.185 25.4144 30.3496 25 30.3496C24.5856 30.3496 24.1882 30.185 23.8951 29.892C23.6021 29.5989 23.4375 29.2015 23.4375 28.7871V20.9746C23.4375 20.5602 23.6021 20.1628 23.8951 19.8698C24.1882 19.5767 24.5856 19.4121 25 19.4121C25.4144 19.4121 25.8118 19.5767 26.1049 19.8698C26.3979 20.1628 26.5625 20.5602 26.5625 20.9746ZM32.8125 17.8496V28.7871C32.8125 29.2015 32.6479 29.5989 32.3549 29.892C32.0618 30.185 31.6644 30.3496 31.25 30.3496C30.8356 30.3496 30.4382 30.185 30.1451 29.892C29.8521 29.5989 29.6875 29.2015 29.6875 28.7871V17.8496C29.6875 17.4352 29.8521 17.0378 30.1451 16.7448C30.4382 16.4517 30.8356 16.2871 31.25 16.2871C31.6644 16.2871 32.0618 16.4517 32.3549 16.7448C32.6479 17.0378 32.8125 17.4352 32.8125 17.8496Z" fill="#FF5A43"/>
</svg>
