<svg width="50" height="51" viewBox="0 0 50 51" fill="none" xmlns="http://www.w3.org/2000/svg">
<path opacity="0.2" d="M43.75 25.1616C43.75 28.87 42.6503 32.4951 40.5901 35.5786C38.5298 38.662 35.6014 41.0652 32.1753 42.4844C28.7492 43.9035 24.9792 44.2748 21.3421 43.5513C17.7049 42.8279 14.364 41.0421 11.7418 38.4199C9.11952 35.7976 7.33376 32.4567 6.61028 28.8196C5.88681 25.1824 6.25812 21.4124 7.67727 17.9863C9.09641 14.5602 11.4996 11.6318 14.5831 9.57157C17.6665 7.51129 21.2916 6.41162 25 6.41162C29.9728 6.41162 34.742 8.38706 38.2583 11.9034C41.7746 15.4197 43.75 20.1888 43.75 25.1616Z" fill="black"/>
<path d="M27.3438 35.3179C27.3438 35.7814 27.2063 36.2346 26.9488 36.62C26.6912 37.0054 26.3252 37.3058 25.8969 37.4832C25.4687 37.6606 24.9974 37.707 24.5428 37.6166C24.0881 37.5262 23.6705 37.3029 23.3427 36.9752C23.0149 36.6474 22.7917 36.2298 22.7013 35.7751C22.6109 35.3205 22.6573 34.8492 22.8347 34.421C23.0121 33.9927 23.3125 33.6266 23.6979 33.3691C24.0833 33.1116 24.5365 32.9741 25 32.9741C25.6216 32.9741 26.2178 33.2211 26.6573 33.6606C27.0968 34.1001 27.3438 34.6963 27.3438 35.3179ZM25 14.2241C20.6914 14.2241 17.1875 17.3784 17.1875 21.2554V22.0366C17.1875 22.451 17.3521 22.8484 17.6452 23.1415C17.9382 23.4345 18.3356 23.5991 18.75 23.5991C19.1644 23.5991 19.5618 23.4345 19.8549 23.1415C20.1479 22.8484 20.3125 22.451 20.3125 22.0366V21.2554C20.3125 19.1069 22.416 17.3491 25 17.3491C27.584 17.3491 29.6875 19.1069 29.6875 21.2554C29.6875 23.4038 27.584 25.1616 25 25.1616C24.5856 25.1616 24.1882 25.3262 23.8952 25.6193C23.6021 25.9123 23.4375 26.3097 23.4375 26.7241V28.2866C23.4375 28.701 23.6021 29.0985 23.8952 29.3915C24.1882 29.6845 24.5856 29.8491 25 29.8491C25.4144 29.8491 25.8118 29.6845 26.1049 29.3915C26.3979 29.0985 26.5625 28.701 26.5625 28.2866V28.146C30.125 27.4917 32.8125 24.6499 32.8125 21.2554C32.8125 17.3784 29.3086 14.2241 25 14.2241ZM45.3125 25.1616C45.3125 29.1791 44.1212 33.1063 41.8892 36.4466C39.6573 39.787 36.4849 42.3905 32.7733 43.9279C29.0616 45.4653 24.9775 45.8676 21.0372 45.0838C17.097 44.3001 13.4777 42.3655 10.6369 39.5247C7.79615 36.684 5.86157 33.0646 5.07781 29.1244C4.29405 25.1842 4.6963 21.1 6.23371 17.3884C7.77111 13.6767 10.3746 10.5044 13.715 8.27239C17.0554 6.04043 20.9826 4.84912 25 4.84912C30.3855 4.85481 35.5487 6.9967 39.3568 10.8048C43.1649 14.6129 45.3068 19.7762 45.3125 25.1616ZM42.1875 25.1616C42.1875 21.7623 41.1795 18.4392 39.2909 15.6128C37.4023 12.7863 34.718 10.5833 31.5774 9.28244C28.4368 7.98156 24.9809 7.64119 21.6469 8.30437C18.3128 8.96756 15.2503 10.6045 12.8466 13.0082C10.4429 15.4119 8.80595 18.4745 8.14276 21.8085C7.47958 25.1426 7.81995 28.5984 9.12083 31.739C10.4217 34.8796 12.6247 37.5639 15.4511 39.4525C18.2776 41.3411 21.6006 42.3491 25 42.3491C29.5568 42.344 33.9255 40.5315 37.1477 37.3093C40.3699 34.0871 42.1823 29.7184 42.1875 25.1616Z" fill="#DFAAFF"/>
</svg>
