<svg width="100" height="101" viewBox="0 0 100 101" fill="none" xmlns="http://www.w3.org/2000/svg">
<path opacity="0.2" d="M87.5 50.1616C87.5 57.5784 85.3007 64.8287 81.1801 70.9955C77.0596 77.1624 71.2029 81.9688 64.3506 84.8071C57.4984 87.6454 49.9584 88.388 42.6841 86.9411C35.4098 85.4941 28.728 81.9226 23.4835 76.6781C18.239 71.4337 14.6675 64.7518 13.2206 57.4775C11.7736 50.2032 12.5162 42.6632 15.3545 35.811C18.1928 28.9588 22.9993 23.1021 29.1661 18.9815C35.333 14.861 42.5832 12.6616 50 12.6616C59.9456 12.6616 69.4839 16.6125 76.5165 23.6451C83.5491 30.6777 87.5 40.216 87.5 50.1616Z" fill="black"/>
<path d="M54.6875 70.4741C54.6875 71.4012 54.4126 72.3075 53.8975 73.0784C53.3825 73.8492 52.6504 74.45 51.7938 74.8048C50.9373 75.1596 49.9948 75.2524 49.0855 75.0716C48.1762 74.8907 47.341 74.4442 46.6855 73.7887C46.0299 73.1331 45.5835 72.2979 45.4026 71.3886C45.2217 70.4793 45.3145 69.5368 45.6693 68.6803C46.0241 67.8238 46.6249 67.0917 47.3958 66.5766C48.1666 66.0615 49.0729 65.7866 50 65.7866C51.2432 65.7866 52.4355 66.2805 53.3146 67.1596C54.1937 68.0386 54.6875 69.2309 54.6875 70.4741ZM50 28.2866C41.3828 28.2866 34.375 34.5952 34.375 42.3491V43.9116C34.375 44.7404 34.7043 45.5353 35.2903 46.1213C35.8764 46.7074 36.6712 47.0366 37.5 47.0366C38.3288 47.0366 39.1237 46.7074 39.7097 46.1213C40.2958 45.5353 40.625 44.7404 40.625 43.9116V42.3491C40.625 38.0522 44.8321 34.5366 50 34.5366C55.168 34.5366 59.375 38.0522 59.375 42.3491C59.375 46.646 55.168 50.1616 50 50.1616C49.1712 50.1616 48.3764 50.4909 47.7903 51.0769C47.2043 51.663 46.875 52.4578 46.875 53.2866V56.4116C46.875 57.2404 47.2043 58.0353 47.7903 58.6213C48.3764 59.2074 49.1712 59.5366 50 59.5366C50.8288 59.5366 51.6237 59.2074 52.2097 58.6213C52.7958 58.0353 53.125 57.2404 53.125 56.4116V56.1304C60.25 54.8218 65.625 49.1382 65.625 42.3491C65.625 34.5952 58.6172 28.2866 50 28.2866ZM90.625 50.1616C90.625 58.1965 88.2424 66.0509 83.7785 72.7317C79.3145 79.4124 72.9698 84.6194 65.5465 87.6942C58.1233 90.769 49.955 91.5735 42.0745 90.006C34.194 88.4385 26.9553 84.5693 21.2738 78.8878C15.5923 73.2063 11.7231 65.9676 10.1556 58.0872C8.58809 50.2067 9.3926 42.0384 12.4674 34.6151C15.5422 27.1919 20.7492 20.8471 27.43 16.3832C34.1107 11.9192 41.9652 9.53662 50 9.53662C60.7709 9.548 71.0975 13.8318 78.7137 21.448C86.3299 29.0642 90.6136 39.3907 90.625 50.1616ZM84.375 50.1616C84.375 43.3629 82.359 36.7168 78.5818 31.0639C74.8046 25.411 69.436 21.005 63.1548 18.4033C56.8736 15.8015 49.9619 15.1208 43.2938 16.4471C36.6257 17.7735 30.5007 21.0474 25.6932 25.8548C20.8858 30.6623 17.6119 36.7873 16.2855 43.4554C14.9592 50.1235 15.6399 57.0352 18.2417 63.3164C20.8434 69.5976 25.2494 74.9662 30.9023 78.7434C36.5552 82.5206 43.2013 84.5366 50 84.5366C59.1137 84.5263 67.8511 80.9013 74.2954 74.457C80.7397 68.0127 84.3647 59.2753 84.375 50.1616Z" fill="#DFAAFF"/>
</svg>
