<svg width="381" height="373" viewBox="0 0 381 373" fill="none" xmlns="http://www.w3.org/2000/svg">
<path fill-rule="evenodd" clip-rule="evenodd" d="M269.155 45.0032C274.68 45.2685 279.361 40.1387 279.361 33.6822C279.361 27.8448 275.37 22.8035 270.306 22.3612C264.704 21.8306 259.946 26.7835 259.716 33.1515C259.716 33.3284 259.716 33.4169 259.716 33.5938C259.639 39.8734 263.86 44.9147 269.155 45.0032Z" fill="#FED96A"/>
<path fill-rule="evenodd" clip-rule="evenodd" d="M307.216 315.999C312.741 316.264 317.423 311.135 317.423 304.678C317.423 298.841 313.432 293.799 308.368 293.357C302.766 292.827 298.008 297.779 297.778 304.148C297.778 304.324 297.778 304.413 297.778 304.59C297.701 310.781 301.921 315.822 307.216 315.999Z" fill="#FED96A"/>
<path d="M52.6807 30.2328C47.8463 20.9461 36.4892 27.491 36.4892 27.491C36.4892 27.491 28.6621 15.9932 20.8349 21.919C16.6144 25.0146 15.0797 31.2057 16.9214 36.5124C20.3745 46.3298 30.6572 56.7664 30.6572 56.7664C30.6572 56.7664 43.8559 52.4326 50.6855 45.2685C54.3688 41.4654 55.213 35.0973 52.6807 30.2328Z" fill="#FED96A"/>
<path d="M351.416 105.147C311.974 22.8922 215.286 81.7082 215.286 81.7082C215.286 81.7082 151.134 -20.1806 84.2196 33.5056C48.7673 61.9849 34.4943 116.821 49.4579 164.139C77.0831 251.612 162.414 343.771 162.414 343.771C162.414 343.771 274.296 304.502 332.616 240.025C364.079 205.266 372.366 148.838 351.416 105.147Z" fill="#FED96A"/>
<path d="M71.7881 163.078C71.7881 163.078 71.1742 172.63 75.4714 181.828C79.7687 191.026 117.293 236.399 124.2 235.249C131.105 234.099 242.451 177.317 249.74 167.323C249.74 167.323 244.062 159.363 237.309 154.587C230.556 149.811 103.787 132.741 71.7881 163.078Z" fill="#2ECAC2"/>
<path d="M72.6324 130.442C87.5193 122.481 152.439 88.1644 189.195 79.143C189.963 78.9661 190.807 79.143 191.421 79.6736C197.637 84.8035 230.403 112.664 244.906 136.367C245.904 138.048 245.443 140.347 243.832 141.232C228.945 149.28 161.877 185.101 125.427 202.082C124.353 202.613 123.125 202.259 122.358 201.374C115.758 193.503 85.7544 157.506 71.6349 135.483C70.5606 133.714 71.021 131.326 72.6324 130.442Z" fill="#1FA89D"/>
<path d="M244.83 140.259C246.134 140.082 246.211 133.714 246.211 133.714L239.381 128.319C239.381 128.23 238.767 141.055 244.83 140.259Z" fill="#1FA89D"/>
<path d="M243.679 153.26C243.371 160.778 243.679 165.554 243.679 165.554C233.933 174.752 181.292 200.932 149.216 216.41C134.559 223.486 124.2 228.35 124.2 228.35C111.154 215.526 74.0905 170.065 74.0905 170.065C69.87 147.069 74.1672 137.34 74.1672 137.34L124.2 201.109L140.851 192.795L243.832 141.232C243.832 141.232 243.832 149.28 243.679 153.26Z" fill="#FCF4C2"/>
<path opacity="0.63" d="M243.678 153.26C243.371 160.778 243.678 165.554 243.678 165.554C233.933 174.753 181.292 200.932 149.215 216.41C159.959 208.008 170.318 197.483 160.726 194.122C154.28 191.911 147.067 192.442 140.851 192.707L243.832 141.143C243.832 141.232 243.832 149.28 243.678 153.26Z" fill="#E2B08F"/>
<g opacity="0.61">
<path opacity="0.61" d="M73.3994 158.744C73.3994 158.744 113.149 209.512 124.583 219.683C124.583 219.683 220.734 174.134 243.832 156.621" stroke="#E09916" stroke-width="0.4282" stroke-miterlimit="10"/>
<path opacity="0.61" d="M73.3996 145.123C73.3228 145.123 105.322 190.673 125.044 209.158C125.044 209.158 224.034 162.901 243.755 148.042" stroke="#E09916" stroke-width="0.4282" stroke-miterlimit="10"/>
</g>
<path d="M244.445 135.306C231.708 142.205 180.601 169.534 143.384 187.842C137.168 190.938 131.336 193.68 126.118 196.156C125.044 196.687 123.815 196.333 123.049 195.449C116.449 187.577 86.4451 151.58 72.3255 129.557C71.2512 127.877 71.7883 125.577 73.3999 124.692C88.2872 116.732 153.206 82.4153 189.963 73.3939C190.73 73.2171 191.574 73.3939 192.189 73.9246C195.258 76.4895 204.773 84.538 215.44 94.9745C226.336 105.588 238.307 118.678 245.674 130.618C246.518 132.122 246.057 134.421 244.445 135.306Z" fill="#2ECAC2"/>
<path opacity="0.61" d="M88.2098 146.273C96.8041 155.825 105.399 165.377 113.993 175.018C116.449 177.76 119.672 180.767 122.895 179.617C117.754 172.099 111.998 165.112 105.859 158.655C102.56 155.206 99.0294 151.757 96.8041 147.335C94.5787 142.824 93.9654 136.898 96.5742 132.653C98.416 129.646 101.486 128.053 104.324 126.638C115.452 120.978 126.655 115.406 137.782 109.745C141.772 107.711 145.839 105.677 148.986 102.228C151.672 99.3085 153.666 95.1515 153.59 90.8177C153.59 90.1102 153.59 89.491 152.899 89.2257C152.439 89.0488 152.131 89.3142 151.748 89.5795C151.287 89.8448 150.75 90.1102 150.213 90.3755C149.139 90.9062 148.141 91.4368 147.067 92.056C144.995 93.1173 142.923 94.2671 140.775 95.3284C136.631 97.5395 132.41 99.7507 128.267 101.874C124.122 103.996 119.903 106.208 115.758 108.419C114.53 109.038 113.303 109.657 112.075 110.364C105.168 113.902 98.3388 117.617 91.4329 120.978C88.1335 122.57 82.7616 123.012 80.9967 127.169C77.8505 134.333 84.1429 141.762 88.2098 146.273Z" fill="#AFDADA"/>
<path d="M72.0184 126.196C72.0184 126.196 66.3399 151.315 71.4813 177.848C71.7882 179.529 72.4788 181.032 73.3997 182.359C78.9247 190.142 100.411 219.506 118.905 235.868C120.593 237.372 122.895 237.814 124.967 236.841C142.463 228.792 226.95 189.434 248.82 171.48C248.82 171.48 249.817 168.827 249.817 167.235C249.817 167.235 217.358 190.142 125.888 232.772C123.739 233.834 121.206 233.303 119.442 231.446C111.307 222.867 87.8263 197.748 76.4692 179.882C75.3181 178.113 74.6275 175.991 74.474 173.868C73.7066 164.67 71.8649 138.755 75.5483 134.068L72.0184 126.196Z" fill="#1FA89D"/>
<path opacity="0.81" d="M244.599 135.306C231.861 142.205 180.755 169.534 143.537 187.842C132.487 178.909 129.725 165.997 136.861 158.744C145.609 149.9 179.527 137.606 195.641 133.272C211.756 129.026 212.37 117.086 212.37 104.35C212.37 98.778 213.444 95.9477 215.516 94.7979C226.413 105.412 238.384 118.502 245.75 130.442C246.748 132.122 246.211 134.422 244.599 135.306Z" fill="#00A8B1"/>
<path d="M182.903 70.9175C179.91 75.782 174.923 81.4425 169.704 76.2242C168.936 75.4282 168.246 74.6322 167.786 73.8362C167.479 73.3055 167.172 72.7749 166.942 72.3326C164.639 67.1144 167.018 61.8961 171.009 59.5965C171.392 59.3312 171.853 59.1543 172.237 58.9774C173.234 58.6236 174.231 58.4468 175.306 58.4468C182.749 58.7121 185.896 66.053 182.903 70.9175Z" fill="#8B4412"/>
<path opacity="0.78" d="M182.903 70.9175C179.911 75.782 174.923 81.4425 169.704 76.2242C168.937 75.4282 168.246 74.6322 167.786 73.8362C170.165 74.8091 172.237 73.5709 174.309 71.3598C176.995 68.4411 177.685 67.9104 177.685 63.7535C177.685 60.7464 174.001 60.0388 172.313 59.0659C173.311 58.7121 174.309 58.5352 175.383 58.5352C182.749 58.7121 185.896 66.0531 182.903 70.9175Z" fill="#7F3319"/>
<path d="M195.488 119.474C192.111 127.7 195.411 141.939 195.564 149.811C195.641 152.022 195.488 153.703 194.874 154.587C192.035 158.744 163.949 164.493 156.813 157.86C153.973 155.206 152.669 150.519 152.285 145.035C151.748 136.81 153.513 126.904 155.508 119.828C158.961 108.153 165.714 99.1316 168.399 92.9404C171.086 86.7493 170.395 77.4625 176.304 71.8905C181.522 66.9376 188.121 67.6451 194.874 70.2985C195.718 70.6523 196.486 71.006 197.33 71.3598C197.406 71.3598 197.483 71.4483 197.56 71.4483C206.845 75.6936 205.463 82.4155 204.619 89.5795C203.699 98.6009 199.785 108.949 195.488 119.474Z" fill="#9B5622"/>
<path opacity="0.78" d="M195.488 119.474C192.111 127.7 195.411 141.939 195.564 149.811C195.104 150.43 194.72 150.961 194.26 151.314C188.658 155.825 161.954 161.486 161.723 145.566C161.493 129.645 161.57 121.509 166.942 111.426C172.313 101.343 173.618 100.104 173.311 95.2399C173.003 90.4639 173.311 87.5452 174.155 85.1572C174.999 82.7692 176.534 81.3541 179.22 83.2999C181.905 85.2456 183.977 80.8234 187.047 78.4354C190.116 76.0474 192.802 79.3198 198.096 78.4354C201.934 77.8163 200.859 74.8976 197.406 71.4482C197.483 71.4482 197.559 71.5367 197.637 71.5367C206.921 75.782 205.54 82.5038 204.696 89.6679C203.698 98.6008 199.785 108.949 195.488 119.474Z" fill="#7F3319"/>
<path d="M190.193 127.877C190.193 127.877 193.953 133.802 200.859 132.564L197.713 139.021C197.713 139.021 189.963 138.932 185.818 130.441C181.675 121.862 190.193 127.877 190.193 127.877Z" fill="#FCD295"/>
<path d="M182.443 113.018C182.443 113.018 186.126 113.549 187.123 117.794C188.121 122.039 188.658 123.631 190.423 124.781C192.111 126.019 189.579 130.353 185.742 129.203C185.742 129.115 185.282 117.263 182.443 113.018Z" fill="#E19916"/>
<path d="M195.41 228.969C193.492 229.323 191.42 228.527 189.578 227.377C186.586 225.431 184.13 222.336 183.977 220.744C183.67 218.267 183.439 217.825 182.673 219.859C181.905 221.894 180.217 221.186 179.833 220.39C179.526 219.771 179.066 217.648 178.989 215.083C178.989 214.464 178.989 213.845 179.066 213.138C179.066 213.138 180.524 213.049 183.977 214.287C187.353 215.526 192.648 213.138 192.648 213.138C192.648 213.138 193.416 217.118 195.795 220.567C198.25 224.193 200.552 228.085 195.41 228.969Z" fill="#904006"/>
<path opacity="0.63" d="M195.411 228.969C193.493 229.323 191.421 228.527 189.579 227.377C191.114 227.466 194.414 228.173 195.258 227.466C196.562 226.404 195.258 224.282 192.111 220.036C188.965 215.791 189.119 216.941 186.126 216.764C183.134 216.587 181.905 215.349 180.755 214.464C180.064 213.933 179.526 214.376 179.066 215.172C179.066 214.553 179.066 213.933 179.143 213.226C179.143 213.226 180.601 213.137 184.054 214.376C187.431 215.614 192.726 213.226 192.726 213.226C192.726 213.226 193.493 217.206 195.871 220.655C198.25 224.193 200.553 228.085 195.411 228.969Z" fill="#792415"/>
<path d="M209.608 222.159C206.844 222.601 203.852 220.921 201.627 218.887C199.708 217.118 198.327 215.172 198.174 214.022C197.867 211.546 197.636 211.104 196.869 213.138C196.639 213.757 196.332 214.111 196.025 214.288C195.258 214.818 194.26 214.199 194.029 213.668C193.646 212.872 193.032 209.777 193.339 206.504C193.339 206.504 194.797 206.416 198.25 207.654C201.627 208.892 206.768 205.089 206.768 205.089C206.768 205.089 207.688 210.484 210.067 214.022C212.37 217.383 214.672 221.275 209.608 222.159Z" fill="#904006"/>
<path opacity="0.63" d="M209.608 222.159C206.844 222.601 203.852 220.921 201.627 218.887C202.471 219.064 204.082 219.506 204.85 220.213C205.924 221.186 209.837 220.744 210.067 219.064C210.298 217.383 208.61 216.852 207.151 213.315C205.694 209.777 205.847 208.715 205.847 208.715C205.847 208.715 204.465 209.777 201.857 210.131C199.248 210.484 197.406 208.892 197.406 208.892C197.406 208.892 197.176 211.192 196.485 212.253C195.871 213.226 195.027 213.58 196.025 214.288C195.258 214.818 194.26 214.199 194.029 213.668C193.646 212.872 193.032 209.777 193.339 206.504C193.339 206.504 194.797 206.416 198.25 207.654C201.627 208.892 206.768 205.089 206.768 205.089C206.768 205.089 207.688 210.484 210.067 214.022C212.37 217.383 214.672 221.275 209.608 222.159Z" fill="#792415"/>
<path d="M190.116 214.464C184.744 216.233 179.603 214.464 178.145 212.253C177.608 211.457 177.608 210.484 177.761 209.069C178.068 206.504 178.989 202.524 178.835 195.714C178.605 185.189 178.222 183.597 170.165 180.236C162.951 177.229 161.033 169.181 161.877 163.697C161.954 163.078 162.107 162.459 162.26 161.928C162.26 161.928 164.716 167.323 173.003 168.031C181.291 168.65 183.977 166.616 183.977 166.616C200.705 179.175 195.104 201.463 196.178 206.77C197.252 212.253 195.564 212.784 190.116 214.464Z" fill="#572409"/>
<path d="M196.178 206.858C196.178 206.858 195.334 203.674 195.795 198.987C196.102 195.891 196.255 187.4 192.802 178.91C191.728 176.345 190.346 173.78 188.582 171.392C187.277 169.711 185.742 168.119 183.978 166.616C183.978 166.616 190.116 164.139 193.646 158.656C193.646 158.656 204.236 165.908 205.387 178.114C205.847 183.509 206.077 187.931 206.231 191.646C206.461 196.333 206.614 199.871 207.459 202.613C209.07 207.654 198.48 210.042 196.178 206.858Z" fill="#572409"/>
<path d="M196.178 206.858C196.178 206.858 195.334 203.674 195.795 198.986C196.102 195.891 196.255 187.4 192.802 178.909C192.879 178.202 192.955 177.848 192.955 177.848C192.955 177.848 198.174 186.604 197.637 191.38C197.099 196.156 197.33 203.408 199.631 202.524C201.934 201.64 203.852 201.993 204.159 194.299C204.159 193.503 204.159 192.707 204.159 191.734C203.775 183.508 200.629 170.595 198.48 167.677C196.102 164.493 192.572 165.908 190.423 168.65C189.349 169.976 189.042 170.861 188.582 171.303C187.277 169.622 185.742 168.03 183.978 166.527C183.978 166.527 190.116 164.05 193.646 158.567C193.646 158.567 204.236 165.819 205.387 178.025C205.847 183.42 206.077 187.842 206.231 191.557C206.461 196.244 206.614 199.782 207.459 202.524C209.07 207.654 198.48 210.042 196.178 206.858Z" fill="#401703"/>
<path d="M188.581 164.935C184.591 167.765 174.232 170.861 167.249 167.235C166.098 166.615 165.177 166.085 164.409 165.466C160.803 162.635 162.03 160.071 163.028 154.764C163.565 151.934 163.028 148.396 162.568 144.239C161.954 139.021 161.34 133.006 162.568 126.727C164.409 117.617 168.86 113.195 170.548 111.78C170.932 111.426 171.239 111.249 171.239 111.249C171.239 111.249 175.997 107.976 181.752 112.399C186.049 115.671 185.972 123.189 185.972 129.557C185.972 131.68 185.972 133.714 186.126 135.483C186.816 142.205 189.425 150.43 193.033 154.41C196.639 158.302 192.572 162.105 188.581 164.935Z" fill="#FCD323"/>
<path d="M188.582 164.935C184.591 167.765 174.232 170.861 167.249 167.234C166.098 166.615 165.177 166.085 164.409 165.466C169.628 166.615 178.452 168.119 181.522 166.792C185.972 164.758 191.344 159.805 190.423 157.24C189.502 154.675 185.742 151.58 180.218 153.702C174.692 155.914 168.63 152.553 165.483 149.545C163.412 147.6 162.798 145.654 162.568 144.327C162.491 143.62 162.491 143.001 162.568 142.558C162.645 141.409 166.251 143.62 170.011 146.627C173.771 149.634 183.133 147.953 184.13 146.008C185.128 144.15 183.593 135.66 184.361 131.326C184.437 130.795 184.515 130.264 184.515 129.645C184.515 125.4 182.366 120.27 182.366 120.27C182.366 120.27 182.366 121.332 181.445 121.332C180.524 121.332 178.376 120.27 178.376 120.27C178.376 120.27 175.383 120.182 174.155 118.767C173.004 117.351 172.927 115.848 172.927 115.848C172.927 115.848 170.241 115.317 170.472 111.868C170.855 111.514 171.163 111.337 171.163 111.337C171.163 111.337 175.92 108.065 181.675 112.487C185.972 115.759 185.896 123.277 185.896 129.645C185.896 131.768 185.896 133.802 186.049 135.571C186.74 142.293 189.349 150.518 192.955 154.498C196.639 158.302 192.572 162.105 188.582 164.935Z" fill="#F5AA1C"/>
<path opacity="0.59" d="M179.91 114.345C179.91 114.345 181.214 120.89 179.143 128.673C177.071 136.367 177.685 153.791 180.677 159.009C183.67 164.228 184.898 164.139 184.668 166.704" stroke="#D66713" stroke-width="0.4282" stroke-miterlimit="10" stroke-linecap="round" stroke-linejoin="round"/>
<path d="M182.136 111.779C182.136 111.779 185.282 113.46 185.128 111.337C184.974 109.214 183.978 108.595 182.673 109.391L182.136 111.779Z" fill="#572409"/>
<path d="M179.527 113.902C179.527 113.902 180.524 119.209 183.978 116.644C187.43 113.991 183.517 111.249 181.752 111.337C181.752 111.337 180.908 113.725 179.527 113.902Z" fill="#572409"/>
<path d="M176.457 113.106C176.457 113.106 172.927 115.76 175.382 118.59C177.838 121.42 182.595 117.705 179.91 114.256C179.91 114.345 177.838 115.229 176.457 113.106Z" fill="#572409"/>
<path d="M175.843 110.364C175.843 110.364 173.54 108.419 172.083 109.922C170.625 111.426 171.392 117.794 176.457 113.371C176.457 113.371 175.536 111.603 175.843 110.364Z" fill="#572409"/>
<path d="M177.301 107.888C177.301 107.888 177.685 106.385 175.69 106.296C173.694 106.208 171.546 109.392 175.767 110.453C175.843 110.365 176.227 109.303 177.301 107.888Z" fill="#572409"/>
<path d="M185.896 131.237L193.416 151.668L214.825 142.116L206.844 122.481L185.896 131.237Z" fill="#572409"/>
<path d="M212.063 141.409L210.068 142.293L206.844 143.708L203.392 145.3L197.253 147.953L194.951 148.926L193.877 146.008L190.96 137.959L188.888 132.387L192.955 130.707L197.56 128.761L200.553 127.523L203.622 126.196L206.231 125.135L206.998 127.257L208.993 132.829L212.063 141.409Z" fill="#FCF4C2"/>
<path d="M199.478 134.333L200.782 137.871L207.842 134.775L206.461 131.414L199.478 134.333Z" fill="#E19916"/>
<path d="M201.166 138.755L208.456 135.483L210.221 139.994L202.932 143.178L201.166 138.755Z" fill="#E19916"/>
<path d="M193.032 136.986L198.096 134.864L201.243 143.974L196.562 145.919L193.032 136.986Z" fill="#E19916"/>
<path d="M183.287 121.154C183.287 121.685 182.903 122.216 182.366 122.216C181.905 122.216 181.445 121.774 181.445 121.154C181.445 120.624 181.829 120.093 182.366 120.093C182.903 120.182 183.287 120.624 183.287 121.154Z" fill="#9B5622"/>
<path d="M181.522 128.407C182.03 128.407 182.443 127.932 182.443 127.346C182.443 126.76 182.03 126.285 181.522 126.285C181.013 126.285 180.601 126.76 180.601 127.346C180.601 127.932 181.013 128.407 181.522 128.407Z" fill="#9B5622"/>
<path d="M180.217 134.775C180.726 134.775 181.138 134.3 181.138 133.714C181.138 133.128 180.726 132.653 180.217 132.653C179.708 132.653 179.296 133.128 179.296 133.714C179.296 134.3 179.708 134.775 180.217 134.775Z" fill="#9B5622"/>
<path d="M179.833 140.524C180.342 140.524 180.754 140.049 180.754 139.463C180.754 138.877 180.342 138.402 179.833 138.402C179.325 138.402 178.913 138.877 178.913 139.463C178.913 140.049 179.325 140.524 179.833 140.524Z" fill="#9B5622"/>
<path d="M186.049 164.493C186.558 164.493 186.97 164.018 186.97 163.431C186.97 162.845 186.558 162.37 186.049 162.37C185.54 162.37 185.128 162.845 185.128 163.431C185.128 164.018 185.54 164.493 186.049 164.493Z" fill="#9B5622"/>
<path d="M183.287 159.805C183.796 159.805 184.208 159.33 184.208 158.744C184.208 158.158 183.796 157.683 183.287 157.683C182.778 157.683 182.366 158.158 182.366 158.744C182.366 159.33 182.778 159.805 183.287 159.805Z" fill="#9B5622"/>
<path d="M181.138 154.675C181.646 154.675 182.058 154.2 182.058 153.614C182.058 153.028 181.646 152.553 181.138 152.553C180.629 152.553 180.217 153.028 180.217 153.614C180.217 154.2 180.629 154.675 181.138 154.675Z" fill="#9B5622"/>
<path opacity="0.25" d="M197.56 128.761L193.876 146.008L190.96 137.959L192.955 130.707L197.56 128.761Z" fill="#C4E5EC"/>
<path opacity="0.25" d="M203.622 126.196L203.391 145.3L197.252 147.954L200.553 127.523L203.622 126.196Z" fill="#C4E5EC"/>
<path opacity="0.25" d="M210.067 142.293L206.768 143.708L206.922 127.258L208.917 132.83C209.377 136.456 209.914 140.524 210.067 142.293Z" fill="#C4E5EC"/>
<path d="M210.682 136.191C208.073 137.606 203.545 134.333 205.156 132.653C205.233 132.564 205.387 132.476 205.54 132.387C207.996 130.884 209.53 129.557 209.684 129.38C209.684 129.38 209.684 129.38 209.684 129.292L208.916 127.346C209.76 127.258 210.451 127.611 210.912 128.054C211.141 128.319 211.372 128.584 211.526 128.938C212.139 130.088 212.524 131.503 212.676 132.387C212.983 133.979 213.368 134.687 210.682 136.191Z" fill="#FCD295"/>
<path d="M209.914 128.407C209.53 128.85 209.608 129.115 209.684 129.292L208.917 127.346C209.76 127.258 210.452 127.611 210.912 128.054C210.452 128.054 210.067 128.142 209.914 128.407Z" fill="#E9A17F"/>
<path d="M194.26 140.436C194.107 142.116 193.416 144.504 192.572 145.123C191.113 146.185 182.443 151.315 170.241 148.573C164.793 147.335 162.261 144.15 161.186 141.055C160.342 138.667 160.342 136.279 160.419 134.864C160.496 133.979 160.573 133.449 160.496 133.449L167.249 134.598C167.249 134.775 167.325 134.864 167.325 135.041C168.86 143.797 178.452 142.028 182.366 141.409C186.279 140.79 186.126 139.198 186.74 137.871C187.353 136.544 187.277 135.571 187.738 135.571C187.968 135.571 188.275 135.66 188.505 136.014C188.735 136.367 188.812 136.986 188.505 137.871C188.275 138.667 187.738 140.259 189.042 140.613C189.272 140.701 189.502 140.701 189.81 140.613C191.191 140.436 192.955 139.374 192.955 139.374C193.646 138.578 193.953 138.755 194.107 139.374C194.337 139.64 194.337 140.082 194.26 140.436Z" fill="#FCD295"/>
<path d="M167.479 135.041C165.944 135.394 163.412 135.925 162.108 135.394C161.11 134.952 160.726 134.864 160.496 134.952C160.573 134.068 160.649 133.537 160.573 133.537L167.325 134.687C167.402 134.687 167.402 134.864 167.479 135.041Z" fill="#E9A17F"/>
<path d="M165.1 134.775C158.5 133.626 156.428 130.707 157.887 128.054C159.422 125.312 160.342 124.339 160.803 120.624C161.263 116.91 163.949 114.079 167.786 114.433H167.862C171.546 114.875 173.848 119.209 173.004 121.951C172.159 124.781 171.315 126.462 173.004 129.646C174.769 133.095 171.7 136.014 165.1 134.775Z" fill="#E19916"/>
<path d="M165.1 134.775C165.1 134.422 168.093 134.51 168.707 134.598C169.321 134.687 171.546 132.299 170.778 129.999C170.011 127.7 167.172 125.4 167.709 121.597C168.17 118.413 168.553 116.025 167.94 114.433C171.623 114.875 173.925 119.209 173.081 121.951C172.237 124.781 171.393 126.462 173.081 129.646C174.769 133.095 171.7 136.014 165.1 134.775Z" fill="#C88621"/>
<path d="M203.545 94.2671C202.547 96.3013 202.317 99.1316 201.703 101.962C201.396 103.466 200.936 105.058 200.246 106.473C199.555 107.8 198.634 109.038 197.33 110.011C191.881 113.902 185.359 113.195 179.91 107.711C179.22 107.004 178.683 106.296 178.222 105.5C175.997 101.697 176.073 97.0973 176.073 97.0973C172.544 94.6209 172.697 87.6337 176.073 86.3955C177.915 85.6879 178.913 87.1915 179.373 88.7835C179.757 90.0217 179.833 91.3484 179.833 91.3484C179.833 95.4169 181.751 92.9404 181.751 92.9404C181.829 90.9062 182.289 89.1373 182.826 87.7222C184.898 82.8577 189.349 81.7079 193.416 83.3884C196.715 84.8035 198.864 83.2999 201.32 81.1772C203.622 83.6537 205.156 90.8177 203.545 94.2671Z" fill="#FCD295"/>
<path opacity="0.51" d="M175.383 88.8721C174.001 91.437 175.997 96.6553 176.073 96.9206C172.544 94.4441 172.697 87.457 176.073 86.2187C177.915 85.5112 178.913 87.0147 179.373 88.6068C179.143 88.4299 176.764 86.3956 175.383 88.8721Z" fill="#FFEFD0"/>
<path opacity="0.69" d="M203.545 94.2673C202.547 96.3015 202.317 99.1317 201.703 101.962C201.396 103.466 200.936 105.058 200.246 106.473C199.555 107.8 198.634 109.038 197.33 110.011C191.881 113.902 185.359 113.195 179.91 107.711C179.22 107.004 178.683 106.296 178.222 105.5C178.222 105.5 182.212 111.426 188.351 111.426C194.414 111.426 197.943 107.8 200.553 101.52C203.162 95.2402 202.547 88.4299 201.703 86.0419C200.859 83.6539 199.631 85.9534 194.49 86.0419C189.349 86.1303 189.119 82.681 185.972 85.2459C185.972 85.2459 184.361 86.4841 182.903 87.6339C184.975 82.7694 189.425 81.6196 193.492 83.3001C196.793 84.7152 198.941 83.2116 201.396 81.0889C203.621 83.6539 205.156 90.8179 203.545 94.2673Z" fill="#E9A17F"/>
<path d="M188.275 94.3557C188.275 94.8864 187.89 95.3286 187.431 95.3286C186.97 95.3286 186.586 94.8864 186.586 94.3557C186.586 93.825 186.97 93.3828 187.431 93.3828C187.89 93.3828 188.275 93.825 188.275 94.3557Z" fill="#9B5622"/>
<path d="M199.478 98.2471C199.945 98.2471 200.322 97.8116 200.322 97.2743C200.322 96.7369 199.945 96.3013 199.478 96.3013C199.012 96.3013 198.634 96.7369 198.634 97.2743C198.634 97.8116 199.012 98.2471 199.478 98.2471Z" fill="#9B5622"/>
<path d="M176.687 94.3557C176.687 94.8864 176.304 95.417 175.843 95.417C175.767 95.417 175.613 95.417 175.536 95.3286C175.382 95.2401 175.229 95.1517 175.153 94.9748C174.999 94.7979 174.999 94.621 174.999 94.3557C174.999 93.825 175.382 93.3828 175.843 93.3828C175.843 93.3828 175.843 93.3828 175.92 93.3828C176.304 93.3828 176.687 93.825 176.687 94.3557Z" fill="#52131C"/>
<path d="M173.464 101.962C173.234 101.785 173.003 101.608 172.927 101.431C171.853 99.4852 175.152 95.063 175.152 95.063C175.152 95.063 175.152 95.063 175.536 95.2399C175.613 95.2399 175.766 95.3283 175.843 95.4167C175.843 95.4167 175.919 103.377 173.464 101.962Z" fill="#52131C"/>
<path d="M205.463 96.2129L203.545 94.2671" stroke="#1C1C1B" stroke-width="0.8565" stroke-miterlimit="10"/>
<path d="M189.579 97.8934C189.425 97.8934 189.349 97.8934 189.195 97.8934L183.21 96.6552C182.136 96.3898 181.368 95.3285 181.445 94.0903L181.522 92.3214C181.599 91.6138 181.829 90.9947 182.366 90.5525C182.826 90.1102 183.44 89.9334 184.054 90.1102L190.269 91.3485C190.884 91.4369 191.344 91.8791 191.651 92.4098C191.958 92.9405 192.111 93.648 191.958 94.3556L191.574 96.1245C191.344 97.1858 190.5 97.8934 189.579 97.8934ZM183.671 90.9062C183.364 90.9062 183.056 90.9947 182.826 91.26C182.519 91.5254 182.366 91.9676 182.289 92.4098L182.212 94.1787C182.136 94.9747 182.673 95.6823 183.287 95.8592L189.273 97.0974C189.963 97.2743 190.654 96.7436 190.807 95.9476L191.191 94.1787C191.267 93.7365 191.191 93.2943 191.037 92.9405C190.807 92.5867 190.5 92.3214 190.117 92.2329L183.901 90.9947C183.824 90.9947 183.747 90.9062 183.671 90.9062Z" fill="#572409"/>
<path d="M203.621 101.432C203.469 101.432 203.391 101.432 203.238 101.432L197.252 100.194C196.178 99.928 195.411 98.8666 195.488 97.6284L195.641 95.8596C195.718 95.152 195.948 94.5329 196.485 94.0907C196.945 93.6484 197.56 93.4715 198.174 93.6484L204.389 94.8867C205.003 94.9751 205.463 95.4173 205.77 95.948C206.077 96.4787 206.231 97.1862 206.077 97.8938L205.694 99.6627C205.387 100.636 204.543 101.432 203.621 101.432ZM197.713 94.4444C197.406 94.4444 197.099 94.5328 196.869 94.7981C196.562 95.0635 196.408 95.5058 196.332 95.948L196.255 97.7169C196.178 98.5129 196.715 99.2205 197.406 99.3974L203.391 100.636C204.082 100.813 204.773 100.282 204.926 99.4857L205.31 97.7169C205.387 97.2747 205.31 96.8325 205.156 96.4787C204.926 96.1249 204.619 95.8596 204.236 95.7711L198.02 94.5329C197.867 94.4444 197.789 94.4444 197.713 94.4444Z" fill="#572409"/>
<path d="M179.259 87.3103L178.755 87.9776L182.23 91.4604L182.733 90.7931L179.259 87.3103Z" fill="#572409"/>
<path d="M196.102 95.1517C194.26 93.029 192.111 94.1788 192.035 94.1788L191.881 93.825C191.881 93.825 194.337 92.4983 196.408 94.8863L196.102 95.1517Z" fill="#572409"/>
<path d="M195.41 106.65C194.873 107.092 194.26 107.446 193.646 107.623C191.804 108.154 189.656 107.623 188.044 106.473C187.737 106.208 187.353 105.942 187.123 105.677C186.586 105.146 186.049 104.439 185.896 103.643C185.818 103.201 185.818 102.758 185.972 102.493C186.355 101.52 187.66 101.52 188.582 102.051C190.116 102.935 191.574 103.82 193.338 103.554C194.106 103.466 195.258 103.377 195.871 104.173C195.948 104.262 196.025 104.35 196.025 104.439C196.485 105.323 196.025 106.208 195.41 106.65Z" fill="#902C14"/>
<path d="M195.948 104.173C195.948 105.677 193.416 105.235 193.416 105.235C188.505 104.969 186.509 103.112 186.049 102.581C186.433 101.609 187.738 101.609 188.658 102.139C190.193 103.024 191.651 103.908 193.416 103.643C194.183 103.466 195.334 103.466 195.948 104.173Z" fill="white"/>
<path d="M193.723 107.623C191.881 108.153 189.732 107.623 188.121 106.473C187.814 106.207 187.43 105.942 187.2 105.677C187.2 105.677 190.117 105.235 190.96 106.473C190.96 106.561 192.725 105.854 193.723 107.623Z" fill="#F06D80"/>
<path d="M187.124 89.4027C189.119 89.4912 191.113 91.437 191.881 90.1988C192.725 88.9605 191.651 87.1916 188.275 86.7494C184.898 86.2187 184.284 87.8107 184.361 88.6952C184.437 89.6681 185.435 89.3143 187.124 89.4027Z" fill="#8B4412"/>
<path d="M200.168 92.4101C202.164 92.4985 204.159 94.4443 204.926 93.2061C205.77 91.9678 204.696 90.1989 201.32 89.7567C197.943 89.2261 197.33 90.8181 197.406 91.7025C197.406 92.6754 198.404 92.3216 200.168 92.4101Z" fill="#8B4412"/>
<path d="M184.284 86.1299C183.9 86.7491 183.056 86.7491 182.673 86.1299C181.829 84.8033 180.601 82.5922 180.294 80.5579C179.833 77.9046 183.133 82.9459 184.361 84.8033C184.591 85.1571 184.591 85.7762 184.284 86.1299Z" fill="#52131C"/>
<path d="M182.595 109.922C182.058 112.841 180.984 114.433 178.835 114.433C176.917 114.521 175.919 113.106 175.766 111.603C175.613 110.541 175.919 109.48 176.534 108.861C177.992 107.357 178.222 105.323 178.222 105.323C179.987 107.711 182.595 109.922 182.595 109.922Z" fill="#EDB97C"/>
<path opacity="0.71" d="M182.595 109.922C182.058 112.841 180.984 114.433 178.835 114.433C176.917 114.521 175.919 113.106 175.767 111.603C176.38 112.576 177.378 113.46 178.989 112.929C180.677 112.31 181.061 110.276 180.677 109.303C180.294 108.33 179.833 107.534 178.222 105.323C179.987 107.711 182.595 109.922 182.595 109.922Z" fill="#E79566"/>
<path d="M193.799 101.785C195.948 102.316 197.099 99.7506 196.178 98.5124C195.258 97.2742 194.49 99.4853 193.57 98.5124C192.725 97.5395 194.414 94.3555 194.414 94.3555C194.414 94.3555 194.567 93.5595 193.646 94.1786C192.725 94.7977 190.73 101.166 193.799 101.608" fill="#FCD295"/>
<path d="M194.49 94.3555C194.49 94.3555 192.802 97.5396 193.646 98.5125C194.49 99.4854 195.258 97.2742 196.255 98.5125C197.176 99.7507 196.025 102.227 193.876 101.785" stroke="#E08660" stroke-width="0.4282" stroke-miterlimit="10" stroke-linecap="round" stroke-linejoin="round"/>
<path d="M191.19 133.449L205.617 127.08L206.077 128.672L191.727 135.306L191.19 133.449Z" fill="#E19916"/>
<path opacity="0.69" d="M177.608 93.3827C178.145 91.7907 177.531 89.2258 176.61 89.4027C175.689 89.5796 175.382 91.2601 175.536 91.3485C175.689 91.5254 175.996 91.1716 176.457 90.9063C176.917 90.6409 177.608 91.2601 177.378 92.1445C177.148 93.029 177.454 93.9134 177.608 93.3827Z" fill="#E9A17F"/>
<path opacity="0.69" d="M194.951 70.2985C194.951 70.2985 183.44 68.2643 177.915 74.8976C172.39 81.6195 173.541 88.3413 170.241 95.24C166.942 102.051 159.882 107.888 156.736 121.155C154.894 128.761 152.362 137.34 152.285 144.947C151.748 136.721 153.513 126.815 155.508 119.74C158.961 108.065 165.714 99.0431 168.399 92.852C171.086 86.6608 170.395 77.3741 176.304 71.8021C181.599 66.9376 188.121 67.6451 194.951 70.2985Z" fill="#BE7948"/>
<path opacity="0.69" d="M169.551 71.3599C168.706 71.8021 167.786 72.1559 166.942 72.3328C164.639 67.1145 167.018 61.8962 171.009 59.5967C171.622 60.1273 172.159 60.5696 172.159 60.5696C172.927 61.9847 174.462 68.7065 169.551 71.3599Z" fill="#BE7948"/>
<path opacity="0.69" d="M194.26 139.374C194.029 139.463 193.723 139.55 193.492 139.639C192.725 139.904 191.42 140.966 190.423 140.79C190.269 140.79 190.116 140.701 189.963 140.613C191.344 140.436 193.109 139.374 193.109 139.374C193.799 138.578 194.183 138.755 194.26 139.374Z" fill="#E9A17F"/>
<path d="M194.26 140.436C194.106 142.116 193.416 144.504 192.572 145.123C191.113 146.185 182.443 151.315 170.241 148.573C164.793 147.335 162.26 144.151 161.186 141.055C161.877 142.205 163.028 143.62 165.023 144.947C169.013 147.512 177.148 148.75 181.905 147.688C186.74 146.627 187.507 146.185 188.812 146.362C190.115 146.539 191.65 145.477 192.188 145.123C192.725 144.77 192.572 144.77 192.264 144.858L191.267 144.947C191.42 144.947 191.727 144.858 191.957 144.77C192.264 144.681 192.802 144.504 192.879 144.239C192.879 143.974 193.262 143.355 193.032 143.443C192.725 143.531 191.42 143.531 191.42 143.531C191.42 143.531 191.881 143.531 192.418 143.355C192.955 143.178 193.492 142.824 193.646 142.47C193.799 142.116 193.876 141.232 193.876 141.232C193.876 141.232 193.569 141.409 193.109 141.674C192.648 141.939 191.267 142.028 191.267 142.028C191.267 142.028 192.572 141.586 193.032 141.32C193.492 141.32 194.029 140.878 194.26 140.436Z" fill="#E9A17F"/>
<path d="M210.682 136.19C208.073 137.605 203.545 134.333 205.156 132.653C205.003 133.36 205.233 133.714 205.54 133.891C205.924 134.156 207.075 133.272 207.766 132.741C208.303 132.299 208.763 131.856 208.916 131.768C208.686 132.033 206.998 133.891 206.614 134.156C206.307 134.421 206.385 134.952 206.691 135.306C206.922 135.571 207.459 135.394 207.766 135.129C208.073 134.864 209.838 133.095 210.067 132.829C209.838 133.095 207.996 135.217 207.919 135.571C207.842 135.925 208.149 136.367 208.61 136.279C208.916 136.19 209.76 135.394 210.221 134.952C209.991 135.217 209.608 135.748 209.684 136.013C209.838 136.456 210.989 135.66 211.602 135.217C212.216 134.687 212.6 134.333 212.753 133.449C212.907 132.564 212.293 131.326 211.986 130.353C211.833 129.911 211.679 129.38 211.602 129.026C212.216 130.176 212.6 131.591 212.753 132.476C212.983 133.979 213.368 134.687 210.682 136.19Z" fill="#E9A17F"/>
<path d="M190.117 214.464C184.745 216.233 179.603 214.464 178.145 212.253C177.608 211.457 177.608 210.484 177.761 209.069C178.376 208.892 179.066 208.981 179.527 209.865C181.062 212.43 189.502 213.492 190.96 211.811C192.342 210.131 189.656 210.219 190.96 208.716C192.265 207.212 193.109 202.79 193.416 193.503C193.723 184.216 190.117 175.372 188.351 173.691C186.586 172.099 183.593 171.834 178.835 171.569C174.155 171.303 165.868 170.419 161.954 163.785C162.03 163.166 162.184 162.547 162.338 162.016C162.338 162.016 164.793 167.412 173.081 168.119C181.368 168.738 184.054 166.704 184.054 166.704C200.783 179.263 195.181 201.551 196.255 206.858C197.252 212.253 195.564 212.784 190.117 214.464Z" fill="#401703"/>
<path d="M177.225 173.514C174.462 172.453 172.698 175.195 173.694 176.875C174.692 178.556 179.833 182.093 181.138 186.693C182.443 191.292 180.908 201.994 181.138 204.735C181.368 207.477 183.593 209.158 185.665 205.885C187.738 202.613 186.587 187.665 185.665 183.597C184.745 179.529 180.601 174.841 177.225 173.514Z" fill="#6B3921"/>
<path d="M193.185 171.48C192.879 172.718 192.879 174.133 193.262 175.372C193.799 177.494 195.258 179.175 196.255 181.032C197.56 183.597 198.174 186.516 198.327 189.434C198.404 190.142 198.404 190.938 198.634 191.645C198.864 192.353 199.478 192.884 200.092 192.884C200.629 192.884 201.013 192.441 201.32 191.911C201.55 191.38 201.627 190.761 201.703 190.23C202.394 183.862 200.705 177.317 197.713 171.922C196.562 169.976 193.953 168.296 193.185 171.48Z" fill="#6B3921"/>
<path opacity="0.69" d="M186.433 218.798C186.126 219.152 186.049 219.594 186.049 220.125C185.972 221.363 186.433 222.601 187.124 223.574C187.814 224.547 188.735 225.254 189.656 225.873C190.039 226.139 190.5 226.493 190.96 226.581C191.421 226.669 191.958 226.581 192.342 226.227C192.802 225.785 192.879 224.989 192.648 224.281C192.418 223.662 191.958 223.132 191.498 222.689C191.037 222.247 190.5 221.893 190.039 221.451C189.273 220.655 187.661 217.206 186.433 218.798Z" fill="#A4612C"/>
<path opacity="0.69" d="M200.629 212.607C200.322 213.403 200.399 214.464 200.782 215.26C201.166 216.056 201.703 216.764 202.317 217.295C203.008 217.914 203.698 218.444 204.465 218.798C204.85 218.975 205.233 219.064 205.617 219.064C206 219.064 206.384 218.798 206.538 218.444C206.844 217.825 206.538 216.941 206 216.41C205.54 215.88 204.926 215.526 204.465 214.995C203.775 214.022 203.775 212.607 202.931 211.723C202.24 210.838 200.936 211.723 200.629 212.607Z" fill="#A4612C"/>
<path opacity="0.51" d="M176.841 98.5125C177.071 100.459 177.378 102.316 178.298 103.996C179.142 105.5 180.37 106.561 181.521 107.623C181.751 107.888 182.058 108.065 182.366 108.153C182.673 108.242 183.056 108.065 183.133 107.623C183.21 107.181 182.903 106.827 182.673 106.561C181.445 105.323 180.064 104.35 179.066 102.847C177.915 101.078 178.068 99.5738 178.145 97.5396C178.145 97.0089 178.222 96.3898 177.608 96.3014C176.764 96.2129 176.764 97.8049 176.841 98.5125Z" fill="#FFEFD0"/>
<path d="M175.843 95.417C175.843 95.417 175.997 103.377 173.464 101.962C173.234 101.785 173.004 101.609 172.927 101.432C173.464 101.255 174.079 100.813 174.538 99.8392C175.383 97.9819 175.536 95.9476 175.536 95.417V95.3285V95.2401C175.536 95.2401 175.997 94.3556 175.843 93.4712C175.843 93.4712 175.843 93.4712 175.92 93.4712C176.38 93.4712 176.764 93.9134 176.764 94.4441C176.687 94.9747 176.304 95.417 175.843 95.417Z" fill="#390A10"/>
<path opacity="0.51" d="M166.098 138.755C166.174 139.198 166.405 139.551 166.635 139.905C168.247 142.028 170.548 143.266 172.927 143.885C175.306 144.504 177.761 144.504 180.217 144.504C181.599 144.504 183.056 144.504 184.361 143.885C184.591 143.797 184.898 143.531 184.898 143.178C184.898 142.647 184.284 142.559 183.9 142.647C180.831 143.001 177.761 143.001 174.692 142.735C173.234 142.559 171.7 142.293 170.318 141.674C169.321 141.143 167.939 140.259 167.402 139.021C167.249 138.579 167.402 137.959 166.942 137.694C166.405 137.34 166.021 138.136 166.098 138.755Z" fill="#FFEFD0"/>
<path d="M251.505 215.437C251.428 215.791 251.275 216.056 251.122 216.056C250.891 216.145 250.584 216.233 250.201 216.322C249.51 216.498 248.512 216.675 247.592 216.852C247.362 216.941 247.131 216.941 246.901 217.029C245.366 217.471 246.211 216.852 245.137 216.056C244.062 215.26 245.289 215.083 244.369 213.491C243.525 211.899 244.906 212.253 244.522 210.75C244.139 209.246 244.292 208.715 246.671 208.008C249.049 207.3 251.813 208.892 251.813 209.069C251.813 209.246 251.813 209.511 251.813 209.688C251.813 212.076 251.813 214.376 251.505 215.437Z" fill="#FCD295"/>
<path opacity="0.64" d="M252.657 210.219C252.35 210.219 252.043 210.219 251.736 210.13C251.736 209.954 251.736 209.865 251.736 209.688C251.659 209.865 251.659 209.954 251.582 210.042C250.815 209.865 250.047 209.511 249.357 209.246C248.359 208.892 246.365 208.715 245.828 208.981C245.52 209.158 245.213 209.069 245.137 209.246C245.06 209.246 245.06 209.246 244.983 209.334C244.906 209.777 245.137 210.042 245.367 210.838C245.52 211.634 245.674 211.28 245.29 212.253C244.906 213.226 244.83 213.226 245.137 214.022C245.52 214.818 245.597 215.614 246.518 216.145C246.902 216.322 247.209 216.587 247.592 216.852C248.053 217.118 248.666 217.206 249.588 216.675C249.818 216.587 249.971 216.41 250.125 216.322C250.738 215.968 251.122 215.791 251.429 215.437C251.582 214.906 251.659 214.199 251.659 213.314C252.504 213.138 253.348 212.607 253.501 212.076C253.731 211.457 252.657 210.219 252.657 210.219Z" fill="#F5A870"/>
<path d="M272.378 217.383C272.378 217.383 268.464 221.097 263.399 220.39C258.335 219.682 256.877 219.859 253.194 217.913C250.738 216.587 250.584 215.26 250.815 213.491C250.815 213.314 250.891 213.137 250.891 212.96C250.968 212.253 251.121 211.545 251.198 210.749C251.275 209.776 251.505 209.069 251.965 208.627C252.963 207.565 254.651 207.477 256.723 207.477C260.1 207.565 260.483 208.184 264.243 207.654C268.003 207.123 268.618 210.396 268.694 208.45C268.771 206.504 268.925 204.735 269.538 200.578C270.152 196.333 268.694 195.714 269.538 188.373C269.615 187.665 269.769 187.046 269.922 186.427C271.38 180.324 275.984 176.875 275.984 176.875C268.771 188.019 272.378 217.383 272.378 217.383Z" fill="#D6670C"/>
<path opacity="0.49" d="M272.378 217.383C272.378 217.383 268.464 221.098 263.399 220.39C258.335 219.682 256.877 219.859 253.194 217.914C250.738 216.587 250.584 215.26 250.815 213.491C250.815 213.314 250.891 213.226 250.891 213.049V212.961C250.968 212.253 251.121 211.545 251.198 210.749C251.275 209.777 251.505 209.069 251.965 208.627C252.503 209.6 253.194 211.634 253.884 212.341C254.805 213.314 256.186 214.11 258.718 212.607C261.251 211.192 268.618 214.995 269.462 214.11C270.306 213.226 270.382 213.314 269.922 209.511C269.462 205.708 270.382 202.878 270.536 199.075C270.689 195.272 269.922 190.496 270.536 188.638C270.919 187.488 270.689 186.25 269.922 186.25C271.38 180.147 275.984 176.698 275.984 176.698C268.771 188.019 272.378 217.383 272.378 217.383Z" fill="#C94E19"/>
<path d="M296.934 221.628C295.015 223.22 292.022 224.016 288.799 224.193C281.663 224.635 273.452 222.247 272.915 219.682C272.608 218.179 272.301 216.675 272.071 214.641C272.071 214.553 272.071 214.553 272.071 214.464C271.687 211.634 271.38 207.477 270.843 200.401C270.229 192.265 271.764 185.985 272.992 182.624C273.605 180.767 274.142 179.794 274.142 179.794C275.831 177.14 278.9 174.664 282.43 174.664C285.116 174.664 288.032 176.079 290.795 179.794C293.404 183.243 294.862 190.496 295.782 198.102C297.01 209.6 296.934 221.628 296.934 221.628Z" fill="#FD8303"/>
<path opacity="0.57" d="M295.859 185.188C295.092 188.283 295.399 192.617 295.629 198.189C295.782 201.992 295.782 206.238 295.399 211.191C294.631 219.947 292.636 222.158 288.799 224.369C281.662 224.811 273.452 222.424 272.915 219.859C272.531 218.267 272.301 216.764 271.994 214.64C272.992 214.817 273.989 214.728 274.527 213.667C275.754 211.367 280.896 210.395 279.361 210.66C277.826 210.925 272.454 209.952 272.378 207.918C272.301 205.972 282.507 207.741 282.967 202.081C283.428 196.42 282.123 192.971 282.814 190.76C283.582 188.549 280.588 187.045 277.98 188.195C275.371 189.345 273.375 190.141 273.375 190.141C273.375 190.141 271.687 187.045 272.915 182.711C273.529 180.854 274.066 179.881 274.066 179.881C275.754 177.228 278.824 174.751 282.353 174.751V174.397C286.267 174.309 290.871 175.725 294.938 176.079C300.003 176.521 297.163 179.969 295.859 185.188Z" fill="#EC6B10"/>
<path d="M277.903 174.753C277.903 174.753 275.677 174.664 276.138 177.583C276.599 180.59 285.807 180.59 287.265 177.583C288.723 174.576 283.505 172.984 277.903 174.753Z" stroke="#1C1C1B" stroke-width="0.3083" stroke-miterlimit="10"/>
<path d="M275.064 184.393C275.064 185.896 282.123 180.059 290.027 181.032C297.931 182.005 297.931 177.671 295.322 175.902C292.713 174.133 288.416 173.337 281.74 173.337C275.064 173.249 275.218 178.113 275.064 184.393Z" stroke="#1C1C1B" stroke-width="0.3083" stroke-miterlimit="10"/>
<path d="M297.624 194.741C296.473 195.271 296.243 187.223 294.938 184.658C293.634 182.093 292.943 181.828 286.037 182.535C283.734 182.801 281.816 183.243 280.205 183.774H280.128C278.747 184.304 277.595 184.835 276.751 185.277C276.675 185.277 276.675 185.366 276.599 185.366C275.601 185.896 275.14 186.338 275.14 186.338C274.987 186.515 274.91 186.604 274.833 186.604C274.757 186.604 274.68 186.604 274.603 186.604C273.452 185.896 272.991 177.671 276.138 174.841C276.829 174.222 277.673 173.691 278.593 173.337C280.128 172.718 281.893 172.453 283.734 172.453C286.344 172.364 289.183 172.806 291.869 173.337C297.624 174.487 300.617 178.467 300.847 182.27C301 185.896 298.775 194.21 297.624 194.741Z" fill="#D6670C"/>
<path opacity="0.57" d="M279.284 174.752C278.824 175.991 275.984 176.875 274.833 180.236C273.913 182.801 274.68 185.277 274.68 186.516C274.603 186.516 274.526 186.516 274.45 186.516C273.298 185.808 272.839 177.583 275.984 174.752C276.675 174.133 277.519 173.603 278.44 173.249C279.207 173.603 279.591 173.956 279.284 174.752Z" fill="#EA9551"/>
<path opacity="0.49" d="M297.624 194.741C296.473 195.272 296.243 187.223 294.938 184.658C293.633 182.093 292.943 181.828 286.037 182.535C283.734 182.801 281.816 183.243 280.205 183.774H280.128C278.67 184.216 277.595 184.747 276.751 185.277C276.675 185.277 276.675 185.366 276.599 185.366C275.064 186.339 274.526 187.311 274.526 187.311C274.526 187.311 274.526 186.958 274.526 186.515C274.603 185.631 274.833 184.216 275.754 183.066C277.212 181.209 280.665 179.617 283.734 179.263C286.804 178.909 289.26 177.583 289.029 176.167C288.876 174.841 286.498 174.045 283.734 173.249C283.734 173.249 283.658 172.895 283.658 172.364C286.267 172.276 289.106 172.718 291.792 173.249C297.547 174.398 300.54 178.379 300.77 182.182C301 185.896 298.775 194.21 297.624 194.741Z" fill="#C94E19"/>
<path d="M255.342 238.521C255.342 238.521 247.592 237.814 241.683 230.65C235.775 223.486 238.153 219.506 240.762 216.764C243.371 214.022 245.75 212.695 252.119 214.199C258.489 215.702 272.148 218.444 276.138 219.506C280.128 220.567 282.738 223.132 280.896 224.282C279.054 225.431 270.306 231.003 267.85 232.861C267.85 232.861 263.86 232.772 260.56 228.439C260.56 228.439 263.093 231.092 265.088 234.983C265.088 234.983 259.563 239.583 255.342 238.521Z" fill="#FDB605"/>
<path opacity="0.61" d="M279.284 223.043C269.001 220.744 257.184 216.498 254.882 219.063C252.657 221.628 249.51 213.58 247.899 218.002C246.287 222.424 246.824 233.126 250.431 235.514C254.038 237.814 276.291 236.31 280.205 234.453C284.119 232.595 285.96 228.438 284.272 225.873C282.584 223.309 279.284 223.043 279.284 223.043Z" fill="#F08710"/>
<path d="M301.691 238.61C301.538 239.583 301.231 240.467 300.694 241.352C300.31 242.059 299.773 242.678 299.082 243.298C294.631 247.631 288.8 244.801 284.119 243.121C279.437 241.529 276.982 238.875 273.606 240.556C270.613 241.971 261.942 245.155 258.258 244.713C257.798 244.624 257.338 244.536 257.108 244.359C255.189 243.032 255.189 240.114 255.266 238.964C255.266 238.698 255.342 238.522 255.342 238.522C257.108 238.698 258.258 238.522 262.632 236.31C266.009 234.63 267.697 232.949 271.38 229.765C272.378 228.881 273.606 227.82 274.987 226.67C277.749 224.37 280.052 223.397 282.431 223.309C283.275 223.309 284.195 223.397 285.116 223.663C287.572 224.282 290.257 225.785 293.864 227.82C299.85 231.269 302.152 235.161 301.691 238.61Z" fill="#FDB605"/>
<path d="M274.143 216.056C274.143 215.88 270.075 215.172 269.231 216.056C268.388 216.941 268.388 217.825 267.466 218.621C266.546 219.417 267.85 220.832 267.466 221.894C267.083 222.955 268.771 222.955 268.771 224.282C268.771 225.608 271.994 225.343 275.14 223.309C275.14 223.309 273.989 220.302 274.143 216.056Z" fill="#FCD295"/>
<path opacity="0.64" d="M275.14 217.117C272.839 217.471 271.841 215.968 270.843 216.498C269.845 217.029 269.999 217.825 269.538 218.621C269.078 219.417 268.541 218.533 268.618 220.213C268.694 221.982 269.538 222.689 270.306 224.016C271.073 225.343 272.839 224.193 273.989 223.662C275.14 223.043 276.138 221.451 276.214 220.478C276.368 219.505 275.14 217.117 275.14 217.117Z" fill="#F5A870"/>
<path d="M257.107 244.359C257.107 244.359 247.975 243.916 246.518 239.759C245.059 235.603 247.208 235.426 247.208 235.426L255.342 238.433C255.342 238.521 254.882 242.236 257.107 244.359Z" fill="#8C1523"/>
<path d="M301.768 238.698L294.785 232.418L289.644 227.731L285.193 223.751L299.926 218.002C304.53 228.792 301.768 238.698 301.768 238.698Z" fill="#FDB605"/>
<path opacity="0.61" d="M301.768 238.698C301.614 239.583 301.231 240.467 300.694 241.352C300.309 242.059 299.772 242.678 299.082 243.297C294.631 247.631 288.799 244.801 284.119 243.12C279.437 241.528 276.982 238.875 273.605 240.555C270.613 241.971 261.942 245.155 258.258 244.712C257.03 243.12 256.11 241.263 255.266 238.963C254.881 237.902 254.498 236.752 254.038 235.514C250.968 226.67 262.018 224.635 264.628 225.078C266.776 225.52 269.462 229.146 271.38 229.765C271.687 229.854 272.071 229.854 272.301 229.765C274.22 228.969 279.821 229.942 281.663 233.568C283.581 237.283 287.572 235.16 286.574 233.126C285.576 231.003 285.96 229.677 286.574 229.677C287.188 229.677 291.715 234.983 293.787 234.453C294.555 234.276 294.861 233.391 294.708 232.33C294.478 230.738 293.174 228.704 291.408 228.262C290.871 228.173 290.257 227.908 289.49 227.643C287.418 226.846 284.809 225.52 282.353 223.22C283.197 223.22 284.119 223.309 285.039 223.574L299.772 217.825C304.53 228.792 301.768 238.698 301.768 238.698Z" fill="#F08710"/>
<path d="M286.037 172.099C286.037 172.984 286.037 176.256 286.037 176.256C284.119 178.732 280.819 178.556 279.13 177.583C278.517 177.229 278.056 176.787 277.98 176.256C277.826 175.018 277.903 173.16 277.903 172.099C277.903 171.657 277.98 171.303 277.98 171.303C281.433 171.834 286.037 172.099 286.037 172.099Z" fill="#F2BA78"/>
<path d="M301.998 152.464C301.691 157.505 300.233 161.485 298.162 164.493C293.941 170.507 287.188 172.806 282.2 172.187C278.056 171.657 273.913 170.242 270.92 167.765C270.766 167.677 270.613 167.5 270.536 167.411C268.388 165.465 266.853 162.901 266.546 159.717C265.702 152.11 270.075 151.049 271.534 147.069C271.764 146.361 271.995 145.654 272.224 145.035C273.069 142.116 273.606 139.728 275.755 137.428C278.21 134.775 280.972 133.36 283.735 132.829C293.097 131.06 302.612 140.701 301.998 152.464Z" fill="#FCD295"/>
<path opacity="0.51" d="M271.457 149.457C271.226 149.634 270.996 149.899 270.689 150.165C270.613 150.076 270.459 149.988 270.382 150.076C269.769 150.165 269.001 150.961 268.771 151.757C268.694 152.199 268.694 152.553 268.847 152.906C268.31 153.879 267.927 155.029 267.773 156.267C267.39 158.921 268.694 164.404 270.459 167.411C268.31 165.466 266.776 162.901 266.469 159.717C265.624 152.11 269.999 151.049 271.457 147.069C271.687 146.361 271.917 145.654 272.148 145.035C272.07 144.946 272.838 148.396 271.457 149.457Z" fill="#FFEFD0"/>
<path opacity="0.69" d="M298.161 164.493C293.941 170.507 287.188 172.807 282.2 172.188C278.056 171.657 273.913 170.242 270.919 167.765C273.529 168.827 277.136 169.976 280.281 169.8C285.96 169.534 287.648 166.792 287.495 165.466C287.342 164.139 288.262 161.751 289.567 160.955C290.411 160.424 292.789 159.982 293.941 158.655C293.787 157.329 293.941 156.267 292.252 156.71C290.564 157.152 289.567 158.655 289.567 158.655C289.567 158.655 287.342 159.275 287.265 157.329C287.188 155.383 287.495 149.546 287.495 149.546C287.495 149.546 286.191 150.607 282.968 148.926C279.744 147.246 281.74 143.974 281.74 143.974C281.74 143.974 275.754 145.742 272.071 145.035C272.915 142.116 273.452 139.728 275.601 137.429C278.056 134.775 280.819 133.36 283.582 132.829C287.342 133.449 288.877 135.571 290.871 139.551C293.327 144.327 293.787 150.43 293.787 150.43C293.787 150.43 298.315 153.26 298.084 156.356C298.084 156.798 297.932 157.24 297.778 157.683C298.391 158.125 298.852 158.655 298.928 159.275C299.159 160.071 298.775 162.105 298.161 164.493Z" fill="#E9A17F"/>
<path d="M273.989 147.865C273.989 147.865 274.679 151.491 273.145 152.464C271.61 153.437 271.226 148.926 269.845 150.165C268.464 151.491 268.157 153.172 270.536 154.764" stroke="#E08660" stroke-width="0.4282" stroke-miterlimit="10" stroke-linecap="round" stroke-linejoin="round"/>
<path d="M266.393 158.567C266.393 158.567 268.925 165.731 279.361 163.343" stroke="#902C14" stroke-width="0.8565" stroke-miterlimit="10" stroke-linecap="round"/>
<path d="M309.135 151.314C308.52 155.294 306.449 149.457 303.149 149.988C303.149 149.988 303.84 160.424 297.701 166.262C296.013 167.854 294.709 168.473 293.557 168.473C290.564 168.473 289.49 164.051 289.414 162.901C289.414 162.901 294.018 163.166 295.705 158.567C297.394 153.968 292.867 149.546 288.876 155.737C288.876 155.737 287.572 156.267 288.109 154.764C288.646 153.26 289.567 147.423 291.945 145.035C291.485 145.389 286.037 149.103 284.195 146.185C282.66 143.797 285.5 141.585 286.728 140.789C286.804 140.701 286.881 140.701 286.881 140.701C285.269 141.585 278.67 144.946 272.608 143.177C266.239 141.32 265.625 133.183 269.155 130.884C269.462 130.618 269.845 130.53 270.229 130.353C274.68 129.203 276.905 131.326 277.059 131.591C276.752 130.972 273.452 124.692 278.593 122.128C280.052 121.42 280.819 121.42 281.356 121.774C282.66 122.924 281.279 127.434 282.89 129.38C285.039 132.033 299.313 127.257 302.612 147.865C302.612 147.865 303.917 143.973 303.533 142.116C303.149 140.17 306.449 139.817 305.912 143.177C305.298 146.538 303.456 148.219 303.456 148.219C303.456 148.219 307.37 147.688 308.751 149.369C309.058 149.811 309.288 150.43 309.135 151.314Z" fill="#A55204"/>
<path opacity="0.56" d="M309.135 151.314C308.52 155.295 306.449 149.457 303.149 149.988C303.149 149.988 303.84 160.424 297.701 166.262C296.013 167.854 294.709 168.473 293.557 168.473C290.564 168.473 289.49 164.051 289.414 162.901C289.414 162.901 294.018 163.166 295.705 158.567C297.394 153.968 292.867 149.546 288.876 155.737C288.876 155.737 287.572 156.267 288.109 154.764C288.646 153.26 289.567 147.423 291.945 145.035C291.485 145.389 286.037 149.103 284.195 146.185C282.66 143.797 285.5 141.586 286.728 140.79C286.804 140.701 286.881 140.701 286.881 140.701C285.269 141.586 278.67 144.946 272.608 143.178C266.239 141.32 265.625 133.183 269.155 130.884C268.234 135.66 270.075 138.313 276.214 138.844C283.275 139.463 289.107 138.136 289.107 138.136C289.107 138.136 288.109 139.109 287.265 140.436C287.111 140.613 287.035 140.878 286.881 141.055C286.344 142.116 286.037 143.266 286.65 144.15C288.185 146.273 293.097 143.708 293.097 143.708C293.097 143.708 292.33 145.654 292.023 147.777C291.715 149.899 292.33 150.695 292.33 150.695C292.33 150.695 295.629 149.457 297.317 152.464C299.006 155.471 300.463 159.54 301.768 156.621C303.073 153.702 300.54 150.076 302.459 149.015C303.61 148.396 306.526 148.307 308.751 149.192C309.058 149.811 309.288 150.43 309.135 151.314Z" fill="#8B3100"/>
<path d="M281.97 152.376C281.97 152.906 281.586 153.437 281.049 153.437C280.589 153.437 280.128 152.995 280.128 152.376C280.128 151.757 280.512 151.314 281.049 151.314C281.586 151.403 281.97 151.845 281.97 152.376Z" fill="#68340C"/>
<path d="M272.378 147.865C272.378 148.396 271.995 148.926 271.457 148.926C270.997 148.926 270.536 148.484 270.536 147.865C270.536 147.334 270.92 146.804 271.457 146.804C271.995 146.804 272.378 147.334 272.378 147.865Z" fill="#68340C"/>
<path d="M272.608 143.177C275.754 143.797 275.447 144.15 276.061 143.089C276.752 141.939 273.913 139.551 271.61 140.524C269.385 141.32 270.689 142.824 272.608 143.177Z" fill="#7F3C05"/>
<path d="M281.74 147.688C283.504 149.899 284.578 149.457 284.119 146.892C283.734 144.327 279.668 142.382 278.287 143.797C276.982 145.212 279.514 144.858 281.74 147.688Z" fill="#7F3C05"/>
<path opacity="0.71" d="M286.037 172.099C286.037 172.983 286.037 176.256 286.037 176.256C284.119 178.732 280.819 178.556 279.13 177.583C280.512 177.583 282.738 177.583 283.198 177.052C283.888 176.256 283.581 174.576 282.353 174.133C281.356 173.779 279.668 173.337 277.98 172.187C277.98 171.745 278.056 171.391 278.056 171.391C281.433 171.834 286.037 172.099 286.037 172.099Z" fill="#E79566"/>
<path d="M300.31 212.43C301.154 218.002 298.775 222.601 292.79 224.547C286.804 226.493 274.833 227.377 274.22 221.009C273.835 217.029 274.143 215.26 275.14 214.287C275.755 213.668 276.675 213.315 277.903 212.961C281.126 211.988 284.042 208.715 287.265 208.362C290.411 207.919 287.495 211.103 286.037 198.279C285.654 194.741 285.576 191.999 285.654 189.965C285.96 184.658 287.802 183.597 289.337 182.889C292.789 181.297 296.09 182.447 296.934 189.169C297.778 195.802 301 195.979 300.848 201.64C300.694 207.389 299.466 206.858 300.31 212.43Z" fill="#D6670C"/>
<path opacity="0.49" d="M300.31 212.43C301.154 218.002 298.775 222.601 292.79 224.547C286.804 226.493 274.833 227.377 274.22 221.009C273.835 217.029 274.143 215.26 275.14 214.287C275.217 215.702 275.524 218.798 276.599 220.567C277.98 222.867 287.188 223.043 291.255 220.567C295.322 218.09 294.785 215.526 295.246 212.607C295.705 209.6 296.32 206.062 296.09 203.232C295.859 200.401 293.02 197.217 293.02 193.503C293.02 190.053 288.8 186.958 285.73 190.053C286.037 184.747 287.879 183.685 289.414 182.978C292.867 181.386 296.166 182.536 297.01 189.257C297.854 195.891 301.078 196.068 300.924 201.728C300.694 207.389 299.466 206.858 300.31 212.43Z" fill="#C94E19"/>
<path opacity="0.69" d="M272.839 214.818L271.995 214.641C271.995 214.553 271.995 214.553 271.995 214.464C271.61 211.634 271.304 207.477 270.766 200.401C270.153 192.264 271.687 185.985 272.915 182.624C272.915 182.624 272.454 191.115 271.995 196.864C271.534 202.701 272.839 214.818 272.839 214.818Z" fill="#F5A657"/>
<path opacity="0.56" d="M282.738 134.156C282.738 134.156 279.284 133.802 277.059 131.591C276.752 130.972 273.452 124.692 278.593 122.128C280.052 121.42 280.819 121.42 281.357 121.774C279.515 122.393 278.517 124.25 278.747 126.727C279.054 129.822 279.898 131.768 280.665 132.564C281.357 133.449 282.738 134.156 282.738 134.156Z" fill="#8B3100"/>
</svg>
