<svg width="301" height="326" viewBox="0 0 301 326" fill="none" xmlns="http://www.w3.org/2000/svg">
<g clip-path="url(#clip0_2573_66715)">
<path d="M241.954 50.1689C241.484 49.9221 241.17 51.0484 241.644 51.2991C242.192 51.5884 242.741 51.7119 243.319 51.6849C243.816 51.6617 243.717 50.439 243.219 50.4621C242.791 50.4814 242.362 50.3811 241.954 50.1689Z" fill="#FDD86B"/>
<path d="M246.887 51.0758C246.477 51.1067 246.071 51.0179 245.683 50.8058C245.212 50.5512 244.901 51.6775 245.372 51.936C245.899 52.2214 246.428 52.341 246.984 52.2986C247.482 52.26 247.384 51.0372 246.887 51.0758Z" fill="#FDD86B"/>
<path d="M251.062 51.9742C250.584 52.0783 250.116 52.0243 249.66 51.7813C249.188 51.5306 248.877 52.6569 249.348 52.9115C249.941 53.2239 250.543 53.3319 251.162 53.1969C251.655 53.0889 251.557 51.8662 251.062 51.9742Z" fill="#FDD86B"/>
<path d="M253.551 54.5348L255.405 54.9552C255.898 55.0671 256.01 53.8482 255.515 53.7363L253.66 53.3158C253.165 53.204 253.056 54.4229 253.551 54.5348Z" fill="#FDD86B"/>
<path d="M244.355 48.0203C244.003 48.136 243.668 48.1013 243.333 47.8852C242.869 47.5882 242.561 48.7184 243.022 49.0154C243.479 49.3086 243.969 49.3973 244.452 49.243C244.94 49.0849 244.845 47.8621 244.355 48.0203Z" fill="#FDD86B"/>
<path d="M246.783 49.749C247.526 49.965 248.268 50.1772 249.011 50.3932C249.501 50.5359 249.611 49.317 249.12 49.1743C248.377 48.9582 247.635 48.7461 246.892 48.5301C246.399 48.3874 246.29 49.6063 246.783 49.749Z" fill="#FDD86B"/>
<path d="M251.407 50.9095C251.956 51.2027 252.504 51.3338 253.082 51.3145C253.579 51.2991 253.478 50.0764 252.983 50.0918C252.553 50.1034 252.123 49.9954 251.715 49.7793C251.244 49.5286 250.931 50.6549 251.407 50.9095Z" fill="#FDD86B"/>
<path d="M257.194 51.114C256.825 51.1796 256.461 51.1294 256.109 50.9404C255.638 50.6936 255.327 51.8199 255.798 52.0706C256.289 52.3291 256.782 52.4255 257.294 52.3368C257.789 52.2519 257.692 51.0292 257.194 51.114Z" fill="#FDD86B"/>
<path d="M242.974 44.6997C242.869 44.6959 242.767 44.692 242.665 44.6882C242.629 44.6882 242.602 44.6843 242.578 44.6843C242.413 44.3063 241.937 44.341 241.859 44.9389C241.792 45.4596 242.073 45.8299 242.371 45.8994C242.745 45.9804 243.156 45.9264 243.532 45.9379C243.743 45.9456 243.935 45.7721 243.971 45.4133C244.001 45.1163 243.853 44.7229 243.641 44.7152C243.42 44.7152 243.197 44.7075 242.974 44.6997Z" fill="#FDD86B"/>
<path d="M245.865 44.7148C245.37 44.6762 245.255 45.8951 245.756 45.9337C246.231 45.9684 246.707 46.007 247.18 46.0417C247.676 46.0803 247.79 44.8614 247.29 44.8228C246.814 44.7881 246.338 44.7534 245.865 44.7148Z" fill="#FDD86B"/>
<path d="M249.732 45.9492C249.246 45.7717 249.14 46.9906 249.623 47.1681C250.086 47.3378 250.555 47.4574 251.028 47.5268C251.523 47.5962 251.638 46.3773 251.138 46.3079C250.664 46.2346 250.195 46.1189 249.732 45.9492Z" fill="#FDD86B"/>
<path d="M252.846 47.8618C253.458 48.2051 254.082 48.4096 254.73 48.4559C255.226 48.4906 255.339 47.2717 254.84 47.237C254.262 47.1945 253.701 47.0364 253.155 46.7355C252.686 46.4732 252.376 47.6034 252.846 47.8618Z" fill="#FDD86B"/>
<path d="M258.731 47.8544C258.367 47.947 258.022 47.9239 257.665 47.785C257.461 47.704 257.255 48.001 257.226 48.3096C257.194 48.6683 257.352 48.9268 257.556 49.0078C257.973 49.1698 258.406 49.1891 258.83 49.0811C259.321 48.9499 259.226 47.7272 258.731 47.8544Z" fill="#FDD86B"/>
<path d="M244.797 40.8384C244.326 40.985 243.872 40.9657 243.406 40.7844C242.92 40.5954 242.816 41.8181 243.297 42.0033C243.823 42.2039 244.365 42.2231 244.896 42.0611C245.384 41.9107 245.289 40.6879 244.797 40.8384Z" fill="#FDD86B"/>
<path d="M247.409 42.7701L248.88 43.1018C249.373 43.2137 249.484 41.9948 248.989 41.8829L247.518 41.5512C247.023 41.4393 246.914 42.6583 247.409 42.7701Z" fill="#FDD86B"/>
<path d="M251.477 42.5007C250.992 42.3194 250.885 43.5422 251.368 43.7196C251.832 43.8932 252.3 44.0128 252.774 44.0784C253.269 44.1478 253.383 42.9289 252.883 42.8594C252.41 42.7939 251.941 42.6743 251.477 42.5007Z" fill="#FDD86B"/>
<path d="M257.065 43.8392C256.466 43.9125 255.879 43.8584 255.289 43.6926C254.798 43.5537 254.689 44.7727 255.179 44.9116C255.837 45.1006 256.5 45.1468 257.165 45.0619C257.663 45.0002 257.563 43.7775 257.065 43.8392Z" fill="#FDD86B"/>
<path d="M243.828 37.8184C243.445 37.8917 243.076 37.857 242.7 37.722C242.212 37.5484 242.105 38.7673 242.59 38.9409C243.03 39.099 243.479 39.126 243.926 39.0412C244.423 38.9447 244.326 37.7181 243.828 37.8184Z" fill="#FDD86B"/>
<path d="M247.384 38.2034C246.975 38.3037 246.564 38.2844 246.166 38.1031C245.965 38.0105 245.748 38.0915 245.656 38.4232C245.579 38.6971 245.656 39.1407 245.858 39.2333C246.394 39.484 246.931 39.565 247.484 39.4261C247.974 39.3066 247.88 38.0838 247.384 38.2034Z" fill="#FDD86B"/>
<path d="M249.776 39.9626C250.259 40.2403 250.747 40.3522 251.259 40.3175C251.756 40.2827 251.657 39.06 251.159 39.0947C250.793 39.1217 250.429 39.0291 250.084 38.8324C249.618 38.5662 249.307 39.6926 249.776 39.9626Z" fill="#FDD86B"/>
<path d="M253.629 40.6493C254.17 40.9926 254.731 41.1931 255.316 41.2317C255.808 41.2626 255.922 40.0437 255.425 40.0128C254.91 39.9781 254.417 39.8238 253.939 39.5229C253.473 39.2259 253.165 40.3561 253.629 40.6493Z" fill="#FDD86B"/>
<path d="M257.663 41.9801L259.07 42.3002C259.563 42.4121 259.675 41.1932 259.18 41.0813L257.772 40.7612C257.279 40.6493 257.168 41.8682 257.663 41.9801Z" fill="#FDD86B"/>
<path d="M245.263 34.4191C244.794 34.5387 244.338 34.5194 243.872 34.3689C243.381 34.2147 243.275 35.4336 243.763 35.5879C244.29 35.7576 244.829 35.7691 245.36 35.638C245.855 35.5184 245.758 34.2957 245.263 34.4191Z" fill="#FDD86B"/>
<path d="M249.543 35.3031C248.945 35.3455 248.358 35.2645 247.77 35.0871C247.28 34.9366 247.171 36.1555 247.661 36.306C248.317 36.5066 248.975 36.5721 249.642 36.5258C250.138 36.4911 250.04 35.2684 249.543 35.3031Z" fill="#FDD86B"/>
<path d="M253.573 36.2128C252.91 36.2784 252.256 36.2205 251.601 36.0469C251.109 35.9158 250.999 37.1386 251.492 37.2659C252.215 37.4549 252.941 37.5089 253.672 37.4356C254.169 37.3854 254.07 36.1627 253.573 36.2128Z" fill="#FDD86B"/>
<path d="M257.784 37.254C257.228 37.3465 256.684 37.3041 256.136 37.1421C255.646 36.9955 255.536 38.2144 256.027 38.361C256.641 38.5462 257.262 38.5809 257.884 38.4767C258.379 38.3919 258.282 37.1691 257.784 37.254Z" fill="#FDD86B"/>
<path d="M20.8071 241.105C20.3362 240.859 20.0231 241.985 20.4964 242.236C21.0451 242.525 21.5937 242.648 22.1714 242.621C22.6691 242.598 22.5695 241.375 22.0719 241.399C21.6446 241.418 21.215 241.318 20.8071 241.105Z" fill="#FDD86B"/>
<path d="M25.7401 242.012C25.3299 242.043 24.9244 241.954 24.5361 241.742C24.0651 241.487 23.7544 242.613 24.2253 242.872C24.7521 243.157 25.2813 243.277 25.8372 243.234C26.3349 243.196 26.2377 241.973 25.7401 242.012Z" fill="#FDD86B"/>
<path d="M29.9152 242.911C29.437 243.015 28.9685 242.961 28.5121 242.718C28.0412 242.467 27.7305 243.593 28.2014 243.848C28.7937 244.16 29.3957 244.268 30.0148 244.133C30.5076 244.025 30.4105 242.803 29.9152 242.911Z" fill="#FDD86B"/>
<path d="M32.4035 245.472L34.2582 245.892C34.7509 246.004 34.8627 244.785 34.3674 244.673L32.5128 244.253C32.0176 244.141 31.9084 245.36 32.4035 245.472Z" fill="#FDD86B"/>
<path d="M23.208 238.957C22.856 239.072 22.521 239.038 22.186 238.822C21.7224 238.525 21.414 239.655 21.8753 239.952C22.3317 240.245 22.822 240.334 23.3051 240.179C23.793 240.021 23.6984 238.799 23.208 238.957Z" fill="#FDD86B"/>
<path d="M25.6356 240.685C26.3785 240.901 27.1213 241.113 27.8641 241.329C28.3545 241.472 28.4637 240.253 27.9733 240.11C27.2305 239.894 26.4877 239.682 25.7449 239.466C25.2521 239.323 25.1428 240.542 25.6356 240.685Z" fill="#FDD86B"/>
<path d="M30.2601 241.846C30.8087 242.139 31.3573 242.27 31.9351 242.251C32.4327 242.236 32.3307 241.013 31.8355 241.028C31.4058 241.04 30.9762 240.932 30.5684 240.716C30.0974 240.465 29.7867 241.591 30.2601 241.846Z" fill="#FDD86B"/>
<path d="M36.0472 242.05C35.6782 242.116 35.3141 242.066 34.9621 241.877C34.4911 241.63 34.1804 242.756 34.6514 243.007C35.1417 243.265 35.6345 243.362 36.1467 243.273C36.6419 243.188 36.5448 241.966 36.0472 242.05Z" fill="#FDD86B"/>
<path d="M21.8268 235.636C21.7225 235.632 21.6205 235.628 21.5186 235.624C21.4822 235.624 21.4554 235.62 21.4312 235.62C21.2661 235.242 20.7903 235.277 20.7126 235.875C20.6447 236.396 20.9263 236.766 21.2248 236.835C21.5986 236.916 22.0089 236.862 22.3852 236.874C22.5964 236.882 22.7882 236.708 22.8246 236.349C22.8537 236.052 22.7056 235.659 22.4944 235.651C22.2735 235.651 22.0502 235.643 21.8268 235.636Z" fill="#FDD86B"/>
<path d="M24.7179 235.651C24.2227 235.613 24.1086 236.832 24.6086 236.87C25.0844 236.905 25.5602 236.943 26.0336 236.978C26.5288 237.017 26.6429 235.798 26.1428 235.759C25.667 235.725 25.1912 235.69 24.7179 235.651Z" fill="#FDD86B"/>
<path d="M28.5849 236.886C28.0994 236.708 27.9926 237.927 28.4757 238.105C28.9394 238.274 29.4079 238.394 29.8812 238.463C30.3765 238.533 30.4906 237.314 29.9905 237.244C29.5171 237.171 29.0486 237.055 28.5849 236.886Z" fill="#FDD86B"/>
<path d="M31.6996 238.799C32.3113 239.142 32.9352 239.346 33.5833 239.393C34.0785 239.427 34.1926 238.209 33.6926 238.174C33.1148 238.131 32.5541 237.973 32.0078 237.672C31.5393 237.41 31.2286 238.54 31.6996 238.799Z" fill="#FDD86B"/>
<path d="M37.5838 238.792C37.2197 238.884 36.8749 238.861 36.5181 238.722C36.3142 238.641 36.1079 238.938 36.0787 239.247C36.0472 239.606 36.205 239.864 36.4089 239.945C36.8264 240.107 37.2585 240.126 37.6833 240.018C38.1737 239.887 38.079 238.665 37.5838 238.792Z" fill="#FDD86B"/>
<path d="M23.6497 231.774C23.1787 231.921 22.7248 231.902 22.2587 231.72C21.7732 231.531 21.6688 232.754 22.1495 232.939C22.6763 233.14 23.2176 233.159 23.7492 232.997C24.2372 232.847 24.1425 231.624 23.6497 231.774Z" fill="#FDD86B"/>
<path d="M26.2617 233.707L27.7328 234.039C28.2255 234.151 28.3372 232.932 27.842 232.82L26.3709 232.488C25.8757 232.376 25.7665 233.595 26.2617 233.707Z" fill="#FDD86B"/>
<path d="M30.3303 233.437C29.8448 233.256 29.738 234.479 30.221 234.656C30.6847 234.83 31.1532 234.949 31.6266 235.015C32.1218 235.084 32.2359 233.865 31.7358 233.796C31.2624 233.73 30.7939 233.611 30.3303 233.437Z" fill="#FDD86B"/>
<path d="M35.9185 234.776C35.3188 234.849 34.7314 234.795 34.1415 234.629C33.6511 234.49 33.5419 235.709 34.0323 235.848C34.6901 236.037 35.3529 236.083 36.018 235.998C36.5156 235.937 36.4161 234.714 35.9185 234.776Z" fill="#FDD86B"/>
<path d="M22.6811 228.755C22.2976 228.829 21.9286 228.794 21.5523 228.659C21.0644 228.485 20.9575 229.704 21.4431 229.878C21.8825 230.036 22.3315 230.063 22.7782 229.978C23.2758 229.882 23.1787 228.655 22.6811 228.755Z" fill="#FDD86B"/>
<path d="M26.2375 229.14C25.8273 229.24 25.4171 229.221 25.019 229.04C24.8174 228.947 24.6014 229.028 24.5091 229.36C24.4314 229.634 24.5091 230.077 24.7106 230.17C25.2471 230.42 25.7836 230.501 26.3371 230.363C26.8274 230.243 26.7328 229.02 26.2375 229.14Z" fill="#FDD86B"/>
<path d="M28.6288 230.899C29.1119 231.177 29.5998 231.289 30.112 231.254C30.6097 231.219 30.5101 229.996 30.0125 230.031C29.6459 230.058 29.2818 229.966 28.9371 229.769C28.471 229.503 28.1603 230.629 28.6288 230.899Z" fill="#FDD86B"/>
<path d="M32.4812 231.586C33.0225 231.929 33.5833 232.13 34.1683 232.168C34.6611 232.199 34.7752 230.98 34.2776 230.949C33.7629 230.915 33.2701 230.76 32.7919 230.459C32.3258 230.162 32.0175 231.293 32.4812 231.586Z" fill="#FDD86B"/>
<path d="M36.5158 232.916L37.9238 233.237C38.4166 233.348 38.5282 232.13 38.033 232.018L36.625 231.698C36.1322 231.586 36.0206 232.805 36.5158 232.916Z" fill="#FDD86B"/>
<path d="M24.116 225.356C23.6475 225.476 23.1911 225.456 22.725 225.306C22.2346 225.152 22.1278 226.37 22.6157 226.525C23.1425 226.695 23.6814 226.706 24.2131 226.575C24.7083 226.455 24.6112 225.233 24.116 225.356Z" fill="#FDD86B"/>
<path d="M28.3956 226.241C27.7984 226.283 27.2109 226.202 26.6235 226.024C26.1331 225.874 26.0239 227.093 26.5142 227.243C27.1696 227.444 27.8275 227.51 28.4951 227.463C28.9903 227.429 28.8932 226.206 28.3956 226.241Z" fill="#FDD86B"/>
<path d="M32.4252 227.15C31.7625 227.215 31.1095 227.157 30.4541 226.984C29.9613 226.853 29.8521 228.075 30.3449 228.203C31.0683 228.392 31.7941 228.446 32.5248 228.372C33.0224 228.322 32.9229 227.1 32.4252 227.15Z" fill="#FDD86B"/>
<path d="M36.6372 228.191C36.0813 228.283 35.5375 228.241 34.9889 228.079C34.4986 227.932 34.3893 229.151 34.8797 229.298C35.4939 229.483 36.1153 229.518 36.7367 229.414C37.232 229.329 37.1349 228.106 36.6372 228.191Z" fill="#FDD86B"/>
<path fill-rule="evenodd" clip-rule="evenodd" d="M73.5306 317.654C53.4744 317.654 37.0669 288.658 37.0669 253.229C37.0669 217.796 53.4744 188.8 73.5306 188.8C82.0097 188.8 88.948 176.546 88.948 161.56C88.948 146.578 82.0097 134.32 73.5306 134.32H71.6955C62.8787 134.32 55.6665 121.575 55.6665 105.996C55.6665 90.4195 62.8811 77.675 71.6955 77.675H77.3271C80.7576 77.675 83.5612 72.7145 83.5612 66.6469C83.5612 60.5832 80.7451 55.6227 77.3271 55.6227H73.1886C70.8193 55.6227 68.8819 52.1975 68.8819 48.0123C68.8819 43.8271 70.8212 40.4018 73.1886 40.4018H100.986C104.707 40.4018 107.754 35.0363 107.754 28.4442C107.754 21.8675 104.707 16.4866 100.986 16.4866H92.6792C90.3099 16.4866 88.3725 13.0574 88.3725 8.87608C88.3725 4.69477 90.3099 1.26562 92.6792 1.26562H211.011C214.101 1.26562 216.631 5.73624 216.631 11.1943C216.631 16.6524 214.101 21.123 211.011 21.123H202.34C197.482 21.123 193.509 28.1472 193.509 36.7258C193.509 45.3083 197.482 52.3286 202.34 52.3286H238.9C241.991 52.3286 244.52 56.7992 244.52 62.2573C244.52 67.7154 241.993 72.186 238.9 72.186H233.512C229.033 72.186 225.37 78.6586 225.37 86.5738C225.37 94.4851 229.033 100.958 233.512 100.958H240.855C252.359 100.958 261.768 117.591 261.768 137.919C261.768 158.243 252.356 174.876 240.855 174.876H238.461C227.401 174.876 218.352 190.868 218.352 210.424C218.352 229.973 227.401 245.973 238.461 245.973H243.646C254.803 245.973 263.931 262.101 263.931 281.808C263.931 301.522 254.803 317.65 243.646 317.65L73.5306 317.654ZM225.394 21.1346C228.496 21.1346 231.026 16.691 231.026 11.2059C231.026 5.72081 228.506 1.27334 225.394 1.27334C222.282 1.27334 219.762 5.72081 219.762 11.202C219.762 16.6833 222.277 21.1346 225.394 21.1346ZM61.0969 55.6266C63.4756 55.6266 65.403 52.2206 65.403 48.0161C65.403 43.8155 63.4756 40.4057 61.0969 40.4057C58.7179 40.4057 56.7905 43.8117 56.7905 48.0161C56.7905 52.2167 58.7276 55.6266 61.1066 55.6266H61.0969Z" fill="#FDD86B"/>
<path d="M138.143 273.426C129.366 273.468 120.588 273.804 111.827 275.35C108.523 275.933 105.29 277.217 101.978 277.738C95.3634 278.772 88.8701 280.704 82.2305 281.595C76.8851 282.313 71.5178 282.737 66.1899 283.644C61.1938 284.496 55.6615 284.299 50.7021 282.891C47.0317 281.85 43.3443 281.26 39.7345 279.586C35.6976 277.711 31.3111 276.373 27.1042 276.419C21.1057 276.488 15.2651 276.496 9.52403 279.806C7.50919 280.967 5.04285 282.876 3.51109 285.314C0.00817358 290.895 -0.465194 304.82 3.03286 310.61C8.92447 320.354 21.4966 324.176 29.755 324.357C38.8024 324.554 47.5924 323.49 56.6543 322.861C65.0753 322.278 73.4747 321.449 81.9079 321.476C99.1335 321.534 116.361 321.476 133.556 319.648C149.711 317.931 165.905 318.521 182.097 318.521C198.698 318.521 215.188 318.73 231.671 322.236C238.852 323.763 246.169 324.3 253.388 325.368C259.852 326.328 266.065 325.349 272.502 324.462C277.908 323.717 283.28 321.511 288.191 317.781C292.08 314.83 299.011 305.657 300.202 298.61C303.545 278.853 253.097 279.327 245.35 279.374C236.687 279.424 227.952 279.875 219.293 279.35C215.652 279.13 212.061 278 208.508 276.758C204.966 275.524 201.4 275.836 197.81 275.319C182.837 273.156 167.83 273.472 152.811 273.472C147.924 273.472 143.035 273.402 138.143 273.426Z" fill="#A3A9AD"/>
<path d="M54.1565 94.2197L63.0412 115.894L68.826 133.449L66.709 140.253L59.0164 136.832L54.1565 94.2197Z" fill="#F15B48"/>
<path d="M43.5093 170.759V181.734L52.7193 229.29L50.4156 278.675L56.1712 280.504L65.3815 220.145L65.0294 202.386L60.7762 166.165L43.5093 170.759Z" fill="#46484B"/>
<path d="M55.4162 279.566L59.81 286.953L58.5404 290.699L49.4761 283.786L51.1438 278.312L55.4162 279.566Z" fill="black"/>
<path d="M24.7033 280.137L30.1191 285.545L29.4783 289.676L19.6128 286.579L20.3678 280.619L24.7033 280.137Z" fill="black"/>
<path d="M54.1856 94.1648L40.4846 85.5283C40.4846 85.5283 35.615 104.746 30.0803 135.527C24.5455 166.308 32.651 205.495 32.651 205.495C32.651 205.495 64.0366 193.641 70.3046 191.689L62.444 135.423L54.1856 94.1648Z" fill="#F15B48"/>
<path d="M50.8162 183.755L43.5094 240.835L26.3663 281.796L21.0791 280.137L30.1192 234.671L28.9442 174.609L50.8162 183.755Z" fill="#46484B"/>
<path d="M54.6394 63.9666C50.9083 64.4025 47.4223 59.5346 43.7495 60.7419C41.3632 61.5288 39.4771 64.8924 38.7488 68.6841C38.4089 70.4507 38.29 72.3794 38.6201 74.1344C38.8362 75.2762 39.2343 76.3023 39.7028 77.2164C40.3291 78.4392 41.0938 79.4537 41.9434 80.2328C41.4773 81.4286 40.9409 82.5588 40.3461 83.6003C42.0672 84.6456 43.7859 85.6948 45.507 86.7401C45.8882 85.1702 46.2668 83.6003 46.6479 82.0265C47.165 81.9802 47.6796 81.8645 48.187 81.6562C51.2408 80.3987 53.7727 76.148 54.4548 71.1335C54.7753 68.7844 54.7146 66.3581 54.6394 63.9666Z" fill="#FCCCBA"/>
<path d="M53.6975 65.7522L42.1644 63.5767L39.9262 77.5748L36.6685 73.4668L38.3459 50.5583L54.6248 50.0029L61.672 56.5718L61.3733 63.1562L55.0715 69.8988L53.6975 65.7522Z" fill="#35445B"/>
<path d="M49.2212 88.9031L35.5203 80.2666C35.5203 80.2666 30.6507 99.4837 25.1159 130.265C19.5812 161.047 27.6867 200.233 27.6867 200.233C27.6867 200.233 55.7634 178.188 62.0288 176.237L57.4772 130.161L49.2212 88.9031Z" fill="white"/>
<path d="M24.9097 130.925C30.4444 100.143 35.2387 80.8916 35.2387 80.8916L49.0149 89.559L49.0368 89.6708C48.7333 90.9283 48.4153 92.1781 48.141 93.4548C47.0559 98.4886 46.2548 103.669 45.7621 108.931C44.8954 118.181 44.8056 127.689 44.9901 137.023C45.1697 145.98 45.7499 154.917 46.75 163.735C48.0731 175.392 50.185 186.752 52.9038 197.749C40.1617 201.865 25.1645 206.729 25.1645 206.729C25.1645 206.729 19.3749 161.706 24.9097 130.925Z" fill="#F15B48"/>
<path d="M62.8057 125.031L89.836 121.594L90.7197 131.048L66.2672 140.252L62.8057 125.031Z" fill="#F15B48"/>
<path d="M89.979 123.118L92.1662 119.531L94.3754 119.01L95.6332 124.279L92.6978 130.736L90.7196 131.049L89.979 123.118Z" fill="#F8C3A5"/>
<path d="M260.972 92.2061L251.829 94.7635L235.621 114.714L213.977 105.738L211.47 114L231.591 129.387L240.359 132.901L251.749 126.995L260.972 92.2061Z" fill="#F15C48"/>
<path d="M213.387 111.145L210.001 113.837L207.583 113.401L207.568 112.09L208.986 111.191L204.393 109.606L203.973 106.088L209.476 104.009L214.463 106.315L213.387 111.145Z" fill="#F8C3A5"/>
<path d="M250.841 281.796L246.574 286.602L245.151 290.278C245.151 290.278 246.751 291.408 247.642 291.69C248.53 291.971 255.468 290.278 255.468 290.278V283.778L250.841 281.796Z" fill="#2F3542"/>
<path d="M284.011 283.844L282.435 288.396C282.435 288.396 281.45 294.147 282.304 293.754C283.159 293.36 287.919 292.045 288.111 291.073C288.303 290.101 290.368 286.205 290.611 285.503C290.854 284.801 289.825 280.114 289.825 280.114L284.011 283.844Z" fill="#2F3542"/>
<path d="M254.815 176.688L268.599 242.069L284.011 283.844L289.99 281.086L279.772 233.44C279.772 233.44 278.539 185.579 276.519 171.5L254.815 176.688Z" fill="#3B4860"/>
<path d="M243.906 186.555L249.242 283.775H255.643L257.6 234.035L261.277 189.996L247.285 163.944L243.906 186.555Z" fill="#3B4860"/>
<path d="M243.7 124.342C244.362 119.331 244.625 113.939 246.186 109.264C247.746 104.592 250.698 101.051 252.975 97.078C253.939 95.3963 254.97 93.6451 256.405 92.8427C257.388 92.2911 258.474 92.2448 259.532 92.2024C262.743 92.0751 265.955 91.944 269.167 91.8167C270.337 91.7704 271.556 91.7357 272.623 92.4069C274.223 93.4136 275.126 95.755 275.918 97.9382C277.937 103.516 278.309 109.703 278.488 116.01C278.483 116.068 280.994 195.201 279 193.715C276.519 191.864 273.682 190.88 270.897 190.194C266.972 189.195 262.967 188.558 258.966 188.404L251.924 189.16H247.676C245.124 189.553 245.336 190.772 242.714 190.518C241.039 190.356 242.94 130.085 243.7 124.342Z" fill="#F15C48"/>
<path d="M262.149 94.763C263.744 94.6511 265.336 94.5431 266.931 94.4313C267.016 92.4139 267.002 90.385 266.885 88.3715C268.232 87.7504 269.798 86.7784 270.104 84.6029C270.201 83.9163 270.15 83.2027 270.099 82.5084C269.887 79.627 269.676 76.7417 269.465 73.8603C269.392 72.8612 269.315 71.8352 269.004 70.9596C268.463 69.4205 267.334 68.6722 266.253 68.2749C263.498 67.2604 260.432 67.9509 258.172 70.6587C257.57 71.38 257.019 72.2595 256.728 73.3627C256.276 75.0638 256.502 77.0001 256.735 78.8092C256.949 80.4756 257.165 82.1458 257.378 83.8121C257.626 85.7292 258 87.9202 259.124 88.7302C259.719 89.1622 260.442 89.1121 260.974 89.7177C261.913 90.79 261.702 93.0735 262.149 94.763Z" fill="#FCCCBA"/>
<path d="M253.318 58.1226C253.672 58.0223 254.034 57.9027 254.398 57.652C255.553 56.8536 256.362 55.2528 257.587 54.5006C260.068 52.9847 263.178 53.2046 265.615 54.8323C267.946 56.3907 271.128 56.9886 273.216 59.0831C274.087 59.9587 274.762 61.2625 275.272 62.6858C277.044 67.6116 276.826 74.169 274.738 78.7708C274.269 79.8045 273.718 80.7341 273.145 81.6213C271.956 83.4574 270.531 85.7255 268.96 86.3079C268.999 84.1093 270.499 77.3011 269.502 75.411C268.179 72.9038 265.581 72.9655 263.722 73.2432C261.506 73.575 259.68 72.4409 257.469 72.6184C256.342 72.7071 255.067 73.0697 254.206 71.9163C253.209 70.5856 251.097 66.3541 250.596 64.4949C250.157 62.8709 250.451 60.8652 251.213 59.5768C251.869 58.4621 252.577 58.3348 253.318 58.1226Z" fill="#35445B"/>
<path d="M252.048 144.846C252.048 144.063 252.14 143.284 252.329 142.559C253.174 139.311 262.054 98.6591 262.054 98.6591C262.054 98.6591 262.411 96.553 262.578 94.7015L265.423 94.4199L264.955 99.0371L263.622 100.858C263.622 100.858 258.163 145.626 258.131 146.412L254.085 154.366L252.048 144.846Z" fill="#3B5366"/>
<path d="M240.486 222.695C241.442 219.281 244.136 217.587 246.389 219.632C250.468 223.331 254.485 226.556 259.044 222.617C264.588 217.827 266.642 205.973 263.442 197.337C259.498 186.687 252.327 187.998 246.528 193.745C244.268 195.987 241.466 194.316 240.486 190.822V148.526H240.126H230.661H214.181C211.77 147.188 210.545 142.501 212.018 138.74C215.633 129.521 216.453 118.127 209.748 111.863C204.31 106.786 196.851 110.054 193.841 118.867C191.365 126.115 193.397 132.495 195.727 138.972C197.07 142.702 195.853 147.188 193.523 148.522H167.524V188.095C167.524 193.317 163.91 196.503 161.12 193.738C155.321 187.99 148.15 186.679 144.206 197.329C141.006 205.965 143.06 217.819 148.604 222.61C153.163 226.548 157.18 223.323 161.259 219.624C164.05 217.094 167.521 220.291 167.521 225.398V264.454H193.091C195.642 263.377 197.038 258.633 195.632 254.726C193.302 248.245 191.27 241.865 193.746 234.621C196.756 225.807 204.216 222.536 209.654 227.616C216.359 233.877 215.538 245.275 211.923 254.494C210.374 258.444 211.802 263.416 214.453 264.457H229.873H240.121H240.48V222.695H240.486Z" fill="#3FBEB0"/>
<path d="M118.338 148.993C116.16 147.45 115.08 143.11 116.384 139.481C118.743 132.908 120.801 126.435 118.289 119.091C115.233 110.157 107.668 106.848 102.156 111.997C95.3584 118.35 96.1963 129.907 99.8616 139.253C101.291 142.894 100.226 147.407 97.9951 148.989L71.0032 148.985V149.567V164.815L71.0007 191.373C70.1465 195.257 67.1559 197.232 64.7553 194.856C58.8731 189.032 51.6003 187.709 47.6022 198.509C44.3614 207.269 46.4467 219.288 52.0712 224.141C56.6957 228.129 60.7666 224.858 64.9028 221.105C67.2846 218.945 70.1465 220.904 70.9988 224.658V266.548L96.2522 266.552C96.3005 266.552 96.3469 266.563 96.3953 266.567H97.99C100.219 264.986 101.284 260.473 99.8572 256.831C96.1888 247.485 95.3541 235.932 102.151 229.576C107.664 224.422 115.228 227.732 118.284 236.669C120.797 244.014 118.738 250.486 116.379 257.059C115.075 260.689 116.155 265.032 118.333 266.571H119.918C119.967 266.567 120.012 266.556 120.064 266.556L144.987 266.559L144.99 225.36C144.383 220.7 141.545 218.879 138.783 221.263C134.597 224.874 130.888 228.087 126.263 224.098C120.639 219.246 118.241 207.427 121.481 198.667C125.477 187.863 132.75 189.19 138.634 195.014C141.154 197.51 144.329 195.211 144.994 190.937L144.997 166.092V149.575V148.993H118.338Z" fill="#EF7550"/>
<path d="M46.5631 96.1713L44.2764 125.541L62.7377 148.245L60.2252 157.742L34.2313 139.852L32.4956 132.889L34.792 92.9736L46.5631 96.1713Z" fill="#F15B48"/>
<path d="M60.4194 157.012C60.4194 157.012 61.8395 151.643 62.0313 150.925C62.2231 150.204 69.6876 149.498 69.6876 149.498L68.8259 155.469L63.8225 159.207L60.4194 157.012Z" fill="#F8C3A5"/>
<path d="M264.115 110.674L264.651 138.898L239.303 147.62L240.44 156.765L268.482 153.996L273.675 146.296L277.158 119.191L264.115 110.674Z" fill="#F15C48"/>
<path d="M240.337 155.94L236.585 159.365L232.472 156.198L236.558 145.857L239.304 147.62L240.337 155.94Z" fill="#F8C3A5"/>
<path d="M130.199 19.7695H170.801C172.59 19.7695 174.042 22.0761 174.042 24.919V30.2536C174.042 33.0964 172.59 35.4031 170.801 35.4031H130.199C128.409 35.4031 126.958 33.0964 126.958 30.2536V24.919C126.958 22.0723 128.409 19.7695 130.199 19.7695Z" fill="#E3EAF6"/>
<path d="M132.548 22.458H168.604C168.881 22.458 169.104 22.8129 169.104 23.2526V24.0742C169.104 24.514 168.881 24.8688 168.604 24.8688H132.548C132.272 24.8688 132.048 24.514 132.048 24.0742V23.2526C132.048 22.8129 132.272 22.458 132.548 22.458Z" fill="#7DB3E1"/>
<path d="M132.548 26.3809H168.604C168.881 26.3809 169.104 26.7358 169.104 27.1755V27.9971C169.104 28.4368 168.881 28.7917 168.604 28.7917H132.548C132.272 28.7917 132.048 28.4368 132.048 27.9971V27.1755C132.048 26.7358 132.272 26.3809 132.548 26.3809Z" fill="#7DB3E1"/>
<path d="M132.548 30.2998H168.604C168.881 30.2998 169.104 30.6547 169.104 31.0944V31.916C169.104 32.3558 168.881 32.7106 168.604 32.7106H132.548C132.272 32.7106 132.048 32.3558 132.048 31.916V31.0944C132.048 30.6547 132.272 30.2998 132.548 30.2998Z" fill="#7DB3E1"/>
<path d="M130.618 39.376H170.867C172.272 39.376 173.411 41.1851 173.411 43.4184V91.492C173.411 93.7254 172.272 95.5345 170.867 95.5345H130.618C129.213 95.5345 128.075 93.7254 128.075 91.492V43.4184C128.075 41.1851 129.213 39.376 130.618 39.376Z" fill="#E3EAF6"/>
<path d="M133.949 44.5986H167.311C168.267 44.5986 169.042 45.8291 169.042 47.3489C169.042 48.8687 168.267 50.0992 167.311 50.0992H133.949C132.993 50.0992 132.218 48.8687 132.218 47.3489C132.218 45.8291 132.993 44.5986 133.949 44.5986Z" fill="#7DB3E1"/>
<path d="M137.452 80.673H134.345C133.614 80.673 133.021 79.7319 133.021 78.5708V78.567C133.019 77.4059 133.611 76.4647 134.342 76.4609H134.345H137.452C138.182 76.4609 138.775 77.4021 138.775 78.5631V78.567C138.777 79.728 138.185 80.6692 137.454 80.673H137.452Z" fill="#7DB3E1"/>
<path d="M167.602 80.673H164.495C163.764 80.673 163.172 79.7319 163.172 78.5708V78.567C163.169 77.4059 163.762 76.4647 164.492 76.4609H164.495H167.602C168.333 76.4609 168.925 77.4021 168.925 78.5631V78.567C168.927 79.728 168.335 80.6692 167.604 80.673H167.602Z" fill="#8271B3"/>
<path d="M133.199 55.5996H168.517C169.25 55.5996 169.845 56.5447 169.845 57.7057C169.845 58.8706 169.25 59.8118 168.517 59.8118H133.199C132.466 59.8118 131.871 58.8668 131.871 57.7057C131.871 56.5408 132.466 55.5996 133.199 55.5996Z" fill="#F9FCFD"/>
<path d="M133.199 62.752H168.517C169.25 62.752 169.845 63.697 169.845 64.8581C169.845 66.023 169.25 66.9642 168.517 66.9642H133.199C132.466 66.9642 131.871 66.0191 131.871 64.8581C131.871 63.6932 132.466 62.752 133.199 62.752Z" fill="#F9FCFD"/>
<path d="M135.801 69.625H166.034C166.201 69.625 166.337 69.841 166.337 70.1072C166.337 70.3733 166.201 70.5893 166.034 70.5893H135.801C135.634 70.5893 135.498 70.3733 135.498 70.1072C135.498 69.841 135.634 69.625 135.801 69.625Z" fill="#CFD3EB"/>
</g>
<defs>
<clipPath id="clip0_2573_66715">
<rect width="300" height="325" fill="white" transform="translate(0.5 0.830078)"/>
</clipPath>
</defs>
</svg>
