<svg width="381" height="348" viewBox="0 0 381 348" fill="none" xmlns="http://www.w3.org/2000/svg">
<g clip-path="url(#clip0_2655_207355)">
<path fill-rule="evenodd" clip-rule="evenodd" d="M61.5033 347.451C27.9498 347.451 0.499512 315.61 0.499512 276.697C0.499512 237.785 27.9498 205.944 61.5033 205.944C75.691 205.944 87.2983 192.486 87.2983 176.029C87.2983 159.577 75.691 146.115 61.5033 146.115H58.4348C43.6853 146.115 31.6171 132.119 31.6171 115.01C31.6171 97.9057 43.6853 83.9097 58.4348 83.9097H67.8553C73.595 83.9097 78.285 78.4623 78.285 71.7995C78.285 65.1404 73.5748 59.6929 67.8553 59.6929H60.9313C56.968 59.6929 53.7247 55.9324 53.7247 51.3359C53.7247 46.7393 56.968 42.9788 60.9313 42.9788H107.438C113.665 42.9788 118.762 37.0857 118.762 29.8483C118.762 22.6256 113.665 16.7179 107.438 16.7179H93.5394C89.576 16.7179 86.3361 12.9537 86.3361 8.36077C86.3361 3.76787 89.576 0.00368114 93.5394 0.00368114H291.512C296.683 0.00368114 300.913 4.91333 300.913 10.9095C300.913 16.9057 296.68 21.8154 291.512 21.8154H277.005C268.879 21.8154 262.231 29.5279 262.231 38.9494C262.231 48.3746 268.879 56.0835 277.005 56.0835H338.17C343.341 56.0835 347.57 60.9931 347.57 66.9893C347.57 72.9855 343.341 77.8951 338.17 77.8951H329.153C321.661 77.8951 315.531 85.0036 315.531 93.6959C315.531 102.384 321.661 109.493 329.153 109.493H341.44C360.688 109.493 376.43 127.758 376.43 150.081C376.43 172.401 360.685 190.666 341.44 190.666H337.436C318.932 190.666 303.792 208.231 303.792 229.708C303.792 251.177 318.932 268.749 337.436 268.749H346.11C364.775 268.749 380.047 286.461 380.047 308.104C380.047 329.753 364.775 347.466 346.11 347.466L61.5033 347.451ZM315.571 21.8117C320.762 21.8117 324.991 16.9315 324.991 10.9058C324.991 4.88018 320.779 0 315.571 0C310.363 0 306.15 4.88387 306.15 10.9058C306.15 16.9278 310.36 21.8117 315.571 21.8117ZM40.6976 59.6929C44.6777 59.6929 47.9043 55.9509 47.9043 51.3359C47.9043 46.7209 44.6777 42.9788 40.6976 42.9788C36.7176 42.9788 33.491 46.7209 33.491 51.3359C33.491 55.9509 36.731 59.6929 40.7111 59.6929H40.6976Z" fill="#FED96A"/>
<path d="M65.7695 322.593H306.814C306.814 325.906 305.612 329.082 303.472 331.425C301.332 333.767 298.431 335.083 295.405 335.083H77.1817C75.6831 335.083 74.1992 334.761 72.8147 334.133C71.4301 333.506 70.172 332.586 69.1122 331.426C68.0524 330.266 67.2118 328.889 66.6382 327.374C66.0648 325.858 65.7695 324.234 65.7695 322.593Z" fill="#D3D3D3"/>
<path d="M306.8 165.16V322.593H65.7725V165.16C65.7725 163.593 66.0545 162.042 66.6023 160.594C67.1502 159.146 67.9532 157.831 68.9655 156.723C69.9778 155.615 71.1794 154.737 72.5019 154.138C73.8244 153.538 75.2419 153.23 76.6733 153.23H295.916C298.804 153.234 301.572 154.493 303.613 156.73C305.654 158.967 306.8 161.999 306.8 165.16Z" fill="black"/>
<path d="M309.447 165.525V322.593H68.4204V165.525C68.4204 163.91 68.7111 162.31 69.276 160.818C69.8408 159.326 70.6685 157.971 71.7121 156.829C72.7557 155.687 73.9945 154.782 75.3578 154.164C76.7211 153.547 78.1822 153.23 79.6576 153.23H298.231C301.207 153.234 304.06 154.531 306.163 156.837C308.266 159.142 309.447 162.267 309.447 165.525Z" fill="black"/>
<path d="M300.418 162.663V313.886C300.422 313.938 300.409 313.99 300.379 314.03C300.349 314.071 300.306 314.097 300.26 314.104H76.9931C76.9452 314.098 76.9012 314.072 76.8704 314.032C76.8395 313.991 76.8245 313.939 76.8282 313.886V162.663C76.8255 162.612 76.8412 162.562 76.872 162.523C76.9029 162.485 76.9464 162.461 76.9931 162.457H300.26C300.305 162.462 300.347 162.486 300.378 162.525C300.407 162.563 300.421 162.613 300.418 162.663Z" fill="#91B1DD"/>
<path d="M300.418 162.663V313.886C300.423 313.938 300.409 313.99 300.38 314.03C300.349 314.071 300.307 314.097 300.26 314.104H120.915C120.892 314.101 120.869 314.094 120.848 314.082C120.826 314.07 120.808 314.053 120.792 314.033C120.777 314.012 120.765 313.989 120.758 313.964C120.751 313.939 120.748 313.913 120.751 313.886V162.663C120.749 162.638 120.752 162.612 120.759 162.588C120.767 162.564 120.778 162.541 120.794 162.522C120.81 162.503 120.828 162.487 120.849 162.476C120.87 162.465 120.893 162.458 120.915 162.457H300.26C300.306 162.462 300.348 162.486 300.378 162.525C300.407 162.563 300.422 162.613 300.418 162.663Z" fill="#D4E0F3"/>
<path d="M68.4204 322.593H309.465C309.465 325.906 308.262 329.082 306.123 331.425C303.984 333.767 301.082 335.083 298.055 335.083H79.8326C76.8067 335.083 73.9048 333.767 71.7653 331.425C69.6257 329.082 68.4238 325.906 68.4238 322.593H68.4204Z" fill="#F4F4F4"/>
<g style="mix-blend-mode:multiply">
<path d="M266.794 227.755C266.918 227.387 273.557 215.001 272.605 214.102C271.652 213.203 269.577 215.004 269.577 215.004L270.676 212.058C270.686 211.967 270.676 211.875 270.649 211.789C270.621 211.703 270.575 211.625 270.515 211.561C270.455 211.498 270.383 211.45 270.304 211.422C270.224 211.393 270.14 211.385 270.057 211.398C267.87 211.859 264.096 217.719 263.85 218.105L265.229 213.63C265.239 213.596 265.241 213.56 265.235 213.525C265.229 213.49 265.215 213.458 265.194 213.43C265.173 213.403 265.146 213.381 265.116 213.368C265.086 213.355 265.053 213.35 265.021 213.354C260.869 213.796 251.049 231.114 250.036 232.908C249.319 230.562 246.588 222.087 244.339 222.658C241.739 223.324 243.825 248.683 243.825 248.683L241.268 253.685C241.057 253.696 240.848 253.724 240.643 253.769L238.223 258.712L235.532 259.924C233.849 261.519 231.212 267.191 229.062 272.322L228.91 272.156C228.348 271.537 227.79 270.889 227.229 270.229C220.516 262.208 214.51 251.711 210.954 245.085C208.513 240.44 205.65 236.077 202.409 232.061C203.418 228.234 202.459 222.606 197.42 217.667C189.039 209.457 195.825 206.717 197.42 196.942C198.56 189.944 196.46 184.139 195.182 181.425C194.918 180.853 194.624 180.298 194.301 179.764L193.652 177.922C199.162 166.991 194.833 154.059 190.385 149.068C185.778 143.927 180.446 144.114 180.446 144.114C169.488 136.748 159.505 143.695 159.505 143.695C159.505 143.695 143.895 143.131 140.1 163.668C139.673 165.919 139.49 168.217 139.552 170.515C139.552 170.515 137.021 185.708 138.243 194.169C139.464 202.629 125.27 205.73 125.492 216.455C125.714 227.181 130.909 229.523 126.558 234.971C123.783 238.444 124.085 244.407 127.567 246.138C127.66 246.24 127.76 246.336 127.863 246.425C126.518 251.545 125.28 257.961 124.163 264.804C121.286 279.099 118.392 296.778 118.672 308.774C118.312 312.516 118.12 314.766 118.12 314.766H181.933V314.696H250.887C253.945 310.479 258.201 282.075 257.616 274.008C257.03 265.942 255.137 265.364 255.137 265.364L256.028 260.801C255.241 260.119 254.483 259.508 253.754 258.959L255.271 253.593L256.842 250.959C259.178 249.435 261.426 247.754 263.571 245.924C264.13 245.442 264.853 244.388 265.671 242.956C269.839 235.637 273.304 220.975 273.304 220.975C271.416 219.188 266.794 227.755 266.794 227.755Z" fill="#B7B7B8"/>
</g>
<path d="M193.059 179.112C193.059 179.112 197.77 186.515 196.175 196.29C194.58 206.065 187.797 208.813 196.175 217.019C204.552 225.225 201.649 235.354 197.214 235.917C192.78 236.481 174.451 232.072 174.451 232.072L168.364 205.351L178.818 183.657L191.343 174.287L193.059 179.112Z" fill="#722C14"/>
<path d="M138.299 169.86C138.299 169.86 135.77 185.053 136.988 193.513C138.205 201.973 124.015 205.067 124.26 215.8C124.505 226.533 129.68 228.868 125.33 234.311C120.979 239.755 124.186 251.32 135.325 243.111C146.465 234.901 162.914 206.901 162.914 206.901L161.464 183.443L138.299 169.86Z" fill="#722C14"/>
<path style="mix-blend-mode:multiply" opacity="0.6" d="M141.463 180.158C141.463 180.158 142.882 187.948 142.257 192.593C141.415 198.791 136.608 200.382 135.386 206.331C133.65 214.802 128.977 211.778 127.833 218.485C126.689 225.192 129.74 233.398 127.299 237.59C124.856 241.781 123.863 247.14 130.959 246.798C138.055 246.455 174.155 214.124 174.155 214.124C174.155 214.124 175.07 206.758 169.347 199.627C163.624 192.497 164.081 183.208 164.081 183.208L141.463 180.158Z" fill="url(#paint0_linear_2655_207355)"/>
<path d="M264.436 242.286C263.618 243.722 262.895 244.772 262.336 245.254C260.19 247.084 257.943 248.767 255.607 250.293L254.036 252.926L243.092 291.566L230.643 271.545L242.566 248.024C242.566 248.024 240.48 222.666 243.081 222.003C245.329 221.432 248.061 229.907 248.777 232.253C248.881 232.621 248.945 232.846 248.945 232.846C248.945 232.846 257.276 234.632 258.252 243.114C258.248 243.114 262.137 241.162 264.436 242.286Z" fill="#FBB895"/>
<path d="M272.066 220.316C272.066 220.316 268.594 234.982 264.436 242.286C263.618 243.722 262.895 244.772 262.336 245.254C260.19 247.084 257.943 248.767 255.607 250.293L254.036 252.926L243.606 230.242L248.693 232.404L248.774 232.253C249.784 230.455 259.608 213.141 263.76 212.699C263.792 212.695 263.825 212.7 263.855 212.713C263.885 212.726 263.911 212.747 263.932 212.775C263.952 212.802 263.967 212.835 263.973 212.87C263.98 212.905 263.978 212.941 263.968 212.975L262.622 217.439C262.867 217.052 266.643 211.178 268.826 210.728C268.909 210.715 268.994 210.722 269.073 210.75C269.153 210.778 269.226 210.826 269.286 210.89C269.346 210.953 269.392 211.031 269.42 211.118C269.449 211.204 269.458 211.296 269.449 211.388L268.348 214.334C268.348 214.334 270.404 212.515 271.376 213.435C272.349 214.356 265.691 226.721 265.566 227.089C265.566 227.1 270.172 218.529 272.066 220.316Z" fill="#FBB895"/>
<path d="M221.546 287.739L224.183 280.87C224.183 280.87 231.003 262.373 234.277 259.272L236.968 258.064L239.387 253.118C239.387 253.118 244.945 251.644 254.769 260.141L253.878 264.709C253.878 264.709 255.759 265.287 256.351 273.353C256.943 281.419 252.69 309.816 249.622 314.037L221.546 287.739Z" fill="#F15B47"/>
<path d="M249.642 314.037H198.52L196.165 236.768L199.92 229.991C199.92 229.991 204.559 234.838 209.7 244.433C213.256 251.063 219.261 261.56 225.97 269.578C226.526 270.241 227.087 270.884 227.652 271.508C230.135 274.27 232.699 276.631 235.242 278.292L249.642 314.037Z" fill="url(#paint1_linear_2655_207355)"/>
<path style="mix-blend-mode:multiply" opacity="0.6" d="M193.94 180.777C193.94 180.777 193.964 180.991 193.991 181.392C194.377 188.722 193.031 196.037 190.085 202.633C185.039 213.682 186.656 225.63 192.073 229.991C197.49 234.352 175.019 226.949 175.019 226.949L168.364 204.091L175.12 186.604L186.222 171.621" fill="url(#paint2_linear_2655_207355)"/>
<path d="M149.799 221.973C149.799 221.973 138.908 230.142 128.196 240.304C128.196 240.304 143.444 263.622 142.175 314.037H198.519L205.945 274.495C206.836 266.252 206.345 257.9 204.494 249.851L199.929 229.991C199.929 229.991 193.5 227.642 180.079 222.172L149.799 221.973Z" fill="#F15B47"/>
<path d="M181.873 297.006L192.003 277.117L202.803 267.707C202.919 267.605 203.058 267.542 203.206 267.524C203.354 267.506 203.503 267.534 203.637 267.605C203.771 267.676 203.883 267.786 203.962 267.924C204.04 268.062 204.082 268.222 204.081 268.385V269.49C204.082 271.172 203.529 272.799 202.523 274.071L197.658 280.204L197.016 283.025L204.982 279.64C204.982 279.64 209.225 286.977 205.881 303.625L185.829 308.152L181.873 297.006Z" fill="#FBB895"/>
<path d="M204.855 283.887L204.983 279.655L212.048 275.972C212.048 275.972 217.704 267.085 221.044 268.072L222.33 269.059L215.005 280.348L206.258 287.117L204.855 283.887Z" fill="#FBB895"/>
<path d="M216.035 274.856L214.877 284.432L213.081 287.128V292.775L210.251 298.417L209.413 300.756C209.232 301.264 208.957 301.726 208.605 302.112C208.253 302.498 207.832 302.8 207.368 302.999L205.881 303.636L204.084 290.517L211.28 280.359L216.035 274.856Z" fill="#FBB895"/>
<path d="M215.457 279.666L214.376 280.904L207.166 286.163L207.435 287.128L214.312 281.681L215.457 279.666Z" fill="#F4A57E"/>
<path d="M213.081 287.128L208.657 291.555V292.859L213.081 288.1V287.128Z" fill="#F4A57E"/>
<path d="M128.271 240.293C128.271 240.293 114.655 293.533 117.912 314.037H146.264L152.656 289.599C152.656 289.599 151.233 242.363 128.271 240.293Z" fill="#F15B47"/>
<path d="M134.689 314.037C134.689 314.037 142.199 302.756 170.016 293.393C171.044 293.047 172.151 293.113 173.138 293.577L177.364 295.566L181.879 292.863C181.879 292.863 183.316 302.549 191.114 310.884L188.651 314.037H134.689Z" fill="#F15B47"/>
<path d="M140.692 247.678C140.692 247.678 153.289 263.235 155.549 289.246L149.225 302.479L152.639 289.588C152.639 289.588 150.587 269.523 140.692 247.678Z" fill="#F0493C"/>
<path d="M149.224 302.479C149.224 302.479 139.83 304.321 133.496 309.897L149.224 302.479Z" fill="#F0493C"/>
<path d="M149.097 302.428C149.097 302.428 140.042 305.743 134.505 312.262L149.097 302.428Z" fill="#F0493C"/>
<path d="M177.357 295.566C177.357 295.566 180.721 310.608 187.655 314.037H179.198C179.198 314.037 175.924 305.378 177.357 295.566Z" fill="#F0493C"/>
<path d="M175.53 209.822C175.53 209.822 183.427 217.686 179.231 236.768L169.266 213.502L175.53 209.822Z" fill="#F04E3C"/>
<path d="M152.023 215.196L150.95 209.616C150.95 209.616 152.81 206.327 164.442 206.028C176.073 205.73 161.336 215.196 161.336 215.196L156.29 217.888L152.023 215.196Z" fill="#D13030"/>
<path d="M175.668 212.603C175.668 212.603 181.051 223.284 179.218 236.768L174.171 219.38L175.668 212.603Z" fill="#D13030"/>
<path d="M156.515 189.672L155.152 219.167C155.152 219.167 162.412 231.87 179.06 235.918C179.584 229.781 178.502 223.608 175.938 218.121L175.029 199.487C175.029 199.487 172.58 177.812 156.515 189.672Z" fill="#FBB895"/>
<path d="M187.848 160.87C187.658 160.03 187.347 159.23 186.926 158.498C184.312 154.571 181.88 158.833 181.88 158.833C181.88 158.833 181.402 155.706 183.921 155.179C186.442 154.652 187.367 158.807 187.848 160.87Z" fill="url(#paint3_linear_2655_207355)"/>
<path d="M181.873 158.847C177.661 155.713 174.76 156.729 173.616 165.075C173.489 165.985 173.387 166.987 173.303 168.081C173.27 168.534 173.236 169.005 173.213 169.491C173.179 170.051 173.155 170.63 173.135 171.23C173.097 173.966 172.273 176.619 170.78 178.814C170.615 179.053 170.443 179.285 170.262 179.51C169.692 180.219 169.056 180.862 168.364 181.429C168.516 181.241 170.941 178.114 171.032 171.992C171.133 165.668 170.77 156.774 176.563 155.389C177.661 155.334 178.748 155.633 179.691 156.247C180.635 156.862 181.393 157.766 181.873 158.847Z" fill="url(#paint4_linear_2655_207355)"/>
<path d="M149.665 222.172L150.95 209.616C150.949 209.574 150.958 209.532 150.975 209.494C150.993 209.456 151.018 209.424 151.049 209.399C151.081 209.374 151.118 209.358 151.155 209.353C151.194 209.347 151.233 209.351 151.269 209.365C153.961 210.382 176.186 219.848 179.218 236.768C179.218 236.768 158.106 230.691 149.665 222.172Z" fill="#F04E3C"/>
<path d="M191.71 166.921C191.71 166.921 192.938 198.007 182.102 205.333C180.93 206.188 179.62 206.792 178.242 207.112C172.789 208.139 162.093 206.478 157.03 195.543C150.974 182.508 153.938 162.917 153.938 162.917L172.537 150.855L173.209 151.161L184.82 156.383L191.71 166.921Z" fill="#F9A981"/>
<path d="M191.711 166.921C191.843 171.113 191.761 175.31 191.465 179.491C191.251 182.759 190.866 186.011 190.31 189.23C189.032 196.515 186.462 202.375 182.101 205.321C180.904 206.123 179.603 206.723 178.242 207.1C171.392 208.11 162.749 204.239 158.056 194.15C152.01 181.127 148.821 163.61 148.821 163.61L173.202 151.161L186.024 154.24L191.711 166.921Z" fill="#FBB895"/>
<path d="M159.923 207.911C154.038 214.5 153.244 215.203 155.145 225.686C157.046 236.168 150.462 230.713 150.964 239.796C151.411 247.917 141.307 248.23 141.325 240.856C141.342 239.854 141.499 238.86 141.792 237.91C144.82 227.63 152.135 228.26 149.833 220.422C147.532 212.585 146.806 205.785 150.964 202.489C155.122 199.193 156.831 181.547 155.549 178.475C154.735 176.534 156.804 175.841 158.429 175.591C159.002 175.504 159.58 175.458 160.158 175.455C160.158 175.455 162.426 185.182 160.249 189.672C158.072 194.161 165.814 201.325 159.923 207.911Z" fill="#722C14"/>
<path style="mix-blend-mode:multiply" opacity="0.6" d="M157.396 203.133C151.512 209.719 150.718 210.422 152.619 220.905C154.52 231.387 147.936 225.936 148.437 235.015C148.737 240.462 144.289 242.4 141.335 240.856C141.352 239.854 141.509 238.86 141.803 237.91C144.831 227.63 152.145 228.26 149.843 220.422C147.542 212.584 146.816 205.785 150.974 202.489C155.132 199.193 156.831 181.546 155.549 178.475C154.735 176.534 156.804 175.841 158.429 175.591C158.766 178.681 158.863 182.519 157.712 184.894C155.529 189.384 163.287 196.544 157.396 203.133Z" fill="url(#paint5_linear_2655_207355)"/>
<path d="M180.321 157.613C179.563 157.622 178.805 157.559 178.057 157.425C178.057 157.425 173.387 154.932 172.146 157.9C170.904 160.869 168.966 177.926 152.631 181.377L153.2 181.881L151.629 192.297C151.629 192.297 135.035 183.554 138.844 163.013C142.653 142.472 158.25 143.039 158.25 143.039C158.25 143.039 169.248 135.382 180.829 144.663C191.121 152.906 183.473 157.554 180.321 157.613Z" fill="#722C14"/>
<path d="M172.119 171.318C172.773 171.451 173.438 171.512 174.104 171.503C174.814 171.503 175.527 171.547 176.146 171.58C176.765 171.613 177.492 171.668 178.188 171.727C178.847 171.81 179.512 171.822 180.173 171.764C180.709 171.679 180.933 171.366 180.315 170.928C179.696 170.49 178.195 169.996 176.139 169.878C174.084 169.76 172.55 170.11 171.971 170.468C171.392 170.825 171.58 171.182 172.119 171.318Z" fill="#362E2A"/>
<path d="M186.35 172.261C186.738 172.316 187.13 172.316 187.518 172.261C187.931 172.221 188.349 172.188 188.709 172.165C189.069 172.143 189.493 172.129 189.906 172.118C190.295 172.131 190.685 172.089 191.064 171.992C191.37 171.886 191.481 171.624 191.094 171.34C190.707 171.057 189.802 170.788 188.601 170.858C187.4 170.928 186.528 171.315 186.212 171.635C185.896 171.955 186.031 172.191 186.35 172.261Z" fill="#362E2A"/>
<path d="M191.319 180.777C191.112 183.914 190.739 187.035 190.202 190.125C189.84 188.698 189.726 187.21 189.866 185.738C189.992 183.983 190.489 182.284 191.319 180.777Z" fill="#F8A287"/>
<path d="M185.728 183.683L187.272 186.699C187.272 186.699 188.227 185.263 187.309 184.184C186.706 183.477 185.728 183.683 185.728 183.683Z" fill="#FBB895"/>
<path d="M185.492 188.53H185.408L184.315 188.71C184.251 188.714 184.188 188.691 184.14 188.644C184.091 188.598 184.061 188.533 184.056 188.463C184.033 188.309 184.11 188.154 184.224 188.147L185.318 187.966C185.491 187.925 185.652 187.836 185.785 187.707C185.917 187.578 186.017 187.413 186.074 187.229C186.255 186.735 186.301 186.194 186.206 185.671L186.166 185.546C186.094 185.101 185.829 184.773 185.59 184.81C185.389 184.831 185.186 184.797 185 184.712C184.815 184.626 184.65 184.491 184.523 184.32C184.197 183.915 183.982 183.417 183.905 182.883L183.531 180.489C183.519 180.423 183.529 180.354 183.56 180.295C183.591 180.237 183.64 180.193 183.699 180.172C183.763 180.17 183.825 180.195 183.873 180.242C183.92 180.288 183.95 180.353 183.955 180.423L184.329 182.813C184.384 183.223 184.545 183.606 184.793 183.918C184.876 184.034 184.985 184.125 185.108 184.184C185.23 184.243 185.366 184.268 185.499 184.257C185.98 184.176 186.468 184.729 186.59 185.484L186.616 185.649C186.732 186.297 186.673 186.968 186.444 187.579C186.364 187.807 186.236 188.012 186.071 188.177C185.905 188.342 185.707 188.462 185.492 188.53Z" fill="#F47F6E"/>
<path d="M176.808 179.355C176.872 180.46 176.274 181.41 175.463 181.469C174.652 181.528 173.955 180.666 173.891 179.558C173.827 178.449 174.427 177.499 175.237 177.443C176.048 177.388 176.744 178.243 176.808 179.355Z" fill="#362E2A"/>
<path d="M174.45 178.663C173.973 178.497 173.551 178.182 173.235 177.757C173.404 178.234 173.63 178.683 173.909 179.094C174.241 179.481 174.45 178.663 174.45 178.663Z" fill="#362E2A"/>
<path d="M187.283 179.458C187.283 180.467 187.777 181.333 188.419 181.388C189.062 181.443 189.594 180.673 189.607 179.664C189.62 178.655 189.116 177.789 188.473 177.734C187.831 177.679 187.299 178.449 187.283 179.458Z" fill="#362E2A"/>
<path d="M189.143 178.847C189.528 178.692 189.858 178.407 190.085 178.033C189.965 178.458 189.796 178.865 189.584 179.244C189.334 179.591 189.143 178.847 189.143 178.847Z" fill="#362E2A"/>
<path style="mix-blend-mode:multiply" opacity="0.6" d="M180.321 157.613C179.563 157.623 178.806 157.56 178.058 157.426C178.058 157.426 173.387 154.932 172.146 157.901C170.905 160.869 168.967 177.926 152.633 181.377L152.575 181.745C151.267 181.44 151.566 180.932 154.883 180.121C166.713 177.23 168.119 159.127 171.476 154.162C174.834 149.197 179.064 153.794 179.064 153.794L180.321 157.613Z" fill="url(#paint6_linear_2655_207355)"/>
<path style="mix-blend-mode:multiply" opacity="0.6" d="M147.65 180.777C147.65 180.777 141.755 170.169 144.652 154.24C144.652 154.24 137.136 169.827 142.812 184.762C144.353 186.763 146.169 188.49 148.195 189.882L147.65 180.777Z" fill="url(#paint7_linear_2655_207355)"/>
<path d="M155.337 180.699C155.337 180.699 153.598 174.85 148.717 176.685C143.834 178.519 143.905 187.447 147.586 191.705C151.266 195.962 155.219 191.491 155.219 191.491L155.337 180.699Z" fill="#FBB895"/>
<path d="M150.166 188.659C150.324 188.662 150.477 188.598 150.593 188.478L153.258 185.76L149.863 181.038C149.812 180.964 149.748 180.902 149.674 180.857C149.6 180.812 149.518 180.785 149.434 180.777C149.349 180.769 149.264 180.782 149.185 180.813C149.105 180.844 149.032 180.893 148.971 180.957C148.841 181.093 148.762 181.276 148.748 181.472C148.735 181.668 148.787 181.863 148.897 182.018L151.481 185.598L149.776 187.34C149.647 187.477 149.569 187.66 149.556 187.856C149.543 188.052 149.596 188.246 149.705 188.401C149.759 188.478 149.83 188.541 149.909 188.586C149.989 188.63 150.076 188.655 150.166 188.659Z" fill="#F47F6E"/>
<path d="M185.328 193.819C185.328 193.819 182.942 193.675 179.151 193.042C179.151 193.042 177.734 199.251 180.755 199.531C183.777 199.811 185.328 193.819 185.328 193.819Z" fill="#F47F6E"/>
<path d="M169.969 164.011L161.138 161.455C161.082 161.434 161.022 161.438 160.969 161.465C160.917 161.492 160.875 161.541 160.854 161.6C160.833 161.66 160.834 161.726 160.857 161.785C160.88 161.843 160.922 161.89 160.976 161.915L169.087 166.523C169.241 166.61 169.409 166.661 169.581 166.672C169.752 166.683 169.925 166.655 170.087 166.588C170.248 166.522 170.395 166.419 170.518 166.287C170.64 166.154 170.737 165.995 170.8 165.82C170.864 165.642 170.893 165.451 170.886 165.26C170.878 165.069 170.833 164.882 170.755 164.711C170.676 164.541 170.565 164.39 170.43 164.269C170.295 164.149 170.138 164.061 169.969 164.011Z" fill="#EC4847"/>
<path d="M168.361 168.063L160.492 163.175C160.26 163.031 160.034 163.304 160.232 163.492L166.961 169.79C167.208 170.032 167.528 170.166 167.86 170.166C168.191 170.166 168.511 170.032 168.758 169.79C169.179 169.26 169.007 168.457 168.361 168.063Z" fill="#EC4847"/>
<path d="M179.198 143.459C179.198 143.459 184.533 143.264 189.143 148.435C193.752 153.606 198.227 167.311 191.771 178.478C191.771 178.478 188.901 158.302 183.915 155.194L179.198 143.459Z" fill="#722C14"/>
<path d="M227.659 271.508C225.58 275.629 220.351 286.542 218.458 295.533C218.458 295.533 221.149 275.729 225.984 269.578C226.54 270.241 227.098 270.884 227.659 271.508Z" fill="#B02D2D"/>
<g style="mix-blend-mode:multiply">
<g style="mix-blend-mode:multiply">
<path d="M108.925 179.653H87.6754C87.4582 179.653 87.2431 179.7 87.0425 179.791C86.8418 179.882 86.6596 180.016 86.5061 180.184C86.3527 180.353 86.2311 180.552 86.1482 180.772C86.0655 180.992 86.023 181.228 86.0234 181.465V204.798C86.0234 205.278 86.1975 205.738 86.5073 206.077C86.8171 206.416 87.2373 206.607 87.6754 206.607H108.925C109.363 206.607 109.783 206.416 110.093 206.077C110.403 205.738 110.577 205.278 110.577 204.798V181.454C110.575 180.976 110.401 180.518 110.091 180.18C109.781 179.843 109.362 179.653 108.925 179.653Z" fill="#D4E0F3"/>
</g>
<g style="mix-blend-mode:multiply">
<path d="M108.882 210.301H87.7193C87.2732 210.301 86.8453 210.495 86.5298 210.84C86.2144 211.186 86.0371 211.654 86.0371 212.142V235.376C86.0371 235.864 86.2144 236.333 86.5298 236.678C86.8453 237.023 87.2732 237.217 87.7193 237.217H108.882C109.328 237.217 109.756 237.023 110.071 236.678C110.387 236.333 110.564 235.864 110.564 235.376V212.161C110.566 211.917 110.524 211.676 110.441 211.45C110.357 211.225 110.233 211.02 110.077 210.847C109.921 210.674 109.735 210.536 109.529 210.443C109.324 210.349 109.103 210.301 108.882 210.301Z" fill="#D4E0F3"/>
</g>
<g style="mix-blend-mode:multiply">
<path d="M109.12 240.959H87.4937C87.1034 240.96 86.7295 241.131 86.4539 241.433C86.1783 241.736 86.0234 242.145 86.0234 242.573V266.3C86.0234 266.727 86.1783 267.137 86.4539 267.439C86.7295 267.741 87.1034 267.912 87.4937 267.913H109.12C109.511 267.912 109.884 267.741 110.16 267.439C110.436 267.137 110.59 266.727 110.59 266.3V242.573C110.59 242.145 110.436 241.736 110.16 241.433C109.884 241.131 109.511 240.96 109.12 240.959Z" fill="#D4E0F3"/>
</g>
<g style="mix-blend-mode:multiply">
<path d="M108.609 271.614H87.9917C87.4694 271.615 86.9687 271.843 86.5997 272.248C86.2307 272.652 86.0234 273.201 86.0234 273.773V296.409C86.023 296.693 86.0736 296.973 86.1723 297.235C86.271 297.497 86.416 297.735 86.5987 297.935C86.7815 298.136 86.9987 298.295 87.2377 298.403C87.4767 298.512 87.7329 298.568 87.9917 298.568H108.609C108.868 298.568 109.123 298.512 109.363 298.403C109.602 298.295 109.819 298.136 110.002 297.935C110.185 297.735 110.329 297.497 110.428 297.235C110.526 296.973 110.578 296.693 110.577 296.409V273.773C110.577 273.201 110.369 272.652 110 272.248C109.631 271.843 109.131 271.615 108.609 271.614Z" fill="#D4E0F3"/>
</g>
</g>
<path d="M104.958 178.283H89.5019C86.9897 178.283 84.9531 180.513 84.9531 183.263V200.257C84.9531 203.007 86.9897 205.237 89.5019 205.237H104.958C107.47 205.237 109.507 203.007 109.507 200.257V183.263C109.507 180.513 107.47 178.283 104.958 178.283Z" fill="white"/>
<path d="M97.2941 191.767C99.944 191.767 102.092 189.409 102.092 186.5C102.092 183.591 99.944 181.233 97.2941 181.233C94.6441 181.233 92.4966 183.591 92.4966 186.5C92.4966 189.409 94.6441 191.767 97.2941 191.767Z" fill="#D4E0F3"/>
<path d="M97.244 191.768C99.028 191.768 100.74 192.544 102.002 193.925C103.264 195.307 103.973 197.18 103.973 199.134V205.222H90.4981V199.152C90.4959 198.182 90.6688 197.221 91.007 196.323C91.3453 195.426 91.842 194.611 92.4693 193.925C93.0959 193.239 93.8404 192.695 94.6598 192.325C95.4792 191.955 96.357 191.765 97.244 191.768Z" fill="#D4E0F3"/>
<path d="M104.834 208.942H89.6263C87.0454 208.942 84.9531 211.232 84.9531 214.058V230.779C84.9531 233.605 87.0454 235.895 89.6263 235.895H104.834C107.414 235.895 109.507 233.605 109.507 230.779V214.058C109.507 211.232 107.414 208.942 104.834 208.942Z" fill="white"/>
<path d="M97.2941 222.422C99.944 222.422 102.092 220.064 102.092 217.155C102.092 214.246 99.944 211.888 97.2941 211.888C94.6441 211.888 92.4966 214.246 92.4966 217.155C92.4966 220.064 94.6441 222.422 97.2941 222.422Z" fill="#D4E0F3"/>
<path d="M97.244 222.422C99.028 222.422 100.74 223.198 102.002 224.58C103.264 225.961 103.973 227.835 103.973 229.789V235.877H90.4981V229.807C90.4959 228.837 90.6688 227.875 91.007 226.978C91.3453 226.081 91.842 225.266 92.4693 224.58C93.0959 223.894 93.8404 223.35 94.6598 222.98C95.4792 222.609 96.357 222.42 97.244 222.422Z" fill="#D4E0F3"/>
<path d="M105.456 239.601H89.004C86.7667 239.601 84.9531 241.586 84.9531 244.035V262.119C84.9531 264.569 86.7667 266.554 89.004 266.554H105.456C107.693 266.554 109.507 264.569 109.507 262.119V244.035C109.507 241.586 107.693 239.601 105.456 239.601Z" fill="white"/>
<path d="M97.2941 253.081C99.944 253.081 102.092 250.723 102.092 247.814C102.092 244.905 99.944 242.547 97.2941 242.547C94.6441 242.547 92.4966 244.905 92.4966 247.814C92.4966 250.723 94.6441 253.081 97.2941 253.081Z" fill="#D4E0F3"/>
<path d="M97.244 253.081C99.028 253.081 100.74 253.857 102.002 255.239C103.264 256.62 103.973 258.494 103.973 260.447V266.536H90.4981V260.466C90.4959 259.495 90.6688 258.534 91.007 257.637C91.3453 256.74 91.842 255.925 92.4693 255.239C93.0959 254.552 93.8404 254.009 94.6598 253.638C95.4792 253.268 96.357 253.079 97.244 253.081Z" fill="#D4E0F3"/>
<path d="M104.086 270.255H90.3732C87.3798 270.255 84.9531 272.912 84.9531 276.189V291.275C84.9531 294.552 87.3798 297.209 90.3732 297.209H104.086C107.08 297.209 109.507 294.552 109.507 291.275V276.189C109.507 272.912 107.08 270.255 104.086 270.255Z" fill="white"/>
<path d="M97.2941 283.739C99.944 283.739 102.092 281.381 102.092 278.472C102.092 275.564 99.944 273.206 97.2941 273.206C94.6441 273.206 92.4966 275.564 92.4966 278.472C92.4966 281.381 94.6441 283.739 97.2941 283.739Z" fill="#D4E0F3"/>
<path d="M97.244 283.739C99.0279 283.739 100.74 284.515 102.001 285.897C103.264 287.278 103.973 289.152 103.973 291.106V297.194H90.498V291.124C90.498 289.17 91.207 287.297 92.4693 285.915C93.7308 284.534 95.4426 283.758 97.2266 283.758L97.244 283.739Z" fill="#D4E0F3"/>
<g style="mix-blend-mode:multiply" opacity="0.6">
<path d="M322.781 104.837H207.092C206.798 104.838 206.507 104.902 206.235 105.026C205.963 105.149 205.716 105.33 205.509 105.558C205.301 105.787 205.136 106.057 205.024 106.355C204.912 106.653 204.854 106.972 204.855 107.294V187.462C204.854 188.113 205.089 188.737 205.509 189.199C205.928 189.66 206.497 189.92 207.092 189.922H322.781C323.376 189.92 323.946 189.66 324.365 189.199C324.784 188.737 325.02 188.113 325.019 187.462V107.294C325.019 106.972 324.961 106.653 324.849 106.355C324.737 106.057 324.572 105.787 324.365 105.558C324.157 105.33 323.91 105.149 323.639 105.026C323.367 104.902 323.075 104.838 322.781 104.837Z" fill="#7088AB"/>
</g>
<path d="M195.424 15.1636H139.151C136.671 15.1636 134.659 17.365 134.659 20.0806V25.1744C134.659 27.89 136.671 30.0914 139.151 30.0914H195.424C197.905 30.0914 199.916 27.89 199.916 25.1744V20.0806C199.916 17.365 197.905 15.1636 195.424 15.1636Z" fill="#E3EBF7"/>
<path d="M192.38 17.731H142.408C142.025 17.731 141.715 18.0707 141.715 18.4897V19.2742C141.715 19.6932 142.025 20.0329 142.408 20.0329H192.38C192.763 20.0329 193.072 19.6932 193.072 19.2742V18.4897C193.072 18.0707 192.763 17.731 192.38 17.731Z" fill="#7CB4E2"/>
<path d="M192.38 21.4766H142.408C142.025 21.4766 141.715 21.8163 141.715 22.2353V23.0198C141.715 23.4388 142.025 23.7785 142.408 23.7785H192.38C192.763 23.7785 193.072 23.4388 193.072 23.0198V22.2353C193.072 21.8163 192.763 21.4766 192.38 21.4766Z" fill="#7CB4E2"/>
<path d="M192.38 25.2188H142.408C142.025 25.2188 141.715 25.5584 141.715 25.9775V26.7619C141.715 27.1809 142.025 27.5207 142.408 27.5207H192.38C192.763 27.5207 193.072 27.1809 193.072 26.7619V25.9775C193.072 25.5584 192.763 25.2188 192.38 25.2188Z" fill="#7CB4E2"/>
<path d="M195.515 33.8853H139.733C137.786 33.8853 136.207 35.6134 136.207 37.7452V83.6484C136.207 85.7802 137.786 87.5084 139.733 87.5084H195.515C197.462 87.5084 199.041 85.7802 199.041 83.6484V37.7452C199.041 35.6134 197.462 33.8853 195.515 33.8853Z" fill="#E3EBF7"/>
<path d="M190.586 38.8721H144.349C143.024 38.8721 141.95 40.0478 141.95 41.4982C141.95 42.9485 143.024 44.1243 144.349 44.1243H190.586C191.911 44.1243 192.984 42.9485 192.984 41.4982C192.984 40.0478 191.911 38.8721 190.586 38.8721Z" fill="#7CB4E2"/>
<path d="M149.204 73.3169H144.897C144.656 73.3169 144.418 73.2649 144.195 73.1638C143.973 73.0627 143.77 72.9145 143.6 72.7277C143.429 72.5409 143.294 72.3192 143.203 72.0752C143.111 71.8313 143.064 71.5698 143.064 71.3059C143.064 71.042 143.111 70.7806 143.203 70.5366C143.294 70.2927 143.429 70.0709 143.6 69.8842C143.77 69.6974 143.973 69.5492 144.195 69.4481C144.418 69.347 144.656 69.2949 144.897 69.2949H149.204C149.445 69.2949 149.684 69.347 149.907 69.4481C150.13 69.5492 150.331 69.6974 150.501 69.8842C150.672 70.0709 150.807 70.2927 150.899 70.5366C150.991 70.7806 151.038 71.042 151.038 71.3059C151.038 71.5698 150.991 71.8313 150.899 72.0752C150.807 72.3192 150.672 72.5409 150.501 72.7277C150.331 72.9145 150.13 73.0627 149.907 73.1638C149.684 73.2649 149.445 73.3169 149.204 73.3169Z" fill="#7CB4E2"/>
<path d="M190.99 73.3169H186.683C186.442 73.3169 186.204 73.2649 185.981 73.1638C185.758 73.0627 185.556 72.9145 185.385 72.7277C185.215 72.5409 185.08 72.3192 184.989 72.0752C184.897 71.8313 184.849 71.5698 184.85 71.3059C184.849 71.042 184.897 70.7806 184.989 70.5366C185.08 70.2927 185.215 70.0709 185.385 69.8842C185.556 69.6974 185.758 69.5492 185.981 69.4481C186.204 69.347 186.442 69.2949 186.683 69.2949H190.99C191.232 69.2949 191.47 69.347 191.693 69.4481C191.915 69.5492 192.118 69.6974 192.288 69.8842C192.458 70.0709 192.593 70.2927 192.685 70.5366C192.777 70.7806 192.824 71.042 192.824 71.3059C192.824 71.5698 192.777 71.8313 192.685 72.0752C192.593 72.3192 192.458 72.5409 192.288 72.7277C192.118 72.9145 191.915 73.0627 191.693 73.1638C191.47 73.2649 191.232 73.3169 190.99 73.3169Z" fill="#8371B3"/>
<path d="M192.259 49.3765H143.31C142.293 49.3765 141.469 50.2776 141.469 51.3893C141.469 52.501 142.293 53.4022 143.31 53.4022H192.259C193.275 53.4022 194.099 52.501 194.099 51.3893C194.099 50.2776 193.275 49.3765 192.259 49.3765Z" fill="#F9FCFD"/>
<path d="M192.259 56.2051H143.31C142.293 56.2051 141.469 57.1063 141.469 58.2179C141.469 59.3296 142.293 60.2308 143.31 60.2308H192.259C193.275 60.2308 194.099 59.3296 194.099 58.2179C194.099 57.1063 193.275 56.2051 192.259 56.2051Z" fill="#F9FCFD"/>
<path d="M188.816 62.7686H146.916C146.684 62.7686 146.496 62.9747 146.496 63.2289C146.496 63.4832 146.684 63.6893 146.916 63.6893H188.816C189.049 63.6893 189.237 63.4832 189.237 63.2289C189.237 62.9747 189.049 62.7686 188.816 62.7686Z" fill="#CFD3EB"/>
<path d="M321.065 103.272H211.658C208.686 103.272 206.277 105.909 206.277 109.161V182.467C206.277 185.72 208.686 188.357 211.658 188.357H321.065C324.036 188.357 326.445 185.72 326.445 182.467V109.161C326.445 105.909 324.036 103.272 321.065 103.272Z" fill="#597BBD"/>
<path d="M313.105 110.057H219.617C217.542 110.057 215.859 111.899 215.859 114.171V177.458C215.859 179.731 217.542 181.573 219.617 181.573H313.105C315.18 181.573 316.863 179.731 316.863 177.458V114.171C316.863 111.899 315.18 110.057 313.105 110.057Z" fill="#D4E0F3"/>
<path d="M227.121 159.65L224.516 154.037L218.959 155.588L225.724 139.194L233.89 143.256L227.121 159.65Z" fill="#F15B47"/>
<g style="mix-blend-mode:multiply">
<g style="mix-blend-mode:multiply">
<path d="M233.389 143.01L226.801 158.962L227.12 159.65L233.889 143.257L233.389 143.01Z" fill="#F15B47"/>
</g>
</g>
<path d="M239.131 159.37L241.517 153.643L247.132 154.932L239.74 138.87L231.74 143.308L239.131 159.37Z" fill="#F15B47"/>
<g style="mix-blend-mode:multiply">
<g style="mix-blend-mode:multiply">
<path d="M232.231 143.036L239.424 158.671L239.131 159.37L231.74 143.308L232.231 143.036Z" fill="#F15B47"/>
</g>
</g>
<g style="mix-blend-mode:multiply">
<g style="mix-blend-mode:multiply">
<path d="M240.191 139.875C239.24 140.976 238.098 141.859 236.832 142.473C235.566 143.087 234.201 143.42 232.817 143.452C231.433 143.484 230.057 143.215 228.768 142.661C227.48 142.106 226.304 141.277 225.31 140.222L224.23 142.822C224.904 142.859 225.677 142.723 226.135 143.043C226.499 143.297 226.707 143.886 226.935 144.443C227.165 144.999 227.373 145.43 227.743 145.592C228.51 145.92 229.671 144.752 230.499 144.91C231.195 145.047 231.844 146.222 232.544 146.516L232.86 145.754L233.197 146.49C233.893 146.163 234.485 144.958 235.178 144.793C236 144.594 237.197 145.706 237.957 145.345C238.718 144.984 238.788 143.242 239.464 142.723C239.909 142.38 240.703 142.483 241.359 142.413L240.191 139.875Z" fill="#F15B47"/>
</g>
</g>
<path d="M244.411 133.676C244.555 132.796 245.954 131.997 245.938 131.069C245.921 130.141 244.487 129.404 244.313 128.531C244.137 127.658 245.147 126.321 244.817 125.478C244.656 125.076 244.209 124.848 243.734 124.642C243.26 124.435 242.674 124.211 242.428 123.824C241.951 123.087 242.428 121.423 241.826 120.793C241.513 120.545 241.128 120.431 240.743 120.472C240.131 120.472 239.454 120.55 239.044 120.262C238.797 120.049 238.606 119.768 238.489 119.448C238.186 118.767 237.954 117.931 237.436 117.71C236.672 117.382 235.508 118.55 234.68 118.391C233.853 118.233 233.149 116.697 232.302 116.715C231.454 116.734 230.791 118.307 229.993 118.498C229.901 118.52 229.806 118.528 229.711 118.52C228.914 118.472 227.884 117.622 227.215 117.946C226.447 118.314 226.381 120.049 225.704 120.568C225.028 121.087 223.517 120.568 222.942 121.227C222.367 121.887 222.909 123.515 222.461 124.284C222.013 125.054 220.442 125.194 220.136 126.049C219.87 126.785 220.688 127.89 220.765 128.767C220.778 128.869 220.778 128.974 220.765 129.076C220.62 129.956 219.221 130.756 219.237 131.684C219.255 132.612 220.688 133.349 220.862 134.222C221.038 135.094 220.028 136.431 220.358 137.275C220.584 137.831 221.368 138.052 221.983 138.354C222.279 138.469 222.542 138.668 222.747 138.929C223.026 139.367 222.979 140.111 223.013 140.77C222.989 141.195 223.109 141.614 223.349 141.949C223.948 142.579 225.428 141.989 226.131 142.479C226.495 142.733 226.703 143.326 226.932 143.879C227.161 144.431 227.366 144.87 227.74 145.032C228.506 145.359 229.667 144.188 230.495 144.35C231.323 144.512 232.026 146.044 232.874 146.026C233.721 146.008 234.388 144.431 235.185 144.24C235.982 144.048 237.203 145.157 237.964 144.792C238.724 144.428 238.796 142.693 239.472 142.173C240.147 141.654 241.658 142.173 242.234 141.511C242.809 140.848 242.268 139.227 242.718 138.457C243.169 137.687 244.737 137.547 245.039 136.689C245.342 135.831 244.265 134.586 244.411 133.676ZM232.806 142.884C230.947 142.921 229.112 142.418 227.489 141.427C225.865 140.435 224.51 138.99 223.562 137.239C222.614 135.488 222.107 133.493 222.091 131.457C222.076 129.422 222.554 127.418 223.477 125.651C224.332 124.006 225.541 122.615 226.999 121.599C228.501 120.56 230.219 119.957 231.992 119.847C233.765 119.737 235.535 120.123 237.133 120.97C239.32 122.13 241.075 124.082 242.099 126.494C242.834 128.229 243.163 130.137 243.057 132.046C242.951 133.955 242.412 135.805 241.49 137.429C240.569 139.054 239.292 140.402 237.777 141.352C236.261 142.303 234.553 142.825 232.806 142.873V142.884Z" fill="#F15B47"/>
<path d="M232.584 143.194C238.53 143.194 243.35 137.902 243.35 131.374C243.35 124.847 238.53 119.555 232.584 119.555C226.638 119.555 221.818 124.847 221.818 131.374C221.818 137.902 226.638 143.194 232.584 143.194Z" fill="#F15B47"/>
<path d="M232.584 141.89C237.875 141.89 242.162 137.182 242.162 131.375C242.162 125.567 237.875 120.859 232.584 120.859C227.294 120.859 223.005 125.567 223.005 131.375C223.005 137.182 227.294 141.89 232.584 141.89Z" fill="#F15B47"/>
<path d="M243.495 131.577C243.466 130.014 243.145 128.473 242.553 127.05C241.961 125.627 241.108 124.351 240.05 123.301C242.003 125.424 243.117 128.301 243.152 131.313C243.187 134.326 242.141 137.233 240.237 139.409C238.334 141.586 235.726 142.857 232.976 142.95C230.224 143.042 227.551 141.949 225.528 139.905C227.003 141.548 228.894 142.668 230.957 143.119C233.02 143.57 235.159 143.33 237.096 142.432C239.033 141.534 240.678 140.018 241.818 138.082C242.957 136.146 243.538 133.88 243.484 131.577H243.495Z" fill="#F15B47"/>
<path d="M223.43 132.141C223.385 130.013 223.932 127.921 225 126.143C226.067 124.364 227.603 122.984 229.404 122.184C231.206 121.384 233.187 121.204 235.084 121.667C236.982 122.129 238.705 123.213 240.026 124.774C239.21 123.695 238.206 122.805 237.071 122.157C235.937 121.509 234.694 121.117 233.419 121.002C232.144 120.888 230.86 121.054 229.644 121.491C228.428 121.928 227.304 122.627 226.339 123.547C225.373 124.466 224.586 125.588 224.022 126.846C223.46 128.104 223.132 129.473 223.06 130.872C222.987 132.271 223.17 133.671 223.599 134.991C224.029 136.311 224.696 137.523 225.56 138.557C224.217 136.737 223.467 134.479 223.43 132.141Z" fill="#F15B47"/>
<path d="M316.617 107.372H216.247C214.017 107.372 212.209 109.35 212.209 111.791V179.841C212.209 182.282 214.017 184.261 216.247 184.261H316.617C318.847 184.261 320.655 182.282 320.655 179.841V111.791C320.655 109.35 318.847 107.372 316.617 107.372Z" stroke="#D4E0F3" stroke-width="5.08" stroke-miterlimit="10"/>
<path d="M306.41 120.447H252.855C251.608 120.447 250.598 121.553 250.598 122.918C250.598 124.283 251.608 125.39 252.855 125.39H306.41C307.657 125.39 308.667 124.283 308.667 122.918C308.667 121.553 307.657 120.447 306.41 120.447Z" fill="#BCD7F0"/>
<path d="M306.41 130.855H252.855C251.608 130.855 250.598 131.962 250.598 133.327C250.598 134.692 251.608 135.798 252.855 135.798H306.41C307.657 135.798 308.667 134.692 308.667 133.327C308.667 131.962 307.657 130.855 306.41 130.855Z" fill="#BCD7F0"/>
<path d="M306.41 141.264H252.855C251.608 141.264 250.598 142.37 250.598 143.735C250.598 145.1 251.608 146.206 252.855 146.206H306.41C307.657 146.206 308.667 145.1 308.667 143.735C308.667 142.37 307.657 141.264 306.41 141.264Z" fill="#BCD7F0"/>
<path d="M306.41 151.669H252.855C251.608 151.669 250.598 152.775 250.598 154.14C250.598 155.505 251.608 156.612 252.855 156.612H306.41C307.657 156.612 308.667 155.505 308.667 154.14C308.667 152.775 307.657 151.669 306.41 151.669Z" fill="#BCD7F0"/>
<path d="M306.41 162.078H252.855C251.608 162.078 250.598 163.184 250.598 164.549C250.598 165.914 251.608 167.02 252.855 167.02H306.41C307.657 167.02 308.667 165.914 308.667 164.549C308.667 163.184 307.657 162.078 306.41 162.078Z" fill="#BCD7F0"/>
</g>
<defs>
<linearGradient id="paint0_linear_2655_207355" x1="130.36" y1="232.765" x2="159.861" y2="200.816" gradientUnits="userSpaceOnUse">
<stop stop-color="white" stop-opacity="0.5"/>
<stop offset="1"/>
</linearGradient>
<linearGradient id="paint1_linear_2655_207355" x1="196.178" y1="272.012" x2="249.642" y2="272.012" gradientUnits="userSpaceOnUse">
<stop stop-color="#F0493C"/>
<stop offset="0.87" stop-color="#F15B47"/>
<stop offset="1" stop-color="#F15B47"/>
</linearGradient>
<linearGradient id="paint2_linear_2655_207355" x1="16453.4" y1="41906.1" x2="12764" y2="40675.6" gradientUnits="userSpaceOnUse">
<stop stop-color="white" stop-opacity="0.5"/>
<stop offset="1"/>
</linearGradient>
<linearGradient id="paint3_linear_2655_207355" x1="186.108" y1="154.575" x2="184.379" y2="159.934" gradientUnits="userSpaceOnUse">
<stop stop-color="#362E2A"/>
<stop offset="1" stop-color="#1E1B15"/>
</linearGradient>
<linearGradient id="paint4_linear_2655_207355" x1="7660.92" y1="13289.5" x2="6547.2" y2="15245.5" gradientUnits="userSpaceOnUse">
<stop stop-color="#362E2A"/>
<stop offset="1" stop-color="#1E1B15"/>
</linearGradient>
<linearGradient id="paint5_linear_2655_207355" x1="8215.35" y1="43870.2" x2="9212.67" y2="43870.2" gradientUnits="userSpaceOnUse">
<stop stop-color="white" stop-opacity="0.5"/>
<stop offset="1"/>
</linearGradient>
<linearGradient id="paint6_linear_2655_207355" x1="66436.6" y1="17549.5" x2="66508.6" y2="19892.6" gradientUnits="userSpaceOnUse">
<stop stop-color="white" stop-opacity="0.5"/>
<stop offset="1"/>
</linearGradient>
<linearGradient id="paint7_linear_2655_207355" x1="3433.47" y1="20304.4" x2="3600.49" y2="20304.4" gradientUnits="userSpaceOnUse">
<stop stop-color="white" stop-opacity="0.5"/>
<stop offset="1"/>
</linearGradient>
<clipPath id="clip0_2655_207355">
<rect width="380" height="348" fill="white" transform="translate(0.5)"/>
</clipPath>
</defs>
</svg>
