<svg width="381" height="325" viewBox="0 0 381 325" fill="none" xmlns="http://www.w3.org/2000/svg">
<g clip-path="url(#clip0_2655_207474)">
<path d="M306.342 49.3388C305.746 49.092 305.349 50.2183 305.948 50.469C306.643 50.7583 307.338 50.8818 308.07 50.8548C308.701 50.8316 308.574 49.6089 307.944 49.632C307.402 49.6513 306.859 49.551 306.342 49.3388Z" fill="#FDD86B"/>
<path d="M312.591 50.2452C312.071 50.2761 311.557 50.1873 311.065 49.9752C310.469 49.7206 310.075 50.8469 310.672 51.1054C311.339 51.3908 312.009 51.5104 312.713 51.468C313.343 51.4294 313.22 50.2066 312.591 50.2452Z" fill="#FDD86B"/>
<path d="M317.879 51.1441C317.273 51.2482 316.68 51.1942 316.102 50.9512C315.505 50.7005 315.111 51.8268 315.708 52.0814C316.458 52.3938 317.221 52.5018 318.005 52.3668C318.629 52.2588 318.506 51.0361 317.879 51.1441Z" fill="#FDD86B"/>
<path d="M321.031 53.7052L323.38 54.1256C324.004 54.2375 324.146 53.0186 323.518 52.9067L321.169 52.4862C320.542 52.3744 320.404 53.5933 321.031 53.7052Z" fill="#FDD86B"/>
<path d="M309.383 47.1902C308.937 47.3059 308.513 47.2712 308.088 47.0551C307.501 46.7581 307.111 47.8883 307.695 48.1853C308.273 48.4785 308.894 48.5672 309.506 48.4129C310.124 48.2548 310.004 47.032 309.383 47.1902Z" fill="#FDD86B"/>
<path d="M312.458 48.9185C313.399 49.1345 314.34 49.3467 315.281 49.5627C315.902 49.7054 316.04 48.4865 315.419 48.3438C314.478 48.1277 313.537 47.9156 312.596 47.6996C311.972 47.5569 311.834 48.7758 312.458 48.9185Z" fill="#FDD86B"/>
<path d="M318.316 50.0794C319.011 50.3726 319.706 50.5037 320.437 50.4844C321.067 50.469 320.939 49.2463 320.311 49.2617C319.767 49.2733 319.223 49.1653 318.706 48.9492C318.109 48.6985 317.713 49.8248 318.316 50.0794Z" fill="#FDD86B"/>
<path d="M325.646 50.2839C325.178 50.3495 324.717 50.2993 324.271 50.1103C323.675 49.8635 323.281 50.9898 323.878 51.2405C324.499 51.499 325.123 51.5954 325.772 51.5067C326.399 51.4218 326.276 50.1991 325.646 50.2839Z" fill="#FDD86B"/>
<path d="M307.634 43.8691C307.501 43.8653 307.372 43.8614 307.243 43.8576C307.197 43.8576 307.163 43.8537 307.132 43.8537C306.923 43.4757 306.32 43.5104 306.222 44.1083C306.136 44.629 306.493 44.9993 306.871 45.0688C307.344 45.1498 307.864 45.0958 308.34 45.1073C308.608 45.115 308.851 44.9415 308.897 44.5827C308.934 44.2857 308.747 43.8923 308.479 43.8846C308.199 43.8846 307.916 43.8769 307.634 43.8691Z" fill="#FDD86B"/>
<path d="M311.295 43.8847C310.668 43.8461 310.524 45.065 311.157 45.1036C311.76 45.1383 312.362 45.1769 312.962 45.2116C313.589 45.2502 313.734 44.0313 313.1 43.9927C312.497 43.958 311.895 43.9233 311.295 43.8847Z" fill="#FDD86B"/>
<path d="M316.194 45.1192C315.579 44.9417 315.444 46.1606 316.056 46.3381C316.643 46.5078 317.237 46.6274 317.836 46.6968C318.463 46.7662 318.608 45.5473 317.974 45.4779C317.375 45.4046 316.781 45.2889 316.194 45.1192Z" fill="#FDD86B"/>
<path d="M320.139 47.0322C320.914 47.3755 321.704 47.58 322.526 47.6263C323.153 47.661 323.297 46.4421 322.664 46.4074C321.932 46.3649 321.222 46.2068 320.529 45.9059C319.936 45.6436 319.543 46.7738 320.139 47.0322Z" fill="#FDD86B"/>
<path d="M327.593 47.0243C327.132 47.1169 326.694 47.0938 326.243 46.9549C325.985 46.8739 325.723 47.1709 325.686 47.4795C325.646 47.8382 325.846 48.0967 326.105 48.1777C326.633 48.3397 327.181 48.359 327.718 48.251C328.34 48.1198 328.22 46.8971 327.593 47.0243Z" fill="#FDD86B"/>
<path d="M309.942 40.0079C309.346 40.1545 308.771 40.1352 308.181 39.9539C307.565 39.7649 307.434 40.9876 308.042 41.1728C308.709 41.3734 309.396 41.3926 310.069 41.2306C310.687 41.0802 310.567 39.8574 309.942 40.0079Z" fill="#FDD86B"/>
<path d="M313.251 41.9405L315.115 42.2722C315.739 42.3841 315.88 41.1652 315.253 41.0533L313.39 40.7216C312.762 40.6097 312.624 41.8287 313.251 41.9405Z" fill="#FDD86B"/>
<path d="M318.404 41.6706C317.79 41.4893 317.654 42.7121 318.266 42.8895C318.853 43.0631 319.447 43.1827 320.047 43.2483C320.674 43.3177 320.819 42.0988 320.185 42.0293C319.585 41.9638 318.992 41.8442 318.404 41.6706Z" fill="#FDD86B"/>
<path d="M325.483 43.0091C324.723 43.0824 323.979 43.0284 323.232 42.8626C322.611 42.7237 322.473 43.9426 323.094 44.0815C323.927 44.2705 324.766 44.3168 325.609 44.2319C326.239 44.1702 326.113 42.9474 325.483 43.0091Z" fill="#FDD86B"/>
<path d="M308.716 36.9878C308.23 37.0611 307.763 37.0264 307.287 36.8914C306.668 36.7178 306.533 37.9367 307.148 38.1103C307.705 38.2684 308.273 38.2954 308.839 38.2106C309.47 38.1141 309.346 36.8875 308.716 36.9878Z" fill="#FDD86B"/>
<path d="M313.22 37.3733C312.701 37.4736 312.181 37.4543 311.677 37.273C311.422 37.1804 311.148 37.2614 311.031 37.5931C310.933 37.867 311.031 38.3106 311.287 38.4032C311.966 38.6539 312.646 38.7349 313.347 38.596C313.968 38.4765 313.848 37.2537 313.22 37.3733Z" fill="#FDD86B"/>
<path d="M316.249 39.1325C316.861 39.4102 317.479 39.5221 318.128 39.4874C318.758 39.4526 318.632 38.2299 318.002 38.2646C317.538 38.2916 317.077 38.199 316.639 38.0023C316.05 37.7361 315.656 38.8625 316.249 39.1325Z" fill="#FDD86B"/>
<path d="M321.129 39.8192C321.815 40.1625 322.525 40.363 323.266 40.4016C323.89 40.4325 324.035 39.2136 323.404 39.1827C322.753 39.148 322.129 38.9937 321.523 38.6928C320.932 38.3958 320.542 39.526 321.129 39.8192Z" fill="#FDD86B"/>
<path d="M326.239 41.15L328.023 41.4701C328.647 41.582 328.788 40.3631 328.161 40.2512L326.378 39.9311C325.754 39.8192 325.612 41.0381 326.239 41.15Z" fill="#FDD86B"/>
<path d="M310.533 33.5895C309.939 33.7091 309.361 33.6898 308.771 33.5393C308.15 33.3851 308.014 34.604 308.633 34.7583C309.3 34.928 309.983 34.9395 310.656 34.8084C311.283 34.6888 311.16 33.4661 310.533 33.5895Z" fill="#FDD86B"/>
<path d="M315.954 34.473C315.197 34.5154 314.453 34.4344 313.709 34.257C313.088 34.1065 312.95 35.3254 313.571 35.4759C314.401 35.6765 315.235 35.742 316.08 35.6957C316.708 35.661 316.584 34.4383 315.954 34.473Z" fill="#FDD86B"/>
<path d="M321.058 35.3832C320.219 35.4488 319.391 35.3909 318.561 35.2173C317.937 35.0862 317.799 36.309 318.423 36.4363C319.339 36.6253 320.259 36.6793 321.184 36.606C321.815 36.5558 321.689 35.3331 321.058 35.3832Z" fill="#FDD86B"/>
<path d="M326.393 36.4244C325.689 36.5169 325 36.4745 324.305 36.3125C323.684 36.1659 323.546 37.3848 324.167 37.5314C324.945 37.7166 325.732 37.7513 326.519 37.6471C327.146 37.5623 327.023 36.3395 326.393 36.4244Z" fill="#FDD86B"/>
<path d="M26.2224 240.275C25.6259 240.029 25.2293 241.155 25.8288 241.406C26.5238 241.695 27.2187 241.818 27.9505 241.791C28.5809 241.768 28.4548 240.545 27.8245 240.569C27.2832 240.588 26.739 240.488 26.2224 240.275Z" fill="#FDD86B"/>
<path d="M32.4708 241.182C31.9512 241.213 31.4376 241.124 30.9457 240.912C30.3492 240.657 29.9556 241.783 30.5521 242.042C31.2193 242.327 31.8897 242.447 32.5938 242.404C33.2242 242.366 33.1011 241.143 32.4708 241.182Z" fill="#FDD86B"/>
<path d="M37.7591 242.081C37.1534 242.185 36.5599 242.131 35.9818 241.888C35.3852 241.637 34.9917 242.763 35.5882 243.018C36.3385 243.33 37.1011 243.438 37.8851 243.303C38.5094 243.195 38.3864 241.973 37.7591 242.081Z" fill="#FDD86B"/>
<path d="M40.9108 244.642L43.2601 245.062C43.8842 245.174 44.0257 243.955 43.3984 243.843L41.0492 243.423C40.4219 243.311 40.2836 244.53 40.9108 244.642Z" fill="#FDD86B"/>
<path d="M29.2633 238.127C28.8174 238.242 28.3931 238.208 27.9688 237.992C27.3815 237.695 26.991 238.825 27.5752 239.122C28.1533 239.415 28.7744 239.504 29.3863 239.349C30.0043 239.191 29.8844 237.969 29.2633 238.127Z" fill="#FDD86B"/>
<path d="M32.3383 239.855C33.2792 240.071 34.2201 240.283 35.161 240.499C35.7821 240.642 35.9205 239.423 35.2993 239.28C34.3585 239.064 33.4175 238.852 32.4767 238.636C31.8524 238.493 31.714 239.712 32.3383 239.855Z" fill="#FDD86B"/>
<path d="M38.196 241.016C38.8909 241.309 39.5857 241.44 40.3176 241.421C40.9479 241.406 40.8188 240.183 40.1915 240.198C39.6473 240.21 39.103 240.102 38.5865 239.886C37.9899 239.635 37.5963 240.761 38.196 241.016Z" fill="#FDD86B"/>
<path d="M45.5262 241.22C45.0588 241.286 44.5976 241.236 44.1518 241.047C43.5552 240.8 43.1616 241.926 43.7582 242.177C44.3793 242.435 45.0035 242.532 45.6523 242.443C46.2795 242.358 46.1565 241.136 45.5262 241.22Z" fill="#FDD86B"/>
<path d="M27.5137 234.806C27.3814 234.802 27.2523 234.798 27.1232 234.794C27.0771 234.794 27.0432 234.79 27.0125 234.79C26.8034 234.412 26.2007 234.447 26.1023 235.045C26.0162 235.566 26.3729 235.936 26.7511 236.005C27.2246 236.086 27.7443 236.032 28.2209 236.044C28.4884 236.052 28.7313 235.878 28.7774 235.519C28.8143 235.222 28.6268 234.829 28.3593 234.821C28.0794 234.821 27.7966 234.813 27.5137 234.806Z" fill="#FDD86B"/>
<path d="M31.1762 234.821C30.549 234.783 30.4045 236.002 31.0378 236.04C31.6405 236.075 32.2432 236.113 32.8428 236.148C33.4701 236.187 33.6146 234.968 32.9812 234.929C32.3785 234.895 31.7758 234.86 31.1762 234.821Z" fill="#FDD86B"/>
<path d="M36.0745 236.056C35.4595 235.878 35.3242 237.097 35.9361 237.275C36.5234 237.444 37.1169 237.564 37.7165 237.633C38.3438 237.703 38.4883 236.484 37.8549 236.414C37.2553 236.341 36.6618 236.225 36.0745 236.056Z" fill="#FDD86B"/>
<path d="M40.0195 237.969C40.7944 238.312 41.5846 238.516 42.4056 238.563C43.0329 238.597 43.1774 237.379 42.544 237.344C41.8121 237.301 41.1019 237.143 40.41 236.842C39.8166 236.58 39.423 237.71 40.0195 237.969Z" fill="#FDD86B"/>
<path d="M47.4725 237.961C47.0113 238.053 46.5747 238.03 46.1227 237.891C45.8644 237.81 45.603 238.107 45.5661 238.416C45.5262 238.775 45.726 239.033 45.9843 239.114C46.5132 239.276 47.0605 239.295 47.5986 239.187C48.2197 239.056 48.0998 237.834 47.4725 237.961Z" fill="#FDD86B"/>
<path d="M29.8229 230.944C29.2264 231.091 28.6514 231.072 28.061 230.89C27.446 230.701 27.3138 231.924 27.9227 232.109C28.5899 232.31 29.2756 232.329 29.949 232.167C30.567 232.017 30.4472 230.794 29.8229 230.944Z" fill="#FDD86B"/>
<path d="M33.1316 232.877L34.9949 233.209C35.6191 233.321 35.7606 232.102 35.1333 231.99L33.2699 231.658C32.6427 231.546 32.5043 232.765 33.1316 232.877Z" fill="#FDD86B"/>
<path d="M38.285 232.607C37.67 232.426 37.5347 233.649 38.1466 233.826C38.7339 234 39.3273 234.119 39.9269 234.185C40.5542 234.254 40.6987 233.035 40.0653 232.966C39.4657 232.9 38.8722 232.781 38.285 232.607Z" fill="#FDD86B"/>
<path d="M45.3633 233.946C44.6038 234.019 43.8597 233.965 43.1125 233.799C42.4914 233.66 42.3531 234.879 42.9742 235.018C43.8074 235.207 44.6469 235.253 45.4894 235.168C46.1198 235.107 45.9937 233.884 45.3633 233.946Z" fill="#FDD86B"/>
<path d="M28.5959 227.924C28.1101 227.998 27.6428 227.963 27.1661 227.828C26.5481 227.654 26.4128 228.873 27.0278 229.047C27.5843 229.205 28.1531 229.232 28.7189 229.147C29.3493 229.051 29.2263 227.824 28.5959 227.924Z" fill="#FDD86B"/>
<path d="M33.1009 228.31C32.5812 228.41 32.0616 228.391 31.5573 228.21C31.3021 228.117 31.0284 228.198 30.9116 228.53C30.8132 228.804 30.9116 229.247 31.1668 229.34C31.8463 229.59 32.5259 229.671 33.227 229.533C33.8481 229.413 33.7282 228.19 33.1009 228.31Z" fill="#FDD86B"/>
<path d="M36.1297 230.069C36.7416 230.347 37.3596 230.459 38.0085 230.424C38.6388 230.389 38.5127 229.166 37.8824 229.201C37.4181 229.228 36.9569 229.136 36.5202 228.939C35.9299 228.673 35.5363 229.799 36.1297 230.069Z" fill="#FDD86B"/>
<path d="M41.0095 230.756C41.6951 231.099 42.4054 231.3 43.1464 231.338C43.7707 231.369 43.9152 230.15 43.2848 230.119C42.633 230.085 42.0087 229.93 41.403 229.629C40.8126 229.332 40.4221 230.463 41.0095 230.756Z" fill="#FDD86B"/>
<path d="M46.1198 232.086L47.9032 232.407C48.5275 232.518 48.6689 231.3 48.0416 231.188L46.2582 230.868C45.634 230.756 45.4925 231.975 46.1198 232.086Z" fill="#FDD86B"/>
<path d="M30.4137 224.526C29.8203 224.646 29.2422 224.626 28.6518 224.476C28.0307 224.322 27.8954 225.54 28.5134 225.695C29.1807 225.865 29.8633 225.876 30.5367 225.745C31.1639 225.625 31.041 224.403 30.4137 224.526Z" fill="#FDD86B"/>
<path d="M35.8343 225.41C35.0778 225.452 34.3337 225.371 33.5896 225.193C32.9684 225.043 32.8301 226.262 33.4512 226.412C34.2814 226.613 35.1147 226.679 35.9603 226.632C36.5876 226.598 36.4646 225.375 35.8343 225.41Z" fill="#FDD86B"/>
<path d="M40.9387 226.32C40.0993 226.385 39.2721 226.327 38.4419 226.154C37.8178 226.023 37.6794 227.245 38.3036 227.373C39.2199 227.562 40.1393 227.616 41.0648 227.542C41.6951 227.492 41.5691 226.27 40.9387 226.32Z" fill="#FDD86B"/>
<path d="M46.2736 227.361C45.5695 227.453 44.8807 227.411 44.1858 227.249C43.5647 227.102 43.4263 228.321 44.0474 228.468C44.8254 228.653 45.6125 228.688 46.3997 228.584C47.027 228.499 46.904 227.276 46.2736 227.361Z" fill="#FDD86B"/>
<path fill-rule="evenodd" clip-rule="evenodd" d="M93.0053 316.824C67.6008 316.824 46.8179 287.828 46.8179 252.399C46.8179 216.966 67.6008 187.97 93.0053 187.97C103.745 187.97 112.534 175.716 112.534 160.73C112.534 145.748 103.745 133.49 93.0053 133.49H90.6808C79.5128 133.49 70.3774 120.745 70.3774 105.166C70.3774 89.5899 79.5159 76.8454 90.6808 76.8454H97.8141C102.159 76.8454 105.711 71.8849 105.711 65.8173C105.711 59.7536 102.144 54.7931 97.8141 54.7931H92.572C89.571 54.7931 87.1169 51.3679 87.1169 47.1827C87.1169 42.9975 89.5734 39.5722 92.572 39.5722H127.782C132.496 39.5722 136.355 34.2067 136.355 27.6146C136.355 21.0379 132.496 15.657 127.782 15.657H117.26C114.259 15.657 111.805 12.2278 111.805 8.04649C111.805 3.86518 114.259 0.436035 117.26 0.436035H267.147C271.062 0.436035 274.265 4.90665 274.265 10.3647C274.265 15.8228 271.062 20.2934 267.147 20.2934H256.164C250.01 20.2934 244.977 27.3176 244.977 35.8962C244.977 44.4787 250.01 51.499 256.164 51.499H302.474C306.388 51.499 309.592 55.9696 309.592 61.4277C309.592 66.8858 306.391 71.3564 302.474 71.3564H295.648C289.975 71.3564 285.335 77.829 285.335 85.7442C285.335 93.6555 289.975 100.128 295.648 100.128H304.949C319.521 100.128 331.439 116.761 331.439 137.089C331.439 157.413 319.518 174.046 304.949 174.046H301.917C287.908 174.046 276.445 190.038 276.445 209.594C276.445 229.143 287.908 245.143 301.917 245.143H308.485C322.617 245.143 334.179 261.271 334.179 280.978C334.179 300.692 322.617 316.82 308.485 316.82L93.0053 316.824ZM285.366 20.305C289.295 20.305 292.499 15.8614 292.499 10.3763C292.499 4.89122 289.307 0.44375 285.366 0.44375C281.423 0.44375 278.231 4.89122 278.231 10.3724C278.231 15.8537 281.417 20.305 285.366 20.305ZM77.2559 54.797C80.2689 54.797 82.7103 51.391 82.7103 47.1865C82.7103 42.9859 80.2689 39.5761 77.2559 39.5761C74.2425 39.5761 71.801 42.9821 71.801 47.1865C71.801 51.3871 74.2548 54.797 77.2682 54.797H77.2559Z" fill="#FDD86B"/>
<path d="M174.848 272.596C163.73 272.638 152.611 272.974 141.514 274.52C137.329 275.103 133.234 276.387 129.039 276.908C120.66 277.942 112.435 279.874 104.025 280.765C97.2545 281.483 90.4559 281.907 83.7073 282.814C77.3788 283.666 70.3713 283.469 64.0893 282.061C59.4401 281.02 54.7694 280.43 50.1971 278.756C45.0836 276.881 39.5274 275.543 34.1986 275.589C26.6006 275.658 19.2025 275.666 11.9305 278.976C9.37833 280.137 6.25429 282.046 4.31406 284.484C-0.122964 290.065 -0.722563 303.99 3.70831 309.78C11.171 319.524 27.0957 323.346 37.5564 323.527C49.0164 323.724 60.1504 322.66 71.6288 322.031C82.2954 321.448 92.9346 320.619 103.617 320.646C125.436 320.704 147.258 320.646 169.037 318.818C189.501 317.101 210.013 317.691 230.522 317.691C251.551 317.691 272.438 317.9 293.317 321.406C302.412 322.933 311.68 323.47 320.825 324.538C329.013 325.498 336.882 324.519 345.036 323.632C351.884 322.887 358.688 320.681 364.909 316.951C369.835 314 378.613 304.827 380.123 297.78C384.357 278.023 320.456 278.497 310.644 278.544C299.67 278.594 288.606 279.045 277.638 278.52C273.026 278.3 268.478 277.17 263.977 275.928C259.491 274.694 254.974 275.006 250.426 274.489C231.46 272.326 212.451 272.642 193.427 272.642C187.237 272.642 181.045 272.572 174.848 272.596Z" fill="#A3A9AD"/>
<path d="M68.4648 93.3892L79.7188 115.063L87.0462 132.618L84.3647 139.422L74.6207 136.001L68.4648 93.3892Z" fill="#F15B48"/>
<path d="M54.9785 169.929V180.904L66.6445 228.46L63.7265 277.845L71.017 279.674L82.6833 219.315L82.2373 201.556L76.85 165.335L54.9785 169.929Z" fill="#46484B"/>
<path d="M70.0608 278.736L75.6263 286.123L74.0181 289.868L62.5366 282.956L64.649 277.482L70.0608 278.736Z" fill="black"/>
<path d="M31.1575 279.307L38.0175 284.715L37.2057 288.846L24.7095 285.749L25.6658 279.789L31.1575 279.307Z" fill="black"/>
<path d="M68.5019 93.3352L51.1474 84.6987C51.1474 84.6987 44.9792 103.916 37.9685 134.697C30.9578 165.478 41.2248 204.665 41.2248 204.665C41.2248 204.665 80.9798 192.811 88.9193 190.859L78.9626 134.593L68.5019 93.3352Z" fill="#F15B48"/>
<path d="M64.2339 182.925L54.9786 240.005L33.264 280.966L26.5669 279.307L38.0177 233.841L36.5294 173.779L64.2339 182.925Z" fill="#46484B"/>
<path d="M69.0765 63.1365C64.3505 63.5724 59.9349 58.7045 55.2827 59.9118C52.2601 60.6987 49.871 64.0623 48.9485 67.854C48.518 69.6206 48.3673 71.5493 48.7855 73.3043C49.0592 74.4461 49.5635 75.4722 50.1569 76.3863C50.9502 77.6091 51.9188 78.6236 52.995 79.4027C52.4046 80.5985 51.7251 81.7287 50.9718 82.7702C53.1518 83.8155 55.3288 84.8647 57.5089 85.91C57.9917 84.3401 58.4713 82.7702 58.9541 81.1964C59.609 81.1501 60.2609 81.0344 60.9035 80.8261C64.7717 79.5686 67.9787 75.3179 68.8428 70.3034C69.2487 67.9543 69.1719 65.528 69.0765 63.1365Z" fill="#FCCCBA"/>
<path d="M67.8836 64.9222L53.2749 62.7467L50.44 76.7447L46.3135 72.6368L48.4382 49.7282L69.0582 49.1729L77.9846 55.7417L77.6063 62.3261L69.624 69.0688L67.8836 64.9222Z" fill="#35445B"/>
<path d="M62.2138 88.0735L44.8593 79.437C44.8593 79.437 38.6911 98.6541 31.6804 129.435C24.6697 160.217 34.9367 199.403 34.9367 199.403C34.9367 199.403 70.5005 177.358 78.4367 175.407L72.6714 129.331L62.2138 88.0735Z" fill="white"/>
<path d="M31.4191 130.095C38.4297 99.3138 44.5025 80.062 44.5025 80.062L61.9524 88.7294L61.9801 88.8412C61.5957 90.0987 61.1929 91.3485 60.8455 92.6252C59.4709 97.659 58.4562 102.839 57.8321 108.101C56.7343 117.351 56.6205 126.859 56.8543 136.193C57.0818 145.15 57.8167 154.087 59.0836 162.905C60.7594 174.562 63.4345 185.922 66.8783 196.919C50.7383 201.035 31.7419 205.899 31.7419 205.899C31.7419 205.899 24.4084 160.876 31.4191 130.095Z" fill="#F15B48"/>
<path d="M79.4204 124.201L113.659 120.764L114.778 130.218L83.805 139.422L79.4204 124.201Z" fill="#F15B48"/>
<path d="M113.84 122.288L116.611 118.701L119.409 118.18L121.002 123.449L117.284 129.906L114.778 130.219L113.84 122.288Z" fill="#F8C3A5"/>
<path d="M330.43 91.3755L318.85 93.9329L298.32 113.883L270.904 104.907L267.728 113.169L293.215 128.556L304.322 132.07L318.749 126.164L330.43 91.3755Z" fill="#F15C48"/>
<path d="M270.157 110.315L265.868 113.007L262.805 112.571L262.787 111.26L264.582 110.361L258.765 108.776L258.233 105.258L265.203 103.179L271.519 105.485L270.157 110.315Z" fill="#F8C3A5"/>
<path d="M317.599 280.966L312.194 285.772L310.392 289.448C310.392 289.448 312.418 290.578 313.546 290.86C314.672 291.141 323.459 289.448 323.459 289.448V282.948L317.599 280.966Z" fill="#2F3542"/>
<path d="M359.614 283.014L357.618 287.566C357.618 287.566 356.37 293.317 357.452 292.924C358.535 292.53 364.565 291.215 364.807 290.243C365.05 289.271 367.667 285.375 367.974 284.673C368.282 283.971 366.978 279.284 366.978 279.284L359.614 283.014Z" fill="#2F3542"/>
<path d="M322.633 175.858L340.092 241.239L359.614 283.014L367.187 280.256L354.245 232.61C354.245 232.61 352.683 184.749 350.125 170.67L322.633 175.858Z" fill="#3B4860"/>
<path d="M308.814 185.725L315.573 282.945H323.681L326.16 233.205L330.818 189.166L313.095 163.114L308.814 185.725Z" fill="#3B4860"/>
<path d="M308.553 123.511C309.392 118.5 309.724 113.108 311.702 108.433C313.679 103.761 317.417 100.22 320.302 96.2474C321.523 94.5657 322.829 92.8145 324.646 92.0121C325.892 91.4605 327.266 91.4142 328.607 91.3718C332.675 91.2445 336.743 91.1134 340.811 90.9861C342.293 90.9398 343.837 90.9051 345.189 91.5763C347.216 92.583 348.36 94.9244 349.362 97.1076C351.92 102.685 352.391 108.872 352.618 115.179C352.612 115.237 355.792 194.37 353.267 192.884C350.125 191.033 346.53 190.049 343.003 189.363C338.031 188.364 332.958 187.727 327.891 187.573L318.97 188.329H313.59C310.357 188.722 310.625 189.941 307.305 189.687C305.183 189.525 307.59 129.254 308.553 123.511Z" fill="#F15C48"/>
<path d="M331.922 93.9329C333.942 93.821 335.959 93.713 337.979 93.6012C338.087 91.5838 338.069 89.5549 337.921 87.5414C339.628 86.9203 341.611 85.9483 341.998 83.7728C342.121 83.0862 342.057 82.3726 341.992 81.6783C341.724 78.7969 341.457 75.9116 341.189 73.0302C341.097 72.0311 340.999 71.0051 340.606 70.1295C339.92 68.5904 338.489 67.8421 337.121 67.4448C333.631 66.4303 329.748 67.1208 326.885 69.8286C326.123 70.5499 325.425 71.4294 325.056 72.5326C324.483 74.2337 324.77 76.17 325.065 77.9791C325.336 79.6455 325.609 81.3157 325.879 82.982C326.194 84.8991 326.667 87.0901 328.09 87.9001C328.844 88.3321 329.761 88.282 330.434 88.8876C331.623 89.9599 331.356 92.2434 331.922 93.9329Z" fill="#FCCCBA"/>
<path d="M320.736 57.2925C321.184 57.1922 321.643 57.0726 322.104 56.8219C323.568 56.0235 324.591 54.4227 326.144 53.6705C329.287 52.1546 333.226 52.3745 336.313 54.0022C339.264 55.5606 343.296 56.1585 345.94 58.253C347.044 59.1286 347.899 60.4324 348.544 61.8557C350.789 66.7815 350.513 73.3389 347.868 77.9407C347.275 78.9744 346.577 79.904 345.851 80.7912C344.344 82.6273 342.54 84.8954 340.55 85.4778C340.599 83.2792 342.499 76.471 341.236 74.5809C339.56 72.0737 336.27 72.1354 333.914 72.4131C331.107 72.7449 328.795 71.6108 325.994 71.7883C324.567 71.877 322.952 72.2396 321.861 71.0862C320.598 69.7555 317.922 65.524 317.289 63.6648C316.732 62.0408 317.104 60.0351 318.069 58.7467C318.9 57.632 319.798 57.5047 320.736 57.2925Z" fill="#35445B"/>
<path d="M319.127 144.016C319.127 143.233 319.244 142.454 319.484 141.729C320.554 138.481 331.802 97.829 331.802 97.829C331.802 97.829 332.253 95.7229 332.466 93.8714L336.069 93.5898L335.476 98.207L333.788 100.028C333.788 100.028 326.873 144.796 326.832 145.582L321.707 153.536L319.127 144.016Z" fill="#3B5366"/>
<path d="M304.482 221.865C305.693 218.451 309.106 216.757 311.96 218.802C317.126 222.501 322.215 225.726 327.989 221.787C335.012 216.997 337.613 205.143 333.561 196.507C328.564 185.857 319.481 187.168 312.135 192.915C309.272 195.157 305.724 193.486 304.482 189.992V147.696H304.027H292.038H271.163C268.109 146.358 266.557 141.671 268.423 137.91C273.001 128.691 274.04 117.297 265.548 111.033C258.66 105.956 249.212 109.224 245.398 118.037C242.262 125.285 244.836 131.665 247.788 138.142C249.488 141.872 247.948 146.358 244.996 147.692H212.064V187.265C212.064 192.487 207.486 195.673 203.953 192.908C196.606 187.16 187.524 185.849 182.527 196.499C178.474 205.135 181.076 216.989 188.098 221.78C193.873 225.718 198.962 222.493 204.128 218.794C207.664 216.264 212.061 219.461 212.061 224.568V263.624H244.448C247.68 262.547 249.448 257.803 247.668 253.896C244.716 247.415 242.142 241.035 245.279 233.791C249.092 224.977 258.541 221.706 265.428 226.786C273.921 233.047 272.881 244.445 268.303 253.664C266.341 257.614 268.15 262.586 271.507 263.627H291.039H304.021H304.475V221.865H304.482Z" fill="#3FBEB0"/>
<path d="M149.761 148.163C147.003 146.62 145.635 142.28 147.286 138.651C150.274 132.078 152.882 125.605 149.699 118.261C145.829 109.327 136.247 106.018 129.264 111.167C120.654 117.52 121.715 129.077 126.358 138.423C128.169 142.064 126.82 146.577 123.994 148.159L89.8041 148.155V148.737V163.985L89.8009 190.543C88.7189 194.427 84.9308 196.402 81.8901 194.026C74.4393 188.202 65.227 186.879 60.1627 197.679C56.0578 206.439 58.6991 218.458 65.8235 223.311C71.6812 227.299 76.8376 224.028 82.0769 220.275C85.0938 218.115 88.7189 220.074 89.7985 223.828V265.718L121.786 265.722C121.847 265.722 121.906 265.733 121.967 265.737H123.987C126.81 264.156 128.16 259.643 126.352 256.001C121.706 246.655 120.648 235.102 129.258 228.746C136.241 223.592 145.822 226.902 149.693 235.839C152.876 243.184 150.269 249.656 147.279 256.229C145.628 259.859 146.996 264.202 149.755 265.741H151.762C151.824 265.737 151.882 265.726 151.948 265.726L183.517 265.729L183.52 224.53C182.751 219.87 179.157 218.049 175.658 220.433C170.356 224.044 165.658 227.257 159.8 223.268C152.676 218.416 149.638 206.597 153.743 197.837C158.804 187.033 168.016 188.36 175.47 194.184C178.661 196.68 182.684 194.381 183.526 190.107L183.529 165.262V148.745V148.163H149.761Z" fill="#EF7550"/>
<path d="M58.8467 95.3408L55.9501 124.71L79.3345 147.414L76.152 156.911L43.2263 139.021L41.0278 132.058L43.9367 92.1431L58.8467 95.3408Z" fill="#F15B48"/>
<path d="M76.3979 156.182C76.3979 156.182 78.1967 150.813 78.4396 150.095C78.6826 149.374 88.1376 148.668 88.1376 148.668L87.0461 154.639L80.7086 158.377L76.3979 156.182Z" fill="#F8C3A5"/>
<path d="M334.413 109.844L335.091 138.068L302.984 146.79L304.424 155.935L339.944 153.166L346.521 145.466L350.934 118.361L334.413 109.844Z" fill="#F15C48"/>
<path d="M304.294 155.11L299.541 158.535L294.332 155.368L299.507 145.027L302.985 146.79L304.294 155.11Z" fill="#F8C3A5"/>
<path d="M164.785 18.9395H216.215C218.481 18.9395 220.32 21.2461 220.32 24.089V29.4236C220.32 32.2664 218.481 34.5731 216.215 34.5731H164.785C162.518 34.5731 160.68 32.2664 160.68 29.4236V24.089C160.68 21.2423 162.518 18.9395 164.785 18.9395Z" fill="#E3EAF6"/>
<path d="M167.761 21.6279H213.432C213.782 21.6279 214.065 21.9828 214.065 22.4225V23.2441C214.065 23.6839 213.782 24.0387 213.432 24.0387H167.761C167.41 24.0387 167.127 23.6839 167.127 23.2441V22.4225C167.127 21.9828 167.41 21.6279 167.761 21.6279Z" fill="#7DB3E1"/>
<path d="M167.761 25.5508H213.432C213.782 25.5508 214.065 25.9057 214.065 26.3454V27.167C214.065 27.6067 213.782 27.9616 213.432 27.9616H167.761C167.41 27.9616 167.127 27.6067 167.127 27.167V26.3454C167.127 25.9057 167.41 25.5508 167.761 25.5508Z" fill="#7DB3E1"/>
<path d="M167.761 29.4697H213.432C213.782 29.4697 214.065 29.8246 214.065 30.2643V31.0859C214.065 31.5257 213.782 31.8805 213.432 31.8805H167.761C167.41 31.8805 167.127 31.5257 167.127 31.0859V30.2643C167.127 29.8246 167.41 29.4697 167.761 29.4697Z" fill="#7DB3E1"/>
<path d="M165.317 38.5459H216.298C218.078 38.5459 219.521 40.355 219.521 42.5883V90.6619C219.521 92.8953 218.078 94.7044 216.298 94.7044H165.317C163.537 94.7044 162.095 92.8953 162.095 90.6619V42.5883C162.095 40.355 163.537 38.5459 165.317 38.5459Z" fill="#E3EAF6"/>
<path d="M169.536 43.769H211.794C213.005 43.769 213.986 44.9995 213.986 46.5193C213.986 48.0391 213.005 49.2696 211.794 49.2696H169.536C168.324 49.2696 167.343 48.0391 167.343 46.5193C167.343 44.9995 168.324 43.769 169.536 43.769Z" fill="#7DB3E1"/>
<path d="M173.973 79.8425H170.037C169.111 79.8425 168.361 78.9014 168.361 77.7403V77.7365C168.358 76.5754 169.108 75.6342 170.033 75.6304H170.037H173.973C174.898 75.6304 175.648 76.5716 175.648 77.7326V77.7365C175.652 78.8975 174.901 79.8387 173.976 79.8425H173.973Z" fill="#7DB3E1"/>
<path d="M212.163 79.8425H208.227C207.301 79.8425 206.551 78.9014 206.551 77.7403V77.7365C206.548 76.5754 207.298 75.6342 208.223 75.6304H208.227H212.163C213.088 75.6304 213.838 76.5716 213.838 77.7326V77.7365C213.842 78.8975 213.091 79.8387 212.166 79.8425H212.163Z" fill="#8271B3"/>
<path d="M168.586 54.77H213.321C214.25 54.77 215.004 55.7151 215.004 56.8761C215.004 58.041 214.25 58.9822 213.321 58.9822H168.586C167.657 58.9822 166.903 58.0372 166.903 56.8761C166.903 55.7112 167.657 54.77 168.586 54.77Z" fill="#F9FCFD"/>
<path d="M168.586 61.9214H213.321C214.25 61.9214 215.004 62.8664 215.004 64.0275C215.004 65.1924 214.25 66.1336 213.321 66.1336H168.586C167.657 66.1336 166.903 65.1885 166.903 64.0275C166.903 62.8626 167.657 61.9214 168.586 61.9214Z" fill="#F9FCFD"/>
<path d="M171.881 68.7949H210.175C210.388 68.7949 210.56 69.0109 210.56 69.2771C210.56 69.5432 210.388 69.7592 210.175 69.7592H171.881C171.669 69.7592 171.497 69.5432 171.497 69.2771C171.497 69.0109 171.669 68.7949 171.881 68.7949Z" fill="#CFD3EB"/>
</g>
<defs>
<clipPath id="clip0_2655_207474">
<rect width="380" height="325" fill="white" transform="translate(0.5)"/>
</clipPath>
</defs>
</svg>
