<svg width="381" height="326" viewBox="0 0 381 326" fill="none" xmlns="http://www.w3.org/2000/svg">
<g clip-path="url(#clip0_2577_77581)">
<path d="M306.342 49.5004C305.746 49.2536 305.349 50.3799 305.948 50.6306C306.643 50.9199 307.338 51.0434 308.07 51.0164C308.701 50.9932 308.574 49.7705 307.944 49.7936C307.402 49.8129 306.859 49.7126 306.342 49.5004Z" fill="#FDD86B"/>
<path d="M312.591 50.4068C312.071 50.4377 311.557 50.3489 311.065 50.1368C310.469 49.8822 310.075 51.0085 310.672 51.267C311.339 51.5524 312.009 51.672 312.713 51.6296C313.343 51.591 313.22 50.3682 312.591 50.4068Z" fill="#FDD86B"/>
<path d="M317.879 51.3057C317.273 51.4098 316.68 51.3558 316.102 51.1128C315.505 50.8621 315.111 51.9884 315.708 52.243C316.458 52.5554 317.221 52.6634 318.005 52.5284C318.629 52.4204 318.506 51.1977 317.879 51.3057Z" fill="#FDD86B"/>
<path d="M321.031 53.8669L323.38 54.2873C324.004 54.3992 324.146 53.1803 323.518 53.0684L321.169 52.6479C320.542 52.5361 320.404 53.755 321.031 53.8669Z" fill="#FDD86B"/>
<path d="M309.383 47.3519C308.937 47.4676 308.513 47.4329 308.088 47.2168C307.501 46.9198 307.111 48.05 307.695 48.347C308.273 48.6402 308.894 48.7289 309.506 48.5746C310.124 48.4165 310.004 47.1937 309.383 47.3519Z" fill="#FDD86B"/>
<path d="M312.458 49.0801C313.399 49.2961 314.34 49.5083 315.281 49.7243C315.902 49.867 316.04 48.6481 315.419 48.5054C314.478 48.2893 313.537 48.0772 312.596 47.8612C311.972 47.7185 311.834 48.9374 312.458 49.0801Z" fill="#FDD86B"/>
<path d="M318.316 50.2411C319.011 50.5343 319.706 50.6654 320.437 50.6461C321.067 50.6307 320.939 49.408 320.311 49.4234C319.767 49.435 319.223 49.327 318.706 49.1109C318.109 48.8602 317.713 49.9865 318.316 50.2411Z" fill="#FDD86B"/>
<path d="M325.646 50.4455C325.178 50.5111 324.717 50.4609 324.271 50.2719C323.675 50.0251 323.281 51.1514 323.878 51.4021C324.499 51.6606 325.123 51.757 325.772 51.6683C326.399 51.5834 326.276 50.3607 325.646 50.4455Z" fill="#FDD86B"/>
<path d="M307.634 44.0307C307.501 44.0269 307.372 44.023 307.243 44.0192C307.197 44.0192 307.163 44.0153 307.132 44.0153C306.923 43.6373 306.32 43.672 306.222 44.2699C306.136 44.7906 306.493 45.1609 306.871 45.2304C307.344 45.3114 307.864 45.2574 308.34 45.2689C308.608 45.2766 308.851 45.1031 308.897 44.7443C308.934 44.4473 308.747 44.0539 308.479 44.0462C308.199 44.0462 307.916 44.0385 307.634 44.0307Z" fill="#FDD86B"/>
<path d="M311.295 44.0463C310.668 44.0077 310.524 45.2266 311.157 45.2652C311.76 45.2999 312.362 45.3385 312.962 45.3732C313.589 45.4118 313.734 44.1929 313.1 44.1543C312.497 44.1196 311.895 44.0849 311.295 44.0463Z" fill="#FDD86B"/>
<path d="M316.194 45.2808C315.579 45.1033 315.444 46.3222 316.056 46.4997C316.643 46.6694 317.237 46.789 317.836 46.8584C318.463 46.9278 318.608 45.7089 317.974 45.6395C317.375 45.5662 316.781 45.4505 316.194 45.2808Z" fill="#FDD86B"/>
<path d="M320.139 47.1938C320.914 47.5371 321.704 47.7416 322.526 47.7879C323.153 47.8226 323.297 46.6037 322.664 46.569C321.932 46.5265 321.222 46.3684 320.529 46.0675C319.936 45.8052 319.543 46.9354 320.139 47.1938Z" fill="#FDD86B"/>
<path d="M327.593 47.1859C327.132 47.2785 326.694 47.2554 326.243 47.1165C325.985 47.0355 325.723 47.3325 325.686 47.6411C325.646 47.9998 325.846 48.2583 326.105 48.3393C326.633 48.5013 327.181 48.5206 327.718 48.4126C328.34 48.2814 328.22 47.0587 327.593 47.1859Z" fill="#FDD86B"/>
<path d="M309.942 40.1695C309.346 40.3161 308.771 40.2968 308.181 40.1155C307.565 39.9265 307.434 41.1492 308.042 41.3344C308.709 41.535 309.396 41.5542 310.069 41.3922C310.687 41.2418 310.567 40.019 309.942 40.1695Z" fill="#FDD86B"/>
<path d="M313.251 42.1021L315.115 42.4338C315.739 42.5457 315.88 41.3268 315.253 41.2149L313.39 40.8832C312.762 40.7713 312.624 41.9903 313.251 42.1021Z" fill="#FDD86B"/>
<path d="M318.404 41.8322C317.79 41.6509 317.654 42.8737 318.266 43.0511C318.853 43.2247 319.447 43.3443 320.047 43.4099C320.674 43.4793 320.819 42.2604 320.185 42.1909C319.585 42.1254 318.992 42.0058 318.404 41.8322Z" fill="#FDD86B"/>
<path d="M325.483 43.1707C324.723 43.244 323.979 43.19 323.232 43.0242C322.611 42.8853 322.473 44.1042 323.094 44.2431C323.927 44.4321 324.766 44.4784 325.609 44.3935C326.239 44.3318 326.113 43.109 325.483 43.1707Z" fill="#FDD86B"/>
<path d="M308.716 37.1494C308.23 37.2227 307.763 37.188 307.287 37.053C306.668 36.8794 306.533 38.0983 307.148 38.2719C307.705 38.43 308.273 38.457 308.839 38.3722C309.47 38.2757 309.346 37.0491 308.716 37.1494Z" fill="#FDD86B"/>
<path d="M313.22 37.5349C312.701 37.6352 312.181 37.6159 311.677 37.4346C311.422 37.342 311.148 37.423 311.031 37.7547C310.933 38.0286 311.031 38.4722 311.287 38.5648C311.966 38.8155 312.646 38.8965 313.347 38.7576C313.968 38.6381 313.848 37.4153 313.22 37.5349Z" fill="#FDD86B"/>
<path d="M316.249 39.2941C316.861 39.5718 317.479 39.6837 318.128 39.649C318.758 39.6142 318.632 38.3915 318.002 38.4262C317.538 38.4532 317.077 38.3606 316.639 38.1639C316.05 37.8977 315.656 39.0241 316.249 39.2941Z" fill="#FDD86B"/>
<path d="M321.129 39.9809C321.815 40.3242 322.525 40.5247 323.266 40.5633C323.89 40.5942 324.035 39.3753 323.404 39.3444C322.753 39.3097 322.129 39.1554 321.523 38.8545C320.932 38.5575 320.542 39.6877 321.129 39.9809Z" fill="#FDD86B"/>
<path d="M326.239 41.3116L328.023 41.6317C328.647 41.7436 328.788 40.5247 328.161 40.4128L326.378 40.0927C325.754 39.9808 325.612 41.1997 326.239 41.3116Z" fill="#FDD86B"/>
<path d="M310.533 33.7512C309.939 33.8708 309.361 33.8515 308.771 33.701C308.15 33.5468 308.014 34.7657 308.633 34.92C309.3 35.0897 309.983 35.1012 310.656 34.9701C311.283 34.8505 311.16 33.6278 310.533 33.7512Z" fill="#FDD86B"/>
<path d="M315.954 34.6346C315.197 34.677 314.453 34.596 313.709 34.4186C313.088 34.2681 312.95 35.487 313.571 35.6375C314.401 35.8381 315.235 35.9036 316.08 35.8573C316.708 35.8226 316.584 34.5999 315.954 34.6346Z" fill="#FDD86B"/>
<path d="M321.058 35.5449C320.219 35.6105 319.391 35.5526 318.561 35.379C317.937 35.2479 317.799 36.4707 318.423 36.598C319.339 36.787 320.259 36.841 321.184 36.7677C321.815 36.7175 321.689 35.4948 321.058 35.5449Z" fill="#FDD86B"/>
<path d="M326.393 36.586C325.689 36.6785 325 36.6361 324.305 36.4741C323.684 36.3275 323.546 37.5464 324.167 37.693C324.945 37.8782 325.732 37.9129 326.519 37.8087C327.146 37.7239 327.023 36.5011 326.393 36.586Z" fill="#FDD86B"/>
<path d="M26.2224 240.437C25.6259 240.191 25.2293 241.317 25.8288 241.568C26.5238 241.857 27.2187 241.98 27.9505 241.953C28.5809 241.93 28.4548 240.707 27.8245 240.731C27.2832 240.75 26.739 240.65 26.2224 240.437Z" fill="#FDD86B"/>
<path d="M32.4708 241.344C31.9512 241.375 31.4376 241.286 30.9457 241.074C30.3492 240.819 29.9556 241.945 30.5521 242.204C31.2193 242.489 31.8897 242.609 32.5938 242.566C33.2242 242.528 33.1011 241.305 32.4708 241.344Z" fill="#FDD86B"/>
<path d="M37.7591 242.243C37.1534 242.347 36.5599 242.293 35.9818 242.05C35.3852 241.799 34.9917 242.925 35.5882 243.18C36.3385 243.492 37.1011 243.6 37.8851 243.465C38.5094 243.357 38.3864 242.135 37.7591 242.243Z" fill="#FDD86B"/>
<path d="M40.9108 244.804L43.2601 245.224C43.8842 245.336 44.0257 244.117 43.3984 244.005L41.0492 243.585C40.4219 243.473 40.2836 244.692 40.9108 244.804Z" fill="#FDD86B"/>
<path d="M29.2633 238.289C28.8174 238.404 28.3931 238.37 27.9688 238.154C27.3815 237.857 26.991 238.987 27.5752 239.284C28.1533 239.577 28.7744 239.666 29.3863 239.511C30.0043 239.353 29.8844 238.131 29.2633 238.289Z" fill="#FDD86B"/>
<path d="M32.3383 240.017C33.2792 240.233 34.2201 240.445 35.161 240.661C35.7821 240.804 35.9205 239.585 35.2993 239.442C34.3585 239.226 33.4175 239.014 32.4767 238.798C31.8524 238.655 31.714 239.874 32.3383 240.017Z" fill="#FDD86B"/>
<path d="M38.196 241.178C38.8909 241.471 39.5857 241.602 40.3176 241.583C40.9479 241.568 40.8188 240.345 40.1915 240.36C39.6473 240.372 39.103 240.264 38.5865 240.048C37.9899 239.797 37.5963 240.923 38.196 241.178Z" fill="#FDD86B"/>
<path d="M45.5262 241.382C45.0588 241.448 44.5976 241.398 44.1518 241.209C43.5552 240.962 43.1616 242.088 43.7582 242.339C44.3793 242.597 45.0035 242.694 45.6523 242.605C46.2795 242.52 46.1565 241.298 45.5262 241.382Z" fill="#FDD86B"/>
<path d="M27.5137 234.968C27.3814 234.964 27.2523 234.96 27.1232 234.956C27.0771 234.956 27.0432 234.952 27.0125 234.952C26.8034 234.574 26.2007 234.609 26.1023 235.207C26.0162 235.728 26.3729 236.098 26.7511 236.167C27.2246 236.248 27.7443 236.194 28.2209 236.206C28.4884 236.214 28.7313 236.04 28.7774 235.681C28.8143 235.384 28.6268 234.991 28.3593 234.983C28.0794 234.983 27.7966 234.975 27.5137 234.968Z" fill="#FDD86B"/>
<path d="M31.1762 234.983C30.549 234.945 30.4045 236.164 31.0378 236.202C31.6405 236.237 32.2432 236.275 32.8428 236.31C33.4701 236.349 33.6146 235.13 32.9812 235.091C32.3785 235.057 31.7758 235.022 31.1762 234.983Z" fill="#FDD86B"/>
<path d="M36.0745 236.218C35.4595 236.04 35.3242 237.259 35.9361 237.437C36.5234 237.606 37.1169 237.726 37.7165 237.795C38.3438 237.865 38.4883 236.646 37.8549 236.576C37.2553 236.503 36.6618 236.387 36.0745 236.218Z" fill="#FDD86B"/>
<path d="M40.0195 238.131C40.7944 238.474 41.5846 238.678 42.4056 238.725C43.0329 238.759 43.1774 237.541 42.544 237.506C41.8121 237.463 41.1019 237.305 40.41 237.004C39.8166 236.742 39.423 237.872 40.0195 238.131Z" fill="#FDD86B"/>
<path d="M47.4725 238.123C47.0113 238.215 46.5747 238.192 46.1227 238.053C45.8644 237.972 45.603 238.269 45.5661 238.578C45.5262 238.937 45.726 239.195 45.9843 239.276C46.5132 239.438 47.0605 239.457 47.5986 239.349C48.2197 239.218 48.0998 237.996 47.4725 238.123Z" fill="#FDD86B"/>
<path d="M29.8229 231.106C29.2264 231.253 28.6514 231.234 28.061 231.052C27.446 230.863 27.3138 232.086 27.9227 232.271C28.5899 232.472 29.2756 232.491 29.949 232.329C30.567 232.179 30.4472 230.956 29.8229 231.106Z" fill="#FDD86B"/>
<path d="M33.1316 233.039L34.9949 233.371C35.6191 233.483 35.7606 232.264 35.1333 232.152L33.2699 231.82C32.6427 231.708 32.5043 232.927 33.1316 233.039Z" fill="#FDD86B"/>
<path d="M38.285 232.769C37.67 232.588 37.5347 233.811 38.1466 233.988C38.7339 234.162 39.3273 234.281 39.9269 234.347C40.5542 234.416 40.6987 233.197 40.0653 233.128C39.4657 233.062 38.8722 232.943 38.285 232.769Z" fill="#FDD86B"/>
<path d="M45.3633 234.108C44.6038 234.181 43.8597 234.127 43.1125 233.961C42.4914 233.822 42.3531 235.041 42.9742 235.18C43.8074 235.369 44.6469 235.415 45.4894 235.33C46.1198 235.269 45.9937 234.046 45.3633 234.108Z" fill="#FDD86B"/>
<path d="M28.5959 228.086C28.1101 228.16 27.6428 228.125 27.1661 227.99C26.5481 227.816 26.4128 229.035 27.0278 229.209C27.5843 229.367 28.1531 229.394 28.7189 229.309C29.3493 229.213 29.2263 227.986 28.5959 228.086Z" fill="#FDD86B"/>
<path d="M33.1009 228.472C32.5812 228.572 32.0616 228.553 31.5573 228.372C31.3021 228.279 31.0284 228.36 30.9116 228.692C30.8132 228.966 30.9116 229.409 31.1668 229.502C31.8463 229.752 32.5259 229.833 33.227 229.695C33.8481 229.575 33.7282 228.352 33.1009 228.472Z" fill="#FDD86B"/>
<path d="M36.1297 230.231C36.7416 230.509 37.3596 230.621 38.0085 230.586C38.6388 230.551 38.5127 229.328 37.8824 229.363C37.4181 229.39 36.9569 229.298 36.5202 229.101C35.9299 228.835 35.5363 229.961 36.1297 230.231Z" fill="#FDD86B"/>
<path d="M41.0095 230.918C41.6951 231.261 42.4054 231.462 43.1464 231.5C43.7707 231.531 43.9152 230.312 43.2848 230.281C42.633 230.247 42.0087 230.092 41.403 229.791C40.8126 229.494 40.4221 230.625 41.0095 230.918Z" fill="#FDD86B"/>
<path d="M46.1198 232.248L47.9032 232.569C48.5275 232.68 48.6689 231.462 48.0416 231.35L46.2582 231.03C45.634 230.918 45.4925 232.137 46.1198 232.248Z" fill="#FDD86B"/>
<path d="M30.4137 224.688C29.8203 224.808 29.2422 224.788 28.6518 224.638C28.0307 224.484 27.8954 225.702 28.5134 225.857C29.1807 226.027 29.8633 226.038 30.5367 225.907C31.1639 225.787 31.041 224.565 30.4137 224.688Z" fill="#FDD86B"/>
<path d="M35.8343 225.572C35.0778 225.614 34.3337 225.533 33.5896 225.355C32.9684 225.205 32.8301 226.424 33.4512 226.574C34.2814 226.775 35.1147 226.841 35.9603 226.794C36.5876 226.76 36.4646 225.537 35.8343 225.572Z" fill="#FDD86B"/>
<path d="M40.9387 226.482C40.0993 226.547 39.2721 226.489 38.4419 226.316C37.8178 226.185 37.6794 227.407 38.3036 227.535C39.2199 227.724 40.1393 227.778 41.0648 227.704C41.6951 227.654 41.5691 226.432 40.9387 226.482Z" fill="#FDD86B"/>
<path d="M46.2736 227.523C45.5695 227.615 44.8807 227.573 44.1858 227.411C43.5647 227.264 43.4263 228.483 44.0474 228.63C44.8254 228.815 45.6125 228.85 46.3997 228.746C47.027 228.661 46.904 227.438 46.2736 227.523Z" fill="#FDD86B"/>
<path fill-rule="evenodd" clip-rule="evenodd" d="M93.0053 316.986C67.6008 316.986 46.8179 287.99 46.8179 252.561C46.8179 217.128 67.6008 188.132 93.0053 188.132C103.745 188.132 112.534 175.878 112.534 160.892C112.534 145.91 103.745 133.652 93.0053 133.652H90.6808C79.5128 133.652 70.3774 120.907 70.3774 105.328C70.3774 89.7515 79.5159 77.007 90.6808 77.007H97.8141C102.159 77.007 105.711 72.0465 105.711 65.9789C105.711 59.9152 102.144 54.9547 97.8141 54.9547H92.572C89.571 54.9547 87.1169 51.5295 87.1169 47.3443C87.1169 43.1591 89.5734 39.7338 92.572 39.7338H127.782C132.496 39.7338 136.355 34.3683 136.355 27.7762C136.355 21.1995 132.496 15.8186 127.782 15.8186H117.26C114.259 15.8186 111.805 12.3894 111.805 8.20811C111.805 4.0268 114.259 0.597656 117.26 0.597656H267.147C271.062 0.597656 274.265 5.06827 274.265 10.5263C274.265 15.9844 271.062 20.455 267.147 20.455H256.164C250.01 20.455 244.977 27.4792 244.977 36.0578C244.977 44.6403 250.01 51.6606 256.164 51.6606H302.474C306.388 51.6606 309.592 56.1312 309.592 61.5893C309.592 67.0474 306.391 71.518 302.474 71.518H295.648C289.975 71.518 285.335 77.9906 285.335 85.9058C285.335 93.8171 289.975 100.29 295.648 100.29H304.949C319.521 100.29 331.439 116.923 331.439 137.251C331.439 157.575 319.518 174.208 304.949 174.208H301.917C287.908 174.208 276.445 190.2 276.445 209.756C276.445 229.305 287.908 245.305 301.917 245.305H308.485C322.617 245.305 334.179 261.433 334.179 281.14C334.179 300.854 322.617 316.982 308.485 316.982L93.0053 316.986ZM285.366 20.4666C289.295 20.4666 292.499 16.023 292.499 10.5379C292.499 5.05284 289.307 0.605371 285.366 0.605371C281.423 0.605371 278.231 5.05284 278.231 10.534C278.231 16.0153 281.417 20.4666 285.366 20.4666ZM77.2559 54.9586C80.2689 54.9586 82.7103 51.5526 82.7103 47.3481C82.7103 43.1475 80.2689 39.7377 77.2559 39.7377C74.2425 39.7377 71.801 43.1437 71.801 47.3481C71.801 51.5487 74.2548 54.9586 77.2682 54.9586H77.2559Z" fill="#FDD86B"/>
<path d="M174.848 272.758C163.73 272.8 152.611 273.136 141.514 274.682C137.329 275.265 133.234 276.549 129.039 277.07C120.66 278.104 112.435 280.036 104.025 280.927C97.2545 281.645 90.4559 282.069 83.7073 282.976C77.3788 283.828 70.3713 283.631 64.0893 282.223C59.4401 281.182 54.7694 280.592 50.1971 278.918C45.0836 277.043 39.5274 275.705 34.1986 275.751C26.6006 275.82 19.2025 275.828 11.9305 279.138C9.37833 280.299 6.25429 282.208 4.31406 284.646C-0.122964 290.227 -0.722563 304.152 3.70831 309.942C11.171 319.686 27.0957 323.508 37.5564 323.689C49.0164 323.886 60.1504 322.822 71.6288 322.193C82.2954 321.61 92.9346 320.781 103.617 320.808C125.436 320.866 147.258 320.808 169.037 318.98C189.501 317.263 210.013 317.853 230.522 317.853C251.551 317.853 272.438 318.062 293.317 321.568C302.412 323.095 311.68 323.632 320.825 324.7C329.013 325.66 336.882 324.681 345.036 323.794C351.884 323.049 358.688 320.843 364.909 317.113C369.835 314.162 378.613 304.989 380.123 297.942C384.357 278.185 320.456 278.659 310.644 278.706C299.67 278.756 288.606 279.207 277.638 278.682C273.026 278.462 268.478 277.332 263.977 276.09C259.491 274.856 254.974 275.168 250.426 274.651C231.46 272.488 212.451 272.804 193.427 272.804C187.237 272.804 181.045 272.734 174.848 272.758Z" fill="#A3A9AD"/>
<path d="M68.4648 93.5508L79.7188 115.225L87.0462 132.78L84.3647 139.584L74.6207 136.163L68.4648 93.5508Z" fill="#F15B48"/>
<path d="M54.9785 170.091V181.066L66.6445 228.622L63.7265 278.007L71.017 279.836L82.6833 219.477L82.2373 201.718L76.85 165.497L54.9785 170.091Z" fill="#46484B"/>
<path d="M70.0608 278.898L75.6263 286.285L74.0181 290.03L62.5366 283.118L64.649 277.644L70.0608 278.898Z" fill="#3A3A3A"/>
<path d="M31.1575 279.469L38.0175 284.877L37.2057 289.008L24.7095 285.911L25.6658 279.951L31.1575 279.469Z" fill="#3A3A3A"/>
<path d="M68.5019 93.4968L51.1474 84.8604C51.1474 84.8604 44.9792 104.078 37.9685 134.859C30.9578 165.64 41.2248 204.827 41.2248 204.827C41.2248 204.827 80.9798 192.973 88.9193 191.021L78.9626 134.755L68.5019 93.4968Z" fill="#F15B48"/>
<path d="M64.2339 183.087L54.9786 240.167L33.264 281.128L26.5669 279.469L38.0177 234.003L36.5294 173.941L64.2339 183.087Z" fill="#46484B"/>
<path d="M69.0765 63.2981C64.3505 63.734 59.9349 58.8661 55.2827 60.0734C52.2601 60.8603 49.871 64.2239 48.9485 68.0156C48.518 69.7822 48.3673 71.7109 48.7855 73.4659C49.0592 74.6077 49.5635 75.6338 50.1569 76.5479C50.9502 77.7707 51.9188 78.7852 52.995 79.5643C52.4046 80.7601 51.7251 81.8903 50.9718 82.9318C53.1518 83.9771 55.3288 85.0263 57.5089 86.0716C57.9917 84.5017 58.4713 82.9318 58.9541 81.358C59.609 81.3117 60.2609 81.196 60.9035 80.9877C64.7717 79.7302 67.9787 75.4795 68.8428 70.465C69.2487 68.1159 69.1719 65.6896 69.0765 63.2981Z" fill="#FCCCBA"/>
<path d="M67.8836 65.0838L53.2749 62.9083L50.44 76.9064L46.3135 72.7984L48.4382 49.8899L69.0582 49.3345L77.9846 55.9034L77.6063 62.4878L69.624 69.2304L67.8836 65.0838Z" fill="#35445B"/>
<path d="M62.2138 88.2351L44.8593 79.5986C44.8593 79.5986 38.6911 98.8157 31.6804 129.597C24.6697 160.379 34.9367 199.565 34.9367 199.565C34.9367 199.565 70.5005 177.52 78.4367 175.569L72.6714 129.493L62.2138 88.2351Z" fill="white"/>
<path d="M31.4191 130.257C38.4297 99.4754 44.5025 80.2236 44.5025 80.2236L61.9524 88.891L61.9801 89.0028C61.5957 90.2603 61.1929 91.5101 60.8455 92.7868C59.4709 97.8206 58.4562 103.001 57.8321 108.263C56.7343 117.513 56.6205 127.021 56.8543 136.355C57.0818 145.312 57.8167 154.249 59.0836 163.067C60.7594 174.724 63.4345 186.084 66.8783 197.081C50.7383 201.197 31.7419 206.061 31.7419 206.061C31.7419 206.061 24.4084 161.038 31.4191 130.257Z" fill="#F15B48"/>
<path d="M79.4204 124.363L113.659 120.926L114.778 130.38L83.805 139.584L79.4204 124.363Z" fill="#F15B48"/>
<path d="M113.84 122.45L116.611 118.863L119.409 118.342L121.002 123.611L117.284 130.068L114.778 130.381L113.84 122.45Z" fill="#F8C3A5"/>
<path d="M330.43 91.5371L318.85 94.0945L298.32 114.045L270.904 105.069L267.728 113.331L293.215 128.718L304.322 132.232L318.749 126.326L330.43 91.5371Z" fill="#F15C48"/>
<path d="M270.157 110.477L265.868 113.169L262.805 112.733L262.787 111.422L264.582 110.523L258.765 108.938L258.233 105.42L265.203 103.341L271.519 105.647L270.157 110.477Z" fill="#F8C3A5"/>
<path d="M317.599 281.128L312.194 285.934L310.392 289.61C310.392 289.61 312.418 290.74 313.546 291.022C314.672 291.303 323.459 289.61 323.459 289.61V283.11L317.599 281.128Z" fill="#2F3542"/>
<path d="M359.614 283.176L357.618 287.728C357.618 287.728 356.37 293.479 357.452 293.086C358.535 292.692 364.565 291.377 364.807 290.405C365.05 289.433 367.667 285.537 367.974 284.835C368.282 284.133 366.978 279.446 366.978 279.446L359.614 283.176Z" fill="#2F3542"/>
<path d="M322.633 176.02L340.092 241.401L359.614 283.176L367.187 280.418L354.245 232.772C354.245 232.772 352.683 184.911 350.125 170.832L322.633 176.02Z" fill="#3B4860"/>
<path d="M308.814 185.887L315.573 283.107H323.681L326.16 233.367L330.818 189.328L313.095 163.276L308.814 185.887Z" fill="#3B4860"/>
<path d="M308.553 123.673C309.392 118.662 309.724 113.27 311.702 108.595C313.679 103.923 317.417 100.382 320.302 96.409C321.523 94.7273 322.829 92.9761 324.646 92.1737C325.892 91.6221 327.266 91.5758 328.607 91.5334C332.675 91.4061 336.743 91.275 340.811 91.1477C342.293 91.1014 343.837 91.0667 345.189 91.7379C347.216 92.7446 348.36 95.086 349.362 97.2692C351.92 102.847 352.391 109.034 352.618 115.341C352.612 115.399 355.792 194.532 353.267 193.046C350.125 191.195 346.53 190.211 343.003 189.525C338.031 188.526 332.958 187.889 327.891 187.735L318.97 188.491H313.59C310.357 188.884 310.625 190.103 307.305 189.849C305.183 189.687 307.59 129.416 308.553 123.673Z" fill="#F15C48"/>
<path d="M331.922 94.0945C333.942 93.9826 335.959 93.8746 337.979 93.7628C338.087 91.7454 338.069 89.7165 337.921 87.703C339.628 87.0819 341.611 86.1099 341.998 83.9344C342.121 83.2478 342.057 82.5342 341.992 81.8399C341.724 78.9585 341.457 76.0732 341.189 73.1918C341.097 72.1927 340.999 71.1667 340.606 70.2911C339.92 68.752 338.489 68.0037 337.121 67.6064C333.631 66.5919 329.748 67.2824 326.885 69.9902C326.123 70.7115 325.425 71.591 325.056 72.6942C324.483 74.3953 324.77 76.3317 325.065 78.1408C325.336 79.8072 325.609 81.4774 325.879 83.1437C326.194 85.0607 326.667 87.2517 328.09 88.0617C328.844 88.4937 329.761 88.4437 330.434 89.0493C331.623 90.1216 331.356 92.405 331.922 94.0945Z" fill="#FCCCBA"/>
<path d="M320.736 57.4541C321.184 57.3538 321.643 57.2342 322.104 56.9835C323.568 56.1851 324.591 54.5843 326.144 53.8321C329.287 52.3162 333.226 52.5361 336.313 54.1638C339.264 55.7222 343.296 56.3201 345.94 58.4146C347.044 59.2902 347.899 60.594 348.544 62.0173C350.789 66.9431 350.513 73.5005 347.868 78.1023C347.275 79.136 346.577 80.0656 345.851 80.9528C344.344 82.7889 342.54 85.057 340.55 85.6394C340.599 83.4408 342.499 76.6326 341.236 74.7425C339.56 72.2353 336.27 72.297 333.914 72.5747C331.107 72.9065 328.795 71.7724 325.994 71.9499C324.567 72.0386 322.952 72.4012 321.861 71.2478C320.598 69.9171 317.922 65.6856 317.289 63.8264C316.732 62.2024 317.104 60.1967 318.069 58.9083C318.9 57.7936 319.798 57.6663 320.736 57.4541Z" fill="#35445B"/>
<path d="M319.127 144.178C319.127 143.395 319.244 142.616 319.484 141.891C320.554 138.643 331.802 97.9907 331.802 97.9907C331.802 97.9907 332.253 95.8846 332.466 94.0331L336.069 93.7515L335.476 98.3687L333.788 100.19C333.788 100.19 326.873 144.958 326.832 145.744L321.707 153.698L319.127 144.178Z" fill="#3B5366"/>
<path d="M304.482 222.027C305.693 218.613 309.106 216.919 311.96 218.964C317.126 222.663 322.215 225.888 327.989 221.949C335.012 217.159 337.613 205.305 333.561 196.669C328.564 186.019 319.481 187.33 312.135 193.077C309.272 195.319 305.724 193.648 304.482 190.154V147.858H304.027H292.038H271.163C268.109 146.52 266.557 141.833 268.423 138.072C273.001 128.853 274.04 117.459 265.548 111.195C258.66 106.118 249.212 109.386 245.398 118.199C242.262 125.447 244.836 131.827 247.788 138.304C249.488 142.034 247.948 146.52 244.996 147.854H212.064V187.427C212.064 192.649 207.486 195.835 203.953 193.07C196.606 187.322 187.524 186.011 182.527 196.661C178.474 205.297 181.076 217.151 188.098 221.942C193.873 225.88 198.962 222.655 204.128 218.956C207.664 216.426 212.061 219.623 212.061 224.73V263.786H244.448C247.68 262.709 249.448 257.965 247.668 254.058C244.716 247.577 242.142 241.197 245.279 233.953C249.092 225.139 258.541 221.868 265.428 226.948C273.921 233.209 272.881 244.607 268.303 253.826C266.341 257.776 268.15 262.748 271.507 263.789H291.039H304.021H304.475V222.027H304.482Z" fill="#3FBEB0"/>
<path d="M149.761 148.325C147.003 146.782 145.635 142.442 147.286 138.813C150.274 132.24 152.882 125.767 149.699 118.423C145.829 109.489 136.247 106.18 129.264 111.329C120.654 117.682 121.715 129.239 126.358 138.585C128.169 142.226 126.82 146.739 123.994 148.321L89.8041 148.317V148.899V164.147L89.8009 190.705C88.7189 194.589 84.9308 196.564 81.8901 194.188C74.4393 188.364 65.227 187.041 60.1627 197.841C56.0578 206.601 58.6991 218.62 65.8235 223.473C71.6812 227.461 76.8376 224.19 82.0769 220.437C85.0938 218.277 88.7189 220.236 89.7985 223.99V265.88L121.786 265.884C121.847 265.884 121.906 265.895 121.967 265.899H123.987C126.81 264.318 128.16 259.805 126.352 256.163C121.706 246.817 120.648 235.264 129.258 228.908C136.241 223.754 145.822 227.064 149.693 236.001C152.876 243.346 150.269 249.818 147.279 256.391C145.628 260.021 146.996 264.364 149.755 265.903H151.762C151.824 265.899 151.882 265.888 151.948 265.888L183.517 265.891L183.52 224.692C182.751 220.032 179.157 218.211 175.658 220.595C170.356 224.206 165.658 227.419 159.8 223.43C152.676 218.578 149.638 206.759 153.743 197.999C158.804 187.195 168.016 188.522 175.47 194.346C178.661 196.842 182.684 194.543 183.526 190.269L183.529 165.424V148.907V148.325H149.761Z" fill="#EF7550"/>
<path d="M58.8467 95.5024L55.9501 124.872L79.3345 147.576L76.152 157.073L43.2263 139.183L41.0278 132.22L43.9367 92.3047L58.8467 95.5024Z" fill="#F15B48"/>
<path d="M76.3979 156.344C76.3979 156.344 78.1967 150.975 78.4396 150.257C78.6826 149.536 88.1376 148.83 88.1376 148.83L87.0461 154.801L80.7086 158.539L76.3979 156.344Z" fill="#F8C3A5"/>
<path d="M334.413 110.006L335.091 138.23L302.984 146.952L304.424 156.097L339.944 153.328L346.521 145.628L350.934 118.523L334.413 110.006Z" fill="#F15C48"/>
<path d="M304.294 155.272L299.541 158.697L294.332 155.53L299.507 145.189L302.985 146.952L304.294 155.272Z" fill="#F8C3A5"/>
<path d="M164.785 19.1011H216.215C218.481 19.1011 220.32 21.4077 220.32 24.2506V29.5852C220.32 32.428 218.481 34.7347 216.215 34.7347H164.785C162.518 34.7347 160.68 32.428 160.68 29.5852V24.2506C160.68 21.4039 162.518 19.1011 164.785 19.1011Z" fill="#E3EAF6"/>
<path d="M167.761 21.7896H213.432C213.782 21.7896 214.065 22.1445 214.065 22.5842V23.4058C214.065 23.8456 213.782 24.2004 213.432 24.2004H167.761C167.41 24.2004 167.127 23.8456 167.127 23.4058V22.5842C167.127 22.1445 167.41 21.7896 167.761 21.7896Z" fill="#7DB3E1"/>
<path d="M167.761 25.7124H213.432C213.782 25.7124 214.065 26.0673 214.065 26.507V27.3286C214.065 27.7683 213.782 28.1232 213.432 28.1232H167.761C167.41 28.1232 167.127 27.7683 167.127 27.3286V26.507C167.127 26.0673 167.41 25.7124 167.761 25.7124Z" fill="#7DB3E1"/>
<path d="M167.761 29.6313H213.432C213.782 29.6313 214.065 29.9862 214.065 30.4259V31.2475C214.065 31.6873 213.782 32.0421 213.432 32.0421H167.761C167.41 32.0421 167.127 31.6873 167.127 31.2475V30.4259C167.127 29.9862 167.41 29.6313 167.761 29.6313Z" fill="#7DB3E1"/>
<path d="M165.317 38.7075H216.298C218.078 38.7075 219.521 40.5166 219.521 42.7499V90.8235C219.521 93.0569 218.078 94.866 216.298 94.866H165.317C163.537 94.866 162.095 93.0569 162.095 90.8235V42.7499C162.095 40.5166 163.537 38.7075 165.317 38.7075Z" fill="#E3EAF6"/>
<path d="M169.536 43.9307H211.794C213.005 43.9307 213.986 45.1612 213.986 46.681C213.986 48.2008 213.005 49.4313 211.794 49.4313H169.536C168.324 49.4313 167.343 48.2008 167.343 46.681C167.343 45.1612 168.324 43.9307 169.536 43.9307Z" fill="#7DB3E1"/>
<path d="M173.973 80.0041H170.037C169.111 80.0041 168.361 79.063 168.361 77.9019V77.8981C168.358 76.737 169.108 75.7958 170.033 75.792H170.037H173.973C174.898 75.792 175.648 76.7332 175.648 77.8942V77.8981C175.652 79.0591 174.901 80.0003 173.976 80.0041H173.973Z" fill="#7DB3E1"/>
<path d="M212.163 80.0041H208.227C207.301 80.0041 206.551 79.063 206.551 77.9019V77.8981C206.548 76.737 207.298 75.7958 208.223 75.792H208.227H212.163C213.088 75.792 213.838 76.7332 213.838 77.8942V77.8981C213.842 79.0591 213.091 80.0003 212.166 80.0041H212.163Z" fill="#8271B3"/>
<path d="M168.586 54.9316H213.321C214.25 54.9316 215.004 55.8767 215.004 57.0377C215.004 58.2026 214.25 59.1438 213.321 59.1438H168.586C167.657 59.1438 166.903 58.1988 166.903 57.0377C166.903 55.8728 167.657 54.9316 168.586 54.9316Z" fill="#F9FCFD"/>
<path d="M168.586 62.083H213.321C214.25 62.083 215.004 63.028 215.004 64.1891C215.004 65.354 214.25 66.2952 213.321 66.2952H168.586C167.657 66.2952 166.903 65.3501 166.903 64.1891C166.903 63.0242 167.657 62.083 168.586 62.083Z" fill="#F9FCFD"/>
<path d="M171.881 68.9565H210.175C210.388 68.9565 210.56 69.1725 210.56 69.4387C210.56 69.7048 210.388 69.9208 210.175 69.9208H171.881C171.669 69.9208 171.497 69.7048 171.497 69.4387C171.497 69.1725 171.669 68.9565 171.881 68.9565Z" fill="#CFD3EB"/>
</g>
<defs>
<clipPath id="clip0_2577_77581">
<rect width="380" height="325" fill="white" transform="translate(0.5 0.161621)"/>
</clipPath>
</defs>
</svg>
