<svg width="381" height="349" viewBox="0 0 381 349" fill="none" xmlns="http://www.w3.org/2000/svg">
<g clip-path="url(#clip0_2577_77693)">
<path fill-rule="evenodd" clip-rule="evenodd" d="M61.5033 347.613C27.9498 347.613 0.499512 315.772 0.499512 276.859C0.499512 237.947 27.9498 206.106 61.5033 206.106C75.691 206.106 87.2983 192.648 87.2983 176.191C87.2983 159.739 75.691 146.277 61.5033 146.277H58.4348C43.6853 146.277 31.6171 132.281 31.6171 115.172C31.6171 98.0673 43.6853 84.0713 58.4348 84.0713H67.8553C73.595 84.0713 78.285 78.6239 78.285 71.9611C78.285 65.302 73.5748 59.8545 67.8553 59.8545H60.9313C56.968 59.8545 53.7247 56.094 53.7247 51.4975C53.7247 46.9009 56.968 43.1404 60.9313 43.1404H107.438C113.665 43.1404 118.762 37.2473 118.762 30.0099C118.762 22.7872 113.665 16.8795 107.438 16.8795H93.5394C89.576 16.8795 86.3361 13.1153 86.3361 8.52239C86.3361 3.92949 89.576 0.165302 93.5394 0.165302H291.512C296.683 0.165302 300.913 5.07495 300.913 11.0711C300.913 17.0673 296.68 21.977 291.512 21.977H277.005C268.879 21.977 262.231 29.6895 262.231 39.111C262.231 48.5362 268.879 56.2451 277.005 56.2451H338.17C343.341 56.2451 347.57 61.1547 347.57 67.1509C347.57 73.1471 343.341 78.0567 338.17 78.0567H329.153C321.661 78.0567 315.531 85.1652 315.531 93.8575C315.531 102.546 321.661 109.655 329.153 109.655H341.44C360.688 109.655 376.43 127.92 376.43 150.243C376.43 172.563 360.685 190.828 341.44 190.828H337.436C318.932 190.828 303.792 208.393 303.792 229.87C303.792 251.339 318.932 268.911 337.436 268.911H346.11C364.775 268.911 380.047 286.623 380.047 308.266C380.047 329.915 364.775 347.628 346.11 347.628L61.5033 347.613ZM315.571 21.9733C320.762 21.9733 324.991 17.0931 324.991 11.0674C324.991 5.0418 320.779 0.161621 315.571 0.161621C310.363 0.161621 306.15 5.04549 306.15 11.0674C306.15 17.0894 310.36 21.9733 315.571 21.9733ZM40.6976 59.8545C44.6777 59.8545 47.9043 56.1125 47.9043 51.4975C47.9043 46.8825 44.6777 43.1404 40.6976 43.1404C36.7176 43.1404 33.491 46.8825 33.491 51.4975C33.491 56.1125 36.731 59.8545 40.7111 59.8545H40.6976Z" fill="#FED96A"/>
<path d="M65.7695 322.755H306.814C306.814 326.068 305.612 329.244 303.472 331.587C301.332 333.929 298.431 335.245 295.405 335.245H77.1817C75.6831 335.245 74.1992 334.923 72.8147 334.295C71.4301 333.668 70.172 332.748 69.1122 331.588C68.0524 330.428 67.2118 329.051 66.6382 327.536C66.0648 326.02 65.7695 324.396 65.7695 322.755Z" fill="#D3D3D3"/>
<path d="M306.8 165.322V322.755H65.7725V165.322C65.7725 163.755 66.0545 162.204 66.6023 160.756C67.1502 159.308 67.9532 157.993 68.9655 156.885C69.9778 155.777 71.1794 154.899 72.5019 154.3C73.8244 153.7 75.2419 153.392 76.6733 153.392H295.916C298.804 153.396 301.572 154.655 303.613 156.892C305.654 159.129 306.8 162.161 306.8 165.322Z" fill="#131313"/>
<path d="M309.447 165.687V322.755H68.4204V165.687C68.4204 164.072 68.7111 162.472 69.276 160.98C69.8408 159.488 70.6685 158.133 71.7121 156.991C72.7557 155.849 73.9945 154.944 75.3578 154.326C76.7211 153.709 78.1822 153.392 79.6576 153.392H298.231C301.207 153.396 304.06 154.693 306.163 156.999C308.266 159.304 309.447 162.429 309.447 165.687Z" fill="#333333"/>
<path d="M300.418 162.825V314.048C300.422 314.1 300.409 314.152 300.379 314.192C300.349 314.233 300.306 314.259 300.26 314.266H76.9931C76.9452 314.26 76.9012 314.234 76.8704 314.194C76.8395 314.153 76.8245 314.101 76.8282 314.048V162.825C76.8255 162.774 76.8412 162.724 76.872 162.685C76.9029 162.647 76.9464 162.623 76.9931 162.619H300.26C300.305 162.624 300.347 162.648 300.378 162.687C300.407 162.725 300.421 162.775 300.418 162.825Z" fill="#91B1DD"/>
<path d="M300.418 162.825V314.048C300.423 314.1 300.409 314.152 300.38 314.192C300.349 314.233 300.307 314.259 300.26 314.266H120.915C120.892 314.263 120.869 314.256 120.848 314.244C120.826 314.232 120.808 314.215 120.792 314.195C120.777 314.174 120.765 314.151 120.758 314.126C120.751 314.101 120.748 314.075 120.751 314.048V162.825C120.749 162.8 120.752 162.774 120.759 162.75C120.767 162.726 120.778 162.703 120.794 162.684C120.81 162.665 120.828 162.649 120.849 162.638C120.87 162.627 120.893 162.62 120.915 162.619H300.26C300.306 162.624 300.348 162.648 300.378 162.687C300.407 162.725 300.422 162.775 300.418 162.825Z" fill="#D4E0F3"/>
<path d="M68.4204 322.755H309.465C309.465 326.068 308.262 329.244 306.123 331.587C303.984 333.929 301.082 335.245 298.055 335.245H79.8326C76.8067 335.245 73.9048 333.929 71.7653 331.587C69.6257 329.244 68.4238 326.068 68.4238 322.755H68.4204Z" fill="#F4F4F4"/>
<g style="mix-blend-mode:multiply">
<path d="M266.794 227.917C266.918 227.549 273.557 215.163 272.605 214.264C271.652 213.365 269.577 215.166 269.577 215.166L270.676 212.22C270.686 212.129 270.676 212.037 270.649 211.951C270.621 211.865 270.575 211.787 270.515 211.723C270.455 211.66 270.383 211.612 270.304 211.584C270.224 211.555 270.14 211.547 270.057 211.56C267.87 212.021 264.096 217.881 263.85 218.267L265.229 213.792C265.239 213.758 265.241 213.722 265.235 213.687C265.229 213.652 265.215 213.62 265.194 213.592C265.173 213.565 265.146 213.543 265.116 213.53C265.086 213.517 265.053 213.512 265.021 213.516C260.869 213.958 251.049 231.276 250.036 233.07C249.319 230.724 246.588 222.249 244.339 222.82C241.739 223.486 243.825 248.845 243.825 248.845L241.268 253.847C241.057 253.858 240.848 253.886 240.643 253.931L238.223 258.874L235.532 260.086C233.849 261.681 231.212 267.353 229.062 272.484L228.91 272.318C228.348 271.699 227.79 271.051 227.229 270.391C220.516 262.37 214.51 251.873 210.954 245.247C208.513 240.602 205.65 236.239 202.409 232.223C203.418 228.396 202.459 222.768 197.42 217.829C189.039 209.619 195.825 206.879 197.42 197.104C198.56 190.106 196.46 184.301 195.182 181.587C194.918 181.015 194.624 180.46 194.301 179.926L193.652 178.084C199.162 167.153 194.833 154.221 190.385 149.23C185.778 144.089 180.446 144.276 180.446 144.276C169.488 136.91 159.505 143.857 159.505 143.857C159.505 143.857 143.895 143.293 140.1 163.83C139.673 166.081 139.49 168.379 139.552 170.677C139.552 170.677 137.021 185.87 138.243 194.331C139.464 202.791 125.27 205.892 125.492 216.617C125.714 227.343 130.909 229.685 126.558 235.133C123.783 238.606 124.085 244.569 127.567 246.3C127.66 246.402 127.76 246.498 127.863 246.587C126.518 251.707 125.28 258.123 124.163 264.966C121.286 279.261 118.392 296.94 118.672 308.936C118.312 312.678 118.12 314.928 118.12 314.928H181.933V314.858H250.887C253.945 310.641 258.201 282.237 257.616 274.17C257.03 266.104 255.137 265.526 255.137 265.526L256.028 260.963C255.241 260.281 254.483 259.67 253.754 259.121L255.271 253.755L256.842 251.121C259.178 249.597 261.426 247.916 263.571 246.086C264.13 245.604 264.853 244.55 265.671 243.118C269.839 235.799 273.304 221.137 273.304 221.137C271.416 219.35 266.794 227.917 266.794 227.917Z" fill="#B7B7B8"/>
</g>
<path d="M193.059 179.274C193.059 179.274 197.77 186.677 196.175 196.452C194.58 206.227 187.797 208.975 196.175 217.181C204.552 225.387 201.649 235.516 197.214 236.079C192.78 236.643 174.451 232.234 174.451 232.234L168.364 205.513L178.818 183.819L191.343 174.449L193.059 179.274Z" fill="#722C14"/>
<path d="M138.299 170.022C138.299 170.022 135.77 185.215 136.988 193.675C138.205 202.135 124.015 205.229 124.26 215.962C124.505 226.695 129.68 229.03 125.33 234.473C120.979 239.917 124.186 251.482 135.325 243.273C146.465 235.063 162.914 207.063 162.914 207.063L161.464 183.605L138.299 170.022Z" fill="#722C14"/>
<path style="mix-blend-mode:multiply" opacity="0.6" d="M141.463 180.32C141.463 180.32 142.882 188.11 142.257 192.755C141.415 198.953 136.608 200.544 135.386 206.493C133.65 214.964 128.977 211.94 127.833 218.647C126.689 225.354 129.74 233.56 127.299 237.752C124.856 241.943 123.863 247.302 130.959 246.96C138.055 246.617 174.155 214.286 174.155 214.286C174.155 214.286 175.07 206.92 169.347 199.789C163.624 192.659 164.081 183.37 164.081 183.37L141.463 180.32Z" fill="url(#paint0_linear_2577_77693)"/>
<path d="M264.436 242.448C263.618 243.884 262.895 244.934 262.336 245.416C260.19 247.246 257.943 248.929 255.607 250.455L254.036 253.088L243.092 291.728L230.643 271.707L242.566 248.186C242.566 248.186 240.48 222.828 243.081 222.165C245.329 221.594 248.061 230.069 248.777 232.415C248.881 232.783 248.945 233.008 248.945 233.008C248.945 233.008 257.276 234.794 258.252 243.276C258.248 243.276 262.137 241.324 264.436 242.448Z" fill="#FBB895"/>
<path d="M272.066 220.478C272.066 220.478 268.594 235.144 264.436 242.448C263.618 243.884 262.895 244.934 262.336 245.416C260.19 247.246 257.943 248.929 255.607 250.455L254.036 253.088L243.606 230.404L248.693 232.566L248.774 232.415C249.784 230.617 259.608 213.303 263.76 212.861C263.792 212.857 263.825 212.862 263.855 212.875C263.885 212.888 263.911 212.909 263.932 212.937C263.952 212.964 263.967 212.997 263.973 213.032C263.98 213.067 263.978 213.103 263.968 213.137L262.622 217.601C262.867 217.214 266.643 211.34 268.826 210.89C268.909 210.877 268.994 210.884 269.073 210.912C269.153 210.94 269.226 210.988 269.286 211.052C269.346 211.115 269.392 211.193 269.42 211.28C269.449 211.366 269.458 211.458 269.449 211.55L268.348 214.496C268.348 214.496 270.404 212.677 271.376 213.597C272.349 214.518 265.691 226.883 265.566 227.251C265.566 227.262 270.172 218.691 272.066 220.478Z" fill="#FBB895"/>
<path d="M221.546 287.901L224.183 281.032C224.183 281.032 231.003 262.535 234.277 259.434L236.968 258.226L239.387 253.28C239.387 253.28 244.945 251.806 254.769 260.303L253.878 264.871C253.878 264.871 255.759 265.449 256.351 273.515C256.943 281.581 252.69 309.978 249.622 314.199L221.546 287.901Z" fill="#F15B47"/>
<path d="M249.642 314.199H198.52L196.165 236.93L199.92 230.153C199.92 230.153 204.559 235 209.7 244.595C213.256 251.225 219.261 261.722 225.97 269.74C226.526 270.403 227.087 271.046 227.652 271.67C230.135 274.432 232.699 276.793 235.242 278.454L249.642 314.199Z" fill="url(#paint1_linear_2577_77693)"/>
<path style="mix-blend-mode:multiply" opacity="0.6" d="M193.94 180.939C193.94 180.939 193.964 181.153 193.991 181.554C194.377 188.884 193.031 196.199 190.085 202.795C185.039 213.844 186.656 225.792 192.073 230.153C197.49 234.514 175.019 227.111 175.019 227.111L168.364 204.253L175.12 186.766L186.222 171.783" fill="url(#paint2_linear_2577_77693)"/>
<path d="M149.799 222.135C149.799 222.135 138.908 230.304 128.196 240.466C128.196 240.466 143.444 263.784 142.175 314.199H198.519L205.945 274.657C206.836 266.414 206.345 258.062 204.494 250.013L199.929 230.153C199.929 230.153 193.5 227.804 180.079 222.334L149.799 222.135Z" fill="#F15B47"/>
<path d="M181.873 297.168L192.003 277.278L202.803 267.868C202.919 267.766 203.058 267.703 203.206 267.685C203.354 267.667 203.503 267.696 203.637 267.767C203.771 267.838 203.883 267.948 203.962 268.086C204.04 268.224 204.082 268.384 204.081 268.547V269.651C204.082 271.333 203.529 272.961 202.523 274.233L197.658 280.366L197.016 283.186L204.982 279.802C204.982 279.802 209.225 287.138 205.881 303.786L185.829 308.313L181.873 297.168Z" fill="#FBB895"/>
<path d="M204.855 284.049L204.983 279.817L212.048 276.134C212.048 276.134 217.704 267.247 221.044 268.234L222.33 269.221L215.005 280.51L206.258 287.279L204.855 284.049Z" fill="#FBB895"/>
<path d="M216.035 275.018L214.877 284.594L213.081 287.29V292.937L210.251 298.579L209.413 300.918C209.232 301.426 208.957 301.888 208.605 302.274C208.253 302.66 207.832 302.962 207.368 303.161L205.881 303.798L204.084 290.679L211.28 280.521L216.035 275.018Z" fill="#FBB895"/>
<path d="M215.457 279.828L214.376 281.066L207.166 286.325L207.435 287.29L214.312 281.843L215.457 279.828Z" fill="#F4A57E"/>
<path d="M213.081 287.29L208.657 291.717V293.021L213.081 288.262V287.29Z" fill="#F4A57E"/>
<path d="M128.271 240.455C128.271 240.455 114.655 293.695 117.912 314.199H146.264L152.656 289.761C152.656 289.761 151.233 242.525 128.271 240.455Z" fill="#F15B47"/>
<path d="M134.689 314.199C134.689 314.199 142.199 302.918 170.016 293.555C171.044 293.209 172.151 293.275 173.138 293.739L177.364 295.728L181.879 293.025C181.879 293.025 183.316 302.711 191.114 311.046L188.651 314.199H134.689Z" fill="#F15B47"/>
<path d="M140.692 247.84C140.692 247.84 153.289 263.397 155.549 289.408L149.225 302.641L152.639 289.75C152.639 289.75 150.587 269.685 140.692 247.84Z" fill="#F0493C"/>
<path d="M149.224 302.641C149.224 302.641 139.83 304.483 133.496 310.059L149.224 302.641Z" fill="#F0493C"/>
<path d="M149.097 302.59C149.097 302.59 140.042 305.905 134.505 312.424L149.097 302.59Z" fill="#F0493C"/>
<path d="M177.357 295.728C177.357 295.728 180.721 310.77 187.655 314.199H179.198C179.198 314.199 175.924 305.54 177.357 295.728Z" fill="#F0493C"/>
<path d="M175.53 209.984C175.53 209.984 183.427 217.848 179.231 236.93L169.266 213.664L175.53 209.984Z" fill="#F04E3C"/>
<path d="M152.023 215.358L150.95 209.778C150.95 209.778 152.81 206.489 164.442 206.19C176.073 205.892 161.336 215.358 161.336 215.358L156.29 218.05L152.023 215.358Z" fill="#D13030"/>
<path d="M175.668 212.765C175.668 212.765 181.051 223.446 179.218 236.93L174.171 219.542L175.668 212.765Z" fill="#D13030"/>
<path d="M156.515 189.834L155.152 219.329C155.152 219.329 162.412 232.032 179.06 236.08C179.584 229.943 178.502 223.77 175.938 218.283L175.029 199.649C175.029 199.649 172.58 177.974 156.515 189.834Z" fill="#FBB895"/>
<path d="M187.848 161.032C187.658 160.192 187.347 159.392 186.926 158.66C184.312 154.733 181.88 158.995 181.88 158.995C181.88 158.995 181.402 155.868 183.921 155.341C186.442 154.814 187.367 158.969 187.848 161.032Z" fill="url(#paint3_linear_2577_77693)"/>
<path d="M181.873 159.009C177.661 155.875 174.76 156.891 173.616 165.237C173.489 166.147 173.387 167.149 173.303 168.243C173.27 168.696 173.236 169.167 173.213 169.653C173.179 170.213 173.155 170.792 173.135 171.392C173.097 174.128 172.273 176.781 170.78 178.976C170.615 179.215 170.443 179.447 170.262 179.672C169.692 180.381 169.056 181.024 168.364 181.591C168.516 181.403 170.941 178.276 171.032 172.154C171.133 165.83 170.77 156.936 176.563 155.551C177.661 155.496 178.748 155.795 179.691 156.409C180.635 157.024 181.393 157.928 181.873 159.009Z" fill="url(#paint4_linear_2577_77693)"/>
<path d="M149.665 222.334L150.95 209.778C150.949 209.736 150.958 209.694 150.975 209.656C150.993 209.618 151.018 209.586 151.049 209.561C151.081 209.536 151.118 209.52 151.155 209.515C151.194 209.509 151.233 209.513 151.269 209.527C153.961 210.544 176.186 220.01 179.218 236.93C179.218 236.93 158.106 230.853 149.665 222.334Z" fill="#F04E3C"/>
<path d="M191.71 167.083C191.71 167.083 192.938 198.169 182.102 205.495C180.93 206.35 179.62 206.954 178.242 207.274C172.789 208.301 162.093 206.64 157.03 195.705C150.974 182.67 153.938 163.079 153.938 163.079L172.537 151.017L173.209 151.323L184.82 156.545L191.71 167.083Z" fill="#F9A981"/>
<path d="M191.711 167.083C191.843 171.275 191.761 175.472 191.465 179.653C191.251 182.921 190.866 186.173 190.31 189.392C189.032 196.677 186.462 202.537 182.101 205.483C180.904 206.285 179.603 206.885 178.242 207.262C171.392 208.272 162.749 204.401 158.056 194.312C152.01 181.289 148.821 163.772 148.821 163.772L173.202 151.323L186.024 154.402L191.711 167.083Z" fill="#FBB895"/>
<path d="M159.923 208.073C154.038 214.662 153.244 215.365 155.145 225.848C157.046 236.33 150.462 230.875 150.964 239.958C151.411 248.079 141.307 248.392 141.325 241.018C141.342 240.016 141.499 239.022 141.792 238.072C144.82 227.792 152.135 228.422 149.833 220.584C147.532 212.747 146.806 205.947 150.964 202.651C155.122 199.355 156.831 181.709 155.549 178.637C154.735 176.696 156.804 176.003 158.429 175.753C159.002 175.666 159.58 175.62 160.158 175.617C160.158 175.617 162.426 185.344 160.249 189.834C158.072 194.323 165.814 201.487 159.923 208.073Z" fill="#722C14"/>
<path style="mix-blend-mode:multiply" opacity="0.6" d="M157.396 203.295C151.512 209.881 150.718 210.584 152.619 221.067C154.52 231.549 147.936 226.098 148.437 235.177C148.737 240.624 144.289 242.562 141.335 241.018C141.352 240.016 141.509 239.022 141.803 238.072C144.831 227.792 152.145 228.422 149.843 220.584C147.542 212.746 146.816 205.947 150.974 202.651C155.132 199.355 156.831 181.708 155.549 178.637C154.735 176.696 156.804 176.003 158.429 175.753C158.766 178.843 158.863 182.681 157.712 185.056C155.529 189.546 163.287 196.706 157.396 203.295Z" fill="url(#paint5_linear_2577_77693)"/>
<path d="M180.321 157.775C179.563 157.784 178.805 157.721 178.057 157.587C178.057 157.587 173.387 155.094 172.146 158.062C170.904 161.031 168.966 178.088 152.631 181.539L153.2 182.043L151.629 192.459C151.629 192.459 135.035 183.716 138.844 163.175C142.653 142.634 158.25 143.201 158.25 143.201C158.25 143.201 169.248 135.544 180.829 144.825C191.121 153.068 183.473 157.716 180.321 157.775Z" fill="#722C14"/>
<path d="M172.119 171.48C172.773 171.613 173.438 171.674 174.104 171.665C174.814 171.665 175.527 171.709 176.146 171.742C176.765 171.775 177.492 171.83 178.188 171.889C178.847 171.972 179.512 171.984 180.173 171.926C180.709 171.841 180.933 171.528 180.315 171.09C179.696 170.652 178.195 170.158 176.139 170.04C174.084 169.922 172.55 170.272 171.971 170.63C171.392 170.987 171.58 171.344 172.119 171.48Z" fill="#362E2A"/>
<path d="M186.35 172.423C186.738 172.478 187.13 172.478 187.518 172.423C187.931 172.383 188.349 172.35 188.709 172.327C189.069 172.305 189.493 172.291 189.906 172.28C190.295 172.293 190.685 172.251 191.064 172.154C191.37 172.048 191.481 171.786 191.094 171.502C190.707 171.219 189.802 170.95 188.601 171.02C187.4 171.09 186.528 171.477 186.212 171.797C185.896 172.117 186.031 172.353 186.35 172.423Z" fill="#362E2A"/>
<path d="M191.319 180.939C191.112 184.076 190.739 187.197 190.202 190.287C189.84 188.86 189.726 187.372 189.866 185.9C189.992 184.145 190.489 182.446 191.319 180.939Z" fill="#F8A287"/>
<path d="M185.728 183.845L187.272 186.861C187.272 186.861 188.227 185.425 187.309 184.346C186.706 183.639 185.728 183.845 185.728 183.845Z" fill="#FBB895"/>
<path d="M185.492 188.692H185.408L184.315 188.872C184.251 188.876 184.188 188.853 184.14 188.806C184.091 188.76 184.061 188.695 184.056 188.625C184.033 188.471 184.11 188.316 184.224 188.309L185.318 188.128C185.491 188.087 185.652 187.998 185.785 187.869C185.917 187.74 186.017 187.575 186.074 187.391C186.255 186.897 186.301 186.356 186.206 185.833L186.166 185.708C186.094 185.263 185.829 184.935 185.59 184.972C185.389 184.993 185.186 184.959 185 184.874C184.815 184.788 184.65 184.653 184.523 184.482C184.197 184.077 183.982 183.579 183.905 183.045L183.531 180.651C183.519 180.585 183.529 180.516 183.56 180.457C183.591 180.399 183.64 180.355 183.699 180.334C183.763 180.332 183.825 180.357 183.873 180.404C183.92 180.45 183.95 180.515 183.955 180.585L184.329 182.975C184.384 183.385 184.545 183.768 184.793 184.08C184.876 184.196 184.985 184.287 185.108 184.346C185.23 184.405 185.366 184.43 185.499 184.419C185.98 184.338 186.468 184.891 186.59 185.646L186.616 185.811C186.732 186.459 186.673 187.13 186.444 187.741C186.364 187.969 186.236 188.174 186.071 188.339C185.905 188.504 185.707 188.624 185.492 188.692Z" fill="#F47F6E"/>
<path d="M176.808 179.517C176.872 180.622 176.274 181.572 175.463 181.631C174.652 181.69 173.955 180.828 173.891 179.72C173.827 178.611 174.427 177.661 175.237 177.605C176.048 177.55 176.744 178.405 176.808 179.517Z" fill="#362E2A"/>
<path d="M174.45 178.825C173.973 178.659 173.551 178.344 173.235 177.919C173.404 178.396 173.63 178.845 173.909 179.256C174.241 179.643 174.45 178.825 174.45 178.825Z" fill="#362E2A"/>
<path d="M187.283 179.62C187.283 180.629 187.777 181.495 188.419 181.55C189.062 181.605 189.594 180.835 189.607 179.826C189.62 178.817 189.116 177.951 188.473 177.896C187.831 177.841 187.299 178.611 187.283 179.62Z" fill="#362E2A"/>
<path d="M189.143 179.009C189.528 178.854 189.858 178.569 190.085 178.195C189.965 178.62 189.796 179.027 189.584 179.406C189.334 179.753 189.143 179.009 189.143 179.009Z" fill="#362E2A"/>
<path style="mix-blend-mode:multiply" opacity="0.6" d="M180.321 157.775C179.563 157.785 178.806 157.722 178.058 157.588C178.058 157.588 173.387 155.094 172.146 158.063C170.905 161.031 168.967 178.088 152.633 181.539L152.575 181.907C151.267 181.602 151.566 181.094 154.883 180.283C166.713 177.392 168.119 159.289 171.476 154.324C174.834 149.359 179.064 153.956 179.064 153.956L180.321 157.775Z" fill="url(#paint6_linear_2577_77693)"/>
<path style="mix-blend-mode:multiply" opacity="0.6" d="M147.65 180.939C147.65 180.939 141.755 170.331 144.652 154.402C144.652 154.402 137.136 169.989 142.812 184.924C144.353 186.925 146.169 188.652 148.195 190.044L147.65 180.939Z" fill="url(#paint7_linear_2577_77693)"/>
<path d="M155.337 180.861C155.337 180.861 153.598 175.012 148.717 176.847C143.834 178.681 143.905 187.609 147.586 191.867C151.266 196.124 155.219 191.653 155.219 191.653L155.337 180.861Z" fill="#FBB895"/>
<path d="M150.166 188.821C150.324 188.824 150.477 188.76 150.593 188.64L153.258 185.922L149.863 181.2C149.812 181.126 149.748 181.064 149.674 181.019C149.6 180.974 149.518 180.947 149.434 180.939C149.349 180.931 149.264 180.944 149.185 180.975C149.105 181.006 149.032 181.055 148.971 181.119C148.841 181.255 148.762 181.438 148.748 181.634C148.735 181.83 148.787 182.025 148.897 182.18L151.481 185.76L149.776 187.502C149.647 187.639 149.569 187.822 149.556 188.018C149.543 188.214 149.596 188.408 149.705 188.563C149.759 188.64 149.83 188.703 149.909 188.748C149.989 188.792 150.076 188.817 150.166 188.821Z" fill="#F47F6E"/>
<path d="M185.328 193.981C185.328 193.981 182.942 193.837 179.151 193.204C179.151 193.204 177.734 199.413 180.755 199.693C183.777 199.973 185.328 193.981 185.328 193.981Z" fill="#F47F6E"/>
<path d="M169.969 164.173L161.138 161.617C161.082 161.596 161.022 161.6 160.969 161.627C160.917 161.654 160.875 161.703 160.854 161.762C160.833 161.822 160.834 161.888 160.857 161.947C160.88 162.005 160.922 162.052 160.976 162.077L169.087 166.685C169.241 166.772 169.409 166.823 169.581 166.834C169.752 166.845 169.925 166.817 170.087 166.75C170.248 166.684 170.395 166.581 170.518 166.449C170.64 166.316 170.737 166.157 170.8 165.982C170.864 165.804 170.893 165.613 170.886 165.422C170.878 165.231 170.833 165.044 170.755 164.873C170.676 164.703 170.565 164.552 170.43 164.431C170.295 164.311 170.138 164.223 169.969 164.173Z" fill="#EC4847"/>
<path d="M168.361 168.225L160.492 163.337C160.26 163.193 160.034 163.466 160.232 163.654L166.961 169.952C167.208 170.194 167.528 170.328 167.86 170.328C168.191 170.328 168.511 170.194 168.758 169.952C169.179 169.422 169.007 168.619 168.361 168.225Z" fill="#EC4847"/>
<path d="M179.198 143.621C179.198 143.621 184.533 143.426 189.143 148.597C193.752 153.768 198.227 167.473 191.771 178.64C191.771 178.64 188.901 158.464 183.915 155.356L179.198 143.621Z" fill="#722C14"/>
<path d="M227.659 271.67C225.58 275.791 220.351 286.704 218.458 295.695C218.458 295.695 221.149 275.891 225.984 269.74C226.54 270.403 227.098 271.046 227.659 271.67Z" fill="#B02D2D"/>
<g style="mix-blend-mode:multiply">
<g style="mix-blend-mode:multiply">
<path d="M108.925 179.815H87.6754C87.4582 179.815 87.2431 179.862 87.0425 179.953C86.8418 180.044 86.6596 180.178 86.5061 180.346C86.3527 180.515 86.2311 180.714 86.1482 180.934C86.0655 181.154 86.023 181.39 86.0234 181.627V204.96C86.0234 205.44 86.1975 205.9 86.5073 206.239C86.8171 206.578 87.2373 206.769 87.6754 206.769H108.925C109.363 206.769 109.783 206.578 110.093 206.239C110.403 205.9 110.577 205.44 110.577 204.96V181.616C110.575 181.138 110.401 180.68 110.091 180.342C109.781 180.005 109.362 179.815 108.925 179.815Z" fill="#D4E0F3"/>
</g>
<g style="mix-blend-mode:multiply">
<path d="M108.882 210.463H87.7193C87.2732 210.463 86.8453 210.657 86.5298 211.002C86.2144 211.348 86.0371 211.816 86.0371 212.304V235.538C86.0371 236.026 86.2144 236.495 86.5298 236.84C86.8453 237.185 87.2732 237.379 87.7193 237.379H108.882C109.328 237.379 109.756 237.185 110.071 236.84C110.387 236.495 110.564 236.026 110.564 235.538V212.323C110.566 212.079 110.524 211.838 110.441 211.612C110.357 211.387 110.233 211.182 110.077 211.009C109.921 210.836 109.735 210.698 109.529 210.605C109.324 210.511 109.103 210.463 108.882 210.463Z" fill="#D4E0F3"/>
</g>
<g style="mix-blend-mode:multiply">
<path d="M109.12 241.121H87.4937C87.1034 241.122 86.7295 241.293 86.4539 241.595C86.1783 241.898 86.0234 242.307 86.0234 242.735V266.462C86.0234 266.889 86.1783 267.299 86.4539 267.601C86.7295 267.903 87.1034 268.074 87.4937 268.075H109.12C109.511 268.074 109.884 267.903 110.16 267.601C110.436 267.299 110.59 266.889 110.59 266.462V242.735C110.59 242.307 110.436 241.898 110.16 241.595C109.884 241.293 109.511 241.122 109.12 241.121Z" fill="#D4E0F3"/>
</g>
<g style="mix-blend-mode:multiply">
<path d="M108.609 271.776H87.9917C87.4694 271.777 86.9687 272.005 86.5997 272.41C86.2307 272.814 86.0234 273.363 86.0234 273.935V296.571C86.023 296.855 86.0736 297.135 86.1723 297.397C86.271 297.659 86.416 297.897 86.5987 298.097C86.7815 298.298 86.9987 298.457 87.2377 298.565C87.4767 298.674 87.7329 298.73 87.9917 298.73H108.609C108.868 298.73 109.123 298.674 109.363 298.565C109.602 298.457 109.819 298.298 110.002 298.097C110.185 297.897 110.329 297.659 110.428 297.397C110.526 297.135 110.578 296.855 110.577 296.571V273.935C110.577 273.363 110.369 272.814 110 272.41C109.631 272.005 109.131 271.777 108.609 271.776Z" fill="#D4E0F3"/>
</g>
</g>
<path d="M104.958 178.445H89.5019C86.9897 178.445 84.9531 180.675 84.9531 183.425V200.419C84.9531 203.169 86.9897 205.399 89.5019 205.399H104.958C107.47 205.399 109.507 203.169 109.507 200.419V183.425C109.507 180.675 107.47 178.445 104.958 178.445Z" fill="white"/>
<path d="M97.2941 191.929C99.944 191.929 102.092 189.571 102.092 186.662C102.092 183.753 99.944 181.395 97.2941 181.395C94.6441 181.395 92.4966 183.753 92.4966 186.662C92.4966 189.571 94.6441 191.929 97.2941 191.929Z" fill="#D4E0F3"/>
<path d="M97.244 191.93C99.028 191.93 100.74 192.706 102.002 194.087C103.264 195.469 103.973 197.342 103.973 199.296V205.384H90.4981V199.314C90.4959 198.344 90.6688 197.383 91.007 196.485C91.3453 195.588 91.842 194.773 92.4693 194.087C93.0959 193.401 93.8404 192.857 94.6598 192.487C95.4792 192.117 96.357 191.927 97.244 191.93Z" fill="#D4E0F3"/>
<path d="M104.834 209.104H89.6263C87.0454 209.104 84.9531 211.394 84.9531 214.22V230.941C84.9531 233.767 87.0454 236.057 89.6263 236.057H104.834C107.414 236.057 109.507 233.767 109.507 230.941V214.22C109.507 211.394 107.414 209.104 104.834 209.104Z" fill="white"/>
<path d="M97.2941 222.584C99.944 222.584 102.092 220.226 102.092 217.317C102.092 214.408 99.944 212.05 97.2941 212.05C94.6441 212.05 92.4966 214.408 92.4966 217.317C92.4966 220.226 94.6441 222.584 97.2941 222.584Z" fill="#D4E0F3"/>
<path d="M97.244 222.584C99.028 222.584 100.74 223.36 102.002 224.742C103.264 226.123 103.973 227.997 103.973 229.951V236.039H90.4981V229.969C90.4959 228.999 90.6688 228.037 91.007 227.14C91.3453 226.243 91.842 225.428 92.4693 224.742C93.0959 224.056 93.8404 223.512 94.6598 223.142C95.4792 222.771 96.357 222.582 97.244 222.584Z" fill="#D4E0F3"/>
<path d="M105.456 239.763H89.004C86.7667 239.763 84.9531 241.748 84.9531 244.197V262.281C84.9531 264.731 86.7667 266.716 89.004 266.716H105.456C107.693 266.716 109.507 264.731 109.507 262.281V244.197C109.507 241.748 107.693 239.763 105.456 239.763Z" fill="white"/>
<path d="M97.2941 253.242C99.944 253.242 102.092 250.884 102.092 247.975C102.092 245.066 99.944 242.708 97.2941 242.708C94.6441 242.708 92.4966 245.066 92.4966 247.975C92.4966 250.884 94.6441 253.242 97.2941 253.242Z" fill="#D4E0F3"/>
<path d="M97.244 253.243C99.028 253.243 100.74 254.019 102.002 255.401C103.264 256.782 103.973 258.656 103.973 260.609V266.698H90.4981V260.628C90.4959 259.657 90.6688 258.696 91.007 257.799C91.3453 256.902 91.842 256.087 92.4693 255.401C93.0959 254.714 93.8404 254.171 94.6598 253.8C95.4792 253.43 96.357 253.241 97.244 253.243Z" fill="#D4E0F3"/>
<path d="M104.086 270.417H90.3732C87.3798 270.417 84.9531 273.073 84.9531 276.35V291.436C84.9531 294.713 87.3798 297.371 90.3732 297.371H104.086C107.08 297.371 109.507 294.713 109.507 291.436V276.35C109.507 273.073 107.08 270.417 104.086 270.417Z" fill="white"/>
<path d="M97.2941 283.901C99.944 283.901 102.092 281.543 102.092 278.634C102.092 275.726 99.944 273.368 97.2941 273.368C94.6441 273.368 92.4966 275.726 92.4966 278.634C92.4966 281.543 94.6441 283.901 97.2941 283.901Z" fill="#D4E0F3"/>
<path d="M97.244 283.901C99.0279 283.901 100.74 284.677 102.001 286.059C103.264 287.44 103.973 289.314 103.973 291.268V297.356H90.498V291.286C90.498 289.332 91.207 287.459 92.4693 286.077C93.7308 284.696 95.4426 283.92 97.2266 283.92L97.244 283.901Z" fill="#D4E0F3"/>
<g style="mix-blend-mode:multiply" opacity="0.6">
<path d="M322.781 104.999H207.092C206.798 105 206.507 105.064 206.235 105.188C205.963 105.311 205.716 105.492 205.509 105.72C205.301 105.949 205.136 106.219 205.024 106.517C204.912 106.815 204.854 107.134 204.855 107.456V187.624C204.854 188.275 205.089 188.899 205.509 189.361C205.928 189.822 206.497 190.082 207.092 190.084H322.781C323.376 190.082 323.946 189.822 324.365 189.361C324.784 188.899 325.02 188.275 325.019 187.624V107.456C325.019 107.134 324.961 106.815 324.849 106.517C324.737 106.219 324.572 105.949 324.365 105.72C324.157 105.492 323.91 105.311 323.639 105.188C323.367 105.064 323.075 105 322.781 104.999Z" fill="#7088AB"/>
</g>
<path d="M195.424 15.3252H139.151C136.671 15.3252 134.659 17.5266 134.659 20.2422V25.336C134.659 28.0516 136.671 30.253 139.151 30.253H195.424C197.905 30.253 199.916 28.0516 199.916 25.336V20.2422C199.916 17.5266 197.905 15.3252 195.424 15.3252Z" fill="#E3EBF7"/>
<path d="M192.38 17.8926H142.408C142.025 17.8926 141.715 18.2323 141.715 18.6513V19.4358C141.715 19.8548 142.025 20.1945 142.408 20.1945H192.38C192.763 20.1945 193.072 19.8548 193.072 19.4358V18.6513C193.072 18.2323 192.763 17.8926 192.38 17.8926Z" fill="#7CB4E2"/>
<path d="M192.38 21.6382H142.408C142.025 21.6382 141.715 21.9779 141.715 22.3969V23.1814C141.715 23.6004 142.025 23.9401 142.408 23.9401H192.38C192.763 23.9401 193.072 23.6004 193.072 23.1814V22.3969C193.072 21.9779 192.763 21.6382 192.38 21.6382Z" fill="#7CB4E2"/>
<path d="M192.38 25.3804H142.408C142.025 25.3804 141.715 25.72 141.715 26.1391V26.9236C141.715 27.3426 142.025 27.6823 142.408 27.6823H192.38C192.763 27.6823 193.072 27.3426 193.072 26.9236V26.1391C193.072 25.72 192.763 25.3804 192.38 25.3804Z" fill="#7CB4E2"/>
<path d="M195.515 34.0469H139.733C137.786 34.0469 136.207 35.775 136.207 37.9068V83.81C136.207 85.9418 137.786 87.67 139.733 87.67H195.515C197.462 87.67 199.041 85.9418 199.041 83.81V37.9068C199.041 35.775 197.462 34.0469 195.515 34.0469Z" fill="#E3EBF7"/>
<path d="M190.586 39.0337H144.349C143.024 39.0337 141.95 40.2094 141.95 41.6598C141.95 43.1101 143.024 44.2859 144.349 44.2859H190.586C191.911 44.2859 192.984 43.1101 192.984 41.6598C192.984 40.2094 191.911 39.0337 190.586 39.0337Z" fill="#7CB4E2"/>
<path d="M149.204 73.4785H144.897C144.656 73.4785 144.418 73.4265 144.195 73.3254C143.973 73.2243 143.77 73.0761 143.6 72.8893C143.429 72.7025 143.294 72.4808 143.203 72.2368C143.111 71.9929 143.064 71.7314 143.064 71.4675C143.064 71.2036 143.111 70.9422 143.203 70.6982C143.294 70.4543 143.429 70.2325 143.6 70.0458C143.77 69.859 143.973 69.7108 144.195 69.6097C144.418 69.5086 144.656 69.4565 144.897 69.4565H149.204C149.445 69.4565 149.684 69.5086 149.907 69.6097C150.13 69.7108 150.331 69.859 150.501 70.0458C150.672 70.2325 150.807 70.4543 150.899 70.6982C150.991 70.9422 151.038 71.2036 151.038 71.4675C151.038 71.7314 150.991 71.9929 150.899 72.2368C150.807 72.4808 150.672 72.7025 150.501 72.8893C150.331 73.0761 150.13 73.2243 149.907 73.3254C149.684 73.4265 149.445 73.4785 149.204 73.4785Z" fill="#7CB4E2"/>
<path d="M190.99 73.4785H186.683C186.442 73.4785 186.204 73.4265 185.981 73.3254C185.758 73.2243 185.556 73.0761 185.385 72.8893C185.215 72.7025 185.08 72.4808 184.989 72.2368C184.897 71.9929 184.849 71.7314 184.85 71.4675C184.849 71.2036 184.897 70.9422 184.989 70.6982C185.08 70.4543 185.215 70.2325 185.385 70.0458C185.556 69.859 185.758 69.7108 185.981 69.6097C186.204 69.5086 186.442 69.4565 186.683 69.4565H190.99C191.232 69.4565 191.47 69.5086 191.693 69.6097C191.915 69.7108 192.118 69.859 192.288 70.0458C192.458 70.2325 192.593 70.4543 192.685 70.6982C192.777 70.9422 192.824 71.2036 192.824 71.4675C192.824 71.7314 192.777 71.9929 192.685 72.2368C192.593 72.4808 192.458 72.7025 192.288 72.8893C192.118 73.0761 191.915 73.2243 191.693 73.3254C191.47 73.4265 191.232 73.4785 190.99 73.4785Z" fill="#8371B3"/>
<path d="M192.259 49.5381H143.31C142.293 49.5381 141.469 50.4392 141.469 51.5509C141.469 52.6626 142.293 53.5638 143.31 53.5638H192.259C193.275 53.5638 194.099 52.6626 194.099 51.5509C194.099 50.4392 193.275 49.5381 192.259 49.5381Z" fill="#F9FCFD"/>
<path d="M192.259 56.3667H143.31C142.293 56.3667 141.469 57.2679 141.469 58.3795C141.469 59.4912 142.293 60.3924 143.31 60.3924H192.259C193.275 60.3924 194.099 59.4912 194.099 58.3795C194.099 57.2679 193.275 56.3667 192.259 56.3667Z" fill="#F9FCFD"/>
<path d="M188.816 62.9302H146.916C146.684 62.9302 146.496 63.1363 146.496 63.3905C146.496 63.6448 146.684 63.8509 146.916 63.8509H188.816C189.049 63.8509 189.237 63.6448 189.237 63.3905C189.237 63.1363 189.049 62.9302 188.816 62.9302Z" fill="#CFD3EB"/>
<path d="M321.065 103.434H211.658C208.686 103.434 206.277 106.071 206.277 109.323V182.629C206.277 185.882 208.686 188.519 211.658 188.519H321.065C324.036 188.519 326.445 185.882 326.445 182.629V109.323C326.445 106.071 324.036 103.434 321.065 103.434Z" fill="#597BBD"/>
<path d="M313.105 110.219H219.617C217.542 110.219 215.859 112.061 215.859 114.333V177.619C215.859 179.893 217.542 181.735 219.617 181.735H313.105C315.18 181.735 316.863 179.893 316.863 177.619V114.333C316.863 112.061 315.18 110.219 313.105 110.219Z" fill="#D4E0F3"/>
<path d="M227.121 159.812L224.516 154.199L218.959 155.75L225.724 139.356L233.89 143.418L227.121 159.812Z" fill="#F15B47"/>
<g style="mix-blend-mode:multiply">
<g style="mix-blend-mode:multiply">
<path d="M233.389 143.172L226.801 159.124L227.12 159.812L233.889 143.419L233.389 143.172Z" fill="#F15B47"/>
</g>
</g>
<path d="M239.131 159.532L241.517 153.805L247.132 155.094L239.74 139.032L231.74 143.47L239.131 159.532Z" fill="#F15B47"/>
<g style="mix-blend-mode:multiply">
<g style="mix-blend-mode:multiply">
<path d="M232.231 143.198L239.424 158.833L239.131 159.532L231.74 143.47L232.231 143.198Z" fill="#F15B47"/>
</g>
</g>
<g style="mix-blend-mode:multiply">
<g style="mix-blend-mode:multiply">
<path d="M240.191 140.037C239.24 141.138 238.098 142.021 236.832 142.635C235.566 143.249 234.201 143.582 232.817 143.614C231.433 143.646 230.057 143.377 228.768 142.823C227.48 142.268 226.304 141.439 225.31 140.384L224.23 142.984C224.904 143.021 225.677 142.885 226.135 143.205C226.499 143.459 226.707 144.048 226.935 144.605C227.165 145.161 227.373 145.592 227.743 145.754C228.51 146.082 229.671 144.914 230.499 145.072C231.195 145.209 231.844 146.384 232.544 146.678L232.86 145.916L233.197 146.652C233.893 146.325 234.485 145.12 235.178 144.955C236 144.756 237.197 145.868 237.957 145.507C238.718 145.146 238.788 143.404 239.464 142.885C239.909 142.542 240.703 142.645 241.359 142.575L240.191 140.037Z" fill="#F15B47"/>
</g>
</g>
<path d="M244.411 133.838C244.555 132.958 245.954 132.159 245.938 131.231C245.921 130.303 244.487 129.566 244.313 128.693C244.137 127.82 245.147 126.483 244.817 125.64C244.656 125.238 244.209 125.01 243.734 124.804C243.26 124.597 242.674 124.373 242.428 123.986C241.951 123.249 242.428 121.585 241.826 120.955C241.513 120.707 241.128 120.593 240.743 120.634C240.131 120.634 239.454 120.712 239.044 120.424C238.797 120.211 238.606 119.93 238.489 119.61C238.186 118.929 237.954 118.093 237.436 117.872C236.672 117.544 235.508 118.712 234.68 118.553C233.853 118.395 233.149 116.859 232.302 116.877C231.454 116.896 230.791 118.469 229.993 118.66C229.901 118.682 229.806 118.69 229.711 118.682C228.914 118.634 227.884 117.784 227.215 118.108C226.447 118.476 226.381 120.211 225.704 120.73C225.028 121.249 223.517 120.73 222.942 121.389C222.367 122.049 222.909 123.677 222.461 124.446C222.013 125.216 220.442 125.356 220.136 126.211C219.87 126.947 220.688 128.052 220.765 128.929C220.778 129.031 220.778 129.136 220.765 129.238C220.62 130.118 219.221 130.918 219.237 131.846C219.255 132.774 220.688 133.511 220.862 134.384C221.038 135.256 220.028 136.593 220.358 137.437C220.584 137.993 221.368 138.214 221.983 138.516C222.279 138.631 222.542 138.83 222.747 139.091C223.026 139.529 222.979 140.273 223.013 140.932C222.989 141.357 223.109 141.776 223.349 142.111C223.948 142.741 225.428 142.151 226.131 142.641C226.495 142.895 226.703 143.488 226.932 144.041C227.161 144.593 227.366 145.032 227.74 145.194C228.506 145.521 229.667 144.35 230.495 144.512C231.323 144.674 232.026 146.206 232.874 146.188C233.721 146.17 234.388 144.593 235.185 144.402C235.982 144.21 237.203 145.319 237.964 144.954C238.724 144.59 238.796 142.855 239.472 142.335C240.147 141.816 241.658 142.335 242.234 141.673C242.809 141.01 242.268 139.389 242.718 138.619C243.169 137.849 244.737 137.709 245.039 136.851C245.342 135.993 244.265 134.748 244.411 133.838ZM232.806 143.046C230.947 143.083 229.112 142.58 227.489 141.589C225.865 140.597 224.51 139.152 223.562 137.401C222.614 135.65 222.107 133.655 222.091 131.619C222.076 129.584 222.554 127.58 223.477 125.813C224.332 124.168 225.541 122.777 226.999 121.761C228.501 120.722 230.219 120.119 231.992 120.009C233.765 119.899 235.535 120.285 237.133 121.132C239.32 122.292 241.075 124.244 242.099 126.656C242.834 128.391 243.163 130.299 243.057 132.208C242.951 134.117 242.412 135.967 241.49 137.591C240.569 139.216 239.292 140.564 237.777 141.514C236.261 142.465 234.553 142.987 232.806 143.035V143.046Z" fill="#F15B47"/>
<path d="M232.584 143.356C238.53 143.356 243.35 138.064 243.35 131.536C243.35 125.009 238.53 119.717 232.584 119.717C226.638 119.717 221.818 125.009 221.818 131.536C221.818 138.064 226.638 143.356 232.584 143.356Z" fill="#F15B47"/>
<path d="M232.584 142.052C237.875 142.052 242.162 137.344 242.162 131.537C242.162 125.729 237.875 121.021 232.584 121.021C227.294 121.021 223.005 125.729 223.005 131.537C223.005 137.344 227.294 142.052 232.584 142.052Z" fill="#F15B47"/>
<path d="M243.495 131.739C243.466 130.176 243.145 128.635 242.553 127.212C241.961 125.789 241.108 124.513 240.05 123.463C242.003 125.586 243.117 128.463 243.152 131.475C243.187 134.488 242.141 137.395 240.237 139.571C238.334 141.748 235.726 143.019 232.976 143.112C230.224 143.204 227.551 142.111 225.528 140.067C227.003 141.71 228.894 142.83 230.957 143.281C233.02 143.732 235.159 143.492 237.096 142.594C239.033 141.696 240.678 140.18 241.818 138.244C242.957 136.308 243.538 134.042 243.484 131.739H243.495Z" fill="#F15B47"/>
<path d="M223.43 132.303C223.385 130.175 223.932 128.083 225 126.305C226.067 124.526 227.603 123.146 229.404 122.346C231.206 121.546 233.187 121.366 235.084 121.829C236.982 122.291 238.705 123.375 240.026 124.936C239.21 123.857 238.206 122.967 237.071 122.319C235.937 121.671 234.694 121.279 233.419 121.164C232.144 121.05 230.86 121.216 229.644 121.653C228.428 122.09 227.304 122.789 226.339 123.709C225.373 124.628 224.586 125.75 224.022 127.008C223.46 128.266 223.132 129.635 223.06 131.034C222.987 132.433 223.17 133.833 223.599 135.153C224.029 136.473 224.696 137.685 225.56 138.719C224.217 136.899 223.467 134.641 223.43 132.303Z" fill="#F15B47"/>
<path d="M316.617 107.534H216.247C214.017 107.534 212.209 109.512 212.209 111.953V180.003C212.209 182.444 214.017 184.423 216.247 184.423H316.617C318.847 184.423 320.655 182.444 320.655 180.003V111.953C320.655 109.512 318.847 107.534 316.617 107.534Z" stroke="#D4E0F3" stroke-width="5.08" stroke-miterlimit="10"/>
<path d="M306.41 120.609H252.855C251.608 120.609 250.598 121.715 250.598 123.08C250.598 124.445 251.608 125.552 252.855 125.552H306.41C307.657 125.552 308.667 124.445 308.667 123.08C308.667 121.715 307.657 120.609 306.41 120.609Z" fill="#BCD7F0"/>
<path d="M306.41 131.017H252.855C251.608 131.017 250.598 132.124 250.598 133.489C250.598 134.854 251.608 135.96 252.855 135.96H306.41C307.657 135.96 308.667 134.854 308.667 133.489C308.667 132.124 307.657 131.017 306.41 131.017Z" fill="#BCD7F0"/>
<path d="M306.41 141.426H252.855C251.608 141.426 250.598 142.532 250.598 143.897C250.598 145.262 251.608 146.368 252.855 146.368H306.41C307.657 146.368 308.667 145.262 308.667 143.897C308.667 142.532 307.657 141.426 306.41 141.426Z" fill="#BCD7F0"/>
<path d="M306.41 151.831H252.855C251.608 151.831 250.598 152.937 250.598 154.302C250.598 155.667 251.608 156.774 252.855 156.774H306.41C307.657 156.774 308.667 155.667 308.667 154.302C308.667 152.937 307.657 151.831 306.41 151.831Z" fill="#BCD7F0"/>
<path d="M306.41 162.24H252.855C251.608 162.24 250.598 163.346 250.598 164.711C250.598 166.076 251.608 167.182 252.855 167.182H306.41C307.657 167.182 308.667 166.076 308.667 164.711C308.667 163.346 307.657 162.24 306.41 162.24Z" fill="#BCD7F0"/>
</g>
<defs>
<linearGradient id="paint0_linear_2577_77693" x1="130.36" y1="232.927" x2="159.861" y2="200.977" gradientUnits="userSpaceOnUse">
<stop stop-color="white" stop-opacity="0.5"/>
<stop offset="1"/>
</linearGradient>
<linearGradient id="paint1_linear_2577_77693" x1="196.178" y1="272.174" x2="249.642" y2="272.174" gradientUnits="userSpaceOnUse">
<stop stop-color="#F0493C"/>
<stop offset="0.87" stop-color="#F15B47"/>
<stop offset="1" stop-color="#F15B47"/>
</linearGradient>
<linearGradient id="paint2_linear_2577_77693" x1="16453.4" y1="41906.3" x2="12764" y2="40675.7" gradientUnits="userSpaceOnUse">
<stop stop-color="white" stop-opacity="0.5"/>
<stop offset="1"/>
</linearGradient>
<linearGradient id="paint3_linear_2577_77693" x1="186.108" y1="154.737" x2="184.379" y2="160.096" gradientUnits="userSpaceOnUse">
<stop stop-color="#362E2A"/>
<stop offset="1" stop-color="#1E1B15"/>
</linearGradient>
<linearGradient id="paint4_linear_2577_77693" x1="7660.92" y1="13289.7" x2="6547.2" y2="15245.7" gradientUnits="userSpaceOnUse">
<stop stop-color="#362E2A"/>
<stop offset="1" stop-color="#1E1B15"/>
</linearGradient>
<linearGradient id="paint5_linear_2577_77693" x1="8215.35" y1="43870.4" x2="9212.67" y2="43870.4" gradientUnits="userSpaceOnUse">
<stop stop-color="white" stop-opacity="0.5"/>
<stop offset="1"/>
</linearGradient>
<linearGradient id="paint6_linear_2577_77693" x1="66436.6" y1="17549.7" x2="66508.6" y2="19892.8" gradientUnits="userSpaceOnUse">
<stop stop-color="white" stop-opacity="0.5"/>
<stop offset="1"/>
</linearGradient>
<linearGradient id="paint7_linear_2577_77693" x1="3433.47" y1="20304.6" x2="3600.49" y2="20304.6" gradientUnits="userSpaceOnUse">
<stop stop-color="white" stop-opacity="0.5"/>
<stop offset="1"/>
</linearGradient>
<clipPath id="clip0_2577_77693">
<rect width="380" height="348" fill="white" transform="translate(0.5 0.161621)"/>
</clipPath>
</defs>
</svg>
