<svg width="381" height="351" viewBox="0 0 381 351" fill="none" xmlns="http://www.w3.org/2000/svg">
<g clip-path="url(#clip0_2577_77915)">
<path fill-rule="evenodd" clip-rule="evenodd" d="M110.342 313.9C83.7314 313.9 61.9609 285.152 61.9609 250.011C61.9609 214.874 83.7314 186.126 110.342 186.126C121.594 186.126 130.799 173.97 130.799 159.113C130.799 144.253 121.594 132.098 110.342 132.098H107.909C96.2105 132.098 86.6399 119.459 86.6399 104.014C86.6399 88.5654 96.2105 75.9272 107.909 75.9272H115.38C119.934 75.9272 123.651 71.0083 123.651 64.9953C123.651 58.9788 119.916 54.0599 115.38 54.0599H109.888C106.745 54.0599 104.173 50.6643 104.173 46.5136C104.173 42.363 106.745 38.9673 109.888 38.9673H146.793C151.732 38.9673 155.774 33.646 155.774 27.1108C155.774 20.5888 151.732 15.2542 146.793 15.2542H135.749C132.606 15.2542 130.036 11.8585 130.036 7.70792C130.036 3.55729 132.606 0.161621 135.749 0.161621H292.747C296.848 0.161621 300.202 4.59162 300.202 10.0061C300.202 15.4205 296.846 19.8505 292.747 19.8505H281.25C274.806 19.8505 269.533 26.8148 269.533 35.3222C269.533 43.833 274.806 50.7973 281.25 50.7973H329.761C333.863 50.7973 337.232 55.2273 337.232 60.6417C337.232 66.0595 333.876 70.4895 329.761 70.4895H322.6C316.658 70.4895 311.796 76.9084 311.796 84.7573C311.796 92.6029 316.658 99.0251 322.6 99.0251H332.344C347.609 99.0251 360.094 115.515 360.094 135.673C360.094 155.827 347.607 172.32 332.344 172.32H329.169C314.493 172.32 302.486 188.181 302.486 207.574C302.486 226.963 314.493 242.828 329.169 242.828H336.048C350.851 242.828 362.962 258.821 362.962 278.367C362.962 297.917 350.851 313.907 336.048 313.907L110.342 313.9ZM311.839 19.8538C315.959 19.8538 319.31 15.4471 319.31 10.0094C319.31 4.57166 315.972 0.161621 311.839 0.161621C307.705 0.161621 304.381 4.57166 304.381 10.0094C304.381 15.4471 307.719 19.8538 311.839 19.8538ZM93.8415 54.0599C96.9977 54.0599 99.5567 50.6809 99.5567 46.5136C99.5567 42.3464 96.9977 38.9673 93.8415 38.9673C90.6844 38.9673 88.1263 42.3464 88.1263 46.5136C88.1263 50.6809 90.6957 54.0599 93.8519 54.0599H93.8415Z" fill="#FED96A"/>
<path d="M107.174 174.745L58.4038 202.103L96.5678 223.272L143.215 193.718L107.174 174.745Z" fill="#F5AC40"/>
<path d="M143.215 193.719L96.5679 223.272L132.331 243.111L174.46 210.168L143.215 193.719Z" fill="#1A9184"/>
<path d="M230.745 239.794C216.843 251.102 203.291 263.198 189.448 274.792L264.197 316.265C276.593 303.324 288.772 290.038 300.955 276.764L230.745 239.794Z" fill="#8D5E7C"/>
<path d="M369.571 312.886L300.96 276.765C288.78 290.038 276.601 303.318 264.197 316.265L325.3 350.162L369.571 312.886Z" fill="#EC8686"/>
<path d="M174.46 210.168L132.328 243.12L189.448 274.805C203.291 263.202 216.843 251.102 230.745 239.794L174.46 210.168Z" fill="#3ABDB0"/>
<path d="M147.279 274.952L187.732 297.368L234.715 267.316C219.813 260.039 204.742 253.078 189.752 245.611L147.279 274.952Z" fill="#F1754F"/>
<path d="M231.07 217.079L189.752 245.611C204.734 253.078 219.805 260.039 234.707 267.316L276.652 240.489L231.07 217.079Z" fill="#F5AC40"/>
<path d="M301.582 253.956L264.96 282.96C280.436 291.578 295.524 301.209 309.925 312.826L354.117 278.87L301.582 253.956Z" fill="#F1754F"/>
<path d="M222.038 316.954L270.141 343.394L309.933 312.823C295.525 301.206 280.444 291.574 264.968 282.957L222.038 316.954Z" fill="#F5AC40"/>
<path d="M178.759 228.63H177.959C177.948 228.63 177.939 228.635 177.932 228.643C177.925 228.652 177.921 228.664 177.921 228.676C177.921 228.689 177.925 228.701 177.932 228.709C177.939 228.718 177.948 228.723 177.959 228.723H178.759C178.807 228.723 178.809 228.63 178.759 228.63Z" fill="white"/>
<path d="M259.593 281.291C259.94 281.228 259.978 280.659 259.786 280.39L259.593 281.291Z" fill="white"/>
<path d="M140.722 162.765C140.722 162.765 131.853 178.729 107.142 175.656C107.142 175.656 113.546 149.076 108.994 137.875C114.702 135.202 120.733 133.761 126.829 133.614C126.829 133.614 135.901 157.833 140.722 162.765Z" fill="#517653"/>
<path d="M85.716 81.6112C80.24 88.0284 76.8479 96.7308 76.1849 106.063C76.1155 107.061 76.0729 108.095 75.694 108.976C75.3351 109.696 74.8707 110.324 74.3251 110.829C72.1905 113.091 70.0106 115.412 68.5243 118.382C67.0381 121.352 66.3123 125.123 67.2783 128.406C61.8136 131.778 59.8551 141.184 62.3687 148.112C64.8822 155.039 70.9311 159.31 77.0014 159.991C79.9125 160.324 82.9726 159.895 85.4706 157.996C87.9679 156.097 89.7877 152.558 89.5047 148.93C93.0827 151.105 96.4794 149.109 99.4817 146.635C102.79 143.904 103.097 142.867 107.649 145.251C110.16 146.582 112.932 147.506 115.6 146.804C118.268 146.103 120.737 143.356 120.847 139.96C121.97 141.275 123.339 142.219 124.83 142.709C126.319 143.198 127.884 143.217 129.381 142.764C130.879 142.31 132.263 141.398 133.406 140.111C134.55 138.823 135.418 137.201 135.933 135.39C139.954 138.892 145.806 138.716 149.679 134.981C153.343 138.663 159.264 139.933 163.523 137.256C165.844 135.799 167.613 133.265 169.035 130.541C171.117 126.573 172.616 121.944 172.421 117.208C172.203 111.887 169.769 106.881 166.255 103.871C162.741 100.861 158.25 99.8068 154.045 100.662C153.359 94.8646 148.407 90.428 143.785 91.4756C144.412 80.1046 138.203 69.6316 130.751 66.3789C117.74 60.6951 95.9623 69.6881 85.716 81.5979" fill="#8E695E"/>
<path d="M166.256 103.884C162.744 100.871 158.251 99.8232 154.046 100.675C153.362 94.8777 148.408 90.441 143.786 91.4886C144.413 80.1176 138.204 69.6446 130.751 66.392C124.582 63.698 116.442 64.3067 108.496 66.9574C113.114 67.5985 117.588 69.3576 121.666 72.1357C124.66 74.0048 126.157 78.6742 123.163 82.4058C122.413 83.3404 120.916 82.4058 119.427 81.4746C120.924 83.3404 119.427 86.1308 120.177 88.9411C115.687 88.9411 112.692 84.2849 108.952 82.4058C110.446 86.1407 110.446 90.8102 108.952 93.6105C107.455 97.3454 102.964 91.7447 100.718 88.9544C101.467 91.758 102.214 95.493 101.467 98.2933C99.2209 103.894 93.9963 99.2245 90.242 98.2933C90.9891 101.094 92.4859 102.95 92.4859 105.76C90.9891 110.416 88.75 114.165 84.2541 113.23C83.5046 118.834 80.5188 123.5 82.0078 129.104C82.7574 131.904 85.0013 134.705 87.2484 131.905C85.0013 137.505 80.5107 141.24 80.5107 147.775C81.2606 149.641 84.2461 151.51 83.5046 153.376C83.0276 155.884 81.991 158.171 80.5134 159.974C82.262 159.783 83.9543 159.113 85.4711 158.012C87.9716 156.126 89.7882 152.575 89.5052 148.946C93.0839 151.121 96.4807 149.126 99.4822 146.651C102.791 143.921 103.098 142.883 107.65 145.268C110.161 146.598 112.933 147.523 115.601 146.821C118.27 146.119 120.737 143.372 120.847 139.976C121.971 141.29 123.34 142.234 124.83 142.723C126.32 143.212 127.884 143.231 129.382 142.777C130.879 142.324 132.262 141.412 133.406 140.126C134.55 138.839 135.419 137.217 135.933 135.407C139.955 138.909 145.806 138.732 149.68 134.998C153.344 138.679 159.265 139.95 163.523 137.272C165.844 135.816 167.614 133.281 169.036 130.558C171.117 126.59 172.617 121.96 172.422 117.224C172.203 111.903 169.767 106.898 166.256 103.888" fill="#7A594F"/>
<path d="M84.1714 159.769C84.1714 159.769 78.3837 155.744 77.6259 157.045C76.8681 158.345 79.7125 159.642 79.7125 159.642C79.7125 159.642 75.6327 159.057 75.55 160.361C75.4673 161.664 79.1549 162.489 79.1549 162.489C79.1549 162.489 74.8857 163.793 74.979 165.213C75.0724 166.633 81.9162 165.213 83.4242 169.473C84.9314 173.734 83.1388 175.51 84.278 175.51C85.4172 175.51 87.9762 171.01 87.787 165.805C87.597 160.6 84.1818 159.769 84.1818 159.769" fill="#FED8B6"/>
<path d="M87.7768 165.805C87.5868 160.596 84.1716 159.768 84.1716 159.768C84.1716 159.768 83.3282 159.183 82.2451 158.531C84.6013 163.187 84.8947 167.261 83.8942 171.269C84.4281 174.232 83.3041 175.509 84.2678 175.509C85.4046 175.509 87.966 171.01 87.7768 165.805Z" fill="#F5C0A1"/>
<path d="M156.411 135.121C156.411 135.121 159.402 127.471 160.515 127.83C161.628 128.19 160.782 130.521 160.782 130.521C160.782 130.521 164.542 126.863 165.167 127.83C165.79 128.798 163.218 132.862 163.218 132.862C163.218 132.862 167.256 129.739 167.602 130.78C167.949 131.821 161.828 137.638 161.828 140.329C161.828 143.019 164.611 144.842 164.542 146.146C164.472 147.449 159.472 147.709 156.401 143.196C156.401 143.196 154.939 139.983 156.401 135.121" fill="#FED8B6"/>
<path d="M163.933 131.662C164.646 130.378 165.585 128.449 165.177 127.831C165.004 127.561 164.576 127.661 164.059 127.937C163.448 129.909 161.924 131.542 161.33 133.757C162.199 132.676 163.066 132.218 163.933 131.662Z" fill="#F5C0A1"/>
<path d="M167.605 130.781C167.424 130.235 166.237 130.831 165.142 131.522C163.216 135.447 159.747 139.767 155.873 141.101C155.962 141.829 156.143 142.536 156.406 143.196C159.467 147.709 164.478 147.446 164.548 146.146C164.617 144.846 161.834 143.02 161.834 140.329C161.834 137.639 167.955 131.822 167.608 130.781" fill="#F5C0A1"/>
<path d="M137.928 217.292C138.743 211.621 139.431 202.402 139.431 202.402L128.582 206.27C129.196 208.372 129.443 212.968 129.545 216.361C132.229 217.358 135.119 217.897 137.928 217.292Z" fill="#FED8B6"/>
<path d="M137.928 217.292C138.743 211.621 139.431 202.402 139.431 202.402L128.582 206.27C129.196 208.372 129.443 212.968 129.545 216.361C132.229 217.358 135.119 217.897 137.928 217.292Z" fill="#FED8B6"/>
<path d="M137.928 217.292C138.743 211.621 139.431 202.402 139.431 202.402L128.582 206.27C128.953 207.534 129.188 209.706 129.34 211.974C130.986 212.074 134.033 212.1 135.557 211.093L134.985 217.528C135.968 217.572 136.951 217.493 137.92 217.292" fill="#F5C0A1"/>
<path d="M138.14 221.479C137.683 220.96 137.339 220.531 137.366 220.445C137.654 219.145 137.879 217.824 138.041 216.49C135.407 217.408 132.123 216.617 129.503 215.217C129.61 218.084 129.61 220.445 129.61 220.448C129.61 220.811 129.61 221.133 129.626 221.446C132.43 223.109 135.431 222.863 138.135 221.479" fill="#50858D"/>
<path d="M137.366 220.445C137.653 219.145 137.879 217.824 138.041 216.491C137.075 216.805 136.077 216.931 135.082 216.863C134.985 218.819 134.815 220.585 135.122 222.494C136.158 222.319 137.172 221.978 138.139 221.479C137.683 220.961 137.339 220.531 137.366 220.445Z" fill="#49787F"/>
<path d="M140.311 223.704C139.999 223.535 137.307 220.684 137.376 220.445C137.392 220.378 137.411 220.289 137.427 220.212C135.13 221.772 131.944 221.519 129.62 219.464C129.62 220.079 129.62 220.462 129.62 220.462C129.62 222.457 129.646 223.614 131.132 224.842C133.073 226.438 135.543 227.965 137.998 227.958C138.718 227.958 139.495 227.492 140.074 226.997C140.951 226.242 141.515 224.373 140.317 223.717" fill="#45474B"/>
<path d="M140.312 223.704C139.999 223.534 137.307 220.684 137.377 220.445C137.392 220.378 137.412 220.288 137.428 220.212C136.616 220.748 135.726 221.072 134.81 221.163C136.013 223.927 139.175 224.206 140.544 226.418C141.104 225.533 141.286 224.233 140.322 223.704" fill="#3B3E40"/>
<path d="M117.218 200.147C115.104 198.5 112.878 197.087 110.566 195.927C109.142 199.589 108.399 203.604 108.394 207.673C111.705 210.298 117.138 213.993 120.06 212.712C124.449 210.78 125.225 204.012 117.218 200.147Z" fill="#FED8B6"/>
<path d="M109.397 208.449C109.058 204.328 110.368 199.828 112.788 197.141C109.835 195.395 106.118 193.769 103.984 195.006C102.329 197.813 102.617 202.01 103.717 204.73C104.072 205.52 104.537 206.224 105.091 206.809C105.302 206.335 105.475 205.836 105.605 205.319C105.605 205.319 107.206 206.802 109.41 208.465" fill="#50858D"/>
<path d="M109.421 205.688C109.703 202.429 110.902 199.233 112.788 197.124C109.834 195.378 106.117 193.752 103.983 194.989C102.505 197.497 102.58 201.119 103.391 203.803C103.823 202.909 104.181 201.963 104.458 200.979C106.344 202.549 107.708 204.119 109.426 205.688" fill="#49787F"/>
<path d="M106.98 194.67C105.611 194.423 104.386 194.546 103.527 195.311C99.9119 198.534 99.394 207.866 101.966 208.864C104.125 209.672 105.197 206.662 105.493 205.648C103.57 202.445 104.464 197.044 106.969 194.673" fill="#45474B"/>
<path d="M106.979 194.67C106.372 194.549 105.753 194.527 105.141 194.603C102.144 197.709 101.045 203.167 102.206 207.514C102.43 208.038 102.713 208.518 103.046 208.941C104.498 208.608 105.261 206.46 105.504 205.615C103.58 202.412 104.474 197.011 106.979 194.64" fill="#3B3E40"/>
<path d="M108.693 171.143C108.693 171.143 106.11 188.866 104.042 194.666C104.042 194.666 107.66 205.948 119.024 210.457C130.389 214.967 149.763 205.302 152.09 194.989C152.09 194.989 138.398 168.243 133.233 147.942C133.233 147.942 129.1 132.796 124.449 133.119C119.798 133.441 110.771 138.919 110.771 138.919L108.693 171.143Z" fill="#45474B"/>
<path d="M152.09 194.989C152.09 194.989 138.399 168.243 133.233 147.942C133.233 147.942 129.1 132.796 124.449 133.119C119.798 133.441 110.772 138.919 110.772 138.919L110.454 143.908C114.288 147.606 119.611 148.966 123.923 145.903C123.176 147.769 124.673 150.559 124.673 151.504C135.723 166.909 143.38 184.43 145.694 204.052C148.986 201.371 151.377 198.212 152.098 194.989" fill="#3B3E40"/>
<path d="M139.298 166.32C138.91 165.316 138.528 164.307 138.151 163.294C130.218 170.611 118.501 173.305 108.733 170.511L108.693 171.143C108.693 171.143 108.493 172.513 108.16 174.608C118.819 176.75 130.946 174.385 139.296 166.32" fill="#50858D"/>
<path d="M123.312 167.465C123.312 167.465 121.354 166.976 121.647 165.752C121.941 164.528 122.92 165.509 122.92 165.509C122.92 165.509 122.92 164.285 123.902 164.774C124.884 165.263 123.312 167.465 123.312 167.465Z" fill="#50858D"/>
<path d="M132.83 163.553C132.83 163.553 130.869 163.064 131.162 161.841C131.456 160.617 132.438 161.598 132.438 161.598C132.438 161.598 132.438 160.374 133.417 160.863C134.396 161.352 132.83 163.553 132.83 163.553Z" fill="#50858D"/>
<path d="M114.221 168.885C114.221 168.885 112.415 167.82 112.935 166.723C113.455 165.625 114.218 166.869 114.218 166.869C114.218 166.869 114.456 165.685 115.313 166.453C116.169 167.222 114.221 168.885 114.221 168.885Z" fill="#50858D"/>
<path d="M105.167 195.757C105.167 195.757 104.597 193.369 105.6 193.12C106.603 192.871 106.371 194.41 106.371 194.41C106.371 194.41 107.236 193.838 107.348 195.145C107.46 196.452 105.167 195.757 105.167 195.757Z" fill="#50858D"/>
<path d="M108.604 201.368C108.604 201.368 107.817 199.077 108.794 198.684C109.771 198.292 109.675 199.858 109.675 199.858C109.675 199.858 110.475 199.163 110.715 200.45C110.955 201.737 108.604 201.368 108.604 201.368Z" fill="#50858D"/>
<path d="M113.586 206.027C113.586 206.027 112.489 203.942 113.395 203.347C114.299 202.751 114.427 204.305 114.427 204.305C114.427 204.305 115.126 203.447 115.534 204.657C115.942 205.868 113.586 206.027 113.586 206.027Z" fill="#50858D"/>
<path d="M119.657 209.786C119.657 209.786 118.29 207.966 119.099 207.185C119.907 206.403 120.249 207.91 120.249 207.91C120.249 207.91 120.82 206.912 121.388 208.023C121.957 209.134 119.657 209.786 119.657 209.786Z" fill="#50858D"/>
<path d="M126.765 210.7C126.765 210.7 125.033 209.456 125.625 208.415C126.218 207.374 126.896 208.691 126.896 208.691C126.896 208.691 127.208 207.534 128.011 208.385C128.814 209.237 126.765 210.713 126.765 210.713" fill="#50858D"/>
<path d="M134.887 208.907C134.887 208.907 132.926 208.418 133.222 207.195C133.518 205.971 134.495 206.952 134.495 206.952C134.495 206.952 134.495 205.728 135.474 206.217C136.453 206.706 134.887 208.907 134.887 208.907Z" fill="#50858D"/>
<path d="M141.843 205.485C141.843 205.485 139.884 204.993 140.178 203.772C140.471 202.552 141.457 203.543 141.457 203.543C141.457 203.543 141.457 202.322 142.435 202.811C143.415 203.3 141.845 205.502 141.845 205.502" fill="#50858D"/>
<path d="M147.356 200.749C147.356 200.749 145.371 201.015 145.357 199.752C145.344 198.488 146.513 199.043 146.513 199.043C146.513 199.043 146.219 197.876 147.273 197.976C148.327 198.075 147.356 200.763 147.356 200.763" fill="#50858D"/>
<path d="M150.929 196.296C150.929 196.296 149.082 197.247 148.781 196.027C148.479 194.806 149.73 194.942 149.73 194.942C149.73 194.942 149.197 193.925 150.219 193.652C151.241 193.379 150.929 196.313 150.929 196.313" fill="#50858D"/>
<path d="M114.123 159.349C114.123 159.349 112.316 158.285 112.839 157.188C113.363 156.09 114.123 157.334 114.123 157.334C114.123 157.334 114.36 156.147 115.214 156.918C116.068 157.69 114.123 159.349 114.123 159.349Z" fill="#50858D"/>
<path d="M127.44 162.452C127.44 162.452 125.478 161.963 125.772 160.739C126.066 159.516 127.047 160.497 127.047 160.497C127.047 160.497 127.047 159.273 128.027 159.762C129.006 160.251 127.44 162.452 127.44 162.452Z" fill="#50858D"/>
<path d="M128.915 154.627C128.915 154.627 126.954 154.138 127.248 152.917C127.541 151.697 128.523 152.671 128.523 152.671C128.523 152.671 128.523 151.451 129.503 151.94C130.482 152.429 128.915 154.627 128.915 154.627Z" fill="#50858D"/>
<path d="M118.523 163.064C118.523 163.064 116.561 162.575 116.855 161.351C117.148 160.127 118.13 161.108 118.13 161.108C118.13 161.108 118.13 159.885 119.11 160.374C120.089 160.862 118.523 163.064 118.523 163.064Z" fill="#50858D"/>
<path d="M122.343 156.828C122.343 156.828 120.385 156.339 120.678 155.119C120.972 153.898 121.951 154.873 121.951 154.873C121.951 154.873 121.951 153.649 122.93 154.138C123.909 154.627 122.343 156.828 122.343 156.828Z" fill="#50858D"/>
<path d="M113.343 134.409C113.343 134.409 120.315 160.187 107.142 175.649C107.142 175.649 107.919 159.213 105.85 153.413C105.85 153.413 95.778 159.858 92.4189 165.013C89.059 170.168 84.9288 166.304 83.6372 161.471C82.3457 156.639 88.2854 152.771 95.778 146.648C103.271 140.525 113.343 134.402 113.343 134.402" fill="#8BCB8E"/>
<path d="M105.071 139.784C108.086 141.726 111.537 143.831 114.904 143.941C114.628 140.709 114.106 137.517 113.343 134.409C113.343 134.409 109.648 136.654 105.071 139.784Z" fill="#7EB981"/>
<path d="M85.7188 165.652C87.5867 167.87 90.1697 168.475 92.4193 165.02C95.5675 160.187 104.613 154.224 105.736 153.496C106.407 152.281 106.979 150.986 107.447 149.631C100.35 154.457 91.0339 157.211 85.7188 165.652Z" fill="#7EB981"/>
<path d="M124.449 133.119C124.449 133.119 127.549 157.61 140.725 162.765C140.725 162.765 135.559 151.164 135.3 146.009C135.3 146.009 147.441 145.042 150.8 146.655C154.16 148.268 160.099 143.755 157.258 134.732C154.416 125.709 124.451 133.119 124.451 133.119" fill="#8BCB8E"/>
<path d="M137.273 130.814C130.415 131.645 124.449 133.118 124.449 133.118C124.828 135.713 125.358 138.269 126.034 140.768C130.186 138.526 134.169 135.204 137.273 130.79" fill="#7EB981"/>
<path d="M157.255 134.731C157.207 134.583 157.153 134.437 157.092 134.296C157.244 137.805 156.292 140.462 153.845 141.227C147.11 144.027 139.625 144.027 132.89 142.161C132.856 148.228 133.898 154.23 135.943 159.735C137.394 161.062 139.007 162.086 140.722 162.765C140.722 162.765 135.556 151.164 135.298 146.006C135.298 146.006 147.438 145.038 150.798 146.651C154.157 148.264 160.097 143.751 157.255 134.728" fill="#7EB981"/>
<path d="M136.962 106.053C136.962 106.053 140.098 99.0315 142.868 103.176C145.637 107.32 141.114 113.878 138.161 112.728C138.161 112.728 137.894 108.7 136.962 106.053Z" fill="#F5C0A1"/>
<path d="M91.6449 119.263C91.6449 119.263 86.4797 113.729 83.907 119.263C80.8839 125.739 89.8491 128.609 93.209 126.35C93.209 126.35 102.249 143.109 118.005 139.887C118.005 139.887 118.272 144.396 121.364 143.432C124.457 142.467 123.688 139.564 123.688 139.564C129.98 136.857 135.018 131.542 139.533 125.596C141.809 122.602 143.567 118.392 142.673 114.411C142.209 112.355 141.104 110.639 140.272 108.777C137.198 101.936 139.183 93.757 136.659 87.092C136.125 89.2372 135.114 92.6229 132.734 91.8812C129.634 90.9134 127.31 87.0488 127.31 87.0488C127.31 87.0488 129.892 93.1717 124.727 95.104C119.56 97.0363 113.618 88.9811 113.618 88.9811C113.618 88.9811 117.236 98.9586 112.845 100.582C108.452 102.205 104.32 96.3911 104.32 96.3911C104.32 96.3911 107.162 104.127 103.287 106.702C99.4125 109.276 93.4704 105.734 93.4704 105.734C93.4704 105.734 94.7619 109.279 95.0208 112.824C95.2798 116.37 91.1463 116.047 91.6642 119.27" fill="#FED8B6"/>
<path d="M142.66 114.411C142.195 112.355 141.091 110.639 140.258 108.777C137.185 101.936 139.17 93.757 136.645 87.092C136.112 89.2372 135.1 92.6229 132.721 91.8812C129.62 90.9134 127.296 87.0488 127.296 87.0488C127.296 87.0488 129.879 93.1717 124.713 95.104C119.548 97.0363 113.605 88.9811 113.605 88.9811C113.605 88.9811 117.223 98.9586 112.831 100.582C108.439 102.205 104.306 96.3911 104.306 96.3911C104.306 96.3911 107.148 104.127 103.273 106.702C99.3995 109.276 93.4566 105.734 93.4566 105.734C93.4566 105.734 94.7482 109.279 95.0071 112.824C95.266 116.37 91.1333 116.047 91.6504 119.27C91.6504 119.27 89.1291 116.573 86.7305 116.832C88.4942 117.78 90.039 119.609 90.9995 122.562C93.2434 118.827 99.9808 116.958 97.7344 111.358C101.47 113.223 107.465 113.223 108.212 106.702C111.948 108.571 117.194 108.571 117.941 102.045C120.187 102.977 122.432 104.846 124.678 103.911C128.414 99.2546 131.413 99.2546 132.91 101.111C140.512 111.95 137.08 123.77 131.197 134.788C134.234 132.181 136.971 129.001 139.535 125.615C141.814 122.622 143.573 118.412 142.679 114.431" fill="#F5C0A1"/>
<path d="M110.705 113.912C110.705 115.279 110.085 116.386 109.32 116.386C108.554 116.386 107.938 115.279 107.938 113.912C107.938 112.545 108.556 111.437 109.32 111.437C110.083 111.437 110.705 112.545 110.705 113.912Z" fill="#444854"/>
<path d="M133.86 108.042C133.86 109.409 133.241 110.516 132.475 110.516C131.709 110.516 131.093 109.409 131.093 108.042C131.093 106.675 131.712 105.567 132.475 105.567C133.238 105.567 133.86 106.675 133.86 108.042Z" fill="#444854"/>
<path d="M114.67 122.139C114.67 122.139 121.96 127.776 127.955 118.688C127.955 118.688 126.848 135.031 122.05 136.182C117.252 137.332 114.67 122.139 114.67 122.139Z" fill="#444854"/>
<path d="M117.903 131.555C117.903 131.555 119.168 135.826 121.476 135.64C122.113 135.617 122.732 135.367 123.259 134.92C123.785 134.474 124.198 133.848 124.449 133.119C124.449 133.119 122.891 131.369 121.327 132.576C121.327 132.576 120.284 129.886 117.903 131.555Z" fill="#F79B7E"/>
<path d="M119.539 124.222C120.315 124.442 121.121 124.457 121.902 124.265C122.684 124.073 123.423 123.679 124.075 123.108C124.075 123.108 124.15 126.357 123.33 126.637C122.512 126.916 122.287 126.264 122.287 126.264C122.287 126.264 121.543 127.927 120.652 127.564C119.761 127.202 119.534 124.222 119.534 124.222" fill="white"/>
<path d="M109.247 121.461C109.247 123.124 107.209 124.455 104.693 124.455C102.177 124.455 100.141 123.124 100.141 121.461C100.141 119.798 102.18 118.468 104.693 118.468C107.206 118.468 109.247 119.798 109.247 121.461Z" fill="#F79C7B"/>
<path d="M140.618 112.655C141.054 114.218 139.482 116.313 137.107 117.351C134.732 118.389 132.451 117.95 132.016 116.386C131.581 114.823 133.153 112.728 135.528 111.687C137.902 110.646 140.181 111.092 140.618 112.655Z" fill="#F79C7B"/>
<path d="M114.651 150.034C114.651 150.398 114.564 150.753 114.402 151.056C114.24 151.358 114.01 151.594 113.74 151.733C113.471 151.872 113.174 151.909 112.888 151.838C112.601 151.767 112.339 151.592 112.132 151.334C111.926 151.077 111.785 150.749 111.728 150.393C111.671 150.036 111.701 149.666 111.812 149.33C111.924 148.994 112.113 148.707 112.356 148.505C112.599 148.303 112.884 148.195 113.176 148.195C113.567 148.195 113.942 148.388 114.219 148.733C114.495 149.078 114.651 149.546 114.651 150.034Z" fill="#7A594F"/>
<path d="M113.851 150.489L113.474 149.974C113.584 149.865 113.669 149.723 113.722 149.562C113.744 149.492 113.68 149.422 113.624 149.442C113.489 149.496 113.369 149.593 113.274 149.724C113.147 149.565 113.005 149.423 112.853 149.302C112.83 149.287 112.804 149.281 112.778 149.286C112.752 149.29 112.729 149.305 112.711 149.328C112.692 149.351 112.68 149.38 112.676 149.412C112.673 149.444 112.678 149.477 112.69 149.505C112.78 149.695 112.886 149.872 113.007 150.034C112.853 150.204 112.708 150.389 112.575 150.586C112.505 150.692 112.594 150.882 112.703 150.792C112.877 150.638 113.043 150.468 113.196 150.283C113.338 150.459 113.482 150.616 113.616 150.785C113.749 150.955 113.992 150.689 113.851 150.489Z" fill="#46484C"/>
<path d="M114.09 157.979C114.09 158.343 114.004 158.699 113.842 159.001C113.68 159.304 113.449 159.54 113.179 159.679C112.909 159.818 112.613 159.854 112.327 159.783C112.04 159.712 111.777 159.536 111.571 159.279C111.365 159.021 111.224 158.693 111.167 158.336C111.111 157.979 111.141 157.609 111.252 157.273C111.365 156.937 111.555 156.65 111.797 156.448C112.04 156.247 112.326 156.139 112.618 156.14C113.009 156.141 113.383 156.335 113.66 156.68C113.936 157.025 114.09 157.492 114.09 157.979Z" fill="#7A594F"/>
<path d="M113.29 158.431C113.172 158.268 113.047 158.099 112.917 157.912C113.026 157.805 113.11 157.664 113.162 157.503C113.165 157.487 113.166 157.469 113.162 157.452C113.159 157.436 113.152 157.42 113.142 157.408C113.132 157.395 113.12 157.386 113.107 157.381C113.094 157.377 113.079 157.376 113.066 157.38C112.931 157.434 112.811 157.532 112.716 157.663C112.588 157.504 112.447 157.363 112.295 157.241C112.271 157.226 112.246 157.22 112.219 157.225C112.194 157.23 112.17 157.245 112.152 157.268C112.133 157.291 112.121 157.321 112.117 157.353C112.113 157.385 112.117 157.418 112.129 157.447C112.221 157.636 112.328 157.814 112.449 157.976C112.293 158.144 112.149 158.328 112.017 158.528C111.948 158.634 112.036 158.82 112.145 158.731C112.319 158.577 112.483 158.407 112.636 158.222C112.778 158.401 112.925 158.554 113.058 158.727C113.192 158.9 113.434 158.627 113.29 158.431Z" fill="#46484C"/>
<path d="M112.231 165.761C112.231 166.125 112.144 166.481 111.982 166.784C111.82 167.086 111.589 167.322 111.319 167.461C111.05 167.6 110.753 167.636 110.466 167.565C110.18 167.494 109.917 167.318 109.711 167.061C109.505 166.803 109.365 166.475 109.308 166.118C109.252 165.761 109.28 165.391 109.393 165.055C109.505 164.719 109.695 164.432 109.938 164.231C110.181 164.029 110.466 163.922 110.758 163.922C111.149 163.923 111.523 164.117 111.799 164.462C112.076 164.807 112.231 165.274 112.231 165.761Z" fill="#7A594F"/>
<path d="M111.43 166.217C111.313 166.054 111.187 165.885 111.054 165.702C111.164 165.596 111.251 165.456 111.305 165.296C111.309 165.279 111.309 165.262 111.305 165.245C111.301 165.228 111.295 165.213 111.285 165.2C111.276 165.188 111.263 165.179 111.25 165.174C111.236 165.169 111.222 165.169 111.209 165.173C111.074 165.228 110.953 165.326 110.856 165.456C110.73 165.295 110.588 165.154 110.435 165.033C110.412 165.02 110.386 165.015 110.361 165.021C110.336 165.026 110.313 165.041 110.294 165.064C110.277 165.087 110.265 165.116 110.261 165.147C110.257 165.179 110.261 165.211 110.272 165.24C110.363 165.43 110.471 165.607 110.593 165.768C110.436 165.937 110.29 166.122 110.157 166.32C110.091 166.427 110.179 166.613 110.286 166.523C110.46 166.371 110.626 166.202 110.779 166.018C110.921 166.194 111.067 166.35 111.198 166.52C111.231 166.552 111.272 166.567 111.313 166.564C111.353 166.561 111.393 166.539 111.422 166.502C111.45 166.466 111.467 166.417 111.47 166.366C111.472 166.315 111.458 166.264 111.433 166.224" fill="#46484C"/>
<path d="M132.651 181.11C132.651 181.11 126.074 189.475 119.243 186.475C119.243 186.475 121.268 189.315 125.566 188.055C125.566 188.055 123.165 190.419 120.633 190.579C120.633 190.579 126.581 193.572 131.765 186.159C131.765 186.159 128.477 188.999 126.452 189.485C126.452 189.485 130.754 185.54 132.651 181.12" fill="#3B3E40"/>
<path d="M110.101 104.064C109.554 103.915 109.122 103.732 108.562 103.935C107.985 104.167 107.453 104.548 107.001 105.052C106.155 105.947 105.56 107.247 105.744 108.657C105.784 108.973 106.105 108.933 106.224 108.734C106.736 107.892 107.193 106.984 107.825 106.283C108.132 105.967 108.468 105.698 108.826 105.481C109.234 105.157 109.654 104.861 110.088 104.593C110.275 104.507 110.32 104.127 110.088 104.064" fill="#444854"/>
<path d="M131.893 97.1824C131.01 96.6237 129.889 96.6569 129.473 97.9241C129.273 98.536 129.961 98.852 130.273 98.5061C130.807 97.944 131.666 98.9717 132.032 99.3475C132.637 99.9728 133.299 100.502 133.844 101.217C133.87 101.242 133.903 101.257 133.937 101.259C133.97 101.261 134.003 101.25 134.032 101.229C134.061 101.207 134.083 101.175 134.098 101.136C134.112 101.098 134.116 101.056 134.111 101.014C133.737 99.3874 133.133 97.9806 131.874 97.1824" fill="#444854"/>
<path d="M263.745 205.382L254.457 197.929C254.457 197.929 250.828 209.855 252.627 224.612C254.302 225.73 256.096 226.132 257.963 226.249C258.713 221.06 261.304 209.756 263.759 205.382" fill="#FED8B6"/>
<path d="M263.745 205.382L258.895 201.491C257.588 209.636 255.397 217.788 255.693 225.926C256.435 226.102 257.185 226.214 257.94 226.259C258.689 221.07 261.28 209.766 263.735 205.392" fill="#F5C0A1"/>
<path d="M252.456 222.939C252.614 224.602 252.835 226.285 253.139 228.008C253.139 228.008 248.715 228.836 249.601 230.492C250.487 232.149 258.227 230.216 257.785 228.829C257.673 228.477 257.806 227.13 258.118 225.234C256.109 225.057 254.165 224.269 252.456 222.939Z" fill="#45474B"/>
<path d="M257.773 228.836C257.662 228.483 257.795 227.136 258.107 225.241C257.28 225.153 256.461 224.972 255.66 224.699C255.74 226.524 256.016 228.328 256.479 230.063C257.349 229.674 257.902 229.232 257.773 228.836Z" fill="#3B3E40"/>
<path d="M279.139 228.234C278.338 222.637 277.573 212.935 278.843 206.812C278.843 206.812 273.09 204.052 268.004 205.432C268.004 205.432 268.759 219.291 273.221 230.971C275.371 230.665 277.538 230.28 279.139 228.234Z" fill="#FED8B6"/>
<path d="M279.139 228.234C278.339 222.636 277.573 212.935 278.843 206.812C276.928 205.96 274.937 205.402 272.914 205.149C273.258 213.677 274.902 221.882 276.985 229.973C277.796 229.589 278.53 228.992 279.139 228.224" fill="#F5C0A1"/>
<path d="M278.896 226.351C277.045 228.68 274.854 229.275 272.61 229.301C273.147 230.859 273.75 232.379 274.418 233.855C274.418 233.855 270.878 235.787 272.65 237.18C274.421 238.574 280.611 234.141 279.939 232.478C279.702 231.886 279.267 229.528 278.888 226.355" fill="#45474B"/>
<path d="M279.94 232.477C279.702 231.885 279.267 229.527 278.888 226.354C278.127 227.327 277.202 228.079 276.18 228.553C276.754 230.732 277.842 233.029 278.098 235.29C279.339 234.293 280.209 233.152 279.94 232.477Z" fill="#3B3E40"/>
<path d="M255.037 189.83C255.037 189.83 247.736 200.313 245.745 209.972C245.745 209.972 250.445 216.457 262.556 218.489C277.917 221.07 285.3 216.281 285.3 216.281L280.916 197.556C280.916 197.556 265.44 198.384 255.033 189.83" fill="#AC72A2"/>
<path d="M280.916 197.556C280.916 197.556 265.44 198.384 255.033 189.83C255.033 189.83 254.001 191.314 252.606 193.678C258.898 199.116 265.33 202.545 273.172 201.547C273.172 207.797 274.08 213.484 275.553 219.018C282.087 218.329 285.295 216.274 285.295 216.274L280.916 197.556Z" fill="#9C6691"/>
<path d="M282.083 213.603L281.503 215.459L282.987 216.666L283.568 215.053L282.083 213.603Z" fill="#35A99B"/>
<path d="M276.529 214.169L275.689 216.507L277.433 218.117L278.272 216.344L276.529 214.169Z" fill="#35A99B"/>
<path d="M270.976 214.492L269.749 216.667L271.232 218.439L272.396 216.83L270.976 214.492Z" fill="#3ABDB0"/>
<path d="M264.261 214.169L265.163 216.344L263.807 218.117L262.646 215.862L264.261 214.169Z" fill="#3ABDB0"/>
<path d="M258.705 212.882L259.351 215.379L257.801 216.829L257.027 214.651L258.705 212.882Z" fill="#3ABDB0"/>
<path d="M253.862 211.349L254.444 213.524L252.765 214.651L251.925 212.476L253.862 211.349Z" fill="#3ABDB0"/>
<path d="M249.214 208.449L249.601 210.787L248.051 211.512L247.664 209.496L249.214 208.449Z" fill="#3ABDB0"/>
<path d="M233.877 111.75C233.343 118.252 233.343 124.818 232.543 131.28C231.34 140.734 228.445 149.729 224.071 157.597C243.12 153.22 262.777 155.714 281.933 159.36C285.908 160.115 289.988 160.969 293.422 163.504C302.324 154.138 304.941 137.998 301.787 124.259C296.349 100.609 277.351 82.1468 256.96 81.751C250.594 81.628 242.506 82.2831 238.341 88.7585C234.801 94.2628 234.403 105.119 233.867 111.737" fill="#B35E43"/>
<path d="M273.176 144.852C273.176 144.852 298.884 156.579 293.967 196.735C293.967 196.735 290.872 198.943 286.666 196.459C286.666 196.459 287.552 178.523 281.581 171.073C281.581 171.073 278.483 184.376 280.916 197.563C280.916 197.563 265.477 203.174 252.816 191.647C252.816 191.647 257.731 185.574 258.292 170.727C258.292 170.727 250.821 181.556 241.543 182.66C241.543 182.66 241.765 178.523 239.331 177.419C239.331 177.419 256.363 165.828 255.037 146.512C255.037 146.512 265.443 140.166 273.181 144.849" fill="#6DC4C3"/>
<path d="M274.633 187.18C274.32 191.723 274.221 195.897 274.195 198.82C276.464 198.682 278.716 198.259 280.916 197.557C278.482 184.383 281.581 171.066 281.581 171.066C281.581 171.066 275.222 178.603 274.643 187.18" fill="#61B1B0"/>
<path d="M279.993 186.535C279.999 184.217 280.106 181.901 280.316 179.597C272.711 181.666 264.434 180.029 257.964 175.19C257.751 177.212 257.424 179.212 256.987 181.177C263.124 187.955 272.126 187.882 279.993 186.528" fill="#E9F6F5"/>
<path d="M257.44 164.488C253.876 172.496 247.976 177.598 241.177 179.787C241.447 180.701 241.571 181.671 241.543 182.644C248.563 181.812 254.535 175.427 257.035 172.353C257.835 169.819 258.345 167.295 257.44 164.478" fill="#61B1B0"/>
<path d="M284.913 155.076C289.911 168.209 292.005 183.372 290.341 197.62C291.59 197.715 292.839 197.408 293.967 196.728C296.496 176.078 290.922 162.961 284.913 155.076Z" fill="#61B1B0"/>
<path d="M280.316 179.597C278.96 179.96 277.587 180.207 276.204 180.335C275.421 182.513 274.889 184.817 274.622 187.18C276.436 187.064 278.237 186.847 279.982 186.535C279.992 184.216 280.103 181.9 280.316 179.597Z" fill="#CFDBDB"/>
<path d="M274.045 165.579C278.848 164.085 282.392 160.031 284.718 154.826C279.098 147.569 273.172 144.849 273.172 144.849C265.434 140.156 255.028 146.512 255.028 146.512C255.272 150.058 254.905 153.627 253.95 156.981C259.172 163.853 266.606 167.647 274.045 165.585" fill="#61B1B0"/>
<path d="M267.932 163.397C270.552 163.397 272.3 160.127 273.176 157.946C274.854 154.803 275.918 150.655 276.111 146.588C275.17 145.928 274.195 145.348 273.192 144.852C268.714 142.138 263.351 143.116 259.623 144.426C261.814 151.537 259.557 162.445 267.945 163.383" fill="#F5C0A1"/>
<path d="M239.331 177.412C239.331 177.412 231.974 177.412 232.713 180.349C232.713 180.349 230.203 182.191 231.681 184.22C231.681 184.22 230.056 185.883 231.385 187.546C232.713 189.209 234.338 186.807 235.224 187.915C236.11 189.022 236.489 191.42 241.543 182.663C241.543 182.663 241.519 177.801 239.331 177.422" fill="#FED8B6"/>
<path d="M230.998 186.864C231.095 187.112 231.227 187.337 231.384 187.529C232.719 189.192 234.339 186.791 235.225 187.898C236.11 189.006 236.49 191.404 241.543 182.647C241.526 181.811 241.43 180.98 241.257 180.172C237.404 181.858 233.21 183.119 230.998 186.857" fill="#F5C0A1"/>
<path d="M286.667 196.452C286.667 196.452 283.675 201.171 283.966 202.828C284.257 204.484 285.001 203.935 285.001 203.935C285.001 203.935 285.591 207.989 286.335 208.172C286.846 208.253 287.365 208.123 287.811 207.803C287.811 207.803 288.696 209.832 289.585 209.466C290.474 209.1 290.765 207.623 290.765 207.623C290.765 207.623 292.099 209.649 293.129 208.176C294.159 206.702 294.521 204.301 294.164 204.673C293.278 205.595 295.701 200.396 293.972 196.731C293.972 196.731 289.668 197.633 286.671 196.455" fill="#FED8B6"/>
<path d="M294.158 204.67C293.272 205.592 295.696 200.393 293.966 196.728C292.831 196.942 291.686 197.053 290.538 197.061C290.108 201.165 289.596 205.233 288.635 209.114C288.755 209.27 288.905 209.384 289.07 209.446C289.236 209.509 289.411 209.517 289.58 209.47C290.465 209.1 290.759 207.627 290.759 207.627C290.759 207.627 292.093 209.653 293.123 208.179C294.153 206.706 294.516 204.305 294.158 204.677" fill="#F5C0A1"/>
<path d="M284.742 98.5927C277.204 92.9388 268.321 89.4699 259.521 89.0741C253.998 88.8247 246.685 89.134 242.351 94.0629C236.505 100.715 240.694 112.758 236.481 120.809C233.546 126.42 230.92 132.214 233.947 138.909C240.313 152.99 254.663 158.454 266.926 156.981C276.798 155.794 292.872 148.391 297.36 136.394C302.006 123.976 292.493 104.387 284.753 98.5893" fill="#FED8B6"/>
<path d="M284.743 98.5927C277.204 92.9388 268.322 89.4699 259.522 89.0741C253.999 88.8247 246.685 89.134 242.352 94.0629C241.668 94.8398 241.084 95.7427 240.62 96.7402C242.84 101.011 245.5 104.722 250.439 105.617C249.567 104.526 251.315 103.435 251.315 102.344C253.935 108.886 258.305 118.698 262.673 117.607C268.791 116.519 267.044 123.058 274.034 123.058C274.91 123.058 275.782 120.879 275.782 118.698C281.025 129.6 281.901 142.683 275.782 153.585C275.474 154.095 275.158 154.594 274.832 155.082C283.827 151.986 293.937 145.52 297.35 136.398C301.996 123.979 292.483 104.39 284.743 98.5927Z" fill="#F5C0A1"/>
<path d="M245.975 130.95C245.975 130.95 253.374 140.928 261.349 133.943C261.349 133.943 260.68 149.598 253.508 147.912C247.104 146.402 245.975 130.95 245.975 130.95Z" fill="#444854"/>
<path d="M245.61 70.1505C245.029 70.6583 244.469 71.2004 243.928 71.7768C239.28 76.729 236.348 85.2431 238.971 92.1309C240.214 95.3902 242.503 97.838 244.899 99.8601C245.796 100.619 246.767 101.354 247.853 101.42C248.939 101.487 250.129 100.639 250.276 99.3014C250.441 97.8214 249.665 95.5931 250.833 95.2871C255.93 100.768 259.418 108.667 265.368 112.582C265.928 112.951 266.542 113.29 267.174 113.227C268.215 113.121 269.012 111.92 269.253 110.653C269.493 109.386 269.301 108.062 269.109 106.782C275.641 108.351 277.572 120.853 284.144 122.157C284.612 122.3 285.105 122.218 285.526 121.927C286.047 121.475 286.153 120.597 286.38 119.855C286.607 119.114 287.237 118.372 287.8 118.735C288.042 118.93 288.229 119.215 288.334 119.549C290.649 125.254 292 131.489 292.304 137.871C292.608 144.252 291.858 150.644 290.1 156.649C289.625 158.269 286.73 167.904 285.164 167.904C291.412 168.057 297.784 167.538 303.633 164.797C309.482 162.057 314.808 156.839 317.263 149.665C318.976 144.656 318.626 137.173 318.685 131.762C318.824 119.3 316.929 105.129 312.51 93.8869C303.22 70.2436 280.966 62.0122 261.112 63.7949C255.62 64.2871 250.089 66.226 245.61 70.1605" fill="#EB7B58"/>
<path d="M312.511 93.8769C304.157 72.6182 285.327 63.8247 267.182 63.562C272.869 66.0431 278.53 68.8135 283.704 72.7014C286.153 74.5439 288.961 76.6292 290.874 79.3297C291.285 79.9118 293.886 85.8849 293.23 85.7885C291.152 85.4638 289.216 84.3032 287.715 82.4826C290.194 86.16 291.576 90.7933 291.627 95.5963C291.627 96.9566 291.52 98.3834 290.919 99.5175C289.812 101.6 287.41 102.009 285.543 101.124C283.675 100.24 282.248 98.3734 280.884 96.5642C281.732 98.9024 282.099 101.468 281.951 104.028C281.949 104.462 281.856 104.888 281.685 105.265C281.388 105.83 280.822 106.053 280.291 106.18C276.977 106.971 273.12 105.272 271.153 101.786C270.177 100.05 267.417 94.3724 267.06 92.5333C268.948 101.956 262.128 102.904 258.313 97.5453C256.664 95.2172 251.021 86.1643 252.203 82.7254C249.58 90.3549 244.339 95.8025 239.096 91.4424C238.944 91.3692 238.811 91.2728 238.669 91.1863C238.766 91.5023 238.859 91.8215 238.976 92.1308C240.22 95.3901 242.509 97.838 244.905 99.8601C245.801 100.619 246.773 101.354 247.859 101.42C248.945 101.487 250.135 100.639 250.282 99.3013C250.447 97.8213 249.67 95.593 250.839 95.287C255.935 100.768 259.423 108.664 265.374 112.582C265.934 112.951 266.547 113.29 267.18 113.227C268.22 113.121 269.018 111.92 269.259 110.653C269.498 109.386 269.306 108.062 269.114 106.781C275.646 108.351 277.578 120.853 284.15 122.157C284.617 122.3 285.111 122.218 285.532 121.927C286.052 121.475 286.159 120.597 286.386 119.855C286.613 119.114 287.242 118.372 287.806 118.735C288.048 118.929 288.235 119.214 288.339 119.549C291.406 127.13 292.767 135.606 292.278 144.074C292.023 148.371 291.29 152.603 290.1 156.649C289.626 158.269 286.73 167.904 285.164 167.904C291.413 168.057 297.785 167.538 303.633 164.797C309.483 162.057 314.808 156.838 317.263 149.665C318.976 144.656 318.624 137.173 318.685 131.762C318.824 119.3 316.929 105.129 312.511 93.8869" fill="#CD6B4D"/>
<path d="M243.982 116.13C243.982 117.963 243.355 119.456 242.579 119.456C241.802 119.456 241.175 117.973 241.175 116.13C241.175 114.288 241.804 112.805 242.579 112.805C243.352 112.805 243.982 114.288 243.982 116.13Z" fill="#444854"/>
<path d="M271.342 120.687C271.342 122.519 270.712 124.012 269.939 124.012C269.165 124.012 268.536 122.526 268.536 120.687C268.536 118.847 269.163 117.361 269.939 117.361C270.715 117.361 271.342 118.847 271.342 120.687Z" fill="#444854"/>
<path d="M296.621 126.317L297.873 138.127C297.873 138.127 305.939 136.73 304.148 128.453C302.99 123.095 296.621 126.317 296.621 126.317Z" fill="#F5C0A1"/>
<path d="M246.167 106.246C243.889 105.311 241.682 106.768 240.148 108.877C239.614 109.602 240.468 110.669 241.02 109.954C242.408 108.165 244.299 107.41 246.167 106.715C246.207 106.699 246.242 106.668 246.266 106.626C246.291 106.583 246.305 106.533 246.305 106.48C246.305 106.428 246.291 106.377 246.266 106.335C246.242 106.293 246.207 106.262 246.167 106.246Z" fill="#444854"/>
<path d="M270.2 111.008C269.736 111.112 269.824 111.903 270.2 112.069C271.708 112.734 272.905 113.712 273.821 115.395C273.844 115.443 273.879 115.48 273.92 115.501C273.961 115.522 274.007 115.525 274.05 115.511C274.093 115.497 274.131 115.465 274.158 115.422C274.186 115.378 274.202 115.324 274.203 115.269C274.24 112.721 272.206 110.569 270.2 111.025" fill="#444854"/>
<path d="M249.94 143.944C249.94 143.944 251.506 147.237 254.308 147.34C257.11 147.443 258.514 144.15 258.514 144.15C258.514 144.15 256.534 142.71 254.225 144.563C254.225 144.563 252.414 141.682 249.94 143.944Z" fill="#F79B7E"/>
<path d="M248.454 133.89C248.454 133.89 248.006 135.22 248.507 135.759C249.009 136.298 249.27 136.581 249.401 136.547C249.531 136.514 249.9 134.884 249.9 134.884L248.454 133.89Z" fill="white"/>
<path d="M251.498 135.826C251.498 135.826 251.076 137.489 251.287 137.728C251.498 137.968 255.863 139.634 259.231 137.435L259.1 135.726C259.1 135.726 255.917 137.695 251.498 135.826Z" fill="white"/>
<path d="M277.578 133.461C277.578 135.124 275.539 136.454 273.023 136.454C270.507 136.454 268.471 135.124 268.471 133.461C268.471 131.798 270.509 130.468 273.023 130.468C275.536 130.468 277.578 131.798 277.578 133.461Z" fill="#F79C7B"/>
<path d="M243.35 127.152C242.992 128.748 240.74 129.357 238.317 128.512C235.894 127.667 234.221 125.689 234.582 124.092C234.942 122.496 237.191 121.89 239.614 122.735C242.037 123.58 243.71 125.559 243.35 127.152Z" fill="#F79C7B"/>
<path d="M273.116 325.734C271.681 326.944 269.916 326.367 268.784 324.28C267.665 322.217 267.893 319.961 269.328 318.752C270.145 318.064 271.406 317.871 272.242 318.288L274.547 322.537C274.532 323.635 273.933 325.046 273.116 325.734ZM273.841 329.214C274.977 328.257 275.71 326.77 275.813 324.873L279.128 330.985L281.679 328.836L272.691 312.262L270.14 314.412L270.961 315.928C269.591 315.381 268.184 315.625 267.008 316.616C264.538 318.699 263.984 322.496 266.153 326.497C268.323 330.497 271.37 331.296 273.841 329.214ZM290.718 314.557L284.209 302.555L281.678 304.688L286.085 312.813C286.024 313.878 285.611 315.204 284.634 316.027C283.558 316.934 282.564 316.975 281.662 315.31L277.712 308.03L275.182 310.163L279.804 318.686C281.071 321.021 282.849 321.623 284.961 319.843C286.536 318.516 287.207 316.647 287.366 315.174L288.187 316.689L290.718 314.557ZM287.277 298.087C288.114 297.382 288.334 295.966 287.768 294.922C287.201 293.879 286.08 293.63 285.242 294.335C284.425 295.024 284.172 296.432 284.738 297.475C285.304 298.519 286.46 298.776 287.277 298.087ZM295.762 310.306L289.254 298.304L286.723 300.437L293.232 312.439L295.762 310.306ZM305.706 301.927L304.21 299.169L299.726 302.947L300.357 292.279L299.117 289.993L291.344 296.542L292.84 299.3L297.185 295.639L296.574 306.183L297.854 308.544L305.706 301.927ZM315.242 293.891L313.746 291.133L309.262 294.911L309.893 284.242L308.654 281.956L300.881 288.506L302.377 291.264L306.722 287.603L306.11 298.147L307.39 300.508L315.242 293.891ZM322.031 288.604C323.525 287.345 324.73 285.497 325.094 283.598L322.872 282.501C322.659 283.767 321.765 285.171 320.948 285.86C319.314 287.237 317.65 286.793 316.669 285.411L323.823 279.382L323.446 278.686C321.317 274.76 317.908 273.723 315.038 276.141C312.109 278.61 311.579 283.147 313.466 286.626C315.555 290.477 319.101 291.073 322.031 288.604ZM320.213 279.311L315.47 283.308C314.943 282.014 314.825 279.977 316.4 278.651C318.073 277.24 319.533 278.218 320.213 279.311ZM331.99 280.212C334.66 277.961 335.252 275.037 334.066 272.85C331.438 268.005 326.547 274.299 325.576 272.51C325.212 271.839 325.528 270.814 326.445 270.041C327.62 269.05 329.053 268.748 330.049 269.031L329.893 266.013C328.424 265.875 326.752 266.27 325.117 267.648C322.586 269.78 322.128 272.737 323.219 274.75C325.78 279.471 330.624 273.036 331.702 275.024C332.106 275.769 331.885 276.752 330.788 277.676C329.593 278.684 327.713 279.073 326.571 278.841L326.674 281.976C328.324 282.287 330.316 281.623 331.99 280.212Z" fill="white"/>
<path d="M222.298 301.663C224.883 299.52 226.203 296.505 226.576 293.276L222.937 286.456L216.143 292.088L217.905 295.392L221.665 292.274L222.802 294.406C222.581 295.55 221.754 297.234 220.493 298.279C217.908 300.422 214.706 299.503 212.915 296.147C211.124 292.79 211.683 288.754 214.268 286.611C215.785 285.353 217.571 285.41 218.88 286.13L220.492 282.335C218.301 281.116 215.448 280.792 212.477 283.254C208.311 286.708 206.797 293.112 209.796 298.733C212.78 304.327 218.132 305.116 222.298 301.663ZM239.436 286.957L235.002 278.646C233.026 274.943 230.243 275.559 227.892 277.508C226.269 278.854 224.985 280.839 224.464 283.269L226.698 284.684C227.034 282.945 227.79 281.589 228.9 280.668C230.268 279.534 231.62 279.643 232.317 280.948L233.24 282.68C232.016 282.234 230.5 282.684 229.132 283.818C227.487 285.182 226.154 287.939 227.76 290.949C229.295 293.826 231.978 293.6 233.623 292.236C234.97 291.12 235.861 289.498 236.012 287.875L236.722 289.207L239.436 286.957ZM233.491 289.042C232.423 289.927 231.177 289.961 230.538 288.762C229.87 287.51 230.377 286.091 231.444 285.206C232.321 284.479 233.374 284.144 234.221 284.518L235.074 286.116C235.023 287.234 234.367 288.316 233.491 289.042ZM257.66 271.85L252.7 262.553C251.293 259.915 249.493 259.602 247.591 261.178C246.01 262.489 245.268 264.795 245.295 266.463C244.129 265.316 242.699 265.234 241.182 266.492C239.6 267.802 238.887 270.161 238.871 271.288L237.976 269.61L235.263 271.859L242.127 284.726L244.841 282.477L240.221 273.819C240.244 272.763 240.608 271.309 241.548 270.529C242.659 269.608 243.541 270.107 244.181 271.305L248.516 279.431L251.251 277.164L246.617 268.479C246.632 267.467 246.996 266.013 247.958 265.216C249.069 264.295 249.951 264.793 250.591 265.992L254.926 274.117L257.66 271.85ZM265.343 265.943C266.946 264.615 268.242 262.656 268.643 260.634L266.28 259.441C266.044 260.789 265.082 262.278 264.206 263.005C262.455 264.457 260.683 263.966 259.645 262.483L267.315 256.124L266.918 255.378C264.671 251.169 261.043 250.028 257.966 252.578C254.825 255.182 254.23 260.016 256.22 263.746C258.423 267.875 262.202 268.547 265.343 265.943ZM263.465 256.012L258.38 260.227C257.826 258.842 257.713 256.668 259.402 255.269C261.196 253.781 262.747 254.84 263.465 256.012ZM276.02 257.092C278.884 254.719 279.534 251.606 278.283 249.261C275.512 244.067 270.253 250.73 269.23 248.812C268.846 248.093 269.189 247.002 270.172 246.187C271.432 245.143 272.963 244.834 274.023 245.147L273.876 241.926C272.31 241.763 270.524 242.169 268.772 243.621C266.058 245.87 265.55 249.019 266.701 251.177C269.402 256.239 274.611 249.424 275.747 251.555C276.174 252.355 275.931 253.401 274.756 254.375C273.474 255.438 271.466 255.834 270.249 255.575L270.339 258.92C272.096 259.269 274.226 258.58 276.02 257.092Z" fill="white"/>
<path d="M196.157 276.316L194.557 272.849L188.284 277.343L181.352 262.308L178.192 264.571L186.724 283.073L196.157 276.316ZM203.199 271.714C206.759 269.164 207.411 264.416 205.646 260.588C203.894 256.788 200.274 255.1 196.715 257.65C193.178 260.184 192.526 264.931 194.278 268.732C196.043 272.56 199.662 274.248 203.199 271.714ZM201.754 268.579C199.997 269.838 198.186 268.736 197.215 266.628C196.255 264.548 196.403 262.043 198.16 260.785C199.917 259.526 201.75 260.611 202.71 262.692C203.681 264.8 203.511 267.32 201.754 268.579ZM215.974 262.563C219.533 260.013 220.186 255.266 218.42 251.438C216.668 247.637 213.049 245.949 209.489 248.499C205.952 251.033 205.3 255.781 207.052 259.581C208.818 263.409 212.436 265.097 215.974 262.563ZM214.529 259.428C212.771 260.687 210.961 259.586 209.989 257.477C209.029 255.397 209.177 252.893 210.934 251.634C212.692 250.375 214.524 251.461 215.484 253.541C216.455 255.649 216.286 258.169 214.529 259.428ZM229.905 252.583C232.664 250.607 233.476 246.593 231.417 242.127C229.358 237.661 226.179 236.544 223.42 238.52C222.108 239.46 221.261 241.026 221.039 242.919L220.259 241.227L217.434 243.251L225.965 261.753L228.79 259.729L225.643 252.905C227.151 253.671 228.637 253.492 229.905 252.583ZM227.57 250.086C226.658 250.74 225.292 250.795 224.442 250.298L222.255 245.554C222.325 244.36 223.064 242.945 223.976 242.292C225.6 241.128 227.419 241.929 228.481 244.231C229.555 246.561 229.194 248.923 227.57 250.086ZM240.605 244.918C243.587 242.783 244.398 239.729 243.273 237.288C240.779 231.879 235.184 238.101 234.262 236.104C233.918 235.355 234.316 234.294 235.34 233.561C236.652 232.621 238.196 232.438 239.237 232.835L239.259 229.609C237.705 229.32 235.901 229.579 234.076 230.886C231.251 232.91 230.58 236.011 231.616 238.258C234.046 243.528 239.599 237.152 240.623 239.371C241.006 240.203 240.71 241.228 239.485 242.104C238.151 243.06 236.127 243.292 234.926 242.935L234.841 246.28C236.577 246.771 238.737 246.257 240.605 244.918Z" fill="white"/>
<path d="M145.623 259.514C149.377 256.824 150.089 253.132 148.625 249.959C145.64 243.484 138.503 251.052 137.233 248.296C136.752 247.256 137.138 246.045 138.41 245.134C139.829 244.118 141.606 243.641 143.332 244.134L143.732 240.249C141.624 239.649 139.405 240.132 137.194 241.715C133.92 244.061 133.021 247.888 134.352 250.774C137.362 257.302 144.399 249.458 145.814 252.527C146.27 253.515 145.909 255.019 144.282 256.184C142.363 257.559 140.35 257.583 138.782 257.011L138.47 260.97C140.519 261.682 142.954 261.426 145.623 259.514ZM157.816 250.779C159.88 249.3 160.616 247.286 160.744 245.637L158.089 244.875C157.994 246.051 157.503 247.094 156.586 247.751C154.98 248.902 153.17 248.226 152.163 246.041C151.156 243.857 151.611 241.594 153.217 240.444C154.134 239.786 155.08 239.731 155.967 240.272L156.763 237.003C155.568 236.337 153.801 236.115 151.736 237.595C148.629 239.821 147.656 244.15 149.431 247.999C151.217 251.873 154.708 253.005 157.816 250.779ZM166.036 244.476L162.211 236.18C162.277 235.06 163.157 233.599 164.033 232.972C164.325 232.763 164.587 232.61 164.799 232.527L163.312 229.302C162.061 230.199 161.229 232.005 161.036 233.632L160.244 231.915L157.596 233.813L163.387 246.373L166.036 244.476ZM179.599 234.76L175.858 226.646C174.191 223.031 171.558 223.396 169.263 225.039C167.678 226.175 166.381 227.934 165.774 230.168L167.795 231.661C168.194 230.061 168.967 228.849 170.051 228.073C171.386 227.116 172.646 227.321 173.233 228.595L174.013 230.286C172.89 229.776 171.45 230.081 170.115 231.037C168.509 232.188 167.126 234.665 168.481 237.604C169.776 240.413 172.298 240.405 173.903 239.255C175.217 238.314 176.131 236.864 176.351 235.357L176.951 236.657L179.599 234.76ZM173.936 236.257C172.893 237.004 171.726 236.94 171.187 235.77C170.623 234.547 171.167 233.259 172.21 232.512C173.064 231.899 174.066 231.666 174.841 232.08L175.56 233.64C175.457 234.682 174.791 235.644 173.936 236.257ZM185.749 230.769C186.855 229.978 187.396 229.106 187.588 228.38L185.874 226.286C185.812 226.573 185.521 227.024 185.124 227.308C184.54 227.726 183.931 227.367 183.571 226.587L180.957 220.918L183.001 219.454L181.67 216.567L179.626 218.031L178.043 214.598L175.374 216.511L176.956 219.943L175.288 221.139L176.619 224.025L178.287 222.83L181.309 229.383C182.34 231.62 183.893 232.099 185.749 230.769ZM194.11 224.78C196.175 223.301 196.911 221.286 197.039 219.638L194.384 218.876C194.288 220.051 193.798 221.094 192.88 221.752C191.274 222.902 189.465 222.227 188.457 220.042C187.45 217.858 187.905 215.595 189.511 214.444C190.429 213.787 191.375 213.732 192.262 214.273L193.057 211.004C191.863 210.338 190.096 210.116 188.031 211.595C184.923 213.821 183.951 218.15 185.725 221.999C187.512 225.874 191.003 227.006 194.11 224.78ZM209.15 213.591L205.037 204.671C203.91 202.227 202.151 201.48 199.94 203.064C198.292 204.244 197.497 206.129 197.294 207.554L194.332 201.131L191.683 203.028L199.682 220.374L202.33 218.477L198.433 210.025C198.544 208.942 199.022 207.631 200.044 206.899C201.191 206.077 202.173 206.101 202.976 207.843L206.502 215.489L209.15 213.591Z" fill="white"/>
<path d="M331.344 333.578C331.705 334.352 331.827 335.102 331.708 335.826C331.589 336.545 331.238 337.183 330.655 337.74C330.023 338.343 329.345 338.543 328.62 338.338C327.898 338.132 327.25 337.551 326.676 336.597L326.287 335.951C325.911 335.327 325.669 334.693 325.56 334.051C325.454 333.406 325.488 332.802 325.662 332.239C325.834 331.672 326.134 331.185 326.562 330.775C327.131 330.233 327.706 329.998 328.29 330.07C328.872 330.14 329.403 330.5 329.883 331.151L329.174 331.828C328.791 331.351 328.424 331.091 328.074 331.047C327.726 331.001 327.369 331.154 327.002 331.505C326.551 331.935 326.323 332.482 326.318 333.146C326.315 333.808 326.545 334.525 327.01 335.297L327.402 335.948C327.841 336.677 328.311 337.142 328.813 337.341C329.314 337.54 329.783 337.431 330.219 337.015C330.611 336.641 330.844 336.244 330.919 335.823C330.994 335.398 330.899 334.875 330.635 334.256L331.344 333.578ZM331.776 332.519C331.482 332.029 331.293 331.517 331.21 330.981C331.129 330.443 331.161 329.938 331.304 329.466C331.451 328.992 331.699 328.587 332.05 328.253C332.591 327.736 333.17 327.554 333.786 327.707C334.405 327.857 334.95 328.323 335.419 329.104L335.455 329.164C335.748 329.651 335.936 330.159 336.021 330.689C336.105 331.214 336.074 331.717 335.927 332.196C335.782 332.674 335.531 333.083 335.173 333.425C334.634 333.939 334.056 334.121 333.437 333.971C332.82 333.818 332.279 333.354 331.813 332.579L331.776 332.519ZM332.52 331.968C332.854 332.522 333.223 332.869 333.628 333.01C334.036 333.149 334.411 333.055 334.754 332.728C335.099 332.398 335.272 331.967 335.271 331.434C335.269 330.898 335.083 330.324 334.715 329.712C334.385 329.164 334.015 328.821 333.603 328.681C333.191 328.536 332.815 328.627 332.472 328.954C332.136 329.275 331.966 329.701 331.962 330.233C331.959 330.765 332.144 331.343 332.52 331.968ZM336.085 328.411C335.623 327.645 335.398 326.892 335.407 326.151C335.415 325.408 335.652 324.812 336.12 324.366C336.585 323.921 337.074 323.769 337.586 323.91L336.021 321.306L336.7 320.657L340.965 327.747L340.341 328.343L339.986 327.84C339.966 328.518 339.713 329.088 339.229 329.551C338.768 329.991 338.25 330.113 337.673 329.918C337.099 329.72 336.583 329.239 336.123 328.476L336.085 328.411ZM336.822 327.859C337.163 328.426 337.523 328.78 337.901 328.922C338.28 329.064 338.633 328.979 338.961 328.665C339.392 328.254 339.561 327.71 339.467 327.034L338.087 324.74C337.6 324.464 337.146 324.527 336.724 324.929C336.392 325.247 336.229 325.656 336.238 326.157C336.246 326.658 336.441 327.226 336.822 327.859ZM342.762 326.031L342.082 326.68L339.077 321.686L339.757 321.037L342.762 326.031ZM338.225 320.414C338.142 320.276 338.105 320.127 338.113 319.969C338.124 319.808 338.196 319.664 338.329 319.538C338.461 319.412 338.59 319.364 338.716 319.393C338.842 319.423 338.947 319.508 339.029 319.646C339.113 319.784 339.148 319.933 339.135 320.09C339.122 320.248 339.049 320.39 338.917 320.517C338.785 320.643 338.657 320.693 338.533 320.666C338.411 320.637 338.309 320.553 338.225 320.414ZM341.491 319.381L341.891 319.988C341.906 319.218 342.158 318.599 342.647 318.131C343.488 317.329 344.269 317.52 344.993 318.704L346.979 322.004L346.3 322.653L344.311 319.348C344.092 318.99 343.866 318.787 343.632 318.739C343.401 318.688 343.15 318.793 342.877 319.052C342.658 319.263 342.509 319.522 342.431 319.828C342.353 320.135 342.34 320.453 342.392 320.782L344.533 324.34L343.853 324.989L340.848 319.995L341.491 319.381ZM346.315 318.641C345.846 317.862 345.618 317.107 345.628 316.375C345.637 315.64 345.877 315.046 346.35 314.595C346.835 314.132 347.343 313.986 347.874 314.157L347.574 313.572L348.195 312.979L351.128 317.853C351.516 318.499 351.67 319.154 351.588 319.819C351.508 320.481 351.211 321.058 350.697 321.549C350.41 321.823 350.084 322.014 349.717 322.122C349.349 322.23 349.014 322.219 348.708 322.089L348.752 321.24C349.316 321.414 349.809 321.3 350.23 320.898C350.56 320.582 350.747 320.22 350.79 319.81C350.836 319.399 350.73 318.981 350.475 318.556L350.217 318.127C350.182 318.78 349.929 319.331 349.459 319.781C348.994 320.225 348.475 320.35 347.902 320.155C347.333 319.958 346.803 319.453 346.315 318.641ZM347.057 318.085C347.395 318.648 347.753 319.004 348.132 319.151C348.508 319.296 348.861 319.21 349.192 318.895C349.62 318.485 349.788 317.94 349.694 317.259L348.322 314.979C347.827 314.701 347.372 314.761 346.956 315.158C346.625 315.474 346.463 315.882 346.472 316.383C346.48 316.884 346.675 317.451 347.057 318.085Z" fill="white"/>
<path d="M255.804 313.961L252.466 308.198L255.782 305.214C258.59 302.686 258.756 298.875 257.122 296.054C255.474 293.209 252.554 292.213 249.725 294.758L243.64 300.234L253.035 316.453L255.804 313.961ZM253.65 302.508L250.706 305.158L248.17 300.781L251.115 298.131C252.207 297.148 253.505 297.237 254.294 298.599C255.069 299.936 254.743 301.525 253.65 302.508ZM267.478 310.447C267.847 310.263 268.513 309.774 268.805 309.511C270.396 308.006 271.307 306.299 270.727 303.454L267.238 285.804L264.566 288.208L266.841 298.59L259.651 292.632L256.998 295.019L267.723 303.494L267.95 304.807C268.082 305.649 267.779 306.254 267.135 306.834C266.901 307.044 266.528 307.27 266.243 307.341L267.478 310.447ZM278.476 294.002C279.51 293.071 279.975 292.134 280.107 291.387L278.228 289.527C278.19 289.82 277.937 290.306 277.567 290.639C277.021 291.131 276.385 290.852 275.962 290.123L272.892 284.822L274.803 283.102L273.24 280.403L271.328 282.123L269.468 278.913L266.972 281.16L268.832 284.37L267.271 285.774L268.834 288.473L270.395 287.069L273.944 293.197C275.156 295.288 276.74 295.564 278.476 294.002ZM290.593 282.653L285.761 274.313C284.437 272.027 282.626 271.512 280.558 273.373C279.017 274.759 278.382 276.736 278.298 278.18L274.82 272.174L272.342 274.403L281.737 290.622L284.215 288.393L279.637 280.49C279.657 279.399 280.023 278.034 280.979 277.173C282.052 276.208 283.031 276.104 283.974 277.734L288.116 284.883L290.593 282.653ZM297.589 276.8C300.71 273.992 300.948 269.486 299.005 266.13C297.075 262.799 293.569 261.663 290.448 264.472C287.347 267.263 287.109 271.769 289.038 275.1C290.982 278.456 294.488 279.591 297.589 276.8ZM295.998 274.053C294.457 275.439 292.683 274.631 291.613 272.783C290.556 270.959 290.499 268.606 292.04 267.22C293.581 265.833 295.374 266.624 296.43 268.447C297.501 270.295 297.539 272.666 295.998 274.053ZM313.087 262.41L308.284 254.118C306.959 251.832 305.119 251.268 303.052 253.129C301.511 254.516 300.895 256.475 300.812 257.919L299.925 256.387L297.448 258.616L304.251 270.361L306.728 268.132L302.15 260.229C302.152 259.155 302.518 257.79 303.493 256.912C304.546 255.964 305.553 255.909 306.497 257.539L310.609 264.639L313.087 262.41Z" fill="white"/>
<path d="M318.69 324.71L308.888 317.295L306.628 319.469L309.893 333.177L311.949 331.198L311.374 328.896L315.005 325.402L316.633 326.69L318.69 324.71ZM313.285 323.901L310.644 326.442L309.151 320.629L313.285 323.901ZM323.055 320.812C324.63 319.297 324.86 316.726 323.282 314.178C321.703 311.63 319.658 311.274 318.085 312.789C317.336 313.51 316.918 314.569 316.908 315.764L316.31 314.799L314.698 316.351L321.238 326.906L322.85 325.355L320.438 321.462C321.424 321.777 322.332 321.509 323.055 320.812ZM321.44 319.513C320.919 320.014 320.078 320.192 319.516 319.974L317.84 317.268C317.803 316.521 318.164 315.567 318.685 315.066C319.611 314.174 320.792 314.477 321.606 315.791C322.43 317.12 322.366 318.621 321.44 319.513ZM330.456 313.689C332.03 312.175 332.261 309.603 330.682 307.055C329.104 304.507 327.059 304.151 325.486 305.666C324.736 306.387 324.318 307.446 324.31 308.642L323.712 307.676L322.099 309.228L328.639 319.784L330.251 318.232L327.839 314.339C328.824 314.654 329.732 314.386 330.456 313.689ZM328.841 312.39C328.32 312.891 327.478 313.069 326.918 312.851L325.241 310.145C325.204 309.398 325.565 308.444 326.085 307.943C327.012 307.051 328.193 307.354 329.007 308.668C329.83 309.997 329.767 311.498 328.841 312.39ZM336.562 307.813C338.263 306.176 338.558 304.199 337.695 302.806C335.784 299.72 332.742 304.164 332.035 303.025C331.771 302.597 331.946 301.898 332.53 301.336C333.279 300.616 334.222 300.339 334.894 300.476L334.688 298.476C333.707 298.461 332.607 298.812 331.567 299.814C329.954 301.365 329.749 303.356 330.543 304.638C332.406 307.645 335.411 303.11 336.196 304.376C336.49 304.851 336.376 305.517 335.678 306.189C334.916 306.922 333.678 307.279 332.91 307.184L333.085 309.265C334.193 309.386 335.496 308.839 336.562 307.813Z" fill="white"/>
</g>
<defs>
<clipPath id="clip0_2577_77915">
<rect width="380" height="350" fill="white" transform="translate(0.5 0.161621)"/>
</clipPath>
</defs>
</svg>
