<svg width="100" height="101" viewBox="0 0 100 101" fill="none" xmlns="http://www.w3.org/2000/svg">
<path opacity="0.2" d="M87.5 68.9115C87.4991 72.4145 86.517 75.8471 84.6649 78.8204C82.8127 81.7937 80.1647 84.1887 77.021 85.7339C73.8773 87.2791 70.3636 87.9128 66.8781 87.5631C63.3927 87.2134 60.0749 85.8943 57.3008 83.7553C51.6769 84.971 45.8378 84.7567 40.3181 83.1321C34.7984 81.5074 29.7744 78.5243 25.7058 74.4557C21.6372 70.3872 18.6541 65.3631 17.0294 59.8434C15.4048 54.3237 15.1905 48.4847 16.4063 42.8607C13.6317 39.252 12.2647 34.7572 12.5602 30.2148C12.8557 25.6724 14.7936 21.3927 18.0124 18.1739C21.2312 14.9551 25.5109 13.0172 30.0533 12.7217C34.5957 12.4262 39.0905 13.7932 42.6992 16.5678C48.3232 15.352 54.1622 15.5663 59.6819 17.1909C65.2016 18.8156 70.2257 21.7987 74.2942 25.8673C78.3628 29.9359 81.3459 34.9599 82.9706 40.4796C84.5952 45.9993 84.8095 51.8384 83.5938 57.4623C86.1311 60.739 87.5055 64.7672 87.5 68.9115Z" fill="black"/>
<path d="M65.625 59.5365C65.625 66.4271 58.6172 72.0365 50 72.0365C41.3828 72.0365 34.375 66.4271 34.375 59.5365C34.375 58.7077 34.7043 57.9129 35.2903 57.3268C35.8764 56.7408 36.6712 56.4115 37.5 56.4115C38.3288 56.4115 39.1237 56.7408 39.7097 57.3268C40.2958 57.9129 40.625 58.7077 40.625 59.5365C40.625 62.9232 44.9219 65.7865 50 65.7865C55.0781 65.7865 59.375 62.9232 59.375 59.5365C59.375 55.8334 56.0117 54.4584 48.875 52.4037C42.7227 50.6303 35.0703 48.4232 35.0703 40.7865C35.0703 33.6615 41.4883 28.2865 50 28.2865C56.1406 28.2865 61.3984 31.1381 63.7188 35.7084C63.919 36.0758 64.0434 36.4797 64.0846 36.896C64.1257 37.3124 64.0829 37.7328 63.9586 38.1323C63.8342 38.5319 63.6309 38.9023 63.3607 39.2218C63.0905 39.5413 62.7589 39.8032 62.3856 39.9921C62.0122 40.181 61.6047 40.293 61.1873 40.3215C60.7698 40.3499 60.3509 40.2943 59.9554 40.1578C59.5599 40.0213 59.1958 39.8068 58.8847 39.5269C58.5737 39.2471 58.322 38.9076 58.1446 38.5287C56.8906 36.0756 53.7696 34.5365 50 34.5365C45.0508 34.5365 41.3203 37.224 41.3203 40.7865C41.3203 43.5209 44.836 44.7318 50.6055 46.3959C56.9453 48.2084 65.625 50.7279 65.625 59.5365ZM90.625 68.9115C90.6188 74.7112 88.3121 80.2716 84.2111 84.3726C80.1101 88.4736 74.5497 90.7803 68.75 90.7865C64.4123 90.802 60.1702 89.5132 56.5742 87.0873C50.6288 88.1391 44.5174 87.7411 38.7585 85.9272C32.9997 84.1132 27.7634 80.9368 23.4941 76.6674C19.2248 72.3981 16.0483 67.1618 14.2344 61.403C12.4204 55.6442 12.0224 49.5327 13.0742 43.5873C10.6483 39.9914 9.35949 35.7492 9.37502 31.4115C9.38122 25.6118 11.6879 20.0514 15.7889 15.9504C19.8899 11.8494 25.4503 9.54272 31.25 9.53652C35.5877 9.52099 39.8299 10.8098 43.4258 13.2357C49.3712 12.1839 55.4827 12.5819 61.2415 14.3959C67.0003 16.2098 72.2366 19.3863 76.5059 23.6556C80.7753 27.9249 83.9517 33.1612 85.7657 38.92C87.5796 44.6789 87.9776 50.7903 86.9258 56.7357C89.3517 60.3317 90.6405 64.5738 90.625 68.9115ZM84.375 68.9115C84.3868 65.4582 83.2428 62.1002 81.125 59.3725C80.8466 59.0123 80.6503 58.5956 80.5498 58.1517C80.4493 57.7077 80.4469 57.2471 80.543 56.8021C81.6493 51.6884 81.4551 46.3789 79.9782 41.3597C78.5013 36.3404 75.7888 31.7719 72.0892 28.0723C68.3897 24.3727 63.8211 21.6603 58.8019 20.1834C53.7826 18.7065 48.4731 18.5123 43.3594 19.6185C42.9144 19.7146 42.4539 19.7123 42.0099 19.6117C41.5659 19.5112 41.1493 19.3149 40.7891 19.0365C38.0613 16.9188 34.7033 15.7747 31.25 15.7865C27.106 15.7865 23.1317 17.4327 20.2015 20.363C17.2712 23.2932 15.625 27.2675 15.625 31.4115C15.6132 34.8648 16.7573 38.2228 18.875 40.9506C19.1534 41.3108 19.3497 41.7274 19.4502 42.1714C19.5508 42.6154 19.5531 43.0759 19.457 43.5209C18.3508 48.6346 18.545 53.9441 20.0219 58.9634C21.4988 63.9826 24.2112 68.5512 27.9108 72.2507C31.6104 75.9503 36.1789 78.6628 41.1982 80.1397C46.2174 81.6166 51.5269 81.8108 56.6406 80.7045C57.0856 80.6084 57.5462 80.6108 57.9902 80.7113C58.4341 80.8118 58.8508 81.0081 59.211 81.2865C61.9387 83.4043 65.2967 84.5483 68.75 84.5365C72.894 84.5365 76.8683 82.8903 79.7986 79.9601C82.7288 77.0298 84.375 73.0555 84.375 68.9115Z" fill="#0063B0"/>
</svg>
