<svg width="50" height="51" viewBox="0 0 50 51" fill="none" xmlns="http://www.w3.org/2000/svg">
<path opacity="0.2" d="M43.75 34.5366C43.7496 36.288 43.2585 38.0044 42.3324 39.491C41.4064 40.9777 40.0824 42.1752 38.5105 42.9478C36.9386 43.7204 35.1818 44.0372 33.4391 43.8624C31.6963 43.6875 30.0374 43.0279 28.6504 41.9584C25.8384 42.5663 22.9189 42.4592 20.1591 41.6469C17.3992 40.8345 14.8872 39.343 12.8529 37.3087C10.8186 35.2744 9.32704 32.7624 8.51472 30.0025C7.7024 27.2427 7.59527 24.3231 8.20313 21.5112C6.81585 19.7068 6.13234 17.4594 6.28011 15.1882C6.42787 12.917 7.39682 10.7771 9.0062 9.16776C10.6156 7.55838 12.7555 6.58943 15.0267 6.44167C17.2979 6.2939 19.5453 6.97741 21.3496 8.36469C24.1616 7.75683 27.0811 7.86396 29.841 8.67628C32.6008 9.4886 35.1128 10.9802 37.1471 13.0145C39.1814 15.0487 40.673 17.5608 41.4853 20.3206C42.2976 23.0805 42.4047 26 41.7969 28.812C43.0656 30.4503 43.7527 32.4644 43.75 34.5366Z" fill="black"/>
<path d="M32.8125 29.8492C32.8125 33.2945 29.3086 36.0992 25 36.0992C20.6914 36.0992 17.1875 33.2945 17.1875 29.8492C17.1875 29.4348 17.3521 29.0374 17.6452 28.7443C17.9382 28.4513 18.3356 28.2867 18.75 28.2867C19.1644 28.2867 19.5618 28.4513 19.8549 28.7443C20.1479 29.0374 20.3125 29.4348 20.3125 29.8492C20.3125 31.5425 22.4609 32.9742 25 32.9742C27.5391 32.9742 29.6875 31.5425 29.6875 29.8492C29.6875 27.9976 28.0059 27.3101 24.4375 26.2828C21.3613 25.3961 17.5352 24.2926 17.5352 20.4742C17.5352 16.9117 20.7441 14.2242 25 14.2242C28.0703 14.2242 30.6992 15.65 31.8594 17.9351C31.9595 18.1188 32.0217 18.3208 32.0423 18.529C32.0629 18.7371 32.0415 18.9474 31.9793 19.1471C31.9171 19.3469 31.8155 19.5321 31.6804 19.6918C31.5453 19.8516 31.3794 19.9825 31.1928 20.077C31.0061 20.1714 30.8024 20.2274 30.5936 20.2417C30.3849 20.2559 30.1755 20.2281 29.9777 20.1598C29.7799 20.0916 29.5979 19.9843 29.4424 19.8444C29.2868 19.7045 29.161 19.5348 29.0723 19.3453C28.4453 18.1187 26.8848 17.3492 25 17.3492C22.5254 17.3492 20.6602 18.6929 20.6602 20.4742C20.6602 21.8414 22.418 22.4468 25.3027 23.2789C28.4727 24.1851 32.8125 25.4449 32.8125 29.8492ZM45.3125 34.5367C45.3094 37.4365 44.1561 40.2167 42.1056 42.2672C40.0551 44.3178 37.2749 45.4711 34.375 45.4742C32.2062 45.482 30.0851 44.8375 28.2871 43.6246C25.3144 44.1505 22.2587 43.9515 19.3793 43.0445C16.4998 42.1375 13.8817 40.5493 11.7471 38.4146C9.61238 36.28 8.02417 33.6618 7.11718 30.7824C6.2102 27.903 6.01122 24.8473 6.53712 21.8746C5.32417 20.0766 4.67974 17.9555 4.68751 15.7867C4.69061 12.8868 5.84395 10.1066 7.89445 8.05614C9.94496 6.00563 12.7252 4.85229 15.625 4.84919C17.7938 4.84143 19.9149 5.48585 21.7129 6.6988C24.6856 6.1729 27.7413 6.37188 30.6208 7.27886C33.5002 8.18585 36.1183 9.77406 38.253 11.9087C40.3876 14.0434 41.9758 16.6615 42.8828 19.5409C43.7898 22.4204 43.9888 25.4761 43.4629 28.4488C44.6758 30.2468 45.3203 32.3679 45.3125 34.5367ZM42.1875 34.5367C42.1934 32.81 41.6214 31.131 40.5625 29.7672C40.4233 29.5871 40.3252 29.3787 40.2749 29.1568C40.2246 28.9348 40.2235 28.7045 40.2715 28.482C40.8246 25.9251 40.7275 23.2704 39.9891 20.7608C39.2506 18.2511 37.8944 15.9669 36.0446 14.1171C34.1948 12.2673 31.9106 10.9111 29.4009 10.1726C26.8913 9.43417 24.2366 9.33707 21.6797 9.89021C21.4572 9.93823 21.2269 9.93707 21.0049 9.8868C20.783 9.83653 20.5746 9.73837 20.3945 9.59919C19.0307 8.54032 17.3517 7.96828 15.625 7.97419C13.553 7.97419 11.5659 8.79729 10.1007 10.2624C8.63561 11.7275 7.81251 13.7147 7.81251 15.7867C7.8066 17.5134 8.37864 19.1923 9.43751 20.5562C9.57669 20.7363 9.67485 20.9446 9.72512 21.1666C9.77538 21.3886 9.77655 21.6189 9.72852 21.8414C9.17538 24.3982 9.27248 27.053 10.0109 29.5626C10.7494 32.0722 12.1056 34.3565 13.9554 36.2063C15.8052 38.0561 18.0895 39.4123 20.5991 40.1508C23.1087 40.8892 25.7635 40.9863 28.3203 40.4332C28.5428 40.3852 28.7731 40.3863 28.9951 40.4366C29.2171 40.4868 29.4254 40.585 29.6055 40.7242C30.9694 41.7831 32.6483 42.3551 34.375 42.3492C36.447 42.3492 38.4342 41.5261 39.8993 40.061C41.3644 38.5958 42.1875 36.6087 42.1875 34.5367Z" fill="#0063B0"/>
</svg>
