<svg width="150" height="151" viewBox="0 0 150 151" fill="none" xmlns="http://www.w3.org/2000/svg">
<path d="M135.806 150.162C133.671 150.161 131.564 149.781 129.643 149.051C127.72 148.32 126.032 147.257 124.703 145.942C120.591 142.447 88.8162 117.877 69.3452 102.897C67.9976 101.875 66.9204 100.653 66.1754 99.3007C65.4305 97.9494 65.0326 96.4949 65.0046 95.0217C64.9768 93.5485 65.3193 92.0853 66.0126 90.7166C66.706 89.3478 67.7365 88.101 69.0447 87.0469C70.3528 85.9936 71.9129 85.1538 73.635 84.5766C75.3571 83.9994 77.2072 83.6967 79.0788 83.6847C80.9504 83.6726 82.8065 83.9525 84.5401 84.5076C86.2739 85.0635 87.8506 85.8831 89.1801 86.9204C89.319 87.0275 103.342 97.8175 117.261 108.596L121.622 111.974V59.5067C121.622 39.1025 100.708 22.5023 75 22.5023C49.2921 22.5023 28.3784 39.1025 28.3784 59.5067V138.991C28.3784 141.954 26.8834 144.795 24.2224 146.89C21.5615 148.984 17.9524 150.161 14.1891 150.161C10.4259 150.161 6.8169 148.984 4.15591 146.89C1.49493 144.795 0 141.954 0 138.991V59.5067C0 26.7838 33.6447 0.162109 75 0.162109C116.355 0.162109 150 26.7838 150 59.5067V138.991C149.998 141.954 148.503 144.795 145.841 146.89C143.179 148.985 139.57 150.161 135.806 150.162Z" fill="url(#paint0_linear_2622_135036)"/>
<path d="M75.0008 70.2437C83.9569 70.2437 91.217 64.5285 91.217 57.4779C91.217 50.4275 83.9569 44.7119 75.0008 44.7119C66.0447 44.7119 58.7844 50.4275 58.7844 57.4779C58.7844 64.5285 66.0447 70.2437 75.0008 70.2437Z" fill="url(#paint1_linear_2622_135036)"/>
<defs>
<linearGradient id="paint0_linear_2622_135036" x1="75" y1="151.962" x2="75" y2="0.612103" gradientUnits="userSpaceOnUse">
<stop stop-color="#00C0F4"/>
<stop offset="1" stop-color="#12ECA0"/>
</linearGradient>
<linearGradient id="paint1_linear_2622_135036" x1="75.0008" y1="151.921" x2="75.0008" y2="0.592445" gradientUnits="userSpaceOnUse">
<stop stop-color="#00C0F4"/>
<stop offset="1" stop-color="#12ECA0"/>
</linearGradient>
</defs>
</svg>
