<svg width="50" height="51" viewBox="0 0 50 51" fill="none" xmlns="http://www.w3.org/2000/svg">
<path opacity="0.2" d="M43.75 12.6616L25 18.9116L6.25 12.6616L25 6.41162L43.75 12.6616Z" fill="black"/>
<path d="M44.2441 11.1793L25.4941 4.92932C25.1734 4.82239 24.8266 4.82239 24.5059 4.92932L5.75586 11.1793C5.47226 11.275 5.2221 11.4501 5.03512 11.6838C4.84815 11.9175 4.73224 12.2 4.70117 12.4977C4.69201 12.5519 4.68743 12.6068 4.6875 12.6617V28.2867C4.6875 28.7011 4.85212 29.0986 5.14515 29.3916C5.43817 29.6846 5.8356 29.8492 6.25 29.8492C6.6644 29.8492 7.06183 29.6846 7.35485 29.3916C7.64788 29.0986 7.8125 28.7011 7.8125 28.2867V14.8297L14.373 17.0153C12.63 19.8313 12.0757 23.2239 12.8319 26.4483C13.5881 29.6726 15.5929 32.4651 18.4063 34.2125C14.8906 35.5914 11.8516 38.0856 9.62891 41.4957C9.51331 41.6675 9.43302 41.8606 9.3927 42.0637C9.35238 42.2668 9.35283 42.4759 9.39403 42.6788C9.43523 42.8818 9.51635 43.0745 9.63269 43.2458C9.74902 43.4171 9.89824 43.5636 10.0717 43.6767C10.2451 43.7898 10.4393 43.8673 10.643 43.9047C10.8466 43.9422 11.0557 43.9387 11.258 43.8946C11.4604 43.8505 11.6519 43.7666 11.8215 43.6479C11.9911 43.5291 12.1355 43.3778 12.2461 43.2028C15.1895 38.6871 19.8379 36.0992 25 36.0992C30.1621 36.0992 34.8105 38.6871 37.7539 43.2028C37.9831 43.5434 38.3371 43.7801 38.7394 43.8618C39.1417 43.9435 39.56 43.8635 39.9039 43.6392C40.2477 43.415 40.4895 43.0644 40.5769 42.6633C40.6644 42.2622 40.5904 41.8428 40.3711 41.4957C38.1484 38.0856 35.0977 35.5914 31.5937 34.2125C34.4044 32.4652 36.4073 29.6745 37.1634 26.4525C37.9194 23.2305 37.3669 19.8402 35.627 17.025L44.2441 14.1539C44.5553 14.0503 44.826 13.8513 45.0178 13.5852C45.2096 13.3192 45.3128 12.9995 45.3128 12.6715C45.3128 12.3435 45.2096 12.0238 45.0178 11.7578C44.826 11.4917 44.5553 11.2927 44.2441 11.1891V11.1793ZM34.375 23.5992C34.3754 25.0814 34.0244 26.5425 33.3508 27.8627C32.6772 29.1829 31.7002 30.3246 30.4999 31.1941C29.2996 32.0636 27.9102 32.6362 26.4458 32.8647C24.9814 33.0933 23.4837 32.9714 22.0755 32.5091C20.6673 32.0467 19.3888 31.2571 18.3449 30.2049C17.301 29.1528 16.5214 27.8682 16.0701 26.4564C15.6189 25.0446 15.5087 23.546 15.7488 22.0834C15.9889 20.6208 16.5723 19.236 17.4512 18.0426L24.5059 20.3863C24.8266 20.4933 25.1734 20.4933 25.4941 20.3863L32.5488 18.0426C33.7359 19.652 34.3759 21.5994 34.375 23.5992ZM25 17.2653L11.1914 12.6617L25 8.05822L38.8086 12.6617L25 17.2653Z" fill="black"/>
</svg>
