<svg width="100" height="101" viewBox="0 0 100 101" fill="none" xmlns="http://www.w3.org/2000/svg">
<path opacity="0.2" d="M87.5 25.1616L50 37.6616L12.5 25.1616L50 12.6616L87.5 25.1616Z" fill="black"/>
<path d="M88.4883 22.1968L50.9883 9.69676C50.3468 9.48291 49.6532 9.48291 49.0117 9.69676L11.5117 22.1968C10.9445 22.3881 10.4442 22.7383 10.0702 23.2057C9.69631 23.6731 9.46448 24.2381 9.40235 24.8335C9.38401 24.9419 9.37486 25.0517 9.375 25.1616V56.4116C9.375 57.2404 9.70424 58.0353 10.2903 58.6213C10.8763 59.2074 11.6712 59.5366 12.5 59.5366C13.3288 59.5366 14.1237 59.2074 14.7097 58.6213C15.2958 58.0353 15.625 57.2404 15.625 56.4116V29.4975L28.7461 33.8686C25.26 39.5007 24.1514 46.286 25.6638 52.7347C27.1762 59.1834 31.1859 64.7683 36.8125 68.2632C29.7813 71.021 23.7031 76.0093 19.2578 82.8296C19.0266 83.1732 18.866 83.5593 18.7854 83.9655C18.7048 84.3717 18.7057 84.7899 18.7881 85.1958C18.8705 85.6017 19.0327 85.9871 19.2654 86.3297C19.498 86.6723 19.7965 86.9653 20.1434 87.1915C20.4903 87.4178 20.8786 87.5728 21.286 87.6476C21.6933 87.7225 22.1114 87.7156 22.5161 87.6274C22.9207 87.5392 23.3038 87.3714 23.643 87.1339C23.9823 86.8963 24.2709 86.5937 24.4922 86.2436C30.3789 77.2124 39.6758 72.0366 50 72.0366C60.3242 72.0366 69.6211 77.2124 75.5078 86.2436C75.9662 86.9249 76.6742 87.3983 77.4788 87.5617C78.2835 87.725 79.1201 87.5652 79.8078 87.1166C80.4955 86.6681 80.979 85.9669 81.1539 85.1647C81.3287 84.3624 81.1808 83.5236 80.7422 82.8296C76.2969 76.0093 70.1953 71.021 63.1875 68.2632C68.8087 64.7684 72.8146 59.1871 74.3267 52.7432C75.8389 46.2992 74.7338 39.5186 71.2539 33.8882L88.4883 28.146C89.1107 27.9387 89.652 27.5408 90.0356 27.0086C90.4193 26.4765 90.6257 25.8371 90.6257 25.1811C90.6257 24.5251 90.4193 23.8858 90.0356 23.3537C89.652 22.8215 89.1107 22.4236 88.4883 22.2163V22.1968ZM68.75 47.0366C68.7508 50.0009 68.0489 52.9231 66.7016 55.5636C65.3544 58.204 63.4003 60.4874 60.9997 62.2264C58.5991 63.9654 55.8204 65.1105 52.8916 65.5676C49.9628 66.0248 46.9673 65.781 44.151 64.8563C41.3346 63.9316 38.7776 62.3523 36.6898 60.248C34.602 58.1438 33.0428 55.5745 32.1403 52.7509C31.2377 49.9274 31.0175 46.9301 31.4976 44.005C31.9777 41.0798 33.1446 38.3102 34.9023 35.9233L49.0117 40.6108C49.6532 40.8247 50.3468 40.8247 50.9883 40.6108L65.0977 35.9233C67.4718 39.1421 68.7519 43.037 68.75 47.0366ZM50 34.3686L22.3828 25.1616L50 15.9546L77.6172 25.1616L50 34.3686Z" fill="black"/>
</svg>
