<svg width="19" height="19" viewBox="0 0 19 19" fill="none" xmlns="http://www.w3.org/2000/svg">
<g clip-path="url(#clip0_2635_1564)">
<path d="M17 8.47152V9.16152C16.9991 10.7788 16.4754 12.3525 15.507 13.6479C14.5386 14.9433 13.1775 15.8909 11.6265 16.3494C10.0756 16.808 8.41794 16.7529 6.90085 16.1925C5.38376 15.632 4.08849 14.5961 3.20822 13.2393C2.32795 11.8825 1.90984 10.2776 2.01626 8.66376C2.12267 7.04994 2.74791 5.51376 3.79871 4.28432C4.84951 3.05488 6.26959 2.19806 7.84714 1.84163C9.42469 1.4852 11.0752 1.64827 12.5525 2.30652" stroke="#8A35BC" stroke-width="1.5" stroke-linecap="round" stroke-linejoin="round"/>
<path d="M17 3.16162L9.5 10.6691L7.25 8.41912" stroke="#8A35BC" stroke-width="1.5" stroke-linecap="round" stroke-linejoin="round"/>
</g>
<defs>
<clipPath id="clip0_2635_1564">
<rect width="18" height="18" fill="white" transform="translate(0.5 0.161621)"/>
</clipPath>
</defs>
</svg>
