<svg width="24" height="24" viewBox="0 0 24 24" fill="none" xmlns="http://www.w3.org/2000/svg">
<g clip-path="url(#clip0_2519_328830)">
<path opacity="0.2" d="M21 12C21.0013 13.2621 20.7365 14.5104 20.2228 15.6633C19.7091 16.8162 18.9581 17.8479 18.0188 18.6909C17.454 17.5801 16.5927 16.6472 15.5304 15.9958C14.4681 15.3443 13.2462 14.9996 12 15C12.7417 15 13.4667 14.78 14.0834 14.368C14.7001 13.9559 15.1807 13.3702 15.4646 12.685C15.7484 11.9998 15.8226 11.2458 15.6779 10.5184C15.5333 9.79095 15.1761 9.12276 14.6517 8.59831C14.1272 8.07387 13.459 7.71671 12.7316 7.57202C12.0042 7.42732 11.2502 7.50159 10.5649 7.78541C9.87972 8.06924 9.29405 8.54989 8.88199 9.16657C8.46994 9.78326 8.25 10.5083 8.25 11.25C8.25 12.2445 8.64509 13.1984 9.34835 13.9016C10.0516 14.6049 11.0054 15 12 15C10.7538 14.9996 9.5319 15.3443 8.46958 15.9958C7.40725 16.6472 6.54601 17.5801 5.98125 18.6909C4.86586 17.6876 4.01896 16.4215 3.51756 15.0075C3.01615 13.5936 2.87615 12.0767 3.11028 10.5949C3.34442 9.11308 3.94526 7.71329 4.85817 6.52281C5.77108 5.33234 6.9671 4.38896 8.33747 3.77845C9.70784 3.16794 11.2091 2.90968 12.7047 3.02714C14.2003 3.14461 15.6428 3.63408 16.9011 4.45103C18.1593 5.26799 19.1934 6.38653 19.9093 7.70492C20.6251 9.02332 21.0001 10.4998 21 12Z" fill="black"/>
<path d="M23.7806 12.5306L21.5306 14.7806C21.4609 14.8504 21.3782 14.9057 21.2871 14.9434C21.1961 14.9812 21.0985 15.0006 20.9999 15.0006C20.9014 15.0006 20.8038 14.9812 20.7127 14.9434C20.6217 14.9057 20.539 14.8504 20.4693 14.7806L18.2193 12.5306C18.0786 12.3899 17.9995 12.199 17.9995 12C17.9995 11.801 18.0786 11.6101 18.2193 11.4694C18.36 11.3286 18.5509 11.2496 18.7499 11.2496C18.949 11.2496 19.1398 11.3286 19.2806 11.4694L20.2499 12.4397V12C20.2508 10.2531 19.6971 8.551 18.6687 7.13892C17.6402 5.72684 16.1901 4.67767 14.5271 4.14254C12.8642 3.60742 11.0743 3.61396 9.41537 4.16123C7.7564 4.7085 6.31397 5.76825 5.29587 7.18781C5.17975 7.34943 5.00419 7.4583 4.8078 7.49047C4.61142 7.52265 4.4103 7.47549 4.24868 7.35938C4.08706 7.24326 3.97819 7.0677 3.94602 6.87131C3.91384 6.67493 3.961 6.4738 4.07712 6.31219C5.28039 4.63455 6.98513 3.38217 8.94576 2.73545C10.9064 2.08874 13.0217 2.08108 14.987 2.71358C16.9522 3.34609 18.666 4.58609 19.8814 6.25497C21.0968 7.92386 21.751 9.93546 21.7499 12V12.4397L22.7193 11.4694C22.86 11.3286 23.0509 11.2496 23.2499 11.2496C23.449 11.2496 23.6398 11.3286 23.7806 11.4694C23.9213 11.6101 24.0003 11.801 24.0003 12C24.0003 12.199 23.9213 12.3899 23.7806 12.5306ZM19.9199 17.6869C18.7163 19.3632 17.0118 20.6145 15.0518 21.2604C13.0918 21.9064 10.9774 21.9138 9.0129 21.2816C7.04842 20.6493 5.33521 19.41 4.1199 17.7421C2.90459 16.0742 2.24985 14.0637 2.24993 12V11.5603L1.28055 12.5306C1.13982 12.6714 0.948952 12.7504 0.749929 12.7504C0.550906 12.7504 0.360034 12.6714 0.219304 12.5306C0.0785733 12.3899 -0.000488281 12.199 -0.000488281 12C-0.000488281 11.801 0.0785733 11.6101 0.219304 11.4694L2.4693 9.21938C2.53896 9.14964 2.62168 9.09432 2.71272 9.05658C2.80377 9.01884 2.90137 8.99941 2.99993 8.99941C3.09849 8.99941 3.19609 9.01884 3.28713 9.05658C3.37818 9.09432 3.4609 9.14964 3.53055 9.21938L5.78055 11.4694C5.92128 11.6101 6.00035 11.801 6.00035 12C6.00035 12.199 5.92128 12.3899 5.78055 12.5306C5.63982 12.6714 5.44895 12.7504 5.24993 12.7504C5.05091 12.7504 4.86003 12.6714 4.7193 12.5306L3.74993 11.5603V12C3.74815 14.0196 4.49041 15.969 5.83493 17.4759C6.6714 16.2638 7.84757 15.3261 9.21555 14.7806C8.48073 14.2019 7.94452 13.4085 7.6815 12.5108C7.41847 11.6132 7.44171 10.6559 7.74798 9.77208C8.05425 8.88825 8.62832 8.12183 9.39036 7.5794C10.1524 7.03696 11.0645 6.74548 11.9999 6.74548C12.9353 6.74548 13.8475 7.03696 14.6095 7.5794C15.3715 8.12183 15.9456 8.88825 16.2519 9.77208C16.5581 10.6559 16.5814 11.6132 16.3184 12.5108C16.0553 13.4085 15.5191 14.2019 14.7843 14.7806C16.1535 15.3262 17.3305 16.265 18.1668 17.4788C18.3564 17.2658 18.5351 17.0433 18.7021 16.8122C18.8182 16.6506 18.9938 16.5417 19.1902 16.5095C19.3866 16.4774 19.5877 16.5245 19.7493 16.6406C19.9109 16.7567 20.0198 16.9323 20.052 17.1287C20.0841 17.3251 20.037 17.5262 19.9209 17.6878L19.9199 17.6869ZM11.9999 14.25C12.5933 14.25 13.1733 14.0741 13.6666 13.7444C14.16 13.4148 14.5445 12.9462 14.7716 12.3981C14.9986 11.8499 15.058 11.2467 14.9423 10.6647C14.8265 10.0828 14.5408 9.54824 14.1212 9.12868C13.7017 8.70912 13.1671 8.4234 12.5852 8.30764C12.0033 8.19189 11.4001 8.2513 10.8519 8.47836C10.3037 8.70542 9.83516 9.08994 9.50552 9.58329C9.17588 10.0766 8.99993 10.6567 8.99993 11.25C8.99993 12.0457 9.316 12.8087 9.87861 13.3713C10.4412 13.9339 11.2043 14.25 11.9999 14.25ZM11.9999 20.25C13.8303 20.2476 15.6082 19.638 17.0549 18.5166C16.5124 17.668 15.7649 16.9697 14.8815 16.486C13.9981 16.0023 13.0071 15.7487 11.9999 15.7487C10.9928 15.7487 10.0018 16.0023 9.11835 16.486C8.23493 16.9697 7.48749 17.668 6.94493 18.5166C8.38945 19.642 10.1688 20.2521 11.9999 20.25Z" fill="black"/>
</g>
<defs>
<clipPath id="clip0_2519_328830">
<rect width="24" height="24" fill="white"/>
</clipPath>
</defs>
</svg>
