<svg width="30" height="30" viewBox="0 0 30 30" fill="none" xmlns="http://www.w3.org/2000/svg">
<path d="M15.0001 0.761719C7.0471 0.761719 0.600098 7.20872 0.600098 15.1617C0.600098 23.1147 7.0471 29.5617 15.0001 29.5617C22.9531 29.5617 29.4001 23.1147 29.4001 15.1617C29.4001 7.20872 22.9531 0.761719 15.0001 0.761719ZM20.8576 12.5577C20.8636 12.6807 20.8651 12.8037 20.8651 12.9237C20.8651 16.6737 18.0136 20.9952 12.7966 20.9952C11.255 20.9978 9.74555 20.555 8.4496 19.7202C8.6701 19.7472 8.8966 19.7577 9.1261 19.7577C10.4551 19.7577 11.6776 19.3062 12.6481 18.5442C12.0567 18.5326 11.4836 18.3368 11.0088 17.984C10.5339 17.6312 10.181 17.1391 9.9991 16.5762C10.4238 16.657 10.8614 16.6401 11.2786 16.5267C10.6367 16.3969 10.0594 16.0491 9.64466 15.5422C9.22993 15.0353 9.00326 14.4006 9.0031 13.7457V13.7112C9.3856 13.9227 9.8236 14.0517 10.2886 14.0667C9.6868 13.6661 9.26078 13.0507 9.09767 12.3464C8.93455 11.6421 9.04668 10.9021 9.4111 10.2777C10.1235 11.1537 11.012 11.8703 12.019 12.3812C13.0259 12.892 14.1289 13.1857 15.2566 13.2432C15.1132 12.6347 15.1749 11.9958 15.4321 11.426C15.6893 10.8561 16.1275 10.3872 16.6787 10.0921C17.2299 9.79703 17.8631 9.6923 18.4799 9.79423C19.0968 9.89615 19.6627 10.199 20.0896 10.6557C20.7244 10.5301 21.3331 10.2973 21.8896 9.96722C21.678 10.6244 21.2351 11.1825 20.6431 11.5377C21.2054 11.47 21.7544 11.3188 22.2721 11.0892C21.8918 11.6591 21.4128 12.1564 20.8576 12.5577V12.5577Z" fill="white"/>
</svg>
