<svg width="36" height="30" viewBox="0 0 36 30" fill="none" xmlns="http://www.w3.org/2000/svg">
<path d="M36 4.34013C30.9698 6.12613 28.4306 10.1861 28.3846 16.5191H34.8925V29.2451H21.5311V19.2591C21.5311 16.3771 21.7162 13.8801 22.0854 11.7691C22.5006 9.61812 23.5385 7.48612 25.2002 5.37512C26.8609 3.22412 29.4236 1.45812 32.8852 0.078125L36 4.34013ZM14.47 4.34013C9.43872 6.12613 6.87707 10.1861 6.78394 16.5191H13.3614V29.2451H0V19.2591C0 16.3771 0.185139 13.8801 0.554295 11.7691C0.969455 9.61812 1.98491 7.48612 3.60067 5.37512C5.26131 3.22412 7.84653 1.45812 11.3541 0.078125L14.47 4.34013Z" fill="#FF5A43"/>
</svg>
