<svg width="30" height="30" viewBox="0 0 30 30" fill="none" xmlns="http://www.w3.org/2000/svg">
<path d="M19.5001 15.1617C19.5001 16.3552 19.026 17.4998 18.1821 18.3437C17.3382 19.1876 16.1936 19.6617 15.0001 19.6617C13.8066 19.6617 12.662 19.1876 11.8181 18.3437C10.9742 17.4998 10.5001 16.3552 10.5001 15.1617C10.5001 14.9052 10.5271 14.6547 10.5736 14.4117H9.0001V20.4072C9.0001 20.8242 9.3376 21.1617 9.7546 21.1617H20.2471C20.4469 21.1613 20.6385 21.0817 20.7796 20.9402C20.9208 20.7987 21.0001 20.6071 21.0001 20.4072V14.4117H19.4266C19.4731 14.6547 19.5001 14.9052 19.5001 15.1617V15.1617ZM15.0001 18.1617C15.3942 18.1616 15.7844 18.0839 16.1484 17.933C16.5124 17.7821 16.8432 17.561 17.1217 17.2823C17.4003 17.0036 17.6213 16.6727 17.772 16.3086C17.9227 15.9445 18.0002 15.5543 18.0001 15.1602C18 14.7662 17.9223 14.376 17.7714 14.0119C17.6205 13.6479 17.3994 13.3172 17.1207 13.0386C16.842 12.76 16.5111 12.5391 16.147 12.3884C15.7829 12.2376 15.3927 12.1601 14.9986 12.1602C14.2028 12.1604 13.4396 12.4768 12.877 13.0396C12.3144 13.6025 11.9984 14.3659 11.9986 15.1617C11.9988 15.9576 12.3151 16.7207 12.878 17.2834C13.4409 17.846 14.2043 18.1619 15.0001 18.1617V18.1617ZM18.6001 12.0117H20.3986C20.5181 12.0117 20.6327 11.9644 20.7173 11.88C20.802 11.7957 20.8497 11.6812 20.8501 11.5617V9.76322C20.8501 9.64347 20.8025 9.52863 20.7179 9.44396C20.6332 9.35929 20.5183 9.31172 20.3986 9.31172H18.6001C18.4804 9.31172 18.3655 9.35929 18.2808 9.44396C18.1962 9.52863 18.1486 9.64347 18.1486 9.76322V11.5617C18.1501 11.8092 18.3526 12.0117 18.6001 12.0117V12.0117ZM15.0001 0.761719C11.181 0.761719 7.51828 2.27886 4.81776 4.97938C2.11724 7.6799 0.600098 11.3426 0.600098 15.1617C0.600098 18.9808 2.11724 22.6435 4.81776 25.3441C7.51828 28.0446 11.181 29.5617 15.0001 29.5617C16.8911 29.5617 18.7637 29.1893 20.5107 28.4656C22.2578 27.7419 23.8453 26.6812 25.1824 25.3441C26.5196 24.0069 27.5803 22.4194 28.304 20.6724C29.0276 18.9253 29.4001 17.0528 29.4001 15.1617C29.4001 13.2707 29.0276 11.3982 28.304 9.65108C27.5803 7.90399 26.5196 6.31654 25.1824 4.97938C23.8453 3.64222 22.2578 2.58152 20.5107 1.85785C18.7637 1.13419 16.8911 0.761719 15.0001 0.761719V0.761719ZM22.5001 20.9952C22.5001 21.9117 21.7501 22.6617 20.8336 22.6617H9.1666C8.2501 22.6617 7.5001 21.9117 7.5001 20.9952V9.32822C7.5001 8.41172 8.2501 7.66172 9.1666 7.66172H20.8336C21.7501 7.66172 22.5001 8.41172 22.5001 9.32822V20.9952V20.9952Z" fill="white"/>
</svg>
