<svg width="24" height="20" viewBox="0 0 24 20" fill="none" xmlns="http://www.w3.org/2000/svg">
<path d="M13.3846 14.625C13.3846 14.8475 13.3034 15.065 13.1513 15.25C12.9991 15.435 12.7829 15.5792 12.5299 15.6644C12.2769 15.7495 11.9985 15.7718 11.7299 15.7284C11.4613 15.685 11.2146 15.5778 11.0209 15.4205C10.8273 15.2632 10.6954 15.0627 10.642 14.8445C10.5886 14.6262 10.616 14.4 10.7208 14.1945C10.8256 13.9889 11.0031 13.8132 11.2308 13.6896C11.4585 13.566 11.7262 13.5 12 13.5C12.3672 13.5 12.7194 13.6185 12.9791 13.8295C13.2387 14.0405 13.3846 14.3266 13.3846 14.625ZM12 4.5C9.45462 4.5 7.38462 6.01406 7.38462 7.875V8.25C7.38462 8.44891 7.48187 8.63968 7.65498 8.78033C7.82809 8.92098 8.06288 9 8.3077 9C8.55251 9 8.7873 8.92098 8.96041 8.78033C9.13352 8.63968 9.23077 8.44891 9.23077 8.25V7.875C9.23077 6.84375 10.4735 6 12 6C13.5265 6 14.7692 6.84375 14.7692 7.875C14.7692 8.90625 13.5265 9.75 12 9.75C11.7552 9.75 11.5204 9.82902 11.3473 9.96967C11.1742 10.1103 11.0769 10.3011 11.0769 10.5V11.25C11.0769 11.4489 11.1742 11.6397 11.3473 11.7803C11.5204 11.921 11.7552 12 12 12C12.2448 12 12.4796 11.921 12.6527 11.7803C12.8258 11.6397 12.9231 11.4489 12.9231 11.25V11.1825C15.0277 10.8684 16.6154 9.50437 16.6154 7.875C16.6154 6.01406 14.5454 4.5 12 4.5ZM24 9.75C24 11.6784 23.2962 13.5634 21.9776 15.1668C20.6591 16.7702 18.7849 18.0199 16.5922 18.7578C14.3995 19.4958 11.9867 19.6889 9.65892 19.3127C7.33115 18.9365 5.19295 18.0079 3.51472 16.6443C1.83649 15.2807 0.693605 13.5434 0.230582 11.6521C-0.232441 9.76082 0.00519941 7.80042 0.913451 6.01884C1.8217 4.23726 3.35977 2.71451 5.33316 1.64317C7.30655 0.571828 9.62663 0 12 0C15.1816 0.00272983 18.2319 1.03084 20.4816 2.85872C22.7313 4.68661 23.9966 7.16498 24 9.75ZM22.1538 9.75C22.1538 8.1183 21.5583 6.52325 20.4426 5.16655C19.3269 3.80984 17.7411 2.75242 15.8857 2.12799C14.0303 1.50357 11.9887 1.34019 10.0191 1.65852C8.04943 1.97685 6.24019 2.76259 4.82015 3.91637C3.40011 5.07015 2.43305 6.54016 2.04126 8.1405C1.64947 9.74085 1.85055 11.3996 2.61907 12.9071C3.38759 14.4146 4.68904 15.7031 6.35883 16.6096C8.02862 17.5161 9.99176 18 12 18C14.692 17.9975 17.2729 17.1275 19.1765 15.5809C21.08 14.0343 22.1508 11.9373 22.1538 9.75Z" fill="black"/>
</svg>
