<svg width="32" height="33" viewBox="0 0 32 33" fill="none" xmlns="http://www.w3.org/2000/svg">
<path opacity="0.2" d="M5 6.66162C4.73478 6.66162 4.48043 6.76698 4.29289 6.95451C4.10536 7.14205 4 7.3964 4 7.66162V25.6616C4 25.9268 4.10536 26.1812 4.29289 26.3687C4.48043 26.5563 4.73478 26.6616 5 26.6616H20V6.66162H5ZM12 18.6616C11.4067 18.6616 10.8266 18.4857 10.3333 18.156C9.83994 17.8264 9.45542 17.3579 9.22836 16.8097C9.0013 16.2615 8.94189 15.6583 9.05764 15.0764C9.1734 14.4944 9.45912 13.9599 9.87868 13.5403C10.2982 13.1207 10.8328 12.835 11.4147 12.7193C11.9967 12.6035 12.5999 12.6629 13.1481 12.89C13.6962 13.117 14.1648 13.5016 14.4944 13.9949C14.8241 14.4883 15 15.0683 15 15.6616C15 16.4573 14.6839 17.2203 14.1213 17.7829C13.5587 18.3456 12.7956 18.6616 12 18.6616Z" fill="black"/>
<path d="M27 5.66162H5C4.46957 5.66162 3.96086 5.87233 3.58579 6.24741C3.21071 6.62248 3 7.13119 3 7.66162V25.6616C3 26.1921 3.21071 26.7008 3.58579 27.0758C3.96086 27.4509 4.46957 27.6616 5 27.6616H27C27.5304 27.6616 28.0391 27.4509 28.4142 27.0758C28.7893 26.7008 29 26.1921 29 25.6616V7.66162C29 7.13119 28.7893 6.62248 28.4142 6.24741C28.0391 5.87233 27.5304 5.66162 27 5.66162ZM27 15.6616H21V7.66162H27V15.6616ZM5 7.66162H19V25.6616H5V7.66162ZM27 25.6616H21V17.6616H27V25.6616ZM22.5 11.6616C22.5 11.3649 22.588 11.0749 22.7528 10.8283C22.9176 10.5816 23.1519 10.3893 23.426 10.2758C23.7001 10.1623 24.0017 10.1326 24.2926 10.1904C24.5836 10.2483 24.8509 10.3912 25.0607 10.601C25.2704 10.8107 25.4133 11.078 25.4712 11.369C25.5291 11.66 25.4993 11.9616 25.3858 12.2356C25.2723 12.5097 25.08 12.744 24.8334 12.9088C24.5867 13.0736 24.2967 13.1616 24 13.1616C23.6022 13.1616 23.2206 13.0036 22.9393 12.7223C22.658 12.441 22.5 12.0594 22.5 11.6616ZM25.5 21.6616C25.5 21.9583 25.412 22.2483 25.2472 22.495C25.0824 22.7416 24.8481 22.9339 24.574 23.0474C24.2999 23.161 23.9983 23.1907 23.7074 23.1328C23.4164 23.0749 23.1491 22.9321 22.9393 22.7223C22.7296 22.5125 22.5867 22.2452 22.5288 21.9543C22.4709 21.6633 22.5007 21.3617 22.6142 21.0876C22.7277 20.8135 22.92 20.5792 23.1666 20.4144C23.4133 20.2496 23.7033 20.1616 24 20.1616C24.3978 20.1616 24.7794 20.3197 25.0607 20.601C25.342 20.8823 25.5 21.2638 25.5 21.6616ZM16.9688 21.4116C16.6452 20.2034 15.8779 19.1616 14.82 18.4941C15.3818 17.9357 15.7651 17.223 15.9214 16.4464C16.0777 15.6698 15.9998 14.8643 15.6978 14.1321C15.3957 13.3998 14.8831 12.7736 14.2248 12.3331C13.5664 11.8925 12.7921 11.6573 12 11.6573C11.2079 11.6573 10.4336 11.8925 9.77525 12.3331C9.11693 12.7736 8.60426 13.3998 8.30221 14.1321C8.00016 14.8643 7.92234 15.6698 8.07861 16.4464C8.23488 17.223 8.61821 17.9357 9.18 18.4941C8.12282 19.1623 7.35575 20.2038 7.03125 21.4116C6.96495 21.6686 7.00342 21.9413 7.13821 22.1699C7.27301 22.3984 7.49307 22.5641 7.75 22.6304C8.00693 22.6967 8.27967 22.6582 8.50823 22.5234C8.73679 22.3886 8.90245 22.1686 8.96875 21.9116C9.29875 20.6304 10.6013 19.6616 12 19.6616C13.3988 19.6616 14.7025 20.6279 15.0312 21.9116C15.0976 22.1686 15.2632 22.3886 15.4918 22.5234C15.7203 22.6582 15.9931 22.6967 16.25 22.6304C16.5069 22.5641 16.727 22.3984 16.8618 22.1699C16.9966 21.9413 17.0351 21.6686 16.9688 21.4116ZM10 15.6616C10 15.2661 10.1173 14.8794 10.3371 14.5505C10.5568 14.2216 10.8692 13.9652 11.2346 13.8139C11.6001 13.6625 12.0022 13.6229 12.3902 13.7001C12.7781 13.7772 13.1345 13.9677 13.4142 14.2474C13.6939 14.5271 13.8844 14.8835 13.9616 15.2714C14.0387 15.6594 13.9991 16.0615 13.8478 16.427C13.6964 16.7924 13.44 17.1048 13.1111 17.3246C12.7822 17.5443 12.3956 17.6616 12 17.6616C11.4696 17.6616 10.9609 17.4509 10.5858 17.0758C10.2107 16.7008 10 16.1921 10 15.6616Z" fill="#A5DBE2"/>
</svg>
