<svg width="100" height="101" viewBox="0 0 100 101" fill="none" xmlns="http://www.w3.org/2000/svg">
<path opacity="0.2" d="M15.625 18.9116C14.7962 18.9116 14.0013 19.2409 13.4153 19.8269C12.8292 20.413 12.5 21.2078 12.5 22.0366V78.2866C12.5 79.1154 12.8292 79.9103 13.4153 80.4963C14.0013 81.0824 14.7962 81.4116 15.625 81.4116H62.5V18.9116H15.625ZM37.5 56.4116C35.6458 56.4116 33.8332 55.8618 32.2915 54.8316C30.7498 53.8015 29.5482 52.3373 28.8386 50.6243C28.1291 48.9112 27.9434 47.0262 28.3051 45.2076C28.6669 43.3891 29.5598 41.7186 30.8709 40.4075C32.182 39.0964 33.8525 38.2035 35.671 37.8418C37.4896 37.48 39.3746 37.6657 41.0877 38.3752C42.8007 39.0848 44.2649 40.2864 45.295 41.8281C46.3252 43.3699 46.875 45.1824 46.875 47.0366C46.875 49.523 45.8873 51.9076 44.1291 53.6657C42.371 55.4239 39.9864 56.4116 37.5 56.4116Z" fill="black"/>
<path d="M84.375 15.7866H15.625C13.9674 15.7866 12.3777 16.4451 11.2056 17.6172C10.0335 18.7893 9.375 20.379 9.375 22.0366V78.2866C9.375 79.9442 10.0335 81.5339 11.2056 82.706C12.3777 83.8781 13.9674 84.5366 15.625 84.5366H84.375C86.0326 84.5366 87.6223 83.8781 88.7944 82.706C89.9665 81.5339 90.625 79.9442 90.625 78.2866V22.0366C90.625 20.379 89.9665 18.7893 88.7944 17.6172C87.6223 16.4451 86.0326 15.7866 84.375 15.7866ZM84.375 47.0366H65.625V22.0366H84.375V47.0366ZM15.625 22.0366H59.375V78.2866H15.625V22.0366ZM84.375 78.2866H65.625V53.2866H84.375V78.2866ZM70.3125 34.5366C70.3125 33.6095 70.5874 32.7032 71.1025 31.9324C71.6176 31.1615 72.3496 30.5607 73.2062 30.2059C74.0627 29.8511 75.0052 29.7583 75.9145 29.9392C76.8238 30.1201 77.659 30.5665 78.3146 31.2221C78.9701 31.8776 79.4166 32.7128 79.5974 33.6221C79.7783 34.5314 79.6855 35.4739 79.3307 36.3305C78.9759 37.187 78.3751 37.9191 77.6042 38.4341C76.8334 38.9492 75.9271 39.2241 75 39.2241C73.7568 39.2241 72.5645 38.7303 71.6854 37.8512C70.8064 36.9721 70.3125 35.7798 70.3125 34.5366ZM79.6875 65.7866C79.6875 66.7137 79.4126 67.62 78.8975 68.3909C78.3824 69.1617 77.6504 69.7625 76.7938 70.1173C75.9373 70.4721 74.9948 70.5649 74.0855 70.3841C73.1762 70.2032 72.341 69.7567 71.6854 69.1012C71.0299 68.4456 70.5834 67.6104 70.4026 66.7011C70.2217 65.7918 70.3145 64.8493 70.6693 63.9928C71.0241 63.1363 71.6249 62.4042 72.3958 61.8891C73.1666 61.374 74.0729 61.0991 75 61.0991C76.2432 61.0991 77.4355 61.593 78.3146 62.4721C79.1936 63.3511 79.6875 64.5434 79.6875 65.7866ZM53.0273 65.0054C52.0161 61.2296 49.6183 57.974 46.3125 55.8882C48.0681 54.143 49.266 51.9159 49.7543 49.4891C50.2427 47.0623 49.9995 44.5451 49.0556 42.2567C48.1117 39.9683 46.5096 38.0117 44.4524 36.6349C42.3951 35.2581 39.9754 34.5231 37.5 34.5231C35.0246 34.5231 32.6049 35.2581 30.5476 36.6349C28.4904 38.0117 26.8883 39.9683 25.9444 42.2567C25.0005 44.5451 24.7573 47.0623 25.2457 49.4891C25.734 51.9159 26.9319 54.143 28.6875 55.8882C25.3838 57.9763 22.9867 61.231 21.9727 65.0054C21.7655 65.8083 21.8857 66.6606 22.3069 67.3748C22.7281 68.0891 23.4158 68.6068 24.2188 68.814C25.0217 69.0212 25.874 68.9009 26.5882 68.4797C27.3025 68.0585 27.8201 67.3708 28.0273 66.5679C29.0586 62.564 33.1289 59.5366 37.5 59.5366C41.8711 59.5366 45.9453 62.5562 46.9727 66.5679C47.1799 67.3708 47.6975 68.0585 48.4118 68.4797C49.126 68.9009 49.9783 69.0212 50.7812 68.814C51.5842 68.6068 52.2719 68.0891 52.6931 67.3748C53.1143 66.6606 53.2345 65.8083 53.0273 65.0054ZM31.25 47.0366C31.25 45.8005 31.6166 44.5921 32.3033 43.5643C32.9901 42.5365 33.9662 41.7354 35.1082 41.2624C36.2503 40.7893 37.5069 40.6656 38.7193 40.9067C39.9317 41.1479 41.0453 41.7431 41.9194 42.6172C42.7935 43.4913 43.3888 44.6049 43.6299 45.8173C43.8711 47.0297 43.7473 48.2864 43.2742 49.4284C42.8012 50.5704 42.0001 51.5465 40.9723 52.2333C39.9445 52.9201 38.7361 53.2866 37.5 53.2866C35.8424 53.2866 34.2527 52.6281 33.0806 51.456C31.9085 50.2839 31.25 48.6942 31.25 47.0366Z" fill="#A5DBE2"/>
</svg>
